<?xml version="1.0" encoding="utf-8" standalone="no"?>
<!DOCTYPE svg PUBLIC "-//W3C//DTD SVG 1.1//EN"
  "http://www.w3.org/Graphics/SVG/1.1/DTD/svg11.dtd">
<!-- Created with matplotlib (https://matplotlib.org/) -->
<svg height="576pt" version="1.1" viewBox="0 0 1080 576" width="1080pt" xmlns="http://www.w3.org/2000/svg" xmlns:xlink="http://www.w3.org/1999/xlink">
 <metadata>
  <rdf:RDF xmlns:cc="http://creativecommons.org/ns#" xmlns:dc="http://purl.org/dc/elements/1.1/" xmlns:rdf="http://www.w3.org/1999/02/22-rdf-syntax-ns#">
   <cc:Work>
    <dc:type rdf:resource="http://purl.org/dc/dcmitype/StillImage"/>
    <dc:date>2020-12-11T14:24:34.159477</dc:date>
    <dc:format>image/svg+xml</dc:format>
    <dc:creator>
     <cc:Agent>
      <dc:title>Matplotlib v3.3.3, https://matplotlib.org/</dc:title>
     </cc:Agent>
    </dc:creator>
   </cc:Work>
  </rdf:RDF>
 </metadata>
 <defs>
  <style type="text/css">*{stroke-linecap:butt;stroke-linejoin:round;}</style>
 </defs>
 <g id="figure_1">
  <g id="patch_1">
   <path d="M 0 576 
L 1080 576 
L 1080 0 
L 0 0 
z
" style="fill:#ffffff;"/>
  </g>
  <g id="axes_1">
   <g id="patch_2">
    <path d="M 77.164 153.217281 
L 546.168 153.217281 
L 546.168 11.664 
L 77.164 11.664 
z
" style="fill:#ffffff;"/>
   </g>
   <g id="matplotlib.axis_1">
    <g id="xtick_1">
     <g id="text_1">
      <!-- 70% -->
      <g style="fill:#262626;" transform="translate(146.391169 170.292328)scale(0.099 -0.099)">
       <defs>
        <path d="M 6.78125 72.90625 
L 52.6875 72.90625 
L 52.6875 68.703125 
L 26.609375 0 
L 16.3125 0 
L 41.703125 64.59375 
L 6.78125 64.59375 
z
" id="DejaVuSansMono-55"/>
        <path d="M 23.578125 36.625 
Q 23.578125 39.3125 25.453125 41.265625 
Q 27.34375 43.21875 29.984375 43.21875 
Q 32.71875 43.21875 34.671875 41.265625 
Q 36.625 39.3125 36.625 36.625 
Q 36.625 33.890625 34.6875 31.984375 
Q 32.765625 30.078125 29.984375 30.078125 
Q 27.25 30.078125 25.40625 31.9375 
Q 23.578125 33.796875 23.578125 36.625 
z
M 30.078125 66.40625 
Q 23.1875 66.40625 19.796875 58.984375 
Q 16.40625 51.5625 16.40625 36.375 
Q 16.40625 21.234375 19.796875 13.8125 
Q 23.1875 6.390625 30.078125 6.390625 
Q 37.015625 6.390625 40.40625 13.8125 
Q 43.796875 21.234375 43.796875 36.375 
Q 43.796875 51.5625 40.40625 58.984375 
Q 37.015625 66.40625 30.078125 66.40625 
z
M 30.078125 74.21875 
Q 41.75 74.21875 47.734375 64.640625 
Q 53.71875 55.078125 53.71875 36.375 
Q 53.71875 17.71875 47.734375 8.140625 
Q 41.75 -1.421875 30.078125 -1.421875 
Q 18.40625 -1.421875 12.453125 8.140625 
Q 6.5 17.71875 6.5 36.375 
Q 6.5 55.078125 12.453125 64.640625 
Q 18.40625 74.21875 30.078125 74.21875 
z
" id="DejaVuSansMono-48"/>
        <path d="M 33.984375 15.578125 
Q 33.984375 11.765625 36.546875 9.171875 
Q 39.109375 6.59375 42.921875 6.59375 
Q 46.6875 6.59375 49.296875 9.203125 
Q 51.90625 11.8125 51.90625 15.578125 
Q 51.90625 19.34375 49.265625 21.96875 
Q 46.625 24.609375 42.921875 24.609375 
Q 39.109375 24.609375 36.546875 22.015625 
Q 33.984375 19.4375 33.984375 15.578125 
z
M 27.390625 15.578125 
Q 27.390625 22.171875 31.875 26.6875 
Q 36.375 31.203125 42.921875 31.203125 
Q 46.046875 31.203125 48.84375 30.03125 
Q 51.65625 28.859375 53.90625 26.609375 
Q 56.15625 24.3125 57.375 21.484375 
Q 58.59375 18.65625 58.59375 15.578125 
Q 58.59375 9.078125 54.046875 4.53125 
Q 49.515625 0 42.921875 0 
Q 36.28125 0 31.828125 4.46875 
Q 27.390625 8.9375 27.390625 15.578125 
z
M 5.90625 22.703125 
L 4.203125 27.390625 
L 55.078125 47.796875 
L 57.078125 43.109375 
z
M 8.203125 54.296875 
Q 8.203125 50.4375 10.765625 47.875 
Q 13.328125 45.3125 17.1875 45.3125 
Q 20.953125 45.3125 23.578125 47.921875 
Q 26.21875 50.53125 26.21875 54.296875 
Q 26.21875 58.0625 23.578125 60.671875 
Q 20.953125 63.28125 17.1875 63.28125 
Q 13.421875 63.28125 10.8125 60.6875 
Q 8.203125 58.109375 8.203125 54.296875 
z
M 1.609375 54.296875 
Q 1.609375 60.890625 6.09375 65.40625 
Q 10.59375 69.921875 17.1875 69.921875 
Q 20.3125 69.921875 23.171875 68.75 
Q 26.03125 67.578125 28.21875 65.375 
Q 30.421875 63.1875 31.609375 60.328125 
Q 32.8125 57.46875 32.8125 54.296875 
Q 32.8125 47.75 28.265625 43.234375 
Q 23.734375 38.71875 17.1875 38.71875 
Q 10.59375 38.71875 6.09375 43.203125 
Q 1.609375 47.703125 1.609375 54.296875 
z
" id="DejaVuSansMono-37"/>
       </defs>
       <use xlink:href="#DejaVuSansMono-55"/>
       <use x="60.205078" xlink:href="#DejaVuSansMono-48"/>
       <use x="120.410156" xlink:href="#DejaVuSansMono-37"/>
      </g>
     </g>
    </g>
    <g id="xtick_2">
     <g id="text_2">
      <!-- 90% -->
      <g style="fill:#262626;" transform="translate(302.725836 170.292328)scale(0.099 -0.099)">
       <defs>
        <path d="M 29.109375 32.328125 
Q 35.40625 32.328125 38.984375 36.859375 
Q 42.578125 41.40625 42.578125 49.421875 
Q 42.578125 57.421875 38.984375 61.953125 
Q 35.40625 66.5 29.109375 66.5 
Q 22.5625 66.5 19.234375 62.171875 
Q 15.921875 57.859375 15.921875 49.421875 
Q 15.921875 40.921875 19.21875 36.625 
Q 22.515625 32.328125 29.109375 32.328125 
z
M 11.53125 1.515625 
L 11.53125 10.59375 
Q 14.59375 8.796875 18.0625 7.84375 
Q 21.53125 6.890625 25.296875 6.890625 
Q 34.671875 6.890625 39.46875 13.9375 
Q 44.28125 21 44.28125 34.71875 
Q 42 29.828125 37.84375 27.21875 
Q 33.6875 24.609375 28.328125 24.609375 
Q 17.78125 24.609375 11.984375 31.09375 
Q 6.203125 37.59375 6.203125 49.515625 
Q 6.203125 61.28125 12.125 67.75 
Q 18.0625 74.21875 28.90625 74.21875 
Q 41.609375 74.21875 47.515625 65.078125 
Q 53.421875 55.953125 53.421875 36.375 
Q 53.421875 17.96875 46.3125 8.265625 
Q 39.203125 -1.421875 25.6875 -1.421875 
Q 22.125 -1.421875 18.5 -0.65625 
Q 14.890625 0.09375 11.53125 1.515625 
z
" id="DejaVuSansMono-57"/>
       </defs>
       <use xlink:href="#DejaVuSansMono-57"/>
       <use x="60.205078" xlink:href="#DejaVuSansMono-48"/>
       <use x="120.410156" xlink:href="#DejaVuSansMono-37"/>
      </g>
     </g>
    </g>
    <g id="xtick_3">
     <g id="text_3">
      <!-- 100% -->
      <g style="fill:#262626;" transform="translate(456.080448 170.292328)scale(0.099 -0.099)">
       <defs>
        <path d="M 13.1875 8.296875 
L 28.515625 8.296875 
L 28.515625 64.015625 
L 12.015625 60.296875 
L 12.015625 69.28125 
L 28.421875 72.90625 
L 38.28125 72.90625 
L 38.28125 8.296875 
L 53.421875 8.296875 
L 53.421875 0 
L 13.1875 0 
z
" id="DejaVuSansMono-49"/>
       </defs>
       <use xlink:href="#DejaVuSansMono-49"/>
       <use x="60.205078" xlink:href="#DejaVuSansMono-48"/>
       <use x="120.410156" xlink:href="#DejaVuSansMono-48"/>
       <use x="180.615234" xlink:href="#DejaVuSansMono-37"/>
      </g>
     </g>
    </g>
    <g id="text_4">
     <!-- network -->
     <g style="fill:#262626;" transform="translate(288.909219 184.614906)scale(0.108 -0.108)">
      <defs>
       <path d="M 51.3125 33.890625 
L 51.3125 0 
L 42.28125 0 
L 42.28125 33.890625 
Q 42.28125 41.265625 39.6875 44.71875 
Q 37.109375 48.1875 31.59375 48.1875 
Q 25.296875 48.1875 21.890625 43.71875 
Q 18.5 39.265625 18.5 30.90625 
L 18.5 0 
L 9.515625 0 
L 9.515625 54.6875 
L 18.5 54.6875 
L 18.5 46.484375 
Q 20.90625 51.171875 25 53.578125 
Q 29.109375 56 34.71875 56 
Q 43.0625 56 47.1875 50.5 
Q 51.3125 45.015625 51.3125 33.890625 
z
" id="DejaVuSansMono-110"/>
       <path d="M 54.296875 29.59375 
L 54.296875 25.203125 
L 15.375 25.203125 
L 15.375 24.90625 
Q 15.375 15.96875 20.03125 11.078125 
Q 24.703125 6.203125 33.203125 6.203125 
Q 37.5 6.203125 42.1875 7.5625 
Q 46.875 8.9375 52.203125 11.71875 
L 52.203125 2.78125 
Q 47.078125 0.6875 42.3125 -0.359375 
Q 37.546875 -1.421875 33.109375 -1.421875 
Q 20.359375 -1.421875 13.171875 6.21875 
Q 6 13.875 6 27.296875 
Q 6 40.375 13.03125 48.1875 
Q 20.0625 56 31.78125 56 
Q 42.234375 56 48.265625 48.921875 
Q 54.296875 41.84375 54.296875 29.59375 
z
M 45.3125 32.234375 
Q 45.125 40.140625 41.578125 44.265625 
Q 38.03125 48.390625 31.390625 48.390625 
Q 24.90625 48.390625 20.703125 44.09375 
Q 16.5 39.796875 15.71875 32.171875 
z
" id="DejaVuSansMono-101"/>
       <path d="M 29.984375 70.21875 
L 29.984375 54.6875 
L 50.390625 54.6875 
L 50.390625 47.703125 
L 29.984375 47.703125 
L 29.984375 18.015625 
Q 29.984375 11.96875 32.28125 9.5625 
Q 34.578125 7.171875 40.28125 7.171875 
L 50.390625 7.171875 
L 50.390625 0 
L 39.40625 0 
Q 29.296875 0 25.140625 4.046875 
Q 21 8.109375 21 18.015625 
L 21 47.703125 
L 6.390625 47.703125 
L 6.390625 54.6875 
L 21 54.6875 
L 21 70.21875 
z
" id="DejaVuSansMono-116"/>
       <path d="M 0 54.6875 
L 8.890625 54.6875 
L 18.40625 10.5 
L 26.21875 38.71875 
L 33.890625 38.71875 
L 41.796875 10.5 
L 51.3125 54.6875 
L 60.203125 54.6875 
L 47.40625 0 
L 38.8125 0 
L 30.078125 29.984375 
L 21.390625 0 
L 12.796875 0 
z
" id="DejaVuSansMono-119"/>
       <path d="M 30.078125 48.390625 
Q 23.25 48.390625 19.734375 43.0625 
Q 16.21875 37.75 16.21875 27.296875 
Q 16.21875 16.890625 19.734375 11.546875 
Q 23.25 6.203125 30.078125 6.203125 
Q 36.96875 6.203125 40.484375 11.546875 
Q 44 16.890625 44 27.296875 
Q 44 37.75 40.484375 43.0625 
Q 36.96875 48.390625 30.078125 48.390625 
z
M 30.078125 56 
Q 41.453125 56 47.484375 48.625 
Q 53.515625 41.265625 53.515625 27.296875 
Q 53.515625 13.28125 47.5 5.921875 
Q 41.5 -1.421875 30.078125 -1.421875 
Q 18.703125 -1.421875 12.6875 5.921875 
Q 6.6875 13.28125 6.6875 27.296875 
Q 6.6875 41.265625 12.6875 48.625 
Q 18.703125 56 30.078125 56 
z
" id="DejaVuSansMono-111"/>
       <path d="M 56.390625 43.40625 
Q 53.515625 45.65625 50.53125 46.671875 
Q 47.5625 47.703125 44 47.703125 
Q 35.59375 47.703125 31.140625 42.421875 
Q 26.703125 37.15625 26.703125 27.203125 
L 26.703125 0 
L 17.671875 0 
L 17.671875 54.6875 
L 26.703125 54.6875 
L 26.703125 44 
Q 28.953125 49.8125 33.609375 52.90625 
Q 38.28125 56 44.671875 56 
Q 48 56 50.875 55.171875 
Q 53.765625 54.34375 56.390625 52.59375 
z
" id="DejaVuSansMono-114"/>
       <path d="M 11.53125 75.984375 
L 20.796875 75.984375 
L 20.796875 31.984375 
L 44.390625 54.6875 
L 55.328125 54.6875 
L 33.796875 34.078125 
L 58.6875 0 
L 47.703125 0 
L 27.484375 28.21875 
L 20.796875 21.921875 
L 20.796875 0 
L 11.53125 0 
z
" id="DejaVuSansMono-107"/>
      </defs>
      <use xlink:href="#DejaVuSansMono-110"/>
      <use x="60.205078" xlink:href="#DejaVuSansMono-101"/>
      <use x="120.410156" xlink:href="#DejaVuSansMono-116"/>
      <use x="180.615234" xlink:href="#DejaVuSansMono-119"/>
      <use x="240.820312" xlink:href="#DejaVuSansMono-111"/>
      <use x="301.025391" xlink:href="#DejaVuSansMono-114"/>
      <use x="361.230469" xlink:href="#DejaVuSansMono-107"/>
     </g>
    </g>
   </g>
   <g id="matplotlib.axis_2">
    <g id="ytick_1">
     <g id="line2d_1">
      <path clip-path="url(#p09c776d401)" d="M 77.164 146.783041 
L 546.168 146.783041 
" style="fill:none;stroke:#cccccc;stroke-linecap:round;"/>
     </g>
     <g id="text_5">
      <!-- 0 -->
      <g style="fill:#262626;" transform="translate(61.703891 150.570565)scale(0.099 -0.099)">
       <use xlink:href="#DejaVuSansMono-48"/>
      </g>
     </g>
    </g>
    <g id="ytick_2">
     <g id="line2d_2">
      <path clip-path="url(#p09c776d401)" d="M 77.164 124.596007 
L 546.168 124.596007 
" style="fill:none;stroke:#cccccc;stroke-linecap:round;"/>
     </g>
     <g id="text_6">
      <!-- 20 -->
      <g style="fill:#262626;" transform="translate(55.743781 128.38353)scale(0.099 -0.099)">
       <defs>
        <path d="M 18.21875 8.296875 
L 51.703125 8.296875 
L 51.703125 0 
L 7.421875 0 
L 7.421875 8.296875 
Q 16.546875 17.921875 23.375 25.296875 
Q 30.21875 32.671875 32.8125 35.6875 
Q 37.703125 41.65625 39.40625 45.34375 
Q 41.109375 49.03125 41.109375 52.875 
Q 41.109375 58.984375 37.515625 62.453125 
Q 33.9375 65.921875 27.6875 65.921875 
Q 23.25 65.921875 18.359375 64.3125 
Q 13.484375 62.703125 8.015625 59.421875 
L 8.015625 69.390625 
Q 13.03125 71.78125 17.890625 73 
Q 22.75 74.21875 27.484375 74.21875 
Q 38.1875 74.21875 44.703125 68.53125 
Q 51.21875 62.84375 51.21875 53.609375 
Q 51.21875 48.921875 49.046875 44.234375 
Q 46.875 39.546875 42 33.890625 
Q 39.265625 30.71875 34.0625 25.09375 
Q 28.859375 19.484375 18.21875 8.296875 
z
" id="DejaVuSansMono-50"/>
       </defs>
       <use xlink:href="#DejaVuSansMono-50"/>
       <use x="60.205078" xlink:href="#DejaVuSansMono-48"/>
      </g>
     </g>
    </g>
    <g id="ytick_3">
     <g id="line2d_3">
      <path clip-path="url(#p09c776d401)" d="M 77.164 102.408972 
L 546.168 102.408972 
" style="fill:none;stroke:#cccccc;stroke-linecap:round;"/>
     </g>
     <g id="text_7">
      <!-- 40 -->
      <g style="fill:#262626;" transform="translate(55.743781 106.196495)scale(0.099 -0.099)">
       <defs>
        <path d="M 35.890625 63.921875 
L 12.890625 25.390625 
L 35.890625 25.390625 
z
M 34.28125 72.90625 
L 45.703125 72.90625 
L 45.703125 25.390625 
L 55.421875 25.390625 
L 55.421875 17.390625 
L 45.703125 17.390625 
L 45.703125 0 
L 35.890625 0 
L 35.890625 17.390625 
L 4.984375 17.390625 
L 4.984375 26.703125 
z
" id="DejaVuSansMono-52"/>
       </defs>
       <use xlink:href="#DejaVuSansMono-52"/>
       <use x="60.205078" xlink:href="#DejaVuSansMono-48"/>
      </g>
     </g>
    </g>
    <g id="ytick_4">
     <g id="line2d_4">
      <path clip-path="url(#p09c776d401)" d="M 77.164 80.221937 
L 546.168 80.221937 
" style="fill:none;stroke:#cccccc;stroke-linecap:round;"/>
     </g>
     <g id="text_8">
      <!-- 60 -->
      <g style="fill:#262626;" transform="translate(55.743781 84.009461)scale(0.099 -0.099)">
       <defs>
        <path d="M 48.390625 71.296875 
L 48.390625 62.203125 
Q 45.3125 64.015625 41.84375 64.96875 
Q 38.375 65.921875 34.625 65.921875 
Q 25.25 65.921875 20.40625 58.859375 
Q 15.578125 51.8125 15.578125 38.09375 
Q 17.921875 42.96875 22.0625 45.578125 
Q 26.21875 48.1875 31.59375 48.1875 
Q 42.140625 48.1875 47.921875 41.71875 
Q 53.71875 35.25 53.71875 23.390625 
Q 53.71875 11.578125 47.75 5.078125 
Q 41.796875 -1.421875 31 -1.421875 
Q 18.3125 -1.421875 12.40625 7.6875 
Q 6.5 16.796875 6.5 36.375 
Q 6.5 54.828125 13.59375 64.515625 
Q 20.703125 74.21875 34.1875 74.21875 
Q 37.796875 74.21875 41.40625 73.453125 
Q 45.015625 72.703125 48.390625 71.296875 
z
M 30.8125 40.484375 
Q 24.515625 40.484375 20.890625 35.9375 
Q 17.28125 31.390625 17.28125 23.390625 
Q 17.28125 15.375 20.890625 10.828125 
Q 24.515625 6.296875 30.8125 6.296875 
Q 37.359375 6.296875 40.671875 10.609375 
Q 44 14.9375 44 23.390625 
Q 44 31.890625 40.671875 36.1875 
Q 37.359375 40.484375 30.8125 40.484375 
z
" id="DejaVuSansMono-54"/>
       </defs>
       <use xlink:href="#DejaVuSansMono-54"/>
       <use x="60.205078" xlink:href="#DejaVuSansMono-48"/>
      </g>
     </g>
    </g>
    <g id="ytick_5">
     <g id="line2d_5">
      <path clip-path="url(#p09c776d401)" d="M 77.164 58.034902 
L 546.168 58.034902 
" style="fill:none;stroke:#cccccc;stroke-linecap:round;"/>
     </g>
     <g id="text_9">
      <!-- 80 -->
      <g style="fill:#262626;" transform="translate(55.743781 61.822426)scale(0.099 -0.099)">
       <defs>
        <path d="M 30.078125 34.625 
Q 23.484375 34.625 19.890625 30.9375 
Q 16.3125 27.25 16.3125 20.515625 
Q 16.3125 13.765625 19.9375 10.03125 
Q 23.578125 6.296875 30.078125 6.296875 
Q 36.71875 6.296875 40.296875 9.984375 
Q 43.890625 13.671875 43.890625 20.515625 
Q 43.890625 27.203125 40.25 30.90625 
Q 36.625 34.625 30.078125 34.625 
z
M 21.484375 38.71875 
Q 15.1875 40.328125 11.640625 44.71875 
Q 8.109375 49.125 8.109375 55.328125 
Q 8.109375 64.015625 14.015625 69.109375 
Q 19.921875 74.21875 30.078125 74.21875 
Q 40.28125 74.21875 46.1875 69.109375 
Q 52.09375 64.015625 52.09375 55.328125 
Q 52.09375 49.125 48.546875 44.71875 
Q 45.015625 40.328125 38.71875 38.71875 
Q 46.046875 37.109375 49.921875 32.21875 
Q 53.8125 27.34375 53.8125 19.578125 
Q 53.8125 9.71875 47.515625 4.140625 
Q 41.21875 -1.421875 30.078125 -1.421875 
Q 18.953125 -1.421875 12.671875 4.125 
Q 6.390625 9.671875 6.390625 19.484375 
Q 6.390625 27.296875 10.265625 32.203125 
Q 14.15625 37.109375 21.484375 38.71875 
z
M 17.921875 54.390625 
Q 17.921875 48.53125 21.046875 45.453125 
Q 24.171875 42.390625 30.078125 42.390625 
Q 36.03125 42.390625 39.15625 45.453125 
Q 42.28125 48.53125 42.28125 54.390625 
Q 42.28125 60.359375 39.171875 63.484375 
Q 36.078125 66.609375 30.078125 66.609375 
Q 24.171875 66.609375 21.046875 63.453125 
Q 17.921875 60.296875 17.921875 54.390625 
z
" id="DejaVuSansMono-56"/>
       </defs>
       <use xlink:href="#DejaVuSansMono-56"/>
       <use x="60.205078" xlink:href="#DejaVuSansMono-48"/>
      </g>
     </g>
    </g>
    <g id="ytick_6">
     <g id="line2d_6">
      <path clip-path="url(#p09c776d401)" d="M 77.164 35.847868 
L 546.168 35.847868 
" style="fill:none;stroke:#cccccc;stroke-linecap:round;"/>
     </g>
     <g id="text_10">
      <!-- 100 -->
      <g style="fill:#262626;" transform="translate(49.783672 39.635391)scale(0.099 -0.099)">
       <use xlink:href="#DejaVuSansMono-49"/>
       <use x="60.205078" xlink:href="#DejaVuSansMono-48"/>
       <use x="120.410156" xlink:href="#DejaVuSansMono-48"/>
      </g>
     </g>
    </g>
    <g id="ytick_7">
     <g id="line2d_7">
      <path clip-path="url(#p09c776d401)" d="M 77.164 13.660833 
L 546.168 13.660833 
" style="fill:none;stroke:#cccccc;stroke-linecap:round;"/>
     </g>
     <g id="text_11">
      <!-- 120 -->
      <g style="fill:#262626;" transform="translate(49.783672 17.448357)scale(0.099 -0.099)">
       <use xlink:href="#DejaVuSansMono-49"/>
       <use x="60.205078" xlink:href="#DejaVuSansMono-50"/>
       <use x="120.410156" xlink:href="#DejaVuSansMono-48"/>
      </g>
     </g>
    </g>
    <g id="text_12">
     <!-- out-degree -->
     <g style="fill:#262626;" transform="translate(43.463359 114.950328)rotate(-90)scale(0.108 -0.108)">
      <defs>
       <path d="M 9.515625 20.703125 
L 9.515625 54.59375 
L 18.5 54.59375 
L 18.5 20.703125 
Q 18.5 13.328125 21.109375 9.859375 
Q 23.734375 6.390625 29.203125 6.390625 
Q 35.546875 6.390625 38.90625 10.859375 
Q 42.28125 15.328125 42.28125 23.6875 
L 42.28125 54.59375 
L 51.3125 54.59375 
L 51.3125 0 
L 42.28125 0 
L 42.28125 8.203125 
Q 39.890625 3.46875 35.765625 1.015625 
Q 31.640625 -1.421875 26.125 -1.421875 
Q 17.71875 -1.421875 13.609375 4.078125 
Q 9.515625 9.578125 9.515625 20.703125 
z
" id="DejaVuSansMono-117"/>
       <path d="M 17.390625 31.390625 
L 42.828125 31.390625 
L 42.828125 23.390625 
L 17.390625 23.390625 
z
" id="DejaVuSansMono-45"/>
       <path d="M 41.890625 47.703125 
L 41.890625 75.984375 
L 50.875 75.984375 
L 50.875 0 
L 41.890625 0 
L 41.890625 6.890625 
Q 39.65625 2.828125 35.90625 0.703125 
Q 32.171875 -1.421875 27.296875 -1.421875 
Q 17.390625 -1.421875 11.6875 6.265625 
Q 6 13.96875 6 27.484375 
Q 6 40.828125 11.71875 48.40625 
Q 17.4375 56 27.296875 56 
Q 32.234375 56 35.984375 53.875 
Q 39.75 51.765625 41.890625 47.703125 
z
M 15.484375 27.296875 
Q 15.484375 16.84375 18.796875 11.515625 
Q 22.125 6.203125 28.609375 6.203125 
Q 35.109375 6.203125 38.5 11.5625 
Q 41.890625 16.9375 41.890625 27.296875 
Q 41.890625 37.703125 38.5 43.046875 
Q 35.109375 48.390625 28.609375 48.390625 
Q 22.125 48.390625 18.796875 43.0625 
Q 15.484375 37.75 15.484375 27.296875 
z
" id="DejaVuSansMono-100"/>
       <path d="M 41.890625 27.78125 
Q 41.890625 37.890625 38.59375 43.140625 
Q 35.296875 48.390625 29 48.390625 
Q 22.40625 48.390625 18.9375 43.140625 
Q 15.484375 37.890625 15.484375 27.78125 
Q 15.484375 17.671875 18.96875 12.375 
Q 22.46875 7.078125 29.109375 7.078125 
Q 35.296875 7.078125 38.59375 12.390625 
Q 41.890625 17.71875 41.890625 27.78125 
z
M 50.875 3.515625 
Q 50.875 -8.796875 45.0625 -15.140625 
Q 39.265625 -21.484375 27.984375 -21.484375 
Q 24.265625 -21.484375 20.203125 -20.796875 
Q 16.15625 -20.125 12.109375 -18.796875 
L 12.109375 -9.90625 
Q 16.890625 -12.15625 20.796875 -13.234375 
Q 24.703125 -14.3125 27.984375 -14.3125 
Q 35.25 -14.3125 38.5625 -10.34375 
Q 41.890625 -6.390625 41.890625 2.203125 
L 41.890625 2.59375 
L 41.890625 8.6875 
Q 39.75 4.109375 36.03125 1.859375 
Q 32.328125 -0.390625 27 -0.390625 
Q 17.4375 -0.390625 11.71875 7.265625 
Q 6 14.9375 6 27.78125 
Q 6 40.671875 11.71875 48.328125 
Q 17.4375 56 27 56 
Q 32.28125 56 35.9375 53.90625 
Q 39.59375 51.8125 41.890625 47.40625 
L 41.890625 54.5 
L 50.875 54.5 
z
" id="DejaVuSansMono-103"/>
      </defs>
      <use xlink:href="#DejaVuSansMono-111"/>
      <use x="60.205078" xlink:href="#DejaVuSansMono-117"/>
      <use x="120.410156" xlink:href="#DejaVuSansMono-116"/>
      <use x="180.615234" xlink:href="#DejaVuSansMono-45"/>
      <use x="240.820312" xlink:href="#DejaVuSansMono-100"/>
      <use x="301.025391" xlink:href="#DejaVuSansMono-101"/>
      <use x="361.230469" xlink:href="#DejaVuSansMono-103"/>
      <use x="421.435547" xlink:href="#DejaVuSansMono-114"/>
      <use x="481.640625" xlink:href="#DejaVuSansMono-101"/>
      <use x="541.845703" xlink:href="#DejaVuSansMono-101"/>
     </g>
    </g>
   </g>
   <g id="PatchCollection_1">
    <path clip-path="url(#p09c776d401)" d="M 147.5146 146.783041 
L 163.148067 146.783041 
L 163.148067 60.253606 
L 147.5146 60.253606 
z
" style="fill:#e6eaf1;stroke:#4c4c4c;"/>
    <path clip-path="url(#p09c776d401)" d="M 139.697867 146.783041 
L 170.9648 146.783041 
L 170.9648 79.112585 
L 139.697867 79.112585 
z
" style="fill:#d2dae7;stroke:#4c4c4c;"/>
    <path clip-path="url(#p09c776d401)" d="M 131.881133 146.783041 
L 178.781533 146.783041 
L 178.781533 95.752861 
L 131.881133 95.752861 
z
" style="fill:#bdc9db;stroke:#4c4c4c;"/>
    <path clip-path="url(#p09c776d401)" d="M 124.0644 146.783041 
L 186.598267 146.783041 
L 186.598267 111.283786 
L 124.0644 111.283786 
z
" style="fill:#a9b8d0;stroke:#4c4c4c;"/>
    <path clip-path="url(#p09c776d401)" d="M 116.247667 146.783041 
L 194.415 146.783041 
L 194.415 123.486655 
L 116.247667 123.486655 
z
" style="fill:#95a7c5;stroke:#4c4c4c;"/>
    <path clip-path="url(#p09c776d401)" d="M 108.430933 146.783041 
L 202.231733 146.783041 
L 202.231733 135.689524 
L 108.430933 135.689524 
z
" style="fill:#8197ba;stroke:#4c4c4c;"/>
    <path clip-path="url(#p09c776d401)" d="M 100.6142 145.673689 
L 210.048467 145.673689 
L 210.048467 141.236283 
L 100.6142 141.236283 
z
" style="fill:#6c86af;stroke:#4c4c4c;"/>
    <path clip-path="url(#p09c776d401)" d="M 92.797467 145.673689 
L 217.8652 145.673689 
L 217.8652 143.454986 
L 92.797467 143.454986 
z
" style="fill:#5875a4;stroke:#4c4c4c;"/>
   </g>
   <g id="PatchCollection_2">
    <path clip-path="url(#p09c776d401)" d="M 303.849267 146.783041 
L 319.482733 146.783041 
L 319.482733 29.191757 
L 303.849267 29.191757 
z
" style="fill:#f7ede8;stroke:#4c4c4c;"/>
    <path clip-path="url(#p09c776d401)" d="M 296.032533 146.783041 
L 327.299467 146.783041 
L 327.299467 56.925551 
L 296.032533 56.925551 
z
" style="fill:#f1dfd5;stroke:#4c4c4c;"/>
    <path clip-path="url(#p09c776d401)" d="M 288.2158 146.783041 
L 335.1162 146.783041 
L 335.1162 81.331289 
L 288.2158 81.331289 
z
" style="fill:#ebd1c2;stroke:#4c4c4c;"/>
    <path clip-path="url(#p09c776d401)" d="M 280.399067 146.783041 
L 342.932933 146.783041 
L 342.932933 101.29962 
L 280.399067 101.29962 
z
" style="fill:#e5c2af;stroke:#4c4c4c;"/>
    <path clip-path="url(#p09c776d401)" d="M 272.582333 146.783041 
L 350.749667 146.783041 
L 350.749667 119.049248 
L 272.582333 119.049248 
z
" style="fill:#dfb49c;stroke:#4c4c4c;"/>
    <path clip-path="url(#p09c776d401)" d="M 264.7656 145.673689 
L 358.5664 145.673689 
L 358.5664 133.47082 
L 264.7656 133.47082 
z
" style="fill:#d8a689;stroke:#4c4c4c;"/>
    <path clip-path="url(#p09c776d401)" d="M 256.948867 145.673689 
L 366.383133 145.673689 
L 366.383133 140.126931 
L 256.948867 140.126931 
z
" style="fill:#d29776;stroke:#4c4c4c;"/>
    <path clip-path="url(#p09c776d401)" d="M 249.132133 145.673689 
L 374.199867 145.673689 
L 374.199867 143.454986 
L 249.132133 143.454986 
z
" style="fill:#cc8963;stroke:#4c4c4c;"/>
   </g>
   <g id="PatchCollection_3">
    <path clip-path="url(#p09c776d401)" d="M 460.183933 146.783041 
L 475.8174 146.783041 
L 475.8174 18.09824 
L 460.183933 18.09824 
z
" style="fill:#e7f1e9;stroke:#4c4c4c;"/>
    <path clip-path="url(#p09c776d401)" d="M 452.3672 146.783041 
L 483.634133 146.783041 
L 483.634133 49.160089 
L 452.3672 49.160089 
z
" style="fill:#d4e5d8;stroke:#4c4c4c;"/>
    <path clip-path="url(#p09c776d401)" d="M 444.550467 146.783041 
L 491.450867 146.783041 
L 491.450867 75.78453 
L 444.550467 75.78453 
z
" style="fill:#c0d9c6;stroke:#4c4c4c;"/>
    <path clip-path="url(#p09c776d401)" d="M 436.733733 146.783041 
L 499.2676 146.783041 
L 499.2676 100.190268 
L 436.733733 100.190268 
z
" style="fill:#adcdb5;stroke:#4c4c4c;"/>
    <path clip-path="url(#p09c776d401)" d="M 428.917 145.673689 
L 507.084333 145.673689 
L 507.084333 117.939896 
L 428.917 117.939896 
z
" style="fill:#99c1a3;stroke:#4c4c4c;"/>
    <path clip-path="url(#p09c776d401)" d="M 421.100267 145.673689 
L 514.901067 145.673689 
L 514.901067 134.580172 
L 421.100267 134.580172 
z
" style="fill:#86b691;stroke:#4c4c4c;"/>
    <path clip-path="url(#p09c776d401)" d="M 413.283533 145.673689 
L 522.7178 145.673689 
L 522.7178 140.126931 
L 413.283533 140.126931 
z
" style="fill:#72aa7f;stroke:#4c4c4c;"/>
    <path clip-path="url(#p09c776d401)" d="M 405.4668 145.673689 
L 530.534533 145.673689 
L 530.534533 143.454986 
L 405.4668 143.454986 
z
" style="fill:#5f9e6e;stroke:#4c4c4c;"/>
   </g>
   <g id="line2d_8">
    <path clip-path="url(#p09c776d401)" d="M 92.797467 145.673689 
L 217.8652 145.673689 
" style="fill:none;stroke:#262626;stroke-opacity:0.45;stroke-width:1.5;"/>
   </g>
   <g id="line2d_9">
    <path clip-path="url(#p09c776d401)" d="M 249.132133 145.673689 
L 374.199867 145.673689 
" style="fill:none;stroke:#262626;stroke-opacity:0.45;stroke-width:1.5;"/>
   </g>
   <g id="line2d_10">
    <path clip-path="url(#p09c776d401)" d="M 405.4668 145.673689 
L 530.534533 145.673689 
" style="fill:none;stroke:#262626;stroke-opacity:0.45;stroke-width:1.5;"/>
   </g>
   <g id="patch_3">
    <path d="M 77.164 153.217281 
L 77.164 11.664 
" style="fill:none;stroke:#cccccc;stroke-linecap:square;stroke-linejoin:miter;stroke-width:1.25;"/>
   </g>
   <g id="patch_4">
    <path d="M 546.168 153.217281 
L 546.168 11.664 
" style="fill:none;stroke:#cccccc;stroke-linecap:square;stroke-linejoin:miter;stroke-width:1.25;"/>
   </g>
   <g id="patch_5">
    <path d="M 77.164 153.217281 
L 546.168 153.217281 
" style="fill:none;stroke:#cccccc;stroke-linecap:square;stroke-linejoin:miter;stroke-width:1.25;"/>
   </g>
   <g id="patch_6">
    <path d="M 77.164 11.664 
L 546.168 11.664 
" style="fill:none;stroke:#cccccc;stroke-linecap:square;stroke-linejoin:miter;stroke-width:1.25;"/>
   </g>
  </g>
  <g id="axes_2">
   <g id="patch_7">
    <path d="M 599.332 153.217281 
L 1068.336 153.217281 
L 1068.336 11.664 
L 599.332 11.664 
z
" style="fill:#ffffff;"/>
   </g>
   <g id="matplotlib.axis_3">
    <g id="xtick_4">
     <g id="text_13">
      <!-- 70% -->
      <g style="fill:#262626;" transform="translate(668.559169 170.292328)scale(0.099 -0.099)">
       <use xlink:href="#DejaVuSansMono-55"/>
       <use x="60.205078" xlink:href="#DejaVuSansMono-48"/>
       <use x="120.410156" xlink:href="#DejaVuSansMono-37"/>
      </g>
     </g>
    </g>
    <g id="xtick_5">
     <g id="text_14">
      <!-- 90% -->
      <g style="fill:#262626;" transform="translate(824.893836 170.292328)scale(0.099 -0.099)">
       <use xlink:href="#DejaVuSansMono-57"/>
       <use x="60.205078" xlink:href="#DejaVuSansMono-48"/>
       <use x="120.410156" xlink:href="#DejaVuSansMono-37"/>
      </g>
     </g>
    </g>
    <g id="xtick_6">
     <g id="text_15">
      <!-- 100% -->
      <g style="fill:#262626;" transform="translate(978.248448 170.292328)scale(0.099 -0.099)">
       <use xlink:href="#DejaVuSansMono-49"/>
       <use x="60.205078" xlink:href="#DejaVuSansMono-48"/>
       <use x="120.410156" xlink:href="#DejaVuSansMono-48"/>
       <use x="180.615234" xlink:href="#DejaVuSansMono-37"/>
      </g>
     </g>
    </g>
    <g id="text_16">
     <!-- network -->
     <g style="fill:#262626;" transform="translate(811.077219 184.614906)scale(0.108 -0.108)">
      <use xlink:href="#DejaVuSansMono-110"/>
      <use x="60.205078" xlink:href="#DejaVuSansMono-101"/>
      <use x="120.410156" xlink:href="#DejaVuSansMono-116"/>
      <use x="180.615234" xlink:href="#DejaVuSansMono-119"/>
      <use x="240.820312" xlink:href="#DejaVuSansMono-111"/>
      <use x="301.025391" xlink:href="#DejaVuSansMono-114"/>
      <use x="361.230469" xlink:href="#DejaVuSansMono-107"/>
     </g>
    </g>
   </g>
   <g id="matplotlib.axis_4">
    <g id="ytick_8">
     <g id="line2d_11">
      <path clip-path="url(#p475e76dd38)" d="M 599.332 146.783041 
L 1068.336 146.783041 
" style="fill:none;stroke:#cccccc;stroke-linecap:round;"/>
     </g>
     <g id="text_17">
      <!-- 0 -->
      <g style="fill:#262626;" transform="translate(583.871891 150.570565)scale(0.099 -0.099)">
       <use xlink:href="#DejaVuSansMono-48"/>
      </g>
     </g>
    </g>
    <g id="ytick_9">
     <g id="line2d_12">
      <path clip-path="url(#p475e76dd38)" d="M 599.332 111.909111 
L 1068.336 111.909111 
" style="fill:none;stroke:#cccccc;stroke-linecap:round;"/>
     </g>
     <g id="text_18">
      <!-- 100 -->
      <g style="fill:#262626;" transform="translate(571.951672 115.696635)scale(0.099 -0.099)">
       <use xlink:href="#DejaVuSansMono-49"/>
       <use x="60.205078" xlink:href="#DejaVuSansMono-48"/>
       <use x="120.410156" xlink:href="#DejaVuSansMono-48"/>
      </g>
     </g>
    </g>
    <g id="ytick_10">
     <g id="line2d_13">
      <path clip-path="url(#p475e76dd38)" d="M 599.332 77.035182 
L 1068.336 77.035182 
" style="fill:none;stroke:#cccccc;stroke-linecap:round;"/>
     </g>
     <g id="text_19">
      <!-- 200 -->
      <g style="fill:#262626;" transform="translate(571.951672 80.822705)scale(0.099 -0.099)">
       <use xlink:href="#DejaVuSansMono-50"/>
       <use x="60.205078" xlink:href="#DejaVuSansMono-48"/>
       <use x="120.410156" xlink:href="#DejaVuSansMono-48"/>
      </g>
     </g>
    </g>
    <g id="ytick_11">
     <g id="line2d_14">
      <path clip-path="url(#p475e76dd38)" d="M 599.332 42.161252 
L 1068.336 42.161252 
" style="fill:none;stroke:#cccccc;stroke-linecap:round;"/>
     </g>
     <g id="text_20">
      <!-- 300 -->
      <g style="fill:#262626;" transform="translate(571.951672 45.948775)scale(0.099 -0.099)">
       <defs>
        <path d="M 37.890625 39.015625 
Q 45.0625 37.109375 48.875 32.25 
Q 52.6875 27.390625 52.6875 20.125 
Q 52.6875 10.0625 45.921875 4.3125 
Q 39.15625 -1.421875 27.203125 -1.421875 
Q 22.171875 -1.421875 16.9375 -0.484375 
Q 11.71875 0.4375 6.6875 2.203125 
L 6.6875 12.015625 
Q 11.671875 9.421875 16.5 8.15625 
Q 21.34375 6.890625 26.125 6.890625 
Q 34.234375 6.890625 38.578125 10.546875 
Q 42.921875 14.203125 42.921875 21.09375 
Q 42.921875 27.4375 38.578125 31.171875 
Q 34.234375 34.90625 26.8125 34.90625 
L 19.28125 34.90625 
L 19.28125 43.015625 
L 26.8125 43.015625 
Q 33.59375 43.015625 37.40625 45.984375 
Q 41.21875 48.96875 41.21875 54.296875 
Q 41.21875 59.90625 37.671875 62.90625 
Q 34.125 65.921875 27.59375 65.921875 
Q 23.25 65.921875 18.609375 64.9375 
Q 13.96875 63.96875 8.890625 62.015625 
L 8.890625 71.09375 
Q 14.796875 72.65625 19.40625 73.4375 
Q 24.03125 74.21875 27.59375 74.21875 
Q 38.234375 74.21875 44.609375 68.875 
Q 50.984375 63.53125 50.984375 54.6875 
Q 50.984375 48.6875 47.625 44.671875 
Q 44.28125 40.671875 37.890625 39.015625 
z
" id="DejaVuSansMono-51"/>
       </defs>
       <use xlink:href="#DejaVuSansMono-51"/>
       <use x="60.205078" xlink:href="#DejaVuSansMono-48"/>
       <use x="120.410156" xlink:href="#DejaVuSansMono-48"/>
      </g>
     </g>
    </g>
    <g id="text_21">
     <!-- in-degree -->
     <g style="fill:#262626;" transform="translate(565.631359 111.699359)rotate(-90)scale(0.108 -0.108)">
      <defs>
       <path d="M 12.5 54.6875 
L 35.5 54.6875 
L 35.5 6.984375 
L 53.328125 6.984375 
L 53.328125 0 
L 8.6875 0 
L 8.6875 6.984375 
L 26.515625 6.984375 
L 26.515625 47.703125 
L 12.5 47.703125 
z
M 26.515625 75.984375 
L 35.5 75.984375 
L 35.5 64.59375 
L 26.515625 64.59375 
z
" id="DejaVuSansMono-105"/>
      </defs>
      <use xlink:href="#DejaVuSansMono-105"/>
      <use x="60.205078" xlink:href="#DejaVuSansMono-110"/>
      <use x="120.410156" xlink:href="#DejaVuSansMono-45"/>
      <use x="180.615234" xlink:href="#DejaVuSansMono-100"/>
      <use x="240.820312" xlink:href="#DejaVuSansMono-101"/>
      <use x="301.025391" xlink:href="#DejaVuSansMono-103"/>
      <use x="361.230469" xlink:href="#DejaVuSansMono-114"/>
      <use x="421.435547" xlink:href="#DejaVuSansMono-101"/>
      <use x="481.640625" xlink:href="#DejaVuSansMono-101"/>
     </g>
    </g>
   </g>
   <g id="PatchCollection_4">
    <path clip-path="url(#p475e76dd38)" d="M 669.6826 146.783041 
L 685.316067 146.783041 
L 685.316067 42.161252 
L 669.6826 42.161252 
z
" style="fill:#e6eaf1;stroke:#4c4c4c;"/>
    <path clip-path="url(#p475e76dd38)" d="M 661.865867 146.783041 
L 693.1328 146.783041 
L 693.1328 92.030971 
L 661.865867 92.030971 
z
" style="fill:#d2dae7;stroke:#4c4c4c;"/>
    <path clip-path="url(#p475e76dd38)" d="M 654.049133 146.783041 
L 700.949533 146.783041 
L 700.949533 131.787251 
L 654.049133 131.787251 
z
" style="fill:#bdc9db;stroke:#4c4c4c;"/>
    <path clip-path="url(#p475e76dd38)" d="M 646.2324 146.783041 
L 708.766267 146.783041 
L 708.766267 143.644388 
L 646.2324 143.644388 
z
" style="fill:#a9b8d0;stroke:#4c4c4c;"/>
    <path clip-path="url(#p475e76dd38)" d="M 638.415667 146.783041 
L 716.583 146.783041 
L 716.583 146.085563 
L 638.415667 146.085563 
z
" style="fill:#95a7c5;stroke:#4c4c4c;"/>
    <path clip-path="url(#p475e76dd38)" d="M 630.598933 146.783041 
L 724.399733 146.783041 
L 724.399733 146.783041 
L 630.598933 146.783041 
z
" style="fill:#8197ba;stroke:#4c4c4c;"/>
    <path clip-path="url(#p475e76dd38)" d="M 622.7822 146.783041 
L 732.216467 146.783041 
L 732.216467 146.783041 
L 622.7822 146.783041 
z
" style="fill:#6c86af;stroke:#4c4c4c;"/>
    <path clip-path="url(#p475e76dd38)" d="M 614.965467 146.783041 
L 740.0332 146.783041 
L 740.0332 146.783041 
L 614.965467 146.783041 
z
" style="fill:#5875a4;stroke:#4c4c4c;"/>
   </g>
   <g id="PatchCollection_5">
    <path clip-path="url(#p475e76dd38)" d="M 826.017267 146.783041 
L 841.650733 146.783041 
L 841.650733 24.724287 
L 826.017267 24.724287 
z
" style="fill:#f7ede8;stroke:#4c4c4c;"/>
    <path clip-path="url(#p475e76dd38)" d="M 818.200533 146.783041 
L 849.467467 146.783041 
L 849.467467 81.568792 
L 818.200533 81.568792 
z
" style="fill:#f1dfd5;stroke:#4c4c4c;"/>
    <path clip-path="url(#p475e76dd38)" d="M 810.3838 146.783041 
L 857.2842 146.783041 
L 857.2842 128.648598 
L 810.3838 128.648598 
z
" style="fill:#ebd1c2;stroke:#4c4c4c;"/>
    <path clip-path="url(#p475e76dd38)" d="M 802.567067 146.783041 
L 865.100933 146.783041 
L 865.100933 142.946909 
L 802.567067 142.946909 
z
" style="fill:#e5c2af;stroke:#4c4c4c;"/>
    <path clip-path="url(#p475e76dd38)" d="M 794.750333 146.783041 
L 872.917667 146.783041 
L 872.917667 146.085563 
L 794.750333 146.085563 
z
" style="fill:#dfb49c;stroke:#4c4c4c;"/>
    <path clip-path="url(#p475e76dd38)" d="M 786.9336 146.783041 
L 880.7344 146.783041 
L 880.7344 146.434302 
L 786.9336 146.434302 
z
" style="fill:#d8a689;stroke:#4c4c4c;"/>
    <path clip-path="url(#p475e76dd38)" d="M 779.116867 146.783041 
L 888.551133 146.783041 
L 888.551133 146.783041 
L 779.116867 146.783041 
z
" style="fill:#d29776;stroke:#4c4c4c;"/>
    <path clip-path="url(#p475e76dd38)" d="M 771.300133 146.783041 
L 896.367867 146.783041 
L 896.367867 146.783041 
L 771.300133 146.783041 
z
" style="fill:#cc8963;stroke:#4c4c4c;"/>
   </g>
   <g id="PatchCollection_6">
    <path clip-path="url(#p475e76dd38)" d="M 982.351933 146.783041 
L 997.9854 146.783041 
L 997.9854 18.09824 
L 982.351933 18.09824 
z
" style="fill:#e7f1e9;stroke:#4c4c4c;"/>
    <path clip-path="url(#p475e76dd38)" d="M 974.5352 146.783041 
L 1005.802133 146.783041 
L 1005.802133 80.871314 
L 974.5352 80.871314 
z
" style="fill:#d4e5d8;stroke:#4c4c4c;"/>
    <path clip-path="url(#p475e76dd38)" d="M 966.718467 146.783041 
L 1013.618867 146.783041 
L 1013.618867 128.997337 
L 966.718467 128.997337 
z
" style="fill:#c0d9c6;stroke:#4c4c4c;"/>
    <path clip-path="url(#p475e76dd38)" d="M 958.901733 146.783041 
L 1021.4356 146.783041 
L 1021.4356 143.295648 
L 958.901733 143.295648 
z
" style="fill:#adcdb5;stroke:#4c4c4c;"/>
    <path clip-path="url(#p475e76dd38)" d="M 951.085 146.783041 
L 1029.252333 146.783041 
L 1029.252333 146.085563 
L 951.085 146.085563 
z
" style="fill:#99c1a3;stroke:#4c4c4c;"/>
    <path clip-path="url(#p475e76dd38)" d="M 943.268267 146.783041 
L 1037.069067 146.783041 
L 1037.069067 146.783041 
L 943.268267 146.783041 
z
" style="fill:#86b691;stroke:#4c4c4c;"/>
    <path clip-path="url(#p475e76dd38)" d="M 935.451533 146.783041 
L 1044.8858 146.783041 
L 1044.8858 146.783041 
L 935.451533 146.783041 
z
" style="fill:#72aa7f;stroke:#4c4c4c;"/>
    <path clip-path="url(#p475e76dd38)" d="M 927.6348 146.783041 
L 1052.702533 146.783041 
L 1052.702533 146.783041 
L 927.6348 146.783041 
z
" style="fill:#5f9e6e;stroke:#4c4c4c;"/>
   </g>
   <g id="line2d_15">
    <path clip-path="url(#p475e76dd38)" d="M 614.965467 146.783041 
L 740.0332 146.783041 
" style="fill:none;stroke:#262626;stroke-opacity:0.45;stroke-width:1.5;"/>
   </g>
   <g id="line2d_16">
    <path clip-path="url(#p475e76dd38)" d="M 771.300133 146.783041 
L 896.367867 146.783041 
" style="fill:none;stroke:#262626;stroke-opacity:0.45;stroke-width:1.5;"/>
   </g>
   <g id="line2d_17">
    <path clip-path="url(#p475e76dd38)" d="M 927.6348 146.783041 
L 1052.702533 146.783041 
" style="fill:none;stroke:#262626;stroke-opacity:0.45;stroke-width:1.5;"/>
   </g>
   <g id="patch_8">
    <path d="M 599.332 153.217281 
L 599.332 11.664 
" style="fill:none;stroke:#cccccc;stroke-linecap:square;stroke-linejoin:miter;stroke-width:1.25;"/>
   </g>
   <g id="patch_9">
    <path d="M 1068.336 153.217281 
L 1068.336 11.664 
" style="fill:none;stroke:#cccccc;stroke-linecap:square;stroke-linejoin:miter;stroke-width:1.25;"/>
   </g>
   <g id="patch_10">
    <path d="M 599.332 153.217281 
L 1068.336 153.217281 
" style="fill:none;stroke:#cccccc;stroke-linecap:square;stroke-linejoin:miter;stroke-width:1.25;"/>
   </g>
   <g id="patch_11">
    <path d="M 599.332 11.664 
L 1068.336 11.664 
" style="fill:none;stroke:#cccccc;stroke-linecap:square;stroke-linejoin:miter;stroke-width:1.25;"/>
   </g>
  </g>
  <g id="axes_3">
   <g id="patch_12">
    <path d="M 77.164 342.026641 
L 546.168 342.026641 
L 546.168 200.473359 
L 77.164 200.473359 
z
" style="fill:#ffffff;"/>
   </g>
   <g id="matplotlib.axis_5">
    <g id="xtick_7">
     <g id="text_22">
      <!-- 70% -->
      <g style="fill:#262626;" transform="translate(146.391169 359.101688)scale(0.099 -0.099)">
       <use xlink:href="#DejaVuSansMono-55"/>
       <use x="60.205078" xlink:href="#DejaVuSansMono-48"/>
       <use x="120.410156" xlink:href="#DejaVuSansMono-37"/>
      </g>
     </g>
    </g>
    <g id="xtick_8">
     <g id="text_23">
      <!-- 90% -->
      <g style="fill:#262626;" transform="translate(302.725836 359.101688)scale(0.099 -0.099)">
       <use xlink:href="#DejaVuSansMono-57"/>
       <use x="60.205078" xlink:href="#DejaVuSansMono-48"/>
       <use x="120.410156" xlink:href="#DejaVuSansMono-37"/>
      </g>
     </g>
    </g>
    <g id="xtick_9">
     <g id="text_24">
      <!-- 100% -->
      <g style="fill:#262626;" transform="translate(456.080448 359.101688)scale(0.099 -0.099)">
       <use xlink:href="#DejaVuSansMono-49"/>
       <use x="60.205078" xlink:href="#DejaVuSansMono-48"/>
       <use x="120.410156" xlink:href="#DejaVuSansMono-48"/>
       <use x="180.615234" xlink:href="#DejaVuSansMono-37"/>
      </g>
     </g>
    </g>
    <g id="text_25">
     <!-- network -->
     <g style="fill:#262626;" transform="translate(288.909219 373.424266)scale(0.108 -0.108)">
      <use xlink:href="#DejaVuSansMono-110"/>
      <use x="60.205078" xlink:href="#DejaVuSansMono-101"/>
      <use x="120.410156" xlink:href="#DejaVuSansMono-116"/>
      <use x="180.615234" xlink:href="#DejaVuSansMono-119"/>
      <use x="240.820312" xlink:href="#DejaVuSansMono-111"/>
      <use x="301.025391" xlink:href="#DejaVuSansMono-114"/>
      <use x="361.230469" xlink:href="#DejaVuSansMono-107"/>
     </g>
    </g>
   </g>
   <g id="matplotlib.axis_6">
    <g id="ytick_12">
     <g id="line2d_18">
      <path clip-path="url(#p14c3aeca3b)" d="M 77.164 335.592401 
L 546.168 335.592401 
" style="fill:none;stroke:#cccccc;stroke-linecap:round;"/>
     </g>
     <g id="text_26">
      <!-- 0 -->
      <g style="fill:#262626;" transform="translate(61.703891 339.379924)scale(0.099 -0.099)">
       <use xlink:href="#DejaVuSansMono-48"/>
      </g>
     </g>
    </g>
    <g id="ytick_13">
     <g id="line2d_19">
      <path clip-path="url(#p14c3aeca3b)" d="M 77.164 304.806563 
L 546.168 304.806563 
" style="fill:none;stroke:#cccccc;stroke-linecap:round;"/>
     </g>
     <g id="text_27">
      <!-- 50 -->
      <g style="fill:#262626;" transform="translate(55.743781 308.594086)scale(0.099 -0.099)">
       <defs>
        <path d="M 10.109375 72.90625 
L 47.015625 72.90625 
L 47.015625 64.59375 
L 19.09375 64.59375 
L 19.09375 46.6875 
Q 21.1875 47.46875 23.3125 47.828125 
Q 25.4375 48.1875 27.59375 48.1875 
Q 38.921875 48.1875 45.5625 41.5 
Q 52.203125 34.8125 52.203125 23.390625 
Q 52.203125 11.859375 45.234375 5.21875 
Q 38.28125 -1.421875 26.21875 -1.421875 
Q 20.40625 -1.421875 15.59375 -0.640625 
Q 10.796875 0.140625 6.984375 1.703125 
L 6.984375 11.71875 
Q 11.46875 9.28125 16.015625 8.078125 
Q 20.5625 6.890625 25.296875 6.890625 
Q 33.453125 6.890625 37.859375 11.1875 
Q 42.28125 15.484375 42.28125 23.390625 
Q 42.28125 31.203125 37.71875 35.546875 
Q 33.15625 39.890625 25 39.890625 
Q 21.046875 39.890625 17.28125 38.984375 
Q 13.53125 38.09375 10.109375 36.28125 
z
" id="DejaVuSansMono-53"/>
       </defs>
       <use xlink:href="#DejaVuSansMono-53"/>
       <use x="60.205078" xlink:href="#DejaVuSansMono-48"/>
      </g>
     </g>
    </g>
    <g id="ytick_14">
     <g id="line2d_20">
      <path clip-path="url(#p14c3aeca3b)" d="M 77.164 274.020725 
L 546.168 274.020725 
" style="fill:none;stroke:#cccccc;stroke-linecap:round;"/>
     </g>
     <g id="text_28">
      <!-- 100 -->
      <g style="fill:#262626;" transform="translate(49.783672 277.808249)scale(0.099 -0.099)">
       <use xlink:href="#DejaVuSansMono-49"/>
       <use x="60.205078" xlink:href="#DejaVuSansMono-48"/>
       <use x="120.410156" xlink:href="#DejaVuSansMono-48"/>
      </g>
     </g>
    </g>
    <g id="ytick_15">
     <g id="line2d_21">
      <path clip-path="url(#p14c3aeca3b)" d="M 77.164 243.234888 
L 546.168 243.234888 
" style="fill:none;stroke:#cccccc;stroke-linecap:round;"/>
     </g>
     <g id="text_29">
      <!-- 150 -->
      <g style="fill:#262626;" transform="translate(49.783672 247.022411)scale(0.099 -0.099)">
       <use xlink:href="#DejaVuSansMono-49"/>
       <use x="60.205078" xlink:href="#DejaVuSansMono-53"/>
       <use x="120.410156" xlink:href="#DejaVuSansMono-48"/>
      </g>
     </g>
    </g>
    <g id="ytick_16">
     <g id="line2d_22">
      <path clip-path="url(#p14c3aeca3b)" d="M 77.164 212.44905 
L 546.168 212.44905 
" style="fill:none;stroke:#cccccc;stroke-linecap:round;"/>
     </g>
     <g id="text_30">
      <!-- 200 -->
      <g style="fill:#262626;" transform="translate(49.783672 216.236574)scale(0.099 -0.099)">
       <use xlink:href="#DejaVuSansMono-50"/>
       <use x="60.205078" xlink:href="#DejaVuSansMono-48"/>
       <use x="120.410156" xlink:href="#DejaVuSansMono-48"/>
      </g>
     </g>
    </g>
    <g id="text_31">
     <!-- out-strenght -->
     <g style="fill:#262626;" transform="translate(43.463359 310.261625)rotate(-90)scale(0.108 -0.108)">
      <defs>
       <path d="M 47.515625 52.78125 
L 47.515625 44 
Q 43.65625 46.234375 39.75 47.359375 
Q 35.84375 48.484375 31.78125 48.484375 
Q 25.6875 48.484375 22.671875 46.5 
Q 19.671875 44.53125 19.671875 40.484375 
Q 19.671875 36.8125 21.921875 35 
Q 24.171875 33.203125 33.109375 31.5 
L 36.71875 30.8125 
Q 43.40625 29.546875 46.84375 25.734375 
Q 50.296875 21.921875 50.296875 15.828125 
Q 50.296875 7.71875 44.53125 3.140625 
Q 38.765625 -1.421875 28.515625 -1.421875 
Q 24.46875 -1.421875 20.015625 -0.5625 
Q 15.578125 0.296875 10.40625 2 
L 10.40625 11.28125 
Q 15.4375 8.6875 20.015625 7.390625 
Q 24.609375 6.109375 28.71875 6.109375 
Q 34.671875 6.109375 37.9375 8.515625 
Q 41.21875 10.9375 41.21875 15.28125 
Q 41.21875 21.53125 29.25 23.921875 
L 28.859375 24.03125 
L 25.484375 24.703125 
Q 17.71875 26.21875 14.15625 29.8125 
Q 10.59375 33.40625 10.59375 39.59375 
Q 10.59375 47.46875 15.90625 51.734375 
Q 21.234375 56 31.109375 56 
Q 35.5 56 39.546875 55.1875 
Q 43.609375 54.390625 47.515625 52.78125 
z
" id="DejaVuSansMono-115"/>
       <path d="M 51.3125 33.890625 
L 51.3125 0 
L 42.28125 0 
L 42.28125 33.890625 
Q 42.28125 41.265625 39.6875 44.71875 
Q 37.109375 48.1875 31.59375 48.1875 
Q 25.296875 48.1875 21.890625 43.71875 
Q 18.5 39.265625 18.5 30.90625 
L 18.5 0 
L 9.515625 0 
L 9.515625 75.984375 
L 18.5 75.984375 
L 18.5 46.484375 
Q 20.90625 51.171875 25 53.578125 
Q 29.109375 56 34.71875 56 
Q 43.0625 56 47.1875 50.5 
Q 51.3125 45.015625 51.3125 33.890625 
z
" id="DejaVuSansMono-104"/>
      </defs>
      <use xlink:href="#DejaVuSansMono-111"/>
      <use x="60.205078" xlink:href="#DejaVuSansMono-117"/>
      <use x="120.410156" xlink:href="#DejaVuSansMono-116"/>
      <use x="180.615234" xlink:href="#DejaVuSansMono-45"/>
      <use x="240.820312" xlink:href="#DejaVuSansMono-115"/>
      <use x="301.025391" xlink:href="#DejaVuSansMono-116"/>
      <use x="361.230469" xlink:href="#DejaVuSansMono-114"/>
      <use x="421.435547" xlink:href="#DejaVuSansMono-101"/>
      <use x="481.640625" xlink:href="#DejaVuSansMono-110"/>
      <use x="541.845703" xlink:href="#DejaVuSansMono-103"/>
      <use x="602.050781" xlink:href="#DejaVuSansMono-104"/>
      <use x="662.255859" xlink:href="#DejaVuSansMono-116"/>
     </g>
    </g>
   </g>
   <g id="PatchCollection_7">
    <path clip-path="url(#p14c3aeca3b)" d="M 147.5146 335.592401 
L 163.148067 335.592401 
L 163.148067 244.466321 
L 147.5146 244.466321 
z
" style="fill:#e6eaf1;stroke:#4c4c4c;"/>
    <path clip-path="url(#p14c3aeca3b)" d="M 139.697867 335.592401 
L 170.9648 335.592401 
L 170.9648 269.094991 
L 139.697867 269.094991 
z
" style="fill:#d2dae7;stroke:#4c4c4c;"/>
    <path clip-path="url(#p14c3aeca3b)" d="M 131.881133 335.592401 
L 178.781533 335.592401 
L 178.781533 289.413644 
L 131.881133 289.413644 
z
" style="fill:#bdc9db;stroke:#4c4c4c;"/>
    <path clip-path="url(#p14c3aeca3b)" d="M 124.0644 335.592401 
L 186.598267 335.592401 
L 186.598267 306.037996 
L 124.0644 306.037996 
z
" style="fill:#a9b8d0;stroke:#4c4c4c;"/>
    <path clip-path="url(#p14c3aeca3b)" d="M 116.247667 335.592401 
L 194.415 335.592401 
L 194.415 318.352332 
L 116.247667 318.352332 
z
" style="fill:#95a7c5;stroke:#4c4c4c;"/>
    <path clip-path="url(#p14c3aeca3b)" d="M 108.430933 335.592401 
L 202.231733 335.592401 
L 202.231733 328.2038 
L 108.430933 328.2038 
z
" style="fill:#8197ba;stroke:#4c4c4c;"/>
    <path clip-path="url(#p14c3aeca3b)" d="M 100.6142 334.976684 
L 210.048467 334.976684 
L 210.048467 332.513817 
L 100.6142 332.513817 
z
" style="fill:#6c86af;stroke:#4c4c4c;"/>
    <path clip-path="url(#p14c3aeca3b)" d="M 92.797467 334.976684 
L 217.8652 334.976684 
L 217.8652 333.74525 
L 92.797467 333.74525 
z
" style="fill:#5875a4;stroke:#4c4c4c;"/>
   </g>
   <g id="PatchCollection_8">
    <path clip-path="url(#p14c3aeca3b)" d="M 303.849267 335.592401 
L 319.482733 335.592401 
L 319.482733 216.143351 
L 303.849267 216.143351 
z
" style="fill:#f7ede8;stroke:#4c4c4c;"/>
    <path clip-path="url(#p14c3aeca3b)" d="M 296.032533 335.592401 
L 327.299467 335.592401 
L 327.299467 250.007772 
L 296.032533 250.007772 
z
" style="fill:#f1dfd5;stroke:#4c4c4c;"/>
    <path clip-path="url(#p14c3aeca3b)" d="M 288.2158 335.592401 
L 335.1162 335.592401 
L 335.1162 277.715026 
L 288.2158 277.715026 
z
" style="fill:#ebd1c2;stroke:#4c4c4c;"/>
    <path clip-path="url(#p14c3aeca3b)" d="M 280.399067 335.592401 
L 342.932933 335.592401 
L 342.932933 299.265112 
L 280.399067 299.265112 
z
" style="fill:#e5c2af;stroke:#4c4c4c;"/>
    <path clip-path="url(#p14c3aeca3b)" d="M 272.582333 335.592401 
L 350.749667 335.592401 
L 350.749667 314.658031 
L 272.582333 314.658031 
z
" style="fill:#dfb49c;stroke:#4c4c4c;"/>
    <path clip-path="url(#p14c3aeca3b)" d="M 264.7656 334.976684 
L 358.5664 334.976684 
L 358.5664 326.972366 
L 264.7656 326.972366 
z
" style="fill:#d8a689;stroke:#4c4c4c;"/>
    <path clip-path="url(#p14c3aeca3b)" d="M 256.948867 334.976684 
L 366.383133 334.976684 
L 366.383133 331.8981 
L 256.948867 331.8981 
z
" style="fill:#d29776;stroke:#4c4c4c;"/>
    <path clip-path="url(#p14c3aeca3b)" d="M 249.132133 334.976684 
L 374.199867 334.976684 
L 374.199867 333.74525 
L 249.132133 333.74525 
z
" style="fill:#cc8963;stroke:#4c4c4c;"/>
   </g>
   <g id="PatchCollection_9">
    <path clip-path="url(#p14c3aeca3b)" d="M 460.183933 335.592401 
L 475.8174 335.592401 
L 475.8174 206.907599 
L 460.183933 206.907599 
z
" style="fill:#e7f1e9;stroke:#4c4c4c;"/>
    <path clip-path="url(#p14c3aeca3b)" d="M 452.3672 335.592401 
L 483.634133 335.592401 
L 483.634133 244.466321 
L 452.3672 244.466321 
z
" style="fill:#d4e5d8;stroke:#4c4c4c;"/>
    <path clip-path="url(#p14c3aeca3b)" d="M 444.550467 335.592401 
L 491.450867 335.592401 
L 491.450867 274.636442 
L 444.550467 274.636442 
z
" style="fill:#c0d9c6;stroke:#4c4c4c;"/>
    <path clip-path="url(#p14c3aeca3b)" d="M 436.733733 335.592401 
L 499.2676 335.592401 
L 499.2676 298.033679 
L 436.733733 298.033679 
z
" style="fill:#adcdb5;stroke:#4c4c4c;"/>
    <path clip-path="url(#p14c3aeca3b)" d="M 428.917 334.976684 
L 507.084333 334.976684 
L 507.084333 314.658031 
L 428.917 314.658031 
z
" style="fill:#99c1a3;stroke:#4c4c4c;"/>
    <path clip-path="url(#p14c3aeca3b)" d="M 421.100267 334.976684 
L 514.901067 334.976684 
L 514.901067 327.588083 
L 421.100267 327.588083 
z
" style="fill:#86b691;stroke:#4c4c4c;"/>
    <path clip-path="url(#p14c3aeca3b)" d="M 413.283533 334.976684 
L 522.7178 334.976684 
L 522.7178 331.8981 
L 413.283533 331.8981 
z
" style="fill:#72aa7f;stroke:#4c4c4c;"/>
    <path clip-path="url(#p14c3aeca3b)" d="M 405.4668 334.976684 
L 530.534533 334.976684 
L 530.534533 333.74525 
L 405.4668 333.74525 
z
" style="fill:#5f9e6e;stroke:#4c4c4c;"/>
   </g>
   <g id="line2d_23">
    <path clip-path="url(#p14c3aeca3b)" d="M 92.797467 334.976684 
L 217.8652 334.976684 
" style="fill:none;stroke:#262626;stroke-opacity:0.45;stroke-width:1.5;"/>
   </g>
   <g id="line2d_24">
    <path clip-path="url(#p14c3aeca3b)" d="M 249.132133 334.976684 
L 374.199867 334.976684 
" style="fill:none;stroke:#262626;stroke-opacity:0.45;stroke-width:1.5;"/>
   </g>
   <g id="line2d_25">
    <path clip-path="url(#p14c3aeca3b)" d="M 405.4668 334.976684 
L 530.534533 334.976684 
" style="fill:none;stroke:#262626;stroke-opacity:0.45;stroke-width:1.5;"/>
   </g>
   <g id="patch_13">
    <path d="M 77.164 342.026641 
L 77.164 200.473359 
" style="fill:none;stroke:#cccccc;stroke-linecap:square;stroke-linejoin:miter;stroke-width:1.25;"/>
   </g>
   <g id="patch_14">
    <path d="M 546.168 342.026641 
L 546.168 200.473359 
" style="fill:none;stroke:#cccccc;stroke-linecap:square;stroke-linejoin:miter;stroke-width:1.25;"/>
   </g>
   <g id="patch_15">
    <path d="M 77.164 342.026641 
L 546.168 342.026641 
" style="fill:none;stroke:#cccccc;stroke-linecap:square;stroke-linejoin:miter;stroke-width:1.25;"/>
   </g>
   <g id="patch_16">
    <path d="M 77.164 200.473359 
L 546.168 200.473359 
" style="fill:none;stroke:#cccccc;stroke-linecap:square;stroke-linejoin:miter;stroke-width:1.25;"/>
   </g>
  </g>
  <g id="axes_4">
   <g id="patch_17">
    <path d="M 599.332 342.026641 
L 1068.336 342.026641 
L 1068.336 200.473359 
L 599.332 200.473359 
z
" style="fill:#ffffff;"/>
   </g>
   <g id="matplotlib.axis_7">
    <g id="xtick_10">
     <g id="text_32">
      <!-- 70% -->
      <g style="fill:#262626;" transform="translate(668.559169 359.101688)scale(0.099 -0.099)">
       <use xlink:href="#DejaVuSansMono-55"/>
       <use x="60.205078" xlink:href="#DejaVuSansMono-48"/>
       <use x="120.410156" xlink:href="#DejaVuSansMono-37"/>
      </g>
     </g>
    </g>
    <g id="xtick_11">
     <g id="text_33">
      <!-- 90% -->
      <g style="fill:#262626;" transform="translate(824.893836 359.101688)scale(0.099 -0.099)">
       <use xlink:href="#DejaVuSansMono-57"/>
       <use x="60.205078" xlink:href="#DejaVuSansMono-48"/>
       <use x="120.410156" xlink:href="#DejaVuSansMono-37"/>
      </g>
     </g>
    </g>
    <g id="xtick_12">
     <g id="text_34">
      <!-- 100% -->
      <g style="fill:#262626;" transform="translate(978.248448 359.101688)scale(0.099 -0.099)">
       <use xlink:href="#DejaVuSansMono-49"/>
       <use x="60.205078" xlink:href="#DejaVuSansMono-48"/>
       <use x="120.410156" xlink:href="#DejaVuSansMono-48"/>
       <use x="180.615234" xlink:href="#DejaVuSansMono-37"/>
      </g>
     </g>
    </g>
    <g id="text_35">
     <!-- network -->
     <g style="fill:#262626;" transform="translate(811.077219 373.424266)scale(0.108 -0.108)">
      <use xlink:href="#DejaVuSansMono-110"/>
      <use x="60.205078" xlink:href="#DejaVuSansMono-101"/>
      <use x="120.410156" xlink:href="#DejaVuSansMono-116"/>
      <use x="180.615234" xlink:href="#DejaVuSansMono-119"/>
      <use x="240.820312" xlink:href="#DejaVuSansMono-111"/>
      <use x="301.025391" xlink:href="#DejaVuSansMono-114"/>
      <use x="361.230469" xlink:href="#DejaVuSansMono-107"/>
     </g>
    </g>
   </g>
   <g id="matplotlib.axis_8">
    <g id="ytick_17">
     <g id="line2d_26">
      <path clip-path="url(#pb2958b87b8)" d="M 599.332 335.592401 
L 1068.336 335.592401 
" style="fill:none;stroke:#cccccc;stroke-linecap:round;"/>
     </g>
     <g id="text_36">
      <!-- 0 -->
      <g style="fill:#262626;" transform="translate(583.871891 339.379924)scale(0.099 -0.099)">
       <use xlink:href="#DejaVuSansMono-48"/>
      </g>
     </g>
    </g>
    <g id="ytick_18">
     <g id="line2d_27">
      <path clip-path="url(#pb2958b87b8)" d="M 599.332 302.340514 
L 1068.336 302.340514 
" style="fill:none;stroke:#cccccc;stroke-linecap:round;"/>
     </g>
     <g id="text_37">
      <!-- 100 -->
      <g style="fill:#262626;" transform="translate(571.951672 306.128037)scale(0.099 -0.099)">
       <use xlink:href="#DejaVuSansMono-49"/>
       <use x="60.205078" xlink:href="#DejaVuSansMono-48"/>
       <use x="120.410156" xlink:href="#DejaVuSansMono-48"/>
      </g>
     </g>
    </g>
    <g id="ytick_19">
     <g id="line2d_28">
      <path clip-path="url(#pb2958b87b8)" d="M 599.332 269.088627 
L 1068.336 269.088627 
" style="fill:none;stroke:#cccccc;stroke-linecap:round;"/>
     </g>
     <g id="text_38">
      <!-- 200 -->
      <g style="fill:#262626;" transform="translate(571.951672 272.876151)scale(0.099 -0.099)">
       <use xlink:href="#DejaVuSansMono-50"/>
       <use x="60.205078" xlink:href="#DejaVuSansMono-48"/>
       <use x="120.410156" xlink:href="#DejaVuSansMono-48"/>
      </g>
     </g>
    </g>
    <g id="ytick_20">
     <g id="line2d_29">
      <path clip-path="url(#pb2958b87b8)" d="M 599.332 235.836741 
L 1068.336 235.836741 
" style="fill:none;stroke:#cccccc;stroke-linecap:round;"/>
     </g>
     <g id="text_39">
      <!-- 300 -->
      <g style="fill:#262626;" transform="translate(571.951672 239.624264)scale(0.099 -0.099)">
       <use xlink:href="#DejaVuSansMono-51"/>
       <use x="60.205078" xlink:href="#DejaVuSansMono-48"/>
       <use x="120.410156" xlink:href="#DejaVuSansMono-48"/>
      </g>
     </g>
    </g>
    <g id="ytick_21">
     <g id="line2d_30">
      <path clip-path="url(#pb2958b87b8)" d="M 599.332 202.584854 
L 1068.336 202.584854 
" style="fill:none;stroke:#cccccc;stroke-linecap:round;"/>
     </g>
     <g id="text_40">
      <!-- 400 -->
      <g style="fill:#262626;" transform="translate(571.951672 206.372378)scale(0.099 -0.099)">
       <use xlink:href="#DejaVuSansMono-52"/>
       <use x="60.205078" xlink:href="#DejaVuSansMono-48"/>
       <use x="120.410156" xlink:href="#DejaVuSansMono-48"/>
      </g>
     </g>
    </g>
    <g id="text_41">
     <!-- in-strenght -->
     <g style="fill:#262626;" transform="translate(565.631359 307.010656)rotate(-90)scale(0.108 -0.108)">
      <use xlink:href="#DejaVuSansMono-105"/>
      <use x="60.205078" xlink:href="#DejaVuSansMono-110"/>
      <use x="120.410156" xlink:href="#DejaVuSansMono-45"/>
      <use x="180.615234" xlink:href="#DejaVuSansMono-115"/>
      <use x="240.820312" xlink:href="#DejaVuSansMono-116"/>
      <use x="301.025391" xlink:href="#DejaVuSansMono-114"/>
      <use x="361.230469" xlink:href="#DejaVuSansMono-101"/>
      <use x="421.435547" xlink:href="#DejaVuSansMono-110"/>
      <use x="481.640625" xlink:href="#DejaVuSansMono-103"/>
      <use x="541.845703" xlink:href="#DejaVuSansMono-104"/>
      <use x="602.050781" xlink:href="#DejaVuSansMono-116"/>
     </g>
    </g>
   </g>
   <g id="PatchCollection_10">
    <path clip-path="url(#pb2958b87b8)" d="M 669.6826 335.592401 
L 685.316067 335.592401 
L 685.316067 230.516439 
L 669.6826 230.516439 
z
" style="fill:#e6eaf1;stroke:#4c4c4c;"/>
    <path clip-path="url(#pb2958b87b8)" d="M 661.865867 335.592401 
L 693.1328 335.592401 
L 693.1328 280.394269 
L 661.865867 280.394269 
z
" style="fill:#d2dae7;stroke:#4c4c4c;"/>
    <path clip-path="url(#pb2958b87b8)" d="M 654.049133 335.592401 
L 700.949533 335.592401 
L 700.949533 319.964014 
L 654.049133 319.964014 
z
" style="fill:#bdc9db;stroke:#4c4c4c;"/>
    <path clip-path="url(#pb2958b87b8)" d="M 646.2324 335.592401 
L 708.766267 335.592401 
L 708.766267 332.267212 
L 646.2324 332.267212 
z
" style="fill:#a9b8d0;stroke:#4c4c4c;"/>
    <path clip-path="url(#pb2958b87b8)" d="M 638.415667 335.592401 
L 716.583 335.592401 
L 716.583 334.927363 
L 638.415667 334.927363 
z
" style="fill:#95a7c5;stroke:#4c4c4c;"/>
    <path clip-path="url(#pb2958b87b8)" d="M 630.598933 335.592401 
L 724.399733 335.592401 
L 724.399733 335.592401 
L 630.598933 335.592401 
z
" style="fill:#8197ba;stroke:#4c4c4c;"/>
    <path clip-path="url(#pb2958b87b8)" d="M 622.7822 335.592401 
L 732.216467 335.592401 
L 732.216467 335.592401 
L 622.7822 335.592401 
z
" style="fill:#6c86af;stroke:#4c4c4c;"/>
    <path clip-path="url(#pb2958b87b8)" d="M 614.965467 335.592401 
L 740.0332 335.592401 
L 740.0332 335.592401 
L 614.965467 335.592401 
z
" style="fill:#5875a4;stroke:#4c4c4c;"/>
   </g>
   <g id="PatchCollection_11">
    <path clip-path="url(#pb2958b87b8)" d="M 826.017267 335.592401 
L 841.650733 335.592401 
L 841.650733 212.227901 
L 826.017267 212.227901 
z
" style="fill:#f7ede8;stroke:#4c4c4c;"/>
    <path clip-path="url(#pb2958b87b8)" d="M 818.200533 335.592401 
L 849.467467 335.592401 
L 849.467467 268.42359 
L 818.200533 268.42359 
z
" style="fill:#f1dfd5;stroke:#4c4c4c;"/>
    <path clip-path="url(#pb2958b87b8)" d="M 810.3838 335.592401 
L 857.2842 335.592401 
L 857.2842 316.971344 
L 810.3838 316.971344 
z
" style="fill:#ebd1c2;stroke:#4c4c4c;"/>
    <path clip-path="url(#pb2958b87b8)" d="M 802.567067 335.592401 
L 865.100933 335.592401 
L 865.100933 331.934693 
L 802.567067 331.934693 
z
" style="fill:#e5c2af;stroke:#4c4c4c;"/>
    <path clip-path="url(#pb2958b87b8)" d="M 794.750333 335.592401 
L 872.917667 335.592401 
L 872.917667 334.927363 
L 794.750333 334.927363 
z
" style="fill:#dfb49c;stroke:#4c4c4c;"/>
    <path clip-path="url(#pb2958b87b8)" d="M 786.9336 335.592401 
L 880.7344 335.592401 
L 880.7344 335.259882 
L 786.9336 335.259882 
z
" style="fill:#d8a689;stroke:#4c4c4c;"/>
    <path clip-path="url(#pb2958b87b8)" d="M 779.116867 335.592401 
L 888.551133 335.592401 
L 888.551133 335.592401 
L 779.116867 335.592401 
z
" style="fill:#d29776;stroke:#4c4c4c;"/>
    <path clip-path="url(#pb2958b87b8)" d="M 771.300133 335.592401 
L 896.367867 335.592401 
L 896.367867 335.592401 
L 771.300133 335.592401 
z
" style="fill:#cc8963;stroke:#4c4c4c;"/>
   </g>
   <g id="PatchCollection_12">
    <path clip-path="url(#pb2958b87b8)" d="M 982.351933 335.592401 
L 997.9854 335.592401 
L 997.9854 206.907599 
L 982.351933 206.907599 
z
" style="fill:#e7f1e9;stroke:#4c4c4c;"/>
    <path clip-path="url(#pb2958b87b8)" d="M 974.5352 335.592401 
L 1005.802133 335.592401 
L 1005.802133 267.758552 
L 974.5352 267.758552 
z
" style="fill:#d4e5d8;stroke:#4c4c4c;"/>
    <path clip-path="url(#pb2958b87b8)" d="M 966.718467 335.592401 
L 1013.618867 335.592401 
L 1013.618867 317.303863 
L 966.718467 317.303863 
z
" style="fill:#c0d9c6;stroke:#4c4c4c;"/>
    <path clip-path="url(#pb2958b87b8)" d="M 958.901733 335.592401 
L 1021.4356 335.592401 
L 1021.4356 331.934693 
L 958.901733 331.934693 
z
" style="fill:#adcdb5;stroke:#4c4c4c;"/>
    <path clip-path="url(#pb2958b87b8)" d="M 951.085 335.592401 
L 1029.252333 335.592401 
L 1029.252333 334.927363 
L 951.085 334.927363 
z
" style="fill:#99c1a3;stroke:#4c4c4c;"/>
    <path clip-path="url(#pb2958b87b8)" d="M 943.268267 335.592401 
L 1037.069067 335.592401 
L 1037.069067 335.592401 
L 943.268267 335.592401 
z
" style="fill:#86b691;stroke:#4c4c4c;"/>
    <path clip-path="url(#pb2958b87b8)" d="M 935.451533 335.592401 
L 1044.8858 335.592401 
L 1044.8858 335.592401 
L 935.451533 335.592401 
z
" style="fill:#72aa7f;stroke:#4c4c4c;"/>
    <path clip-path="url(#pb2958b87b8)" d="M 927.6348 335.592401 
L 1052.702533 335.592401 
L 1052.702533 335.592401 
L 927.6348 335.592401 
z
" style="fill:#5f9e6e;stroke:#4c4c4c;"/>
   </g>
   <g id="line2d_31">
    <path clip-path="url(#pb2958b87b8)" d="M 614.965467 335.592401 
L 740.0332 335.592401 
" style="fill:none;stroke:#262626;stroke-opacity:0.45;stroke-width:1.5;"/>
   </g>
   <g id="line2d_32">
    <path clip-path="url(#pb2958b87b8)" d="M 771.300133 335.592401 
L 896.367867 335.592401 
" style="fill:none;stroke:#262626;stroke-opacity:0.45;stroke-width:1.5;"/>
   </g>
   <g id="line2d_33">
    <path clip-path="url(#pb2958b87b8)" d="M 927.6348 335.592401 
L 1052.702533 335.592401 
" style="fill:none;stroke:#262626;stroke-opacity:0.45;stroke-width:1.5;"/>
   </g>
   <g id="patch_18">
    <path d="M 599.332 342.026641 
L 599.332 200.473359 
" style="fill:none;stroke:#cccccc;stroke-linecap:square;stroke-linejoin:miter;stroke-width:1.25;"/>
   </g>
   <g id="patch_19">
    <path d="M 1068.336 342.026641 
L 1068.336 200.473359 
" style="fill:none;stroke:#cccccc;stroke-linecap:square;stroke-linejoin:miter;stroke-width:1.25;"/>
   </g>
   <g id="patch_20">
    <path d="M 599.332 342.026641 
L 1068.336 342.026641 
" style="fill:none;stroke:#cccccc;stroke-linecap:square;stroke-linejoin:miter;stroke-width:1.25;"/>
   </g>
   <g id="patch_21">
    <path d="M 599.332 200.473359 
L 1068.336 200.473359 
" style="fill:none;stroke:#cccccc;stroke-linecap:square;stroke-linejoin:miter;stroke-width:1.25;"/>
   </g>
  </g>
  <g id="axes_5">
   <g id="patch_22">
    <path d="M 77.164 530.836 
L 546.168 530.836 
L 546.168 389.282719 
L 77.164 389.282719 
z
" style="fill:#ffffff;"/>
   </g>
   <g id="matplotlib.axis_9">
    <g id="xtick_13">
     <g id="text_42">
      <!-- 70% -->
      <g style="fill:#262626;" transform="translate(146.391169 547.911047)scale(0.099 -0.099)">
       <use xlink:href="#DejaVuSansMono-55"/>
       <use x="60.205078" xlink:href="#DejaVuSansMono-48"/>
       <use x="120.410156" xlink:href="#DejaVuSansMono-37"/>
      </g>
     </g>
    </g>
    <g id="xtick_14">
     <g id="text_43">
      <!-- 90% -->
      <g style="fill:#262626;" transform="translate(302.725836 547.911047)scale(0.099 -0.099)">
       <use xlink:href="#DejaVuSansMono-57"/>
       <use x="60.205078" xlink:href="#DejaVuSansMono-48"/>
       <use x="120.410156" xlink:href="#DejaVuSansMono-37"/>
      </g>
     </g>
    </g>
    <g id="xtick_15">
     <g id="text_44">
      <!-- 100% -->
      <g style="fill:#262626;" transform="translate(456.080448 547.911047)scale(0.099 -0.099)">
       <use xlink:href="#DejaVuSansMono-49"/>
       <use x="60.205078" xlink:href="#DejaVuSansMono-48"/>
       <use x="120.410156" xlink:href="#DejaVuSansMono-48"/>
       <use x="180.615234" xlink:href="#DejaVuSansMono-37"/>
      </g>
     </g>
    </g>
    <g id="text_45">
     <!-- network -->
     <g style="fill:#262626;" transform="translate(288.909219 562.233625)scale(0.108 -0.108)">
      <use xlink:href="#DejaVuSansMono-110"/>
      <use x="60.205078" xlink:href="#DejaVuSansMono-101"/>
      <use x="120.410156" xlink:href="#DejaVuSansMono-116"/>
      <use x="180.615234" xlink:href="#DejaVuSansMono-119"/>
      <use x="240.820312" xlink:href="#DejaVuSansMono-111"/>
      <use x="301.025391" xlink:href="#DejaVuSansMono-114"/>
      <use x="361.230469" xlink:href="#DejaVuSansMono-107"/>
     </g>
    </g>
   </g>
   <g id="matplotlib.axis_10">
    <g id="ytick_22">
     <g id="line2d_34">
      <path clip-path="url(#p7a09d5a706)" d="M 77.164 524.40176 
L 546.168 524.40176 
" style="fill:none;stroke:#cccccc;stroke-linecap:round;"/>
     </g>
     <g id="text_46">
      <!-- 0.000000 -->
      <g style="fill:#262626;" transform="translate(19.983125 528.189283)scale(0.099 -0.099)">
       <defs>
        <path d="M 23.875 14.890625 
L 36.1875 14.890625 
L 36.1875 0 
L 23.875 0 
z
" id="DejaVuSansMono-46"/>
       </defs>
       <use xlink:href="#DejaVuSansMono-48"/>
       <use x="60.205078" xlink:href="#DejaVuSansMono-46"/>
       <use x="120.410156" xlink:href="#DejaVuSansMono-48"/>
       <use x="180.615234" xlink:href="#DejaVuSansMono-48"/>
       <use x="240.820312" xlink:href="#DejaVuSansMono-48"/>
       <use x="301.025391" xlink:href="#DejaVuSansMono-48"/>
       <use x="361.230469" xlink:href="#DejaVuSansMono-48"/>
       <use x="421.435547" xlink:href="#DejaVuSansMono-48"/>
      </g>
     </g>
    </g>
    <g id="ytick_23">
     <g id="line2d_35">
      <path clip-path="url(#p7a09d5a706)" d="M 77.164 501.833573 
L 546.168 501.833573 
" style="fill:none;stroke:#cccccc;stroke-linecap:round;"/>
     </g>
     <g id="text_47">
      <!-- 0.000025 -->
      <g style="fill:#262626;" transform="translate(19.983125 505.621096)scale(0.099 -0.099)">
       <use xlink:href="#DejaVuSansMono-48"/>
       <use x="60.205078" xlink:href="#DejaVuSansMono-46"/>
       <use x="120.410156" xlink:href="#DejaVuSansMono-48"/>
       <use x="180.615234" xlink:href="#DejaVuSansMono-48"/>
       <use x="240.820312" xlink:href="#DejaVuSansMono-48"/>
       <use x="301.025391" xlink:href="#DejaVuSansMono-48"/>
       <use x="361.230469" xlink:href="#DejaVuSansMono-50"/>
       <use x="421.435547" xlink:href="#DejaVuSansMono-53"/>
      </g>
     </g>
    </g>
    <g id="ytick_24">
     <g id="line2d_36">
      <path clip-path="url(#p7a09d5a706)" d="M 77.164 479.265386 
L 546.168 479.265386 
" style="fill:none;stroke:#cccccc;stroke-linecap:round;"/>
     </g>
     <g id="text_48">
      <!-- 0.000050 -->
      <g style="fill:#262626;" transform="translate(19.983125 483.052909)scale(0.099 -0.099)">
       <use xlink:href="#DejaVuSansMono-48"/>
       <use x="60.205078" xlink:href="#DejaVuSansMono-46"/>
       <use x="120.410156" xlink:href="#DejaVuSansMono-48"/>
       <use x="180.615234" xlink:href="#DejaVuSansMono-48"/>
       <use x="240.820312" xlink:href="#DejaVuSansMono-48"/>
       <use x="301.025391" xlink:href="#DejaVuSansMono-48"/>
       <use x="361.230469" xlink:href="#DejaVuSansMono-53"/>
       <use x="421.435547" xlink:href="#DejaVuSansMono-48"/>
      </g>
     </g>
    </g>
    <g id="ytick_25">
     <g id="line2d_37">
      <path clip-path="url(#p7a09d5a706)" d="M 77.164 456.697199 
L 546.168 456.697199 
" style="fill:none;stroke:#cccccc;stroke-linecap:round;"/>
     </g>
     <g id="text_49">
      <!-- 0.000075 -->
      <g style="fill:#262626;" transform="translate(19.983125 460.484722)scale(0.099 -0.099)">
       <use xlink:href="#DejaVuSansMono-48"/>
       <use x="60.205078" xlink:href="#DejaVuSansMono-46"/>
       <use x="120.410156" xlink:href="#DejaVuSansMono-48"/>
       <use x="180.615234" xlink:href="#DejaVuSansMono-48"/>
       <use x="240.820312" xlink:href="#DejaVuSansMono-48"/>
       <use x="301.025391" xlink:href="#DejaVuSansMono-48"/>
       <use x="361.230469" xlink:href="#DejaVuSansMono-55"/>
       <use x="421.435547" xlink:href="#DejaVuSansMono-53"/>
      </g>
     </g>
    </g>
    <g id="ytick_26">
     <g id="line2d_38">
      <path clip-path="url(#p7a09d5a706)" d="M 77.164 434.129011 
L 546.168 434.129011 
" style="fill:none;stroke:#cccccc;stroke-linecap:round;"/>
     </g>
     <g id="text_50">
      <!-- 0.000100 -->
      <g style="fill:#262626;" transform="translate(19.983125 437.916535)scale(0.099 -0.099)">
       <use xlink:href="#DejaVuSansMono-48"/>
       <use x="60.205078" xlink:href="#DejaVuSansMono-46"/>
       <use x="120.410156" xlink:href="#DejaVuSansMono-48"/>
       <use x="180.615234" xlink:href="#DejaVuSansMono-48"/>
       <use x="240.820312" xlink:href="#DejaVuSansMono-48"/>
       <use x="301.025391" xlink:href="#DejaVuSansMono-49"/>
       <use x="361.230469" xlink:href="#DejaVuSansMono-48"/>
       <use x="421.435547" xlink:href="#DejaVuSansMono-48"/>
      </g>
     </g>
    </g>
    <g id="ytick_27">
     <g id="line2d_39">
      <path clip-path="url(#p7a09d5a706)" d="M 77.164 411.560824 
L 546.168 411.560824 
" style="fill:none;stroke:#cccccc;stroke-linecap:round;"/>
     </g>
     <g id="text_51">
      <!-- 0.000125 -->
      <g style="fill:#262626;" transform="translate(19.983125 415.348348)scale(0.099 -0.099)">
       <use xlink:href="#DejaVuSansMono-48"/>
       <use x="60.205078" xlink:href="#DejaVuSansMono-46"/>
       <use x="120.410156" xlink:href="#DejaVuSansMono-48"/>
       <use x="180.615234" xlink:href="#DejaVuSansMono-48"/>
       <use x="240.820312" xlink:href="#DejaVuSansMono-48"/>
       <use x="301.025391" xlink:href="#DejaVuSansMono-49"/>
       <use x="361.230469" xlink:href="#DejaVuSansMono-50"/>
       <use x="421.435547" xlink:href="#DejaVuSansMono-53"/>
      </g>
     </g>
    </g>
    <g id="text_52">
     <!-- eigenvector -->
     <g style="fill:#262626;" transform="translate(13.662812 495.820016)rotate(-90)scale(0.108 -0.108)">
      <defs>
       <path d="M 4.890625 54.6875 
L 14.203125 54.6875 
L 30.078125 8.796875 
L 46 54.6875 
L 55.328125 54.6875 
L 35.890625 0 
L 24.3125 0 
z
" id="DejaVuSansMono-118"/>
       <path d="M 51.8125 2.78125 
Q 48.1875 0.6875 44.359375 -0.359375 
Q 40.53125 -1.421875 36.53125 -1.421875 
Q 23.828125 -1.421875 16.671875 6.1875 
Q 9.515625 13.8125 9.515625 27.296875 
Q 9.515625 40.765625 16.671875 48.375 
Q 23.828125 56 36.53125 56 
Q 40.484375 56 44.234375 54.96875 
Q 48 53.953125 51.8125 51.8125 
L 51.8125 42.390625 
Q 48.25 45.5625 44.65625 46.96875 
Q 41.0625 48.390625 36.53125 48.390625 
Q 28.078125 48.390625 23.53125 42.921875 
Q 19 37.453125 19 27.296875 
Q 19 17.1875 23.5625 11.6875 
Q 28.125 6.203125 36.53125 6.203125 
Q 41.21875 6.203125 44.921875 7.640625 
Q 48.640625 9.078125 51.8125 12.109375 
z
" id="DejaVuSansMono-99"/>
      </defs>
      <use xlink:href="#DejaVuSansMono-101"/>
      <use x="60.205078" xlink:href="#DejaVuSansMono-105"/>
      <use x="120.410156" xlink:href="#DejaVuSansMono-103"/>
      <use x="180.615234" xlink:href="#DejaVuSansMono-101"/>
      <use x="240.820312" xlink:href="#DejaVuSansMono-110"/>
      <use x="301.025391" xlink:href="#DejaVuSansMono-118"/>
      <use x="361.230469" xlink:href="#DejaVuSansMono-101"/>
      <use x="421.435547" xlink:href="#DejaVuSansMono-99"/>
      <use x="481.640625" xlink:href="#DejaVuSansMono-116"/>
      <use x="541.845703" xlink:href="#DejaVuSansMono-111"/>
      <use x="602.050781" xlink:href="#DejaVuSansMono-114"/>
     </g>
    </g>
   </g>
   <g id="PatchCollection_13">
    <path clip-path="url(#p7a09d5a706)" d="M 147.5146 524.40176 
L 163.148067 524.40176 
L 163.148067 522.168272 
L 147.5146 522.168272 
z
" style="fill:#e6eaf1;stroke:#4c4c4c;"/>
    <path clip-path="url(#p7a09d5a706)" d="M 139.697867 524.40176 
L 170.9648 524.40176 
L 170.9648 524.24097 
L 139.697867 524.24097 
z
" style="fill:#d2dae7;stroke:#4c4c4c;"/>
    <path clip-path="url(#p7a09d5a706)" d="M 131.881133 524.40176 
L 178.781533 524.40176 
L 178.781533 524.397658 
L 131.881133 524.397658 
z
" style="fill:#bdc9db;stroke:#4c4c4c;"/>
    <path clip-path="url(#p7a09d5a706)" d="M 124.0644 524.40176 
L 186.598267 524.40176 
L 186.598267 524.401759 
L 124.0644 524.401759 
z
" style="fill:#a9b8d0;stroke:#4c4c4c;"/>
    <path clip-path="url(#p7a09d5a706)" d="M 116.247667 524.40176 
L 194.415 524.40176 
L 194.415 524.40176 
L 116.247667 524.40176 
z
" style="fill:#95a7c5;stroke:#4c4c4c;"/>
    <path clip-path="url(#p7a09d5a706)" d="M 108.430933 524.40176 
L 202.231733 524.40176 
L 202.231733 524.40176 
L 108.430933 524.40176 
z
" style="fill:#8197ba;stroke:#4c4c4c;"/>
    <path clip-path="url(#p7a09d5a706)" d="M 100.6142 524.40176 
L 210.048467 524.40176 
L 210.048467 524.40176 
L 100.6142 524.40176 
z
" style="fill:#6c86af;stroke:#4c4c4c;"/>
    <path clip-path="url(#p7a09d5a706)" d="M 92.797467 524.40176 
L 217.8652 524.40176 
L 217.8652 524.40176 
L 92.797467 524.40176 
z
" style="fill:#5875a4;stroke:#4c4c4c;"/>
   </g>
   <g id="PatchCollection_14">
    <path clip-path="url(#p7a09d5a706)" d="M 303.849267 524.40176 
L 319.482733 524.40176 
L 319.482733 457.379617 
L 303.849267 457.379617 
z
" style="fill:#f7ede8;stroke:#4c4c4c;"/>
    <path clip-path="url(#p7a09d5a706)" d="M 296.032533 524.40176 
L 327.299467 524.40176 
L 327.299467 514.089561 
L 296.032533 514.089561 
z
" style="fill:#f1dfd5;stroke:#4c4c4c;"/>
    <path clip-path="url(#p7a09d5a706)" d="M 288.2158 524.40176 
L 335.1162 524.40176 
L 335.1162 523.905532 
L 288.2158 523.905532 
z
" style="fill:#ebd1c2;stroke:#4c4c4c;"/>
    <path clip-path="url(#p7a09d5a706)" d="M 280.399067 524.40176 
L 342.932933 524.40176 
L 342.932933 524.400332 
L 280.399067 524.400332 
z
" style="fill:#e5c2af;stroke:#4c4c4c;"/>
    <path clip-path="url(#p7a09d5a706)" d="M 272.582333 524.40176 
L 350.749667 524.40176 
L 350.749667 524.40176 
L 272.582333 524.40176 
z
" style="fill:#dfb49c;stroke:#4c4c4c;"/>
    <path clip-path="url(#p7a09d5a706)" d="M 264.7656 524.40176 
L 358.5664 524.40176 
L 358.5664 524.40176 
L 264.7656 524.40176 
z
" style="fill:#d8a689;stroke:#4c4c4c;"/>
    <path clip-path="url(#p7a09d5a706)" d="M 256.948867 524.40176 
L 366.383133 524.40176 
L 366.383133 524.40176 
L 256.948867 524.40176 
z
" style="fill:#d29776;stroke:#4c4c4c;"/>
    <path clip-path="url(#p7a09d5a706)" d="M 249.132133 524.40176 
L 374.199867 524.40176 
L 374.199867 524.40176 
L 249.132133 524.40176 
z
" style="fill:#cc8963;stroke:#4c4c4c;"/>
   </g>
   <g id="PatchCollection_15">
    <path clip-path="url(#p7a09d5a706)" d="M 460.183933 524.40176 
L 475.8174 524.40176 
L 475.8174 395.716959 
L 460.183933 395.716959 
z
" style="fill:#e7f1e9;stroke:#4c4c4c;"/>
    <path clip-path="url(#p7a09d5a706)" d="M 452.3672 524.40176 
L 483.634133 524.40176 
L 483.634133 514.256657 
L 452.3672 514.256657 
z
" style="fill:#d4e5d8;stroke:#4c4c4c;"/>
    <path clip-path="url(#p7a09d5a706)" d="M 444.550467 524.40176 
L 491.450867 524.40176 
L 491.450867 524.018728 
L 444.550467 524.018728 
z
" style="fill:#c0d9c6;stroke:#4c4c4c;"/>
    <path clip-path="url(#p7a09d5a706)" d="M 436.733733 524.40176 
L 499.2676 524.40176 
L 499.2676 524.400147 
L 436.733733 524.400147 
z
" style="fill:#adcdb5;stroke:#4c4c4c;"/>
    <path clip-path="url(#p7a09d5a706)" d="M 428.917 524.40176 
L 507.084333 524.40176 
L 507.084333 524.40176 
L 428.917 524.40176 
z
" style="fill:#99c1a3;stroke:#4c4c4c;"/>
    <path clip-path="url(#p7a09d5a706)" d="M 421.100267 524.40176 
L 514.901067 524.40176 
L 514.901067 524.40176 
L 421.100267 524.40176 
z
" style="fill:#86b691;stroke:#4c4c4c;"/>
    <path clip-path="url(#p7a09d5a706)" d="M 413.283533 524.40176 
L 522.7178 524.40176 
L 522.7178 524.40176 
L 413.283533 524.40176 
z
" style="fill:#72aa7f;stroke:#4c4c4c;"/>
    <path clip-path="url(#p7a09d5a706)" d="M 405.4668 524.40176 
L 530.534533 524.40176 
L 530.534533 524.40176 
L 405.4668 524.40176 
z
" style="fill:#5f9e6e;stroke:#4c4c4c;"/>
   </g>
   <g id="line2d_40">
    <path clip-path="url(#p7a09d5a706)" d="M 92.797467 524.40176 
L 217.8652 524.40176 
" style="fill:none;stroke:#262626;stroke-opacity:0.45;stroke-width:1.5;"/>
   </g>
   <g id="line2d_41">
    <path clip-path="url(#p7a09d5a706)" d="M 249.132133 524.40176 
L 374.199867 524.40176 
" style="fill:none;stroke:#262626;stroke-opacity:0.45;stroke-width:1.5;"/>
   </g>
   <g id="line2d_42">
    <path clip-path="url(#p7a09d5a706)" d="M 405.4668 524.40176 
L 530.534533 524.40176 
" style="fill:none;stroke:#262626;stroke-opacity:0.45;stroke-width:1.5;"/>
   </g>
   <g id="patch_23">
    <path d="M 77.164 530.836 
L 77.164 389.282719 
" style="fill:none;stroke:#cccccc;stroke-linecap:square;stroke-linejoin:miter;stroke-width:1.25;"/>
   </g>
   <g id="patch_24">
    <path d="M 546.168 530.836 
L 546.168 389.282719 
" style="fill:none;stroke:#cccccc;stroke-linecap:square;stroke-linejoin:miter;stroke-width:1.25;"/>
   </g>
   <g id="patch_25">
    <path d="M 77.164 530.836 
L 546.168 530.836 
" style="fill:none;stroke:#cccccc;stroke-linecap:square;stroke-linejoin:miter;stroke-width:1.25;"/>
   </g>
   <g id="patch_26">
    <path d="M 77.164 389.282719 
L 546.168 389.282719 
" style="fill:none;stroke:#cccccc;stroke-linecap:square;stroke-linejoin:miter;stroke-width:1.25;"/>
   </g>
  </g>
  <g id="axes_6">
   <g id="patch_27">
    <path d="M 599.332 530.836 
L 1068.336 530.836 
L 1068.336 389.282719 
L 599.332 389.282719 
z
" style="fill:#ffffff;"/>
   </g>
   <g id="matplotlib.axis_11">
    <g id="xtick_16">
     <g id="text_53">
      <!-- 70% -->
      <g style="fill:#262626;" transform="translate(668.559169 547.911047)scale(0.099 -0.099)">
       <use xlink:href="#DejaVuSansMono-55"/>
       <use x="60.205078" xlink:href="#DejaVuSansMono-48"/>
       <use x="120.410156" xlink:href="#DejaVuSansMono-37"/>
      </g>
     </g>
    </g>
    <g id="xtick_17">
     <g id="text_54">
      <!-- 90% -->
      <g style="fill:#262626;" transform="translate(824.893836 547.911047)scale(0.099 -0.099)">
       <use xlink:href="#DejaVuSansMono-57"/>
       <use x="60.205078" xlink:href="#DejaVuSansMono-48"/>
       <use x="120.410156" xlink:href="#DejaVuSansMono-37"/>
      </g>
     </g>
    </g>
    <g id="xtick_18">
     <g id="text_55">
      <!-- 100% -->
      <g style="fill:#262626;" transform="translate(978.248448 547.911047)scale(0.099 -0.099)">
       <use xlink:href="#DejaVuSansMono-49"/>
       <use x="60.205078" xlink:href="#DejaVuSansMono-48"/>
       <use x="120.410156" xlink:href="#DejaVuSansMono-48"/>
       <use x="180.615234" xlink:href="#DejaVuSansMono-37"/>
      </g>
     </g>
    </g>
    <g id="text_56">
     <!-- network -->
     <g style="fill:#262626;" transform="translate(811.077219 562.233625)scale(0.108 -0.108)">
      <use xlink:href="#DejaVuSansMono-110"/>
      <use x="60.205078" xlink:href="#DejaVuSansMono-101"/>
      <use x="120.410156" xlink:href="#DejaVuSansMono-116"/>
      <use x="180.615234" xlink:href="#DejaVuSansMono-119"/>
      <use x="240.820312" xlink:href="#DejaVuSansMono-111"/>
      <use x="301.025391" xlink:href="#DejaVuSansMono-114"/>
      <use x="361.230469" xlink:href="#DejaVuSansMono-107"/>
     </g>
    </g>
   </g>
   <g id="matplotlib.axis_12">
    <g id="ytick_28">
     <g id="line2d_43">
      <path clip-path="url(#pcaca36ba55)" d="M 599.332 505.064643 
L 1068.336 505.064643 
" style="fill:none;stroke:#cccccc;stroke-linecap:round;"/>
     </g>
     <g id="text_57">
      <!-- 0.2 -->
      <g style="fill:#262626;" transform="translate(571.951672 508.852166)scale(0.099 -0.099)">
       <use xlink:href="#DejaVuSansMono-48"/>
       <use x="60.205078" xlink:href="#DejaVuSansMono-46"/>
       <use x="120.410156" xlink:href="#DejaVuSansMono-50"/>
      </g>
     </g>
    </g>
    <g id="ytick_29">
     <g id="line2d_44">
      <path clip-path="url(#pcaca36ba55)" d="M 599.332 477.727722 
L 1068.336 477.727722 
" style="fill:none;stroke:#cccccc;stroke-linecap:round;"/>
     </g>
     <g id="text_58">
      <!-- 0.4 -->
      <g style="fill:#262626;" transform="translate(571.951672 481.515245)scale(0.099 -0.099)">
       <use xlink:href="#DejaVuSansMono-48"/>
       <use x="60.205078" xlink:href="#DejaVuSansMono-46"/>
       <use x="120.410156" xlink:href="#DejaVuSansMono-52"/>
      </g>
     </g>
    </g>
    <g id="ytick_30">
     <g id="line2d_45">
      <path clip-path="url(#pcaca36ba55)" d="M 599.332 450.390801 
L 1068.336 450.390801 
" style="fill:none;stroke:#cccccc;stroke-linecap:round;"/>
     </g>
     <g id="text_59">
      <!-- 0.6 -->
      <g style="fill:#262626;" transform="translate(571.951672 454.178324)scale(0.099 -0.099)">
       <use xlink:href="#DejaVuSansMono-48"/>
       <use x="60.205078" xlink:href="#DejaVuSansMono-46"/>
       <use x="120.410156" xlink:href="#DejaVuSansMono-54"/>
      </g>
     </g>
    </g>
    <g id="ytick_31">
     <g id="line2d_46">
      <path clip-path="url(#pcaca36ba55)" d="M 599.332 423.05388 
L 1068.336 423.05388 
" style="fill:none;stroke:#cccccc;stroke-linecap:round;"/>
     </g>
     <g id="text_60">
      <!-- 0.8 -->
      <g style="fill:#262626;" transform="translate(571.951672 426.841403)scale(0.099 -0.099)">
       <use xlink:href="#DejaVuSansMono-48"/>
       <use x="60.205078" xlink:href="#DejaVuSansMono-46"/>
       <use x="120.410156" xlink:href="#DejaVuSansMono-56"/>
      </g>
     </g>
    </g>
    <g id="ytick_32">
     <g id="line2d_47">
      <path clip-path="url(#pcaca36ba55)" d="M 599.332 395.716959 
L 1068.336 395.716959 
" style="fill:none;stroke:#cccccc;stroke-linecap:round;"/>
     </g>
     <g id="text_61">
      <!-- 1.0 -->
      <g style="fill:#262626;" transform="translate(571.951672 399.504482)scale(0.099 -0.099)">
       <use xlink:href="#DejaVuSansMono-49"/>
       <use x="60.205078" xlink:href="#DejaVuSansMono-46"/>
       <use x="120.410156" xlink:href="#DejaVuSansMono-48"/>
      </g>
     </g>
    </g>
    <g id="text_62">
     <!-- closeness -->
     <g style="fill:#262626;" transform="translate(565.705609 489.318078)rotate(-90)scale(0.108 -0.108)">
      <defs>
       <path d="M 31.203125 19.828125 
Q 31.203125 13.765625 33.421875 10.6875 
Q 35.640625 7.625 39.984375 7.625 
L 50.484375 7.625 
L 50.484375 0 
L 39.109375 0 
Q 31.0625 0 26.640625 5.171875 
Q 22.21875 10.359375 22.21875 19.828125 
L 22.21875 69.484375 
L 7.8125 69.484375 
L 7.8125 76.515625 
L 31.203125 76.515625 
z
" id="DejaVuSansMono-108"/>
      </defs>
      <use xlink:href="#DejaVuSansMono-99"/>
      <use x="60.205078" xlink:href="#DejaVuSansMono-108"/>
      <use x="120.410156" xlink:href="#DejaVuSansMono-111"/>
      <use x="180.615234" xlink:href="#DejaVuSansMono-115"/>
      <use x="240.820312" xlink:href="#DejaVuSansMono-101"/>
      <use x="301.025391" xlink:href="#DejaVuSansMono-110"/>
      <use x="361.230469" xlink:href="#DejaVuSansMono-101"/>
      <use x="421.435547" xlink:href="#DejaVuSansMono-115"/>
      <use x="481.640625" xlink:href="#DejaVuSansMono-115"/>
     </g>
    </g>
   </g>
   <g id="PatchCollection_16">
    <path clip-path="url(#pcaca36ba55)" d="M 669.6826 524.40176 
L 685.316067 524.40176 
L 685.316067 395.716959 
L 669.6826 395.716959 
z
" style="fill:#e6eaf1;stroke:#4c4c4c;"/>
    <path clip-path="url(#pcaca36ba55)" d="M 661.865867 523.904984 
L 693.1328 523.904984 
L 693.1328 395.716959 
L 661.865867 395.716959 
z
" style="fill:#d2dae7;stroke:#4c4c4c;"/>
    <path clip-path="url(#pcaca36ba55)" d="M 654.049133 523.722539 
L 700.949533 523.722539 
L 700.949533 395.716959 
L 654.049133 395.716959 
z
" style="fill:#bdc9db;stroke:#4c4c4c;"/>
    <path clip-path="url(#pcaca36ba55)" d="M 646.2324 522.639085 
L 708.766267 522.639085 
L 708.766267 395.716959 
L 646.2324 395.716959 
z
" style="fill:#a9b8d0;stroke:#4c4c4c;"/>
    <path clip-path="url(#pcaca36ba55)" d="M 638.415667 521.43396 
L 716.583 521.43396 
L 716.583 395.716959 
L 638.415667 395.716959 
z
" style="fill:#95a7c5;stroke:#4c4c4c;"/>
    <path clip-path="url(#pcaca36ba55)" d="M 630.598933 520.239368 
L 724.399733 520.239368 
L 724.399733 395.716959 
L 630.598933 395.716959 
z
" style="fill:#8197ba;stroke:#4c4c4c;"/>
    <path clip-path="url(#pcaca36ba55)" d="M 622.7822 518.70275 
L 732.216467 518.70275 
L 732.216467 395.716959 
L 622.7822 395.716959 
z
" style="fill:#6c86af;stroke:#4c4c4c;"/>
    <path clip-path="url(#pcaca36ba55)" d="M 614.965467 517.045481 
L 740.0332 517.045481 
L 740.0332 395.716959 
L 614.965467 395.716959 
z
" style="fill:#5875a4;stroke:#4c4c4c;"/>
   </g>
   <g id="PatchCollection_17">
    <path clip-path="url(#pcaca36ba55)" d="M 826.017267 524.170766 
L 841.650733 524.170766 
L 841.650733 395.716959 
L 826.017267 395.716959 
z
" style="fill:#f7ede8;stroke:#4c4c4c;"/>
    <path clip-path="url(#pcaca36ba55)" d="M 818.200533 523.643606 
L 849.467467 523.643606 
L 849.467467 395.716959 
L 818.200533 395.716959 
z
" style="fill:#f1dfd5;stroke:#4c4c4c;"/>
    <path clip-path="url(#pcaca36ba55)" d="M 810.3838 523.278922 
L 857.2842 523.278922 
L 857.2842 395.716959 
L 810.3838 395.716959 
z
" style="fill:#ebd1c2;stroke:#4c4c4c;"/>
    <path clip-path="url(#pcaca36ba55)" d="M 802.567067 522.575831 
L 865.100933 522.575831 
L 865.100933 395.716959 
L 802.567067 395.716959 
z
" style="fill:#e5c2af;stroke:#4c4c4c;"/>
    <path clip-path="url(#pcaca36ba55)" d="M 794.750333 520.97725 
L 872.917667 520.97725 
L 872.917667 395.716959 
L 794.750333 395.716959 
z
" style="fill:#dfb49c;stroke:#4c4c4c;"/>
    <path clip-path="url(#pcaca36ba55)" d="M 786.9336 519.574089 
L 880.7344 519.574089 
L 880.7344 395.716959 
L 786.9336 395.716959 
z
" style="fill:#d8a689;stroke:#4c4c4c;"/>
    <path clip-path="url(#pcaca36ba55)" d="M 779.116867 518.045599 
L 888.551133 518.045599 
L 888.551133 395.716959 
L 779.116867 395.716959 
z
" style="fill:#d29776;stroke:#4c4c4c;"/>
    <path clip-path="url(#pcaca36ba55)" d="M 771.300133 516.134906 
L 896.367867 516.134906 
L 896.367867 436.72234 
L 771.300133 436.72234 
z
" style="fill:#cc8963;stroke:#4c4c4c;"/>
   </g>
   <g id="PatchCollection_18">
    <path clip-path="url(#pcaca36ba55)" d="M 982.351933 524.058012 
L 997.9854 524.058012 
L 997.9854 395.716959 
L 982.351933 395.716959 
z
" style="fill:#e7f1e9;stroke:#4c4c4c;"/>
    <path clip-path="url(#pcaca36ba55)" d="M 974.5352 523.552507 
L 1005.802133 523.552507 
L 1005.802133 395.716959 
L 974.5352 395.716959 
z
" style="fill:#d4e5d8;stroke:#4c4c4c;"/>
    <path clip-path="url(#pcaca36ba55)" d="M 966.718467 522.767224 
L 1013.618867 522.767224 
L 1013.618867 395.716959 
L 966.718467 395.716959 
z
" style="fill:#c0d9c6;stroke:#4c4c4c;"/>
    <path clip-path="url(#pcaca36ba55)" d="M 958.901733 521.466286 
L 1021.4356 521.466286 
L 1021.4356 395.716959 
L 958.901733 395.716959 
z
" style="fill:#adcdb5;stroke:#4c4c4c;"/>
    <path clip-path="url(#pcaca36ba55)" d="M 951.085 520.187034 
L 1029.252333 520.187034 
L 1029.252333 395.716959 
L 951.085 395.716959 
z
" style="fill:#99c1a3;stroke:#4c4c4c;"/>
    <path clip-path="url(#pcaca36ba55)" d="M 943.268267 519.019158 
L 1037.069067 519.019158 
L 1037.069067 395.716959 
L 943.268267 395.716959 
z
" style="fill:#86b691;stroke:#4c4c4c;"/>
    <path clip-path="url(#pcaca36ba55)" d="M 935.451533 517.471396 
L 1044.8858 517.471396 
L 1044.8858 395.716959 
L 935.451533 395.716959 
z
" style="fill:#72aa7f;stroke:#4c4c4c;"/>
    <path clip-path="url(#pcaca36ba55)" d="M 927.6348 515.590968 
L 1052.702533 515.590968 
L 1052.702533 441.278494 
L 927.6348 441.278494 
z
" style="fill:#5f9e6e;stroke:#4c4c4c;"/>
   </g>
   <g id="line2d_48">
    <path clip-path="url(#pcaca36ba55)" d="M 614.965467 514.036116 
L 740.0332 514.036116 
" style="fill:none;stroke:#262626;stroke-opacity:0.45;stroke-width:1.5;"/>
   </g>
   <g id="line2d_49">
    <path clip-path="url(#pcaca36ba55)" d="M 771.300133 513.069963 
L 896.367867 513.069963 
" style="fill:none;stroke:#262626;stroke-opacity:0.45;stroke-width:1.5;"/>
   </g>
   <g id="line2d_50">
    <path clip-path="url(#pcaca36ba55)" d="M 927.6348 512.326504 
L 1052.702533 512.326504 
" style="fill:none;stroke:#262626;stroke-opacity:0.45;stroke-width:1.5;"/>
   </g>
   <g id="patch_28">
    <path d="M 599.332 530.836 
L 599.332 389.282719 
" style="fill:none;stroke:#cccccc;stroke-linecap:square;stroke-linejoin:miter;stroke-width:1.25;"/>
   </g>
   <g id="patch_29">
    <path d="M 1068.336 530.836 
L 1068.336 389.282719 
" style="fill:none;stroke:#cccccc;stroke-linecap:square;stroke-linejoin:miter;stroke-width:1.25;"/>
   </g>
   <g id="patch_30">
    <path d="M 599.332 530.836 
L 1068.336 530.836 
" style="fill:none;stroke:#cccccc;stroke-linecap:square;stroke-linejoin:miter;stroke-width:1.25;"/>
   </g>
   <g id="patch_31">
    <path d="M 599.332 389.282719 
L 1068.336 389.282719 
" style="fill:none;stroke:#cccccc;stroke-linecap:square;stroke-linejoin:miter;stroke-width:1.25;"/>
   </g>
  </g>
 </g>
 <defs>
  <clipPath id="p09c776d401">
   <rect height="141.553281" width="469.004" x="77.164" y="11.664"/>
  </clipPath>
  <clipPath id="p475e76dd38">
   <rect height="141.553281" width="469.004" x="599.332" y="11.664"/>
  </clipPath>
  <clipPath id="p14c3aeca3b">
   <rect height="141.553281" width="469.004" x="77.164" y="200.473359"/>
  </clipPath>
  <clipPath id="pb2958b87b8">
   <rect height="141.553281" width="469.004" x="599.332" y="200.473359"/>
  </clipPath>
  <clipPath id="p7a09d5a706">
   <rect height="141.553281" width="469.004" x="77.164" y="389.282719"/>
  </clipPath>
  <clipPath id="pcaca36ba55">
   <rect height="141.553281" width="469.004" x="599.332" y="389.282719"/>
  </clipPath>
 </defs>
</svg>
