<?xml version="1.0" encoding="utf-8" standalone="no"?>
<!DOCTYPE svg PUBLIC "-//W3C//DTD SVG 1.1//EN"
  "http://www.w3.org/Graphics/SVG/1.1/DTD/svg11.dtd">
<!-- Created with matplotlib (https://matplotlib.org/) -->
<svg height="288pt" version="1.1" viewBox="0 0 720 288" width="720pt" xmlns="http://www.w3.org/2000/svg" xmlns:xlink="http://www.w3.org/1999/xlink">
 <metadata>
  <rdf:RDF xmlns:cc="http://creativecommons.org/ns#" xmlns:dc="http://purl.org/dc/elements/1.1/" xmlns:rdf="http://www.w3.org/1999/02/22-rdf-syntax-ns#">
   <cc:Work>
    <dc:type rdf:resource="http://purl.org/dc/dcmitype/StillImage"/>
    <dc:date>2020-10-26T10:06:18.465691</dc:date>
    <dc:format>image/svg+xml</dc:format>
    <dc:creator>
     <cc:Agent>
      <dc:title>Matplotlib v3.3.2, https://matplotlib.org/</dc:title>
     </cc:Agent>
    </dc:creator>
   </cc:Work>
  </rdf:RDF>
 </metadata>
 <defs>
  <style type="text/css">*{stroke-linecap:butt;stroke-linejoin:round;}</style>
 </defs>
 <g id="figure_1">
  <g id="patch_1">
   <path d="M 0 288 
L 720 288 
L 720 0 
L 0 0 
z
" style="fill:#ffffff;"/>
  </g>
  <g id="axes_1">
   <g id="patch_2">
    <path d="M 70.164 243.836 
L 708.336 243.836 
L 708.336 39.436675 
L 70.164 39.436675 
z
" style="fill:#ffffff;"/>
   </g>
   <g id="matplotlib.axis_1">
    <g id="xtick_1">
     <g id="line2d_1">
      <path clip-path="url(#paf329b77e1)" d="M 97.79704 243.836 
L 97.79704 39.436675 
" style="fill:none;stroke:#cccccc;stroke-linecap:round;"/>
     </g>
     <g id="text_1">
      <!-- 0.0 -->
      <g style="fill:#262626;" transform="translate(88.856876 260.911047)scale(0.099 -0.099)">
       <defs>
        <path d="M 23.578125 36.625 
Q 23.578125 39.3125 25.453125 41.265625 
Q 27.34375 43.21875 29.984375 43.21875 
Q 32.71875 43.21875 34.671875 41.265625 
Q 36.625 39.3125 36.625 36.625 
Q 36.625 33.890625 34.6875 31.984375 
Q 32.765625 30.078125 29.984375 30.078125 
Q 27.25 30.078125 25.40625 31.9375 
Q 23.578125 33.796875 23.578125 36.625 
z
M 30.078125 66.40625 
Q 23.1875 66.40625 19.796875 58.984375 
Q 16.40625 51.5625 16.40625 36.375 
Q 16.40625 21.234375 19.796875 13.8125 
Q 23.1875 6.390625 30.078125 6.390625 
Q 37.015625 6.390625 40.40625 13.8125 
Q 43.796875 21.234375 43.796875 36.375 
Q 43.796875 51.5625 40.40625 58.984375 
Q 37.015625 66.40625 30.078125 66.40625 
z
M 30.078125 74.21875 
Q 41.75 74.21875 47.734375 64.640625 
Q 53.71875 55.078125 53.71875 36.375 
Q 53.71875 17.71875 47.734375 8.140625 
Q 41.75 -1.421875 30.078125 -1.421875 
Q 18.40625 -1.421875 12.453125 8.140625 
Q 6.5 17.71875 6.5 36.375 
Q 6.5 55.078125 12.453125 64.640625 
Q 18.40625 74.21875 30.078125 74.21875 
z
" id="DejaVuSansMono-48"/>
        <path d="M 23.875 14.890625 
L 36.1875 14.890625 
L 36.1875 0 
L 23.875 0 
z
" id="DejaVuSansMono-46"/>
       </defs>
       <use xlink:href="#DejaVuSansMono-48"/>
       <use x="60.205078" xlink:href="#DejaVuSansMono-46"/>
       <use x="120.410156" xlink:href="#DejaVuSansMono-48"/>
      </g>
     </g>
    </g>
    <g id="xtick_2">
     <g id="line2d_2">
      <path clip-path="url(#paf329b77e1)" d="M 215.555812 243.836 
L 215.555812 39.436675 
" style="fill:none;stroke:#cccccc;stroke-linecap:round;"/>
     </g>
     <g id="text_2">
      <!-- 0.2 -->
      <g style="fill:#262626;" transform="translate(206.615648 260.911047)scale(0.099 -0.099)">
       <defs>
        <path d="M 18.21875 8.296875 
L 51.703125 8.296875 
L 51.703125 0 
L 7.421875 0 
L 7.421875 8.296875 
Q 16.546875 17.921875 23.375 25.296875 
Q 30.21875 32.671875 32.8125 35.6875 
Q 37.703125 41.65625 39.40625 45.34375 
Q 41.109375 49.03125 41.109375 52.875 
Q 41.109375 58.984375 37.515625 62.453125 
Q 33.9375 65.921875 27.6875 65.921875 
Q 23.25 65.921875 18.359375 64.3125 
Q 13.484375 62.703125 8.015625 59.421875 
L 8.015625 69.390625 
Q 13.03125 71.78125 17.890625 73 
Q 22.75 74.21875 27.484375 74.21875 
Q 38.1875 74.21875 44.703125 68.53125 
Q 51.21875 62.84375 51.21875 53.609375 
Q 51.21875 48.921875 49.046875 44.234375 
Q 46.875 39.546875 42 33.890625 
Q 39.265625 30.71875 34.0625 25.09375 
Q 28.859375 19.484375 18.21875 8.296875 
z
" id="DejaVuSansMono-50"/>
       </defs>
       <use xlink:href="#DejaVuSansMono-48"/>
       <use x="60.205078" xlink:href="#DejaVuSansMono-46"/>
       <use x="120.410156" xlink:href="#DejaVuSansMono-50"/>
      </g>
     </g>
    </g>
    <g id="xtick_3">
     <g id="line2d_3">
      <path clip-path="url(#paf329b77e1)" d="M 333.314583 243.836 
L 333.314583 39.436675 
" style="fill:none;stroke:#cccccc;stroke-linecap:round;"/>
     </g>
     <g id="text_3">
      <!-- 0.4 -->
      <g style="fill:#262626;" transform="translate(324.374419 260.911047)scale(0.099 -0.099)">
       <defs>
        <path d="M 35.890625 63.921875 
L 12.890625 25.390625 
L 35.890625 25.390625 
z
M 34.28125 72.90625 
L 45.703125 72.90625 
L 45.703125 25.390625 
L 55.421875 25.390625 
L 55.421875 17.390625 
L 45.703125 17.390625 
L 45.703125 0 
L 35.890625 0 
L 35.890625 17.390625 
L 4.984375 17.390625 
L 4.984375 26.703125 
z
" id="DejaVuSansMono-52"/>
       </defs>
       <use xlink:href="#DejaVuSansMono-48"/>
       <use x="60.205078" xlink:href="#DejaVuSansMono-46"/>
       <use x="120.410156" xlink:href="#DejaVuSansMono-52"/>
      </g>
     </g>
    </g>
    <g id="xtick_4">
     <g id="line2d_4">
      <path clip-path="url(#paf329b77e1)" d="M 451.073355 243.836 
L 451.073355 39.436675 
" style="fill:none;stroke:#cccccc;stroke-linecap:round;"/>
     </g>
     <g id="text_4">
      <!-- 0.6 -->
      <g style="fill:#262626;" transform="translate(442.133191 260.911047)scale(0.099 -0.099)">
       <defs>
        <path d="M 48.390625 71.296875 
L 48.390625 62.203125 
Q 45.3125 64.015625 41.84375 64.96875 
Q 38.375 65.921875 34.625 65.921875 
Q 25.25 65.921875 20.40625 58.859375 
Q 15.578125 51.8125 15.578125 38.09375 
Q 17.921875 42.96875 22.0625 45.578125 
Q 26.21875 48.1875 31.59375 48.1875 
Q 42.140625 48.1875 47.921875 41.71875 
Q 53.71875 35.25 53.71875 23.390625 
Q 53.71875 11.578125 47.75 5.078125 
Q 41.796875 -1.421875 31 -1.421875 
Q 18.3125 -1.421875 12.40625 7.6875 
Q 6.5 16.796875 6.5 36.375 
Q 6.5 54.828125 13.59375 64.515625 
Q 20.703125 74.21875 34.1875 74.21875 
Q 37.796875 74.21875 41.40625 73.453125 
Q 45.015625 72.703125 48.390625 71.296875 
z
M 30.8125 40.484375 
Q 24.515625 40.484375 20.890625 35.9375 
Q 17.28125 31.390625 17.28125 23.390625 
Q 17.28125 15.375 20.890625 10.828125 
Q 24.515625 6.296875 30.8125 6.296875 
Q 37.359375 6.296875 40.671875 10.609375 
Q 44 14.9375 44 23.390625 
Q 44 31.890625 40.671875 36.1875 
Q 37.359375 40.484375 30.8125 40.484375 
z
" id="DejaVuSansMono-54"/>
       </defs>
       <use xlink:href="#DejaVuSansMono-48"/>
       <use x="60.205078" xlink:href="#DejaVuSansMono-46"/>
       <use x="120.410156" xlink:href="#DejaVuSansMono-54"/>
      </g>
     </g>
    </g>
    <g id="xtick_5">
     <g id="line2d_5">
      <path clip-path="url(#paf329b77e1)" d="M 568.832127 243.836 
L 568.832127 39.436675 
" style="fill:none;stroke:#cccccc;stroke-linecap:round;"/>
     </g>
     <g id="text_5">
      <!-- 0.8 -->
      <g style="fill:#262626;" transform="translate(559.891963 260.911047)scale(0.099 -0.099)">
       <defs>
        <path d="M 30.078125 34.625 
Q 23.484375 34.625 19.890625 30.9375 
Q 16.3125 27.25 16.3125 20.515625 
Q 16.3125 13.765625 19.9375 10.03125 
Q 23.578125 6.296875 30.078125 6.296875 
Q 36.71875 6.296875 40.296875 9.984375 
Q 43.890625 13.671875 43.890625 20.515625 
Q 43.890625 27.203125 40.25 30.90625 
Q 36.625 34.625 30.078125 34.625 
z
M 21.484375 38.71875 
Q 15.1875 40.328125 11.640625 44.71875 
Q 8.109375 49.125 8.109375 55.328125 
Q 8.109375 64.015625 14.015625 69.109375 
Q 19.921875 74.21875 30.078125 74.21875 
Q 40.28125 74.21875 46.1875 69.109375 
Q 52.09375 64.015625 52.09375 55.328125 
Q 52.09375 49.125 48.546875 44.71875 
Q 45.015625 40.328125 38.71875 38.71875 
Q 46.046875 37.109375 49.921875 32.21875 
Q 53.8125 27.34375 53.8125 19.578125 
Q 53.8125 9.71875 47.515625 4.140625 
Q 41.21875 -1.421875 30.078125 -1.421875 
Q 18.953125 -1.421875 12.671875 4.125 
Q 6.390625 9.671875 6.390625 19.484375 
Q 6.390625 27.296875 10.265625 32.203125 
Q 14.15625 37.109375 21.484375 38.71875 
z
M 17.921875 54.390625 
Q 17.921875 48.53125 21.046875 45.453125 
Q 24.171875 42.390625 30.078125 42.390625 
Q 36.03125 42.390625 39.15625 45.453125 
Q 42.28125 48.53125 42.28125 54.390625 
Q 42.28125 60.359375 39.171875 63.484375 
Q 36.078125 66.609375 30.078125 66.609375 
Q 24.171875 66.609375 21.046875 63.453125 
Q 17.921875 60.296875 17.921875 54.390625 
z
" id="DejaVuSansMono-56"/>
       </defs>
       <use xlink:href="#DejaVuSansMono-48"/>
       <use x="60.205078" xlink:href="#DejaVuSansMono-46"/>
       <use x="120.410156" xlink:href="#DejaVuSansMono-56"/>
      </g>
     </g>
    </g>
    <g id="xtick_6">
     <g id="line2d_6">
      <path clip-path="url(#paf329b77e1)" d="M 686.590899 243.836 
L 686.590899 39.436675 
" style="fill:none;stroke:#cccccc;stroke-linecap:round;"/>
     </g>
     <g id="text_6">
      <!-- 1.0 -->
      <g style="fill:#262626;" transform="translate(677.650734 260.911047)scale(0.099 -0.099)">
       <defs>
        <path d="M 13.1875 8.296875 
L 28.515625 8.296875 
L 28.515625 64.015625 
L 12.015625 60.296875 
L 12.015625 69.28125 
L 28.421875 72.90625 
L 38.28125 72.90625 
L 38.28125 8.296875 
L 53.421875 8.296875 
L 53.421875 0 
L 13.1875 0 
z
" id="DejaVuSansMono-49"/>
       </defs>
       <use xlink:href="#DejaVuSansMono-49"/>
       <use x="60.205078" xlink:href="#DejaVuSansMono-46"/>
       <use x="120.410156" xlink:href="#DejaVuSansMono-48"/>
      </g>
     </g>
    </g>
    <g id="text_7">
     <!-- User's Botscore -->
     <g style="fill:#262626;" transform="translate(348.629145 273.853589)scale(0.089964 -0.089964)">
      <defs>
       <path d="M 7.171875 27.984375 
L 7.171875 72.90625 
L 17.09375 72.90625 
L 17.09375 23.484375 
Q 17.09375 18.171875 17.375 15.890625 
Q 17.671875 13.625 18.40625 12.40625 
Q 19.96875 9.515625 22.921875 8.046875 
Q 25.875 6.59375 30.078125 6.59375 
Q 34.328125 6.59375 37.25 8.046875 
Q 40.1875 9.515625 41.796875 12.40625 
Q 42.53125 13.625 42.8125 15.859375 
Q 43.109375 18.109375 43.109375 23.390625 
L 43.109375 72.90625 
L 52.984375 72.90625 
L 52.984375 27.984375 
Q 52.984375 16.796875 51.59375 12.078125 
Q 50.203125 7.375 46.78125 4.296875 
Q 43.5625 1.421875 39.40625 0 
Q 35.25 -1.421875 30.078125 -1.421875 
Q 24.953125 -1.421875 20.796875 0 
Q 16.65625 1.421875 13.375 4.296875 
Q 10.015625 7.328125 8.59375 12.125 
Q 7.171875 16.9375 7.171875 27.984375 
z
" id="DejaVuSansMono-85"/>
       <path d="M 47.515625 52.78125 
L 47.515625 44 
Q 43.65625 46.234375 39.75 47.359375 
Q 35.84375 48.484375 31.78125 48.484375 
Q 25.6875 48.484375 22.671875 46.5 
Q 19.671875 44.53125 19.671875 40.484375 
Q 19.671875 36.8125 21.921875 35 
Q 24.171875 33.203125 33.109375 31.5 
L 36.71875 30.8125 
Q 43.40625 29.546875 46.84375 25.734375 
Q 50.296875 21.921875 50.296875 15.828125 
Q 50.296875 7.71875 44.53125 3.140625 
Q 38.765625 -1.421875 28.515625 -1.421875 
Q 24.46875 -1.421875 20.015625 -0.5625 
Q 15.578125 0.296875 10.40625 2 
L 10.40625 11.28125 
Q 15.4375 8.6875 20.015625 7.390625 
Q 24.609375 6.109375 28.71875 6.109375 
Q 34.671875 6.109375 37.9375 8.515625 
Q 41.21875 10.9375 41.21875 15.28125 
Q 41.21875 21.53125 29.25 23.921875 
L 28.859375 24.03125 
L 25.484375 24.703125 
Q 17.71875 26.21875 14.15625 29.8125 
Q 10.59375 33.40625 10.59375 39.59375 
Q 10.59375 47.46875 15.90625 51.734375 
Q 21.234375 56 31.109375 56 
Q 35.5 56 39.546875 55.1875 
Q 43.609375 54.390625 47.515625 52.78125 
z
" id="DejaVuSansMono-115"/>
       <path d="M 54.296875 29.59375 
L 54.296875 25.203125 
L 15.375 25.203125 
L 15.375 24.90625 
Q 15.375 15.96875 20.03125 11.078125 
Q 24.703125 6.203125 33.203125 6.203125 
Q 37.5 6.203125 42.1875 7.5625 
Q 46.875 8.9375 52.203125 11.71875 
L 52.203125 2.78125 
Q 47.078125 0.6875 42.3125 -0.359375 
Q 37.546875 -1.421875 33.109375 -1.421875 
Q 20.359375 -1.421875 13.171875 6.21875 
Q 6 13.875 6 27.296875 
Q 6 40.375 13.03125 48.1875 
Q 20.0625 56 31.78125 56 
Q 42.234375 56 48.265625 48.921875 
Q 54.296875 41.84375 54.296875 29.59375 
z
M 45.3125 32.234375 
Q 45.125 40.140625 41.578125 44.265625 
Q 38.03125 48.390625 31.390625 48.390625 
Q 24.90625 48.390625 20.703125 44.09375 
Q 16.5 39.796875 15.71875 32.171875 
z
" id="DejaVuSansMono-101"/>
       <path d="M 56.390625 43.40625 
Q 53.515625 45.65625 50.53125 46.671875 
Q 47.5625 47.703125 44 47.703125 
Q 35.59375 47.703125 31.140625 42.421875 
Q 26.703125 37.15625 26.703125 27.203125 
L 26.703125 0 
L 17.671875 0 
L 17.671875 54.6875 
L 26.703125 54.6875 
L 26.703125 44 
Q 28.953125 49.8125 33.609375 52.90625 
Q 38.28125 56 44.671875 56 
Q 48 56 50.875 55.171875 
Q 53.765625 54.34375 56.390625 52.59375 
z
" id="DejaVuSansMono-114"/>
       <path d="M 34.28125 72.90625 
L 34.28125 45.796875 
L 25.78125 45.796875 
L 25.78125 72.90625 
z
" id="DejaVuSansMono-39"/>
       <path id="DejaVuSansMono-32"/>
       <path d="M 18.015625 34.8125 
L 18.015625 8.109375 
L 29.6875 8.109375 
Q 38.28125 8.109375 41.9375 11.109375 
Q 45.609375 14.109375 45.609375 21 
Q 45.609375 28.125 41.75 31.46875 
Q 37.890625 34.8125 29.6875 34.8125 
z
M 18.015625 64.796875 
L 18.015625 42.828125 
L 29.5 42.828125 
Q 36.625 42.828125 39.8125 45.5625 
Q 43.015625 48.296875 43.015625 54.390625 
Q 43.015625 59.90625 39.859375 62.34375 
Q 36.71875 64.796875 29.5 64.796875 
z
M 8.109375 72.90625 
L 29.6875 72.90625 
Q 40.875 72.90625 46.921875 68.0625 
Q 52.984375 63.234375 52.984375 54.390625 
Q 52.984375 47.703125 49.78125 43.84375 
Q 46.578125 39.984375 40.1875 39.015625 
Q 47.359375 37.9375 51.4375 32.875 
Q 55.515625 27.828125 55.515625 20.015625 
Q 55.515625 10.109375 49.015625 5.046875 
Q 42.53125 0 29.6875 0 
L 8.109375 0 
z
" id="DejaVuSansMono-66"/>
       <path d="M 30.078125 48.390625 
Q 23.25 48.390625 19.734375 43.0625 
Q 16.21875 37.75 16.21875 27.296875 
Q 16.21875 16.890625 19.734375 11.546875 
Q 23.25 6.203125 30.078125 6.203125 
Q 36.96875 6.203125 40.484375 11.546875 
Q 44 16.890625 44 27.296875 
Q 44 37.75 40.484375 43.0625 
Q 36.96875 48.390625 30.078125 48.390625 
z
M 30.078125 56 
Q 41.453125 56 47.484375 48.625 
Q 53.515625 41.265625 53.515625 27.296875 
Q 53.515625 13.28125 47.5 5.921875 
Q 41.5 -1.421875 30.078125 -1.421875 
Q 18.703125 -1.421875 12.6875 5.921875 
Q 6.6875 13.28125 6.6875 27.296875 
Q 6.6875 41.265625 12.6875 48.625 
Q 18.703125 56 30.078125 56 
z
" id="DejaVuSansMono-111"/>
       <path d="M 29.984375 70.21875 
L 29.984375 54.6875 
L 50.390625 54.6875 
L 50.390625 47.703125 
L 29.984375 47.703125 
L 29.984375 18.015625 
Q 29.984375 11.96875 32.28125 9.5625 
Q 34.578125 7.171875 40.28125 7.171875 
L 50.390625 7.171875 
L 50.390625 0 
L 39.40625 0 
Q 29.296875 0 25.140625 4.046875 
Q 21 8.109375 21 18.015625 
L 21 47.703125 
L 6.390625 47.703125 
L 6.390625 54.6875 
L 21 54.6875 
L 21 70.21875 
z
" id="DejaVuSansMono-116"/>
       <path d="M 51.8125 2.78125 
Q 48.1875 0.6875 44.359375 -0.359375 
Q 40.53125 -1.421875 36.53125 -1.421875 
Q 23.828125 -1.421875 16.671875 6.1875 
Q 9.515625 13.8125 9.515625 27.296875 
Q 9.515625 40.765625 16.671875 48.375 
Q 23.828125 56 36.53125 56 
Q 40.484375 56 44.234375 54.96875 
Q 48 53.953125 51.8125 51.8125 
L 51.8125 42.390625 
Q 48.25 45.5625 44.65625 46.96875 
Q 41.0625 48.390625 36.53125 48.390625 
Q 28.078125 48.390625 23.53125 42.921875 
Q 19 37.453125 19 27.296875 
Q 19 17.1875 23.5625 11.6875 
Q 28.125 6.203125 36.53125 6.203125 
Q 41.21875 6.203125 44.921875 7.640625 
Q 48.640625 9.078125 51.8125 12.109375 
z
" id="DejaVuSansMono-99"/>
      </defs>
      <use xlink:href="#DejaVuSansMono-85"/>
      <use x="60.205078" xlink:href="#DejaVuSansMono-115"/>
      <use x="120.410156" xlink:href="#DejaVuSansMono-101"/>
      <use x="180.615234" xlink:href="#DejaVuSansMono-114"/>
      <use x="240.820312" xlink:href="#DejaVuSansMono-39"/>
      <use x="301.025391" xlink:href="#DejaVuSansMono-115"/>
      <use x="361.230469" xlink:href="#DejaVuSansMono-32"/>
      <use x="421.435547" xlink:href="#DejaVuSansMono-66"/>
      <use x="481.640625" xlink:href="#DejaVuSansMono-111"/>
      <use x="541.845703" xlink:href="#DejaVuSansMono-116"/>
      <use x="602.050781" xlink:href="#DejaVuSansMono-115"/>
      <use x="662.255859" xlink:href="#DejaVuSansMono-99"/>
      <use x="722.460938" xlink:href="#DejaVuSansMono-111"/>
      <use x="782.666016" xlink:href="#DejaVuSansMono-114"/>
      <use x="842.871094" xlink:href="#DejaVuSansMono-101"/>
     </g>
    </g>
   </g>
   <g id="matplotlib.axis_2">
    <g id="ytick_1">
     <g id="line2d_7">
      <path clip-path="url(#paf329b77e1)" d="M 70.164 243.836 
L 708.336 243.836 
" style="fill:none;stroke:#cccccc;stroke-linecap:round;"/>
     </g>
     <g id="text_8">
      <!-- 0 -->
      <g style="fill:#262626;" transform="translate(54.703891 247.623523)scale(0.099 -0.099)">
       <use xlink:href="#DejaVuSansMono-48"/>
      </g>
     </g>
    </g>
    <g id="ytick_2">
     <g id="line2d_8">
      <path clip-path="url(#paf329b77e1)" d="M 70.164 214.755792 
L 708.336 214.755792 
" style="fill:none;stroke:#cccccc;stroke-linecap:round;"/>
     </g>
     <g id="text_9">
      <!-- 50000 -->
      <g style="fill:#262626;" transform="translate(30.863453 218.543315)scale(0.099 -0.099)">
       <defs>
        <path d="M 10.109375 72.90625 
L 47.015625 72.90625 
L 47.015625 64.59375 
L 19.09375 64.59375 
L 19.09375 46.6875 
Q 21.1875 47.46875 23.3125 47.828125 
Q 25.4375 48.1875 27.59375 48.1875 
Q 38.921875 48.1875 45.5625 41.5 
Q 52.203125 34.8125 52.203125 23.390625 
Q 52.203125 11.859375 45.234375 5.21875 
Q 38.28125 -1.421875 26.21875 -1.421875 
Q 20.40625 -1.421875 15.59375 -0.640625 
Q 10.796875 0.140625 6.984375 1.703125 
L 6.984375 11.71875 
Q 11.46875 9.28125 16.015625 8.078125 
Q 20.5625 6.890625 25.296875 6.890625 
Q 33.453125 6.890625 37.859375 11.1875 
Q 42.28125 15.484375 42.28125 23.390625 
Q 42.28125 31.203125 37.71875 35.546875 
Q 33.15625 39.890625 25 39.890625 
Q 21.046875 39.890625 17.28125 38.984375 
Q 13.53125 38.09375 10.109375 36.28125 
z
" id="DejaVuSansMono-53"/>
       </defs>
       <use xlink:href="#DejaVuSansMono-53"/>
       <use x="60.205078" xlink:href="#DejaVuSansMono-48"/>
       <use x="120.410156" xlink:href="#DejaVuSansMono-48"/>
       <use x="180.615234" xlink:href="#DejaVuSansMono-48"/>
       <use x="240.820312" xlink:href="#DejaVuSansMono-48"/>
      </g>
     </g>
    </g>
    <g id="ytick_3">
     <g id="line2d_9">
      <path clip-path="url(#paf329b77e1)" d="M 70.164 185.675584 
L 708.336 185.675584 
" style="fill:none;stroke:#cccccc;stroke-linecap:round;"/>
     </g>
     <g id="text_10">
      <!-- 100000 -->
      <g style="fill:#262626;" transform="translate(24.903344 189.463107)scale(0.099 -0.099)">
       <use xlink:href="#DejaVuSansMono-49"/>
       <use x="60.205078" xlink:href="#DejaVuSansMono-48"/>
       <use x="120.410156" xlink:href="#DejaVuSansMono-48"/>
       <use x="180.615234" xlink:href="#DejaVuSansMono-48"/>
       <use x="240.820312" xlink:href="#DejaVuSansMono-48"/>
       <use x="301.025391" xlink:href="#DejaVuSansMono-48"/>
      </g>
     </g>
    </g>
    <g id="ytick_4">
     <g id="line2d_10">
      <path clip-path="url(#paf329b77e1)" d="M 70.164 156.595376 
L 708.336 156.595376 
" style="fill:none;stroke:#cccccc;stroke-linecap:round;"/>
     </g>
     <g id="text_11">
      <!-- 150000 -->
      <g style="fill:#262626;" transform="translate(24.903344 160.382899)scale(0.099 -0.099)">
       <use xlink:href="#DejaVuSansMono-49"/>
       <use x="60.205078" xlink:href="#DejaVuSansMono-53"/>
       <use x="120.410156" xlink:href="#DejaVuSansMono-48"/>
       <use x="180.615234" xlink:href="#DejaVuSansMono-48"/>
       <use x="240.820312" xlink:href="#DejaVuSansMono-48"/>
       <use x="301.025391" xlink:href="#DejaVuSansMono-48"/>
      </g>
     </g>
    </g>
    <g id="ytick_5">
     <g id="line2d_11">
      <path clip-path="url(#paf329b77e1)" d="M 70.164 127.515168 
L 708.336 127.515168 
" style="fill:none;stroke:#cccccc;stroke-linecap:round;"/>
     </g>
     <g id="text_12">
      <!-- 200000 -->
      <g style="fill:#262626;" transform="translate(24.903344 131.302691)scale(0.099 -0.099)">
       <use xlink:href="#DejaVuSansMono-50"/>
       <use x="60.205078" xlink:href="#DejaVuSansMono-48"/>
       <use x="120.410156" xlink:href="#DejaVuSansMono-48"/>
       <use x="180.615234" xlink:href="#DejaVuSansMono-48"/>
       <use x="240.820312" xlink:href="#DejaVuSansMono-48"/>
       <use x="301.025391" xlink:href="#DejaVuSansMono-48"/>
      </g>
     </g>
    </g>
    <g id="ytick_6">
     <g id="line2d_12">
      <path clip-path="url(#paf329b77e1)" d="M 70.164 98.43496 
L 708.336 98.43496 
" style="fill:none;stroke:#cccccc;stroke-linecap:round;"/>
     </g>
     <g id="text_13">
      <!-- 250000 -->
      <g style="fill:#262626;" transform="translate(24.903344 102.222483)scale(0.099 -0.099)">
       <use xlink:href="#DejaVuSansMono-50"/>
       <use x="60.205078" xlink:href="#DejaVuSansMono-53"/>
       <use x="120.410156" xlink:href="#DejaVuSansMono-48"/>
       <use x="180.615234" xlink:href="#DejaVuSansMono-48"/>
       <use x="240.820312" xlink:href="#DejaVuSansMono-48"/>
       <use x="301.025391" xlink:href="#DejaVuSansMono-48"/>
      </g>
     </g>
    </g>
    <g id="ytick_7">
     <g id="line2d_13">
      <path clip-path="url(#paf329b77e1)" d="M 70.164 69.354752 
L 708.336 69.354752 
" style="fill:none;stroke:#cccccc;stroke-linecap:round;"/>
     </g>
     <g id="text_14">
      <!-- 300000 -->
      <g style="fill:#262626;" transform="translate(24.903344 73.142275)scale(0.099 -0.099)">
       <defs>
        <path d="M 37.890625 39.015625 
Q 45.0625 37.109375 48.875 32.25 
Q 52.6875 27.390625 52.6875 20.125 
Q 52.6875 10.0625 45.921875 4.3125 
Q 39.15625 -1.421875 27.203125 -1.421875 
Q 22.171875 -1.421875 16.9375 -0.484375 
Q 11.71875 0.4375 6.6875 2.203125 
L 6.6875 12.015625 
Q 11.671875 9.421875 16.5 8.15625 
Q 21.34375 6.890625 26.125 6.890625 
Q 34.234375 6.890625 38.578125 10.546875 
Q 42.921875 14.203125 42.921875 21.09375 
Q 42.921875 27.4375 38.578125 31.171875 
Q 34.234375 34.90625 26.8125 34.90625 
L 19.28125 34.90625 
L 19.28125 43.015625 
L 26.8125 43.015625 
Q 33.59375 43.015625 37.40625 45.984375 
Q 41.21875 48.96875 41.21875 54.296875 
Q 41.21875 59.90625 37.671875 62.90625 
Q 34.125 65.921875 27.59375 65.921875 
Q 23.25 65.921875 18.609375 64.9375 
Q 13.96875 63.96875 8.890625 62.015625 
L 8.890625 71.09375 
Q 14.796875 72.65625 19.40625 73.4375 
Q 24.03125 74.21875 27.59375 74.21875 
Q 38.234375 74.21875 44.609375 68.875 
Q 50.984375 63.53125 50.984375 54.6875 
Q 50.984375 48.6875 47.625 44.671875 
Q 44.28125 40.671875 37.890625 39.015625 
z
" id="DejaVuSansMono-51"/>
       </defs>
       <use xlink:href="#DejaVuSansMono-51"/>
       <use x="60.205078" xlink:href="#DejaVuSansMono-48"/>
       <use x="120.410156" xlink:href="#DejaVuSansMono-48"/>
       <use x="180.615234" xlink:href="#DejaVuSansMono-48"/>
       <use x="240.820312" xlink:href="#DejaVuSansMono-48"/>
       <use x="301.025391" xlink:href="#DejaVuSansMono-48"/>
      </g>
     </g>
    </g>
    <g id="ytick_8">
     <g id="line2d_14">
      <path clip-path="url(#paf329b77e1)" d="M 70.164 40.274544 
L 708.336 40.274544 
" style="fill:none;stroke:#cccccc;stroke-linecap:round;"/>
     </g>
     <g id="text_15">
      <!-- 350000 -->
      <g style="fill:#262626;" transform="translate(24.903344 44.062067)scale(0.099 -0.099)">
       <use xlink:href="#DejaVuSansMono-51"/>
       <use x="60.205078" xlink:href="#DejaVuSansMono-53"/>
       <use x="120.410156" xlink:href="#DejaVuSansMono-48"/>
       <use x="180.615234" xlink:href="#DejaVuSansMono-48"/>
       <use x="240.820312" xlink:href="#DejaVuSansMono-48"/>
       <use x="301.025391" xlink:href="#DejaVuSansMono-48"/>
      </g>
     </g>
    </g>
    <g id="text_16">
     <!-- Cumulative number of accounts -->
     <g style="fill:#262626;" transform="translate(19.032374 220.16999)rotate(-90)scale(0.089964 -0.089964)">
      <defs>
       <path d="M 52.390625 2.59375 
Q 48.640625 0.59375 44.671875 -0.40625 
Q 40.71875 -1.421875 36.28125 -1.421875 
Q 22.265625 -1.421875 14.515625 8.484375 
Q 6.78125 18.40625 6.78125 36.375 
Q 6.78125 54.25 14.5625 64.234375 
Q 22.359375 74.21875 36.28125 74.21875 
Q 40.71875 74.21875 44.671875 73.21875 
Q 48.640625 72.21875 52.390625 70.21875 
L 52.390625 60.109375 
Q 48.78125 63.09375 44.625 64.65625 
Q 40.484375 66.21875 36.28125 66.21875 
Q 26.65625 66.21875 21.875 58.796875 
Q 17.09375 51.375 17.09375 36.375 
Q 17.09375 21.4375 21.875 14.015625 
Q 26.65625 6.59375 36.28125 6.59375 
Q 40.578125 6.59375 44.703125 8.15625 
Q 48.828125 9.71875 52.390625 12.703125 
z
" id="DejaVuSansMono-67"/>
       <path d="M 9.515625 20.703125 
L 9.515625 54.59375 
L 18.5 54.59375 
L 18.5 20.703125 
Q 18.5 13.328125 21.109375 9.859375 
Q 23.734375 6.390625 29.203125 6.390625 
Q 35.546875 6.390625 38.90625 10.859375 
Q 42.28125 15.328125 42.28125 23.6875 
L 42.28125 54.59375 
L 51.3125 54.59375 
L 51.3125 0 
L 42.28125 0 
L 42.28125 8.203125 
Q 39.890625 3.46875 35.765625 1.015625 
Q 31.640625 -1.421875 26.125 -1.421875 
Q 17.71875 -1.421875 13.609375 4.078125 
Q 9.515625 9.578125 9.515625 20.703125 
z
" id="DejaVuSansMono-117"/>
       <path d="M 33.015625 49.125 
Q 34.671875 52.640625 37.234375 54.3125 
Q 39.796875 56 43.40625 56 
Q 50 56 52.703125 50.890625 
Q 55.421875 45.796875 55.421875 31.6875 
L 55.421875 0 
L 47.21875 0 
L 47.21875 31.296875 
Q 47.21875 42.875 45.921875 45.671875 
Q 44.625 48.484375 41.21875 48.484375 
Q 37.3125 48.484375 35.859375 45.484375 
Q 34.421875 42.484375 34.421875 31.296875 
L 34.421875 0 
L 26.21875 0 
L 26.21875 31.296875 
Q 26.21875 43.015625 24.828125 45.75 
Q 23.4375 48.484375 19.828125 48.484375 
Q 16.265625 48.484375 14.875 45.484375 
Q 13.484375 42.484375 13.484375 31.296875 
L 13.484375 0 
L 5.328125 0 
L 5.328125 54.6875 
L 13.484375 54.6875 
L 13.484375 50 
Q 15.09375 52.9375 17.5 54.46875 
Q 19.921875 56 23 56 
Q 26.703125 56 29.171875 54.296875 
Q 31.640625 52.59375 33.015625 49.125 
z
" id="DejaVuSansMono-109"/>
       <path d="M 31.203125 19.828125 
Q 31.203125 13.765625 33.421875 10.6875 
Q 35.640625 7.625 39.984375 7.625 
L 50.484375 7.625 
L 50.484375 0 
L 39.109375 0 
Q 31.0625 0 26.640625 5.171875 
Q 22.21875 10.359375 22.21875 19.828125 
L 22.21875 69.484375 
L 7.8125 69.484375 
L 7.8125 76.515625 
L 31.203125 76.515625 
z
" id="DejaVuSansMono-108"/>
       <path d="M 34.28125 27.484375 
L 31.296875 27.484375 
Q 23.4375 27.484375 19.453125 24.71875 
Q 15.484375 21.96875 15.484375 16.5 
Q 15.484375 11.578125 18.453125 8.84375 
Q 21.4375 6.109375 26.703125 6.109375 
Q 34.125 6.109375 38.375 11.25 
Q 42.625 16.40625 42.671875 25.484375 
L 42.671875 27.484375 
z
M 51.703125 31.203125 
L 51.703125 0 
L 42.671875 0 
L 42.671875 8.109375 
Q 39.796875 3.21875 35.421875 0.890625 
Q 31.0625 -1.421875 24.8125 -1.421875 
Q 16.453125 -1.421875 11.46875 3.296875 
Q 6.5 8.015625 6.5 15.921875 
Q 6.5 25.046875 12.625 29.78125 
Q 18.75 34.515625 30.609375 34.515625 
L 42.671875 34.515625 
L 42.671875 35.9375 
Q 42.625 42.484375 39.34375 45.4375 
Q 36.078125 48.390625 28.90625 48.390625 
Q 24.3125 48.390625 19.625 47.0625 
Q 14.9375 45.75 10.5 43.21875 
L 10.5 52.203125 
Q 15.484375 54.109375 20.046875 55.046875 
Q 24.609375 56 28.90625 56 
Q 35.6875 56 40.5 54 
Q 45.3125 52 48.296875 48 
Q 50.140625 45.5625 50.921875 41.96875 
Q 51.703125 38.375 51.703125 31.203125 
z
" id="DejaVuSansMono-97"/>
       <path d="M 12.5 54.6875 
L 35.5 54.6875 
L 35.5 6.984375 
L 53.328125 6.984375 
L 53.328125 0 
L 8.6875 0 
L 8.6875 6.984375 
L 26.515625 6.984375 
L 26.515625 47.703125 
L 12.5 47.703125 
z
M 26.515625 75.984375 
L 35.5 75.984375 
L 35.5 64.59375 
L 26.515625 64.59375 
z
" id="DejaVuSansMono-105"/>
       <path d="M 4.890625 54.6875 
L 14.203125 54.6875 
L 30.078125 8.796875 
L 46 54.6875 
L 55.328125 54.6875 
L 35.890625 0 
L 24.3125 0 
z
" id="DejaVuSansMono-118"/>
       <path d="M 51.3125 33.890625 
L 51.3125 0 
L 42.28125 0 
L 42.28125 33.890625 
Q 42.28125 41.265625 39.6875 44.71875 
Q 37.109375 48.1875 31.59375 48.1875 
Q 25.296875 48.1875 21.890625 43.71875 
Q 18.5 39.265625 18.5 30.90625 
L 18.5 0 
L 9.515625 0 
L 9.515625 54.6875 
L 18.5 54.6875 
L 18.5 46.484375 
Q 20.90625 51.171875 25 53.578125 
Q 29.109375 56 34.71875 56 
Q 43.0625 56 47.1875 50.5 
Q 51.3125 45.015625 51.3125 33.890625 
z
" id="DejaVuSansMono-110"/>
       <path d="M 44.828125 27.296875 
Q 44.828125 37.75 41.5 43.0625 
Q 38.1875 48.390625 31.6875 48.390625 
Q 25.140625 48.390625 21.765625 43.046875 
Q 18.40625 37.703125 18.40625 27.296875 
Q 18.40625 16.9375 21.765625 11.5625 
Q 25.140625 6.203125 31.6875 6.203125 
Q 38.1875 6.203125 41.5 11.515625 
Q 44.828125 16.84375 44.828125 27.296875 
z
M 18.40625 47.703125 
Q 20.5625 51.703125 24.34375 53.84375 
Q 28.125 56 33.109375 56 
Q 42.96875 56 48.625 48.40625 
Q 54.296875 40.828125 54.296875 27.484375 
Q 54.296875 13.96875 48.609375 6.265625 
Q 42.921875 -1.421875 33.015625 -1.421875 
Q 28.125 -1.421875 24.390625 0.703125 
Q 20.65625 2.828125 18.40625 6.890625 
L 18.40625 0 
L 9.421875 0 
L 9.421875 75.984375 
L 18.40625 75.984375 
z
" id="DejaVuSansMono-98"/>
       <path d="M 51.90625 75.984375 
L 51.90625 68.5 
L 41.703125 68.5 
Q 36.859375 68.5 34.984375 66.515625 
Q 33.109375 64.546875 33.109375 59.515625 
L 33.109375 54.6875 
L 51.90625 54.6875 
L 51.90625 47.703125 
L 33.109375 47.703125 
L 33.109375 0 
L 24.125 0 
L 24.125 47.703125 
L 9.515625 47.703125 
L 9.515625 54.6875 
L 24.125 54.6875 
L 24.125 58.5 
Q 24.125 67.484375 28.25 71.734375 
Q 32.375 75.984375 41.109375 75.984375 
z
" id="DejaVuSansMono-102"/>
      </defs>
      <use xlink:href="#DejaVuSansMono-67"/>
      <use x="60.205078" xlink:href="#DejaVuSansMono-117"/>
      <use x="120.410156" xlink:href="#DejaVuSansMono-109"/>
      <use x="180.615234" xlink:href="#DejaVuSansMono-117"/>
      <use x="240.820312" xlink:href="#DejaVuSansMono-108"/>
      <use x="301.025391" xlink:href="#DejaVuSansMono-97"/>
      <use x="361.230469" xlink:href="#DejaVuSansMono-116"/>
      <use x="421.435547" xlink:href="#DejaVuSansMono-105"/>
      <use x="481.640625" xlink:href="#DejaVuSansMono-118"/>
      <use x="541.845703" xlink:href="#DejaVuSansMono-101"/>
      <use x="602.050781" xlink:href="#DejaVuSansMono-32"/>
      <use x="662.255859" xlink:href="#DejaVuSansMono-110"/>
      <use x="722.460938" xlink:href="#DejaVuSansMono-117"/>
      <use x="782.666016" xlink:href="#DejaVuSansMono-109"/>
      <use x="842.871094" xlink:href="#DejaVuSansMono-98"/>
      <use x="903.076172" xlink:href="#DejaVuSansMono-101"/>
      <use x="963.28125" xlink:href="#DejaVuSansMono-114"/>
      <use x="1023.486328" xlink:href="#DejaVuSansMono-32"/>
      <use x="1083.691406" xlink:href="#DejaVuSansMono-111"/>
      <use x="1143.896484" xlink:href="#DejaVuSansMono-102"/>
      <use x="1204.101562" xlink:href="#DejaVuSansMono-32"/>
      <use x="1264.306641" xlink:href="#DejaVuSansMono-97"/>
      <use x="1324.511719" xlink:href="#DejaVuSansMono-99"/>
      <use x="1384.716797" xlink:href="#DejaVuSansMono-99"/>
      <use x="1444.921875" xlink:href="#DejaVuSansMono-111"/>
      <use x="1505.126953" xlink:href="#DejaVuSansMono-117"/>
      <use x="1565.332031" xlink:href="#DejaVuSansMono-110"/>
      <use x="1625.537109" xlink:href="#DejaVuSansMono-116"/>
      <use x="1685.742188" xlink:href="#DejaVuSansMono-115"/>
     </g>
    </g>
   </g>
   <g id="PolyCollection_1">
    <defs>
     <path d="M 99.171818 -50.847213 
L 99.171818 -44.164 
L 101.921374 -44.164 
L 104.670931 -44.164 
L 107.420487 -44.164 
L 110.170043 -44.164 
L 112.919599 -44.164 
L 115.669156 -44.164 
L 118.418712 -44.164 
L 121.168268 -44.164 
L 123.917824 -44.164 
L 126.66738 -44.164 
L 129.416937 -44.164 
L 132.166493 -44.164 
L 134.916049 -44.164 
L 137.665605 -44.164 
L 140.415162 -44.164 
L 143.164718 -44.164 
L 145.914274 -44.164 
L 148.66383 -44.164 
L 151.413386 -44.164 
L 154.162943 -44.164 
L 156.912499 -44.164 
L 159.662055 -44.164 
L 162.411611 -44.164 
L 165.161168 -44.164 
L 167.910724 -44.164 
L 170.66028 -44.164 
L 173.409836 -44.164 
L 176.159393 -44.164 
L 178.908949 -44.164 
L 181.658505 -44.164 
L 184.408061 -44.164 
L 187.157617 -44.164 
L 189.907174 -44.164 
L 192.65673 -44.164 
L 195.406286 -44.164 
L 198.155842 -44.164 
L 200.905399 -44.164 
L 203.654955 -44.164 
L 206.404511 -44.164 
L 209.154067 -44.164 
L 211.903623 -44.164 
L 214.65318 -44.164 
L 217.402736 -44.164 
L 220.152292 -44.164 
L 222.901848 -44.164 
L 225.651405 -44.164 
L 228.400961 -44.164 
L 231.150517 -44.164 
L 233.900073 -44.164 
L 236.649629 -44.164 
L 239.399186 -44.164 
L 242.148742 -44.164 
L 244.898298 -44.164 
L 247.647854 -44.164 
L 250.397411 -44.164 
L 253.146967 -44.164 
L 255.896523 -44.164 
L 258.646079 -44.164 
L 261.395636 -44.164 
L 264.145192 -44.164 
L 266.894748 -44.164 
L 269.644304 -44.164 
L 272.39386 -44.164 
L 275.143417 -44.164 
L 277.892973 -44.164 
L 280.642529 -44.164 
L 283.392085 -44.164 
L 286.141642 -44.164 
L 288.891198 -44.164 
L 291.640754 -44.164 
L 294.39031 -44.164 
L 297.139866 -44.164 
L 299.889423 -44.164 
L 302.638979 -44.164 
L 305.388535 -44.164 
L 308.138091 -44.164 
L 310.887648 -44.164 
L 313.637204 -44.164 
L 316.38676 -44.164 
L 319.136316 -44.164 
L 321.885872 -44.164 
L 324.635429 -44.164 
L 327.384985 -44.164 
L 330.134541 -44.164 
L 332.884097 -44.164 
L 335.633654 -44.164 
L 338.38321 -44.164 
L 341.132766 -44.164 
L 343.882322 -44.164 
L 346.631879 -44.164 
L 349.381435 -44.164 
L 352.130991 -44.164 
L 354.880547 -44.164 
L 357.630103 -44.164 
L 360.37966 -44.164 
L 363.129216 -44.164 
L 365.878772 -44.164 
L 368.628328 -44.164 
L 371.377885 -44.164 
L 374.127441 -44.164 
L 376.876997 -44.164 
L 379.626553 -44.164 
L 382.376109 -44.164 
L 385.125666 -44.164 
L 387.875222 -44.164 
L 390.624778 -44.164 
L 393.374334 -44.164 
L 396.123891 -44.164 
L 398.873447 -44.164 
L 401.623003 -44.164 
L 404.372559 -44.164 
L 407.122115 -44.164 
L 409.871672 -44.164 
L 412.621228 -44.164 
L 415.370784 -44.164 
L 418.12034 -44.164 
L 420.869897 -44.164 
L 423.619453 -44.164 
L 426.369009 -44.164 
L 429.118565 -44.164 
L 431.868121 -44.164 
L 434.617678 -44.164 
L 437.367234 -44.164 
L 440.11679 -44.164 
L 442.866346 -44.164 
L 445.615903 -44.164 
L 448.365459 -44.164 
L 451.115015 -44.164 
L 453.864571 -44.164 
L 456.614128 -44.164 
L 459.363684 -44.164 
L 462.11324 -44.164 
L 464.862796 -44.164 
L 467.612352 -44.164 
L 470.361909 -44.164 
L 473.111465 -44.164 
L 475.861021 -44.164 
L 478.610577 -44.164 
L 481.360134 -44.164 
L 484.10969 -44.164 
L 486.859246 -44.164 
L 489.608802 -44.164 
L 492.358358 -44.164 
L 495.107915 -44.164 
L 497.857471 -44.164 
L 500.607027 -44.164 
L 503.356583 -44.164 
L 506.10614 -44.164 
L 508.855696 -44.164 
L 511.605252 -44.164 
L 514.354808 -44.164 
L 517.104364 -44.164 
L 519.853921 -44.164 
L 522.603477 -44.164 
L 525.353033 -44.164 
L 528.102589 -44.164 
L 530.852146 -44.164 
L 533.601702 -44.164 
L 536.351258 -44.164 
L 539.100814 -44.164 
L 541.850371 -44.164 
L 544.599927 -44.164 
L 547.349483 -44.164 
L 550.099039 -44.164 
L 552.848595 -44.164 
L 555.598152 -44.164 
L 558.347708 -44.164 
L 561.097264 -44.164 
L 563.84682 -44.164 
L 566.596377 -44.164 
L 569.345933 -44.164 
L 572.095489 -44.164 
L 574.845045 -44.164 
L 577.594601 -44.164 
L 580.344158 -44.164 
L 583.093714 -44.164 
L 585.84327 -44.164 
L 588.592826 -44.164 
L 591.342383 -44.164 
L 594.091939 -44.164 
L 596.841495 -44.164 
L 599.591051 -44.164 
L 602.340607 -44.164 
L 605.090164 -44.164 
L 607.83972 -44.164 
L 610.589276 -44.164 
L 613.338832 -44.164 
L 616.088389 -44.164 
L 618.837945 -44.164 
L 621.587501 -44.164 
L 624.337057 -44.164 
L 627.086614 -44.164 
L 629.83617 -44.164 
L 632.585726 -44.164 
L 635.335282 -44.164 
L 638.084838 -44.164 
L 640.834395 -44.164 
L 643.583951 -44.164 
L 646.333507 -44.164 
L 649.083063 -44.164 
L 651.83262 -44.164 
L 654.582176 -44.164 
L 657.331732 -44.164 
L 660.081288 -44.164 
L 662.830844 -44.164 
L 665.580401 -44.164 
L 668.329957 -44.164 
L 671.079513 -44.164 
L 673.829069 -44.164 
L 676.578626 -44.164 
L 679.328182 -44.164 
L 679.328182 -229.560213 
L 679.328182 -229.560213 
L 676.578626 -229.559632 
L 673.829069 -229.559632 
L 671.079513 -229.558468 
L 668.329957 -229.558468 
L 665.580401 -229.556724 
L 662.830844 -229.556724 
L 660.081288 -229.554979 
L 657.331732 -229.554979 
L 654.582176 -229.553816 
L 651.83262 -229.553816 
L 649.083063 -229.550326 
L 646.333507 -229.550326 
L 643.583951 -229.545092 
L 640.834395 -229.545092 
L 638.084838 -229.534623 
L 635.335282 -229.534623 
L 632.585726 -229.534623 
L 629.83617 -229.531715 
L 627.086614 -229.531715 
L 624.337057 -229.525899 
L 621.587501 -229.525899 
L 618.837945 -229.511359 
L 616.088389 -229.511359 
L 613.338832 -229.493329 
L 610.589276 -229.493329 
L 607.83972 -229.484605 
L 605.090164 -229.484605 
L 602.340607 -229.46832 
L 599.591051 -229.46832 
L 596.841495 -229.444474 
L 594.091939 -229.444474 
L 591.342383 -229.444474 
L 588.592826 -229.427026 
L 585.84327 -229.427026 
L 583.093714 -229.40667 
L 580.344158 -229.406088 
L 577.594601 -229.373518 
L 574.845045 -229.373518 
L 572.095489 -229.346765 
L 569.345933 -229.346183 
L 566.596377 -229.318848 
L 563.84682 -229.318848 
L 561.097264 -229.28337 
L 558.347708 -229.28337 
L 555.598152 -229.244402 
L 552.848595 -229.244402 
L 550.099039 -229.244402 
L 547.349483 -229.207761 
L 544.599927 -229.20718 
L 541.850371 -229.161233 
L 539.100814 -229.160651 
L 536.351258 -229.123429 
L 533.601702 -229.123429 
L 530.852146 -229.069921 
L 528.102589 -229.069921 
L 525.353033 -229.028627 
L 522.603477 -229.027464 
L 519.853921 -228.985007 
L 517.104364 -228.984425 
L 514.354808 -228.93906 
L 511.605252 -228.93906 
L 508.855696 -228.938478 
L 506.10614 -228.882063 
L 503.356583 -228.882063 
L 500.607027 -228.827392 
L 497.857471 -228.82681 
L 495.107915 -228.768068 
L 492.358358 -228.766905 
L 489.608802 -228.706418 
L 486.859246 -228.705837 
L 484.10969 -228.636044 
L 481.360134 -228.634881 
L 478.610577 -228.554038 
L 475.861021 -228.552875 
L 473.111465 -228.472032 
L 470.361909 -228.47145 
L 467.612352 -228.470287 
L 464.862796 -228.366762 
L 462.11324 -228.36618 
L 459.363684 -228.262654 
L 456.614128 -228.262073 
L 453.864571 -228.142844 
L 451.115015 -228.141681 
L 448.365459 -227.989882 
L 445.615903 -227.988719 
L 442.866346 -227.838083 
L 440.11679 -227.837502 
L 437.367234 -227.676979 
L 434.617678 -227.676979 
L 431.868121 -227.494355 
L 429.118565 -227.493774 
L 426.369009 -227.492029 
L 423.619453 -227.271019 
L 420.869897 -227.271019 
L 418.12034 -227.034888 
L 415.370784 -227.033725 
L 412.621228 -226.780727 
L 409.871672 -226.778982 
L 407.122115 -226.481782 
L 404.372559 -226.479456 
L 401.623003 -226.163645 
L 398.873447 -226.162482 
L 396.123891 -225.781531 
L 393.374334 -225.780949 
L 390.624778 -225.365684 
L 387.875222 -225.365684 
L 385.125666 -225.365684 
L 382.376109 -224.934715 
L 379.626553 -224.932971 
L 376.876997 -224.445586 
L 374.127441 -224.445005 
L 371.377885 -223.87038 
L 368.628328 -223.868053 
L 365.878772 -223.321927 
L 363.129216 -223.317856 
L 360.37966 -222.683326 
L 357.630103 -222.67751 
L 354.880547 -221.973769 
L 352.130991 -221.968534 
L 349.381435 -221.251416 
L 346.631879 -221.248508 
L 343.882322 -221.247927 
L 341.132766 -220.446476 
L 338.38321 -220.445313 
L 335.633654 -219.604313 
L 332.884097 -219.603732 
L 330.134541 -218.735397 
L 327.384985 -218.730744 
L 324.635429 -217.793198 
L 321.885872 -217.789127 
L 319.136316 -216.748055 
L 316.38676 -216.743984 
L 313.637204 -215.635447 
L 310.887648 -215.62963 
L 308.138091 -214.438505 
L 305.388535 -214.432107 
L 302.638979 -214.430944 
L 299.889423 -213.1677 
L 297.139866 -213.163629 
L 294.39031 -211.782319 
L 291.640754 -211.778829 
L 288.891198 -210.434161 
L 286.141642 -210.429508 
L 283.392085 -208.90396 
L 280.642529 -208.899307 
L 277.892973 -207.306875 
L 275.143417 -207.303967 
L 272.39386 -205.629529 
L 269.644304 -205.625457 
L 266.894748 -203.834698 
L 264.145192 -203.83179 
L 261.395636 -203.831208 
L 258.646079 -201.889814 
L 255.896523 -201.888069 
L 253.146967 -199.886769 
L 250.397411 -199.883861 
L 247.647854 -197.719712 
L 244.898298 -197.713896 
L 242.148742 -195.358399 
L 239.399186 -195.354909 
L 236.649629 -192.935436 
L 233.900073 -192.932528 
L 231.150517 -190.300769 
L 228.400961 -190.299024 
L 225.651405 -187.533497 
L 222.901848 -187.529425 
L 220.152292 -187.527099 
L 217.402736 -184.539398 
L 214.65318 -184.537072 
L 211.903623 -181.362095 
L 209.154067 -181.357442 
L 206.404511 -178.006239 
L 203.654955 -178.001586 
L 200.905399 -174.452056 
L 198.155842 -174.449148 
L 195.406286 -170.664068 
L 192.65673 -170.662905 
L 189.907174 -166.467212 
L 187.157617 -166.466049 
L 184.408061 -161.958617 
L 181.658505 -161.958617 
L 178.908949 -161.955709 
L 176.159393 -157.198769 
L 173.409836 -157.194116 
L 170.66028 -152.019002 
L 167.910724 -152.017257 
L 165.161168 -146.478059 
L 162.411611 -146.473988 
L 159.662055 -140.454385 
L 156.912499 -140.453803 
L 154.162943 -133.918899 
L 151.413386 -133.917736 
L 148.66383 -126.937904 
L 145.914274 -126.936159 
L 143.164718 -119.37705 
L 140.415162 -119.376468 
L 137.665605 -119.374142 
L 134.916049 -111.278212 
L 132.166493 -111.276467 
L 129.416937 -102.347099 
L 126.66738 -102.346517 
L 123.917824 -92.75412 
L 121.168268 -92.752375 
L 118.418712 -82.491133 
L 115.669156 -82.490551 
L 112.919599 -71.641889 
L 110.170043 -71.641889 
L 107.420487 -60.786829 
L 104.670931 -60.786247 
L 101.921374 -50.847213 
L 99.171818 -50.847213 
z
" id="mf22396c81a" style="stroke:#4c72b0;"/>
    </defs>
    <g clip-path="url(#paf329b77e1)">
     <use style="fill:#4c72b0;fill-opacity:0.75;stroke:#4c72b0;" x="0" xlink:href="#mf22396c81a" y="288"/>
    </g>
   </g>
   <g id="LineCollection_1">
    <path clip-path="url(#paf329b77e1)" d="M 156.676426 243.836 
L 156.676426 49.169976 
" style="fill:none;stroke:#4c72b0;stroke-dasharray:2,3.3;stroke-dashoffset:0;stroke-width:2;"/>
   </g>
   <g id="LineCollection_2">
    <path clip-path="url(#paf329b77e1)" d="M 292.099013 243.836 
L 292.099013 49.169976 
" style="fill:none;stroke:#4c72b0;stroke-dasharray:2,3.3;stroke-dashoffset:0;stroke-width:2;"/>
   </g>
   <g id="patch_3">
    <path d="M 70.164 243.836 
L 70.164 39.436675 
" style="fill:none;stroke:#cccccc;stroke-linecap:square;stroke-linejoin:miter;stroke-width:1.25;"/>
   </g>
   <g id="patch_4">
    <path d="M 708.336 243.836 
L 708.336 39.436675 
" style="fill:none;stroke:#cccccc;stroke-linecap:square;stroke-linejoin:miter;stroke-width:1.25;"/>
   </g>
   <g id="patch_5">
    <path d="M 70.164 243.836 
L 708.336 243.836 
" style="fill:none;stroke:#cccccc;stroke-linecap:square;stroke-linejoin:miter;stroke-width:1.25;"/>
   </g>
   <g id="patch_6">
    <path d="M 70.164 39.436675 
L 708.336 39.436675 
" style="fill:none;stroke:#cccccc;stroke-linecap:square;stroke-linejoin:miter;stroke-width:1.25;"/>
   </g>
   <g id="text_17">
    <!-- 0.1 -->
    <g style="fill:#262626;" transform="translate(162.564364 52.178789)scale(0.108 -0.108)">
     <use xlink:href="#DejaVuSansMono-48"/>
     <use x="60.205078" xlink:href="#DejaVuSansMono-46"/>
     <use x="120.410156" xlink:href="#DejaVuSansMono-49"/>
    </g>
   </g>
   <g id="text_18">
    <!-- 0.33 -->
    <g style="fill:#262626;" transform="translate(297.986952 52.178789)scale(0.108 -0.108)">
     <use xlink:href="#DejaVuSansMono-48"/>
     <use x="60.205078" xlink:href="#DejaVuSansMono-46"/>
     <use x="120.410156" xlink:href="#DejaVuSansMono-51"/>
     <use x="180.615234" xlink:href="#DejaVuSansMono-51"/>
    </g>
   </g>
   <g id="legend_1">
    <g id="patch_7">
     <path d="M 610.124906 76.52455 
L 701.406 76.52455 
Q 703.386 76.52455 703.386 74.54455 
L 703.386 46.366675 
Q 703.386 44.386675 701.406 44.386675 
L 610.124906 44.386675 
Q 608.144906 44.386675 608.144906 46.366675 
L 608.144906 74.54455 
Q 608.144906 76.52455 610.124906 76.52455 
z
" style="fill:#ffffff;opacity:0.8;stroke:#cccccc;stroke-linejoin:miter;"/>
    </g>
    <g id="line2d_15">
     <path d="M 612.104906 52.456722 
L 631.904906 52.456722 
" style="fill:none;stroke:#4c72b0;stroke-dasharray:2,3.3;stroke-dashoffset:0;stroke-width:2;"/>
    </g>
    <g id="text_19">
     <!-- 50th Perc. -->
     <g style="fill:#262626;" transform="translate(639.824906 55.921722)scale(0.099 -0.099)">
      <defs>
       <path d="M 51.3125 33.890625 
L 51.3125 0 
L 42.28125 0 
L 42.28125 33.890625 
Q 42.28125 41.265625 39.6875 44.71875 
Q 37.109375 48.1875 31.59375 48.1875 
Q 25.296875 48.1875 21.890625 43.71875 
Q 18.5 39.265625 18.5 30.90625 
L 18.5 0 
L 9.515625 0 
L 9.515625 75.984375 
L 18.5 75.984375 
L 18.5 46.484375 
Q 20.90625 51.171875 25 53.578125 
Q 29.109375 56 34.71875 56 
Q 43.0625 56 47.1875 50.5 
Q 51.3125 45.015625 51.3125 33.890625 
z
" id="DejaVuSansMono-104"/>
       <path d="M 19.484375 64.796875 
L 19.484375 37.40625 
L 30.90625 37.40625 
Q 37.75 37.40625 41.578125 41.015625 
Q 45.40625 44.625 45.40625 51.125 
Q 45.40625 57.625 41.59375 61.203125 
Q 37.796875 64.796875 30.90625 64.796875 
z
M 9.625 72.90625 
L 30.90625 72.90625 
Q 43.109375 72.90625 49.40625 67.359375 
Q 55.71875 61.8125 55.71875 51.125 
Q 55.71875 40.328125 49.4375 34.8125 
Q 43.171875 29.296875 30.90625 29.296875 
L 19.484375 29.296875 
L 19.484375 0 
L 9.625 0 
z
" id="DejaVuSansMono-80"/>
      </defs>
      <use xlink:href="#DejaVuSansMono-53"/>
      <use x="60.205078" xlink:href="#DejaVuSansMono-48"/>
      <use x="120.410156" xlink:href="#DejaVuSansMono-116"/>
      <use x="180.615234" xlink:href="#DejaVuSansMono-104"/>
      <use x="240.820312" xlink:href="#DejaVuSansMono-32"/>
      <use x="301.025391" xlink:href="#DejaVuSansMono-80"/>
      <use x="361.230469" xlink:href="#DejaVuSansMono-101"/>
      <use x="421.435547" xlink:href="#DejaVuSansMono-114"/>
      <use x="481.640625" xlink:href="#DejaVuSansMono-99"/>
      <use x="541.845703" xlink:href="#DejaVuSansMono-46"/>
     </g>
    </g>
    <g id="line2d_16">
     <path d="M 612.104906 67.040659 
L 631.904906 67.040659 
" style="fill:none;stroke:#4c72b0;stroke-dasharray:2,3.3;stroke-dashoffset:0;stroke-width:2;"/>
    </g>
    <g id="text_20">
     <!-- 90th Perc. -->
     <g style="fill:#262626;" transform="translate(639.824906 70.505659)scale(0.099 -0.099)">
      <defs>
       <path d="M 29.109375 32.328125 
Q 35.40625 32.328125 38.984375 36.859375 
Q 42.578125 41.40625 42.578125 49.421875 
Q 42.578125 57.421875 38.984375 61.953125 
Q 35.40625 66.5 29.109375 66.5 
Q 22.5625 66.5 19.234375 62.171875 
Q 15.921875 57.859375 15.921875 49.421875 
Q 15.921875 40.921875 19.21875 36.625 
Q 22.515625 32.328125 29.109375 32.328125 
z
M 11.53125 1.515625 
L 11.53125 10.59375 
Q 14.59375 8.796875 18.0625 7.84375 
Q 21.53125 6.890625 25.296875 6.890625 
Q 34.671875 6.890625 39.46875 13.9375 
Q 44.28125 21 44.28125 34.71875 
Q 42 29.828125 37.84375 27.21875 
Q 33.6875 24.609375 28.328125 24.609375 
Q 17.78125 24.609375 11.984375 31.09375 
Q 6.203125 37.59375 6.203125 49.515625 
Q 6.203125 61.28125 12.125 67.75 
Q 18.0625 74.21875 28.90625 74.21875 
Q 41.609375 74.21875 47.515625 65.078125 
Q 53.421875 55.953125 53.421875 36.375 
Q 53.421875 17.96875 46.3125 8.265625 
Q 39.203125 -1.421875 25.6875 -1.421875 
Q 22.125 -1.421875 18.5 -0.65625 
Q 14.890625 0.09375 11.53125 1.515625 
z
" id="DejaVuSansMono-57"/>
      </defs>
      <use xlink:href="#DejaVuSansMono-57"/>
      <use x="60.205078" xlink:href="#DejaVuSansMono-48"/>
      <use x="120.410156" xlink:href="#DejaVuSansMono-116"/>
      <use x="180.615234" xlink:href="#DejaVuSansMono-104"/>
      <use x="240.820312" xlink:href="#DejaVuSansMono-32"/>
      <use x="301.025391" xlink:href="#DejaVuSansMono-80"/>
      <use x="361.230469" xlink:href="#DejaVuSansMono-101"/>
      <use x="421.435547" xlink:href="#DejaVuSansMono-114"/>
      <use x="481.640625" xlink:href="#DejaVuSansMono-99"/>
      <use x="541.845703" xlink:href="#DejaVuSansMono-46"/>
     </g>
    </g>
   </g>
  </g>
  <g id="text_21">
   <!-- Botscore distribution -->
   <g style="fill:#262626;" transform="translate(278.075587 7.036425)scale(0.1296 -0.1296)">
    <defs>
     <path d="M 41.890625 47.703125 
L 41.890625 75.984375 
L 50.875 75.984375 
L 50.875 0 
L 41.890625 0 
L 41.890625 6.890625 
Q 39.65625 2.828125 35.90625 0.703125 
Q 32.171875 -1.421875 27.296875 -1.421875 
Q 17.390625 -1.421875 11.6875 6.265625 
Q 6 13.96875 6 27.484375 
Q 6 40.828125 11.71875 48.40625 
Q 17.4375 56 27.296875 56 
Q 32.234375 56 35.984375 53.875 
Q 39.75 51.765625 41.890625 47.703125 
z
M 15.484375 27.296875 
Q 15.484375 16.84375 18.796875 11.515625 
Q 22.125 6.203125 28.609375 6.203125 
Q 35.109375 6.203125 38.5 11.5625 
Q 41.890625 16.9375 41.890625 27.296875 
Q 41.890625 37.703125 38.5 43.046875 
Q 35.109375 48.390625 28.609375 48.390625 
Q 22.125 48.390625 18.796875 43.0625 
Q 15.484375 37.75 15.484375 27.296875 
z
" id="DejaVuSansMono-100"/>
    </defs>
    <use xlink:href="#DejaVuSansMono-66"/>
    <use x="60.205078" xlink:href="#DejaVuSansMono-111"/>
    <use x="120.410156" xlink:href="#DejaVuSansMono-116"/>
    <use x="180.615234" xlink:href="#DejaVuSansMono-115"/>
    <use x="240.820312" xlink:href="#DejaVuSansMono-99"/>
    <use x="301.025391" xlink:href="#DejaVuSansMono-111"/>
    <use x="361.230469" xlink:href="#DejaVuSansMono-114"/>
    <use x="421.435547" xlink:href="#DejaVuSansMono-101"/>
    <use x="481.640625" xlink:href="#DejaVuSansMono-32"/>
    <use x="541.845703" xlink:href="#DejaVuSansMono-100"/>
    <use x="602.050781" xlink:href="#DejaVuSansMono-105"/>
    <use x="662.255859" xlink:href="#DejaVuSansMono-115"/>
    <use x="722.460938" xlink:href="#DejaVuSansMono-116"/>
    <use x="782.666016" xlink:href="#DejaVuSansMono-114"/>
    <use x="842.871094" xlink:href="#DejaVuSansMono-105"/>
    <use x="903.076172" xlink:href="#DejaVuSansMono-98"/>
    <use x="963.28125" xlink:href="#DejaVuSansMono-117"/>
    <use x="1023.486328" xlink:href="#DejaVuSansMono-116"/>
    <use x="1083.691406" xlink:href="#DejaVuSansMono-105"/>
    <use x="1143.896484" xlink:href="#DejaVuSansMono-111"/>
    <use x="1204.101562" xlink:href="#DejaVuSansMono-110"/>
   </g>
  </g>
 </g>
 <defs>
  <clipPath id="paf329b77e1">
   <rect height="204.399325" width="638.172" x="70.164" y="39.436675"/>
  </clipPath>
 </defs>
</svg>
