<?xml version="1.0" encoding="utf-8" standalone="no"?>
<!DOCTYPE svg PUBLIC "-//W3C//DTD SVG 1.1//EN"
  "http://www.w3.org/Graphics/SVG/1.1/DTD/svg11.dtd">
<!-- Created with matplotlib (https://matplotlib.org/) -->
<svg height="288pt" version="1.1" viewBox="0 0 576 288" width="576pt" xmlns="http://www.w3.org/2000/svg" xmlns:xlink="http://www.w3.org/1999/xlink">
 <metadata>
  <rdf:RDF xmlns:cc="http://creativecommons.org/ns#" xmlns:dc="http://purl.org/dc/elements/1.1/" xmlns:rdf="http://www.w3.org/1999/02/22-rdf-syntax-ns#">
   <cc:Work>
    <dc:type rdf:resource="http://purl.org/dc/dcmitype/StillImage"/>
    <dc:date>2021-02-19T17:24:05.244839</dc:date>
    <dc:format>image/svg+xml</dc:format>
    <dc:creator>
     <cc:Agent>
      <dc:title>Matplotlib v3.3.2, https://matplotlib.org/</dc:title>
     </cc:Agent>
    </dc:creator>
   </cc:Work>
  </rdf:RDF>
 </metadata>
 <defs>
  <style type="text/css">*{stroke-linecap:butt;stroke-linejoin:round;}</style>
 </defs>
 <g id="figure_1">
  <g id="patch_1">
   <path d="M 0 288 
L 576 288 
L 576 0 
L 0 0 
z
" style="fill:#ffffff;"/>
  </g>
  <g id="axes_1">
   <g id="patch_2">
    <path d="M 77.394 223.356 
L 557.856 223.356 
L 557.856 33.144 
L 77.394 33.144 
z
" style="fill:#ffffff;"/>
   </g>
   <g id="matplotlib.axis_1">
    <g id="xtick_1">
     <g id="line2d_1">
      <path clip-path="url(#pfd592df33c)" d="M 98.482694 223.356 
L 98.482694 33.144 
" style="fill:none;stroke:#cccccc;stroke-linecap:round;"/>
     </g>
     <g id="text_1">
      <!-- 0.0 -->
      <g style="fill:#262626;" transform="translate(84.575773 244.639406)scale(0.154 -0.154)">
       <defs>
        <path d="M 23.578125 36.625 
Q 23.578125 39.3125 25.453125 41.265625 
Q 27.34375 43.21875 29.984375 43.21875 
Q 32.71875 43.21875 34.671875 41.265625 
Q 36.625 39.3125 36.625 36.625 
Q 36.625 33.890625 34.6875 31.984375 
Q 32.765625 30.078125 29.984375 30.078125 
Q 27.25 30.078125 25.40625 31.9375 
Q 23.578125 33.796875 23.578125 36.625 
z
M 30.078125 66.40625 
Q 23.1875 66.40625 19.796875 58.984375 
Q 16.40625 51.5625 16.40625 36.375 
Q 16.40625 21.234375 19.796875 13.8125 
Q 23.1875 6.390625 30.078125 6.390625 
Q 37.015625 6.390625 40.40625 13.8125 
Q 43.796875 21.234375 43.796875 36.375 
Q 43.796875 51.5625 40.40625 58.984375 
Q 37.015625 66.40625 30.078125 66.40625 
z
M 30.078125 74.21875 
Q 41.75 74.21875 47.734375 64.640625 
Q 53.71875 55.078125 53.71875 36.375 
Q 53.71875 17.71875 47.734375 8.140625 
Q 41.75 -1.421875 30.078125 -1.421875 
Q 18.40625 -1.421875 12.453125 8.140625 
Q 6.5 17.71875 6.5 36.375 
Q 6.5 55.078125 12.453125 64.640625 
Q 18.40625 74.21875 30.078125 74.21875 
z
" id="DejaVuSansMono-48"/>
        <path d="M 23.875 14.890625 
L 36.1875 14.890625 
L 36.1875 0 
L 23.875 0 
z
" id="DejaVuSansMono-46"/>
       </defs>
       <use xlink:href="#DejaVuSansMono-48"/>
       <use x="60.205078" xlink:href="#DejaVuSansMono-46"/>
       <use x="120.410156" xlink:href="#DejaVuSansMono-48"/>
      </g>
     </g>
    </g>
    <g id="xtick_2">
     <g id="line2d_2">
      <path clip-path="url(#pfd592df33c)" d="M 186.139617 223.356 
L 186.139617 33.144 
" style="fill:none;stroke:#cccccc;stroke-linecap:round;"/>
     </g>
     <g id="text_2">
      <!-- 0.2 -->
      <g style="fill:#262626;" transform="translate(172.232695 244.639406)scale(0.154 -0.154)">
       <defs>
        <path d="M 18.21875 8.296875 
L 51.703125 8.296875 
L 51.703125 0 
L 7.421875 0 
L 7.421875 8.296875 
Q 16.546875 17.921875 23.375 25.296875 
Q 30.21875 32.671875 32.8125 35.6875 
Q 37.703125 41.65625 39.40625 45.34375 
Q 41.109375 49.03125 41.109375 52.875 
Q 41.109375 58.984375 37.515625 62.453125 
Q 33.9375 65.921875 27.6875 65.921875 
Q 23.25 65.921875 18.359375 64.3125 
Q 13.484375 62.703125 8.015625 59.421875 
L 8.015625 69.390625 
Q 13.03125 71.78125 17.890625 73 
Q 22.75 74.21875 27.484375 74.21875 
Q 38.1875 74.21875 44.703125 68.53125 
Q 51.21875 62.84375 51.21875 53.609375 
Q 51.21875 48.921875 49.046875 44.234375 
Q 46.875 39.546875 42 33.890625 
Q 39.265625 30.71875 34.0625 25.09375 
Q 28.859375 19.484375 18.21875 8.296875 
z
" id="DejaVuSansMono-50"/>
       </defs>
       <use xlink:href="#DejaVuSansMono-48"/>
       <use x="60.205078" xlink:href="#DejaVuSansMono-46"/>
       <use x="120.410156" xlink:href="#DejaVuSansMono-50"/>
      </g>
     </g>
    </g>
    <g id="xtick_3">
     <g id="line2d_3">
      <path clip-path="url(#pfd592df33c)" d="M 273.796539 223.356 
L 273.796539 33.144 
" style="fill:none;stroke:#cccccc;stroke-linecap:round;"/>
     </g>
     <g id="text_3">
      <!-- 0.4 -->
      <g style="fill:#262626;" transform="translate(259.889617 244.639406)scale(0.154 -0.154)">
       <defs>
        <path d="M 35.890625 63.921875 
L 12.890625 25.390625 
L 35.890625 25.390625 
z
M 34.28125 72.90625 
L 45.703125 72.90625 
L 45.703125 25.390625 
L 55.421875 25.390625 
L 55.421875 17.390625 
L 45.703125 17.390625 
L 45.703125 0 
L 35.890625 0 
L 35.890625 17.390625 
L 4.984375 17.390625 
L 4.984375 26.703125 
z
" id="DejaVuSansMono-52"/>
       </defs>
       <use xlink:href="#DejaVuSansMono-48"/>
       <use x="60.205078" xlink:href="#DejaVuSansMono-46"/>
       <use x="120.410156" xlink:href="#DejaVuSansMono-52"/>
      </g>
     </g>
    </g>
    <g id="xtick_4">
     <g id="line2d_4">
      <path clip-path="url(#pfd592df33c)" d="M 361.453461 223.356 
L 361.453461 33.144 
" style="fill:none;stroke:#cccccc;stroke-linecap:round;"/>
     </g>
     <g id="text_4">
      <!-- 0.6 -->
      <g style="fill:#262626;" transform="translate(347.546539 244.639406)scale(0.154 -0.154)">
       <defs>
        <path d="M 48.390625 71.296875 
L 48.390625 62.203125 
Q 45.3125 64.015625 41.84375 64.96875 
Q 38.375 65.921875 34.625 65.921875 
Q 25.25 65.921875 20.40625 58.859375 
Q 15.578125 51.8125 15.578125 38.09375 
Q 17.921875 42.96875 22.0625 45.578125 
Q 26.21875 48.1875 31.59375 48.1875 
Q 42.140625 48.1875 47.921875 41.71875 
Q 53.71875 35.25 53.71875 23.390625 
Q 53.71875 11.578125 47.75 5.078125 
Q 41.796875 -1.421875 31 -1.421875 
Q 18.3125 -1.421875 12.40625 7.6875 
Q 6.5 16.796875 6.5 36.375 
Q 6.5 54.828125 13.59375 64.515625 
Q 20.703125 74.21875 34.1875 74.21875 
Q 37.796875 74.21875 41.40625 73.453125 
Q 45.015625 72.703125 48.390625 71.296875 
z
M 30.8125 40.484375 
Q 24.515625 40.484375 20.890625 35.9375 
Q 17.28125 31.390625 17.28125 23.390625 
Q 17.28125 15.375 20.890625 10.828125 
Q 24.515625 6.296875 30.8125 6.296875 
Q 37.359375 6.296875 40.671875 10.609375 
Q 44 14.9375 44 23.390625 
Q 44 31.890625 40.671875 36.1875 
Q 37.359375 40.484375 30.8125 40.484375 
z
" id="DejaVuSansMono-54"/>
       </defs>
       <use xlink:href="#DejaVuSansMono-48"/>
       <use x="60.205078" xlink:href="#DejaVuSansMono-46"/>
       <use x="120.410156" xlink:href="#DejaVuSansMono-54"/>
      </g>
     </g>
    </g>
    <g id="xtick_5">
     <g id="line2d_5">
      <path clip-path="url(#pfd592df33c)" d="M 449.110383 223.356 
L 449.110383 33.144 
" style="fill:none;stroke:#cccccc;stroke-linecap:round;"/>
     </g>
     <g id="text_5">
      <!-- 0.8 -->
      <g style="fill:#262626;" transform="translate(435.203461 244.639406)scale(0.154 -0.154)">
       <defs>
        <path d="M 30.078125 34.625 
Q 23.484375 34.625 19.890625 30.9375 
Q 16.3125 27.25 16.3125 20.515625 
Q 16.3125 13.765625 19.9375 10.03125 
Q 23.578125 6.296875 30.078125 6.296875 
Q 36.71875 6.296875 40.296875 9.984375 
Q 43.890625 13.671875 43.890625 20.515625 
Q 43.890625 27.203125 40.25 30.90625 
Q 36.625 34.625 30.078125 34.625 
z
M 21.484375 38.71875 
Q 15.1875 40.328125 11.640625 44.71875 
Q 8.109375 49.125 8.109375 55.328125 
Q 8.109375 64.015625 14.015625 69.109375 
Q 19.921875 74.21875 30.078125 74.21875 
Q 40.28125 74.21875 46.1875 69.109375 
Q 52.09375 64.015625 52.09375 55.328125 
Q 52.09375 49.125 48.546875 44.71875 
Q 45.015625 40.328125 38.71875 38.71875 
Q 46.046875 37.109375 49.921875 32.21875 
Q 53.8125 27.34375 53.8125 19.578125 
Q 53.8125 9.71875 47.515625 4.140625 
Q 41.21875 -1.421875 30.078125 -1.421875 
Q 18.953125 -1.421875 12.671875 4.125 
Q 6.390625 9.671875 6.390625 19.484375 
Q 6.390625 27.296875 10.265625 32.203125 
Q 14.15625 37.109375 21.484375 38.71875 
z
M 17.921875 54.390625 
Q 17.921875 48.53125 21.046875 45.453125 
Q 24.171875 42.390625 30.078125 42.390625 
Q 36.03125 42.390625 39.15625 45.453125 
Q 42.28125 48.53125 42.28125 54.390625 
Q 42.28125 60.359375 39.171875 63.484375 
Q 36.078125 66.609375 30.078125 66.609375 
Q 24.171875 66.609375 21.046875 63.453125 
Q 17.921875 60.296875 17.921875 54.390625 
z
" id="DejaVuSansMono-56"/>
       </defs>
       <use xlink:href="#DejaVuSansMono-48"/>
       <use x="60.205078" xlink:href="#DejaVuSansMono-46"/>
       <use x="120.410156" xlink:href="#DejaVuSansMono-56"/>
      </g>
     </g>
    </g>
    <g id="xtick_6">
     <g id="line2d_6">
      <path clip-path="url(#pfd592df33c)" d="M 536.767306 223.356 
L 536.767306 33.144 
" style="fill:none;stroke:#cccccc;stroke-linecap:round;"/>
     </g>
     <g id="text_6">
      <!-- 1.0 -->
      <g style="fill:#262626;" transform="translate(522.860384 244.639406)scale(0.154 -0.154)">
       <defs>
        <path d="M 13.1875 8.296875 
L 28.515625 8.296875 
L 28.515625 64.015625 
L 12.015625 60.296875 
L 12.015625 69.28125 
L 28.421875 72.90625 
L 38.28125 72.90625 
L 38.28125 8.296875 
L 53.421875 8.296875 
L 53.421875 0 
L 13.1875 0 
z
" id="DejaVuSansMono-49"/>
       </defs>
       <use xlink:href="#DejaVuSansMono-49"/>
       <use x="60.205078" xlink:href="#DejaVuSansMono-46"/>
       <use x="120.410156" xlink:href="#DejaVuSansMono-48"/>
      </g>
     </g>
    </g>
    <g id="text_7">
     <!-- User's Botscore -->
     <g style="fill:#262626;" transform="translate(241.769063 264.69675)scale(0.168 -0.168)">
      <defs>
       <path d="M 7.171875 27.984375 
L 7.171875 72.90625 
L 17.09375 72.90625 
L 17.09375 23.484375 
Q 17.09375 18.171875 17.375 15.890625 
Q 17.671875 13.625 18.40625 12.40625 
Q 19.96875 9.515625 22.921875 8.046875 
Q 25.875 6.59375 30.078125 6.59375 
Q 34.328125 6.59375 37.25 8.046875 
Q 40.1875 9.515625 41.796875 12.40625 
Q 42.53125 13.625 42.8125 15.859375 
Q 43.109375 18.109375 43.109375 23.390625 
L 43.109375 72.90625 
L 52.984375 72.90625 
L 52.984375 27.984375 
Q 52.984375 16.796875 51.59375 12.078125 
Q 50.203125 7.375 46.78125 4.296875 
Q 43.5625 1.421875 39.40625 0 
Q 35.25 -1.421875 30.078125 -1.421875 
Q 24.953125 -1.421875 20.796875 0 
Q 16.65625 1.421875 13.375 4.296875 
Q 10.015625 7.328125 8.59375 12.125 
Q 7.171875 16.9375 7.171875 27.984375 
z
" id="DejaVuSansMono-85"/>
       <path d="M 47.515625 52.78125 
L 47.515625 44 
Q 43.65625 46.234375 39.75 47.359375 
Q 35.84375 48.484375 31.78125 48.484375 
Q 25.6875 48.484375 22.671875 46.5 
Q 19.671875 44.53125 19.671875 40.484375 
Q 19.671875 36.8125 21.921875 35 
Q 24.171875 33.203125 33.109375 31.5 
L 36.71875 30.8125 
Q 43.40625 29.546875 46.84375 25.734375 
Q 50.296875 21.921875 50.296875 15.828125 
Q 50.296875 7.71875 44.53125 3.140625 
Q 38.765625 -1.421875 28.515625 -1.421875 
Q 24.46875 -1.421875 20.015625 -0.5625 
Q 15.578125 0.296875 10.40625 2 
L 10.40625 11.28125 
Q 15.4375 8.6875 20.015625 7.390625 
Q 24.609375 6.109375 28.71875 6.109375 
Q 34.671875 6.109375 37.9375 8.515625 
Q 41.21875 10.9375 41.21875 15.28125 
Q 41.21875 21.53125 29.25 23.921875 
L 28.859375 24.03125 
L 25.484375 24.703125 
Q 17.71875 26.21875 14.15625 29.8125 
Q 10.59375 33.40625 10.59375 39.59375 
Q 10.59375 47.46875 15.90625 51.734375 
Q 21.234375 56 31.109375 56 
Q 35.5 56 39.546875 55.1875 
Q 43.609375 54.390625 47.515625 52.78125 
z
" id="DejaVuSansMono-115"/>
       <path d="M 54.296875 29.59375 
L 54.296875 25.203125 
L 15.375 25.203125 
L 15.375 24.90625 
Q 15.375 15.96875 20.03125 11.078125 
Q 24.703125 6.203125 33.203125 6.203125 
Q 37.5 6.203125 42.1875 7.5625 
Q 46.875 8.9375 52.203125 11.71875 
L 52.203125 2.78125 
Q 47.078125 0.6875 42.3125 -0.359375 
Q 37.546875 -1.421875 33.109375 -1.421875 
Q 20.359375 -1.421875 13.171875 6.21875 
Q 6 13.875 6 27.296875 
Q 6 40.375 13.03125 48.1875 
Q 20.0625 56 31.78125 56 
Q 42.234375 56 48.265625 48.921875 
Q 54.296875 41.84375 54.296875 29.59375 
z
M 45.3125 32.234375 
Q 45.125 40.140625 41.578125 44.265625 
Q 38.03125 48.390625 31.390625 48.390625 
Q 24.90625 48.390625 20.703125 44.09375 
Q 16.5 39.796875 15.71875 32.171875 
z
" id="DejaVuSansMono-101"/>
       <path d="M 56.390625 43.40625 
Q 53.515625 45.65625 50.53125 46.671875 
Q 47.5625 47.703125 44 47.703125 
Q 35.59375 47.703125 31.140625 42.421875 
Q 26.703125 37.15625 26.703125 27.203125 
L 26.703125 0 
L 17.671875 0 
L 17.671875 54.6875 
L 26.703125 54.6875 
L 26.703125 44 
Q 28.953125 49.8125 33.609375 52.90625 
Q 38.28125 56 44.671875 56 
Q 48 56 50.875 55.171875 
Q 53.765625 54.34375 56.390625 52.59375 
z
" id="DejaVuSansMono-114"/>
       <path d="M 34.28125 72.90625 
L 34.28125 45.796875 
L 25.78125 45.796875 
L 25.78125 72.90625 
z
" id="DejaVuSansMono-39"/>
       <path id="DejaVuSansMono-32"/>
       <path d="M 18.015625 34.8125 
L 18.015625 8.109375 
L 29.6875 8.109375 
Q 38.28125 8.109375 41.9375 11.109375 
Q 45.609375 14.109375 45.609375 21 
Q 45.609375 28.125 41.75 31.46875 
Q 37.890625 34.8125 29.6875 34.8125 
z
M 18.015625 64.796875 
L 18.015625 42.828125 
L 29.5 42.828125 
Q 36.625 42.828125 39.8125 45.5625 
Q 43.015625 48.296875 43.015625 54.390625 
Q 43.015625 59.90625 39.859375 62.34375 
Q 36.71875 64.796875 29.5 64.796875 
z
M 8.109375 72.90625 
L 29.6875 72.90625 
Q 40.875 72.90625 46.921875 68.0625 
Q 52.984375 63.234375 52.984375 54.390625 
Q 52.984375 47.703125 49.78125 43.84375 
Q 46.578125 39.984375 40.1875 39.015625 
Q 47.359375 37.9375 51.4375 32.875 
Q 55.515625 27.828125 55.515625 20.015625 
Q 55.515625 10.109375 49.015625 5.046875 
Q 42.53125 0 29.6875 0 
L 8.109375 0 
z
" id="DejaVuSansMono-66"/>
       <path d="M 30.078125 48.390625 
Q 23.25 48.390625 19.734375 43.0625 
Q 16.21875 37.75 16.21875 27.296875 
Q 16.21875 16.890625 19.734375 11.546875 
Q 23.25 6.203125 30.078125 6.203125 
Q 36.96875 6.203125 40.484375 11.546875 
Q 44 16.890625 44 27.296875 
Q 44 37.75 40.484375 43.0625 
Q 36.96875 48.390625 30.078125 48.390625 
z
M 30.078125 56 
Q 41.453125 56 47.484375 48.625 
Q 53.515625 41.265625 53.515625 27.296875 
Q 53.515625 13.28125 47.5 5.921875 
Q 41.5 -1.421875 30.078125 -1.421875 
Q 18.703125 -1.421875 12.6875 5.921875 
Q 6.6875 13.28125 6.6875 27.296875 
Q 6.6875 41.265625 12.6875 48.625 
Q 18.703125 56 30.078125 56 
z
" id="DejaVuSansMono-111"/>
       <path d="M 29.984375 70.21875 
L 29.984375 54.6875 
L 50.390625 54.6875 
L 50.390625 47.703125 
L 29.984375 47.703125 
L 29.984375 18.015625 
Q 29.984375 11.96875 32.28125 9.5625 
Q 34.578125 7.171875 40.28125 7.171875 
L 50.390625 7.171875 
L 50.390625 0 
L 39.40625 0 
Q 29.296875 0 25.140625 4.046875 
Q 21 8.109375 21 18.015625 
L 21 47.703125 
L 6.390625 47.703125 
L 6.390625 54.6875 
L 21 54.6875 
L 21 70.21875 
z
" id="DejaVuSansMono-116"/>
       <path d="M 51.8125 2.78125 
Q 48.1875 0.6875 44.359375 -0.359375 
Q 40.53125 -1.421875 36.53125 -1.421875 
Q 23.828125 -1.421875 16.671875 6.1875 
Q 9.515625 13.8125 9.515625 27.296875 
Q 9.515625 40.765625 16.671875 48.375 
Q 23.828125 56 36.53125 56 
Q 40.484375 56 44.234375 54.96875 
Q 48 53.953125 51.8125 51.8125 
L 51.8125 42.390625 
Q 48.25 45.5625 44.65625 46.96875 
Q 41.0625 48.390625 36.53125 48.390625 
Q 28.078125 48.390625 23.53125 42.921875 
Q 19 37.453125 19 27.296875 
Q 19 17.1875 23.5625 11.6875 
Q 28.125 6.203125 36.53125 6.203125 
Q 41.21875 6.203125 44.921875 7.640625 
Q 48.640625 9.078125 51.8125 12.109375 
z
" id="DejaVuSansMono-99"/>
      </defs>
      <use xlink:href="#DejaVuSansMono-85"/>
      <use x="60.205078" xlink:href="#DejaVuSansMono-115"/>
      <use x="120.410156" xlink:href="#DejaVuSansMono-101"/>
      <use x="180.615234" xlink:href="#DejaVuSansMono-114"/>
      <use x="240.820312" xlink:href="#DejaVuSansMono-39"/>
      <use x="301.025391" xlink:href="#DejaVuSansMono-115"/>
      <use x="361.230469" xlink:href="#DejaVuSansMono-32"/>
      <use x="421.435547" xlink:href="#DejaVuSansMono-66"/>
      <use x="481.640625" xlink:href="#DejaVuSansMono-111"/>
      <use x="541.845703" xlink:href="#DejaVuSansMono-116"/>
      <use x="602.050781" xlink:href="#DejaVuSansMono-115"/>
      <use x="662.255859" xlink:href="#DejaVuSansMono-99"/>
      <use x="722.460938" xlink:href="#DejaVuSansMono-111"/>
      <use x="782.666016" xlink:href="#DejaVuSansMono-114"/>
      <use x="842.871094" xlink:href="#DejaVuSansMono-101"/>
     </g>
    </g>
   </g>
   <g id="matplotlib.axis_2">
    <g id="ytick_1">
     <g id="line2d_7">
      <path clip-path="url(#pfd592df33c)" d="M 77.394 223.356 
L 557.856 223.356 
" style="fill:none;stroke:#cccccc;stroke-linecap:round;"/>
     </g>
     <g id="text_8">
      <!-- 0.00 -->
      <g style="fill:#262626;" transform="translate(30.808875 229.247703)scale(0.154 -0.154)">
       <use xlink:href="#DejaVuSansMono-48"/>
       <use x="60.205078" xlink:href="#DejaVuSansMono-46"/>
       <use x="120.410156" xlink:href="#DejaVuSansMono-48"/>
       <use x="180.615234" xlink:href="#DejaVuSansMono-48"/>
      </g>
     </g>
    </g>
    <g id="ytick_2">
     <g id="line2d_8">
      <path clip-path="url(#pfd592df33c)" d="M 77.394 185.873046 
L 557.856 185.873046 
" style="fill:none;stroke:#cccccc;stroke-linecap:round;"/>
     </g>
     <g id="text_9">
      <!-- 0.25 -->
      <g style="fill:#262626;" transform="translate(30.808875 191.764749)scale(0.154 -0.154)">
       <defs>
        <path d="M 10.109375 72.90625 
L 47.015625 72.90625 
L 47.015625 64.59375 
L 19.09375 64.59375 
L 19.09375 46.6875 
Q 21.1875 47.46875 23.3125 47.828125 
Q 25.4375 48.1875 27.59375 48.1875 
Q 38.921875 48.1875 45.5625 41.5 
Q 52.203125 34.8125 52.203125 23.390625 
Q 52.203125 11.859375 45.234375 5.21875 
Q 38.28125 -1.421875 26.21875 -1.421875 
Q 20.40625 -1.421875 15.59375 -0.640625 
Q 10.796875 0.140625 6.984375 1.703125 
L 6.984375 11.71875 
Q 11.46875 9.28125 16.015625 8.078125 
Q 20.5625 6.890625 25.296875 6.890625 
Q 33.453125 6.890625 37.859375 11.1875 
Q 42.28125 15.484375 42.28125 23.390625 
Q 42.28125 31.203125 37.71875 35.546875 
Q 33.15625 39.890625 25 39.890625 
Q 21.046875 39.890625 17.28125 38.984375 
Q 13.53125 38.09375 10.109375 36.28125 
z
" id="DejaVuSansMono-53"/>
       </defs>
       <use xlink:href="#DejaVuSansMono-48"/>
       <use x="60.205078" xlink:href="#DejaVuSansMono-46"/>
       <use x="120.410156" xlink:href="#DejaVuSansMono-50"/>
       <use x="180.615234" xlink:href="#DejaVuSansMono-53"/>
      </g>
     </g>
    </g>
    <g id="ytick_3">
     <g id="line2d_9">
      <path clip-path="url(#pfd592df33c)" d="M 77.394 148.390092 
L 557.856 148.390092 
" style="fill:none;stroke:#cccccc;stroke-linecap:round;"/>
     </g>
     <g id="text_10">
      <!-- 0.50 -->
      <g style="fill:#262626;" transform="translate(30.808875 154.281795)scale(0.154 -0.154)">
       <use xlink:href="#DejaVuSansMono-48"/>
       <use x="60.205078" xlink:href="#DejaVuSansMono-46"/>
       <use x="120.410156" xlink:href="#DejaVuSansMono-53"/>
       <use x="180.615234" xlink:href="#DejaVuSansMono-48"/>
      </g>
     </g>
    </g>
    <g id="ytick_4">
     <g id="line2d_10">
      <path clip-path="url(#pfd592df33c)" d="M 77.394 110.907137 
L 557.856 110.907137 
" style="fill:none;stroke:#cccccc;stroke-linecap:round;"/>
     </g>
     <g id="text_11">
      <!-- 0.75 -->
      <g style="fill:#262626;" transform="translate(30.808875 116.79884)scale(0.154 -0.154)">
       <defs>
        <path d="M 6.78125 72.90625 
L 52.6875 72.90625 
L 52.6875 68.703125 
L 26.609375 0 
L 16.3125 0 
L 41.703125 64.59375 
L 6.78125 64.59375 
z
" id="DejaVuSansMono-55"/>
       </defs>
       <use xlink:href="#DejaVuSansMono-48"/>
       <use x="60.205078" xlink:href="#DejaVuSansMono-46"/>
       <use x="120.410156" xlink:href="#DejaVuSansMono-55"/>
       <use x="180.615234" xlink:href="#DejaVuSansMono-53"/>
      </g>
     </g>
    </g>
    <g id="ytick_5">
     <g id="line2d_11">
      <path clip-path="url(#pfd592df33c)" d="M 77.394 73.424183 
L 557.856 73.424183 
" style="fill:none;stroke:#cccccc;stroke-linecap:round;"/>
     </g>
     <g id="text_12">
      <!-- 1.00 -->
      <g style="fill:#262626;" transform="translate(30.808875 79.315886)scale(0.154 -0.154)">
       <use xlink:href="#DejaVuSansMono-49"/>
       <use x="60.205078" xlink:href="#DejaVuSansMono-46"/>
       <use x="120.410156" xlink:href="#DejaVuSansMono-48"/>
       <use x="180.615234" xlink:href="#DejaVuSansMono-48"/>
      </g>
     </g>
    </g>
    <g id="ytick_6">
     <g id="line2d_12">
      <path clip-path="url(#pfd592df33c)" d="M 77.394 35.941229 
L 557.856 35.941229 
" style="fill:none;stroke:#cccccc;stroke-linecap:round;"/>
     </g>
     <g id="text_13">
      <!-- 1.25 -->
      <g style="fill:#262626;" transform="translate(30.808875 41.832932)scale(0.154 -0.154)">
       <use xlink:href="#DejaVuSansMono-49"/>
       <use x="60.205078" xlink:href="#DejaVuSansMono-46"/>
       <use x="120.410156" xlink:href="#DejaVuSansMono-50"/>
       <use x="180.615234" xlink:href="#DejaVuSansMono-53"/>
      </g>
     </g>
    </g>
    <g id="text_14">
     <!-- Cumulative number of users -->
     <g style="fill:#262626;" transform="translate(23.315 259.733625)rotate(-90)scale(0.168 -0.168)">
      <defs>
       <path d="M 52.390625 2.59375 
Q 48.640625 0.59375 44.671875 -0.40625 
Q 40.71875 -1.421875 36.28125 -1.421875 
Q 22.265625 -1.421875 14.515625 8.484375 
Q 6.78125 18.40625 6.78125 36.375 
Q 6.78125 54.25 14.5625 64.234375 
Q 22.359375 74.21875 36.28125 74.21875 
Q 40.71875 74.21875 44.671875 73.21875 
Q 48.640625 72.21875 52.390625 70.21875 
L 52.390625 60.109375 
Q 48.78125 63.09375 44.625 64.65625 
Q 40.484375 66.21875 36.28125 66.21875 
Q 26.65625 66.21875 21.875 58.796875 
Q 17.09375 51.375 17.09375 36.375 
Q 17.09375 21.4375 21.875 14.015625 
Q 26.65625 6.59375 36.28125 6.59375 
Q 40.578125 6.59375 44.703125 8.15625 
Q 48.828125 9.71875 52.390625 12.703125 
z
" id="DejaVuSansMono-67"/>
       <path d="M 9.515625 20.703125 
L 9.515625 54.59375 
L 18.5 54.59375 
L 18.5 20.703125 
Q 18.5 13.328125 21.109375 9.859375 
Q 23.734375 6.390625 29.203125 6.390625 
Q 35.546875 6.390625 38.90625 10.859375 
Q 42.28125 15.328125 42.28125 23.6875 
L 42.28125 54.59375 
L 51.3125 54.59375 
L 51.3125 0 
L 42.28125 0 
L 42.28125 8.203125 
Q 39.890625 3.46875 35.765625 1.015625 
Q 31.640625 -1.421875 26.125 -1.421875 
Q 17.71875 -1.421875 13.609375 4.078125 
Q 9.515625 9.578125 9.515625 20.703125 
z
" id="DejaVuSansMono-117"/>
       <path d="M 33.015625 49.125 
Q 34.671875 52.640625 37.234375 54.3125 
Q 39.796875 56 43.40625 56 
Q 50 56 52.703125 50.890625 
Q 55.421875 45.796875 55.421875 31.6875 
L 55.421875 0 
L 47.21875 0 
L 47.21875 31.296875 
Q 47.21875 42.875 45.921875 45.671875 
Q 44.625 48.484375 41.21875 48.484375 
Q 37.3125 48.484375 35.859375 45.484375 
Q 34.421875 42.484375 34.421875 31.296875 
L 34.421875 0 
L 26.21875 0 
L 26.21875 31.296875 
Q 26.21875 43.015625 24.828125 45.75 
Q 23.4375 48.484375 19.828125 48.484375 
Q 16.265625 48.484375 14.875 45.484375 
Q 13.484375 42.484375 13.484375 31.296875 
L 13.484375 0 
L 5.328125 0 
L 5.328125 54.6875 
L 13.484375 54.6875 
L 13.484375 50 
Q 15.09375 52.9375 17.5 54.46875 
Q 19.921875 56 23 56 
Q 26.703125 56 29.171875 54.296875 
Q 31.640625 52.59375 33.015625 49.125 
z
" id="DejaVuSansMono-109"/>
       <path d="M 31.203125 19.828125 
Q 31.203125 13.765625 33.421875 10.6875 
Q 35.640625 7.625 39.984375 7.625 
L 50.484375 7.625 
L 50.484375 0 
L 39.109375 0 
Q 31.0625 0 26.640625 5.171875 
Q 22.21875 10.359375 22.21875 19.828125 
L 22.21875 69.484375 
L 7.8125 69.484375 
L 7.8125 76.515625 
L 31.203125 76.515625 
z
" id="DejaVuSansMono-108"/>
       <path d="M 34.28125 27.484375 
L 31.296875 27.484375 
Q 23.4375 27.484375 19.453125 24.71875 
Q 15.484375 21.96875 15.484375 16.5 
Q 15.484375 11.578125 18.453125 8.84375 
Q 21.4375 6.109375 26.703125 6.109375 
Q 34.125 6.109375 38.375 11.25 
Q 42.625 16.40625 42.671875 25.484375 
L 42.671875 27.484375 
z
M 51.703125 31.203125 
L 51.703125 0 
L 42.671875 0 
L 42.671875 8.109375 
Q 39.796875 3.21875 35.421875 0.890625 
Q 31.0625 -1.421875 24.8125 -1.421875 
Q 16.453125 -1.421875 11.46875 3.296875 
Q 6.5 8.015625 6.5 15.921875 
Q 6.5 25.046875 12.625 29.78125 
Q 18.75 34.515625 30.609375 34.515625 
L 42.671875 34.515625 
L 42.671875 35.9375 
Q 42.625 42.484375 39.34375 45.4375 
Q 36.078125 48.390625 28.90625 48.390625 
Q 24.3125 48.390625 19.625 47.0625 
Q 14.9375 45.75 10.5 43.21875 
L 10.5 52.203125 
Q 15.484375 54.109375 20.046875 55.046875 
Q 24.609375 56 28.90625 56 
Q 35.6875 56 40.5 54 
Q 45.3125 52 48.296875 48 
Q 50.140625 45.5625 50.921875 41.96875 
Q 51.703125 38.375 51.703125 31.203125 
z
" id="DejaVuSansMono-97"/>
       <path d="M 12.5 54.6875 
L 35.5 54.6875 
L 35.5 6.984375 
L 53.328125 6.984375 
L 53.328125 0 
L 8.6875 0 
L 8.6875 6.984375 
L 26.515625 6.984375 
L 26.515625 47.703125 
L 12.5 47.703125 
z
M 26.515625 75.984375 
L 35.5 75.984375 
L 35.5 64.59375 
L 26.515625 64.59375 
z
" id="DejaVuSansMono-105"/>
       <path d="M 4.890625 54.6875 
L 14.203125 54.6875 
L 30.078125 8.796875 
L 46 54.6875 
L 55.328125 54.6875 
L 35.890625 0 
L 24.3125 0 
z
" id="DejaVuSansMono-118"/>
       <path d="M 51.3125 33.890625 
L 51.3125 0 
L 42.28125 0 
L 42.28125 33.890625 
Q 42.28125 41.265625 39.6875 44.71875 
Q 37.109375 48.1875 31.59375 48.1875 
Q 25.296875 48.1875 21.890625 43.71875 
Q 18.5 39.265625 18.5 30.90625 
L 18.5 0 
L 9.515625 0 
L 9.515625 54.6875 
L 18.5 54.6875 
L 18.5 46.484375 
Q 20.90625 51.171875 25 53.578125 
Q 29.109375 56 34.71875 56 
Q 43.0625 56 47.1875 50.5 
Q 51.3125 45.015625 51.3125 33.890625 
z
" id="DejaVuSansMono-110"/>
       <path d="M 44.828125 27.296875 
Q 44.828125 37.75 41.5 43.0625 
Q 38.1875 48.390625 31.6875 48.390625 
Q 25.140625 48.390625 21.765625 43.046875 
Q 18.40625 37.703125 18.40625 27.296875 
Q 18.40625 16.9375 21.765625 11.5625 
Q 25.140625 6.203125 31.6875 6.203125 
Q 38.1875 6.203125 41.5 11.515625 
Q 44.828125 16.84375 44.828125 27.296875 
z
M 18.40625 47.703125 
Q 20.5625 51.703125 24.34375 53.84375 
Q 28.125 56 33.109375 56 
Q 42.96875 56 48.625 48.40625 
Q 54.296875 40.828125 54.296875 27.484375 
Q 54.296875 13.96875 48.609375 6.265625 
Q 42.921875 -1.421875 33.015625 -1.421875 
Q 28.125 -1.421875 24.390625 0.703125 
Q 20.65625 2.828125 18.40625 6.890625 
L 18.40625 0 
L 9.421875 0 
L 9.421875 75.984375 
L 18.40625 75.984375 
z
" id="DejaVuSansMono-98"/>
       <path d="M 51.90625 75.984375 
L 51.90625 68.5 
L 41.703125 68.5 
Q 36.859375 68.5 34.984375 66.515625 
Q 33.109375 64.546875 33.109375 59.515625 
L 33.109375 54.6875 
L 51.90625 54.6875 
L 51.90625 47.703125 
L 33.109375 47.703125 
L 33.109375 0 
L 24.125 0 
L 24.125 47.703125 
L 9.515625 47.703125 
L 9.515625 54.6875 
L 24.125 54.6875 
L 24.125 58.5 
Q 24.125 67.484375 28.25 71.734375 
Q 32.375 75.984375 41.109375 75.984375 
z
" id="DejaVuSansMono-102"/>
      </defs>
      <use xlink:href="#DejaVuSansMono-67"/>
      <use x="60.205078" xlink:href="#DejaVuSansMono-117"/>
      <use x="120.410156" xlink:href="#DejaVuSansMono-109"/>
      <use x="180.615234" xlink:href="#DejaVuSansMono-117"/>
      <use x="240.820312" xlink:href="#DejaVuSansMono-108"/>
      <use x="301.025391" xlink:href="#DejaVuSansMono-97"/>
      <use x="361.230469" xlink:href="#DejaVuSansMono-116"/>
      <use x="421.435547" xlink:href="#DejaVuSansMono-105"/>
      <use x="481.640625" xlink:href="#DejaVuSansMono-118"/>
      <use x="541.845703" xlink:href="#DejaVuSansMono-101"/>
      <use x="602.050781" xlink:href="#DejaVuSansMono-32"/>
      <use x="662.255859" xlink:href="#DejaVuSansMono-110"/>
      <use x="722.460938" xlink:href="#DejaVuSansMono-117"/>
      <use x="782.666016" xlink:href="#DejaVuSansMono-109"/>
      <use x="842.871094" xlink:href="#DejaVuSansMono-98"/>
      <use x="903.076172" xlink:href="#DejaVuSansMono-101"/>
      <use x="963.28125" xlink:href="#DejaVuSansMono-114"/>
      <use x="1023.486328" xlink:href="#DejaVuSansMono-32"/>
      <use x="1083.691406" xlink:href="#DejaVuSansMono-111"/>
      <use x="1143.896484" xlink:href="#DejaVuSansMono-102"/>
      <use x="1204.101562" xlink:href="#DejaVuSansMono-32"/>
      <use x="1264.306641" xlink:href="#DejaVuSansMono-117"/>
      <use x="1324.511719" xlink:href="#DejaVuSansMono-115"/>
      <use x="1384.716797" xlink:href="#DejaVuSansMono-101"/>
      <use x="1444.921875" xlink:href="#DejaVuSansMono-114"/>
      <use x="1505.126953" xlink:href="#DejaVuSansMono-115"/>
     </g>
    </g>
    <g id="text_15">
     <!-- 1e6 -->
     <g style="fill:#262626;" transform="translate(77.394 30.144)scale(0.154 -0.154)">
      <use xlink:href="#DejaVuSansMono-49"/>
      <use x="60.205078" xlink:href="#DejaVuSansMono-101"/>
      <use x="120.410156" xlink:href="#DejaVuSansMono-54"/>
     </g>
    </g>
   </g>
   <g id="PolyCollection_1">
    <defs>
     <path d="M 99.233182 -72.286624 
L 99.233182 -64.644 
L 100.734157 -64.644 
L 102.235131 -64.644 
L 103.736106 -64.644 
L 105.237081 -64.644 
L 106.738055 -64.644 
L 108.23903 -64.644 
L 109.740005 -64.644 
L 111.240979 -64.644 
L 112.741954 -64.644 
L 114.242929 -64.644 
L 115.743903 -64.644 
L 117.244878 -64.644 
L 118.745853 -64.644 
L 120.246828 -64.644 
L 121.747802 -64.644 
L 123.248777 -64.644 
L 124.749752 -64.644 
L 126.250726 -64.644 
L 127.751701 -64.644 
L 129.252676 -64.644 
L 130.75365 -64.644 
L 132.254625 -64.644 
L 133.7556 -64.644 
L 135.256575 -64.644 
L 136.757549 -64.644 
L 138.258524 -64.644 
L 139.759499 -64.644 
L 141.260473 -64.644 
L 142.761448 -64.644 
L 144.262423 -64.644 
L 145.763397 -64.644 
L 147.264372 -64.644 
L 148.765347 -64.644 
L 150.266321 -64.644 
L 151.767296 -64.644 
L 153.268271 -64.644 
L 154.769246 -64.644 
L 156.27022 -64.644 
L 157.771195 -64.644 
L 159.27217 -64.644 
L 160.773144 -64.644 
L 162.274119 -64.644 
L 163.775094 -64.644 
L 165.276068 -64.644 
L 166.777043 -64.644 
L 168.278018 -64.644 
L 169.778993 -64.644 
L 171.279967 -64.644 
L 172.780942 -64.644 
L 174.281917 -64.644 
L 175.782891 -64.644 
L 177.283866 -64.644 
L 178.784841 -64.644 
L 180.285815 -64.644 
L 181.78679 -64.644 
L 183.287765 -64.644 
L 184.788739 -64.644 
L 186.289714 -64.644 
L 187.790689 -64.644 
L 189.291664 -64.644 
L 190.792638 -64.644 
L 192.293613 -64.644 
L 193.794588 -64.644 
L 195.295562 -64.644 
L 196.796537 -64.644 
L 198.297512 -64.644 
L 199.798486 -64.644 
L 201.299461 -64.644 
L 202.800436 -64.644 
L 204.30141 -64.644 
L 205.802385 -64.644 
L 207.30336 -64.644 
L 208.804335 -64.644 
L 210.305309 -64.644 
L 211.806284 -64.644 
L 213.307259 -64.644 
L 214.808233 -64.644 
L 216.309208 -64.644 
L 217.810183 -64.644 
L 219.311157 -64.644 
L 220.812132 -64.644 
L 222.313107 -64.644 
L 223.814082 -64.644 
L 225.315056 -64.644 
L 226.816031 -64.644 
L 228.317006 -64.644 
L 229.81798 -64.644 
L 231.318955 -64.644 
L 232.81993 -64.644 
L 234.320904 -64.644 
L 235.821879 -64.644 
L 237.322854 -64.644 
L 238.823828 -64.644 
L 240.324803 -64.644 
L 241.825778 -64.644 
L 243.326753 -64.644 
L 244.827727 -64.644 
L 246.328702 -64.644 
L 247.829677 -64.644 
L 249.330651 -64.644 
L 250.831626 -64.644 
L 252.332601 -64.644 
L 253.833575 -64.644 
L 255.33455 -64.644 
L 256.835525 -64.644 
L 258.3365 -64.644 
L 259.837474 -64.644 
L 261.338449 -64.644 
L 262.839424 -64.644 
L 264.340398 -64.644 
L 265.841373 -64.644 
L 267.342348 -64.644 
L 268.843322 -64.644 
L 270.344297 -64.644 
L 271.845272 -64.644 
L 273.346246 -64.644 
L 274.847221 -64.644 
L 276.348196 -64.644 
L 277.849171 -64.644 
L 279.350145 -64.644 
L 280.85112 -64.644 
L 282.352095 -64.644 
L 283.853069 -64.644 
L 285.354044 -64.644 
L 286.855019 -64.644 
L 288.355993 -64.644 
L 289.856968 -64.644 
L 291.357943 -64.644 
L 292.858918 -64.644 
L 294.359892 -64.644 
L 295.860867 -64.644 
L 297.361842 -64.644 
L 298.862816 -64.644 
L 300.363791 -64.644 
L 301.864766 -64.644 
L 303.36574 -64.644 
L 304.866715 -64.644 
L 306.36769 -64.644 
L 307.868664 -64.644 
L 309.369639 -64.644 
L 310.870614 -64.644 
L 312.371589 -64.644 
L 313.872563 -64.644 
L 315.373538 -64.644 
L 316.874513 -64.644 
L 318.375487 -64.644 
L 319.876462 -64.644 
L 321.377437 -64.644 
L 322.878411 -64.644 
L 324.379386 -64.644 
L 325.880361 -64.644 
L 327.381336 -64.644 
L 328.88231 -64.644 
L 330.383285 -64.644 
L 331.88426 -64.644 
L 333.385234 -64.644 
L 334.886209 -64.644 
L 336.387184 -64.644 
L 337.888158 -64.644 
L 339.389133 -64.644 
L 340.890108 -64.644 
L 342.391082 -64.644 
L 343.892057 -64.644 
L 345.393032 -64.644 
L 346.894007 -64.644 
L 348.394981 -64.644 
L 349.895956 -64.644 
L 351.396931 -64.644 
L 352.897905 -64.644 
L 354.39888 -64.644 
L 355.899855 -64.644 
L 357.400829 -64.644 
L 358.901804 -64.644 
L 360.402779 -64.644 
L 361.903754 -64.644 
L 363.404728 -64.644 
L 364.905703 -64.644 
L 366.406678 -64.644 
L 367.907652 -64.644 
L 369.408627 -64.644 
L 370.909602 -64.644 
L 372.410576 -64.644 
L 373.911551 -64.644 
L 375.412526 -64.644 
L 376.9135 -64.644 
L 378.414475 -64.644 
L 379.91545 -64.644 
L 381.416425 -64.644 
L 382.917399 -64.644 
L 384.418374 -64.644 
L 385.919349 -64.644 
L 387.420323 -64.644 
L 388.921298 -64.644 
L 390.422273 -64.644 
L 391.923247 -64.644 
L 393.424222 -64.644 
L 394.925197 -64.644 
L 396.426172 -64.644 
L 397.927146 -64.644 
L 399.428121 -64.644 
L 400.929096 -64.644 
L 402.43007 -64.644 
L 403.931045 -64.644 
L 405.43202 -64.644 
L 406.932994 -64.644 
L 408.433969 -64.644 
L 409.934944 -64.644 
L 411.435918 -64.644 
L 412.936893 -64.644 
L 414.437868 -64.644 
L 415.938843 -64.644 
L 417.439817 -64.644 
L 418.940792 -64.644 
L 420.441767 -64.644 
L 421.942741 -64.644 
L 423.443716 -64.644 
L 424.944691 -64.644 
L 426.445665 -64.644 
L 427.94664 -64.644 
L 429.447615 -64.644 
L 430.94859 -64.644 
L 432.449564 -64.644 
L 433.950539 -64.644 
L 435.451514 -64.644 
L 436.952488 -64.644 
L 438.453463 -64.644 
L 439.954438 -64.644 
L 441.455412 -64.644 
L 442.956387 -64.644 
L 444.457362 -64.644 
L 445.958336 -64.644 
L 447.459311 -64.644 
L 448.960286 -64.644 
L 450.461261 -64.644 
L 451.962235 -64.644 
L 453.46321 -64.644 
L 454.964185 -64.644 
L 456.465159 -64.644 
L 457.966134 -64.644 
L 459.467109 -64.644 
L 460.968083 -64.644 
L 462.469058 -64.644 
L 463.970033 -64.644 
L 465.471007 -64.644 
L 466.971982 -64.644 
L 468.472957 -64.644 
L 469.973932 -64.644 
L 471.474906 -64.644 
L 472.975881 -64.644 
L 474.476856 -64.644 
L 475.97783 -64.644 
L 477.478805 -64.644 
L 478.97978 -64.644 
L 480.480754 -64.644 
L 481.981729 -64.644 
L 483.482704 -64.644 
L 484.983679 -64.644 
L 486.484653 -64.644 
L 487.985628 -64.644 
L 489.486603 -64.644 
L 490.987577 -64.644 
L 492.488552 -64.644 
L 493.989527 -64.644 
L 495.490501 -64.644 
L 496.991476 -64.644 
L 498.492451 -64.644 
L 499.993425 -64.644 
L 501.4944 -64.644 
L 502.995375 -64.644 
L 504.49635 -64.644 
L 505.997324 -64.644 
L 507.498299 -64.644 
L 508.999274 -64.644 
L 510.500248 -64.644 
L 512.001223 -64.644 
L 513.502198 -64.644 
L 515.003172 -64.644 
L 516.504147 -64.644 
L 518.005122 -64.644 
L 519.506097 -64.644 
L 521.007071 -64.644 
L 522.508046 -64.644 
L 524.009021 -64.644 
L 525.509995 -64.644 
L 527.01097 -64.644 
L 528.511945 -64.644 
L 530.012919 -64.644 
L 531.513894 -64.644 
L 533.014869 -64.644 
L 534.515843 -64.644 
L 536.016818 -64.644 
L 536.016818 -237.171891 
L 536.016818 -237.171891 
L 534.515843 -237.171141 
L 533.014869 -237.171141 
L 531.513894 -237.169192 
L 530.012919 -237.169192 
L 528.511945 -237.169192 
L 527.01097 -237.166943 
L 525.509995 -237.166943 
L 524.009021 -237.166943 
L 522.508046 -237.163795 
L 521.007071 -237.163795 
L 519.506097 -237.163795 
L 518.005122 -237.158697 
L 516.504147 -237.158697 
L 515.003172 -237.158697 
L 513.502198 -237.15285 
L 512.001223 -237.15285 
L 510.500248 -237.15285 
L 508.999274 -237.145503 
L 507.498299 -237.145503 
L 505.997324 -237.145503 
L 504.49635 -237.134858 
L 502.995375 -237.134858 
L 501.4944 -237.134858 
L 499.993425 -237.125262 
L 498.492451 -237.125262 
L 496.991476 -237.125262 
L 495.490501 -237.113418 
L 493.989527 -237.113418 
L 492.488552 -237.113418 
L 490.987577 -237.098874 
L 489.486603 -237.098874 
L 487.985628 -237.098874 
L 486.484653 -237.078334 
L 484.983679 -237.078334 
L 483.482704 -237.078334 
L 481.981729 -237.059442 
L 480.480754 -237.059442 
L 478.97978 -237.039052 
L 477.478805 -237.039052 
L 475.97783 -237.039052 
L 474.476856 -237.016112 
L 472.975881 -237.016112 
L 471.474906 -237.016112 
L 469.973932 -236.982977 
L 468.472957 -236.982977 
L 466.971982 -236.982977 
L 465.471007 -236.951641 
L 463.970033 -236.951641 
L 462.469058 -236.951641 
L 460.968083 -236.917007 
L 459.467109 -236.917007 
L 457.966134 -236.916557 
L 456.465159 -236.871428 
L 454.964185 -236.871428 
L 453.46321 -236.871278 
L 451.962235 -236.824199 
L 450.461261 -236.824049 
L 448.960286 -236.824049 
L 447.459311 -236.780269 
L 445.958336 -236.780269 
L 444.457362 -236.780119 
L 442.956387 -236.723145 
L 441.455412 -236.723145 
L 439.954438 -236.723145 
L 438.453463 -236.662273 
L 436.952488 -236.662273 
L 435.451514 -236.662123 
L 433.950539 -236.6038 
L 432.449564 -236.6035 
L 430.94859 -236.6035 
L 429.447615 -236.540678 
L 427.94664 -236.540528 
L 426.445665 -236.475908 
L 424.944691 -236.475608 
L 423.443716 -236.475608 
L 421.942741 -236.402141 
L 420.441767 -236.402141 
L 418.940792 -236.402141 
L 417.439817 -236.331223 
L 415.938843 -236.330924 
L 414.437868 -236.330924 
L 412.936893 -236.255658 
L 411.435918 -236.255508 
L 409.934944 -236.255058 
L 408.433969 -236.18504 
L 406.932994 -236.18489 
L 405.43202 -236.18474 
L 403.931045 -236.100328 
L 402.43007 -236.100029 
L 400.929096 -236.100029 
L 399.428121 -236.012618 
L 397.927146 -236.012318 
L 396.426172 -236.012169 
L 394.925197 -235.922509 
L 393.424222 -235.922359 
L 391.923247 -235.92191 
L 390.422273 -235.826103 
L 388.921298 -235.825503 
L 387.420323 -235.825204 
L 385.919349 -235.7231 
L 384.418374 -235.72265 
L 382.917399 -235.72265 
L 381.416425 -235.609752 
L 379.91545 -235.609302 
L 378.414475 -235.609302 
L 376.9135 -235.488457 
L 375.412526 -235.488307 
L 373.911551 -235.488157 
L 372.410576 -235.354268 
L 370.909602 -235.354118 
L 369.408627 -235.203286 
L 367.907652 -235.202837 
L 366.406678 -235.202387 
L 364.905703 -235.044808 
L 363.404728 -235.044359 
L 361.903754 -235.044209 
L 360.402779 -234.851696 
L 358.901804 -234.851696 
L 357.400829 -234.851097 
L 355.899855 -234.650038 
L 354.39888 -234.649588 
L 352.897905 -234.649438 
L 351.396931 -234.413446 
L 349.895956 -234.413296 
L 348.394981 -234.413146 
L 346.894007 -234.13952 
L 345.393032 -234.13937 
L 343.892057 -234.138621 
L 342.391082 -233.842805 
L 340.890108 -233.842355 
L 339.389133 -233.842205 
L 337.888158 -233.525399 
L 336.387184 -233.5248 
L 334.886209 -233.5245 
L 333.385234 -233.165563 
L 331.88426 -233.165263 
L 330.383285 -233.164963 
L 328.88231 -232.758798 
L 327.381336 -232.758048 
L 325.880361 -232.757749 
L 324.379386 -232.301506 
L 322.878411 -232.300606 
L 321.377437 -232.300307 
L 319.876462 -231.800734 
L 318.375487 -231.800134 
L 316.874513 -231.23684 
L 315.373538 -231.23639 
L 313.872563 -231.23624 
L 312.371589 -230.656454 
L 310.870614 -230.655704 
L 309.369639 -230.655105 
L 307.868664 -229.995105 
L 306.36769 -229.993606 
L 304.866715 -229.993456 
L 303.36574 -229.256241 
L 301.864766 -229.255191 
L 300.363791 -229.254592 
L 298.862816 -228.487091 
L 297.361842 -228.486041 
L 295.860867 -228.485591 
L 294.359892 -227.642075 
L 292.858918 -227.640426 
L 291.357943 -227.639676 
L 289.856968 -226.743384 
L 288.355993 -226.741285 
L 286.855019 -226.741135 
L 285.354044 -225.78427 
L 283.853069 -225.78337 
L 282.352095 -225.78292 
L 280.85112 -224.774029 
L 279.350145 -224.77313 
L 277.849171 -224.77268 
L 276.348196 -223.692571 
L 274.847221 -223.690622 
L 273.346246 -223.690172 
L 271.845272 -222.554289 
L 270.344297 -222.552789 
L 268.843322 -222.55189 
L 267.342348 -221.369827 
L 265.841373 -221.368178 
L 264.340398 -221.366829 
L 262.839424 -220.096007 
L 261.338449 -220.094657 
L 259.837474 -218.803145 
L 258.3365 -218.800896 
L 256.835525 -218.800296 
L 255.33455 -217.465153 
L 253.833575 -217.463354 
L 252.332601 -217.462754 
L 250.831626 -216.068988 
L 249.330651 -216.067339 
L 247.829677 -216.065539 
L 246.328702 -214.619897 
L 244.827727 -214.619147 
L 243.326753 -214.617948 
L 241.825778 -213.143518 
L 240.324803 -213.142169 
L 238.823828 -213.141119 
L 237.322854 -211.595622 
L 235.821879 -211.594723 
L 234.320904 -211.593223 
L 232.81993 -210.024487 
L 231.318955 -210.023437 
L 229.81798 -210.022538 
L 228.317006 -208.376286 
L 226.816031 -208.374337 
L 225.315056 -208.372988 
L 223.814082 -206.60904 
L 222.313107 -206.607391 
L 220.812132 -206.606791 
L 219.311157 -204.817505 
L 217.810183 -204.815855 
L 216.309208 -204.815106 
L 214.808233 -202.931962 
L 213.307259 -202.929713 
L 211.806284 -202.928814 
L 210.305309 -200.974152 
L 208.804335 -200.972953 
L 207.30336 -198.899696 
L 205.802385 -198.899096 
L 204.30141 -198.898047 
L 202.800436 -196.763917 
L 201.299461 -196.763167 
L 199.798486 -196.761968 
L 198.297512 -194.500396 
L 196.796537 -194.500396 
L 195.295562 -194.499047 
L 193.794588 -192.129825 
L 192.293613 -192.129675 
L 190.792638 -192.127126 
L 189.291664 -189.56734 
L 187.790689 -189.56674 
L 186.289714 -189.565241 
L 184.788739 -186.88416 
L 183.287765 -186.88371 
L 181.78679 -186.881761 
L 180.285815 -184.054647 
L 178.784841 -184.053747 
L 177.283866 -184.052548 
L 175.782891 -181.033071 
L 174.281917 -181.032321 
L 172.780942 -181.031272 
L 171.279967 -177.786597 
L 169.778993 -177.786297 
L 168.278018 -177.784498 
L 166.777043 -174.32737 
L 165.276068 -174.326621 
L 163.775094 -174.326321 
L 162.274119 -170.670833 
L 160.773144 -170.670233 
L 159.27217 -170.669184 
L 157.771195 -166.72073 
L 156.27022 -166.72028 
L 154.769246 -166.718481 
L 153.268271 -162.479158 
L 151.767296 -162.478859 
L 150.266321 -157.890645 
L 148.765347 -157.890645 
L 147.264372 -157.889746 
L 145.763397 -152.929401 
L 144.262423 -152.929401 
L 142.761448 -152.928952 
L 141.260473 -147.61012 
L 139.759499 -147.60997 
L 138.258524 -147.609371 
L 136.757549 -141.823802 
L 135.256575 -141.823652 
L 133.7556 -141.822302 
L 132.254625 -135.502226 
L 130.75365 -135.502077 
L 129.252676 -135.501027 
L 127.751701 -128.693973 
L 126.250726 -128.693973 
L 124.749752 -128.692623 
L 123.248777 -121.100076 
L 121.747802 -121.099626 
L 120.246828 -121.099026 
L 118.745853 -112.77991 
L 117.244878 -112.77976 
L 115.743903 -112.77856 
L 114.242929 -103.536313 
L 112.741954 -103.536313 
L 111.240979 -103.535264 
L 109.740005 -93.435857 
L 108.23903 -93.435857 
L 106.738055 -93.435557 
L 105.237081 -82.71858 
L 103.736106 -82.71843 
L 102.235131 -82.717981 
L 100.734157 -72.286624 
L 99.233182 -72.286624 
z
" id="mb11a46d487" style="stroke:#4c72b0;"/>
    </defs>
    <g clip-path="url(#pfd592df33c)">
     <use style="fill:#4c72b0;fill-opacity:0.75;stroke:#4c72b0;" x="0" xlink:href="#mb11a46d487" y="288"/>
    </g>
   </g>
   <g id="LineCollection_1">
    <path clip-path="url(#pfd592df33c)" d="M 181.756771 223.356 
L 181.756771 42.201714 
" style="fill:none;stroke:#008000;stroke-dasharray:3,4.95;stroke-dashoffset:0;stroke-width:3;"/>
   </g>
   <g id="LineCollection_2">
    <path clip-path="url(#pfd592df33c)" d="M 260.648001 223.356 
L 260.648001 42.201714 
" style="fill:none;stroke:#ff4500;stroke-dasharray:3,4.95;stroke-dashoffset:0;stroke-width:3;"/>
   </g>
   <g id="patch_3">
    <path d="M 77.394 223.356 
L 77.394 33.144 
" style="fill:none;stroke:#cccccc;stroke-linecap:square;stroke-linejoin:miter;stroke-width:1.25;"/>
   </g>
   <g id="patch_4">
    <path d="M 557.856 223.356 
L 557.856 33.144 
" style="fill:none;stroke:#cccccc;stroke-linecap:square;stroke-linejoin:miter;stroke-width:1.25;"/>
   </g>
   <g id="patch_5">
    <path d="M 77.394 223.356 
L 557.856 223.356 
" style="fill:none;stroke:#cccccc;stroke-linecap:square;stroke-linejoin:miter;stroke-width:1.25;"/>
   </g>
   <g id="patch_6">
    <path d="M 77.394 33.144 
L 557.856 33.144 
" style="fill:none;stroke:#cccccc;stroke-linecap:square;stroke-linejoin:miter;stroke-width:1.25;"/>
   </g>
   <g id="text_16">
    <!-- 0.19 -->
    <g style="fill:#262626;" transform="translate(133.545463 209.920946)scale(0.168 -0.168)">
     <defs>
      <path d="M 23.484375 36.625 
Q 23.484375 39.3125 25.4375 41.265625 
Q 27.390625 43.21875 30.078125 43.21875 
Q 32.765625 43.21875 34.6875 41.265625 
Q 36.625 39.3125 36.625 36.625 
Q 36.625 33.890625 34.71875 31.984375 
Q 32.8125 30.078125 30.078125 30.078125 
Q 27.390625 30.078125 25.4375 32 
Q 23.484375 33.9375 23.484375 36.625 
z
M 55.421875 49.8125 
Q 55.421875 40.484375 52.609375 29.65625 
Q 49.8125 18.84375 45.703125 12.109375 
Q 41.609375 5.21875 36.15625 1.890625 
Q 30.71875 -1.421875 23.484375 -1.421875 
Q 13.96875 -1.421875 9.375 4.578125 
Q 4.78125 10.59375 4.78125 23.09375 
Q 4.78125 32.46875 7.5625 43.1875 
Q 10.359375 53.90625 14.5 60.796875 
Q 18.65625 67.671875 24.046875 70.9375 
Q 29.4375 74.21875 36.625 74.21875 
Q 46.140625 74.21875 50.78125 68.203125 
Q 55.421875 62.203125 55.421875 49.8125 
z
M 24.703125 6.59375 
Q 28.609375 6.59375 31.953125 9.109375 
Q 35.296875 11.625 37.59375 16.3125 
Q 40.96875 23.140625 43.234375 33.21875 
Q 45.515625 43.3125 45.515625 51.90625 
Q 45.515625 59.421875 43.109375 62.8125 
Q 40.71875 66.21875 35.5 66.21875 
Q 31.59375 66.21875 28.21875 63.71875 
Q 24.859375 61.234375 22.515625 56.59375 
Q 19.09375 49.8125 16.84375 39.625 
Q 14.59375 29.4375 14.59375 20.21875 
Q 14.59375 13.328125 17.109375 9.953125 
Q 19.625 6.59375 24.703125 6.59375 
z
" id="DejaVuSansMono-Oblique-48"/>
      <path d="M 20.21875 14.796875 
L 32.515625 14.796875 
L 29.59375 0 
L 17.28125 0 
z
" id="DejaVuSansMono-Oblique-46"/>
      <path d="M 7.625 8.296875 
L 22.90625 8.296875 
L 33.6875 64.015625 
L 16.5 60.296875 
L 18.21875 69.28125 
L 35.40625 72.90625 
L 45.3125 72.90625 
L 32.71875 8.296875 
L 47.796875 8.296875 
L 46.1875 0 
L 6 0 
z
" id="DejaVuSansMono-Oblique-49"/>
      <path d="M 16.109375 43.796875 
Q 16.109375 38.28125 18.9375 35.296875 
Q 21.78125 32.328125 27 32.328125 
Q 34.125 32.328125 38.953125 38.46875 
Q 43.796875 44.625 43.796875 53.90625 
Q 43.796875 59.859375 40.859375 63.171875 
Q 37.9375 66.5 32.71875 66.5 
Q 25.6875 66.5 20.890625 59.953125 
Q 16.109375 53.421875 16.109375 43.796875 
z
M 3.078125 1.515625 
L 4.78125 10.59375 
Q 7.625 8.796875 10.9375 7.84375 
Q 14.265625 6.890625 17.921875 6.890625 
Q 27.34375 6.890625 33.46875 13.890625 
Q 39.59375 20.90625 42.28125 34.71875 
Q 38.96875 29.734375 34.390625 27.171875 
Q 29.828125 24.609375 24.3125 24.609375 
Q 15.625 24.609375 10.90625 29.484375 
Q 6.203125 34.375 6.203125 43.40625 
Q 6.203125 49.171875 8.15625 54.953125 
Q 10.109375 60.75 13.375 64.796875 
Q 17.1875 69.484375 22.0625 71.84375 
Q 26.953125 74.21875 32.90625 74.21875 
Q 42.828125 74.21875 48.265625 68.484375 
Q 53.71875 62.75 53.71875 52.296875 
Q 53.71875 44.1875 51.8125 35.4375 
Q 49.90625 26.703125 46.578125 19.578125 
Q 41.796875 9.125 34.328125 3.84375 
Q 26.859375 -1.421875 16.703125 -1.421875 
Q 13.03125 -1.421875 9.609375 -0.6875 
Q 6.203125 0.046875 3.078125 1.515625 
z
" id="DejaVuSansMono-Oblique-57"/>
     </defs>
     <use xlink:href="#DejaVuSansMono-Oblique-48"/>
     <use x="60.205078" xlink:href="#DejaVuSansMono-Oblique-46"/>
     <use x="120.410156" xlink:href="#DejaVuSansMono-Oblique-49"/>
     <use x="180.615234" xlink:href="#DejaVuSansMono-Oblique-57"/>
    </g>
   </g>
   <g id="text_17">
    <!-- 70th Perc. -->
    <g style="fill:#008000;" transform="translate(142.311156 29.519547)scale(0.13 -0.13)">
     <defs>
      <path d="M 51.3125 33.890625 
L 51.3125 0 
L 42.28125 0 
L 42.28125 33.890625 
Q 42.28125 41.265625 39.6875 44.71875 
Q 37.109375 48.1875 31.59375 48.1875 
Q 25.296875 48.1875 21.890625 43.71875 
Q 18.5 39.265625 18.5 30.90625 
L 18.5 0 
L 9.515625 0 
L 9.515625 75.984375 
L 18.5 75.984375 
L 18.5 46.484375 
Q 20.90625 51.171875 25 53.578125 
Q 29.109375 56 34.71875 56 
Q 43.0625 56 47.1875 50.5 
Q 51.3125 45.015625 51.3125 33.890625 
z
" id="DejaVuSansMono-104"/>
      <path d="M 19.484375 64.796875 
L 19.484375 37.40625 
L 30.90625 37.40625 
Q 37.75 37.40625 41.578125 41.015625 
Q 45.40625 44.625 45.40625 51.125 
Q 45.40625 57.625 41.59375 61.203125 
Q 37.796875 64.796875 30.90625 64.796875 
z
M 9.625 72.90625 
L 30.90625 72.90625 
Q 43.109375 72.90625 49.40625 67.359375 
Q 55.71875 61.8125 55.71875 51.125 
Q 55.71875 40.328125 49.4375 34.8125 
Q 43.171875 29.296875 30.90625 29.296875 
L 19.484375 29.296875 
L 19.484375 0 
L 9.625 0 
z
" id="DejaVuSansMono-80"/>
     </defs>
     <use xlink:href="#DejaVuSansMono-55"/>
     <use x="60.205078" xlink:href="#DejaVuSansMono-48"/>
     <use x="120.410156" xlink:href="#DejaVuSansMono-116"/>
     <use x="180.615234" xlink:href="#DejaVuSansMono-104"/>
     <use x="240.820312" xlink:href="#DejaVuSansMono-32"/>
     <use x="301.025391" xlink:href="#DejaVuSansMono-80"/>
     <use x="361.230469" xlink:href="#DejaVuSansMono-101"/>
     <use x="421.435547" xlink:href="#DejaVuSansMono-114"/>
     <use x="481.640625" xlink:href="#DejaVuSansMono-99"/>
     <use x="541.845703" xlink:href="#DejaVuSansMono-46"/>
    </g>
   </g>
   <g id="text_18">
    <!-- 0.37 -->
    <g style="fill:#262626;" transform="translate(212.436693 209.920946)scale(0.168 -0.168)">
     <defs>
      <path d="M 37.203125 39.015625 
Q 42.78125 38.03125 45.90625 34.03125 
Q 49.03125 30.03125 49.03125 23.875 
Q 49.03125 12.453125 40.84375 5.515625 
Q 32.671875 -1.421875 19 -1.421875 
Q 13.71875 -1.421875 8.71875 -0.515625 
Q 3.71875 0.390625 -0.875 2.203125 
L 0.984375 12.015625 
Q 5.421875 9.46875 10.0625 8.171875 
Q 14.703125 6.890625 19.484375 6.890625 
Q 28.375 6.890625 33.84375 11.453125 
Q 39.3125 16.015625 39.3125 23.296875 
Q 39.3125 29 35.8125 31.953125 
Q 32.328125 34.90625 25.59375 34.90625 
L 18.109375 34.90625 
L 19.671875 43.015625 
L 27.203125 43.015625 
Q 34.90625 43.015625 39.453125 46.671875 
Q 44 50.34375 44 56.390625 
Q 44 61.28125 40.984375 63.59375 
Q 37.984375 65.921875 31.6875 65.921875 
Q 27.6875 65.921875 22.953125 64.9375 
Q 18.21875 63.96875 12.703125 62.015625 
L 14.5 71.09375 
Q 20.515625 72.703125 25.25 73.453125 
Q 29.984375 74.21875 34.078125 74.21875 
Q 43.265625 74.21875 48.53125 69.921875 
Q 53.8125 65.625 53.8125 58.203125 
Q 53.8125 50.734375 49.4375 45.671875 
Q 45.0625 40.625 37.203125 39.015625 
z
" id="DejaVuSansMono-Oblique-51"/>
      <path d="M 13.484375 72.90625 
L 59.1875 72.90625 
L 58.40625 68.3125 
L 19.09375 0 
L 8.5 0 
L 46.484375 64.59375 
L 11.921875 64.59375 
z
" id="DejaVuSansMono-Oblique-55"/>
     </defs>
     <use xlink:href="#DejaVuSansMono-Oblique-48"/>
     <use x="60.205078" xlink:href="#DejaVuSansMono-Oblique-46"/>
     <use x="120.410156" xlink:href="#DejaVuSansMono-Oblique-51"/>
     <use x="180.615234" xlink:href="#DejaVuSansMono-Oblique-55"/>
    </g>
   </g>
   <g id="text_19">
    <!-- 90th Perc. -->
    <g style="fill:#ff4500;" transform="translate(221.202386 29.519547)scale(0.13 -0.13)">
     <defs>
      <path d="M 29.109375 32.328125 
Q 35.40625 32.328125 38.984375 36.859375 
Q 42.578125 41.40625 42.578125 49.421875 
Q 42.578125 57.421875 38.984375 61.953125 
Q 35.40625 66.5 29.109375 66.5 
Q 22.5625 66.5 19.234375 62.171875 
Q 15.921875 57.859375 15.921875 49.421875 
Q 15.921875 40.921875 19.21875 36.625 
Q 22.515625 32.328125 29.109375 32.328125 
z
M 11.53125 1.515625 
L 11.53125 10.59375 
Q 14.59375 8.796875 18.0625 7.84375 
Q 21.53125 6.890625 25.296875 6.890625 
Q 34.671875 6.890625 39.46875 13.9375 
Q 44.28125 21 44.28125 34.71875 
Q 42 29.828125 37.84375 27.21875 
Q 33.6875 24.609375 28.328125 24.609375 
Q 17.78125 24.609375 11.984375 31.09375 
Q 6.203125 37.59375 6.203125 49.515625 
Q 6.203125 61.28125 12.125 67.75 
Q 18.0625 74.21875 28.90625 74.21875 
Q 41.609375 74.21875 47.515625 65.078125 
Q 53.421875 55.953125 53.421875 36.375 
Q 53.421875 17.96875 46.3125 8.265625 
Q 39.203125 -1.421875 25.6875 -1.421875 
Q 22.125 -1.421875 18.5 -0.65625 
Q 14.890625 0.09375 11.53125 1.515625 
z
" id="DejaVuSansMono-57"/>
     </defs>
     <use xlink:href="#DejaVuSansMono-57"/>
     <use x="60.205078" xlink:href="#DejaVuSansMono-48"/>
     <use x="120.410156" xlink:href="#DejaVuSansMono-116"/>
     <use x="180.615234" xlink:href="#DejaVuSansMono-104"/>
     <use x="240.820312" xlink:href="#DejaVuSansMono-32"/>
     <use x="301.025391" xlink:href="#DejaVuSansMono-80"/>
     <use x="361.230469" xlink:href="#DejaVuSansMono-101"/>
     <use x="421.435547" xlink:href="#DejaVuSansMono-114"/>
     <use x="481.640625" xlink:href="#DejaVuSansMono-99"/>
     <use x="541.845703" xlink:href="#DejaVuSansMono-46"/>
    </g>
   </g>
   <g id="legend_1">
    <g id="patch_7">
     <path d="M 540.916 53.164 
L 547.076 53.164 
Q 550.156 53.164 550.156 50.084 
L 550.156 43.924 
Q 550.156 40.844 547.076 40.844 
L 540.916 40.844 
Q 537.836 40.844 537.836 43.924 
L 537.836 50.084 
Q 537.836 53.164 540.916 53.164 
z
" style="fill:#ffffff;opacity:0.8;stroke:#cccccc;stroke-linejoin:miter;"/>
    </g>
   </g>
  </g>
 </g>
 <defs>
  <clipPath id="pfd592df33c">
   <rect height="190.212" width="480.462" x="77.394" y="33.144"/>
  </clipPath>
 </defs>
</svg>
