<?xml version="1.0" encoding="utf-8" standalone="no"?>
<!DOCTYPE svg PUBLIC "-//W3C//DTD SVG 1.1//EN"
  "http://www.w3.org/Graphics/SVG/1.1/DTD/svg11.dtd">
<!-- Created with matplotlib (https://matplotlib.org/) -->
<svg height="360pt" version="1.1" viewBox="0 0 576 360" width="576pt" xmlns="http://www.w3.org/2000/svg" xmlns:xlink="http://www.w3.org/1999/xlink">
 <metadata>
  <rdf:RDF xmlns:cc="http://creativecommons.org/ns#" xmlns:dc="http://purl.org/dc/elements/1.1/" xmlns:rdf="http://www.w3.org/1999/02/22-rdf-syntax-ns#">
   <cc:Work>
    <dc:type rdf:resource="http://purl.org/dc/dcmitype/StillImage"/>
    <dc:date>2021-02-26T18:34:49.531512</dc:date>
    <dc:format>image/svg+xml</dc:format>
    <dc:creator>
     <cc:Agent>
      <dc:title>Matplotlib v3.3.2, https://matplotlib.org/</dc:title>
     </cc:Agent>
    </dc:creator>
   </cc:Work>
  </rdf:RDF>
 </metadata>
 <defs>
  <style type="text/css">*{stroke-linecap:butt;stroke-linejoin:round;}</style>
 </defs>
 <g id="figure_1">
  <g id="patch_1">
   <path d="M 0 360 
L 576 360 
L 576 0 
L 0 0 
z
" style="fill:#ffffff;"/>
  </g>
  <g id="axes_1">
   <g id="patch_2">
    <path d="M 86.644 295.356 
L 557.856 295.356 
L 557.856 18.785368 
L 86.644 18.785368 
z
" style="fill:#ffffff;"/>
   </g>
   <g id="matplotlib.axis_1">
    <g id="xtick_1">
     <g id="line2d_1">
      <path clip-path="url(#p390dbd5c56)" d="M 86.644 295.356 
L 86.644 18.785368 
" style="fill:none;stroke:#cccccc;stroke-linecap:round;"/>
     </g>
     <g id="text_1">
      <!-- 0 -->
      <g style="fill:#262626;" transform="translate(82.008359 316.639406)scale(0.154 -0.154)">
       <defs>
        <path d="M 23.578125 36.625 
Q 23.578125 39.3125 25.453125 41.265625 
Q 27.34375 43.21875 29.984375 43.21875 
Q 32.71875 43.21875 34.671875 41.265625 
Q 36.625 39.3125 36.625 36.625 
Q 36.625 33.890625 34.6875 31.984375 
Q 32.765625 30.078125 29.984375 30.078125 
Q 27.25 30.078125 25.40625 31.9375 
Q 23.578125 33.796875 23.578125 36.625 
z
M 30.078125 66.40625 
Q 23.1875 66.40625 19.796875 58.984375 
Q 16.40625 51.5625 16.40625 36.375 
Q 16.40625 21.234375 19.796875 13.8125 
Q 23.1875 6.390625 30.078125 6.390625 
Q 37.015625 6.390625 40.40625 13.8125 
Q 43.796875 21.234375 43.796875 36.375 
Q 43.796875 51.5625 40.40625 58.984375 
Q 37.015625 66.40625 30.078125 66.40625 
z
M 30.078125 74.21875 
Q 41.75 74.21875 47.734375 64.640625 
Q 53.71875 55.078125 53.71875 36.375 
Q 53.71875 17.71875 47.734375 8.140625 
Q 41.75 -1.421875 30.078125 -1.421875 
Q 18.40625 -1.421875 12.453125 8.140625 
Q 6.5 17.71875 6.5 36.375 
Q 6.5 55.078125 12.453125 64.640625 
Q 18.40625 74.21875 30.078125 74.21875 
z
" id="DejaVuSansMono-48"/>
       </defs>
       <use xlink:href="#DejaVuSansMono-48"/>
      </g>
     </g>
    </g>
    <g id="xtick_2">
     <g id="line2d_2">
      <path clip-path="url(#p390dbd5c56)" d="M 183.801113 295.356 
L 183.801113 18.785368 
" style="fill:none;stroke:#cccccc;stroke-linecap:round;"/>
     </g>
     <g id="text_2">
      <!-- 20 -->
      <g style="fill:#262626;" transform="translate(174.529832 316.639406)scale(0.154 -0.154)">
       <defs>
        <path d="M 18.21875 8.296875 
L 51.703125 8.296875 
L 51.703125 0 
L 7.421875 0 
L 7.421875 8.296875 
Q 16.546875 17.921875 23.375 25.296875 
Q 30.21875 32.671875 32.8125 35.6875 
Q 37.703125 41.65625 39.40625 45.34375 
Q 41.109375 49.03125 41.109375 52.875 
Q 41.109375 58.984375 37.515625 62.453125 
Q 33.9375 65.921875 27.6875 65.921875 
Q 23.25 65.921875 18.359375 64.3125 
Q 13.484375 62.703125 8.015625 59.421875 
L 8.015625 69.390625 
Q 13.03125 71.78125 17.890625 73 
Q 22.75 74.21875 27.484375 74.21875 
Q 38.1875 74.21875 44.703125 68.53125 
Q 51.21875 62.84375 51.21875 53.609375 
Q 51.21875 48.921875 49.046875 44.234375 
Q 46.875 39.546875 42 33.890625 
Q 39.265625 30.71875 34.0625 25.09375 
Q 28.859375 19.484375 18.21875 8.296875 
z
" id="DejaVuSansMono-50"/>
       </defs>
       <use xlink:href="#DejaVuSansMono-50"/>
       <use x="60.205078" xlink:href="#DejaVuSansMono-48"/>
      </g>
     </g>
    </g>
    <g id="xtick_3">
     <g id="line2d_3">
      <path clip-path="url(#p390dbd5c56)" d="M 280.958227 295.356 
L 280.958227 18.785368 
" style="fill:none;stroke:#cccccc;stroke-linecap:round;"/>
     </g>
     <g id="text_3">
      <!-- 40 -->
      <g style="fill:#262626;" transform="translate(271.686946 316.639406)scale(0.154 -0.154)">
       <defs>
        <path d="M 35.890625 63.921875 
L 12.890625 25.390625 
L 35.890625 25.390625 
z
M 34.28125 72.90625 
L 45.703125 72.90625 
L 45.703125 25.390625 
L 55.421875 25.390625 
L 55.421875 17.390625 
L 45.703125 17.390625 
L 45.703125 0 
L 35.890625 0 
L 35.890625 17.390625 
L 4.984375 17.390625 
L 4.984375 26.703125 
z
" id="DejaVuSansMono-52"/>
       </defs>
       <use xlink:href="#DejaVuSansMono-52"/>
       <use x="60.205078" xlink:href="#DejaVuSansMono-48"/>
      </g>
     </g>
    </g>
    <g id="xtick_4">
     <g id="line2d_4">
      <path clip-path="url(#p390dbd5c56)" d="M 378.11534 295.356 
L 378.11534 18.785368 
" style="fill:none;stroke:#cccccc;stroke-linecap:round;"/>
     </g>
     <g id="text_4">
      <!-- 60 -->
      <g style="fill:#262626;" transform="translate(368.844059 316.639406)scale(0.154 -0.154)">
       <defs>
        <path d="M 48.390625 71.296875 
L 48.390625 62.203125 
Q 45.3125 64.015625 41.84375 64.96875 
Q 38.375 65.921875 34.625 65.921875 
Q 25.25 65.921875 20.40625 58.859375 
Q 15.578125 51.8125 15.578125 38.09375 
Q 17.921875 42.96875 22.0625 45.578125 
Q 26.21875 48.1875 31.59375 48.1875 
Q 42.140625 48.1875 47.921875 41.71875 
Q 53.71875 35.25 53.71875 23.390625 
Q 53.71875 11.578125 47.75 5.078125 
Q 41.796875 -1.421875 31 -1.421875 
Q 18.3125 -1.421875 12.40625 7.6875 
Q 6.5 16.796875 6.5 36.375 
Q 6.5 54.828125 13.59375 64.515625 
Q 20.703125 74.21875 34.1875 74.21875 
Q 37.796875 74.21875 41.40625 73.453125 
Q 45.015625 72.703125 48.390625 71.296875 
z
M 30.8125 40.484375 
Q 24.515625 40.484375 20.890625 35.9375 
Q 17.28125 31.390625 17.28125 23.390625 
Q 17.28125 15.375 20.890625 10.828125 
Q 24.515625 6.296875 30.8125 6.296875 
Q 37.359375 6.296875 40.671875 10.609375 
Q 44 14.9375 44 23.390625 
Q 44 31.890625 40.671875 36.1875 
Q 37.359375 40.484375 30.8125 40.484375 
z
" id="DejaVuSansMono-54"/>
       </defs>
       <use xlink:href="#DejaVuSansMono-54"/>
       <use x="60.205078" xlink:href="#DejaVuSansMono-48"/>
      </g>
     </g>
    </g>
    <g id="xtick_5">
     <g id="line2d_5">
      <path clip-path="url(#p390dbd5c56)" d="M 475.272454 295.356 
L 475.272454 18.785368 
" style="fill:none;stroke:#cccccc;stroke-linecap:round;"/>
     </g>
     <g id="text_5">
      <!-- 80 -->
      <g style="fill:#262626;" transform="translate(466.001172 316.639406)scale(0.154 -0.154)">
       <defs>
        <path d="M 30.078125 34.625 
Q 23.484375 34.625 19.890625 30.9375 
Q 16.3125 27.25 16.3125 20.515625 
Q 16.3125 13.765625 19.9375 10.03125 
Q 23.578125 6.296875 30.078125 6.296875 
Q 36.71875 6.296875 40.296875 9.984375 
Q 43.890625 13.671875 43.890625 20.515625 
Q 43.890625 27.203125 40.25 30.90625 
Q 36.625 34.625 30.078125 34.625 
z
M 21.484375 38.71875 
Q 15.1875 40.328125 11.640625 44.71875 
Q 8.109375 49.125 8.109375 55.328125 
Q 8.109375 64.015625 14.015625 69.109375 
Q 19.921875 74.21875 30.078125 74.21875 
Q 40.28125 74.21875 46.1875 69.109375 
Q 52.09375 64.015625 52.09375 55.328125 
Q 52.09375 49.125 48.546875 44.71875 
Q 45.015625 40.328125 38.71875 38.71875 
Q 46.046875 37.109375 49.921875 32.21875 
Q 53.8125 27.34375 53.8125 19.578125 
Q 53.8125 9.71875 47.515625 4.140625 
Q 41.21875 -1.421875 30.078125 -1.421875 
Q 18.953125 -1.421875 12.671875 4.125 
Q 6.390625 9.671875 6.390625 19.484375 
Q 6.390625 27.296875 10.265625 32.203125 
Q 14.15625 37.109375 21.484375 38.71875 
z
M 17.921875 54.390625 
Q 17.921875 48.53125 21.046875 45.453125 
Q 24.171875 42.390625 30.078125 42.390625 
Q 36.03125 42.390625 39.15625 45.453125 
Q 42.28125 48.53125 42.28125 54.390625 
Q 42.28125 60.359375 39.171875 63.484375 
Q 36.078125 66.609375 30.078125 66.609375 
Q 24.171875 66.609375 21.046875 63.453125 
Q 17.921875 60.296875 17.921875 54.390625 
z
" id="DejaVuSansMono-56"/>
       </defs>
       <use xlink:href="#DejaVuSansMono-56"/>
       <use x="60.205078" xlink:href="#DejaVuSansMono-48"/>
      </g>
     </g>
    </g>
    <g id="text_6">
     <!-- K -->
     <g style="fill:#262626;" transform="translate(317.192938 336.69675)scale(0.168 -0.168)">
      <defs>
       <path d="M 6.6875 72.90625 
L 16.609375 72.90625 
L 16.609375 40.484375 
L 47.40625 72.90625 
L 58.984375 72.90625 
L 30.609375 43.109375 
L 59.8125 0 
L 47.90625 0 
L 24.125 36.53125 
L 16.609375 28.515625 
L 16.609375 0 
L 6.6875 0 
z
" id="DejaVuSansMono-75"/>
      </defs>
      <use xlink:href="#DejaVuSansMono-75"/>
     </g>
    </g>
   </g>
   <g id="matplotlib.axis_2">
    <g id="ytick_1">
     <g id="line2d_6">
      <path clip-path="url(#p390dbd5c56)" d="M 86.644 280.180404 
L 557.856 280.180404 
" style="fill:none;stroke:#cccccc;stroke-linecap:round;"/>
     </g>
     <g id="text_7">
      <!-- 0.13 -->
      <g style="fill:#262626;" transform="translate(40.058875 286.072107)scale(0.154 -0.154)">
       <defs>
        <path d="M 23.875 14.890625 
L 36.1875 14.890625 
L 36.1875 0 
L 23.875 0 
z
" id="DejaVuSansMono-46"/>
        <path d="M 13.1875 8.296875 
L 28.515625 8.296875 
L 28.515625 64.015625 
L 12.015625 60.296875 
L 12.015625 69.28125 
L 28.421875 72.90625 
L 38.28125 72.90625 
L 38.28125 8.296875 
L 53.421875 8.296875 
L 53.421875 0 
L 13.1875 0 
z
" id="DejaVuSansMono-49"/>
        <path d="M 37.890625 39.015625 
Q 45.0625 37.109375 48.875 32.25 
Q 52.6875 27.390625 52.6875 20.125 
Q 52.6875 10.0625 45.921875 4.3125 
Q 39.15625 -1.421875 27.203125 -1.421875 
Q 22.171875 -1.421875 16.9375 -0.484375 
Q 11.71875 0.4375 6.6875 2.203125 
L 6.6875 12.015625 
Q 11.671875 9.421875 16.5 8.15625 
Q 21.34375 6.890625 26.125 6.890625 
Q 34.234375 6.890625 38.578125 10.546875 
Q 42.921875 14.203125 42.921875 21.09375 
Q 42.921875 27.4375 38.578125 31.171875 
Q 34.234375 34.90625 26.8125 34.90625 
L 19.28125 34.90625 
L 19.28125 43.015625 
L 26.8125 43.015625 
Q 33.59375 43.015625 37.40625 45.984375 
Q 41.21875 48.96875 41.21875 54.296875 
Q 41.21875 59.90625 37.671875 62.90625 
Q 34.125 65.921875 27.59375 65.921875 
Q 23.25 65.921875 18.609375 64.9375 
Q 13.96875 63.96875 8.890625 62.015625 
L 8.890625 71.09375 
Q 14.796875 72.65625 19.40625 73.4375 
Q 24.03125 74.21875 27.59375 74.21875 
Q 38.234375 74.21875 44.609375 68.875 
Q 50.984375 63.53125 50.984375 54.6875 
Q 50.984375 48.6875 47.625 44.671875 
Q 44.28125 40.671875 37.890625 39.015625 
z
" id="DejaVuSansMono-51"/>
       </defs>
       <use xlink:href="#DejaVuSansMono-48"/>
       <use x="60.205078" xlink:href="#DejaVuSansMono-46"/>
       <use x="120.410156" xlink:href="#DejaVuSansMono-49"/>
       <use x="180.615234" xlink:href="#DejaVuSansMono-51"/>
      </g>
     </g>
    </g>
    <g id="ytick_2">
     <g id="line2d_7">
      <path clip-path="url(#p390dbd5c56)" d="M 86.644 237.523345 
L 557.856 237.523345 
" style="fill:none;stroke:#cccccc;stroke-linecap:round;"/>
     </g>
     <g id="text_8">
      <!-- 0.14 -->
      <g style="fill:#262626;" transform="translate(40.058875 243.415049)scale(0.154 -0.154)">
       <use xlink:href="#DejaVuSansMono-48"/>
       <use x="60.205078" xlink:href="#DejaVuSansMono-46"/>
       <use x="120.410156" xlink:href="#DejaVuSansMono-49"/>
       <use x="180.615234" xlink:href="#DejaVuSansMono-52"/>
      </g>
     </g>
    </g>
    <g id="ytick_3">
     <g id="line2d_8">
      <path clip-path="url(#p390dbd5c56)" d="M 86.644 194.866287 
L 557.856 194.866287 
" style="fill:none;stroke:#cccccc;stroke-linecap:round;"/>
     </g>
     <g id="text_9">
      <!-- 0.15 -->
      <g style="fill:#262626;" transform="translate(40.058875 200.75799)scale(0.154 -0.154)">
       <defs>
        <path d="M 10.109375 72.90625 
L 47.015625 72.90625 
L 47.015625 64.59375 
L 19.09375 64.59375 
L 19.09375 46.6875 
Q 21.1875 47.46875 23.3125 47.828125 
Q 25.4375 48.1875 27.59375 48.1875 
Q 38.921875 48.1875 45.5625 41.5 
Q 52.203125 34.8125 52.203125 23.390625 
Q 52.203125 11.859375 45.234375 5.21875 
Q 38.28125 -1.421875 26.21875 -1.421875 
Q 20.40625 -1.421875 15.59375 -0.640625 
Q 10.796875 0.140625 6.984375 1.703125 
L 6.984375 11.71875 
Q 11.46875 9.28125 16.015625 8.078125 
Q 20.5625 6.890625 25.296875 6.890625 
Q 33.453125 6.890625 37.859375 11.1875 
Q 42.28125 15.484375 42.28125 23.390625 
Q 42.28125 31.203125 37.71875 35.546875 
Q 33.15625 39.890625 25 39.890625 
Q 21.046875 39.890625 17.28125 38.984375 
Q 13.53125 38.09375 10.109375 36.28125 
z
" id="DejaVuSansMono-53"/>
       </defs>
       <use xlink:href="#DejaVuSansMono-48"/>
       <use x="60.205078" xlink:href="#DejaVuSansMono-46"/>
       <use x="120.410156" xlink:href="#DejaVuSansMono-49"/>
       <use x="180.615234" xlink:href="#DejaVuSansMono-53"/>
      </g>
     </g>
    </g>
    <g id="ytick_4">
     <g id="line2d_9">
      <path clip-path="url(#p390dbd5c56)" d="M 86.644 152.209229 
L 557.856 152.209229 
" style="fill:none;stroke:#cccccc;stroke-linecap:round;"/>
     </g>
     <g id="text_10">
      <!-- 0.16 -->
      <g style="fill:#262626;" transform="translate(40.058875 158.100932)scale(0.154 -0.154)">
       <use xlink:href="#DejaVuSansMono-48"/>
       <use x="60.205078" xlink:href="#DejaVuSansMono-46"/>
       <use x="120.410156" xlink:href="#DejaVuSansMono-49"/>
       <use x="180.615234" xlink:href="#DejaVuSansMono-54"/>
      </g>
     </g>
    </g>
    <g id="ytick_5">
     <g id="line2d_10">
      <path clip-path="url(#p390dbd5c56)" d="M 86.644 109.552171 
L 557.856 109.552171 
" style="fill:none;stroke:#cccccc;stroke-linecap:round;"/>
     </g>
     <g id="text_11">
      <!-- 0.17 -->
      <g style="fill:#262626;" transform="translate(40.058875 115.443874)scale(0.154 -0.154)">
       <defs>
        <path d="M 6.78125 72.90625 
L 52.6875 72.90625 
L 52.6875 68.703125 
L 26.609375 0 
L 16.3125 0 
L 41.703125 64.59375 
L 6.78125 64.59375 
z
" id="DejaVuSansMono-55"/>
       </defs>
       <use xlink:href="#DejaVuSansMono-48"/>
       <use x="60.205078" xlink:href="#DejaVuSansMono-46"/>
       <use x="120.410156" xlink:href="#DejaVuSansMono-49"/>
       <use x="180.615234" xlink:href="#DejaVuSansMono-55"/>
      </g>
     </g>
    </g>
    <g id="ytick_6">
     <g id="line2d_11">
      <path clip-path="url(#p390dbd5c56)" d="M 86.644 66.895113 
L 557.856 66.895113 
" style="fill:none;stroke:#cccccc;stroke-linecap:round;"/>
     </g>
     <g id="text_12">
      <!-- 0.18 -->
      <g style="fill:#262626;" transform="translate(40.058875 72.786816)scale(0.154 -0.154)">
       <use xlink:href="#DejaVuSansMono-48"/>
       <use x="60.205078" xlink:href="#DejaVuSansMono-46"/>
       <use x="120.410156" xlink:href="#DejaVuSansMono-49"/>
       <use x="180.615234" xlink:href="#DejaVuSansMono-56"/>
      </g>
     </g>
    </g>
    <g id="ytick_7">
     <g id="line2d_12">
      <path clip-path="url(#p390dbd5c56)" d="M 86.644 24.238055 
L 557.856 24.238055 
" style="fill:none;stroke:#cccccc;stroke-linecap:round;"/>
     </g>
     <g id="text_13">
      <!-- 0.19 -->
      <g style="fill:#262626;" transform="translate(40.058875 30.129758)scale(0.154 -0.154)">
       <defs>
        <path d="M 29.109375 32.328125 
Q 35.40625 32.328125 38.984375 36.859375 
Q 42.578125 41.40625 42.578125 49.421875 
Q 42.578125 57.421875 38.984375 61.953125 
Q 35.40625 66.5 29.109375 66.5 
Q 22.5625 66.5 19.234375 62.171875 
Q 15.921875 57.859375 15.921875 49.421875 
Q 15.921875 40.921875 19.21875 36.625 
Q 22.515625 32.328125 29.109375 32.328125 
z
M 11.53125 1.515625 
L 11.53125 10.59375 
Q 14.59375 8.796875 18.0625 7.84375 
Q 21.53125 6.890625 25.296875 6.890625 
Q 34.671875 6.890625 39.46875 13.9375 
Q 44.28125 21 44.28125 34.71875 
Q 42 29.828125 37.84375 27.21875 
Q 33.6875 24.609375 28.328125 24.609375 
Q 17.78125 24.609375 11.984375 31.09375 
Q 6.203125 37.59375 6.203125 49.515625 
Q 6.203125 61.28125 12.125 67.75 
Q 18.0625 74.21875 28.90625 74.21875 
Q 41.609375 74.21875 47.515625 65.078125 
Q 53.421875 55.953125 53.421875 36.375 
Q 53.421875 17.96875 46.3125 8.265625 
Q 39.203125 -1.421875 25.6875 -1.421875 
Q 22.125 -1.421875 18.5 -0.65625 
Q 14.890625 0.09375 11.53125 1.515625 
z
" id="DejaVuSansMono-57"/>
       </defs>
       <use xlink:href="#DejaVuSansMono-48"/>
       <use x="60.205078" xlink:href="#DejaVuSansMono-46"/>
       <use x="120.410156" xlink:href="#DejaVuSansMono-49"/>
       <use x="180.615234" xlink:href="#DejaVuSansMono-57"/>
      </g>
     </g>
    </g>
    <g id="text_14">
     <!-- Botscore -->
     <g style="fill:#262626;" transform="translate(32.565 197.527184)rotate(-90)scale(0.168 -0.168)">
      <defs>
       <path d="M 18.015625 34.8125 
L 18.015625 8.109375 
L 29.6875 8.109375 
Q 38.28125 8.109375 41.9375 11.109375 
Q 45.609375 14.109375 45.609375 21 
Q 45.609375 28.125 41.75 31.46875 
Q 37.890625 34.8125 29.6875 34.8125 
z
M 18.015625 64.796875 
L 18.015625 42.828125 
L 29.5 42.828125 
Q 36.625 42.828125 39.8125 45.5625 
Q 43.015625 48.296875 43.015625 54.390625 
Q 43.015625 59.90625 39.859375 62.34375 
Q 36.71875 64.796875 29.5 64.796875 
z
M 8.109375 72.90625 
L 29.6875 72.90625 
Q 40.875 72.90625 46.921875 68.0625 
Q 52.984375 63.234375 52.984375 54.390625 
Q 52.984375 47.703125 49.78125 43.84375 
Q 46.578125 39.984375 40.1875 39.015625 
Q 47.359375 37.9375 51.4375 32.875 
Q 55.515625 27.828125 55.515625 20.015625 
Q 55.515625 10.109375 49.015625 5.046875 
Q 42.53125 0 29.6875 0 
L 8.109375 0 
z
" id="DejaVuSansMono-66"/>
       <path d="M 30.078125 48.390625 
Q 23.25 48.390625 19.734375 43.0625 
Q 16.21875 37.75 16.21875 27.296875 
Q 16.21875 16.890625 19.734375 11.546875 
Q 23.25 6.203125 30.078125 6.203125 
Q 36.96875 6.203125 40.484375 11.546875 
Q 44 16.890625 44 27.296875 
Q 44 37.75 40.484375 43.0625 
Q 36.96875 48.390625 30.078125 48.390625 
z
M 30.078125 56 
Q 41.453125 56 47.484375 48.625 
Q 53.515625 41.265625 53.515625 27.296875 
Q 53.515625 13.28125 47.5 5.921875 
Q 41.5 -1.421875 30.078125 -1.421875 
Q 18.703125 -1.421875 12.6875 5.921875 
Q 6.6875 13.28125 6.6875 27.296875 
Q 6.6875 41.265625 12.6875 48.625 
Q 18.703125 56 30.078125 56 
z
" id="DejaVuSansMono-111"/>
       <path d="M 29.984375 70.21875 
L 29.984375 54.6875 
L 50.390625 54.6875 
L 50.390625 47.703125 
L 29.984375 47.703125 
L 29.984375 18.015625 
Q 29.984375 11.96875 32.28125 9.5625 
Q 34.578125 7.171875 40.28125 7.171875 
L 50.390625 7.171875 
L 50.390625 0 
L 39.40625 0 
Q 29.296875 0 25.140625 4.046875 
Q 21 8.109375 21 18.015625 
L 21 47.703125 
L 6.390625 47.703125 
L 6.390625 54.6875 
L 21 54.6875 
L 21 70.21875 
z
" id="DejaVuSansMono-116"/>
       <path d="M 47.515625 52.78125 
L 47.515625 44 
Q 43.65625 46.234375 39.75 47.359375 
Q 35.84375 48.484375 31.78125 48.484375 
Q 25.6875 48.484375 22.671875 46.5 
Q 19.671875 44.53125 19.671875 40.484375 
Q 19.671875 36.8125 21.921875 35 
Q 24.171875 33.203125 33.109375 31.5 
L 36.71875 30.8125 
Q 43.40625 29.546875 46.84375 25.734375 
Q 50.296875 21.921875 50.296875 15.828125 
Q 50.296875 7.71875 44.53125 3.140625 
Q 38.765625 -1.421875 28.515625 -1.421875 
Q 24.46875 -1.421875 20.015625 -0.5625 
Q 15.578125 0.296875 10.40625 2 
L 10.40625 11.28125 
Q 15.4375 8.6875 20.015625 7.390625 
Q 24.609375 6.109375 28.71875 6.109375 
Q 34.671875 6.109375 37.9375 8.515625 
Q 41.21875 10.9375 41.21875 15.28125 
Q 41.21875 21.53125 29.25 23.921875 
L 28.859375 24.03125 
L 25.484375 24.703125 
Q 17.71875 26.21875 14.15625 29.8125 
Q 10.59375 33.40625 10.59375 39.59375 
Q 10.59375 47.46875 15.90625 51.734375 
Q 21.234375 56 31.109375 56 
Q 35.5 56 39.546875 55.1875 
Q 43.609375 54.390625 47.515625 52.78125 
z
" id="DejaVuSansMono-115"/>
       <path d="M 51.8125 2.78125 
Q 48.1875 0.6875 44.359375 -0.359375 
Q 40.53125 -1.421875 36.53125 -1.421875 
Q 23.828125 -1.421875 16.671875 6.1875 
Q 9.515625 13.8125 9.515625 27.296875 
Q 9.515625 40.765625 16.671875 48.375 
Q 23.828125 56 36.53125 56 
Q 40.484375 56 44.234375 54.96875 
Q 48 53.953125 51.8125 51.8125 
L 51.8125 42.390625 
Q 48.25 45.5625 44.65625 46.96875 
Q 41.0625 48.390625 36.53125 48.390625 
Q 28.078125 48.390625 23.53125 42.921875 
Q 19 37.453125 19 27.296875 
Q 19 17.1875 23.5625 11.6875 
Q 28.125 6.203125 36.53125 6.203125 
Q 41.21875 6.203125 44.921875 7.640625 
Q 48.640625 9.078125 51.8125 12.109375 
z
" id="DejaVuSansMono-99"/>
       <path d="M 56.390625 43.40625 
Q 53.515625 45.65625 50.53125 46.671875 
Q 47.5625 47.703125 44 47.703125 
Q 35.59375 47.703125 31.140625 42.421875 
Q 26.703125 37.15625 26.703125 27.203125 
L 26.703125 0 
L 17.671875 0 
L 17.671875 54.6875 
L 26.703125 54.6875 
L 26.703125 44 
Q 28.953125 49.8125 33.609375 52.90625 
Q 38.28125 56 44.671875 56 
Q 48 56 50.875 55.171875 
Q 53.765625 54.34375 56.390625 52.59375 
z
" id="DejaVuSansMono-114"/>
       <path d="M 54.296875 29.59375 
L 54.296875 25.203125 
L 15.375 25.203125 
L 15.375 24.90625 
Q 15.375 15.96875 20.03125 11.078125 
Q 24.703125 6.203125 33.203125 6.203125 
Q 37.5 6.203125 42.1875 7.5625 
Q 46.875 8.9375 52.203125 11.71875 
L 52.203125 2.78125 
Q 47.078125 0.6875 42.3125 -0.359375 
Q 37.546875 -1.421875 33.109375 -1.421875 
Q 20.359375 -1.421875 13.171875 6.21875 
Q 6 13.875 6 27.296875 
Q 6 40.375 13.03125 48.1875 
Q 20.0625 56 31.78125 56 
Q 42.234375 56 48.265625 48.921875 
Q 54.296875 41.84375 54.296875 29.59375 
z
M 45.3125 32.234375 
Q 45.125 40.140625 41.578125 44.265625 
Q 38.03125 48.390625 31.390625 48.390625 
Q 24.90625 48.390625 20.703125 44.09375 
Q 16.5 39.796875 15.71875 32.171875 
z
" id="DejaVuSansMono-101"/>
      </defs>
      <use xlink:href="#DejaVuSansMono-66"/>
      <use x="60.205078" xlink:href="#DejaVuSansMono-111"/>
      <use x="120.410156" xlink:href="#DejaVuSansMono-116"/>
      <use x="180.615234" xlink:href="#DejaVuSansMono-115"/>
      <use x="240.820312" xlink:href="#DejaVuSansMono-99"/>
      <use x="301.025391" xlink:href="#DejaVuSansMono-111"/>
      <use x="361.230469" xlink:href="#DejaVuSansMono-114"/>
      <use x="421.435547" xlink:href="#DejaVuSansMono-101"/>
     </g>
    </g>
   </g>
   <g id="PathCollection_1">
    <defs>
     <path d="M 0 1.732051 
C 0.459345 1.732051 0.899939 1.549551 1.224745 1.224745 
C 1.549551 0.899939 1.732051 0.459345 1.732051 0 
C 1.732051 -0.459345 1.549551 -0.899939 1.224745 -1.224745 
C 0.899939 -1.549551 0.459345 -1.732051 0 -1.732051 
C -0.459345 -1.732051 -0.899939 -1.549551 -1.224745 -1.224745 
C -1.549551 -0.899939 -1.732051 -0.459345 -1.732051 0 
C -1.732051 0.459345 -1.549551 0.899939 -1.224745 1.224745 
C -0.899939 1.549551 -0.459345 1.732051 0 1.732051 
z
" id="m91b63ed6b6" style="stroke:#4c72b0;"/>
    </defs>
    <g clip-path="url(#p390dbd5c56)">
     <use style="fill:#4c72b0;stroke:#4c72b0;" x="86.644" xlink:href="#m91b63ed6b6" y="162.393726"/>
     <use style="fill:#4c72b0;stroke:#4c72b0;" x="110.933278" xlink:href="#m91b63ed6b6" y="234.133344"/>
     <use style="fill:#4c72b0;stroke:#4c72b0;" x="135.222557" xlink:href="#m91b63ed6b6" y="250.028292"/>
     <use style="fill:#4c72b0;stroke:#4c72b0;" x="159.511835" xlink:href="#m91b63ed6b6" y="246.327783"/>
     <use style="fill:#4c72b0;stroke:#4c72b0;" x="183.801113" xlink:href="#m91b63ed6b6" y="238.535323"/>
     <use style="fill:#4c72b0;stroke:#4c72b0;" x="208.090392" xlink:href="#m91b63ed6b6" y="232.653635"/>
     <use style="fill:#4c72b0;stroke:#4c72b0;" x="232.37967" xlink:href="#m91b63ed6b6" y="237.812375"/>
     <use style="fill:#4c72b0;stroke:#4c72b0;" x="256.668948" xlink:href="#m91b63ed6b6" y="226.141277"/>
     <use style="fill:#4c72b0;stroke:#4c72b0;" x="280.958227" xlink:href="#m91b63ed6b6" y="220.927448"/>
     <use style="fill:#4c72b0;stroke:#4c72b0;" x="305.247505" xlink:href="#m91b63ed6b6" y="231.819227"/>
     <use style="fill:#4c72b0;stroke:#4c72b0;" x="329.536784" xlink:href="#m91b63ed6b6" y="233.113397"/>
     <use style="fill:#4c72b0;stroke:#4c72b0;" x="353.826062" xlink:href="#m91b63ed6b6" y="216.135687"/>
     <use style="fill:#4c72b0;stroke:#4c72b0;" x="378.11534" xlink:href="#m91b63ed6b6" y="185.594961"/>
     <use style="fill:#4c72b0;stroke:#4c72b0;" x="402.404619" xlink:href="#m91b63ed6b6" y="187.764595"/>
     <use style="fill:#4c72b0;stroke:#4c72b0;" x="426.693897" xlink:href="#m91b63ed6b6" y="155.54075"/>
     <use style="fill:#4c72b0;stroke:#4c72b0;" x="450.983175" xlink:href="#m91b63ed6b6" y="138.788418"/>
     <use style="fill:#4c72b0;stroke:#4c72b0;" x="475.272454" xlink:href="#m91b63ed6b6" y="62.680369"/>
     <use style="fill:#4c72b0;stroke:#4c72b0;" x="499.561732" xlink:href="#m91b63ed6b6" y="183.816437"/>
     <use style="fill:#4c72b0;stroke:#4c72b0;" x="523.85101" xlink:href="#m91b63ed6b6" y="166.873263"/>
     <use style="fill:#4c72b0;stroke:#4c72b0;" x="548.140289" xlink:href="#m91b63ed6b6" y="73.401936"/>
    </g>
   </g>
   <g id="PolyCollection_1">
    <defs>
     <path d="M 86.644 -182.346849 
L 86.644 -179.646813 
L 91.403717 -178.729921 
L 96.163434 -177.84178 
L 100.923152 -176.890324 
L 105.682869 -175.976617 
L 110.442586 -175.073389 
L 115.202303 -174.165867 
L 119.96202 -173.223417 
L 124.721737 -172.232531 
L 129.481455 -171.261224 
L 134.241172 -170.238357 
L 139.000889 -169.215764 
L 143.760606 -168.192786 
L 148.520323 -167.171895 
L 153.28004 -166.146801 
L 158.039758 -165.123762 
L 162.799475 -164.093452 
L 167.559192 -163.073782 
L 172.318909 -162.050486 
L 177.078626 -161.032382 
L 181.838343 -160.025882 
L 186.598061 -158.99682 
L 191.357778 -157.963022 
L 196.117495 -156.929164 
L 200.877212 -155.898962 
L 205.636929 -154.86517 
L 210.396646 -153.821013 
L 215.156364 -152.77077 
L 219.916081 -151.726999 
L 224.675798 -150.680963 
L 229.435515 -149.619277 
L 234.195232 -148.582112 
L 238.954949 -147.548938 
L 243.714667 -146.484334 
L 248.474384 -145.412073 
L 253.234101 -144.339813 
L 257.993818 -143.274218 
L 262.753535 -142.235143 
L 267.513253 -141.196068 
L 272.27297 -140.157488 
L 277.032687 -139.11247 
L 281.792404 -138.062377 
L 286.552121 -137.012284 
L 291.311838 -135.962191 
L 296.071556 -134.898504 
L 300.831273 -133.860727 
L 305.59099 -132.805279 
L 310.350707 -131.730592 
L 315.110424 -130.655905 
L 319.870141 -129.581219 
L 324.629859 -128.506532 
L 329.389576 -127.431845 
L 334.149293 -126.35787 
L 338.90901 -125.284085 
L 343.668727 -124.2103 
L 348.428444 -123.149595 
L 353.188162 -122.104909 
L 357.947879 -121.06106 
L 362.707596 -120.017435 
L 367.467313 -118.973811 
L 372.22703 -117.930186 
L 376.986747 -116.892036 
L 381.746465 -115.859644 
L 386.506182 -114.827253 
L 391.265899 -113.761569 
L 396.025616 -112.710242 
L 400.785333 -111.665651 
L 405.545051 -110.621614 
L 410.304768 -109.577841 
L 415.064485 -108.534067 
L 419.824202 -107.490294 
L 424.583919 -106.44652 
L 429.343636 -105.402747 
L 434.103354 -104.358973 
L 438.863071 -103.3152 
L 443.622788 -102.271426 
L 448.382505 -101.229135 
L 453.142222 -100.190936 
L 457.901939 -99.152737 
L 462.661657 -98.114538 
L 467.421374 -97.076339 
L 472.181091 -96.03814 
L 476.940808 -94.992909 
L 481.700525 -93.942579 
L 486.460242 -92.892249 
L 491.21996 -91.841918 
L 495.979677 -90.791588 
L 500.739394 -89.744408 
L 505.499111 -88.700323 
L 510.258828 -87.656239 
L 515.018545 -86.612154 
L 519.778263 -85.568069 
L 524.53798 -84.523985 
L 529.297697 -83.4799 
L 534.057414 -82.435815 
L 538.817131 -81.391731 
L 543.576848 -80.347646 
L 548.336566 -79.303562 
L 553.096283 -78.259477 
L 557.856 -77.215392 
L 557.856 -98.040989 
L 557.856 -98.040989 
L 553.096283 -98.87125 
L 548.336566 -99.701512 
L 543.576848 -100.531773 
L 538.817131 -101.362035 
L 534.057414 -102.192296 
L 529.297697 -103.02236 
L 524.53798 -103.852181 
L 519.778263 -104.682002 
L 515.018545 -105.511822 
L 510.258828 -106.341643 
L 505.499111 -107.171464 
L 500.739394 -108.001285 
L 495.979677 -108.831106 
L 491.21996 -109.660926 
L 486.460242 -110.490747 
L 481.700525 -111.320568 
L 476.940808 -112.150389 
L 472.181091 -112.991791 
L 467.421374 -113.83508 
L 462.661657 -114.678369 
L 457.901939 -115.521658 
L 453.142222 -116.363322 
L 448.382505 -117.188237 
L 443.622788 -118.014089 
L 438.863071 -118.868044 
L 434.103354 -119.721998 
L 429.343636 -120.575953 
L 424.583919 -121.427684 
L 419.824202 -122.271718 
L 415.064485 -123.115751 
L 410.304768 -123.959785 
L 405.545051 -124.807634 
L 400.785333 -125.663475 
L 396.025616 -126.519316 
L 391.265899 -127.375157 
L 386.506182 -128.230865 
L 381.746465 -129.064914 
L 376.986747 -129.872174 
L 372.22703 -130.711341 
L 367.467313 -131.55476 
L 362.707596 -132.397933 
L 357.947879 -133.241106 
L 353.188162 -134.084278 
L 348.428444 -134.922167 
L 343.668727 -135.771867 
L 338.90901 -136.615896 
L 334.149293 -137.459516 
L 329.389576 -138.292545 
L 324.629859 -139.10035 
L 319.870141 -139.908154 
L 315.110424 -140.743744 
L 310.350707 -141.602361 
L 305.59099 -142.460311 
L 300.831273 -143.292894 
L 296.071556 -144.124741 
L 291.311838 -144.956587 
L 286.552121 -145.780359 
L 281.792404 -146.603015 
L 277.032687 -147.437293 
L 272.27297 -148.284813 
L 267.513253 -149.117391 
L 262.753535 -149.949555 
L 257.993818 -150.781435 
L 253.234101 -151.613314 
L 248.474384 -152.429 
L 243.714667 -153.239573 
L 238.954949 -154.050146 
L 234.195232 -154.860718 
L 229.435515 -155.673013 
L 224.675798 -156.525297 
L 219.916081 -157.365942 
L 215.156364 -158.196724 
L 210.396646 -159.02993 
L 205.636929 -159.85433 
L 200.877212 -160.708922 
L 196.117495 -161.571457 
L 191.357778 -162.429689 
L 186.598061 -163.262769 
L 181.838343 -164.095848 
L 177.078626 -164.969252 
L 172.318909 -165.866043 
L 167.559192 -166.750586 
L 162.799475 -167.626593 
L 158.039758 -168.515297 
L 153.28004 -169.377611 
L 148.520323 -170.290905 
L 143.760606 -171.14788 
L 139.000889 -172.003715 
L 134.241172 -172.897889 
L 129.481455 -173.825716 
L 124.721737 -174.759052 
L 119.96202 -175.690644 
L 115.202303 -176.61271 
L 110.442586 -177.548355 
L 105.682869 -178.493871 
L 100.923152 -179.427502 
L 96.163434 -180.409684 
L 91.403717 -181.385428 
L 86.644 -182.346849 
z
" id="ma1ffe1596a" style="stroke:#ffffff;stroke-opacity:0.15;"/>
    </defs>
    <g clip-path="url(#p390dbd5c56)">
     <use style="fill:#cccc00;fill-opacity:0.15;stroke:#ffffff;stroke-opacity:0.15;" x="0" xlink:href="#ma1ffe1596a" y="360"/>
    </g>
   </g>
   <g id="line2d_13">
    <path clip-path="url(#p390dbd5c56)" d="M 86.644 163.894074 
L 86.644 160.93218 
" style="fill:none;stroke:#4c72b0;stroke-linecap:round;stroke-width:2.625;"/>
   </g>
   <g id="line2d_14">
    <path clip-path="url(#p390dbd5c56)" d="M 110.933278 236.427836 
L 110.933278 231.590023 
" style="fill:none;stroke:#4c72b0;stroke-linecap:round;stroke-width:2.625;"/>
   </g>
   <g id="line2d_15">
    <path clip-path="url(#p390dbd5c56)" d="M 135.222557 255.765068 
L 135.222557 244.535758 
" style="fill:none;stroke:#4c72b0;stroke-linecap:round;stroke-width:2.625;"/>
   </g>
   <g id="line2d_16">
    <path clip-path="url(#p390dbd5c56)" d="M 159.511835 255.441022 
L 159.511835 237.463619 
" style="fill:none;stroke:#4c72b0;stroke-linecap:round;stroke-width:2.625;"/>
   </g>
   <g id="line2d_17">
    <path clip-path="url(#p390dbd5c56)" d="M 183.801113 247.103583 
L 183.801113 228.941108 
" style="fill:none;stroke:#4c72b0;stroke-linecap:round;stroke-width:2.625;"/>
   </g>
   <g id="line2d_18">
    <path clip-path="url(#p390dbd5c56)" d="M 208.090392 243.38809 
L 208.090392 221.163047 
" style="fill:none;stroke:#4c72b0;stroke-linecap:round;stroke-width:2.625;"/>
   </g>
   <g id="line2d_19">
    <path clip-path="url(#p390dbd5c56)" d="M 232.37967 250.75264 
L 232.37967 223.973476 
" style="fill:none;stroke:#4c72b0;stroke-linecap:round;stroke-width:2.625;"/>
   </g>
   <g id="line2d_20">
    <path clip-path="url(#p390dbd5c56)" d="M 256.668948 240.087124 
L 256.668948 210.886163 
" style="fill:none;stroke:#4c72b0;stroke-linecap:round;stroke-width:2.625;"/>
   </g>
   <g id="line2d_21">
    <path clip-path="url(#p390dbd5c56)" d="M 280.958227 237.53104 
L 280.958227 203.229542 
" style="fill:none;stroke:#4c72b0;stroke-linecap:round;stroke-width:2.625;"/>
   </g>
   <g id="line2d_22">
    <path clip-path="url(#p390dbd5c56)" d="M 305.247505 249.861459 
L 305.247505 213.044255 
" style="fill:none;stroke:#4c72b0;stroke-linecap:round;stroke-width:2.625;"/>
   </g>
   <g id="line2d_23">
    <path clip-path="url(#p390dbd5c56)" d="M 329.536784 251.163359 
L 329.536784 211.397685 
" style="fill:none;stroke:#4c72b0;stroke-linecap:round;stroke-width:2.625;"/>
   </g>
   <g id="line2d_24">
    <path clip-path="url(#p390dbd5c56)" d="M 353.826062 238.284066 
L 353.826062 195.18374 
" style="fill:none;stroke:#4c72b0;stroke-linecap:round;stroke-width:2.625;"/>
   </g>
   <g id="line2d_25">
    <path clip-path="url(#p390dbd5c56)" d="M 378.11534 209.333097 
L 378.11534 161.974204 
" style="fill:none;stroke:#4c72b0;stroke-linecap:round;stroke-width:2.625;"/>
   </g>
   <g id="line2d_26">
    <path clip-path="url(#p390dbd5c56)" d="M 402.404619 214.178171 
L 402.404619 162.174258 
" style="fill:none;stroke:#4c72b0;stroke-linecap:round;stroke-width:2.625;"/>
   </g>
   <g id="line2d_27">
    <path clip-path="url(#p390dbd5c56)" d="M 426.693897 182.979636 
L 426.693897 128.634228 
" style="fill:none;stroke:#4c72b0;stroke-linecap:round;stroke-width:2.625;"/>
   </g>
   <g id="line2d_28">
    <path clip-path="url(#p390dbd5c56)" d="M 450.983175 167.734447 
L 450.983175 110.209082 
" style="fill:none;stroke:#4c72b0;stroke-linecap:round;stroke-width:2.625;"/>
   </g>
   <g id="line2d_29">
    <path clip-path="url(#p390dbd5c56)" d="M 475.272454 93.540145 
L 475.272454 31.35676 
" style="fill:none;stroke:#4c72b0;stroke-linecap:round;stroke-width:2.625;"/>
   </g>
   <g id="line2d_30">
    <path clip-path="url(#p390dbd5c56)" d="M 499.561732 218.549718 
L 499.561732 144.644926 
" style="fill:none;stroke:#4c72b0;stroke-linecap:round;stroke-width:2.625;"/>
   </g>
   <g id="line2d_31">
    <path clip-path="url(#p390dbd5c56)" d="M 523.85101 205.819677 
L 523.85101 127.955131 
" style="fill:none;stroke:#4c72b0;stroke-linecap:round;stroke-width:2.625;"/>
   </g>
   <g id="line2d_32">
    <path clip-path="url(#p390dbd5c56)" d="M 548.140289 104.564788 
L 548.140289 40.826574 
" style="fill:none;stroke:#4c72b0;stroke-linecap:round;stroke-width:2.625;"/>
   </g>
   <g id="line2d_33">
    <path clip-path="url(#p390dbd5c56)" d="M 86.644 178.99869 
L 91.403717 179.942303 
L 96.163434 180.885916 
L 100.923152 181.82953 
L 105.682869 182.773143 
L 110.442586 183.716756 
L 115.202303 184.660369 
L 119.96202 185.603982 
L 124.721737 186.547596 
L 129.481455 187.491209 
L 134.241172 188.434822 
L 139.000889 189.378435 
L 143.760606 190.322049 
L 148.520323 191.265662 
L 153.28004 192.209275 
L 158.039758 193.152888 
L 162.799475 194.096501 
L 167.559192 195.040115 
L 172.318909 195.983728 
L 177.078626 196.927341 
L 181.838343 197.870954 
L 186.598061 198.814568 
L 191.357778 199.758181 
L 196.117495 200.701794 
L 200.877212 201.645407 
L 205.636929 202.58902 
L 210.396646 203.532634 
L 215.156364 204.476247 
L 219.916081 205.41986 
L 224.675798 206.363473 
L 229.435515 207.307087 
L 234.195232 208.2507 
L 238.954949 209.194313 
L 243.714667 210.137926 
L 248.474384 211.08154 
L 253.234101 212.025153 
L 257.993818 212.968766 
L 262.753535 213.912379 
L 267.513253 214.855992 
L 272.27297 215.799606 
L 277.032687 216.743219 
L 281.792404 217.686832 
L 286.552121 218.630445 
L 291.311838 219.574059 
L 296.071556 220.517672 
L 300.831273 221.461285 
L 305.59099 222.404898 
L 310.350707 223.348511 
L 315.110424 224.292125 
L 319.870141 225.235738 
L 324.629859 226.179351 
L 329.389576 227.122964 
L 334.149293 228.066578 
L 338.90901 229.010191 
L 343.668727 229.953804 
L 348.428444 230.897417 
L 353.188162 231.84103 
L 357.947879 232.784644 
L 362.707596 233.728257 
L 367.467313 234.67187 
L 372.22703 235.615483 
L 376.986747 236.559097 
L 381.746465 237.50271 
L 386.506182 238.446323 
L 391.265899 239.389936 
L 396.025616 240.33355 
L 400.785333 241.277163 
L 405.545051 242.220776 
L 410.304768 243.164389 
L 415.064485 244.108002 
L 419.824202 245.051616 
L 424.583919 245.995229 
L 429.343636 246.938842 
L 434.103354 247.882455 
L 438.863071 248.826069 
L 443.622788 249.769682 
L 448.382505 250.713295 
L 453.142222 251.656908 
L 457.901939 252.600521 
L 462.661657 253.544135 
L 467.421374 254.487748 
L 472.181091 255.431361 
L 476.940808 256.374974 
L 481.700525 257.318588 
L 486.460242 258.262201 
L 491.21996 259.205814 
L 495.979677 260.149427 
L 500.739394 261.093041 
L 505.499111 262.036654 
L 510.258828 262.980267 
L 515.018545 263.92388 
L 519.778263 264.867493 
L 524.53798 265.811107 
L 529.297697 266.75472 
L 534.057414 267.698333 
L 538.817131 268.641946 
L 543.576848 269.58556 
L 548.336566 270.529173 
L 553.096283 271.472786 
L 557.856 272.416399 
" style="fill:none;stroke:#cccc00;stroke-linecap:round;stroke-width:2.25;"/>
   </g>
   <g id="patch_3">
    <path d="M 86.644 295.356 
L 86.644 18.785368 
" style="fill:none;stroke:#cccccc;stroke-linecap:square;stroke-linejoin:miter;stroke-width:1.25;"/>
   </g>
   <g id="patch_4">
    <path d="M 557.856 295.356 
L 557.856 18.785368 
" style="fill:none;stroke:#cccccc;stroke-linecap:square;stroke-linejoin:miter;stroke-width:1.25;"/>
   </g>
   <g id="patch_5">
    <path d="M 86.644 295.356 
L 557.856 295.356 
" style="fill:none;stroke:#cccccc;stroke-linecap:square;stroke-linejoin:miter;stroke-width:1.25;"/>
   </g>
   <g id="patch_6">
    <path d="M 86.644 18.785368 
L 557.856 18.785368 
" style="fill:none;stroke:#cccccc;stroke-linecap:square;stroke-linejoin:miter;stroke-width:1.25;"/>
   </g>
  </g>
 </g>
 <defs>
  <clipPath id="p390dbd5c56">
   <rect height="276.570632" width="471.212" x="86.644" y="18.785368"/>
  </clipPath>
 </defs>
</svg>
