<?xml version="1.0" encoding="utf-8" standalone="no"?>
<!DOCTYPE svg PUBLIC "-//W3C//DTD SVG 1.1//EN"
  "http://www.w3.org/Graphics/SVG/1.1/DTD/svg11.dtd">
<!-- Created with matplotlib (https://matplotlib.org/) -->
<svg height="299.369788pt" version="1.1" viewBox="0 0 548.100267 299.369788" width="548.100267pt" xmlns="http://www.w3.org/2000/svg" xmlns:xlink="http://www.w3.org/1999/xlink">
 <metadata>
  <rdf:RDF xmlns:cc="http://creativecommons.org/ns#" xmlns:dc="http://purl.org/dc/elements/1.1/" xmlns:rdf="http://www.w3.org/1999/02/22-rdf-syntax-ns#">
   <cc:Work>
    <dc:type rdf:resource="http://purl.org/dc/dcmitype/StillImage"/>
    <dc:date>2021-03-01T11:49:18.246132</dc:date>
    <dc:format>image/svg+xml</dc:format>
    <dc:creator>
     <cc:Agent>
      <dc:title>Matplotlib v3.3.2, https://matplotlib.org/</dc:title>
     </cc:Agent>
    </dc:creator>
   </cc:Work>
  </rdf:RDF>
 </metadata>
 <defs>
  <style type="text/css">*{stroke-linecap:butt;stroke-linejoin:round;}</style>
 </defs>
 <g id="figure_1">
  <g id="patch_1">
   <path d="M 0 299.369788 
L 548.100267 299.369788 
L 548.100267 0 
L 0 0 
z
" style="fill:#ffffff;"/>
  </g>
  <g id="axes_1">
   <g id="patch_2">
    <path d="M 64.862344 247.335163 
L 540.900267 247.335163 
L 540.900267 25.432288 
L 64.862344 25.432288 
z
" style="fill:#ffffff;"/>
   </g>
   <g id="matplotlib.axis_1">
    <g id="xtick_1">
     <g id="line2d_1">
      <path clip-path="url(#p82eeedbb8c)" d="M 64.862344 247.335163 
L 64.862344 25.432288 
" style="fill:none;stroke:#cccccc;stroke-linecap:round;"/>
     </g>
     <g id="text_1">
      <!-- 0 -->
      <g style="fill:#262626;" transform="translate(60.226703 268.618569)scale(0.154 -0.154)">
       <defs>
        <path d="M 23.578125 36.625 
Q 23.578125 39.3125 25.453125 41.265625 
Q 27.34375 43.21875 29.984375 43.21875 
Q 32.71875 43.21875 34.671875 41.265625 
Q 36.625 39.3125 36.625 36.625 
Q 36.625 33.890625 34.6875 31.984375 
Q 32.765625 30.078125 29.984375 30.078125 
Q 27.25 30.078125 25.40625 31.9375 
Q 23.578125 33.796875 23.578125 36.625 
z
M 30.078125 66.40625 
Q 23.1875 66.40625 19.796875 58.984375 
Q 16.40625 51.5625 16.40625 36.375 
Q 16.40625 21.234375 19.796875 13.8125 
Q 23.1875 6.390625 30.078125 6.390625 
Q 37.015625 6.390625 40.40625 13.8125 
Q 43.796875 21.234375 43.796875 36.375 
Q 43.796875 51.5625 40.40625 58.984375 
Q 37.015625 66.40625 30.078125 66.40625 
z
M 30.078125 74.21875 
Q 41.75 74.21875 47.734375 64.640625 
Q 53.71875 55.078125 53.71875 36.375 
Q 53.71875 17.71875 47.734375 8.140625 
Q 41.75 -1.421875 30.078125 -1.421875 
Q 18.40625 -1.421875 12.453125 8.140625 
Q 6.5 17.71875 6.5 36.375 
Q 6.5 55.078125 12.453125 64.640625 
Q 18.40625 74.21875 30.078125 74.21875 
z
" id="DejaVuSansMono-48"/>
       </defs>
       <use xlink:href="#DejaVuSansMono-48"/>
      </g>
     </g>
    </g>
    <g id="xtick_2">
     <g id="line2d_2">
      <path clip-path="url(#p82eeedbb8c)" d="M 113.938418 247.335163 
L 113.938418 25.432288 
" style="fill:none;stroke:#cccccc;stroke-linecap:round;"/>
     </g>
     <g id="text_2">
      <!-- 10 -->
      <g style="fill:#262626;" transform="translate(104.667137 268.618569)scale(0.154 -0.154)">
       <defs>
        <path d="M 13.1875 8.296875 
L 28.515625 8.296875 
L 28.515625 64.015625 
L 12.015625 60.296875 
L 12.015625 69.28125 
L 28.421875 72.90625 
L 38.28125 72.90625 
L 38.28125 8.296875 
L 53.421875 8.296875 
L 53.421875 0 
L 13.1875 0 
z
" id="DejaVuSansMono-49"/>
       </defs>
       <use xlink:href="#DejaVuSansMono-49"/>
       <use x="60.205078" xlink:href="#DejaVuSansMono-48"/>
      </g>
     </g>
    </g>
    <g id="xtick_3">
     <g id="line2d_3">
      <path clip-path="url(#p82eeedbb8c)" d="M 163.014493 247.335163 
L 163.014493 25.432288 
" style="fill:none;stroke:#cccccc;stroke-linecap:round;"/>
     </g>
     <g id="text_3">
      <!-- 20 -->
      <g style="fill:#262626;" transform="translate(153.743212 268.618569)scale(0.154 -0.154)">
       <defs>
        <path d="M 18.21875 8.296875 
L 51.703125 8.296875 
L 51.703125 0 
L 7.421875 0 
L 7.421875 8.296875 
Q 16.546875 17.921875 23.375 25.296875 
Q 30.21875 32.671875 32.8125 35.6875 
Q 37.703125 41.65625 39.40625 45.34375 
Q 41.109375 49.03125 41.109375 52.875 
Q 41.109375 58.984375 37.515625 62.453125 
Q 33.9375 65.921875 27.6875 65.921875 
Q 23.25 65.921875 18.359375 64.3125 
Q 13.484375 62.703125 8.015625 59.421875 
L 8.015625 69.390625 
Q 13.03125 71.78125 17.890625 73 
Q 22.75 74.21875 27.484375 74.21875 
Q 38.1875 74.21875 44.703125 68.53125 
Q 51.21875 62.84375 51.21875 53.609375 
Q 51.21875 48.921875 49.046875 44.234375 
Q 46.875 39.546875 42 33.890625 
Q 39.265625 30.71875 34.0625 25.09375 
Q 28.859375 19.484375 18.21875 8.296875 
z
" id="DejaVuSansMono-50"/>
       </defs>
       <use xlink:href="#DejaVuSansMono-50"/>
       <use x="60.205078" xlink:href="#DejaVuSansMono-48"/>
      </g>
     </g>
    </g>
    <g id="xtick_4">
     <g id="line2d_4">
      <path clip-path="url(#p82eeedbb8c)" d="M 212.090567 247.335163 
L 212.090567 25.432288 
" style="fill:none;stroke:#cccccc;stroke-linecap:round;"/>
     </g>
     <g id="text_4">
      <!-- 30 -->
      <g style="fill:#262626;" transform="translate(202.819286 268.618569)scale(0.154 -0.154)">
       <defs>
        <path d="M 37.890625 39.015625 
Q 45.0625 37.109375 48.875 32.25 
Q 52.6875 27.390625 52.6875 20.125 
Q 52.6875 10.0625 45.921875 4.3125 
Q 39.15625 -1.421875 27.203125 -1.421875 
Q 22.171875 -1.421875 16.9375 -0.484375 
Q 11.71875 0.4375 6.6875 2.203125 
L 6.6875 12.015625 
Q 11.671875 9.421875 16.5 8.15625 
Q 21.34375 6.890625 26.125 6.890625 
Q 34.234375 6.890625 38.578125 10.546875 
Q 42.921875 14.203125 42.921875 21.09375 
Q 42.921875 27.4375 38.578125 31.171875 
Q 34.234375 34.90625 26.8125 34.90625 
L 19.28125 34.90625 
L 19.28125 43.015625 
L 26.8125 43.015625 
Q 33.59375 43.015625 37.40625 45.984375 
Q 41.21875 48.96875 41.21875 54.296875 
Q 41.21875 59.90625 37.671875 62.90625 
Q 34.125 65.921875 27.59375 65.921875 
Q 23.25 65.921875 18.609375 64.9375 
Q 13.96875 63.96875 8.890625 62.015625 
L 8.890625 71.09375 
Q 14.796875 72.65625 19.40625 73.4375 
Q 24.03125 74.21875 27.59375 74.21875 
Q 38.234375 74.21875 44.609375 68.875 
Q 50.984375 63.53125 50.984375 54.6875 
Q 50.984375 48.6875 47.625 44.671875 
Q 44.28125 40.671875 37.890625 39.015625 
z
" id="DejaVuSansMono-51"/>
       </defs>
       <use xlink:href="#DejaVuSansMono-51"/>
       <use x="60.205078" xlink:href="#DejaVuSansMono-48"/>
      </g>
     </g>
    </g>
    <g id="xtick_5">
     <g id="line2d_5">
      <path clip-path="url(#p82eeedbb8c)" d="M 261.166642 247.335163 
L 261.166642 25.432288 
" style="fill:none;stroke:#cccccc;stroke-linecap:round;"/>
     </g>
     <g id="text_5">
      <!-- 40 -->
      <g style="fill:#262626;" transform="translate(251.895361 268.618569)scale(0.154 -0.154)">
       <defs>
        <path d="M 35.890625 63.921875 
L 12.890625 25.390625 
L 35.890625 25.390625 
z
M 34.28125 72.90625 
L 45.703125 72.90625 
L 45.703125 25.390625 
L 55.421875 25.390625 
L 55.421875 17.390625 
L 45.703125 17.390625 
L 45.703125 0 
L 35.890625 0 
L 35.890625 17.390625 
L 4.984375 17.390625 
L 4.984375 26.703125 
z
" id="DejaVuSansMono-52"/>
       </defs>
       <use xlink:href="#DejaVuSansMono-52"/>
       <use x="60.205078" xlink:href="#DejaVuSansMono-48"/>
      </g>
     </g>
    </g>
    <g id="xtick_6">
     <g id="line2d_6">
      <path clip-path="url(#p82eeedbb8c)" d="M 310.242717 247.335163 
L 310.242717 25.432288 
" style="fill:none;stroke:#cccccc;stroke-linecap:round;"/>
     </g>
     <g id="text_6">
      <!-- 50 -->
      <g style="fill:#262626;" transform="translate(300.971435 268.618569)scale(0.154 -0.154)">
       <defs>
        <path d="M 10.109375 72.90625 
L 47.015625 72.90625 
L 47.015625 64.59375 
L 19.09375 64.59375 
L 19.09375 46.6875 
Q 21.1875 47.46875 23.3125 47.828125 
Q 25.4375 48.1875 27.59375 48.1875 
Q 38.921875 48.1875 45.5625 41.5 
Q 52.203125 34.8125 52.203125 23.390625 
Q 52.203125 11.859375 45.234375 5.21875 
Q 38.28125 -1.421875 26.21875 -1.421875 
Q 20.40625 -1.421875 15.59375 -0.640625 
Q 10.796875 0.140625 6.984375 1.703125 
L 6.984375 11.71875 
Q 11.46875 9.28125 16.015625 8.078125 
Q 20.5625 6.890625 25.296875 6.890625 
Q 33.453125 6.890625 37.859375 11.1875 
Q 42.28125 15.484375 42.28125 23.390625 
Q 42.28125 31.203125 37.71875 35.546875 
Q 33.15625 39.890625 25 39.890625 
Q 21.046875 39.890625 17.28125 38.984375 
Q 13.53125 38.09375 10.109375 36.28125 
z
" id="DejaVuSansMono-53"/>
       </defs>
       <use xlink:href="#DejaVuSansMono-53"/>
       <use x="60.205078" xlink:href="#DejaVuSansMono-48"/>
      </g>
     </g>
    </g>
    <g id="xtick_7">
     <g id="line2d_7">
      <path clip-path="url(#p82eeedbb8c)" d="M 359.318791 247.335163 
L 359.318791 25.432288 
" style="fill:none;stroke:#cccccc;stroke-linecap:round;"/>
     </g>
     <g id="text_7">
      <!-- 60 -->
      <g style="fill:#262626;" transform="translate(350.04751 268.618569)scale(0.154 -0.154)">
       <defs>
        <path d="M 48.390625 71.296875 
L 48.390625 62.203125 
Q 45.3125 64.015625 41.84375 64.96875 
Q 38.375 65.921875 34.625 65.921875 
Q 25.25 65.921875 20.40625 58.859375 
Q 15.578125 51.8125 15.578125 38.09375 
Q 17.921875 42.96875 22.0625 45.578125 
Q 26.21875 48.1875 31.59375 48.1875 
Q 42.140625 48.1875 47.921875 41.71875 
Q 53.71875 35.25 53.71875 23.390625 
Q 53.71875 11.578125 47.75 5.078125 
Q 41.796875 -1.421875 31 -1.421875 
Q 18.3125 -1.421875 12.40625 7.6875 
Q 6.5 16.796875 6.5 36.375 
Q 6.5 54.828125 13.59375 64.515625 
Q 20.703125 74.21875 34.1875 74.21875 
Q 37.796875 74.21875 41.40625 73.453125 
Q 45.015625 72.703125 48.390625 71.296875 
z
M 30.8125 40.484375 
Q 24.515625 40.484375 20.890625 35.9375 
Q 17.28125 31.390625 17.28125 23.390625 
Q 17.28125 15.375 20.890625 10.828125 
Q 24.515625 6.296875 30.8125 6.296875 
Q 37.359375 6.296875 40.671875 10.609375 
Q 44 14.9375 44 23.390625 
Q 44 31.890625 40.671875 36.1875 
Q 37.359375 40.484375 30.8125 40.484375 
z
" id="DejaVuSansMono-54"/>
       </defs>
       <use xlink:href="#DejaVuSansMono-54"/>
       <use x="60.205078" xlink:href="#DejaVuSansMono-48"/>
      </g>
     </g>
    </g>
    <g id="xtick_8">
     <g id="line2d_8">
      <path clip-path="url(#p82eeedbb8c)" d="M 408.394866 247.335163 
L 408.394866 25.432288 
" style="fill:none;stroke:#cccccc;stroke-linecap:round;"/>
     </g>
     <g id="text_8">
      <!-- 70 -->
      <g style="fill:#262626;" transform="translate(399.123585 268.618569)scale(0.154 -0.154)">
       <defs>
        <path d="M 6.78125 72.90625 
L 52.6875 72.90625 
L 52.6875 68.703125 
L 26.609375 0 
L 16.3125 0 
L 41.703125 64.59375 
L 6.78125 64.59375 
z
" id="DejaVuSansMono-55"/>
       </defs>
       <use xlink:href="#DejaVuSansMono-55"/>
       <use x="60.205078" xlink:href="#DejaVuSansMono-48"/>
      </g>
     </g>
    </g>
    <g id="xtick_9">
     <g id="line2d_9">
      <path clip-path="url(#p82eeedbb8c)" d="M 457.47094 247.335163 
L 457.47094 25.432288 
" style="fill:none;stroke:#cccccc;stroke-linecap:round;"/>
     </g>
     <g id="text_9">
      <!-- 80 -->
      <g style="fill:#262626;" transform="translate(448.199659 268.618569)scale(0.154 -0.154)">
       <defs>
        <path d="M 30.078125 34.625 
Q 23.484375 34.625 19.890625 30.9375 
Q 16.3125 27.25 16.3125 20.515625 
Q 16.3125 13.765625 19.9375 10.03125 
Q 23.578125 6.296875 30.078125 6.296875 
Q 36.71875 6.296875 40.296875 9.984375 
Q 43.890625 13.671875 43.890625 20.515625 
Q 43.890625 27.203125 40.25 30.90625 
Q 36.625 34.625 30.078125 34.625 
z
M 21.484375 38.71875 
Q 15.1875 40.328125 11.640625 44.71875 
Q 8.109375 49.125 8.109375 55.328125 
Q 8.109375 64.015625 14.015625 69.109375 
Q 19.921875 74.21875 30.078125 74.21875 
Q 40.28125 74.21875 46.1875 69.109375 
Q 52.09375 64.015625 52.09375 55.328125 
Q 52.09375 49.125 48.546875 44.71875 
Q 45.015625 40.328125 38.71875 38.71875 
Q 46.046875 37.109375 49.921875 32.21875 
Q 53.8125 27.34375 53.8125 19.578125 
Q 53.8125 9.71875 47.515625 4.140625 
Q 41.21875 -1.421875 30.078125 -1.421875 
Q 18.953125 -1.421875 12.671875 4.125 
Q 6.390625 9.671875 6.390625 19.484375 
Q 6.390625 27.296875 10.265625 32.203125 
Q 14.15625 37.109375 21.484375 38.71875 
z
M 17.921875 54.390625 
Q 17.921875 48.53125 21.046875 45.453125 
Q 24.171875 42.390625 30.078125 42.390625 
Q 36.03125 42.390625 39.15625 45.453125 
Q 42.28125 48.53125 42.28125 54.390625 
Q 42.28125 60.359375 39.171875 63.484375 
Q 36.078125 66.609375 30.078125 66.609375 
Q 24.171875 66.609375 21.046875 63.453125 
Q 17.921875 60.296875 17.921875 54.390625 
z
" id="DejaVuSansMono-56"/>
       </defs>
       <use xlink:href="#DejaVuSansMono-56"/>
       <use x="60.205078" xlink:href="#DejaVuSansMono-48"/>
      </g>
     </g>
    </g>
    <g id="xtick_10">
     <g id="line2d_10">
      <path clip-path="url(#p82eeedbb8c)" d="M 506.547015 247.335163 
L 506.547015 25.432288 
" style="fill:none;stroke:#cccccc;stroke-linecap:round;"/>
     </g>
     <g id="text_10">
      <!-- 90 -->
      <g style="fill:#262626;" transform="translate(497.275734 268.618569)scale(0.154 -0.154)">
       <defs>
        <path d="M 29.109375 32.328125 
Q 35.40625 32.328125 38.984375 36.859375 
Q 42.578125 41.40625 42.578125 49.421875 
Q 42.578125 57.421875 38.984375 61.953125 
Q 35.40625 66.5 29.109375 66.5 
Q 22.5625 66.5 19.234375 62.171875 
Q 15.921875 57.859375 15.921875 49.421875 
Q 15.921875 40.921875 19.21875 36.625 
Q 22.515625 32.328125 29.109375 32.328125 
z
M 11.53125 1.515625 
L 11.53125 10.59375 
Q 14.59375 8.796875 18.0625 7.84375 
Q 21.53125 6.890625 25.296875 6.890625 
Q 34.671875 6.890625 39.46875 13.9375 
Q 44.28125 21 44.28125 34.71875 
Q 42 29.828125 37.84375 27.21875 
Q 33.6875 24.609375 28.328125 24.609375 
Q 17.78125 24.609375 11.984375 31.09375 
Q 6.203125 37.59375 6.203125 49.515625 
Q 6.203125 61.28125 12.125 67.75 
Q 18.0625 74.21875 28.90625 74.21875 
Q 41.609375 74.21875 47.515625 65.078125 
Q 53.421875 55.953125 53.421875 36.375 
Q 53.421875 17.96875 46.3125 8.265625 
Q 39.203125 -1.421875 25.6875 -1.421875 
Q 22.125 -1.421875 18.5 -0.65625 
Q 14.890625 0.09375 11.53125 1.515625 
z
" id="DejaVuSansMono-57"/>
       </defs>
       <use xlink:href="#DejaVuSansMono-57"/>
       <use x="60.205078" xlink:href="#DejaVuSansMono-48"/>
      </g>
     </g>
    </g>
    <g id="text_11">
     <!-- K -->
     <g style="fill:#262626;" transform="translate(297.824243 288.675913)scale(0.168 -0.168)">
      <defs>
       <path d="M 6.6875 72.90625 
L 16.609375 72.90625 
L 16.609375 40.484375 
L 47.40625 72.90625 
L 58.984375 72.90625 
L 30.609375 43.109375 
L 59.8125 0 
L 47.90625 0 
L 24.125 36.53125 
L 16.609375 28.515625 
L 16.609375 0 
L 6.6875 0 
z
" id="DejaVuSansMono-75"/>
      </defs>
      <use xlink:href="#DejaVuSansMono-75"/>
     </g>
    </g>
   </g>
   <g id="matplotlib.axis_2">
    <g id="ytick_1">
     <g id="line2d_11">
      <path clip-path="url(#p82eeedbb8c)" d="M 64.862344 247.335163 
L 540.900267 247.335163 
" style="fill:none;stroke:#cccccc;stroke-linecap:round;"/>
     </g>
     <g id="text_12">
      <!-- 0.0 -->
      <g style="fill:#262626;" transform="translate(27.5485 253.226866)scale(0.154 -0.154)">
       <defs>
        <path d="M 23.875 14.890625 
L 36.1875 14.890625 
L 36.1875 0 
L 23.875 0 
z
" id="DejaVuSansMono-46"/>
       </defs>
       <use xlink:href="#DejaVuSansMono-48"/>
       <use x="60.205078" xlink:href="#DejaVuSansMono-46"/>
       <use x="120.410156" xlink:href="#DejaVuSansMono-48"/>
      </g>
     </g>
    </g>
    <g id="ytick_2">
     <g id="line2d_12">
      <path clip-path="url(#p82eeedbb8c)" d="M 64.862344 202.954588 
L 540.900267 202.954588 
" style="fill:none;stroke:#cccccc;stroke-linecap:round;"/>
     </g>
     <g id="text_13">
      <!-- 0.2 -->
      <g style="fill:#262626;" transform="translate(27.5485 208.846291)scale(0.154 -0.154)">
       <use xlink:href="#DejaVuSansMono-48"/>
       <use x="60.205078" xlink:href="#DejaVuSansMono-46"/>
       <use x="120.410156" xlink:href="#DejaVuSansMono-50"/>
      </g>
     </g>
    </g>
    <g id="ytick_3">
     <g id="line2d_13">
      <path clip-path="url(#p82eeedbb8c)" d="M 64.862344 158.574013 
L 540.900267 158.574013 
" style="fill:none;stroke:#cccccc;stroke-linecap:round;"/>
     </g>
     <g id="text_14">
      <!-- 0.4 -->
      <g style="fill:#262626;" transform="translate(27.5485 164.465716)scale(0.154 -0.154)">
       <use xlink:href="#DejaVuSansMono-48"/>
       <use x="60.205078" xlink:href="#DejaVuSansMono-46"/>
       <use x="120.410156" xlink:href="#DejaVuSansMono-52"/>
      </g>
     </g>
    </g>
    <g id="ytick_4">
     <g id="line2d_14">
      <path clip-path="url(#p82eeedbb8c)" d="M 64.862344 114.193438 
L 540.900267 114.193438 
" style="fill:none;stroke:#cccccc;stroke-linecap:round;"/>
     </g>
     <g id="text_15">
      <!-- 0.6 -->
      <g style="fill:#262626;" transform="translate(27.5485 120.085141)scale(0.154 -0.154)">
       <use xlink:href="#DejaVuSansMono-48"/>
       <use x="60.205078" xlink:href="#DejaVuSansMono-46"/>
       <use x="120.410156" xlink:href="#DejaVuSansMono-54"/>
      </g>
     </g>
    </g>
    <g id="ytick_5">
     <g id="line2d_15">
      <path clip-path="url(#p82eeedbb8c)" d="M 64.862344 69.812863 
L 540.900267 69.812863 
" style="fill:none;stroke:#cccccc;stroke-linecap:round;"/>
     </g>
     <g id="text_16">
      <!-- 0.8 -->
      <g style="fill:#262626;" transform="translate(27.5485 75.704566)scale(0.154 -0.154)">
       <use xlink:href="#DejaVuSansMono-48"/>
       <use x="60.205078" xlink:href="#DejaVuSansMono-46"/>
       <use x="120.410156" xlink:href="#DejaVuSansMono-56"/>
      </g>
     </g>
    </g>
    <g id="ytick_6">
     <g id="line2d_16">
      <path clip-path="url(#p82eeedbb8c)" d="M 64.862344 25.432288 
L 540.900267 25.432288 
" style="fill:none;stroke:#cccccc;stroke-linecap:round;"/>
     </g>
     <g id="text_17">
      <!-- 1.0 -->
      <g style="fill:#262626;" transform="translate(27.5485 31.323991)scale(0.154 -0.154)">
       <use xlink:href="#DejaVuSansMono-49"/>
       <use x="60.205078" xlink:href="#DejaVuSansMono-46"/>
       <use x="120.410156" xlink:href="#DejaVuSansMono-48"/>
      </g>
     </g>
    </g>
    <g id="text_18">
     <!-- Proportion of users -->
     <g style="fill:#262626;" transform="translate(20.054625 232.467913)rotate(-90)scale(0.168 -0.168)">
      <defs>
       <path d="M 19.484375 64.796875 
L 19.484375 37.40625 
L 30.90625 37.40625 
Q 37.75 37.40625 41.578125 41.015625 
Q 45.40625 44.625 45.40625 51.125 
Q 45.40625 57.625 41.59375 61.203125 
Q 37.796875 64.796875 30.90625 64.796875 
z
M 9.625 72.90625 
L 30.90625 72.90625 
Q 43.109375 72.90625 49.40625 67.359375 
Q 55.71875 61.8125 55.71875 51.125 
Q 55.71875 40.328125 49.4375 34.8125 
Q 43.171875 29.296875 30.90625 29.296875 
L 19.484375 29.296875 
L 19.484375 0 
L 9.625 0 
z
" id="DejaVuSansMono-80"/>
       <path d="M 56.390625 43.40625 
Q 53.515625 45.65625 50.53125 46.671875 
Q 47.5625 47.703125 44 47.703125 
Q 35.59375 47.703125 31.140625 42.421875 
Q 26.703125 37.15625 26.703125 27.203125 
L 26.703125 0 
L 17.671875 0 
L 17.671875 54.6875 
L 26.703125 54.6875 
L 26.703125 44 
Q 28.953125 49.8125 33.609375 52.90625 
Q 38.28125 56 44.671875 56 
Q 48 56 50.875 55.171875 
Q 53.765625 54.34375 56.390625 52.59375 
z
" id="DejaVuSansMono-114"/>
       <path d="M 30.078125 48.390625 
Q 23.25 48.390625 19.734375 43.0625 
Q 16.21875 37.75 16.21875 27.296875 
Q 16.21875 16.890625 19.734375 11.546875 
Q 23.25 6.203125 30.078125 6.203125 
Q 36.96875 6.203125 40.484375 11.546875 
Q 44 16.890625 44 27.296875 
Q 44 37.75 40.484375 43.0625 
Q 36.96875 48.390625 30.078125 48.390625 
z
M 30.078125 56 
Q 41.453125 56 47.484375 48.625 
Q 53.515625 41.265625 53.515625 27.296875 
Q 53.515625 13.28125 47.5 5.921875 
Q 41.5 -1.421875 30.078125 -1.421875 
Q 18.703125 -1.421875 12.6875 5.921875 
Q 6.6875 13.28125 6.6875 27.296875 
Q 6.6875 41.265625 12.6875 48.625 
Q 18.703125 56 30.078125 56 
z
" id="DejaVuSansMono-111"/>
       <path d="M 18.3125 6.890625 
L 18.3125 -20.796875 
L 9.28125 -20.796875 
L 9.28125 54.6875 
L 18.3125 54.6875 
L 18.3125 47.703125 
Q 20.5625 51.765625 24.296875 53.875 
Q 28.03125 56 32.90625 56 
Q 42.828125 56 48.46875 48.328125 
Q 54.109375 40.671875 54.109375 27.09375 
Q 54.109375 13.765625 48.4375 6.171875 
Q 42.78125 -1.421875 32.90625 -1.421875 
Q 27.9375 -1.421875 24.1875 0.703125 
Q 20.453125 2.828125 18.3125 6.890625 
z
M 44.671875 27.296875 
Q 44.671875 37.75 41.375 43.0625 
Q 38.09375 48.390625 31.59375 48.390625 
Q 25.046875 48.390625 21.671875 43.046875 
Q 18.3125 37.703125 18.3125 27.296875 
Q 18.3125 16.9375 21.671875 11.5625 
Q 25.046875 6.203125 31.59375 6.203125 
Q 38.09375 6.203125 41.375 11.515625 
Q 44.671875 16.84375 44.671875 27.296875 
z
" id="DejaVuSansMono-112"/>
       <path d="M 29.984375 70.21875 
L 29.984375 54.6875 
L 50.390625 54.6875 
L 50.390625 47.703125 
L 29.984375 47.703125 
L 29.984375 18.015625 
Q 29.984375 11.96875 32.28125 9.5625 
Q 34.578125 7.171875 40.28125 7.171875 
L 50.390625 7.171875 
L 50.390625 0 
L 39.40625 0 
Q 29.296875 0 25.140625 4.046875 
Q 21 8.109375 21 18.015625 
L 21 47.703125 
L 6.390625 47.703125 
L 6.390625 54.6875 
L 21 54.6875 
L 21 70.21875 
z
" id="DejaVuSansMono-116"/>
       <path d="M 12.5 54.6875 
L 35.5 54.6875 
L 35.5 6.984375 
L 53.328125 6.984375 
L 53.328125 0 
L 8.6875 0 
L 8.6875 6.984375 
L 26.515625 6.984375 
L 26.515625 47.703125 
L 12.5 47.703125 
z
M 26.515625 75.984375 
L 35.5 75.984375 
L 35.5 64.59375 
L 26.515625 64.59375 
z
" id="DejaVuSansMono-105"/>
       <path d="M 51.3125 33.890625 
L 51.3125 0 
L 42.28125 0 
L 42.28125 33.890625 
Q 42.28125 41.265625 39.6875 44.71875 
Q 37.109375 48.1875 31.59375 48.1875 
Q 25.296875 48.1875 21.890625 43.71875 
Q 18.5 39.265625 18.5 30.90625 
L 18.5 0 
L 9.515625 0 
L 9.515625 54.6875 
L 18.5 54.6875 
L 18.5 46.484375 
Q 20.90625 51.171875 25 53.578125 
Q 29.109375 56 34.71875 56 
Q 43.0625 56 47.1875 50.5 
Q 51.3125 45.015625 51.3125 33.890625 
z
" id="DejaVuSansMono-110"/>
       <path id="DejaVuSansMono-32"/>
       <path d="M 51.90625 75.984375 
L 51.90625 68.5 
L 41.703125 68.5 
Q 36.859375 68.5 34.984375 66.515625 
Q 33.109375 64.546875 33.109375 59.515625 
L 33.109375 54.6875 
L 51.90625 54.6875 
L 51.90625 47.703125 
L 33.109375 47.703125 
L 33.109375 0 
L 24.125 0 
L 24.125 47.703125 
L 9.515625 47.703125 
L 9.515625 54.6875 
L 24.125 54.6875 
L 24.125 58.5 
Q 24.125 67.484375 28.25 71.734375 
Q 32.375 75.984375 41.109375 75.984375 
z
" id="DejaVuSansMono-102"/>
       <path d="M 9.515625 20.703125 
L 9.515625 54.59375 
L 18.5 54.59375 
L 18.5 20.703125 
Q 18.5 13.328125 21.109375 9.859375 
Q 23.734375 6.390625 29.203125 6.390625 
Q 35.546875 6.390625 38.90625 10.859375 
Q 42.28125 15.328125 42.28125 23.6875 
L 42.28125 54.59375 
L 51.3125 54.59375 
L 51.3125 0 
L 42.28125 0 
L 42.28125 8.203125 
Q 39.890625 3.46875 35.765625 1.015625 
Q 31.640625 -1.421875 26.125 -1.421875 
Q 17.71875 -1.421875 13.609375 4.078125 
Q 9.515625 9.578125 9.515625 20.703125 
z
" id="DejaVuSansMono-117"/>
       <path d="M 47.515625 52.78125 
L 47.515625 44 
Q 43.65625 46.234375 39.75 47.359375 
Q 35.84375 48.484375 31.78125 48.484375 
Q 25.6875 48.484375 22.671875 46.5 
Q 19.671875 44.53125 19.671875 40.484375 
Q 19.671875 36.8125 21.921875 35 
Q 24.171875 33.203125 33.109375 31.5 
L 36.71875 30.8125 
Q 43.40625 29.546875 46.84375 25.734375 
Q 50.296875 21.921875 50.296875 15.828125 
Q 50.296875 7.71875 44.53125 3.140625 
Q 38.765625 -1.421875 28.515625 -1.421875 
Q 24.46875 -1.421875 20.015625 -0.5625 
Q 15.578125 0.296875 10.40625 2 
L 10.40625 11.28125 
Q 15.4375 8.6875 20.015625 7.390625 
Q 24.609375 6.109375 28.71875 6.109375 
Q 34.671875 6.109375 37.9375 8.515625 
Q 41.21875 10.9375 41.21875 15.28125 
Q 41.21875 21.53125 29.25 23.921875 
L 28.859375 24.03125 
L 25.484375 24.703125 
Q 17.71875 26.21875 14.15625 29.8125 
Q 10.59375 33.40625 10.59375 39.59375 
Q 10.59375 47.46875 15.90625 51.734375 
Q 21.234375 56 31.109375 56 
Q 35.5 56 39.546875 55.1875 
Q 43.609375 54.390625 47.515625 52.78125 
z
" id="DejaVuSansMono-115"/>
       <path d="M 54.296875 29.59375 
L 54.296875 25.203125 
L 15.375 25.203125 
L 15.375 24.90625 
Q 15.375 15.96875 20.03125 11.078125 
Q 24.703125 6.203125 33.203125 6.203125 
Q 37.5 6.203125 42.1875 7.5625 
Q 46.875 8.9375 52.203125 11.71875 
L 52.203125 2.78125 
Q 47.078125 0.6875 42.3125 -0.359375 
Q 37.546875 -1.421875 33.109375 -1.421875 
Q 20.359375 -1.421875 13.171875 6.21875 
Q 6 13.875 6 27.296875 
Q 6 40.375 13.03125 48.1875 
Q 20.0625 56 31.78125 56 
Q 42.234375 56 48.265625 48.921875 
Q 54.296875 41.84375 54.296875 29.59375 
z
M 45.3125 32.234375 
Q 45.125 40.140625 41.578125 44.265625 
Q 38.03125 48.390625 31.390625 48.390625 
Q 24.90625 48.390625 20.703125 44.09375 
Q 16.5 39.796875 15.71875 32.171875 
z
" id="DejaVuSansMono-101"/>
      </defs>
      <use xlink:href="#DejaVuSansMono-80"/>
      <use x="60.205078" xlink:href="#DejaVuSansMono-114"/>
      <use x="120.410156" xlink:href="#DejaVuSansMono-111"/>
      <use x="180.615234" xlink:href="#DejaVuSansMono-112"/>
      <use x="240.820312" xlink:href="#DejaVuSansMono-111"/>
      <use x="301.025391" xlink:href="#DejaVuSansMono-114"/>
      <use x="361.230469" xlink:href="#DejaVuSansMono-116"/>
      <use x="421.435547" xlink:href="#DejaVuSansMono-105"/>
      <use x="481.640625" xlink:href="#DejaVuSansMono-111"/>
      <use x="541.845703" xlink:href="#DejaVuSansMono-110"/>
      <use x="602.050781" xlink:href="#DejaVuSansMono-32"/>
      <use x="662.255859" xlink:href="#DejaVuSansMono-111"/>
      <use x="722.460938" xlink:href="#DejaVuSansMono-102"/>
      <use x="782.666016" xlink:href="#DejaVuSansMono-32"/>
      <use x="842.871094" xlink:href="#DejaVuSansMono-117"/>
      <use x="903.076172" xlink:href="#DejaVuSansMono-115"/>
      <use x="963.28125" xlink:href="#DejaVuSansMono-101"/>
      <use x="1023.486328" xlink:href="#DejaVuSansMono-114"/>
      <use x="1083.691406" xlink:href="#DejaVuSansMono-115"/>
     </g>
    </g>
   </g>
   <g id="PolyCollection_1">
    <defs>
     <path d="M 55.813003 -59.841444 
L 55.813003 -52.034625 
L 58.296102 -52.034625 
L 60.7792 -52.034625 
L 63.262299 -52.034625 
L 65.745397 -52.034625 
L 68.228496 -52.034625 
L 70.711594 -52.034625 
L 73.194693 -52.034625 
L 75.677791 -52.034625 
L 78.16089 -52.034625 
L 80.643988 -52.034625 
L 83.127087 -52.034625 
L 85.610185 -52.034625 
L 88.093284 -52.034625 
L 90.576383 -52.034625 
L 93.059481 -52.034625 
L 95.54258 -52.034625 
L 98.025678 -52.034625 
L 100.508777 -52.034625 
L 102.991875 -52.034625 
L 105.474974 -52.034625 
L 107.958072 -52.034625 
L 110.441171 -52.034625 
L 112.924269 -52.034625 
L 115.407368 -52.034625 
L 117.890466 -52.034625 
L 120.373565 -52.034625 
L 122.856663 -52.034625 
L 125.339762 -52.034625 
L 127.82286 -52.034625 
L 130.305959 -52.034625 
L 132.789057 -52.034625 
L 135.272156 -52.034625 
L 137.755254 -52.034625 
L 140.238353 -52.034625 
L 142.721451 -52.034625 
L 145.20455 -52.034625 
L 147.687648 -52.034625 
L 150.170747 -52.034625 
L 152.653845 -52.034625 
L 155.136944 -52.034625 
L 157.620042 -52.034625 
L 160.103141 -52.034625 
L 162.586239 -52.034625 
L 165.069338 -52.034625 
L 167.552436 -52.034625 
L 170.035535 -52.034625 
L 172.518633 -52.034625 
L 175.001732 -52.034625 
L 177.48483 -52.034625 
L 179.967929 -52.034625 
L 182.451028 -52.034625 
L 184.934126 -52.034625 
L 187.417225 -52.034625 
L 189.900323 -52.034625 
L 192.383422 -52.034625 
L 194.86652 -52.034625 
L 197.349619 -52.034625 
L 199.832717 -52.034625 
L 202.315816 -52.034625 
L 204.798914 -52.034625 
L 207.282013 -52.034625 
L 209.765111 -52.034625 
L 212.24821 -52.034625 
L 214.731308 -52.034625 
L 217.214407 -52.034625 
L 219.697505 -52.034625 
L 222.180604 -52.034625 
L 224.663702 -52.034625 
L 227.146801 -52.034625 
L 229.629899 -52.034625 
L 232.112998 -52.034625 
L 234.596096 -52.034625 
L 237.079195 -52.034625 
L 239.562293 -52.034625 
L 242.045392 -52.034625 
L 244.52849 -52.034625 
L 247.011589 -52.034625 
L 249.494687 -52.034625 
L 251.977786 -52.034625 
L 254.460884 -52.034625 
L 256.943983 -52.034625 
L 259.427081 -52.034625 
L 261.91018 -52.034625 
L 264.393278 -52.034625 
L 266.876377 -52.034625 
L 269.359476 -52.034625 
L 271.842574 -52.034625 
L 274.325673 -52.034625 
L 276.808771 -52.034625 
L 279.29187 -52.034625 
L 281.774968 -52.034625 
L 284.258067 -52.034625 
L 286.741165 -52.034625 
L 289.224264 -52.034625 
L 291.707362 -52.034625 
L 294.190461 -52.034625 
L 296.673559 -52.034625 
L 299.156658 -52.034625 
L 301.639756 -52.034625 
L 304.122855 -52.034625 
L 306.605953 -52.034625 
L 309.089052 -52.034625 
L 311.57215 -52.034625 
L 314.055249 -52.034625 
L 316.538347 -52.034625 
L 319.021446 -52.034625 
L 321.504544 -52.034625 
L 323.987643 -52.034625 
L 326.470741 -52.034625 
L 328.95384 -52.034625 
L 331.436938 -52.034625 
L 333.920037 -52.034625 
L 336.403135 -52.034625 
L 338.886234 -52.034625 
L 341.369332 -52.034625 
L 343.852431 -52.034625 
L 346.335529 -52.034625 
L 348.818628 -52.034625 
L 351.301726 -52.034625 
L 353.784825 -52.034625 
L 356.267924 -52.034625 
L 358.751022 -52.034625 
L 361.234121 -52.034625 
L 363.717219 -52.034625 
L 366.200318 -52.034625 
L 368.683416 -52.034625 
L 371.166515 -52.034625 
L 373.649613 -52.034625 
L 376.132712 -52.034625 
L 378.61581 -52.034625 
L 381.098909 -52.034625 
L 383.582007 -52.034625 
L 386.065106 -52.034625 
L 388.548204 -52.034625 
L 391.031303 -52.034625 
L 393.514401 -52.034625 
L 395.9975 -52.034625 
L 398.480598 -52.034625 
L 400.963697 -52.034625 
L 403.446795 -52.034625 
L 405.929894 -52.034625 
L 408.412992 -52.034625 
L 410.896091 -52.034625 
L 413.379189 -52.034625 
L 415.862288 -52.034625 
L 418.345386 -52.034625 
L 420.828485 -52.034625 
L 423.311583 -52.034625 
L 425.794682 -52.034625 
L 428.27778 -52.034625 
L 430.760879 -52.034625 
L 433.243977 -52.034625 
L 435.727076 -52.034625 
L 438.210174 -52.034625 
L 440.693273 -52.034625 
L 443.176371 -52.034625 
L 445.65947 -52.034625 
L 448.142569 -52.034625 
L 450.625667 -52.034625 
L 453.108766 -52.034625 
L 455.591864 -52.034625 
L 458.074963 -52.034625 
L 460.558061 -52.034625 
L 463.04116 -52.034625 
L 465.524258 -52.034625 
L 468.007357 -52.034625 
L 470.490455 -52.034625 
L 472.973554 -52.034625 
L 475.456652 -52.034625 
L 477.939751 -52.034625 
L 480.422849 -52.034625 
L 482.905948 -52.034625 
L 485.389046 -52.034625 
L 487.872145 -52.034625 
L 490.355243 -52.034625 
L 492.838342 -52.034625 
L 495.32144 -52.034625 
L 497.804539 -52.034625 
L 500.287637 -52.034625 
L 502.770736 -52.034625 
L 505.253834 -52.034625 
L 507.736933 -52.034625 
L 510.220031 -52.034625 
L 512.70313 -52.034625 
L 515.186228 -52.034625 
L 517.669327 -52.034625 
L 520.152425 -52.034625 
L 522.635524 -52.034625 
L 525.118622 -52.034625 
L 527.601721 -52.034625 
L 530.084819 -52.034625 
L 532.567918 -52.034625 
L 535.051017 -52.034625 
L 537.534115 -52.034625 
L 540.017214 -52.034625 
L 542.500312 -52.034625 
L 544.983411 -52.034625 
L 547.466509 -52.034625 
L 549.949608 -52.034625 
L 549.949608 -109.798786 
L 549.949608 -109.798786 
L 547.466509 -153.471395 
L 544.983411 -185.141045 
L 542.500312 -200.603163 
L 540.017214 -202.874418 
L 537.534115 -194.731404 
L 535.051017 -183.467391 
L 532.567918 -180.765693 
L 530.084819 -170.124449 
L 527.601721 -164.343216 
L 525.118622 -180.60996 
L 522.635524 -193.202642 
L 520.152425 -194.382494 
L 517.669327 -186.485925 
L 515.186228 -179.045092 
L 512.70313 -183.785437 
L 510.220031 -191.889027 
L 507.736933 -195.911718 
L 505.253834 -200.593846 
L 502.770736 -204.77918 
L 500.287637 -201.463348 
L 497.804539 -193.552692 
L 495.32144 -197.796359 
L 492.838342 -205.903572 
L 490.355243 -205.86959 
L 487.872145 -199.11424 
L 485.389046 -195.66138 
L 482.905948 -200.763094 
L 480.422849 -205.651084 
L 477.939751 -208.81324 
L 475.456652 -213.562122 
L 472.973554 -217.735083 
L 470.490455 -216.343875 
L 468.007357 -210.64018 
L 465.524258 -205.571258 
L 463.04116 -199.867932 
L 460.558061 -189.588395 
L 458.074963 -181.647346 
L 455.591864 -182.693383 
L 453.108766 -185.394529 
L 450.625667 -183.906313 
L 448.142569 -180.928264 
L 445.65947 -182.197617 
L 443.176371 -187.510214 
L 440.693273 -192.725076 
L 438.210174 -196.160495 
L 435.727076 -198.302845 
L 433.243977 -199.285633 
L 430.760879 -197.814642 
L 428.27778 -195.950507 
L 425.794682 -196.577818 
L 423.311583 -198.447957 
L 420.828485 -198.55536 
L 418.345386 -196.879882 
L 415.862288 -195.034226 
L 413.379189 -194.361574 
L 410.896091 -195.130139 
L 408.412992 -196.544607 
L 405.929894 -196.922655 
L 403.446795 -197.104581 
L 400.963697 -198.123586 
L 398.480598 -199.957881 
L 395.9975 -202.167421 
L 393.514401 -204.199748 
L 391.031303 -205.370324 
L 388.548204 -206.264718 
L 386.065106 -206.934497 
L 383.582007 -206.880629 
L 381.098909 -205.622349 
L 378.61581 -204.001401 
L 376.132712 -202.447989 
L 373.649613 -201.174969 
L 371.166515 -200.441045 
L 368.683416 -200.856368 
L 366.200318 -202.152542 
L 363.717219 -203.342777 
L 361.234121 -204.137385 
L 358.751022 -205.346806 
L 356.267924 -206.722057 
L 353.784825 -207.123114 
L 351.301726 -205.630513 
L 348.818628 -204.302431 
L 346.335529 -204.869635 
L 343.852431 -206.749999 
L 341.369332 -208.883751 
L 338.886234 -210.019578 
L 336.403135 -209.885087 
L 333.920037 -209.796577 
L 331.436938 -210.382547 
L 328.95384 -211.624642 
L 326.470741 -213.180644 
L 323.987643 -214.666305 
L 321.504544 -215.543263 
L 319.021446 -215.040518 
L 316.538347 -213.620302 
L 314.055249 -213.350079 
L 311.57215 -214.434452 
L 309.089052 -215.132135 
L 306.605953 -214.969219 
L 304.122855 -214.914002 
L 301.639756 -215.071935 
L 299.156658 -214.606101 
L 296.673559 -213.75981 
L 294.190461 -213.55856 
L 291.707362 -213.892785 
L 289.224264 -213.720728 
L 286.741165 -213.547746 
L 284.258067 -214.510563 
L 281.774968 -215.775894 
L 279.29187 -215.3491 
L 276.808771 -213.590584 
L 274.325673 -212.483037 
L 271.842574 -212.327756 
L 269.359476 -211.783253 
L 266.876377 -210.974956 
L 264.393278 -210.786314 
L 261.91018 -211.022038 
L 259.427081 -210.615198 
L 256.943983 -210.14281 
L 254.460884 -210.552327 
L 251.977786 -211.520212 
L 249.494687 -212.14217 
L 247.011589 -212.38956 
L 244.52849 -212.13537 
L 242.045392 -211.504361 
L 239.562293 -210.381173 
L 237.079195 -209.575581 
L 234.596096 -209.869875 
L 232.112998 -210.892511 
L 229.629899 -211.56623 
L 227.146801 -211.977678 
L 224.663702 -212.190886 
L 222.180604 -212.4778 
L 219.697505 -212.872954 
L 217.214407 -213.567682 
L 214.731308 -214.401858 
L 212.24821 -215.03613 
L 209.765111 -214.86029 
L 207.282013 -214.506788 
L 204.798914 -214.45667 
L 202.315816 -214.763457 
L 199.832717 -215.047091 
L 197.349619 -215.311097 
L 194.86652 -215.256445 
L 192.383422 -214.815502 
L 189.900323 -213.773017 
L 187.417225 -212.280127 
L 184.934126 -210.367253 
L 182.451028 -209.483802 
L 179.967929 -210.459914 
L 177.48483 -211.951693 
L 175.001732 -212.974238 
L 172.518633 -213.983036 
L 170.035535 -214.749196 
L 167.552436 -214.919527 
L 165.069338 -214.411186 
L 162.586239 -214.386483 
L 160.103141 -215.072091 
L 157.620042 -215.329666 
L 155.136944 -214.464942 
L 152.653845 -213.637379 
L 150.170747 -213.50619 
L 147.687648 -213.812419 
L 145.20455 -214.048035 
L 142.721451 -214.171224 
L 140.238353 -213.996743 
L 137.755254 -213.961808 
L 135.272156 -214.124673 
L 132.789057 -214.124773 
L 130.305959 -213.833787 
L 127.82286 -213.51303 
L 125.339762 -213.594898 
L 122.856663 -214.636119 
L 120.373565 -216.00817 
L 117.890466 -216.30764 
L 115.407368 -215.627886 
L 112.924269 -214.914583 
L 110.441171 -214.443084 
L 107.958072 -213.757085 
L 105.474974 -212.973941 
L 102.991875 -212.377381 
L 100.508777 -212.159605 
L 98.025678 -212.047261 
L 95.54258 -211.942972 
L 93.059481 -211.582964 
L 90.576383 -210.999249 
L 88.093284 -210.034451 
L 85.610185 -208.711237 
L 83.127087 -206.655659 
L 80.643988 -203.656097 
L 78.16089 -200.757769 
L 75.677791 -201.550101 
L 73.194693 -206.970246 
L 70.711594 -211.693346 
L 68.228496 -209.618935 
L 65.745397 -196.464384 
L 63.262299 -167.737233 
L 60.7792 -123.691772 
L 58.296102 -81.573608 
L 55.813003 -59.841444 
z
" id="m951fe472d2" style="stroke:#ffffff;"/>
    </defs>
    <g clip-path="url(#p82eeedbb8c)">
     <use style="fill:#008000;fill-opacity:0.7;stroke:#ffffff;" x="0" xlink:href="#m951fe472d2" y="299.369788"/>
    </g>
   </g>
   <g id="PolyCollection_2">
    <defs>
     <path d="M 55.813003 -255.027258 
L 55.813003 -59.841444 
L 58.296102 -81.573608 
L 60.7792 -123.691772 
L 63.262299 -167.737233 
L 65.745397 -196.464384 
L 68.228496 -209.618935 
L 70.711594 -211.693346 
L 73.194693 -206.970246 
L 75.677791 -201.550101 
L 78.16089 -200.757769 
L 80.643988 -203.656097 
L 83.127087 -206.655659 
L 85.610185 -208.711237 
L 88.093284 -210.034451 
L 90.576383 -210.999249 
L 93.059481 -211.582964 
L 95.54258 -211.942972 
L 98.025678 -212.047261 
L 100.508777 -212.159605 
L 102.991875 -212.377381 
L 105.474974 -212.973941 
L 107.958072 -213.757085 
L 110.441171 -214.443084 
L 112.924269 -214.914583 
L 115.407368 -215.627886 
L 117.890466 -216.30764 
L 120.373565 -216.00817 
L 122.856663 -214.636119 
L 125.339762 -213.594898 
L 127.82286 -213.51303 
L 130.305959 -213.833787 
L 132.789057 -214.124773 
L 135.272156 -214.124673 
L 137.755254 -213.961808 
L 140.238353 -213.996743 
L 142.721451 -214.171224 
L 145.20455 -214.048035 
L 147.687648 -213.812419 
L 150.170747 -213.50619 
L 152.653845 -213.637379 
L 155.136944 -214.464942 
L 157.620042 -215.329666 
L 160.103141 -215.072091 
L 162.586239 -214.386483 
L 165.069338 -214.411186 
L 167.552436 -214.919527 
L 170.035535 -214.749196 
L 172.518633 -213.983036 
L 175.001732 -212.974238 
L 177.48483 -211.951693 
L 179.967929 -210.459914 
L 182.451028 -209.483802 
L 184.934126 -210.367253 
L 187.417225 -212.280127 
L 189.900323 -213.773017 
L 192.383422 -214.815502 
L 194.86652 -215.256445 
L 197.349619 -215.311097 
L 199.832717 -215.047091 
L 202.315816 -214.763457 
L 204.798914 -214.45667 
L 207.282013 -214.506788 
L 209.765111 -214.86029 
L 212.24821 -215.03613 
L 214.731308 -214.401858 
L 217.214407 -213.567682 
L 219.697505 -212.872954 
L 222.180604 -212.4778 
L 224.663702 -212.190886 
L 227.146801 -211.977678 
L 229.629899 -211.56623 
L 232.112998 -210.892511 
L 234.596096 -209.869875 
L 237.079195 -209.575581 
L 239.562293 -210.381173 
L 242.045392 -211.504361 
L 244.52849 -212.13537 
L 247.011589 -212.38956 
L 249.494687 -212.14217 
L 251.977786 -211.520212 
L 254.460884 -210.552327 
L 256.943983 -210.14281 
L 259.427081 -210.615198 
L 261.91018 -211.022038 
L 264.393278 -210.786314 
L 266.876377 -210.974956 
L 269.359476 -211.783253 
L 271.842574 -212.327756 
L 274.325673 -212.483037 
L 276.808771 -213.590584 
L 279.29187 -215.3491 
L 281.774968 -215.775894 
L 284.258067 -214.510563 
L 286.741165 -213.547746 
L 289.224264 -213.720728 
L 291.707362 -213.892785 
L 294.190461 -213.55856 
L 296.673559 -213.75981 
L 299.156658 -214.606101 
L 301.639756 -215.071935 
L 304.122855 -214.914002 
L 306.605953 -214.969219 
L 309.089052 -215.132135 
L 311.57215 -214.434452 
L 314.055249 -213.350079 
L 316.538347 -213.620302 
L 319.021446 -215.040518 
L 321.504544 -215.543263 
L 323.987643 -214.666305 
L 326.470741 -213.180644 
L 328.95384 -211.624642 
L 331.436938 -210.382547 
L 333.920037 -209.796577 
L 336.403135 -209.885087 
L 338.886234 -210.019578 
L 341.369332 -208.883751 
L 343.852431 -206.749999 
L 346.335529 -204.869635 
L 348.818628 -204.302431 
L 351.301726 -205.630513 
L 353.784825 -207.123114 
L 356.267924 -206.722057 
L 358.751022 -205.346806 
L 361.234121 -204.137385 
L 363.717219 -203.342777 
L 366.200318 -202.152542 
L 368.683416 -200.856368 
L 371.166515 -200.441045 
L 373.649613 -201.174969 
L 376.132712 -202.447989 
L 378.61581 -204.001401 
L 381.098909 -205.622349 
L 383.582007 -206.880629 
L 386.065106 -206.934497 
L 388.548204 -206.264718 
L 391.031303 -205.370324 
L 393.514401 -204.199748 
L 395.9975 -202.167421 
L 398.480598 -199.957881 
L 400.963697 -198.123586 
L 403.446795 -197.104581 
L 405.929894 -196.922655 
L 408.412992 -196.544607 
L 410.896091 -195.130139 
L 413.379189 -194.361574 
L 415.862288 -195.034226 
L 418.345386 -196.879882 
L 420.828485 -198.55536 
L 423.311583 -198.447957 
L 425.794682 -196.577818 
L 428.27778 -195.950507 
L 430.760879 -197.814642 
L 433.243977 -199.285633 
L 435.727076 -198.302845 
L 438.210174 -196.160495 
L 440.693273 -192.725076 
L 443.176371 -187.510214 
L 445.65947 -182.197617 
L 448.142569 -180.928264 
L 450.625667 -183.906313 
L 453.108766 -185.394529 
L 455.591864 -182.693383 
L 458.074963 -181.647346 
L 460.558061 -189.588395 
L 463.04116 -199.867932 
L 465.524258 -205.571258 
L 468.007357 -210.64018 
L 470.490455 -216.343875 
L 472.973554 -217.735083 
L 475.456652 -213.562122 
L 477.939751 -208.81324 
L 480.422849 -205.651084 
L 482.905948 -200.763094 
L 485.389046 -195.66138 
L 487.872145 -199.11424 
L 490.355243 -205.86959 
L 492.838342 -205.903572 
L 495.32144 -197.796359 
L 497.804539 -193.552692 
L 500.287637 -201.463348 
L 502.770736 -204.77918 
L 505.253834 -200.593846 
L 507.736933 -195.911718 
L 510.220031 -191.889027 
L 512.70313 -183.785437 
L 515.186228 -179.045092 
L 517.669327 -186.485925 
L 520.152425 -194.382494 
L 522.635524 -193.202642 
L 525.118622 -180.60996 
L 527.601721 -164.343216 
L 530.084819 -170.124449 
L 532.567918 -180.765693 
L 535.051017 -183.467391 
L 537.534115 -194.731404 
L 540.017214 -202.874418 
L 542.500312 -200.603163 
L 544.983411 -185.141045 
L 547.466509 -153.471395 
L 549.949608 -109.798786 
L 549.949608 -245.976025 
L 549.949608 -245.976025 
L 547.466509 -245.605037 
L 544.983411 -248.431195 
L 542.500312 -250.813757 
L 540.017214 -251.696236 
L 537.534115 -251.932367 
L 535.051017 -254.509897 
L 532.567918 -259.683863 
L 530.084819 -257.953864 
L 527.601721 -251.060898 
L 525.118622 -249.588678 
L 522.635524 -250.691611 
L 520.152425 -251.326079 
L 517.669327 -251.984655 
L 515.186228 -255.031792 
L 512.70313 -260.058045 
L 510.220031 -262.88946 
L 507.736933 -263.359196 
L 505.253834 -263.006757 
L 502.770736 -262.551327 
L 500.287637 -261.523861 
L 497.804539 -259.380572 
L 495.32144 -258.154592 
L 492.838342 -258.424181 
L 490.355243 -258.800931 
L 487.872145 -259.717333 
L 485.389046 -262.181109 
L 482.905948 -264.233091 
L 480.422849 -264.049213 
L 477.939751 -263.327426 
L 475.456652 -264.414181 
L 472.973554 -266.811219 
L 470.490455 -267.252175 
L 468.007357 -264.368461 
L 465.524258 -260.359892 
L 463.04116 -257.369174 
L 460.558061 -254.477034 
L 458.074963 -250.85936 
L 455.591864 -248.687083 
L 453.108766 -248.530776 
L 450.625667 -249.668176 
L 448.142569 -252.714429 
L 445.65947 -257.288798 
L 443.176371 -260.408237 
L 440.693273 -260.772585 
L 438.210174 -259.682731 
L 435.727076 -258.403093 
L 433.243977 -257.591895 
L 430.760879 -257.159407 
L 428.27778 -257.06342 
L 425.794682 -257.265771 
L 423.311583 -257.734193 
L 420.828485 -258.346908 
L 418.345386 -258.614614 
L 415.862288 -258.122331 
L 413.379189 -257.512697 
L 410.896091 -257.392057 
L 408.412992 -257.521385 
L 405.929894 -257.554444 
L 403.446795 -258.185274 
L 400.963697 -259.845298 
L 398.480598 -261.563732 
L 395.9975 -262.277991 
L 393.514401 -262.131464 
L 391.031303 -261.523039 
L 388.548204 -260.568716 
L 386.065106 -259.410338 
L 383.582007 -258.546029 
L 381.098909 -258.233147 
L 378.61581 -258.445482 
L 376.132712 -258.970068 
L 373.649613 -259.792289 
L 371.166515 -260.776767 
L 368.683416 -261.518141 
L 366.200318 -261.632912 
L 363.717219 -261.115553 
L 361.234121 -260.363404 
L 358.751022 -260.049078 
L 356.267924 -260.44308 
L 353.784825 -261.270596 
L 351.301726 -262.033674 
L 348.818628 -262.571681 
L 346.335529 -262.833927 
L 343.852431 -262.917951 
L 341.369332 -262.975723 
L 338.886234 -262.934247 
L 336.403135 -262.697916 
L 333.920037 -262.457305 
L 331.436938 -262.618927 
L 328.95384 -263.586254 
L 326.470741 -265.015875 
L 323.987643 -265.97186 
L 321.504544 -266.192155 
L 319.021446 -266.182388 
L 316.538347 -266.265553 
L 314.055249 -266.371987 
L 311.57215 -266.317649 
L 309.089052 -266.010857 
L 306.605953 -265.270958 
L 304.122855 -263.981321 
L 301.639756 -262.524087 
L 299.156658 -261.400473 
L 296.673559 -260.687571 
L 294.190461 -260.221574 
L 291.707362 -259.97661 
L 289.224264 -260.058754 
L 286.741165 -260.687968 
L 284.258067 -261.835712 
L 281.774968 -262.853305 
L 279.29187 -263.006973 
L 276.808771 -262.410774 
L 274.325673 -261.804574 
L 271.842574 -261.624282 
L 269.359476 -261.716353 
L 266.876377 -261.844531 
L 264.393278 -261.861972 
L 261.91018 -261.842091 
L 259.427081 -261.830394 
L 256.943983 -261.768407 
L 254.460884 -261.560596 
L 251.977786 -261.406497 
L 249.494687 -261.521088 
L 247.011589 -261.710638 
L 244.52849 -261.502582 
L 242.045392 -260.842402 
L 239.562293 -260.026319 
L 237.079195 -259.656501 
L 234.596096 -260.130114 
L 232.112998 -261.168151 
L 229.629899 -262.125721 
L 227.146801 -262.63721 
L 224.663702 -262.549612 
L 222.180604 -262.084712 
L 219.697505 -261.533103 
L 217.214407 -261.059545 
L 214.731308 -260.68604 
L 212.24821 -260.471445 
L 209.765111 -260.392804 
L 207.282013 -260.537711 
L 204.798914 -260.824948 
L 202.315816 -261.072773 
L 199.832717 -261.132646 
L 197.349619 -261.097305 
L 194.86652 -261.036491 
L 192.383422 -260.979501 
L 189.900323 -260.817659 
L 187.417225 -260.497749 
L 184.934126 -260.018924 
L 182.451028 -259.752411 
L 179.967929 -259.924272 
L 177.48483 -260.262433 
L 175.001732 -260.544745 
L 172.518633 -260.838591 
L 170.035535 -261.061768 
L 167.552436 -261.068734 
L 165.069338 -260.74011 
L 162.586239 -260.291367 
L 160.103141 -259.927905 
L 157.620042 -259.664018 
L 155.136944 -259.474548 
L 152.653845 -259.541316 
L 150.170747 -259.786283 
L 147.687648 -259.948304 
L 145.20455 -259.937877 
L 142.721451 -259.964151 
L 140.238353 -260.040414 
L 137.755254 -260.02039 
L 135.272156 -259.792004 
L 132.789057 -259.456515 
L 130.305959 -259.109736 
L 127.82286 -258.784913 
L 125.339762 -258.624012 
L 122.856663 -258.870211 
L 120.373565 -259.314803 
L 117.890466 -259.447579 
L 115.407368 -259.268291 
L 112.924269 -259.065953 
L 110.441171 -258.83658 
L 107.958072 -258.364015 
L 105.474974 -257.747887 
L 102.991875 -257.224633 
L 100.508777 -256.918961 
L 98.025678 -256.742151 
L 95.54258 -256.622003 
L 93.059481 -256.448076 
L 90.576383 -256.212951 
L 88.093284 -255.876122 
L 85.610185 -255.452738 
L 83.127087 -254.802704 
L 80.643988 -253.591062 
L 78.16089 -251.454586 
L 75.677791 -249.230659 
L 73.194693 -248.47824 
L 70.711594 -248.689709 
L 68.228496 -247.866229 
L 65.745397 -244.896757 
L 63.262299 -240.379859 
L 60.7792 -238.228576 
L 58.296102 -243.924443 
L 55.813003 -255.027258 
z
" id="md9094abed4" style="stroke:#ffffff;"/>
    </defs>
    <g clip-path="url(#p82eeedbb8c)">
     <use style="fill:#ff4500;fill-opacity:0.7;stroke:#ffffff;" x="0" xlink:href="#md9094abed4" y="299.369788"/>
    </g>
   </g>
   <g id="PolyCollection_3">
    <defs>
     <path d="M 55.813003 -273.9375 
L 55.813003 -255.027258 
L 58.296102 -243.924443 
L 60.7792 -238.228576 
L 63.262299 -240.379859 
L 65.745397 -244.896757 
L 68.228496 -247.866229 
L 70.711594 -248.689709 
L 73.194693 -248.47824 
L 75.677791 -249.230659 
L 78.16089 -251.454586 
L 80.643988 -253.591062 
L 83.127087 -254.802704 
L 85.610185 -255.452738 
L 88.093284 -255.876122 
L 90.576383 -256.212951 
L 93.059481 -256.448076 
L 95.54258 -256.622003 
L 98.025678 -256.742151 
L 100.508777 -256.918961 
L 102.991875 -257.224633 
L 105.474974 -257.747887 
L 107.958072 -258.364015 
L 110.441171 -258.83658 
L 112.924269 -259.065953 
L 115.407368 -259.268291 
L 117.890466 -259.447579 
L 120.373565 -259.314803 
L 122.856663 -258.870211 
L 125.339762 -258.624012 
L 127.82286 -258.784913 
L 130.305959 -259.109736 
L 132.789057 -259.456515 
L 135.272156 -259.792004 
L 137.755254 -260.02039 
L 140.238353 -260.040414 
L 142.721451 -259.964151 
L 145.20455 -259.937877 
L 147.687648 -259.948304 
L 150.170747 -259.786283 
L 152.653845 -259.541316 
L 155.136944 -259.474548 
L 157.620042 -259.664018 
L 160.103141 -259.927905 
L 162.586239 -260.291367 
L 165.069338 -260.74011 
L 167.552436 -261.068734 
L 170.035535 -261.061768 
L 172.518633 -260.838591 
L 175.001732 -260.544745 
L 177.48483 -260.262433 
L 179.967929 -259.924272 
L 182.451028 -259.752411 
L 184.934126 -260.018924 
L 187.417225 -260.497749 
L 189.900323 -260.817659 
L 192.383422 -260.979501 
L 194.86652 -261.036491 
L 197.349619 -261.097305 
L 199.832717 -261.132646 
L 202.315816 -261.072773 
L 204.798914 -260.824948 
L 207.282013 -260.537711 
L 209.765111 -260.392804 
L 212.24821 -260.471445 
L 214.731308 -260.68604 
L 217.214407 -261.059545 
L 219.697505 -261.533103 
L 222.180604 -262.084712 
L 224.663702 -262.549612 
L 227.146801 -262.63721 
L 229.629899 -262.125721 
L 232.112998 -261.168151 
L 234.596096 -260.130114 
L 237.079195 -259.656501 
L 239.562293 -260.026319 
L 242.045392 -260.842402 
L 244.52849 -261.502582 
L 247.011589 -261.710638 
L 249.494687 -261.521088 
L 251.977786 -261.406497 
L 254.460884 -261.560596 
L 256.943983 -261.768407 
L 259.427081 -261.830394 
L 261.91018 -261.842091 
L 264.393278 -261.861972 
L 266.876377 -261.844531 
L 269.359476 -261.716353 
L 271.842574 -261.624282 
L 274.325673 -261.804574 
L 276.808771 -262.410774 
L 279.29187 -263.006973 
L 281.774968 -262.853305 
L 284.258067 -261.835712 
L 286.741165 -260.687968 
L 289.224264 -260.058754 
L 291.707362 -259.97661 
L 294.190461 -260.221574 
L 296.673559 -260.687571 
L 299.156658 -261.400473 
L 301.639756 -262.524087 
L 304.122855 -263.981321 
L 306.605953 -265.270958 
L 309.089052 -266.010857 
L 311.57215 -266.317649 
L 314.055249 -266.371987 
L 316.538347 -266.265553 
L 319.021446 -266.182388 
L 321.504544 -266.192155 
L 323.987643 -265.97186 
L 326.470741 -265.015875 
L 328.95384 -263.586254 
L 331.436938 -262.618927 
L 333.920037 -262.457305 
L 336.403135 -262.697916 
L 338.886234 -262.934247 
L 341.369332 -262.975723 
L 343.852431 -262.917951 
L 346.335529 -262.833927 
L 348.818628 -262.571681 
L 351.301726 -262.033674 
L 353.784825 -261.270596 
L 356.267924 -260.44308 
L 358.751022 -260.049078 
L 361.234121 -260.363404 
L 363.717219 -261.115553 
L 366.200318 -261.632912 
L 368.683416 -261.518141 
L 371.166515 -260.776767 
L 373.649613 -259.792289 
L 376.132712 -258.970068 
L 378.61581 -258.445482 
L 381.098909 -258.233147 
L 383.582007 -258.546029 
L 386.065106 -259.410338 
L 388.548204 -260.568716 
L 391.031303 -261.523039 
L 393.514401 -262.131464 
L 395.9975 -262.277991 
L 398.480598 -261.563732 
L 400.963697 -259.845298 
L 403.446795 -258.185274 
L 405.929894 -257.554444 
L 408.412992 -257.521385 
L 410.896091 -257.392057 
L 413.379189 -257.512697 
L 415.862288 -258.122331 
L 418.345386 -258.614614 
L 420.828485 -258.346908 
L 423.311583 -257.734193 
L 425.794682 -257.265771 
L 428.27778 -257.06342 
L 430.760879 -257.159407 
L 433.243977 -257.591895 
L 435.727076 -258.403093 
L 438.210174 -259.682731 
L 440.693273 -260.772585 
L 443.176371 -260.408237 
L 445.65947 -257.288798 
L 448.142569 -252.714429 
L 450.625667 -249.668176 
L 453.108766 -248.530776 
L 455.591864 -248.687083 
L 458.074963 -250.85936 
L 460.558061 -254.477034 
L 463.04116 -257.369174 
L 465.524258 -260.359892 
L 468.007357 -264.368461 
L 470.490455 -267.252175 
L 472.973554 -266.811219 
L 475.456652 -264.414181 
L 477.939751 -263.327426 
L 480.422849 -264.049213 
L 482.905948 -264.233091 
L 485.389046 -262.181109 
L 487.872145 -259.717333 
L 490.355243 -258.800931 
L 492.838342 -258.424181 
L 495.32144 -258.154592 
L 497.804539 -259.380572 
L 500.287637 -261.523861 
L 502.770736 -262.551327 
L 505.253834 -263.006757 
L 507.736933 -263.359196 
L 510.220031 -262.88946 
L 512.70313 -260.058045 
L 515.186228 -255.031792 
L 517.669327 -251.984655 
L 520.152425 -251.326079 
L 522.635524 -250.691611 
L 525.118622 -249.588678 
L 527.601721 -251.060898 
L 530.084819 -257.953864 
L 532.567918 -259.683863 
L 535.051017 -254.509897 
L 537.534115 -251.932367 
L 540.017214 -251.696236 
L 542.500312 -250.813757 
L 544.983411 -248.431195 
L 547.466509 -245.605037 
L 549.949608 -245.976025 
L 549.949608 -273.9375 
L 549.949608 -273.9375 
L 547.466509 -273.9375 
L 544.983411 -273.9375 
L 542.500312 -273.9375 
L 540.017214 -273.9375 
L 537.534115 -273.9375 
L 535.051017 -273.9375 
L 532.567918 -273.9375 
L 530.084819 -273.9375 
L 527.601721 -273.9375 
L 525.118622 -273.9375 
L 522.635524 -273.9375 
L 520.152425 -273.9375 
L 517.669327 -273.9375 
L 515.186228 -273.9375 
L 512.70313 -273.9375 
L 510.220031 -273.9375 
L 507.736933 -273.9375 
L 505.253834 -273.9375 
L 502.770736 -273.9375 
L 500.287637 -273.9375 
L 497.804539 -273.9375 
L 495.32144 -273.9375 
L 492.838342 -273.9375 
L 490.355243 -273.9375 
L 487.872145 -273.9375 
L 485.389046 -273.9375 
L 482.905948 -273.9375 
L 480.422849 -273.9375 
L 477.939751 -273.9375 
L 475.456652 -273.9375 
L 472.973554 -273.9375 
L 470.490455 -273.9375 
L 468.007357 -273.9375 
L 465.524258 -273.9375 
L 463.04116 -273.9375 
L 460.558061 -273.9375 
L 458.074963 -273.9375 
L 455.591864 -273.9375 
L 453.108766 -273.9375 
L 450.625667 -273.9375 
L 448.142569 -273.9375 
L 445.65947 -273.9375 
L 443.176371 -273.9375 
L 440.693273 -273.9375 
L 438.210174 -273.9375 
L 435.727076 -273.9375 
L 433.243977 -273.9375 
L 430.760879 -273.9375 
L 428.27778 -273.9375 
L 425.794682 -273.9375 
L 423.311583 -273.9375 
L 420.828485 -273.9375 
L 418.345386 -273.9375 
L 415.862288 -273.9375 
L 413.379189 -273.9375 
L 410.896091 -273.9375 
L 408.412992 -273.9375 
L 405.929894 -273.9375 
L 403.446795 -273.9375 
L 400.963697 -273.9375 
L 398.480598 -273.9375 
L 395.9975 -273.9375 
L 393.514401 -273.9375 
L 391.031303 -273.9375 
L 388.548204 -273.9375 
L 386.065106 -273.9375 
L 383.582007 -273.9375 
L 381.098909 -273.9375 
L 378.61581 -273.9375 
L 376.132712 -273.9375 
L 373.649613 -273.9375 
L 371.166515 -273.9375 
L 368.683416 -273.9375 
L 366.200318 -273.9375 
L 363.717219 -273.9375 
L 361.234121 -273.9375 
L 358.751022 -273.9375 
L 356.267924 -273.9375 
L 353.784825 -273.9375 
L 351.301726 -273.9375 
L 348.818628 -273.9375 
L 346.335529 -273.9375 
L 343.852431 -273.9375 
L 341.369332 -273.9375 
L 338.886234 -273.9375 
L 336.403135 -273.9375 
L 333.920037 -273.9375 
L 331.436938 -273.9375 
L 328.95384 -273.9375 
L 326.470741 -273.9375 
L 323.987643 -273.9375 
L 321.504544 -273.9375 
L 319.021446 -273.9375 
L 316.538347 -273.9375 
L 314.055249 -273.9375 
L 311.57215 -273.9375 
L 309.089052 -273.9375 
L 306.605953 -273.9375 
L 304.122855 -273.9375 
L 301.639756 -273.9375 
L 299.156658 -273.9375 
L 296.673559 -273.9375 
L 294.190461 -273.9375 
L 291.707362 -273.9375 
L 289.224264 -273.9375 
L 286.741165 -273.9375 
L 284.258067 -273.9375 
L 281.774968 -273.9375 
L 279.29187 -273.9375 
L 276.808771 -273.9375 
L 274.325673 -273.9375 
L 271.842574 -273.9375 
L 269.359476 -273.9375 
L 266.876377 -273.9375 
L 264.393278 -273.9375 
L 261.91018 -273.9375 
L 259.427081 -273.9375 
L 256.943983 -273.9375 
L 254.460884 -273.9375 
L 251.977786 -273.9375 
L 249.494687 -273.9375 
L 247.011589 -273.9375 
L 244.52849 -273.9375 
L 242.045392 -273.9375 
L 239.562293 -273.9375 
L 237.079195 -273.9375 
L 234.596096 -273.9375 
L 232.112998 -273.9375 
L 229.629899 -273.9375 
L 227.146801 -273.9375 
L 224.663702 -273.9375 
L 222.180604 -273.9375 
L 219.697505 -273.9375 
L 217.214407 -273.9375 
L 214.731308 -273.9375 
L 212.24821 -273.9375 
L 209.765111 -273.9375 
L 207.282013 -273.9375 
L 204.798914 -273.9375 
L 202.315816 -273.9375 
L 199.832717 -273.9375 
L 197.349619 -273.9375 
L 194.86652 -273.9375 
L 192.383422 -273.9375 
L 189.900323 -273.9375 
L 187.417225 -273.9375 
L 184.934126 -273.9375 
L 182.451028 -273.9375 
L 179.967929 -273.9375 
L 177.48483 -273.9375 
L 175.001732 -273.9375 
L 172.518633 -273.9375 
L 170.035535 -273.9375 
L 167.552436 -273.9375 
L 165.069338 -273.9375 
L 162.586239 -273.9375 
L 160.103141 -273.9375 
L 157.620042 -273.9375 
L 155.136944 -273.9375 
L 152.653845 -273.9375 
L 150.170747 -273.9375 
L 147.687648 -273.9375 
L 145.20455 -273.9375 
L 142.721451 -273.9375 
L 140.238353 -273.9375 
L 137.755254 -273.9375 
L 135.272156 -273.9375 
L 132.789057 -273.9375 
L 130.305959 -273.9375 
L 127.82286 -273.9375 
L 125.339762 -273.9375 
L 122.856663 -273.9375 
L 120.373565 -273.9375 
L 117.890466 -273.9375 
L 115.407368 -273.9375 
L 112.924269 -273.9375 
L 110.441171 -273.9375 
L 107.958072 -273.9375 
L 105.474974 -273.9375 
L 102.991875 -273.9375 
L 100.508777 -273.9375 
L 98.025678 -273.9375 
L 95.54258 -273.9375 
L 93.059481 -273.9375 
L 90.576383 -273.9375 
L 88.093284 -273.9375 
L 85.610185 -273.9375 
L 83.127087 -273.9375 
L 80.643988 -273.9375 
L 78.16089 -273.9375 
L 75.677791 -273.9375 
L 73.194693 -273.9375 
L 70.711594 -273.9375 
L 68.228496 -273.9375 
L 65.745397 -273.9375 
L 63.262299 -273.9375 
L 60.7792 -273.9375 
L 58.296102 -273.9375 
L 55.813003 -273.9375 
z
" id="m20846aa527" style="stroke:#ffffff;"/>
    </defs>
    <g clip-path="url(#p82eeedbb8c)">
     <use style="fill:#ff0000;fill-opacity:0.7;stroke:#ffffff;" x="0" xlink:href="#m20846aa527" y="299.369788"/>
    </g>
   </g>
   <g id="LineCollection_1">
    <path clip-path="url(#p82eeedbb8c)" d="M 55.813003 92.00315 
L 549.100267 92.00315 
" style="fill:none;stroke:#000000;stroke-dasharray:7.4,3.2;stroke-dashoffset:0;stroke-width:2;"/>
   </g>
   <g id="LineCollection_2">
    <path clip-path="url(#p82eeedbb8c)" d="M 55.813003 47.622575 
L 549.100267 47.622575 
" style="fill:none;stroke:#000000;stroke-dasharray:7.4,3.2;stroke-dashoffset:0;stroke-width:2;"/>
   </g>
   <g id="patch_3">
    <path d="M 64.862344 247.335163 
L 64.862344 25.432288 
" style="fill:none;stroke:#cccccc;stroke-linecap:square;stroke-linejoin:miter;stroke-width:1.25;"/>
   </g>
   <g id="patch_4">
    <path d="M 540.900267 247.335163 
L 540.900267 25.432288 
" style="fill:none;stroke:#cccccc;stroke-linecap:square;stroke-linejoin:miter;stroke-width:1.25;"/>
   </g>
   <g id="patch_5">
    <path d="M 64.862344 247.335163 
L 540.900267 247.335163 
" style="fill:none;stroke:#cccccc;stroke-linecap:square;stroke-linejoin:miter;stroke-width:1.25;"/>
   </g>
   <g id="patch_6">
    <path d="M 64.862344 25.432288 
L 540.900267 25.432288 
" style="fill:none;stroke:#cccccc;stroke-linecap:square;stroke-linejoin:miter;stroke-width:1.25;"/>
   </g>
   <g id="text_19">
    <!-- Likely Humans -->
    <g style="fill:#262626;" transform="translate(402.721384 173.895903)scale(0.139944 -0.139944)">
     <defs>
      <path d="M 10.984375 0 
L 10.984375 72.90625 
L 25.390625 72.90625 
L 25.390625 12.703125 
L 56.203125 12.703125 
L 56.203125 0 
z
" id="DejaVuSansMono-Bold-76"/>
      <path d="M 10.796875 54.6875 
L 39.109375 54.6875 
L 39.109375 10.984375 
L 56.890625 10.984375 
L 56.890625 0 
L 6.984375 0 
L 6.984375 10.984375 
L 24.8125 10.984375 
L 24.8125 43.703125 
L 10.796875 43.703125 
z
M 24.8125 81.296875 
L 39.109375 81.296875 
L 39.109375 64.59375 
L 24.8125 64.59375 
z
" id="DejaVuSansMono-Bold-105"/>
      <path d="M 8.5 75.984375 
L 22.796875 75.984375 
L 22.796875 36.078125 
L 39.984375 54.6875 
L 57.328125 54.6875 
L 36.625 34.28125 
L 58.5 0 
L 42.671875 0 
L 27.6875 25.59375 
L 22.796875 20.90625 
L 22.796875 0 
L 8.5 0 
z
" id="DejaVuSansMono-Bold-107"/>
      <path d="M 53.8125 2.6875 
Q 48.828125 0.640625 43.65625 -0.390625 
Q 38.484375 -1.421875 32.71875 -1.421875 
Q 19 -1.421875 11.75 5.921875 
Q 4.5 13.28125 4.5 27.09375 
Q 4.5 40.484375 11.46875 48.234375 
Q 18.453125 56 30.515625 56 
Q 42.671875 56 49.390625 48.796875 
Q 56.109375 41.609375 56.109375 28.515625 
L 56.109375 22.703125 
L 19.046875 22.703125 
Q 19.09375 16.265625 22.84375 13.078125 
Q 26.609375 9.90625 34.078125 9.90625 
Q 39.015625 9.90625 43.796875 11.328125 
Q 48.578125 12.75 53.8125 15.828125 
z
M 41.703125 33.453125 
Q 41.609375 39.109375 38.796875 42.015625 
Q 35.984375 44.921875 30.515625 44.921875 
Q 25.59375 44.921875 22.65625 41.921875 
Q 19.734375 38.921875 19.1875 33.40625 
z
" id="DejaVuSansMono-Bold-101"/>
      <path d="M 18.890625 22.796875 
L 18.890625 64.984375 
L 4.390625 64.984375 
L 4.390625 75.984375 
L 33.203125 75.984375 
L 33.203125 22.796875 
Q 33.203125 16.359375 35.203125 13.671875 
Q 37.203125 10.984375 42 10.984375 
L 53.421875 10.984375 
L 53.421875 0 
L 37.984375 0 
Q 27.78125 0 23.328125 5.265625 
Q 18.890625 10.546875 18.890625 22.796875 
z
" id="DejaVuSansMono-Bold-108"/>
      <path d="M 34.71875 -5.90625 
Q 31.84375 -13.625 27.8125 -17.15625 
Q 23.78125 -20.703125 18.015625 -20.703125 
L 6.203125 -20.703125 
L 6.203125 -9.8125 
L 12.015625 -9.8125 
Q 16.40625 -9.8125 18.453125 -8.328125 
Q 20.515625 -6.84375 22.609375 -1.421875 
L 23.6875 1.515625 
L 2.875 54.6875 
L 17.921875 54.6875 
L 30.421875 19.1875 
L 42.390625 54.6875 
L 57.421875 54.6875 
z
" id="DejaVuSansMono-Bold-121"/>
      <path id="DejaVuSansMono-Bold-32"/>
      <path d="M 6.6875 72.90625 
L 21.09375 72.90625 
L 21.09375 45.125 
L 39.109375 45.125 
L 39.109375 72.90625 
L 53.515625 72.90625 
L 53.515625 0 
L 39.109375 0 
L 39.109375 32.421875 
L 21.09375 32.421875 
L 21.09375 0 
L 6.6875 0 
z
" id="DejaVuSansMono-Bold-72"/>
      <path d="M 7.8125 19.09375 
L 7.8125 54.6875 
L 22.125 54.6875 
L 22.125 21.296875 
Q 22.125 15.375 23.78125 12.828125 
Q 25.4375 10.296875 29.296875 10.296875 
Q 33.15625 10.296875 35.328125 13.71875 
Q 37.5 17.140625 37.5 23.296875 
L 37.5 54.6875 
L 51.8125 54.6875 
L 51.8125 0 
L 37.5 0 
L 37.5 8.109375 
Q 35.984375 3.5625 32.34375 1.0625 
Q 28.71875 -1.421875 23.578125 -1.421875 
Q 15.765625 -1.421875 11.78125 3.75 
Q 7.8125 8.9375 7.8125 19.09375 
z
" id="DejaVuSansMono-Bold-117"/>
      <path d="M 33.6875 49.21875 
Q 35.296875 52.6875 37.78125 54.34375 
Q 40.28125 56 43.890625 56 
Q 50.984375 56 53.6875 51.109375 
Q 56.390625 46.234375 56.390625 30.8125 
L 56.390625 0 
L 44.671875 0 
L 44.671875 35.109375 
Q 44.671875 41.21875 43.75 43.265625 
Q 42.828125 45.3125 40.375 45.3125 
Q 37.9375 45.3125 36.953125 43.203125 
Q 35.984375 41.109375 35.984375 35.109375 
L 35.984375 0 
L 24.421875 0 
L 24.421875 35.109375 
Q 24.421875 41.109375 23.4375 43.203125 
Q 22.46875 45.3125 20.015625 45.3125 
Q 17.578125 45.3125 16.640625 43.265625 
Q 15.71875 41.21875 15.71875 35.109375 
L 15.71875 0 
L 4 0 
L 4 54.6875 
L 14.40625 54.6875 
L 14.40625 49.03125 
Q 15.625 52.25 18.3125 54.125 
Q 21 56 24.3125 56 
Q 27.640625 56 30.375 54.015625 
Q 33.109375 52.046875 33.6875 49.21875 
z
" id="DejaVuSansMono-Bold-109"/>
      <path d="M 34.1875 25.6875 
Q 26.171875 25.6875 23 23.625 
Q 19.828125 21.578125 19.828125 16.609375 
Q 19.828125 12.890625 22.015625 10.6875 
Q 24.21875 8.5 27.984375 8.5 
Q 33.640625 8.5 36.765625 12.765625 
Q 39.890625 17.046875 39.890625 24.703125 
L 39.890625 25.6875 
z
M 54.109375 31.203125 
L 54.109375 0 
L 39.890625 0 
L 39.890625 6.109375 
Q 37.3125 2.484375 33.25 0.53125 
Q 29.203125 -1.421875 24.3125 -1.421875 
Q 14.984375 -1.421875 9.78125 3.515625 
Q 4.59375 8.453125 4.59375 17.28125 
Q 4.59375 26.859375 10.796875 31.421875 
Q 17 35.984375 29.984375 35.984375 
L 39.890625 35.984375 
L 39.890625 38.375 
Q 39.890625 41.84375 37.375 43.625 
Q 34.859375 45.40625 29.984375 45.40625 
Q 24.859375 45.40625 20.046875 44.109375 
Q 15.234375 42.828125 10.015625 39.984375 
L 10.015625 52.203125 
Q 14.75 54.15625 19.625 55.078125 
Q 24.515625 56 29.984375 56 
Q 43.3125 56 48.703125 50.578125 
Q 54.109375 45.171875 54.109375 31.203125 
z
" id="DejaVuSansMono-Bold-97"/>
      <path d="M 52.296875 35.5 
L 52.296875 0 
L 38.09375 0 
L 38.09375 33.296875 
Q 38.09375 39.265625 36.40625 41.828125 
Q 34.71875 44.390625 30.90625 44.390625 
Q 27.046875 44.390625 24.828125 40.921875 
Q 22.609375 37.453125 22.609375 31.296875 
L 22.609375 0 
L 8.40625 0 
L 8.40625 54.6875 
L 22.609375 54.6875 
L 22.609375 46.484375 
Q 24.125 51.03125 27.78125 53.515625 
Q 31.453125 56 36.625 56 
Q 44.390625 56 48.34375 50.84375 
Q 52.296875 45.703125 52.296875 35.5 
z
" id="DejaVuSansMono-Bold-110"/>
      <path d="M 48.390625 52.984375 
L 48.390625 40.484375 
Q 44.4375 43.015625 40.15625 44.3125 
Q 35.890625 45.609375 31.59375 45.609375 
Q 26.8125 45.609375 24.359375 44.21875 
Q 21.921875 42.828125 21.921875 40.09375 
Q 21.921875 36.1875 32.375 33.734375 
L 32.90625 33.59375 
L 37.015625 32.625 
Q 44.828125 30.765625 48.453125 26.640625 
Q 52.09375 22.515625 52.09375 15.484375 
Q 52.09375 7.03125 46.546875 2.796875 
Q 41.015625 -1.421875 29.890625 -1.421875 
Q 24.953125 -1.421875 19.765625 -0.5625 
Q 14.59375 0.296875 9.28125 2 
L 9.28125 14.5 
Q 14.015625 11.8125 18.921875 10.390625 
Q 23.828125 8.984375 28.421875 8.984375 
Q 33.453125 8.984375 36.03125 10.453125 
Q 38.625 11.921875 38.625 14.703125 
Q 38.625 17.4375 36.796875 18.890625 
Q 34.96875 20.359375 28.078125 22.015625 
L 24.125 22.90625 
Q 15.921875 24.75 12.15625 28.703125 
Q 8.40625 32.671875 8.40625 39.3125 
Q 8.40625 47.21875 14.109375 51.609375 
Q 19.828125 56 30.171875 56 
Q 34.8125 56 39.421875 55.25 
Q 44.046875 54.5 48.390625 52.984375 
z
" id="DejaVuSansMono-Bold-115"/>
     </defs>
     <use xlink:href="#DejaVuSansMono-Bold-76"/>
     <use x="60.205078" xlink:href="#DejaVuSansMono-Bold-105"/>
     <use x="120.410156" xlink:href="#DejaVuSansMono-Bold-107"/>
     <use x="180.615234" xlink:href="#DejaVuSansMono-Bold-101"/>
     <use x="240.820312" xlink:href="#DejaVuSansMono-Bold-108"/>
     <use x="301.025391" xlink:href="#DejaVuSansMono-Bold-121"/>
     <use x="361.230469" xlink:href="#DejaVuSansMono-Bold-32"/>
     <use x="421.435547" xlink:href="#DejaVuSansMono-Bold-72"/>
     <use x="481.640625" xlink:href="#DejaVuSansMono-Bold-117"/>
     <use x="541.845703" xlink:href="#DejaVuSansMono-Bold-109"/>
     <use x="602.050781" xlink:href="#DejaVuSansMono-Bold-97"/>
     <use x="662.255859" xlink:href="#DejaVuSansMono-Bold-110"/>
     <use x="722.460938" xlink:href="#DejaVuSansMono-Bold-115"/>
    </g>
   </g>
   <g id="text_20">
    <!-- Likely Semi-Bots -->
    <g style="fill:#262626;" transform="translate(402.721384 74.039609)scale(0.139944 -0.139944)">
     <defs>
      <path d="M 24.90625 31.984375 
Q 14.015625 36.140625 10.15625 40.703125 
Q 6.296875 45.265625 6.296875 52.984375 
Q 6.296875 62.890625 12.640625 68.546875 
Q 19 74.21875 30.078125 74.21875 
Q 35.109375 74.21875 40.140625 73.0625 
Q 45.171875 71.921875 50.09375 69.671875 
L 50.09375 55.609375 
Q 45.453125 58.890625 40.671875 60.59375 
Q 35.890625 62.3125 31.203125 62.3125 
Q 25.984375 62.3125 23.1875 60.203125 
Q 20.40625 58.109375 20.40625 54.203125 
Q 20.40625 51.171875 22.4375 49.1875 
Q 24.46875 47.21875 30.90625 44.828125 
L 37.109375 42.484375 
Q 45.90625 39.265625 50.046875 33.9375 
Q 54.203125 28.609375 54.203125 20.515625 
Q 54.203125 9.46875 47.671875 4.015625 
Q 41.15625 -1.421875 27.984375 -1.421875 
Q 22.5625 -1.421875 17.109375 -0.125 
Q 11.671875 1.171875 6.59375 3.71875 
L 6.59375 18.609375 
Q 12.359375 14.5 17.75 12.5 
Q 23.140625 10.5 28.421875 10.5 
Q 33.734375 10.5 36.65625 12.90625 
Q 39.59375 15.328125 39.59375 19.671875 
Q 39.59375 22.953125 37.640625 25.40625 
Q 35.6875 27.875 31.984375 29.296875 
z
" id="DejaVuSansMono-Bold-83"/>
      <path d="M 14.703125 35.890625 
L 45.515625 35.890625 
L 45.515625 21.6875 
L 14.703125 21.6875 
z
" id="DejaVuSansMono-Bold-45"/>
      <path d="M 20.015625 33.109375 
L 20.015625 11.53125 
L 29.59375 11.53125 
Q 36.46875 11.53125 39.234375 13.875 
Q 42 16.21875 42 22.015625 
Q 42 27.9375 39.109375 30.515625 
Q 36.234375 33.109375 29.59375 33.109375 
z
M 20.015625 61.53125 
L 20.015625 44.578125 
L 29.59375 44.578125 
Q 35.0625 44.578125 37.375 46.53125 
Q 39.703125 48.484375 39.703125 52.984375 
Q 39.703125 57.46875 37.328125 59.5 
Q 34.96875 61.53125 29.59375 61.53125 
z
M 6.109375 73 
L 29.59375 73 
Q 41.75 73 47.875 68.375 
Q 54 63.765625 54 54.59375 
Q 54 47.5625 50.390625 43.609375 
Q 46.78125 39.65625 39.796875 39.015625 
Q 48.140625 38.1875 52.359375 33.390625 
Q 56.59375 28.609375 56.59375 20.015625 
Q 56.59375 9.46875 50.234375 4.734375 
Q 43.890625 0 29.59375 0 
L 6.109375 0 
z
" id="DejaVuSansMono-Bold-66"/>
      <path d="M 30.078125 44.390625 
Q 24.953125 44.390625 22.015625 39.875 
Q 19.09375 35.359375 19.09375 27.296875 
Q 19.09375 19.234375 22.015625 14.71875 
Q 24.953125 10.203125 30.078125 10.203125 
Q 35.25 10.203125 38.171875 14.71875 
Q 41.109375 19.234375 41.109375 27.296875 
Q 41.109375 35.359375 38.171875 39.875 
Q 35.25 44.390625 30.078125 44.390625 
z
M 4.78125 27.296875 
Q 4.78125 40.53125 11.640625 48.265625 
Q 18.5 56 30.078125 56 
Q 41.703125 56 48.5625 48.265625 
Q 55.421875 40.53125 55.421875 27.296875 
Q 55.421875 14.0625 48.5625 6.3125 
Q 41.703125 -1.421875 30.078125 -1.421875 
Q 18.5 -1.421875 11.640625 6.3125 
Q 4.78125 14.0625 4.78125 27.296875 
z
" id="DejaVuSansMono-Bold-111"/>
      <path d="M 33.6875 70.21875 
L 33.6875 54.6875 
L 52.390625 54.6875 
L 52.390625 43.703125 
L 33.6875 43.703125 
L 33.6875 17.828125 
Q 33.6875 14.15625 35.46875 12.5625 
Q 37.25 10.984375 41.40625 10.984375 
L 52.390625 10.984375 
L 52.390625 0 
L 40.375 0 
Q 28.078125 0 23.734375 3.921875 
Q 19.390625 7.859375 19.390625 18.5 
L 19.390625 43.703125 
L 5.421875 43.703125 
L 5.421875 54.6875 
L 19.390625 54.6875 
L 19.390625 70.21875 
z
" id="DejaVuSansMono-Bold-116"/>
     </defs>
     <use xlink:href="#DejaVuSansMono-Bold-76"/>
     <use x="60.205078" xlink:href="#DejaVuSansMono-Bold-105"/>
     <use x="120.410156" xlink:href="#DejaVuSansMono-Bold-107"/>
     <use x="180.615234" xlink:href="#DejaVuSansMono-Bold-101"/>
     <use x="240.820312" xlink:href="#DejaVuSansMono-Bold-108"/>
     <use x="301.025391" xlink:href="#DejaVuSansMono-Bold-121"/>
     <use x="361.230469" xlink:href="#DejaVuSansMono-Bold-32"/>
     <use x="421.435547" xlink:href="#DejaVuSansMono-Bold-83"/>
     <use x="481.640625" xlink:href="#DejaVuSansMono-Bold-101"/>
     <use x="541.845703" xlink:href="#DejaVuSansMono-Bold-109"/>
     <use x="602.050781" xlink:href="#DejaVuSansMono-Bold-105"/>
     <use x="662.255859" xlink:href="#DejaVuSansMono-Bold-45"/>
     <use x="722.460938" xlink:href="#DejaVuSansMono-Bold-66"/>
     <use x="782.666016" xlink:href="#DejaVuSansMono-Bold-111"/>
     <use x="842.871094" xlink:href="#DejaVuSansMono-Bold-116"/>
     <use x="903.076172" xlink:href="#DejaVuSansMono-Bold-115"/>
    </g>
   </g>
   <g id="text_21">
    <!-- Likely Bots -->
    <g style="fill:#262626;" transform="translate(402.721384 18.56389)scale(0.139944 -0.139944)">
     <use xlink:href="#DejaVuSansMono-Bold-76"/>
     <use x="60.205078" xlink:href="#DejaVuSansMono-Bold-105"/>
     <use x="120.410156" xlink:href="#DejaVuSansMono-Bold-107"/>
     <use x="180.615234" xlink:href="#DejaVuSansMono-Bold-101"/>
     <use x="240.820312" xlink:href="#DejaVuSansMono-Bold-108"/>
     <use x="301.025391" xlink:href="#DejaVuSansMono-Bold-121"/>
     <use x="361.230469" xlink:href="#DejaVuSansMono-Bold-32"/>
     <use x="421.435547" xlink:href="#DejaVuSansMono-Bold-66"/>
     <use x="481.640625" xlink:href="#DejaVuSansMono-Bold-111"/>
     <use x="541.845703" xlink:href="#DejaVuSansMono-Bold-116"/>
     <use x="602.050781" xlink:href="#DejaVuSansMono-Bold-115"/>
    </g>
   </g>
  </g>
 </g>
 <defs>
  <clipPath id="p82eeedbb8c">
   <rect height="221.902875" width="476.037923" x="64.862344" y="25.432288"/>
  </clipPath>
 </defs>
</svg>
