<?xml version="1.0" encoding="utf-8" standalone="no"?>
<!DOCTYPE svg PUBLIC "-//W3C//DTD SVG 1.1//EN"
  "http://www.w3.org/Graphics/SVG/1.1/DTD/svg11.dtd">
<!-- Created with matplotlib (https://matplotlib.org/) -->
<svg height="631.361625pt" version="1.1" viewBox="0 0 840.714328 631.361625" width="840.714328pt" xmlns="http://www.w3.org/2000/svg" xmlns:xlink="http://www.w3.org/1999/xlink">
 <metadata>
  <rdf:RDF xmlns:cc="http://creativecommons.org/ns#" xmlns:dc="http://purl.org/dc/elements/1.1/" xmlns:rdf="http://www.w3.org/1999/02/22-rdf-syntax-ns#">
   <cc:Work>
    <dc:type rdf:resource="http://purl.org/dc/dcmitype/StillImage"/>
    <dc:date>2021-02-26T16:21:43.229229</dc:date>
    <dc:format>image/svg+xml</dc:format>
    <dc:creator>
     <cc:Agent>
      <dc:title>Matplotlib v3.3.2, https://matplotlib.org/</dc:title>
     </cc:Agent>
    </dc:creator>
   </cc:Work>
  </rdf:RDF>
 </metadata>
 <defs>
  <style type="text/css">*{stroke-linecap:butt;stroke-linejoin:round;}</style>
 </defs>
 <g id="figure_1">
  <g id="patch_1">
   <path d="M 0 631.361625 
L 840.714328 631.361625 
L 840.714328 -0 
L 0 -0 
z
" style="fill:#ffffff;"/>
  </g>
  <g id="axes_1">
   <g id="patch_2">
    <path d="M 83.520406 480.286812 
L 819.607406 480.286812 
L 819.607406 151.074812 
L 83.520406 151.074812 
z
" style="fill:#ffffff;"/>
   </g>
   <g id="matplotlib.axis_1">
    <g id="xtick_1">
     <g id="line2d_1">
      <path clip-path="url(#pf9d0b56151)" d="M 83.520406 480.286812 
L 83.520406 151.074812 
" style="fill:none;stroke:#cccccc;stroke-linecap:round;"/>
     </g>
     <g id="text_1">
      <!-- 10 -->
      <g style="fill:#262626;" transform="translate(74.249125 501.570219)scale(0.154 -0.154)">
       <defs>
        <path d="M 13.1875 8.296875 
L 28.515625 8.296875 
L 28.515625 64.015625 
L 12.015625 60.296875 
L 12.015625 69.28125 
L 28.421875 72.90625 
L 38.28125 72.90625 
L 38.28125 8.296875 
L 53.421875 8.296875 
L 53.421875 0 
L 13.1875 0 
z
" id="DejaVuSansMono-49"/>
        <path d="M 23.578125 36.625 
Q 23.578125 39.3125 25.453125 41.265625 
Q 27.34375 43.21875 29.984375 43.21875 
Q 32.71875 43.21875 34.671875 41.265625 
Q 36.625 39.3125 36.625 36.625 
Q 36.625 33.890625 34.6875 31.984375 
Q 32.765625 30.078125 29.984375 30.078125 
Q 27.25 30.078125 25.40625 31.9375 
Q 23.578125 33.796875 23.578125 36.625 
z
M 30.078125 66.40625 
Q 23.1875 66.40625 19.796875 58.984375 
Q 16.40625 51.5625 16.40625 36.375 
Q 16.40625 21.234375 19.796875 13.8125 
Q 23.1875 6.390625 30.078125 6.390625 
Q 37.015625 6.390625 40.40625 13.8125 
Q 43.796875 21.234375 43.796875 36.375 
Q 43.796875 51.5625 40.40625 58.984375 
Q 37.015625 66.40625 30.078125 66.40625 
z
M 30.078125 74.21875 
Q 41.75 74.21875 47.734375 64.640625 
Q 53.71875 55.078125 53.71875 36.375 
Q 53.71875 17.71875 47.734375 8.140625 
Q 41.75 -1.421875 30.078125 -1.421875 
Q 18.40625 -1.421875 12.453125 8.140625 
Q 6.5 17.71875 6.5 36.375 
Q 6.5 55.078125 12.453125 64.640625 
Q 18.40625 74.21875 30.078125 74.21875 
z
" id="DejaVuSansMono-48"/>
       </defs>
       <use xlink:href="#DejaVuSansMono-49"/>
       <use x="60.205078" xlink:href="#DejaVuSansMono-48"/>
      </g>
     </g>
    </g>
    <g id="xtick_2">
     <g id="line2d_2">
      <path clip-path="url(#pf9d0b56151)" d="M 165.307851 480.286812 
L 165.307851 151.074812 
" style="fill:none;stroke:#cccccc;stroke-linecap:round;"/>
     </g>
     <g id="text_2">
      <!-- 20 -->
      <g style="fill:#262626;" transform="translate(156.036569 501.570219)scale(0.154 -0.154)">
       <defs>
        <path d="M 18.21875 8.296875 
L 51.703125 8.296875 
L 51.703125 0 
L 7.421875 0 
L 7.421875 8.296875 
Q 16.546875 17.921875 23.375 25.296875 
Q 30.21875 32.671875 32.8125 35.6875 
Q 37.703125 41.65625 39.40625 45.34375 
Q 41.109375 49.03125 41.109375 52.875 
Q 41.109375 58.984375 37.515625 62.453125 
Q 33.9375 65.921875 27.6875 65.921875 
Q 23.25 65.921875 18.359375 64.3125 
Q 13.484375 62.703125 8.015625 59.421875 
L 8.015625 69.390625 
Q 13.03125 71.78125 17.890625 73 
Q 22.75 74.21875 27.484375 74.21875 
Q 38.1875 74.21875 44.703125 68.53125 
Q 51.21875 62.84375 51.21875 53.609375 
Q 51.21875 48.921875 49.046875 44.234375 
Q 46.875 39.546875 42 33.890625 
Q 39.265625 30.71875 34.0625 25.09375 
Q 28.859375 19.484375 18.21875 8.296875 
z
" id="DejaVuSansMono-50"/>
       </defs>
       <use xlink:href="#DejaVuSansMono-50"/>
       <use x="60.205078" xlink:href="#DejaVuSansMono-48"/>
      </g>
     </g>
    </g>
    <g id="xtick_3">
     <g id="line2d_3">
      <path clip-path="url(#pf9d0b56151)" d="M 247.095295 480.286812 
L 247.095295 151.074812 
" style="fill:none;stroke:#cccccc;stroke-linecap:round;"/>
     </g>
     <g id="text_3">
      <!-- 30 -->
      <g style="fill:#262626;" transform="translate(237.824014 501.570219)scale(0.154 -0.154)">
       <defs>
        <path d="M 37.890625 39.015625 
Q 45.0625 37.109375 48.875 32.25 
Q 52.6875 27.390625 52.6875 20.125 
Q 52.6875 10.0625 45.921875 4.3125 
Q 39.15625 -1.421875 27.203125 -1.421875 
Q 22.171875 -1.421875 16.9375 -0.484375 
Q 11.71875 0.4375 6.6875 2.203125 
L 6.6875 12.015625 
Q 11.671875 9.421875 16.5 8.15625 
Q 21.34375 6.890625 26.125 6.890625 
Q 34.234375 6.890625 38.578125 10.546875 
Q 42.921875 14.203125 42.921875 21.09375 
Q 42.921875 27.4375 38.578125 31.171875 
Q 34.234375 34.90625 26.8125 34.90625 
L 19.28125 34.90625 
L 19.28125 43.015625 
L 26.8125 43.015625 
Q 33.59375 43.015625 37.40625 45.984375 
Q 41.21875 48.96875 41.21875 54.296875 
Q 41.21875 59.90625 37.671875 62.90625 
Q 34.125 65.921875 27.59375 65.921875 
Q 23.25 65.921875 18.609375 64.9375 
Q 13.96875 63.96875 8.890625 62.015625 
L 8.890625 71.09375 
Q 14.796875 72.65625 19.40625 73.4375 
Q 24.03125 74.21875 27.59375 74.21875 
Q 38.234375 74.21875 44.609375 68.875 
Q 50.984375 63.53125 50.984375 54.6875 
Q 50.984375 48.6875 47.625 44.671875 
Q 44.28125 40.671875 37.890625 39.015625 
z
" id="DejaVuSansMono-51"/>
       </defs>
       <use xlink:href="#DejaVuSansMono-51"/>
       <use x="60.205078" xlink:href="#DejaVuSansMono-48"/>
      </g>
     </g>
    </g>
    <g id="xtick_4">
     <g id="line2d_4">
      <path clip-path="url(#pf9d0b56151)" d="M 328.88274 480.286812 
L 328.88274 151.074812 
" style="fill:none;stroke:#cccccc;stroke-linecap:round;"/>
     </g>
     <g id="text_4">
      <!-- 40 -->
      <g style="fill:#262626;" transform="translate(319.611458 501.570219)scale(0.154 -0.154)">
       <defs>
        <path d="M 35.890625 63.921875 
L 12.890625 25.390625 
L 35.890625 25.390625 
z
M 34.28125 72.90625 
L 45.703125 72.90625 
L 45.703125 25.390625 
L 55.421875 25.390625 
L 55.421875 17.390625 
L 45.703125 17.390625 
L 45.703125 0 
L 35.890625 0 
L 35.890625 17.390625 
L 4.984375 17.390625 
L 4.984375 26.703125 
z
" id="DejaVuSansMono-52"/>
       </defs>
       <use xlink:href="#DejaVuSansMono-52"/>
       <use x="60.205078" xlink:href="#DejaVuSansMono-48"/>
      </g>
     </g>
    </g>
    <g id="xtick_5">
     <g id="line2d_5">
      <path clip-path="url(#pf9d0b56151)" d="M 410.670184 480.286812 
L 410.670184 151.074812 
" style="fill:none;stroke:#cccccc;stroke-linecap:round;"/>
     </g>
     <g id="text_5">
      <!-- 50 -->
      <g style="fill:#262626;" transform="translate(401.398903 501.570219)scale(0.154 -0.154)">
       <defs>
        <path d="M 10.109375 72.90625 
L 47.015625 72.90625 
L 47.015625 64.59375 
L 19.09375 64.59375 
L 19.09375 46.6875 
Q 21.1875 47.46875 23.3125 47.828125 
Q 25.4375 48.1875 27.59375 48.1875 
Q 38.921875 48.1875 45.5625 41.5 
Q 52.203125 34.8125 52.203125 23.390625 
Q 52.203125 11.859375 45.234375 5.21875 
Q 38.28125 -1.421875 26.21875 -1.421875 
Q 20.40625 -1.421875 15.59375 -0.640625 
Q 10.796875 0.140625 6.984375 1.703125 
L 6.984375 11.71875 
Q 11.46875 9.28125 16.015625 8.078125 
Q 20.5625 6.890625 25.296875 6.890625 
Q 33.453125 6.890625 37.859375 11.1875 
Q 42.28125 15.484375 42.28125 23.390625 
Q 42.28125 31.203125 37.71875 35.546875 
Q 33.15625 39.890625 25 39.890625 
Q 21.046875 39.890625 17.28125 38.984375 
Q 13.53125 38.09375 10.109375 36.28125 
z
" id="DejaVuSansMono-53"/>
       </defs>
       <use xlink:href="#DejaVuSansMono-53"/>
       <use x="60.205078" xlink:href="#DejaVuSansMono-48"/>
      </g>
     </g>
    </g>
    <g id="xtick_6">
     <g id="line2d_6">
      <path clip-path="url(#pf9d0b56151)" d="M 492.457628 480.286812 
L 492.457628 151.074812 
" style="fill:none;stroke:#cccccc;stroke-linecap:round;"/>
     </g>
     <g id="text_6">
      <!-- 60 -->
      <g style="fill:#262626;" transform="translate(483.186347 501.570219)scale(0.154 -0.154)">
       <defs>
        <path d="M 48.390625 71.296875 
L 48.390625 62.203125 
Q 45.3125 64.015625 41.84375 64.96875 
Q 38.375 65.921875 34.625 65.921875 
Q 25.25 65.921875 20.40625 58.859375 
Q 15.578125 51.8125 15.578125 38.09375 
Q 17.921875 42.96875 22.0625 45.578125 
Q 26.21875 48.1875 31.59375 48.1875 
Q 42.140625 48.1875 47.921875 41.71875 
Q 53.71875 35.25 53.71875 23.390625 
Q 53.71875 11.578125 47.75 5.078125 
Q 41.796875 -1.421875 31 -1.421875 
Q 18.3125 -1.421875 12.40625 7.6875 
Q 6.5 16.796875 6.5 36.375 
Q 6.5 54.828125 13.59375 64.515625 
Q 20.703125 74.21875 34.1875 74.21875 
Q 37.796875 74.21875 41.40625 73.453125 
Q 45.015625 72.703125 48.390625 71.296875 
z
M 30.8125 40.484375 
Q 24.515625 40.484375 20.890625 35.9375 
Q 17.28125 31.390625 17.28125 23.390625 
Q 17.28125 15.375 20.890625 10.828125 
Q 24.515625 6.296875 30.8125 6.296875 
Q 37.359375 6.296875 40.671875 10.609375 
Q 44 14.9375 44 23.390625 
Q 44 31.890625 40.671875 36.1875 
Q 37.359375 40.484375 30.8125 40.484375 
z
" id="DejaVuSansMono-54"/>
       </defs>
       <use xlink:href="#DejaVuSansMono-54"/>
       <use x="60.205078" xlink:href="#DejaVuSansMono-48"/>
      </g>
     </g>
    </g>
    <g id="xtick_7">
     <g id="line2d_7">
      <path clip-path="url(#pf9d0b56151)" d="M 574.245073 480.286812 
L 574.245073 151.074812 
" style="fill:none;stroke:#cccccc;stroke-linecap:round;"/>
     </g>
     <g id="text_7">
      <!-- 70 -->
      <g style="fill:#262626;" transform="translate(564.973792 501.570219)scale(0.154 -0.154)">
       <defs>
        <path d="M 6.78125 72.90625 
L 52.6875 72.90625 
L 52.6875 68.703125 
L 26.609375 0 
L 16.3125 0 
L 41.703125 64.59375 
L 6.78125 64.59375 
z
" id="DejaVuSansMono-55"/>
       </defs>
       <use xlink:href="#DejaVuSansMono-55"/>
       <use x="60.205078" xlink:href="#DejaVuSansMono-48"/>
      </g>
     </g>
    </g>
    <g id="xtick_8">
     <g id="line2d_8">
      <path clip-path="url(#pf9d0b56151)" d="M 656.032517 480.286812 
L 656.032517 151.074812 
" style="fill:none;stroke:#cccccc;stroke-linecap:round;"/>
     </g>
     <g id="text_8">
      <!-- 80 -->
      <g style="fill:#262626;" transform="translate(646.761236 501.570219)scale(0.154 -0.154)">
       <defs>
        <path d="M 30.078125 34.625 
Q 23.484375 34.625 19.890625 30.9375 
Q 16.3125 27.25 16.3125 20.515625 
Q 16.3125 13.765625 19.9375 10.03125 
Q 23.578125 6.296875 30.078125 6.296875 
Q 36.71875 6.296875 40.296875 9.984375 
Q 43.890625 13.671875 43.890625 20.515625 
Q 43.890625 27.203125 40.25 30.90625 
Q 36.625 34.625 30.078125 34.625 
z
M 21.484375 38.71875 
Q 15.1875 40.328125 11.640625 44.71875 
Q 8.109375 49.125 8.109375 55.328125 
Q 8.109375 64.015625 14.015625 69.109375 
Q 19.921875 74.21875 30.078125 74.21875 
Q 40.28125 74.21875 46.1875 69.109375 
Q 52.09375 64.015625 52.09375 55.328125 
Q 52.09375 49.125 48.546875 44.71875 
Q 45.015625 40.328125 38.71875 38.71875 
Q 46.046875 37.109375 49.921875 32.21875 
Q 53.8125 27.34375 53.8125 19.578125 
Q 53.8125 9.71875 47.515625 4.140625 
Q 41.21875 -1.421875 30.078125 -1.421875 
Q 18.953125 -1.421875 12.671875 4.125 
Q 6.390625 9.671875 6.390625 19.484375 
Q 6.390625 27.296875 10.265625 32.203125 
Q 14.15625 37.109375 21.484375 38.71875 
z
M 17.921875 54.390625 
Q 17.921875 48.53125 21.046875 45.453125 
Q 24.171875 42.390625 30.078125 42.390625 
Q 36.03125 42.390625 39.15625 45.453125 
Q 42.28125 48.53125 42.28125 54.390625 
Q 42.28125 60.359375 39.171875 63.484375 
Q 36.078125 66.609375 30.078125 66.609375 
Q 24.171875 66.609375 21.046875 63.453125 
Q 17.921875 60.296875 17.921875 54.390625 
z
" id="DejaVuSansMono-56"/>
       </defs>
       <use xlink:href="#DejaVuSansMono-56"/>
       <use x="60.205078" xlink:href="#DejaVuSansMono-48"/>
      </g>
     </g>
    </g>
    <g id="xtick_9">
     <g id="line2d_9">
      <path clip-path="url(#pf9d0b56151)" d="M 737.819962 480.286812 
L 737.819962 151.074812 
" style="fill:none;stroke:#cccccc;stroke-linecap:round;"/>
     </g>
     <g id="text_9">
      <!-- 90 -->
      <g style="fill:#262626;" transform="translate(728.548681 501.570219)scale(0.154 -0.154)">
       <defs>
        <path d="M 29.109375 32.328125 
Q 35.40625 32.328125 38.984375 36.859375 
Q 42.578125 41.40625 42.578125 49.421875 
Q 42.578125 57.421875 38.984375 61.953125 
Q 35.40625 66.5 29.109375 66.5 
Q 22.5625 66.5 19.234375 62.171875 
Q 15.921875 57.859375 15.921875 49.421875 
Q 15.921875 40.921875 19.21875 36.625 
Q 22.515625 32.328125 29.109375 32.328125 
z
M 11.53125 1.515625 
L 11.53125 10.59375 
Q 14.59375 8.796875 18.0625 7.84375 
Q 21.53125 6.890625 25.296875 6.890625 
Q 34.671875 6.890625 39.46875 13.9375 
Q 44.28125 21 44.28125 34.71875 
Q 42 29.828125 37.84375 27.21875 
Q 33.6875 24.609375 28.328125 24.609375 
Q 17.78125 24.609375 11.984375 31.09375 
Q 6.203125 37.59375 6.203125 49.515625 
Q 6.203125 61.28125 12.125 67.75 
Q 18.0625 74.21875 28.90625 74.21875 
Q 41.609375 74.21875 47.515625 65.078125 
Q 53.421875 55.953125 53.421875 36.375 
Q 53.421875 17.96875 46.3125 8.265625 
Q 39.203125 -1.421875 25.6875 -1.421875 
Q 22.125 -1.421875 18.5 -0.65625 
Q 14.890625 0.09375 11.53125 1.515625 
z
" id="DejaVuSansMono-57"/>
       </defs>
       <use xlink:href="#DejaVuSansMono-57"/>
       <use x="60.205078" xlink:href="#DejaVuSansMono-48"/>
      </g>
     </g>
    </g>
    <g id="xtick_10">
     <g id="line2d_10">
      <path clip-path="url(#pf9d0b56151)" d="M 819.607406 480.286812 
L 819.607406 151.074812 
" style="fill:none;stroke:#cccccc;stroke-linecap:round;"/>
     </g>
     <g id="text_10">
      <!-- 100 -->
      <g style="fill:#262626;" transform="translate(805.700484 501.570219)scale(0.154 -0.154)">
       <use xlink:href="#DejaVuSansMono-49"/>
       <use x="60.205078" xlink:href="#DejaVuSansMono-48"/>
       <use x="120.410156" xlink:href="#DejaVuSansMono-48"/>
      </g>
     </g>
    </g>
    <g id="text_11">
     <!-- K -->
     <g style="fill:#262626;" transform="translate(446.506844 521.627562)scale(0.168 -0.168)">
      <defs>
       <path d="M 6.6875 72.90625 
L 16.609375 72.90625 
L 16.609375 40.484375 
L 47.40625 72.90625 
L 58.984375 72.90625 
L 30.609375 43.109375 
L 59.8125 0 
L 47.90625 0 
L 24.125 36.53125 
L 16.609375 28.515625 
L 16.609375 0 
L 6.6875 0 
z
" id="DejaVuSansMono-75"/>
      </defs>
      <use xlink:href="#DejaVuSansMono-75"/>
     </g>
    </g>
   </g>
   <g id="matplotlib.axis_2">
    <g id="ytick_1">
     <g id="line2d_11">
      <path clip-path="url(#pf9d0b56151)" d="M 83.520406 480.286812 
L 819.607406 480.286812 
" style="fill:none;stroke:#cccccc;stroke-linecap:round;"/>
     </g>
     <g id="text_12">
      <!-- 0.000 -->
      <g style="fill:#262626;" transform="translate(27.664 486.178516)scale(0.154 -0.154)">
       <defs>
        <path d="M 23.875 14.890625 
L 36.1875 14.890625 
L 36.1875 0 
L 23.875 0 
z
" id="DejaVuSansMono-46"/>
       </defs>
       <use xlink:href="#DejaVuSansMono-48"/>
       <use x="60.205078" xlink:href="#DejaVuSansMono-46"/>
       <use x="120.410156" xlink:href="#DejaVuSansMono-48"/>
       <use x="180.615234" xlink:href="#DejaVuSansMono-48"/>
       <use x="240.820312" xlink:href="#DejaVuSansMono-48"/>
      </g>
     </g>
    </g>
    <g id="ytick_2">
     <g id="line2d_12">
      <path clip-path="url(#pf9d0b56151)" d="M 83.520406 442.666071 
L 819.607406 442.666071 
" style="fill:none;stroke:#cccccc;stroke-linecap:round;"/>
     </g>
     <g id="text_13">
      <!-- 0.005 -->
      <g style="fill:#262626;" transform="translate(27.664 448.557774)scale(0.154 -0.154)">
       <use xlink:href="#DejaVuSansMono-48"/>
       <use x="60.205078" xlink:href="#DejaVuSansMono-46"/>
       <use x="120.410156" xlink:href="#DejaVuSansMono-48"/>
       <use x="180.615234" xlink:href="#DejaVuSansMono-48"/>
       <use x="240.820312" xlink:href="#DejaVuSansMono-53"/>
      </g>
     </g>
    </g>
    <g id="ytick_3">
     <g id="line2d_13">
      <path clip-path="url(#pf9d0b56151)" d="M 83.520406 405.045329 
L 819.607406 405.045329 
" style="fill:none;stroke:#cccccc;stroke-linecap:round;"/>
     </g>
     <g id="text_14">
      <!-- 0.010 -->
      <g style="fill:#262626;" transform="translate(27.664 410.937032)scale(0.154 -0.154)">
       <use xlink:href="#DejaVuSansMono-48"/>
       <use x="60.205078" xlink:href="#DejaVuSansMono-46"/>
       <use x="120.410156" xlink:href="#DejaVuSansMono-48"/>
       <use x="180.615234" xlink:href="#DejaVuSansMono-49"/>
       <use x="240.820312" xlink:href="#DejaVuSansMono-48"/>
      </g>
     </g>
    </g>
    <g id="ytick_4">
     <g id="line2d_14">
      <path clip-path="url(#pf9d0b56151)" d="M 83.520406 367.424587 
L 819.607406 367.424587 
" style="fill:none;stroke:#cccccc;stroke-linecap:round;"/>
     </g>
     <g id="text_15">
      <!-- 0.015 -->
      <g style="fill:#262626;" transform="translate(27.664 373.31629)scale(0.154 -0.154)">
       <use xlink:href="#DejaVuSansMono-48"/>
       <use x="60.205078" xlink:href="#DejaVuSansMono-46"/>
       <use x="120.410156" xlink:href="#DejaVuSansMono-48"/>
       <use x="180.615234" xlink:href="#DejaVuSansMono-49"/>
       <use x="240.820312" xlink:href="#DejaVuSansMono-53"/>
      </g>
     </g>
    </g>
    <g id="ytick_5">
     <g id="line2d_15">
      <path clip-path="url(#pf9d0b56151)" d="M 83.520406 329.803845 
L 819.607406 329.803845 
" style="fill:none;stroke:#cccccc;stroke-linecap:round;"/>
     </g>
     <g id="text_16">
      <!-- 0.020 -->
      <g style="fill:#262626;" transform="translate(27.664 335.695548)scale(0.154 -0.154)">
       <use xlink:href="#DejaVuSansMono-48"/>
       <use x="60.205078" xlink:href="#DejaVuSansMono-46"/>
       <use x="120.410156" xlink:href="#DejaVuSansMono-48"/>
       <use x="180.615234" xlink:href="#DejaVuSansMono-50"/>
       <use x="240.820312" xlink:href="#DejaVuSansMono-48"/>
      </g>
     </g>
    </g>
    <g id="ytick_6">
     <g id="line2d_16">
      <path clip-path="url(#pf9d0b56151)" d="M 83.520406 292.183103 
L 819.607406 292.183103 
" style="fill:none;stroke:#cccccc;stroke-linecap:round;"/>
     </g>
     <g id="text_17">
      <!-- 0.025 -->
      <g style="fill:#262626;" transform="translate(27.664 298.074806)scale(0.154 -0.154)">
       <use xlink:href="#DejaVuSansMono-48"/>
       <use x="60.205078" xlink:href="#DejaVuSansMono-46"/>
       <use x="120.410156" xlink:href="#DejaVuSansMono-48"/>
       <use x="180.615234" xlink:href="#DejaVuSansMono-50"/>
       <use x="240.820312" xlink:href="#DejaVuSansMono-53"/>
      </g>
     </g>
    </g>
    <g id="ytick_7">
     <g id="line2d_17">
      <path clip-path="url(#pf9d0b56151)" d="M 83.520406 254.562361 
L 819.607406 254.562361 
" style="fill:none;stroke:#cccccc;stroke-linecap:round;"/>
     </g>
     <g id="text_18">
      <!-- 0.030 -->
      <g style="fill:#262626;" transform="translate(27.664 260.454064)scale(0.154 -0.154)">
       <use xlink:href="#DejaVuSansMono-48"/>
       <use x="60.205078" xlink:href="#DejaVuSansMono-46"/>
       <use x="120.410156" xlink:href="#DejaVuSansMono-48"/>
       <use x="180.615234" xlink:href="#DejaVuSansMono-51"/>
       <use x="240.820312" xlink:href="#DejaVuSansMono-48"/>
      </g>
     </g>
    </g>
    <g id="ytick_8">
     <g id="line2d_18">
      <path clip-path="url(#pf9d0b56151)" d="M 83.520406 216.941619 
L 819.607406 216.941619 
" style="fill:none;stroke:#cccccc;stroke-linecap:round;"/>
     </g>
     <g id="text_19">
      <!-- 0.035 -->
      <g style="fill:#262626;" transform="translate(27.664 222.833322)scale(0.154 -0.154)">
       <use xlink:href="#DejaVuSansMono-48"/>
       <use x="60.205078" xlink:href="#DejaVuSansMono-46"/>
       <use x="120.410156" xlink:href="#DejaVuSansMono-48"/>
       <use x="180.615234" xlink:href="#DejaVuSansMono-51"/>
       <use x="240.820312" xlink:href="#DejaVuSansMono-53"/>
      </g>
     </g>
    </g>
    <g id="ytick_9">
     <g id="line2d_19">
      <path clip-path="url(#pf9d0b56151)" d="M 83.520406 179.320877 
L 819.607406 179.320877 
" style="fill:none;stroke:#cccccc;stroke-linecap:round;"/>
     </g>
     <g id="text_20">
      <!-- 0.040 -->
      <g style="fill:#262626;" transform="translate(27.664 185.21258)scale(0.154 -0.154)">
       <use xlink:href="#DejaVuSansMono-48"/>
       <use x="60.205078" xlink:href="#DejaVuSansMono-46"/>
       <use x="120.410156" xlink:href="#DejaVuSansMono-48"/>
       <use x="180.615234" xlink:href="#DejaVuSansMono-52"/>
       <use x="240.820312" xlink:href="#DejaVuSansMono-48"/>
      </g>
     </g>
    </g>
    <g id="text_21">
     <!-- Density (independently normalized and logarithmically scaled) -->
     <g style="fill:#262626;" transform="translate(20.054625 624.161625)rotate(-90)scale(0.168 -0.168)">
      <defs>
       <path d="M 21.296875 8.109375 
Q 33.734375 8.109375 38.671875 14.234375 
Q 43.609375 20.359375 43.609375 36.375 
Q 43.609375 52.546875 38.703125 58.671875 
Q 33.796875 64.796875 21.296875 64.796875 
L 16.609375 64.796875 
L 16.609375 8.109375 
z
M 21.484375 72.90625 
Q 38.1875 72.90625 46.09375 64.015625 
Q 54 55.125 54 36.375 
Q 54 17.71875 46.09375 8.859375 
Q 38.1875 0 21.484375 0 
L 6.6875 0 
L 6.6875 72.90625 
z
" id="DejaVuSansMono-68"/>
       <path d="M 54.296875 29.59375 
L 54.296875 25.203125 
L 15.375 25.203125 
L 15.375 24.90625 
Q 15.375 15.96875 20.03125 11.078125 
Q 24.703125 6.203125 33.203125 6.203125 
Q 37.5 6.203125 42.1875 7.5625 
Q 46.875 8.9375 52.203125 11.71875 
L 52.203125 2.78125 
Q 47.078125 0.6875 42.3125 -0.359375 
Q 37.546875 -1.421875 33.109375 -1.421875 
Q 20.359375 -1.421875 13.171875 6.21875 
Q 6 13.875 6 27.296875 
Q 6 40.375 13.03125 48.1875 
Q 20.0625 56 31.78125 56 
Q 42.234375 56 48.265625 48.921875 
Q 54.296875 41.84375 54.296875 29.59375 
z
M 45.3125 32.234375 
Q 45.125 40.140625 41.578125 44.265625 
Q 38.03125 48.390625 31.390625 48.390625 
Q 24.90625 48.390625 20.703125 44.09375 
Q 16.5 39.796875 15.71875 32.171875 
z
" id="DejaVuSansMono-101"/>
       <path d="M 51.3125 33.890625 
L 51.3125 0 
L 42.28125 0 
L 42.28125 33.890625 
Q 42.28125 41.265625 39.6875 44.71875 
Q 37.109375 48.1875 31.59375 48.1875 
Q 25.296875 48.1875 21.890625 43.71875 
Q 18.5 39.265625 18.5 30.90625 
L 18.5 0 
L 9.515625 0 
L 9.515625 54.6875 
L 18.5 54.6875 
L 18.5 46.484375 
Q 20.90625 51.171875 25 53.578125 
Q 29.109375 56 34.71875 56 
Q 43.0625 56 47.1875 50.5 
Q 51.3125 45.015625 51.3125 33.890625 
z
" id="DejaVuSansMono-110"/>
       <path d="M 47.515625 52.78125 
L 47.515625 44 
Q 43.65625 46.234375 39.75 47.359375 
Q 35.84375 48.484375 31.78125 48.484375 
Q 25.6875 48.484375 22.671875 46.5 
Q 19.671875 44.53125 19.671875 40.484375 
Q 19.671875 36.8125 21.921875 35 
Q 24.171875 33.203125 33.109375 31.5 
L 36.71875 30.8125 
Q 43.40625 29.546875 46.84375 25.734375 
Q 50.296875 21.921875 50.296875 15.828125 
Q 50.296875 7.71875 44.53125 3.140625 
Q 38.765625 -1.421875 28.515625 -1.421875 
Q 24.46875 -1.421875 20.015625 -0.5625 
Q 15.578125 0.296875 10.40625 2 
L 10.40625 11.28125 
Q 15.4375 8.6875 20.015625 7.390625 
Q 24.609375 6.109375 28.71875 6.109375 
Q 34.671875 6.109375 37.9375 8.515625 
Q 41.21875 10.9375 41.21875 15.28125 
Q 41.21875 21.53125 29.25 23.921875 
L 28.859375 24.03125 
L 25.484375 24.703125 
Q 17.71875 26.21875 14.15625 29.8125 
Q 10.59375 33.40625 10.59375 39.59375 
Q 10.59375 47.46875 15.90625 51.734375 
Q 21.234375 56 31.109375 56 
Q 35.5 56 39.546875 55.1875 
Q 43.609375 54.390625 47.515625 52.78125 
z
" id="DejaVuSansMono-115"/>
       <path d="M 12.5 54.6875 
L 35.5 54.6875 
L 35.5 6.984375 
L 53.328125 6.984375 
L 53.328125 0 
L 8.6875 0 
L 8.6875 6.984375 
L 26.515625 6.984375 
L 26.515625 47.703125 
L 12.5 47.703125 
z
M 26.515625 75.984375 
L 35.5 75.984375 
L 35.5 64.59375 
L 26.515625 64.59375 
z
" id="DejaVuSansMono-105"/>
       <path d="M 29.984375 70.21875 
L 29.984375 54.6875 
L 50.390625 54.6875 
L 50.390625 47.703125 
L 29.984375 47.703125 
L 29.984375 18.015625 
Q 29.984375 11.96875 32.28125 9.5625 
Q 34.578125 7.171875 40.28125 7.171875 
L 50.390625 7.171875 
L 50.390625 0 
L 39.40625 0 
Q 29.296875 0 25.140625 4.046875 
Q 21 8.109375 21 18.015625 
L 21 47.703125 
L 6.390625 47.703125 
L 6.390625 54.6875 
L 21 54.6875 
L 21 70.21875 
z
" id="DejaVuSansMono-116"/>
       <path d="M 41.890625 17.578125 
Q 39.65625 11.859375 36.1875 2.546875 
Q 31.34375 -10.359375 29.6875 -13.1875 
Q 27.4375 -17 24.0625 -18.890625 
Q 20.703125 -20.796875 16.21875 -20.796875 
L 8.984375 -20.796875 
L 8.984375 -13.28125 
L 14.3125 -13.28125 
Q 18.265625 -13.28125 20.5 -10.984375 
Q 22.75 -8.6875 26.21875 0.875 
L 5.078125 54.6875 
L 14.59375 54.6875 
L 30.8125 11.921875 
L 46.78125 54.6875 
L 56.296875 54.6875 
z
" id="DejaVuSansMono-121"/>
       <path id="DejaVuSansMono-32"/>
       <path d="M 43.21875 75.875 
Q 36.71875 64.75 33.515625 53.6875 
Q 30.328125 42.625 30.328125 31.390625 
Q 30.328125 20.21875 33.515625 9.125 
Q 36.71875 -1.953125 43.21875 -13.1875 
L 35.40625 -13.1875 
Q 28.03125 -1.5625 24.40625 9.4375 
Q 20.796875 20.453125 20.796875 31.390625 
Q 20.796875 42.28125 24.40625 53.3125 
Q 28.03125 64.359375 35.40625 75.875 
z
" id="DejaVuSansMono-40"/>
       <path d="M 41.890625 47.703125 
L 41.890625 75.984375 
L 50.875 75.984375 
L 50.875 0 
L 41.890625 0 
L 41.890625 6.890625 
Q 39.65625 2.828125 35.90625 0.703125 
Q 32.171875 -1.421875 27.296875 -1.421875 
Q 17.390625 -1.421875 11.6875 6.265625 
Q 6 13.96875 6 27.484375 
Q 6 40.828125 11.71875 48.40625 
Q 17.4375 56 27.296875 56 
Q 32.234375 56 35.984375 53.875 
Q 39.75 51.765625 41.890625 47.703125 
z
M 15.484375 27.296875 
Q 15.484375 16.84375 18.796875 11.515625 
Q 22.125 6.203125 28.609375 6.203125 
Q 35.109375 6.203125 38.5 11.5625 
Q 41.890625 16.9375 41.890625 27.296875 
Q 41.890625 37.703125 38.5 43.046875 
Q 35.109375 48.390625 28.609375 48.390625 
Q 22.125 48.390625 18.796875 43.0625 
Q 15.484375 37.75 15.484375 27.296875 
z
" id="DejaVuSansMono-100"/>
       <path d="M 18.3125 6.890625 
L 18.3125 -20.796875 
L 9.28125 -20.796875 
L 9.28125 54.6875 
L 18.3125 54.6875 
L 18.3125 47.703125 
Q 20.5625 51.765625 24.296875 53.875 
Q 28.03125 56 32.90625 56 
Q 42.828125 56 48.46875 48.328125 
Q 54.109375 40.671875 54.109375 27.09375 
Q 54.109375 13.765625 48.4375 6.171875 
Q 42.78125 -1.421875 32.90625 -1.421875 
Q 27.9375 -1.421875 24.1875 0.703125 
Q 20.453125 2.828125 18.3125 6.890625 
z
M 44.671875 27.296875 
Q 44.671875 37.75 41.375 43.0625 
Q 38.09375 48.390625 31.59375 48.390625 
Q 25.046875 48.390625 21.671875 43.046875 
Q 18.3125 37.703125 18.3125 27.296875 
Q 18.3125 16.9375 21.671875 11.5625 
Q 25.046875 6.203125 31.59375 6.203125 
Q 38.09375 6.203125 41.375 11.515625 
Q 44.671875 16.84375 44.671875 27.296875 
z
" id="DejaVuSansMono-112"/>
       <path d="M 31.203125 19.828125 
Q 31.203125 13.765625 33.421875 10.6875 
Q 35.640625 7.625 39.984375 7.625 
L 50.484375 7.625 
L 50.484375 0 
L 39.109375 0 
Q 31.0625 0 26.640625 5.171875 
Q 22.21875 10.359375 22.21875 19.828125 
L 22.21875 69.484375 
L 7.8125 69.484375 
L 7.8125 76.515625 
L 31.203125 76.515625 
z
" id="DejaVuSansMono-108"/>
       <path d="M 30.078125 48.390625 
Q 23.25 48.390625 19.734375 43.0625 
Q 16.21875 37.75 16.21875 27.296875 
Q 16.21875 16.890625 19.734375 11.546875 
Q 23.25 6.203125 30.078125 6.203125 
Q 36.96875 6.203125 40.484375 11.546875 
Q 44 16.890625 44 27.296875 
Q 44 37.75 40.484375 43.0625 
Q 36.96875 48.390625 30.078125 48.390625 
z
M 30.078125 56 
Q 41.453125 56 47.484375 48.625 
Q 53.515625 41.265625 53.515625 27.296875 
Q 53.515625 13.28125 47.5 5.921875 
Q 41.5 -1.421875 30.078125 -1.421875 
Q 18.703125 -1.421875 12.6875 5.921875 
Q 6.6875 13.28125 6.6875 27.296875 
Q 6.6875 41.265625 12.6875 48.625 
Q 18.703125 56 30.078125 56 
z
" id="DejaVuSansMono-111"/>
       <path d="M 56.390625 43.40625 
Q 53.515625 45.65625 50.53125 46.671875 
Q 47.5625 47.703125 44 47.703125 
Q 35.59375 47.703125 31.140625 42.421875 
Q 26.703125 37.15625 26.703125 27.203125 
L 26.703125 0 
L 17.671875 0 
L 17.671875 54.6875 
L 26.703125 54.6875 
L 26.703125 44 
Q 28.953125 49.8125 33.609375 52.90625 
Q 38.28125 56 44.671875 56 
Q 48 56 50.875 55.171875 
Q 53.765625 54.34375 56.390625 52.59375 
z
" id="DejaVuSansMono-114"/>
       <path d="M 33.015625 49.125 
Q 34.671875 52.640625 37.234375 54.3125 
Q 39.796875 56 43.40625 56 
Q 50 56 52.703125 50.890625 
Q 55.421875 45.796875 55.421875 31.6875 
L 55.421875 0 
L 47.21875 0 
L 47.21875 31.296875 
Q 47.21875 42.875 45.921875 45.671875 
Q 44.625 48.484375 41.21875 48.484375 
Q 37.3125 48.484375 35.859375 45.484375 
Q 34.421875 42.484375 34.421875 31.296875 
L 34.421875 0 
L 26.21875 0 
L 26.21875 31.296875 
Q 26.21875 43.015625 24.828125 45.75 
Q 23.4375 48.484375 19.828125 48.484375 
Q 16.265625 48.484375 14.875 45.484375 
Q 13.484375 42.484375 13.484375 31.296875 
L 13.484375 0 
L 5.328125 0 
L 5.328125 54.6875 
L 13.484375 54.6875 
L 13.484375 50 
Q 15.09375 52.9375 17.5 54.46875 
Q 19.921875 56 23 56 
Q 26.703125 56 29.171875 54.296875 
Q 31.640625 52.59375 33.015625 49.125 
z
" id="DejaVuSansMono-109"/>
       <path d="M 34.28125 27.484375 
L 31.296875 27.484375 
Q 23.4375 27.484375 19.453125 24.71875 
Q 15.484375 21.96875 15.484375 16.5 
Q 15.484375 11.578125 18.453125 8.84375 
Q 21.4375 6.109375 26.703125 6.109375 
Q 34.125 6.109375 38.375 11.25 
Q 42.625 16.40625 42.671875 25.484375 
L 42.671875 27.484375 
z
M 51.703125 31.203125 
L 51.703125 0 
L 42.671875 0 
L 42.671875 8.109375 
Q 39.796875 3.21875 35.421875 0.890625 
Q 31.0625 -1.421875 24.8125 -1.421875 
Q 16.453125 -1.421875 11.46875 3.296875 
Q 6.5 8.015625 6.5 15.921875 
Q 6.5 25.046875 12.625 29.78125 
Q 18.75 34.515625 30.609375 34.515625 
L 42.671875 34.515625 
L 42.671875 35.9375 
Q 42.625 42.484375 39.34375 45.4375 
Q 36.078125 48.390625 28.90625 48.390625 
Q 24.3125 48.390625 19.625 47.0625 
Q 14.9375 45.75 10.5 43.21875 
L 10.5 52.203125 
Q 15.484375 54.109375 20.046875 55.046875 
Q 24.609375 56 28.90625 56 
Q 35.6875 56 40.5 54 
Q 45.3125 52 48.296875 48 
Q 50.140625 45.5625 50.921875 41.96875 
Q 51.703125 38.375 51.703125 31.203125 
z
" id="DejaVuSansMono-97"/>
       <path d="M 11.078125 54.78125 
L 50.78125 54.78125 
L 50.78125 46.578125 
L 19.390625 7.328125 
L 50.78125 7.328125 
L 50.78125 0 
L 9.90625 0 
L 9.90625 8.296875 
L 41.3125 47.609375 
L 11.078125 47.609375 
z
" id="DejaVuSansMono-122"/>
       <path d="M 41.890625 27.78125 
Q 41.890625 37.890625 38.59375 43.140625 
Q 35.296875 48.390625 29 48.390625 
Q 22.40625 48.390625 18.9375 43.140625 
Q 15.484375 37.890625 15.484375 27.78125 
Q 15.484375 17.671875 18.96875 12.375 
Q 22.46875 7.078125 29.109375 7.078125 
Q 35.296875 7.078125 38.59375 12.390625 
Q 41.890625 17.71875 41.890625 27.78125 
z
M 50.875 3.515625 
Q 50.875 -8.796875 45.0625 -15.140625 
Q 39.265625 -21.484375 27.984375 -21.484375 
Q 24.265625 -21.484375 20.203125 -20.796875 
Q 16.15625 -20.125 12.109375 -18.796875 
L 12.109375 -9.90625 
Q 16.890625 -12.15625 20.796875 -13.234375 
Q 24.703125 -14.3125 27.984375 -14.3125 
Q 35.25 -14.3125 38.5625 -10.34375 
Q 41.890625 -6.390625 41.890625 2.203125 
L 41.890625 2.59375 
L 41.890625 8.6875 
Q 39.75 4.109375 36.03125 1.859375 
Q 32.328125 -0.390625 27 -0.390625 
Q 17.4375 -0.390625 11.71875 7.265625 
Q 6 14.9375 6 27.78125 
Q 6 40.671875 11.71875 48.328125 
Q 17.4375 56 27 56 
Q 32.28125 56 35.9375 53.90625 
Q 39.59375 51.8125 41.890625 47.40625 
L 41.890625 54.5 
L 50.875 54.5 
z
" id="DejaVuSansMono-103"/>
       <path d="M 51.3125 33.890625 
L 51.3125 0 
L 42.28125 0 
L 42.28125 33.890625 
Q 42.28125 41.265625 39.6875 44.71875 
Q 37.109375 48.1875 31.59375 48.1875 
Q 25.296875 48.1875 21.890625 43.71875 
Q 18.5 39.265625 18.5 30.90625 
L 18.5 0 
L 9.515625 0 
L 9.515625 75.984375 
L 18.5 75.984375 
L 18.5 46.484375 
Q 20.90625 51.171875 25 53.578125 
Q 29.109375 56 34.71875 56 
Q 43.0625 56 47.1875 50.5 
Q 51.3125 45.015625 51.3125 33.890625 
z
" id="DejaVuSansMono-104"/>
       <path d="M 51.8125 2.78125 
Q 48.1875 0.6875 44.359375 -0.359375 
Q 40.53125 -1.421875 36.53125 -1.421875 
Q 23.828125 -1.421875 16.671875 6.1875 
Q 9.515625 13.8125 9.515625 27.296875 
Q 9.515625 40.765625 16.671875 48.375 
Q 23.828125 56 36.53125 56 
Q 40.484375 56 44.234375 54.96875 
Q 48 53.953125 51.8125 51.8125 
L 51.8125 42.390625 
Q 48.25 45.5625 44.65625 46.96875 
Q 41.0625 48.390625 36.53125 48.390625 
Q 28.078125 48.390625 23.53125 42.921875 
Q 19 37.453125 19 27.296875 
Q 19 17.1875 23.5625 11.6875 
Q 28.125 6.203125 36.53125 6.203125 
Q 41.21875 6.203125 44.921875 7.640625 
Q 48.640625 9.078125 51.8125 12.109375 
z
" id="DejaVuSansMono-99"/>
       <path d="M 17 75.875 
L 24.8125 75.875 
Q 32.171875 64.359375 35.78125 53.3125 
Q 39.40625 42.28125 39.40625 31.390625 
Q 39.40625 20.40625 35.78125 9.375 
Q 32.171875 -1.65625 24.8125 -13.1875 
L 17 -13.1875 
Q 23.484375 -1.859375 26.6875 9.21875 
Q 29.890625 20.3125 29.890625 31.390625 
Q 29.890625 42.53125 26.6875 53.609375 
Q 23.484375 64.703125 17 75.875 
z
" id="DejaVuSansMono-41"/>
      </defs>
      <use xlink:href="#DejaVuSansMono-68"/>
      <use x="60.205078" xlink:href="#DejaVuSansMono-101"/>
      <use x="120.410156" xlink:href="#DejaVuSansMono-110"/>
      <use x="180.615234" xlink:href="#DejaVuSansMono-115"/>
      <use x="240.820312" xlink:href="#DejaVuSansMono-105"/>
      <use x="301.025391" xlink:href="#DejaVuSansMono-116"/>
      <use x="361.230469" xlink:href="#DejaVuSansMono-121"/>
      <use x="421.435547" xlink:href="#DejaVuSansMono-32"/>
      <use x="481.640625" xlink:href="#DejaVuSansMono-40"/>
      <use x="541.845703" xlink:href="#DejaVuSansMono-105"/>
      <use x="602.050781" xlink:href="#DejaVuSansMono-110"/>
      <use x="662.255859" xlink:href="#DejaVuSansMono-100"/>
      <use x="722.460938" xlink:href="#DejaVuSansMono-101"/>
      <use x="782.666016" xlink:href="#DejaVuSansMono-112"/>
      <use x="842.871094" xlink:href="#DejaVuSansMono-101"/>
      <use x="903.076172" xlink:href="#DejaVuSansMono-110"/>
      <use x="963.28125" xlink:href="#DejaVuSansMono-100"/>
      <use x="1023.486328" xlink:href="#DejaVuSansMono-101"/>
      <use x="1083.691406" xlink:href="#DejaVuSansMono-110"/>
      <use x="1143.896484" xlink:href="#DejaVuSansMono-116"/>
      <use x="1204.101562" xlink:href="#DejaVuSansMono-108"/>
      <use x="1264.306641" xlink:href="#DejaVuSansMono-121"/>
      <use x="1324.511719" xlink:href="#DejaVuSansMono-32"/>
      <use x="1384.716797" xlink:href="#DejaVuSansMono-110"/>
      <use x="1444.921875" xlink:href="#DejaVuSansMono-111"/>
      <use x="1505.126953" xlink:href="#DejaVuSansMono-114"/>
      <use x="1565.332031" xlink:href="#DejaVuSansMono-109"/>
      <use x="1625.537109" xlink:href="#DejaVuSansMono-97"/>
      <use x="1685.742188" xlink:href="#DejaVuSansMono-108"/>
      <use x="1745.947266" xlink:href="#DejaVuSansMono-105"/>
      <use x="1806.152344" xlink:href="#DejaVuSansMono-122"/>
      <use x="1866.357422" xlink:href="#DejaVuSansMono-101"/>
      <use x="1926.5625" xlink:href="#DejaVuSansMono-100"/>
      <use x="1986.767578" xlink:href="#DejaVuSansMono-32"/>
      <use x="2046.972656" xlink:href="#DejaVuSansMono-97"/>
      <use x="2107.177734" xlink:href="#DejaVuSansMono-110"/>
      <use x="2167.382812" xlink:href="#DejaVuSansMono-100"/>
      <use x="2227.587891" xlink:href="#DejaVuSansMono-32"/>
      <use x="2287.792969" xlink:href="#DejaVuSansMono-108"/>
      <use x="2347.998047" xlink:href="#DejaVuSansMono-111"/>
      <use x="2408.203125" xlink:href="#DejaVuSansMono-103"/>
      <use x="2468.408203" xlink:href="#DejaVuSansMono-97"/>
      <use x="2528.613281" xlink:href="#DejaVuSansMono-114"/>
      <use x="2588.818359" xlink:href="#DejaVuSansMono-105"/>
      <use x="2649.023438" xlink:href="#DejaVuSansMono-116"/>
      <use x="2709.228516" xlink:href="#DejaVuSansMono-104"/>
      <use x="2769.433594" xlink:href="#DejaVuSansMono-109"/>
      <use x="2829.638672" xlink:href="#DejaVuSansMono-105"/>
      <use x="2889.84375" xlink:href="#DejaVuSansMono-99"/>
      <use x="2950.048828" xlink:href="#DejaVuSansMono-97"/>
      <use x="3010.253906" xlink:href="#DejaVuSansMono-108"/>
      <use x="3070.458984" xlink:href="#DejaVuSansMono-108"/>
      <use x="3130.664062" xlink:href="#DejaVuSansMono-121"/>
      <use x="3190.869141" xlink:href="#DejaVuSansMono-32"/>
      <use x="3251.074219" xlink:href="#DejaVuSansMono-115"/>
      <use x="3311.279297" xlink:href="#DejaVuSansMono-99"/>
      <use x="3371.484375" xlink:href="#DejaVuSansMono-97"/>
      <use x="3431.689453" xlink:href="#DejaVuSansMono-108"/>
      <use x="3491.894531" xlink:href="#DejaVuSansMono-101"/>
      <use x="3552.099609" xlink:href="#DejaVuSansMono-100"/>
      <use x="3612.304688" xlink:href="#DejaVuSansMono-41"/>
     </g>
    </g>
   </g>
   <g id="line2d_20">
    <path clip-path="url(#pf9d0b56151)" d="M 27.599409 478.902604 
L 31.737061 477.599042 
L 35.874713 475.305841 
L 40.012365 471.473953 
L 44.150017 465.394062 
L 48.287669 456.238119 
L 52.425321 443.15852 
L 56.562973 425.446954 
L 60.700625 402.733887 
L 64.838277 375.185973 
L 68.975929 343.642126 
L 77.251234 275.227944 
L 81.388886 242.782012 
L 85.526538 214.531614 
L 89.66419 192.235786 
L 93.801842 176.893673 
L 97.939494 168.627661 
L 102.077146 166.748162 
L 106.214798 169.967137 
L 110.35245 176.691423 
L 114.490102 185.317251 
L 118.627754 194.462778 
L 122.765406 203.105503 
L 126.903058 210.622954 
L 131.04071 216.757705 
L 135.178362 221.537748 
L 139.316015 225.182046 
L 143.453667 228.013204 
L 155.866623 235.134321 
L 160.004275 238.081796 
L 164.141927 241.715242 
L 168.279579 246.192919 
L 172.417231 251.610846 
L 176.554883 257.993925 
L 180.692535 265.288016 
L 184.830187 273.358147 
L 188.967839 281.997528 
L 201.380796 308.704376 
L 205.518448 317.039676 
L 209.6561 324.802062 
L 213.793752 331.924106 
L 217.931404 338.404096 
L 222.069056 344.288637 
L 226.206708 349.652005 
L 230.34436 354.577431 
L 234.482012 359.143265 
L 238.619664 363.414678 
L 242.757316 367.440008 
L 246.894968 371.250398 
L 251.03262 374.86163 
L 255.170273 378.277536 
L 259.307925 381.494526 
L 263.445577 384.506664 
L 267.583229 387.310477 
L 271.720881 389.908644 
L 275.858533 392.311931 
L 279.996185 394.539191 
L 288.271489 398.57011 
L 296.546793 402.224802 
L 308.959749 407.354773 
L 317.235054 410.599406 
L 325.510358 413.661649 
L 333.785662 416.509074 
L 342.060966 419.13517 
L 350.33627 421.549332 
L 362.749226 424.869304 
L 395.850443 433.352781 
L 404.125747 435.088632 
L 412.401051 436.512028 
L 441.364616 440.980189 
L 462.052876 444.604559 
L 470.32818 445.76996 
L 478.603484 446.663806 
L 495.154093 448.270652 
L 503.429397 449.340307 
L 519.980005 451.605159 
L 528.255309 452.424137 
L 536.530613 453.007753 
L 561.356526 454.356173 
L 582.044786 455.360177 
L 590.32009 455.584923 
L 598.595394 455.626168 
L 615.146003 455.364626 
L 627.558959 455.222093 
L 631.696611 455.295066 
L 635.834263 455.507901 
L 639.971915 455.923107 
L 644.109567 456.595766 
L 648.247219 457.556386 
L 652.384871 458.796833 
L 656.522523 460.264444 
L 668.935479 464.997705 
L 673.073131 466.292454 
L 677.210784 467.289462 
L 681.348436 467.946249 
L 685.486088 468.260294 
L 689.62374 468.26521 
L 693.761392 468.022926 
L 702.036696 467.121191 
L 710.312 466.181637 
L 718.587304 465.536487 
L 731.00026 464.716322 
L 735.137913 464.282758 
L 743.413217 463.103305 
L 751.688521 461.938362 
L 755.826173 461.611914 
L 759.963825 461.57391 
L 764.101477 461.863706 
L 768.239129 462.470241 
L 772.376781 463.339914 
L 780.652085 465.564325 
L 793.065042 469.319519 
L 813.753302 475.81377 
L 817.890954 476.907419 
L 822.028606 477.837502 
L 826.166258 478.587179 
L 830.30391 479.159272 
L 834.441562 479.572474 
L 841.714328 479.993532 
L 841.714328 479.993532 
" style="fill:none;stroke:#55a868;stroke-linecap:round;stroke-width:1.5;"/>
   </g>
   <g id="line2d_21">
    <path clip-path="url(#pf9d0b56151)" d="M 4.954438 479.310382 
L 9.319677 478.666911 
L 13.684917 477.66911 
L 18.050157 476.165864 
L 22.415397 473.965787 
L 26.780636 470.838201 
L 31.145876 466.520267 
L 35.511116 460.731888 
L 39.876355 453.199104 
L 44.241595 443.685277 
L 48.606835 432.027526 
L 52.972075 418.173979 
L 57.337314 402.215944 
L 61.702554 384.40851 
L 66.067794 365.17382 
L 79.163513 305.115693 
L 83.528753 286.694669 
L 87.893992 270.193828 
L 92.259232 256.10841 
L 96.624472 244.749137 
L 100.989711 236.224182 
L 105.354951 230.446457 
L 109.720191 227.163515 
L 114.085431 226.003802 
L 118.45067 226.531007 
L 122.81591 228.297957 
L 127.18115 230.892837 
L 131.546389 233.972926 
L 144.642109 244.042516 
L 153.372588 250.842989 
L 157.737828 254.409452 
L 162.103067 258.220726 
L 166.468307 262.379225 
L 170.833547 266.97144 
L 175.198787 272.057275 
L 179.564026 277.662937 
L 183.929266 283.777478 
L 188.294506 290.352961 
L 192.659746 297.308099 
L 201.390225 311.907607 
L 210.120704 326.559937 
L 214.485944 333.590042 
L 218.851184 340.283452 
L 223.216424 346.564242 
L 227.581663 352.382262 
L 231.946903 357.712643 
L 236.312143 362.55335 
L 240.677382 366.921426 
L 245.042622 370.848592 
L 249.407862 374.376766 
L 253.773102 377.553873 
L 258.138341 380.430208 
L 262.503581 383.055423 
L 266.868821 385.476173 
L 271.23406 387.734399 
L 279.96454 391.901439 
L 288.695019 395.770195 
L 301.790738 401.268843 
L 319.251697 408.310575 
L 341.077896 416.925189 
L 354.173615 421.858434 
L 362.904095 424.881842 
L 371.634574 427.583617 
L 380.365053 429.895672 
L 389.095533 431.789756 
L 397.826012 433.285712 
L 406.556492 434.450513 
L 415.286971 435.382979 
L 432.74793 436.93103 
L 454.574129 438.665116 
L 476.400327 440.112137 
L 489.496046 441.070203 
L 498.226526 441.890914 
L 511.322245 443.379869 
L 524.417964 444.83022 
L 533.148444 445.525925 
L 541.878923 445.908517 
L 550.609402 446.006501 
L 563.705122 445.846628 
L 585.53132 445.378741 
L 594.2618 445.047579 
L 602.992279 444.541417 
L 620.453238 443.417534 
L 624.818478 443.333982 
L 629.183717 443.437694 
L 633.548957 443.782247 
L 637.914197 444.409739 
L 642.279436 445.343663 
L 646.644676 446.583292 
L 651.009916 448.100743 
L 655.375156 449.84146 
L 672.836115 457.325218 
L 677.201354 458.867357 
L 681.566594 460.133416 
L 685.931834 461.088886 
L 690.297073 461.723798 
L 694.662313 462.049637 
L 699.027553 462.093944 
L 703.392793 461.893894 
L 707.758032 461.490172 
L 712.123272 460.922322 
L 720.853751 459.434405 
L 742.67995 455.210053 
L 747.04519 454.610943 
L 751.410429 454.212984 
L 755.775669 454.063773 
L 760.140909 454.199844 
L 764.506149 454.642208 
L 768.871388 455.39384 
L 773.236628 456.439529 
L 777.601868 457.747952 
L 781.967107 459.275394 
L 790.697587 462.777604 
L 803.793306 468.347143 
L 812.523785 471.740325 
L 816.889025 473.242156 
L 821.254265 474.587224 
L 825.619505 475.764916 
L 829.984744 476.772184 
L 834.349984 477.613024 
L 841.714328 478.670582 
L 841.714328 478.670582 
" style="fill:none;stroke:#dd8452;stroke-linecap:round;stroke-width:1.5;"/>
   </g>
   <g id="line2d_22">
    <path clip-path="url(#pf9d0b56151)" d="M -1 476.02952 
L 0.844806 475.432644 
L 5.435916 473.412749 
L 10.027026 470.719196 
L 14.618136 467.197115 
L 19.209245 462.681658 
L 23.800355 457.006506 
L 28.391465 450.01514 
L 32.982575 441.574395 
L 37.573684 431.589444 
L 42.164794 420.018889 
L 46.755904 406.888345 
L 51.347014 392.300733 
L 55.938123 376.441573 
L 60.529233 359.577914 
L 78.893672 289.621967 
L 83.484782 273.654133 
L 88.075892 259.11179 
L 92.667002 246.309978 
L 97.258111 235.478044 
L 101.849221 226.749867 
L 106.440331 220.162567 
L 111.031441 215.66337 
L 115.622551 213.123407 
L 120.21366 212.356418 
L 124.80477 213.139974 
L 129.39588 215.236723 
L 133.98699 218.413459 
L 138.578099 222.456343 
L 143.169209 227.181273 
L 147.760319 232.439135 
L 152.351429 238.116302 
L 156.942538 244.131263 
L 161.533648 250.428519 
L 166.124758 256.971053 
L 175.306978 270.690243 
L 184.489197 285.089685 
L 207.444746 321.977142 
L 212.035856 329.080448 
L 216.626966 335.965103 
L 221.218075 342.586232 
L 225.809185 348.907371 
L 230.400295 354.901326 
L 234.991405 360.550358 
L 239.582514 365.845797 
L 244.173624 370.787227 
L 248.764734 375.381424 
L 253.355844 379.641167 
L 257.946954 383.584035 
L 262.538063 387.231264 
L 267.129173 390.606682 
L 271.720283 393.735714 
L 276.311393 396.644465 
L 280.902502 399.358838 
L 285.493612 401.903726 
L 290.084722 404.302262 
L 299.266941 408.740448 
L 308.449161 412.804028 
L 317.631381 416.57598 
L 326.8136 420.102617 
L 335.99582 423.414952 
L 349.769149 428.068218 
L 377.315808 436.942679 
L 391.089137 441.309085 
L 400.271357 444.033343 
L 409.453576 446.440654 
L 414.044686 447.48129 
L 418.635796 448.395009 
L 423.226905 449.17337 
L 427.818015 449.812854 
L 432.409125 450.314981 
L 437.000235 450.686029 
L 446.182454 451.079828 
L 455.364674 451.111049 
L 469.138003 450.77883 
L 487.502442 450.252588 
L 501.275772 450.104848 
L 515.049101 450.203969 
L 542.595759 450.504905 
L 551.777979 450.418854 
L 560.960199 450.175635 
L 570.142418 449.766556 
L 583.915747 448.865039 
L 611.462406 446.692323 
L 620.644626 446.340529 
L 625.235735 446.350874 
L 629.826845 446.521645 
L 634.417955 446.874681 
L 639.009065 447.42435 
L 643.600175 448.175227 
L 648.191284 449.12046 
L 652.782394 450.241055 
L 661.964614 452.875065 
L 675.737943 457.095845 
L 680.329053 458.363274 
L 684.920162 459.480067 
L 689.511272 460.4087 
L 694.102382 461.121871 
L 698.693492 461.603462 
L 703.284602 461.848726 
L 707.875711 461.863853 
L 712.466821 461.665094 
L 717.057931 461.277608 
L 721.649041 460.734167 
L 730.83126 459.340242 
L 740.01348 457.843428 
L 744.60459 457.176981 
L 749.195699 456.627151 
L 753.786809 456.235385 
L 758.377919 456.036649 
L 762.969029 456.057625 
L 767.560138 456.315305 
L 772.151248 456.816134 
L 776.742358 457.555801 
L 781.333468 458.519697 
L 785.924577 459.684012 
L 790.515687 461.017358 
L 799.697907 464.039932 
L 818.062346 470.383249 
L 827.244565 473.154246 
L 831.835675 474.360062 
L 836.426785 475.432529 
L 841.714328 476.490706 
L 841.714328 476.490706 
" style="fill:none;stroke:#4c72b0;stroke-linecap:round;stroke-width:1.5;"/>
   </g>
   <g id="patch_3">
    <path d="M 83.520406 480.286812 
L 83.520406 151.074812 
" style="fill:none;stroke:#cccccc;stroke-linecap:square;stroke-linejoin:miter;stroke-width:1.25;"/>
   </g>
   <g id="patch_4">
    <path d="M 819.607406 480.286812 
L 819.607406 151.074812 
" style="fill:none;stroke:#cccccc;stroke-linecap:square;stroke-linejoin:miter;stroke-width:1.25;"/>
   </g>
   <g id="patch_5">
    <path d="M 83.520406 480.286812 
L 819.607406 480.286812 
" style="fill:none;stroke:#cccccc;stroke-linecap:square;stroke-linejoin:miter;stroke-width:1.25;"/>
   </g>
   <g id="patch_6">
    <path d="M 83.520406 151.074812 
L 819.607406 151.074812 
" style="fill:none;stroke:#cccccc;stroke-linecap:square;stroke-linejoin:miter;stroke-width:1.25;"/>
   </g>
   <g id="text_22">
    <!-- Relative composition of network k-cores -->
    <g style="fill:#262626;" transform="translate(254.338469 145.074812)scale(0.168 -0.168)">
     <defs>
      <path d="M 37.109375 34.421875 
Q 40.921875 33.453125 43.609375 30.734375 
Q 46.296875 28.03125 50.296875 19.921875 
L 60.203125 0 
L 49.609375 0 
L 40.921875 18.40625 
Q 37.15625 26.265625 34.15625 28.53125 
Q 31.15625 30.8125 26.3125 30.8125 
L 16.890625 30.8125 
L 16.890625 0 
L 6.984375 0 
L 6.984375 72.90625 
L 27.296875 72.90625 
Q 39.3125 72.90625 45.703125 67.484375 
Q 52.09375 62.0625 52.09375 51.8125 
Q 52.09375 44.578125 48.15625 40.015625 
Q 44.234375 35.453125 37.109375 34.421875 
z
M 16.890625 64.796875 
L 16.890625 38.921875 
L 27.6875 38.921875 
Q 34.765625 38.921875 38.234375 42.09375 
Q 41.703125 45.265625 41.703125 51.8125 
Q 41.703125 58.109375 38.015625 61.453125 
Q 34.328125 64.796875 27.296875 64.796875 
z
" id="DejaVuSansMono-82"/>
      <path d="M 4.890625 54.6875 
L 14.203125 54.6875 
L 30.078125 8.796875 
L 46 54.6875 
L 55.328125 54.6875 
L 35.890625 0 
L 24.3125 0 
z
" id="DejaVuSansMono-118"/>
      <path d="M 51.90625 75.984375 
L 51.90625 68.5 
L 41.703125 68.5 
Q 36.859375 68.5 34.984375 66.515625 
Q 33.109375 64.546875 33.109375 59.515625 
L 33.109375 54.6875 
L 51.90625 54.6875 
L 51.90625 47.703125 
L 33.109375 47.703125 
L 33.109375 0 
L 24.125 0 
L 24.125 47.703125 
L 9.515625 47.703125 
L 9.515625 54.6875 
L 24.125 54.6875 
L 24.125 58.5 
Q 24.125 67.484375 28.25 71.734375 
Q 32.375 75.984375 41.109375 75.984375 
z
" id="DejaVuSansMono-102"/>
      <path d="M 0 54.6875 
L 8.890625 54.6875 
L 18.40625 10.5 
L 26.21875 38.71875 
L 33.890625 38.71875 
L 41.796875 10.5 
L 51.3125 54.6875 
L 60.203125 54.6875 
L 47.40625 0 
L 38.8125 0 
L 30.078125 29.984375 
L 21.390625 0 
L 12.796875 0 
z
" id="DejaVuSansMono-119"/>
      <path d="M 11.53125 75.984375 
L 20.796875 75.984375 
L 20.796875 31.984375 
L 44.390625 54.6875 
L 55.328125 54.6875 
L 33.796875 34.078125 
L 58.6875 0 
L 47.703125 0 
L 27.484375 28.21875 
L 20.796875 21.921875 
L 20.796875 0 
L 11.53125 0 
z
" id="DejaVuSansMono-107"/>
      <path d="M 17.390625 31.390625 
L 42.828125 31.390625 
L 42.828125 23.390625 
L 17.390625 23.390625 
z
" id="DejaVuSansMono-45"/>
     </defs>
     <use xlink:href="#DejaVuSansMono-82"/>
     <use x="60.205078" xlink:href="#DejaVuSansMono-101"/>
     <use x="120.410156" xlink:href="#DejaVuSansMono-108"/>
     <use x="180.615234" xlink:href="#DejaVuSansMono-97"/>
     <use x="240.820312" xlink:href="#DejaVuSansMono-116"/>
     <use x="301.025391" xlink:href="#DejaVuSansMono-105"/>
     <use x="361.230469" xlink:href="#DejaVuSansMono-118"/>
     <use x="421.435547" xlink:href="#DejaVuSansMono-101"/>
     <use x="481.640625" xlink:href="#DejaVuSansMono-32"/>
     <use x="541.845703" xlink:href="#DejaVuSansMono-99"/>
     <use x="602.050781" xlink:href="#DejaVuSansMono-111"/>
     <use x="662.255859" xlink:href="#DejaVuSansMono-109"/>
     <use x="722.460938" xlink:href="#DejaVuSansMono-112"/>
     <use x="782.666016" xlink:href="#DejaVuSansMono-111"/>
     <use x="842.871094" xlink:href="#DejaVuSansMono-115"/>
     <use x="903.076172" xlink:href="#DejaVuSansMono-105"/>
     <use x="963.28125" xlink:href="#DejaVuSansMono-116"/>
     <use x="1023.486328" xlink:href="#DejaVuSansMono-105"/>
     <use x="1083.691406" xlink:href="#DejaVuSansMono-111"/>
     <use x="1143.896484" xlink:href="#DejaVuSansMono-110"/>
     <use x="1204.101562" xlink:href="#DejaVuSansMono-32"/>
     <use x="1264.306641" xlink:href="#DejaVuSansMono-111"/>
     <use x="1324.511719" xlink:href="#DejaVuSansMono-102"/>
     <use x="1384.716797" xlink:href="#DejaVuSansMono-32"/>
     <use x="1444.921875" xlink:href="#DejaVuSansMono-110"/>
     <use x="1505.126953" xlink:href="#DejaVuSansMono-101"/>
     <use x="1565.332031" xlink:href="#DejaVuSansMono-116"/>
     <use x="1625.537109" xlink:href="#DejaVuSansMono-119"/>
     <use x="1685.742188" xlink:href="#DejaVuSansMono-111"/>
     <use x="1745.947266" xlink:href="#DejaVuSansMono-114"/>
     <use x="1806.152344" xlink:href="#DejaVuSansMono-107"/>
     <use x="1866.357422" xlink:href="#DejaVuSansMono-32"/>
     <use x="1926.5625" xlink:href="#DejaVuSansMono-107"/>
     <use x="1986.767578" xlink:href="#DejaVuSansMono-45"/>
     <use x="2046.972656" xlink:href="#DejaVuSansMono-99"/>
     <use x="2107.177734" xlink:href="#DejaVuSansMono-111"/>
     <use x="2167.382812" xlink:href="#DejaVuSansMono-114"/>
     <use x="2227.587891" xlink:href="#DejaVuSansMono-101"/>
     <use x="2287.792969" xlink:href="#DejaVuSansMono-115"/>
    </g>
   </g>
   <g id="legend_1">
    <g id="patch_7">
     <path d="M 611.206906 255.501687 
L 808.827406 255.501687 
Q 811.907406 255.501687 811.907406 252.421687 
L 811.907406 161.854812 
Q 811.907406 158.774812 808.827406 158.774812 
L 611.206906 158.774812 
Q 608.126906 158.774812 608.126906 161.854812 
L 608.126906 252.421687 
Q 608.126906 255.501687 611.206906 255.501687 
z
" style="fill:#ffffff;opacity:0.8;stroke:#cccccc;stroke-linejoin:miter;"/>
    </g>
    <g id="text_23">
     <!-- Groups -->
     <g style="fill:#262626;" transform="translate(679.674781 177.789437)scale(0.168 -0.168)">
      <defs>
       <path d="M 53.90625 6 
Q 49.953125 2.34375 45 0.453125 
Q 40.046875 -1.421875 34.28125 -1.421875 
Q 20.40625 -1.421875 12.6875 8.515625 
Q 4.984375 18.453125 4.984375 36.375 
Q 4.984375 54.25 12.796875 64.234375 
Q 20.609375 74.21875 34.515625 74.21875 
Q 39.109375 74.21875 43.3125 72.921875 
Q 47.515625 71.625 51.421875 69 
L 51.421875 58.890625 
Q 47.46875 62.640625 43.3125 64.421875 
Q 39.15625 66.21875 34.515625 66.21875 
Q 24.90625 66.21875 20.09375 58.765625 
Q 15.28125 51.3125 15.28125 36.375 
Q 15.28125 21.1875 19.9375 13.890625 
Q 24.609375 6.59375 34.28125 6.59375 
Q 37.546875 6.59375 40.015625 7.34375 
Q 42.484375 8.109375 44.484375 9.71875 
L 44.484375 29.296875 
L 33.890625 29.296875 
L 33.890625 37.40625 
L 53.90625 37.40625 
z
" id="DejaVuSansMono-71"/>
       <path d="M 9.515625 20.703125 
L 9.515625 54.59375 
L 18.5 54.59375 
L 18.5 20.703125 
Q 18.5 13.328125 21.109375 9.859375 
Q 23.734375 6.390625 29.203125 6.390625 
Q 35.546875 6.390625 38.90625 10.859375 
Q 42.28125 15.328125 42.28125 23.6875 
L 42.28125 54.59375 
L 51.3125 54.59375 
L 51.3125 0 
L 42.28125 0 
L 42.28125 8.203125 
Q 39.890625 3.46875 35.765625 1.015625 
Q 31.640625 -1.421875 26.125 -1.421875 
Q 17.71875 -1.421875 13.609375 4.078125 
Q 9.515625 9.578125 9.515625 20.703125 
z
" id="DejaVuSansMono-117"/>
      </defs>
      <use xlink:href="#DejaVuSansMono-71"/>
      <use x="60.205078" xlink:href="#DejaVuSansMono-114"/>
      <use x="120.410156" xlink:href="#DejaVuSansMono-111"/>
      <use x="180.615234" xlink:href="#DejaVuSansMono-117"/>
      <use x="240.820312" xlink:href="#DejaVuSansMono-112"/>
      <use x="301.025391" xlink:href="#DejaVuSansMono-115"/>
     </g>
    </g>
    <g id="line2d_23">
     <path d="M 614.286906 195.376719 
L 645.086906 195.376719 
" style="fill:none;stroke:#4c72b0;stroke-linecap:round;stroke-width:1.5;"/>
    </g>
    <g id="line2d_24"/>
    <g id="text_24">
     <!-- Likely Bots -->
     <g style="fill:#262626;" transform="translate(657.406906 200.766719)scale(0.154 -0.154)">
      <defs>
       <path d="M 10.5 72.90625 
L 20.40625 72.90625 
L 20.40625 8.296875 
L 55.609375 8.296875 
L 55.609375 0 
L 10.5 0 
z
" id="DejaVuSansMono-76"/>
       <path d="M 18.015625 34.8125 
L 18.015625 8.109375 
L 29.6875 8.109375 
Q 38.28125 8.109375 41.9375 11.109375 
Q 45.609375 14.109375 45.609375 21 
Q 45.609375 28.125 41.75 31.46875 
Q 37.890625 34.8125 29.6875 34.8125 
z
M 18.015625 64.796875 
L 18.015625 42.828125 
L 29.5 42.828125 
Q 36.625 42.828125 39.8125 45.5625 
Q 43.015625 48.296875 43.015625 54.390625 
Q 43.015625 59.90625 39.859375 62.34375 
Q 36.71875 64.796875 29.5 64.796875 
z
M 8.109375 72.90625 
L 29.6875 72.90625 
Q 40.875 72.90625 46.921875 68.0625 
Q 52.984375 63.234375 52.984375 54.390625 
Q 52.984375 47.703125 49.78125 43.84375 
Q 46.578125 39.984375 40.1875 39.015625 
Q 47.359375 37.9375 51.4375 32.875 
Q 55.515625 27.828125 55.515625 20.015625 
Q 55.515625 10.109375 49.015625 5.046875 
Q 42.53125 0 29.6875 0 
L 8.109375 0 
z
" id="DejaVuSansMono-66"/>
      </defs>
      <use xlink:href="#DejaVuSansMono-76"/>
      <use x="60.205078" xlink:href="#DejaVuSansMono-105"/>
      <use x="120.410156" xlink:href="#DejaVuSansMono-107"/>
      <use x="180.615234" xlink:href="#DejaVuSansMono-101"/>
      <use x="240.820312" xlink:href="#DejaVuSansMono-108"/>
      <use x="301.025391" xlink:href="#DejaVuSansMono-121"/>
      <use x="361.230469" xlink:href="#DejaVuSansMono-32"/>
      <use x="421.435547" xlink:href="#DejaVuSansMono-66"/>
      <use x="481.640625" xlink:href="#DejaVuSansMono-111"/>
      <use x="541.845703" xlink:href="#DejaVuSansMono-116"/>
      <use x="602.050781" xlink:href="#DejaVuSansMono-115"/>
     </g>
    </g>
    <g id="line2d_25">
     <path d="M 614.286906 218.062844 
L 645.086906 218.062844 
" style="fill:none;stroke:#dd8452;stroke-linecap:round;stroke-width:1.5;"/>
    </g>
    <g id="line2d_26"/>
    <g id="text_25">
     <!-- Likely Semi-Bots -->
     <g style="fill:#262626;" transform="translate(657.406906 223.452844)scale(0.154 -0.154)">
      <defs>
       <path d="M 49.421875 70.40625 
L 49.421875 60.40625 
Q 44.921875 63.28125 40.40625 64.75 
Q 35.890625 66.21875 31.296875 66.21875 
Q 24.3125 66.21875 20.265625 62.96875 
Q 16.21875 59.71875 16.21875 54.203125 
Q 16.21875 49.359375 18.875 46.8125 
Q 21.53125 44.28125 28.8125 42.578125 
L 33.984375 41.40625 
Q 44.234375 39.015625 48.921875 33.890625 
Q 53.609375 28.765625 53.609375 19.921875 
Q 53.609375 9.515625 47.15625 4.046875 
Q 40.71875 -1.421875 28.421875 -1.421875 
Q 23.296875 -1.421875 18.109375 -0.3125 
Q 12.9375 0.78125 7.71875 2.984375 
L 7.71875 13.484375 
Q 13.328125 9.90625 18.328125 8.25 
Q 23.34375 6.59375 28.421875 6.59375 
Q 35.890625 6.59375 40.03125 9.9375 
Q 44.1875 13.28125 44.1875 19.28125 
Q 44.1875 24.75 41.328125 27.625 
Q 38.484375 30.515625 31.390625 32.078125 
L 26.125 33.296875 
Q 15.96875 35.59375 11.375 40.234375 
Q 6.78125 44.875 6.78125 52.6875 
Q 6.78125 62.453125 13.34375 68.328125 
Q 19.921875 74.21875 30.8125 74.21875 
Q 35.015625 74.21875 39.640625 73.265625 
Q 44.28125 72.3125 49.421875 70.40625 
z
" id="DejaVuSansMono-83"/>
      </defs>
      <use xlink:href="#DejaVuSansMono-76"/>
      <use x="60.205078" xlink:href="#DejaVuSansMono-105"/>
      <use x="120.410156" xlink:href="#DejaVuSansMono-107"/>
      <use x="180.615234" xlink:href="#DejaVuSansMono-101"/>
      <use x="240.820312" xlink:href="#DejaVuSansMono-108"/>
      <use x="301.025391" xlink:href="#DejaVuSansMono-121"/>
      <use x="361.230469" xlink:href="#DejaVuSansMono-32"/>
      <use x="421.435547" xlink:href="#DejaVuSansMono-83"/>
      <use x="481.640625" xlink:href="#DejaVuSansMono-101"/>
      <use x="541.845703" xlink:href="#DejaVuSansMono-109"/>
      <use x="602.050781" xlink:href="#DejaVuSansMono-105"/>
      <use x="662.255859" xlink:href="#DejaVuSansMono-45"/>
      <use x="722.460938" xlink:href="#DejaVuSansMono-66"/>
      <use x="782.666016" xlink:href="#DejaVuSansMono-111"/>
      <use x="842.871094" xlink:href="#DejaVuSansMono-116"/>
      <use x="903.076172" xlink:href="#DejaVuSansMono-115"/>
     </g>
    </g>
    <g id="line2d_27">
     <path d="M 614.286906 240.748969 
L 645.086906 240.748969 
" style="fill:none;stroke:#55a868;stroke-linecap:round;stroke-width:1.5;"/>
    </g>
    <g id="line2d_28"/>
    <g id="text_26">
     <!-- Likely Humans -->
     <g style="fill:#262626;" transform="translate(657.406906 246.138969)scale(0.154 -0.154)">
      <defs>
       <path d="M 6.6875 72.90625 
L 16.609375 72.90625 
L 16.609375 43.015625 
L 43.609375 43.015625 
L 43.609375 72.90625 
L 53.515625 72.90625 
L 53.515625 0 
L 43.609375 0 
L 43.609375 34.71875 
L 16.609375 34.71875 
L 16.609375 0 
L 6.6875 0 
z
" id="DejaVuSansMono-72"/>
      </defs>
      <use xlink:href="#DejaVuSansMono-76"/>
      <use x="60.205078" xlink:href="#DejaVuSansMono-105"/>
      <use x="120.410156" xlink:href="#DejaVuSansMono-107"/>
      <use x="180.615234" xlink:href="#DejaVuSansMono-101"/>
      <use x="240.820312" xlink:href="#DejaVuSansMono-108"/>
      <use x="301.025391" xlink:href="#DejaVuSansMono-121"/>
      <use x="361.230469" xlink:href="#DejaVuSansMono-32"/>
      <use x="421.435547" xlink:href="#DejaVuSansMono-72"/>
      <use x="481.640625" xlink:href="#DejaVuSansMono-117"/>
      <use x="541.845703" xlink:href="#DejaVuSansMono-109"/>
      <use x="602.050781" xlink:href="#DejaVuSansMono-97"/>
      <use x="662.255859" xlink:href="#DejaVuSansMono-110"/>
      <use x="722.460938" xlink:href="#DejaVuSansMono-115"/>
     </g>
    </g>
   </g>
  </g>
 </g>
 <defs>
  <clipPath id="pf9d0b56151">
   <rect height="329.212" width="736.087" x="83.520406" y="151.074812"/>
  </clipPath>
 </defs>
</svg>
