<?xml version="1.0" encoding="utf-8" standalone="no"?>
<!DOCTYPE svg PUBLIC "-//W3C//DTD SVG 1.1//EN"
  "http://www.w3.org/Graphics/SVG/1.1/DTD/svg11.dtd">
<!-- Created with matplotlib (https://matplotlib.org/) -->
<svg height="360pt" version="1.1" viewBox="0 0 576 360" width="576pt" xmlns="http://www.w3.org/2000/svg" xmlns:xlink="http://www.w3.org/1999/xlink">
 <metadata>
  <rdf:RDF xmlns:cc="http://creativecommons.org/ns#" xmlns:dc="http://purl.org/dc/elements/1.1/" xmlns:rdf="http://www.w3.org/1999/02/22-rdf-syntax-ns#">
   <cc:Work>
    <dc:type rdf:resource="http://purl.org/dc/dcmitype/StillImage"/>
    <dc:date>2021-02-22T17:50:05.802720</dc:date>
    <dc:format>image/svg+xml</dc:format>
    <dc:creator>
     <cc:Agent>
      <dc:title>Matplotlib v3.3.3, https://matplotlib.org/</dc:title>
     </cc:Agent>
    </dc:creator>
   </cc:Work>
  </rdf:RDF>
 </metadata>
 <defs>
  <style type="text/css">*{stroke-linecap:butt;stroke-linejoin:round;}</style>
 </defs>
 <g id="figure_1">
  <g id="patch_1">
   <path d="M 0 360 
L 576 360 
L 576 0 
L 0 0 
z
" style="fill:#ffffff;"/>
  </g>
  <g id="axes_1">
   <g id="patch_2">
    <path d="M 77.394 295.356 
L 522.656 295.356 
L 522.656 92.684 
L 77.394 92.684 
z
" style="fill:#ffffff;"/>
   </g>
   <g id="matplotlib.axis_1">
    <g id="xtick_1">
     <g id="line2d_1">
      <path clip-path="url(#p8a91d68fec)" d="M 522.656 295.356 
L 522.656 92.684 
" style="fill:none;stroke:#cccccc;stroke-linecap:round;"/>
     </g>
     <g id="text_1">
      <!-- 0 -->
      <g style="fill:#262626;" transform="translate(518.020359 316.639406)scale(0.154 -0.154)">
       <defs>
        <path d="M 23.578125 36.625 
Q 23.578125 39.3125 25.453125 41.265625 
Q 27.34375 43.21875 29.984375 43.21875 
Q 32.71875 43.21875 34.671875 41.265625 
Q 36.625 39.3125 36.625 36.625 
Q 36.625 33.890625 34.6875 31.984375 
Q 32.765625 30.078125 29.984375 30.078125 
Q 27.25 30.078125 25.40625 31.9375 
Q 23.578125 33.796875 23.578125 36.625 
z
M 30.078125 66.40625 
Q 23.1875 66.40625 19.796875 58.984375 
Q 16.40625 51.5625 16.40625 36.375 
Q 16.40625 21.234375 19.796875 13.8125 
Q 23.1875 6.390625 30.078125 6.390625 
Q 37.015625 6.390625 40.40625 13.8125 
Q 43.796875 21.234375 43.796875 36.375 
Q 43.796875 51.5625 40.40625 58.984375 
Q 37.015625 66.40625 30.078125 66.40625 
z
M 30.078125 74.21875 
Q 41.75 74.21875 47.734375 64.640625 
Q 53.71875 55.078125 53.71875 36.375 
Q 53.71875 17.71875 47.734375 8.140625 
Q 41.75 -1.421875 30.078125 -1.421875 
Q 18.40625 -1.421875 12.453125 8.140625 
Q 6.5 17.71875 6.5 36.375 
Q 6.5 55.078125 12.453125 64.640625 
Q 18.40625 74.21875 30.078125 74.21875 
z
" id="DejaVuSansMono-48"/>
       </defs>
       <use xlink:href="#DejaVuSansMono-48"/>
      </g>
     </g>
    </g>
    <g id="xtick_2">
     <g id="line2d_2">
      <path clip-path="url(#p8a91d68fec)" d="M 433.6036 295.356 
L 433.6036 92.684 
" style="fill:none;stroke:#cccccc;stroke-linecap:round;"/>
     </g>
     <g id="text_2">
      <!-- 20 -->
      <g style="fill:#262626;" transform="translate(424.332319 316.639406)scale(0.154 -0.154)">
       <defs>
        <path d="M 18.21875 8.296875 
L 51.703125 8.296875 
L 51.703125 0 
L 7.421875 0 
L 7.421875 8.296875 
Q 16.546875 17.921875 23.375 25.296875 
Q 30.21875 32.671875 32.8125 35.6875 
Q 37.703125 41.65625 39.40625 45.34375 
Q 41.109375 49.03125 41.109375 52.875 
Q 41.109375 58.984375 37.515625 62.453125 
Q 33.9375 65.921875 27.6875 65.921875 
Q 23.25 65.921875 18.359375 64.3125 
Q 13.484375 62.703125 8.015625 59.421875 
L 8.015625 69.390625 
Q 13.03125 71.78125 17.890625 73 
Q 22.75 74.21875 27.484375 74.21875 
Q 38.1875 74.21875 44.703125 68.53125 
Q 51.21875 62.84375 51.21875 53.609375 
Q 51.21875 48.921875 49.046875 44.234375 
Q 46.875 39.546875 42 33.890625 
Q 39.265625 30.71875 34.0625 25.09375 
Q 28.859375 19.484375 18.21875 8.296875 
z
" id="DejaVuSansMono-50"/>
       </defs>
       <use xlink:href="#DejaVuSansMono-50"/>
       <use x="60.205078" xlink:href="#DejaVuSansMono-48"/>
      </g>
     </g>
    </g>
    <g id="xtick_3">
     <g id="line2d_3">
      <path clip-path="url(#p8a91d68fec)" d="M 344.5512 295.356 
L 344.5512 92.684 
" style="fill:none;stroke:#cccccc;stroke-linecap:round;"/>
     </g>
     <g id="text_3">
      <!-- 40 -->
      <g style="fill:#262626;" transform="translate(335.279919 316.639406)scale(0.154 -0.154)">
       <defs>
        <path d="M 35.890625 63.921875 
L 12.890625 25.390625 
L 35.890625 25.390625 
z
M 34.28125 72.90625 
L 45.703125 72.90625 
L 45.703125 25.390625 
L 55.421875 25.390625 
L 55.421875 17.390625 
L 45.703125 17.390625 
L 45.703125 0 
L 35.890625 0 
L 35.890625 17.390625 
L 4.984375 17.390625 
L 4.984375 26.703125 
z
" id="DejaVuSansMono-52"/>
       </defs>
       <use xlink:href="#DejaVuSansMono-52"/>
       <use x="60.205078" xlink:href="#DejaVuSansMono-48"/>
      </g>
     </g>
    </g>
    <g id="xtick_4">
     <g id="line2d_4">
      <path clip-path="url(#p8a91d68fec)" d="M 255.4988 295.356 
L 255.4988 92.684 
" style="fill:none;stroke:#cccccc;stroke-linecap:round;"/>
     </g>
     <g id="text_4">
      <!-- 60 -->
      <g style="fill:#262626;" transform="translate(246.227519 316.639406)scale(0.154 -0.154)">
       <defs>
        <path d="M 48.390625 71.296875 
L 48.390625 62.203125 
Q 45.3125 64.015625 41.84375 64.96875 
Q 38.375 65.921875 34.625 65.921875 
Q 25.25 65.921875 20.40625 58.859375 
Q 15.578125 51.8125 15.578125 38.09375 
Q 17.921875 42.96875 22.0625 45.578125 
Q 26.21875 48.1875 31.59375 48.1875 
Q 42.140625 48.1875 47.921875 41.71875 
Q 53.71875 35.25 53.71875 23.390625 
Q 53.71875 11.578125 47.75 5.078125 
Q 41.796875 -1.421875 31 -1.421875 
Q 18.3125 -1.421875 12.40625 7.6875 
Q 6.5 16.796875 6.5 36.375 
Q 6.5 54.828125 13.59375 64.515625 
Q 20.703125 74.21875 34.1875 74.21875 
Q 37.796875 74.21875 41.40625 73.453125 
Q 45.015625 72.703125 48.390625 71.296875 
z
M 30.8125 40.484375 
Q 24.515625 40.484375 20.890625 35.9375 
Q 17.28125 31.390625 17.28125 23.390625 
Q 17.28125 15.375 20.890625 10.828125 
Q 24.515625 6.296875 30.8125 6.296875 
Q 37.359375 6.296875 40.671875 10.609375 
Q 44 14.9375 44 23.390625 
Q 44 31.890625 40.671875 36.1875 
Q 37.359375 40.484375 30.8125 40.484375 
z
" id="DejaVuSansMono-54"/>
       </defs>
       <use xlink:href="#DejaVuSansMono-54"/>
       <use x="60.205078" xlink:href="#DejaVuSansMono-48"/>
      </g>
     </g>
    </g>
    <g id="xtick_5">
     <g id="line2d_5">
      <path clip-path="url(#p8a91d68fec)" d="M 166.4464 295.356 
L 166.4464 92.684 
" style="fill:none;stroke:#cccccc;stroke-linecap:round;"/>
     </g>
     <g id="text_5">
      <!-- 80 -->
      <g style="fill:#262626;" transform="translate(157.175119 316.639406)scale(0.154 -0.154)">
       <defs>
        <path d="M 30.078125 34.625 
Q 23.484375 34.625 19.890625 30.9375 
Q 16.3125 27.25 16.3125 20.515625 
Q 16.3125 13.765625 19.9375 10.03125 
Q 23.578125 6.296875 30.078125 6.296875 
Q 36.71875 6.296875 40.296875 9.984375 
Q 43.890625 13.671875 43.890625 20.515625 
Q 43.890625 27.203125 40.25 30.90625 
Q 36.625 34.625 30.078125 34.625 
z
M 21.484375 38.71875 
Q 15.1875 40.328125 11.640625 44.71875 
Q 8.109375 49.125 8.109375 55.328125 
Q 8.109375 64.015625 14.015625 69.109375 
Q 19.921875 74.21875 30.078125 74.21875 
Q 40.28125 74.21875 46.1875 69.109375 
Q 52.09375 64.015625 52.09375 55.328125 
Q 52.09375 49.125 48.546875 44.71875 
Q 45.015625 40.328125 38.71875 38.71875 
Q 46.046875 37.109375 49.921875 32.21875 
Q 53.8125 27.34375 53.8125 19.578125 
Q 53.8125 9.71875 47.515625 4.140625 
Q 41.21875 -1.421875 30.078125 -1.421875 
Q 18.953125 -1.421875 12.671875 4.125 
Q 6.390625 9.671875 6.390625 19.484375 
Q 6.390625 27.296875 10.265625 32.203125 
Q 14.15625 37.109375 21.484375 38.71875 
z
M 17.921875 54.390625 
Q 17.921875 48.53125 21.046875 45.453125 
Q 24.171875 42.390625 30.078125 42.390625 
Q 36.03125 42.390625 39.15625 45.453125 
Q 42.28125 48.53125 42.28125 54.390625 
Q 42.28125 60.359375 39.171875 63.484375 
Q 36.078125 66.609375 30.078125 66.609375 
Q 24.171875 66.609375 21.046875 63.453125 
Q 17.921875 60.296875 17.921875 54.390625 
z
" id="DejaVuSansMono-56"/>
       </defs>
       <use xlink:href="#DejaVuSansMono-56"/>
       <use x="60.205078" xlink:href="#DejaVuSansMono-48"/>
      </g>
     </g>
    </g>
    <g id="xtick_6">
     <g id="line2d_6">
      <path clip-path="url(#p8a91d68fec)" d="M 77.394 295.356 
L 77.394 92.684 
" style="fill:none;stroke:#cccccc;stroke-linecap:round;"/>
     </g>
     <g id="text_6">
      <!-- 100 -->
      <g style="fill:#262626;" transform="translate(63.487078 316.639406)scale(0.154 -0.154)">
       <defs>
        <path d="M 13.1875 8.296875 
L 28.515625 8.296875 
L 28.515625 64.015625 
L 12.015625 60.296875 
L 12.015625 69.28125 
L 28.421875 72.90625 
L 38.28125 72.90625 
L 38.28125 8.296875 
L 53.421875 8.296875 
L 53.421875 0 
L 13.1875 0 
z
" id="DejaVuSansMono-49"/>
       </defs>
       <use xlink:href="#DejaVuSansMono-49"/>
       <use x="60.205078" xlink:href="#DejaVuSansMono-48"/>
       <use x="120.410156" xlink:href="#DejaVuSansMono-48"/>
      </g>
     </g>
    </g>
    <g id="text_7">
     <!-- Percentiles of disconnected users -->
     <g style="fill:#262626;" transform="translate(133.141938 336.69675)scale(0.168 -0.168)">
      <defs>
       <path d="M 19.484375 64.796875 
L 19.484375 37.40625 
L 30.90625 37.40625 
Q 37.75 37.40625 41.578125 41.015625 
Q 45.40625 44.625 45.40625 51.125 
Q 45.40625 57.625 41.59375 61.203125 
Q 37.796875 64.796875 30.90625 64.796875 
z
M 9.625 72.90625 
L 30.90625 72.90625 
Q 43.109375 72.90625 49.40625 67.359375 
Q 55.71875 61.8125 55.71875 51.125 
Q 55.71875 40.328125 49.4375 34.8125 
Q 43.171875 29.296875 30.90625 29.296875 
L 19.484375 29.296875 
L 19.484375 0 
L 9.625 0 
z
" id="DejaVuSansMono-80"/>
       <path d="M 54.296875 29.59375 
L 54.296875 25.203125 
L 15.375 25.203125 
L 15.375 24.90625 
Q 15.375 15.96875 20.03125 11.078125 
Q 24.703125 6.203125 33.203125 6.203125 
Q 37.5 6.203125 42.1875 7.5625 
Q 46.875 8.9375 52.203125 11.71875 
L 52.203125 2.78125 
Q 47.078125 0.6875 42.3125 -0.359375 
Q 37.546875 -1.421875 33.109375 -1.421875 
Q 20.359375 -1.421875 13.171875 6.21875 
Q 6 13.875 6 27.296875 
Q 6 40.375 13.03125 48.1875 
Q 20.0625 56 31.78125 56 
Q 42.234375 56 48.265625 48.921875 
Q 54.296875 41.84375 54.296875 29.59375 
z
M 45.3125 32.234375 
Q 45.125 40.140625 41.578125 44.265625 
Q 38.03125 48.390625 31.390625 48.390625 
Q 24.90625 48.390625 20.703125 44.09375 
Q 16.5 39.796875 15.71875 32.171875 
z
" id="DejaVuSansMono-101"/>
       <path d="M 56.390625 43.40625 
Q 53.515625 45.65625 50.53125 46.671875 
Q 47.5625 47.703125 44 47.703125 
Q 35.59375 47.703125 31.140625 42.421875 
Q 26.703125 37.15625 26.703125 27.203125 
L 26.703125 0 
L 17.671875 0 
L 17.671875 54.6875 
L 26.703125 54.6875 
L 26.703125 44 
Q 28.953125 49.8125 33.609375 52.90625 
Q 38.28125 56 44.671875 56 
Q 48 56 50.875 55.171875 
Q 53.765625 54.34375 56.390625 52.59375 
z
" id="DejaVuSansMono-114"/>
       <path d="M 51.8125 2.78125 
Q 48.1875 0.6875 44.359375 -0.359375 
Q 40.53125 -1.421875 36.53125 -1.421875 
Q 23.828125 -1.421875 16.671875 6.1875 
Q 9.515625 13.8125 9.515625 27.296875 
Q 9.515625 40.765625 16.671875 48.375 
Q 23.828125 56 36.53125 56 
Q 40.484375 56 44.234375 54.96875 
Q 48 53.953125 51.8125 51.8125 
L 51.8125 42.390625 
Q 48.25 45.5625 44.65625 46.96875 
Q 41.0625 48.390625 36.53125 48.390625 
Q 28.078125 48.390625 23.53125 42.921875 
Q 19 37.453125 19 27.296875 
Q 19 17.1875 23.5625 11.6875 
Q 28.125 6.203125 36.53125 6.203125 
Q 41.21875 6.203125 44.921875 7.640625 
Q 48.640625 9.078125 51.8125 12.109375 
z
" id="DejaVuSansMono-99"/>
       <path d="M 51.3125 33.890625 
L 51.3125 0 
L 42.28125 0 
L 42.28125 33.890625 
Q 42.28125 41.265625 39.6875 44.71875 
Q 37.109375 48.1875 31.59375 48.1875 
Q 25.296875 48.1875 21.890625 43.71875 
Q 18.5 39.265625 18.5 30.90625 
L 18.5 0 
L 9.515625 0 
L 9.515625 54.6875 
L 18.5 54.6875 
L 18.5 46.484375 
Q 20.90625 51.171875 25 53.578125 
Q 29.109375 56 34.71875 56 
Q 43.0625 56 47.1875 50.5 
Q 51.3125 45.015625 51.3125 33.890625 
z
" id="DejaVuSansMono-110"/>
       <path d="M 29.984375 70.21875 
L 29.984375 54.6875 
L 50.390625 54.6875 
L 50.390625 47.703125 
L 29.984375 47.703125 
L 29.984375 18.015625 
Q 29.984375 11.96875 32.28125 9.5625 
Q 34.578125 7.171875 40.28125 7.171875 
L 50.390625 7.171875 
L 50.390625 0 
L 39.40625 0 
Q 29.296875 0 25.140625 4.046875 
Q 21 8.109375 21 18.015625 
L 21 47.703125 
L 6.390625 47.703125 
L 6.390625 54.6875 
L 21 54.6875 
L 21 70.21875 
z
" id="DejaVuSansMono-116"/>
       <path d="M 12.5 54.6875 
L 35.5 54.6875 
L 35.5 6.984375 
L 53.328125 6.984375 
L 53.328125 0 
L 8.6875 0 
L 8.6875 6.984375 
L 26.515625 6.984375 
L 26.515625 47.703125 
L 12.5 47.703125 
z
M 26.515625 75.984375 
L 35.5 75.984375 
L 35.5 64.59375 
L 26.515625 64.59375 
z
" id="DejaVuSansMono-105"/>
       <path d="M 31.203125 19.828125 
Q 31.203125 13.765625 33.421875 10.6875 
Q 35.640625 7.625 39.984375 7.625 
L 50.484375 7.625 
L 50.484375 0 
L 39.109375 0 
Q 31.0625 0 26.640625 5.171875 
Q 22.21875 10.359375 22.21875 19.828125 
L 22.21875 69.484375 
L 7.8125 69.484375 
L 7.8125 76.515625 
L 31.203125 76.515625 
z
" id="DejaVuSansMono-108"/>
       <path d="M 47.515625 52.78125 
L 47.515625 44 
Q 43.65625 46.234375 39.75 47.359375 
Q 35.84375 48.484375 31.78125 48.484375 
Q 25.6875 48.484375 22.671875 46.5 
Q 19.671875 44.53125 19.671875 40.484375 
Q 19.671875 36.8125 21.921875 35 
Q 24.171875 33.203125 33.109375 31.5 
L 36.71875 30.8125 
Q 43.40625 29.546875 46.84375 25.734375 
Q 50.296875 21.921875 50.296875 15.828125 
Q 50.296875 7.71875 44.53125 3.140625 
Q 38.765625 -1.421875 28.515625 -1.421875 
Q 24.46875 -1.421875 20.015625 -0.5625 
Q 15.578125 0.296875 10.40625 2 
L 10.40625 11.28125 
Q 15.4375 8.6875 20.015625 7.390625 
Q 24.609375 6.109375 28.71875 6.109375 
Q 34.671875 6.109375 37.9375 8.515625 
Q 41.21875 10.9375 41.21875 15.28125 
Q 41.21875 21.53125 29.25 23.921875 
L 28.859375 24.03125 
L 25.484375 24.703125 
Q 17.71875 26.21875 14.15625 29.8125 
Q 10.59375 33.40625 10.59375 39.59375 
Q 10.59375 47.46875 15.90625 51.734375 
Q 21.234375 56 31.109375 56 
Q 35.5 56 39.546875 55.1875 
Q 43.609375 54.390625 47.515625 52.78125 
z
" id="DejaVuSansMono-115"/>
       <path id="DejaVuSansMono-32"/>
       <path d="M 30.078125 48.390625 
Q 23.25 48.390625 19.734375 43.0625 
Q 16.21875 37.75 16.21875 27.296875 
Q 16.21875 16.890625 19.734375 11.546875 
Q 23.25 6.203125 30.078125 6.203125 
Q 36.96875 6.203125 40.484375 11.546875 
Q 44 16.890625 44 27.296875 
Q 44 37.75 40.484375 43.0625 
Q 36.96875 48.390625 30.078125 48.390625 
z
M 30.078125 56 
Q 41.453125 56 47.484375 48.625 
Q 53.515625 41.265625 53.515625 27.296875 
Q 53.515625 13.28125 47.5 5.921875 
Q 41.5 -1.421875 30.078125 -1.421875 
Q 18.703125 -1.421875 12.6875 5.921875 
Q 6.6875 13.28125 6.6875 27.296875 
Q 6.6875 41.265625 12.6875 48.625 
Q 18.703125 56 30.078125 56 
z
" id="DejaVuSansMono-111"/>
       <path d="M 51.90625 75.984375 
L 51.90625 68.5 
L 41.703125 68.5 
Q 36.859375 68.5 34.984375 66.515625 
Q 33.109375 64.546875 33.109375 59.515625 
L 33.109375 54.6875 
L 51.90625 54.6875 
L 51.90625 47.703125 
L 33.109375 47.703125 
L 33.109375 0 
L 24.125 0 
L 24.125 47.703125 
L 9.515625 47.703125 
L 9.515625 54.6875 
L 24.125 54.6875 
L 24.125 58.5 
Q 24.125 67.484375 28.25 71.734375 
Q 32.375 75.984375 41.109375 75.984375 
z
" id="DejaVuSansMono-102"/>
       <path d="M 41.890625 47.703125 
L 41.890625 75.984375 
L 50.875 75.984375 
L 50.875 0 
L 41.890625 0 
L 41.890625 6.890625 
Q 39.65625 2.828125 35.90625 0.703125 
Q 32.171875 -1.421875 27.296875 -1.421875 
Q 17.390625 -1.421875 11.6875 6.265625 
Q 6 13.96875 6 27.484375 
Q 6 40.828125 11.71875 48.40625 
Q 17.4375 56 27.296875 56 
Q 32.234375 56 35.984375 53.875 
Q 39.75 51.765625 41.890625 47.703125 
z
M 15.484375 27.296875 
Q 15.484375 16.84375 18.796875 11.515625 
Q 22.125 6.203125 28.609375 6.203125 
Q 35.109375 6.203125 38.5 11.5625 
Q 41.890625 16.9375 41.890625 27.296875 
Q 41.890625 37.703125 38.5 43.046875 
Q 35.109375 48.390625 28.609375 48.390625 
Q 22.125 48.390625 18.796875 43.0625 
Q 15.484375 37.75 15.484375 27.296875 
z
" id="DejaVuSansMono-100"/>
       <path d="M 9.515625 20.703125 
L 9.515625 54.59375 
L 18.5 54.59375 
L 18.5 20.703125 
Q 18.5 13.328125 21.109375 9.859375 
Q 23.734375 6.390625 29.203125 6.390625 
Q 35.546875 6.390625 38.90625 10.859375 
Q 42.28125 15.328125 42.28125 23.6875 
L 42.28125 54.59375 
L 51.3125 54.59375 
L 51.3125 0 
L 42.28125 0 
L 42.28125 8.203125 
Q 39.890625 3.46875 35.765625 1.015625 
Q 31.640625 -1.421875 26.125 -1.421875 
Q 17.71875 -1.421875 13.609375 4.078125 
Q 9.515625 9.578125 9.515625 20.703125 
z
" id="DejaVuSansMono-117"/>
      </defs>
      <use xlink:href="#DejaVuSansMono-80"/>
      <use x="60.205078" xlink:href="#DejaVuSansMono-101"/>
      <use x="120.410156" xlink:href="#DejaVuSansMono-114"/>
      <use x="180.615234" xlink:href="#DejaVuSansMono-99"/>
      <use x="240.820312" xlink:href="#DejaVuSansMono-101"/>
      <use x="301.025391" xlink:href="#DejaVuSansMono-110"/>
      <use x="361.230469" xlink:href="#DejaVuSansMono-116"/>
      <use x="421.435547" xlink:href="#DejaVuSansMono-105"/>
      <use x="481.640625" xlink:href="#DejaVuSansMono-108"/>
      <use x="541.845703" xlink:href="#DejaVuSansMono-101"/>
      <use x="602.050781" xlink:href="#DejaVuSansMono-115"/>
      <use x="662.255859" xlink:href="#DejaVuSansMono-32"/>
      <use x="722.460938" xlink:href="#DejaVuSansMono-111"/>
      <use x="782.666016" xlink:href="#DejaVuSansMono-102"/>
      <use x="842.871094" xlink:href="#DejaVuSansMono-32"/>
      <use x="903.076172" xlink:href="#DejaVuSansMono-100"/>
      <use x="963.28125" xlink:href="#DejaVuSansMono-105"/>
      <use x="1023.486328" xlink:href="#DejaVuSansMono-115"/>
      <use x="1083.691406" xlink:href="#DejaVuSansMono-99"/>
      <use x="1143.896484" xlink:href="#DejaVuSansMono-111"/>
      <use x="1204.101562" xlink:href="#DejaVuSansMono-110"/>
      <use x="1264.306641" xlink:href="#DejaVuSansMono-110"/>
      <use x="1324.511719" xlink:href="#DejaVuSansMono-101"/>
      <use x="1384.716797" xlink:href="#DejaVuSansMono-99"/>
      <use x="1444.921875" xlink:href="#DejaVuSansMono-116"/>
      <use x="1505.126953" xlink:href="#DejaVuSansMono-101"/>
      <use x="1565.332031" xlink:href="#DejaVuSansMono-100"/>
      <use x="1625.537109" xlink:href="#DejaVuSansMono-32"/>
      <use x="1685.742188" xlink:href="#DejaVuSansMono-117"/>
      <use x="1745.947266" xlink:href="#DejaVuSansMono-115"/>
      <use x="1806.152344" xlink:href="#DejaVuSansMono-101"/>
      <use x="1866.357422" xlink:href="#DejaVuSansMono-114"/>
      <use x="1926.5625" xlink:href="#DejaVuSansMono-115"/>
     </g>
    </g>
   </g>
   <g id="matplotlib.axis_2">
    <g id="ytick_1">
     <g id="line2d_7">
      <path clip-path="url(#p8a91d68fec)" d="M 77.394 286.143636 
L 522.656 286.143636 
" style="fill:none;stroke:#cccccc;stroke-linecap:round;"/>
     </g>
     <g id="text_8">
      <!-- 0.0 -->
      <g style="fill:#262626;" transform="translate(40.080156 292.035339)scale(0.154 -0.154)">
       <defs>
        <path d="M 23.875 14.890625 
L 36.1875 14.890625 
L 36.1875 0 
L 23.875 0 
z
" id="DejaVuSansMono-46"/>
       </defs>
       <use xlink:href="#DejaVuSansMono-48"/>
       <use x="60.205078" xlink:href="#DejaVuSansMono-46"/>
       <use x="120.410156" xlink:href="#DejaVuSansMono-48"/>
      </g>
     </g>
    </g>
    <g id="ytick_2">
     <g id="line2d_8">
      <path clip-path="url(#p8a91d68fec)" d="M 77.394 251.048918 
L 522.656 251.048918 
" style="fill:none;stroke:#cccccc;stroke-linecap:round;"/>
     </g>
     <g id="text_9">
      <!-- 0.2 -->
      <g style="fill:#262626;" transform="translate(40.080156 256.940621)scale(0.154 -0.154)">
       <use xlink:href="#DejaVuSansMono-48"/>
       <use x="60.205078" xlink:href="#DejaVuSansMono-46"/>
       <use x="120.410156" xlink:href="#DejaVuSansMono-50"/>
      </g>
     </g>
    </g>
    <g id="ytick_3">
     <g id="line2d_9">
      <path clip-path="url(#p8a91d68fec)" d="M 77.394 215.954199 
L 522.656 215.954199 
" style="fill:none;stroke:#cccccc;stroke-linecap:round;"/>
     </g>
     <g id="text_10">
      <!-- 0.4 -->
      <g style="fill:#262626;" transform="translate(40.080156 221.845902)scale(0.154 -0.154)">
       <use xlink:href="#DejaVuSansMono-48"/>
       <use x="60.205078" xlink:href="#DejaVuSansMono-46"/>
       <use x="120.410156" xlink:href="#DejaVuSansMono-52"/>
      </g>
     </g>
    </g>
    <g id="ytick_4">
     <g id="line2d_10">
      <path clip-path="url(#p8a91d68fec)" d="M 77.394 180.859481 
L 522.656 180.859481 
" style="fill:none;stroke:#cccccc;stroke-linecap:round;"/>
     </g>
     <g id="text_11">
      <!-- 0.6 -->
      <g style="fill:#262626;" transform="translate(40.080156 186.751184)scale(0.154 -0.154)">
       <use xlink:href="#DejaVuSansMono-48"/>
       <use x="60.205078" xlink:href="#DejaVuSansMono-46"/>
       <use x="120.410156" xlink:href="#DejaVuSansMono-54"/>
      </g>
     </g>
    </g>
    <g id="ytick_5">
     <g id="line2d_11">
      <path clip-path="url(#p8a91d68fec)" d="M 77.394 145.764762 
L 522.656 145.764762 
" style="fill:none;stroke:#cccccc;stroke-linecap:round;"/>
     </g>
     <g id="text_12">
      <!-- 0.8 -->
      <g style="fill:#262626;" transform="translate(40.080156 151.656465)scale(0.154 -0.154)">
       <use xlink:href="#DejaVuSansMono-48"/>
       <use x="60.205078" xlink:href="#DejaVuSansMono-46"/>
       <use x="120.410156" xlink:href="#DejaVuSansMono-56"/>
      </g>
     </g>
    </g>
    <g id="ytick_6">
     <g id="line2d_12">
      <path clip-path="url(#p8a91d68fec)" d="M 77.394 110.670043 
L 522.656 110.670043 
" style="fill:none;stroke:#cccccc;stroke-linecap:round;"/>
     </g>
     <g id="text_13">
      <!-- 1.0 -->
      <g style="fill:#262626;" transform="translate(40.080156 116.561746)scale(0.154 -0.154)">
       <use xlink:href="#DejaVuSansMono-49"/>
       <use x="60.205078" xlink:href="#DejaVuSansMono-46"/>
       <use x="120.410156" xlink:href="#DejaVuSansMono-48"/>
      </g>
     </g>
    </g>
    <g id="text_14">
     <!-- Maintained proportionality -->
     <g style="fill:#262626;" transform="translate(32.586281 325.503625)rotate(-90)scale(0.168 -0.168)">
      <defs>
       <path d="M 4.203125 72.90625 
L 17.390625 72.90625 
L 29.984375 35.796875 
L 42.671875 72.90625 
L 55.90625 72.90625 
L 55.90625 0 
L 46.78125 0 
L 46.78125 64.40625 
L 33.796875 25.984375 
L 26.3125 25.984375 
L 13.28125 64.40625 
L 13.28125 0 
L 4.203125 0 
z
" id="DejaVuSansMono-77"/>
       <path d="M 34.28125 27.484375 
L 31.296875 27.484375 
Q 23.4375 27.484375 19.453125 24.71875 
Q 15.484375 21.96875 15.484375 16.5 
Q 15.484375 11.578125 18.453125 8.84375 
Q 21.4375 6.109375 26.703125 6.109375 
Q 34.125 6.109375 38.375 11.25 
Q 42.625 16.40625 42.671875 25.484375 
L 42.671875 27.484375 
z
M 51.703125 31.203125 
L 51.703125 0 
L 42.671875 0 
L 42.671875 8.109375 
Q 39.796875 3.21875 35.421875 0.890625 
Q 31.0625 -1.421875 24.8125 -1.421875 
Q 16.453125 -1.421875 11.46875 3.296875 
Q 6.5 8.015625 6.5 15.921875 
Q 6.5 25.046875 12.625 29.78125 
Q 18.75 34.515625 30.609375 34.515625 
L 42.671875 34.515625 
L 42.671875 35.9375 
Q 42.625 42.484375 39.34375 45.4375 
Q 36.078125 48.390625 28.90625 48.390625 
Q 24.3125 48.390625 19.625 47.0625 
Q 14.9375 45.75 10.5 43.21875 
L 10.5 52.203125 
Q 15.484375 54.109375 20.046875 55.046875 
Q 24.609375 56 28.90625 56 
Q 35.6875 56 40.5 54 
Q 45.3125 52 48.296875 48 
Q 50.140625 45.5625 50.921875 41.96875 
Q 51.703125 38.375 51.703125 31.203125 
z
" id="DejaVuSansMono-97"/>
       <path d="M 18.3125 6.890625 
L 18.3125 -20.796875 
L 9.28125 -20.796875 
L 9.28125 54.6875 
L 18.3125 54.6875 
L 18.3125 47.703125 
Q 20.5625 51.765625 24.296875 53.875 
Q 28.03125 56 32.90625 56 
Q 42.828125 56 48.46875 48.328125 
Q 54.109375 40.671875 54.109375 27.09375 
Q 54.109375 13.765625 48.4375 6.171875 
Q 42.78125 -1.421875 32.90625 -1.421875 
Q 27.9375 -1.421875 24.1875 0.703125 
Q 20.453125 2.828125 18.3125 6.890625 
z
M 44.671875 27.296875 
Q 44.671875 37.75 41.375 43.0625 
Q 38.09375 48.390625 31.59375 48.390625 
Q 25.046875 48.390625 21.671875 43.046875 
Q 18.3125 37.703125 18.3125 27.296875 
Q 18.3125 16.9375 21.671875 11.5625 
Q 25.046875 6.203125 31.59375 6.203125 
Q 38.09375 6.203125 41.375 11.515625 
Q 44.671875 16.84375 44.671875 27.296875 
z
" id="DejaVuSansMono-112"/>
       <path d="M 41.890625 17.578125 
Q 39.65625 11.859375 36.1875 2.546875 
Q 31.34375 -10.359375 29.6875 -13.1875 
Q 27.4375 -17 24.0625 -18.890625 
Q 20.703125 -20.796875 16.21875 -20.796875 
L 8.984375 -20.796875 
L 8.984375 -13.28125 
L 14.3125 -13.28125 
Q 18.265625 -13.28125 20.5 -10.984375 
Q 22.75 -8.6875 26.21875 0.875 
L 5.078125 54.6875 
L 14.59375 54.6875 
L 30.8125 11.921875 
L 46.78125 54.6875 
L 56.296875 54.6875 
z
" id="DejaVuSansMono-121"/>
      </defs>
      <use xlink:href="#DejaVuSansMono-77"/>
      <use x="60.205078" xlink:href="#DejaVuSansMono-97"/>
      <use x="120.410156" xlink:href="#DejaVuSansMono-105"/>
      <use x="180.615234" xlink:href="#DejaVuSansMono-110"/>
      <use x="240.820312" xlink:href="#DejaVuSansMono-116"/>
      <use x="301.025391" xlink:href="#DejaVuSansMono-97"/>
      <use x="361.230469" xlink:href="#DejaVuSansMono-105"/>
      <use x="421.435547" xlink:href="#DejaVuSansMono-110"/>
      <use x="481.640625" xlink:href="#DejaVuSansMono-101"/>
      <use x="541.845703" xlink:href="#DejaVuSansMono-100"/>
      <use x="602.050781" xlink:href="#DejaVuSansMono-32"/>
      <use x="662.255859" xlink:href="#DejaVuSansMono-112"/>
      <use x="722.460938" xlink:href="#DejaVuSansMono-114"/>
      <use x="782.666016" xlink:href="#DejaVuSansMono-111"/>
      <use x="842.871094" xlink:href="#DejaVuSansMono-112"/>
      <use x="903.076172" xlink:href="#DejaVuSansMono-111"/>
      <use x="963.28125" xlink:href="#DejaVuSansMono-114"/>
      <use x="1023.486328" xlink:href="#DejaVuSansMono-116"/>
      <use x="1083.691406" xlink:href="#DejaVuSansMono-105"/>
      <use x="1143.896484" xlink:href="#DejaVuSansMono-111"/>
      <use x="1204.101562" xlink:href="#DejaVuSansMono-110"/>
      <use x="1264.306641" xlink:href="#DejaVuSansMono-97"/>
      <use x="1324.511719" xlink:href="#DejaVuSansMono-108"/>
      <use x="1384.716797" xlink:href="#DejaVuSansMono-105"/>
      <use x="1444.921875" xlink:href="#DejaVuSansMono-116"/>
      <use x="1505.126953" xlink:href="#DejaVuSansMono-121"/>
     </g>
    </g>
   </g>
   <g id="LineCollection_1">
    <path clip-path="url(#p8a91d68fec)" d="M 210.9726 286.143636 
L 210.9726 101.896364 
" style="fill:none;stroke:#008000;stroke-dasharray:2,3.3;stroke-dashoffset:0;stroke-width:2;"/>
   </g>
   <g id="LineCollection_2">
    <path clip-path="url(#p8a91d68fec)" d="M 121.9202 286.143636 
L 121.9202 101.896364 
" style="fill:none;stroke:#ff4500;stroke-dasharray:2,3.3;stroke-dashoffset:0;stroke-width:2;"/>
   </g>
   <g id="line2d_13">
    <path clip-path="url(#p8a91d68fec)" d="M 77.394 110.670043 
L 121.9202 134.733044 
L 166.4464 169.065024 
L 210.9726 186.672738 
L 255.4988 213.744707 
L 300.025 234.99992 
L 344.5512 255.12677 
L 389.0774 269.043249 
L 433.6036 278.568733 
L 478.1298 285.181466 
L 522.656 286.143636 
" style="fill:none;stroke:#ff0000;stroke-linecap:round;stroke-width:1.5;"/>
   </g>
   <g id="line2d_14">
    <path clip-path="url(#p8a91d68fec)" d="M 77.394 110.670136 
L 121.9202 172.778155 
L 166.4464 206.42149 
L 210.9726 219.225442 
L 255.4988 239.202231 
L 300.025 253.932518 
L 344.5512 266.129266 
L 389.0774 275.640203 
L 433.6036 282.651419 
L 478.1298 285.394806 
L 522.656 286.143636 
" style="fill:none;stroke:#ff0000;stroke-dasharray:6,2.25;stroke-dashoffset:0;stroke-width:1.5;"/>
   </g>
   <g id="line2d_15">
    <path clip-path="url(#p8a91d68fec)" d="M 77.394 110.670214 
L 121.9202 127.799004 
L 166.4464 145.276588 
L 210.9726 162.656639 
L 255.4988 180.238417 
L 300.025 197.876903 
L 344.5512 215.529396 
L 389.0774 233.208364 
L 433.6036 250.935159 
L 478.1298 268.620617 
L 522.656 286.143636 
" style="fill:none;stroke:#ff0000;stroke-dasharray:1.5,1.5;stroke-dashoffset:0;stroke-width:1.5;"/>
   </g>
   <g id="line2d_16">
    <path clip-path="url(#p8a91d68fec)" d="M 77.394 110.670043 
L 121.9202 139.657606 
L 166.4464 167.201913 
L 210.9726 190.162791 
L 255.4988 213.526032 
L 300.025 235.848379 
L 344.5512 255.791542 
L 389.0774 269.926696 
L 433.6036 279.285987 
L 478.1298 285.041514 
L 522.656 286.143636 
" style="fill:none;stroke:#000000;stroke-linecap:round;stroke-width:1.5;"/>
   </g>
   <g id="line2d_17">
    <path clip-path="url(#p8a91d68fec)" d="M 77.394 110.670043 
L 121.9202 147.303269 
L 166.4464 174.624204 
L 210.9726 199.507623 
L 255.4988 223.075273 
L 300.025 242.413478 
L 344.5512 259.599209 
L 389.0774 270.489476 
L 433.6036 279.620831 
L 478.1298 284.294749 
L 522.656 286.143636 
" style="fill:none;stroke:#000000;stroke-dasharray:6,2.25;stroke-dashoffset:0;stroke-width:1.5;"/>
   </g>
   <g id="line2d_18">
    <path clip-path="url(#p8a91d68fec)" d="M 77.394 110.670043 
L 121.9202 128.199724 
L 166.4464 145.720864 
L 210.9726 163.263867 
L 255.4988 180.817632 
L 300.025 198.346288 
L 344.5512 215.894587 
L 389.0774 233.434857 
L 433.6036 250.987255 
L 478.1298 268.573986 
L 522.656 286.143636 
" style="fill:none;stroke:#000000;stroke-dasharray:1.5,1.5;stroke-dashoffset:0;stroke-width:1.5;"/>
   </g>
   <g id="line2d_19"/>
   <g id="line2d_20"/>
   <g id="line2d_21"/>
   <g id="line2d_22"/>
   <g id="line2d_23"/>
   <g id="patch_3">
    <path d="M 77.394 295.356 
L 77.394 92.684 
" style="fill:none;stroke:#cccccc;stroke-linecap:square;stroke-linejoin:miter;stroke-width:1.25;"/>
   </g>
   <g id="patch_4">
    <path d="M 522.656 295.356 
L 522.656 92.684 
" style="fill:none;stroke:#cccccc;stroke-linecap:square;stroke-linejoin:miter;stroke-width:1.25;"/>
   </g>
   <g id="patch_5">
    <path d="M 77.394 295.356 
L 522.656 295.356 
" style="fill:none;stroke:#cccccc;stroke-linecap:square;stroke-linejoin:miter;stroke-width:1.25;"/>
   </g>
   <g id="patch_6">
    <path d="M 77.394 92.684 
L 522.656 92.684 
" style="fill:none;stroke:#cccccc;stroke-linecap:square;stroke-linejoin:miter;stroke-width:1.25;"/>
   </g>
   <g id="legend_1">
    <g id="patch_7">
     <path d="M 309.825 187.58865 
L 556.9075 187.58865 
Q 559.7075 187.58865 559.7075 184.78865 
L 559.7075 41.6824 
Q 559.7075 38.8824 556.9075 38.8824 
L 309.825 38.8824 
Q 307.025 38.8824 307.025 41.6824 
L 307.025 184.78865 
Q 307.025 187.58865 309.825 187.58865 
z
" style="fill:#ffffff;opacity:0.8;stroke:#cccccc;stroke-linejoin:miter;"/>
    </g>
    <g id="text_15">
     <!-- Disconnection criteria -->
     <g style="fill:#262626;" transform="translate(351.825 55.120212)scale(0.14 -0.14)">
      <defs>
       <path d="M 21.09375 59.90625 
L 21.09375 12.984375 
L 25 12.984375 
Q 33.5 12.984375 37.109375 18.328125 
Q 40.71875 23.6875 40.71875 36.53125 
Q 40.71875 49.265625 37.109375 54.578125 
Q 33.5 59.90625 25 59.90625 
z
M 6.6875 72.90625 
L 22.125 72.90625 
Q 39.984375 72.90625 47.84375 64.375 
Q 55.71875 55.859375 55.71875 36.53125 
Q 55.71875 17.140625 47.84375 8.5625 
Q 39.984375 0 22.125 0 
L 6.6875 0 
z
" id="DejaVuSansMono-Bold-68"/>
       <path d="M 10.796875 54.6875 
L 39.109375 54.6875 
L 39.109375 10.984375 
L 56.890625 10.984375 
L 56.890625 0 
L 6.984375 0 
L 6.984375 10.984375 
L 24.8125 10.984375 
L 24.8125 43.703125 
L 10.796875 43.703125 
z
M 24.8125 81.296875 
L 39.109375 81.296875 
L 39.109375 64.59375 
L 24.8125 64.59375 
z
" id="DejaVuSansMono-Bold-105"/>
       <path d="M 48.390625 52.984375 
L 48.390625 40.484375 
Q 44.4375 43.015625 40.15625 44.3125 
Q 35.890625 45.609375 31.59375 45.609375 
Q 26.8125 45.609375 24.359375 44.21875 
Q 21.921875 42.828125 21.921875 40.09375 
Q 21.921875 36.1875 32.375 33.734375 
L 32.90625 33.59375 
L 37.015625 32.625 
Q 44.828125 30.765625 48.453125 26.640625 
Q 52.09375 22.515625 52.09375 15.484375 
Q 52.09375 7.03125 46.546875 2.796875 
Q 41.015625 -1.421875 29.890625 -1.421875 
Q 24.953125 -1.421875 19.765625 -0.5625 
Q 14.59375 0.296875 9.28125 2 
L 9.28125 14.5 
Q 14.015625 11.8125 18.921875 10.390625 
Q 23.828125 8.984375 28.421875 8.984375 
Q 33.453125 8.984375 36.03125 10.453125 
Q 38.625 11.921875 38.625 14.703125 
Q 38.625 17.4375 36.796875 18.890625 
Q 34.96875 20.359375 28.078125 22.015625 
L 24.125 22.90625 
Q 15.921875 24.75 12.15625 28.703125 
Q 8.40625 32.671875 8.40625 39.3125 
Q 8.40625 47.21875 14.109375 51.609375 
Q 19.828125 56 30.171875 56 
Q 34.8125 56 39.421875 55.25 
Q 44.046875 54.5 48.390625 52.984375 
z
" id="DejaVuSansMono-Bold-115"/>
       <path d="M 51.8125 2.78125 
Q 48.1875 0.6875 44.03125 -0.359375 
Q 39.890625 -1.421875 35.109375 -1.421875 
Q 22.46875 -1.421875 15.328125 6.1875 
Q 8.203125 13.8125 8.203125 27.296875 
Q 8.203125 40.828125 15.375 48.46875 
Q 22.5625 56.109375 35.203125 56.109375 
Q 39.59375 56.109375 43.671875 55.078125 
Q 47.75 54.046875 51.8125 51.90625 
L 51.8125 38.8125 
Q 48.6875 41.5 44.953125 42.9375 
Q 41.21875 44.390625 37.203125 44.390625 
Q 30.21875 44.390625 26.453125 39.9375 
Q 22.703125 35.5 22.703125 27.296875 
Q 22.703125 19.09375 26.453125 14.6875 
Q 30.21875 10.296875 37.203125 10.296875 
Q 41.359375 10.296875 44.96875 11.6875 
Q 48.578125 13.09375 51.8125 15.921875 
z
" id="DejaVuSansMono-Bold-99"/>
       <path d="M 30.078125 44.390625 
Q 24.953125 44.390625 22.015625 39.875 
Q 19.09375 35.359375 19.09375 27.296875 
Q 19.09375 19.234375 22.015625 14.71875 
Q 24.953125 10.203125 30.078125 10.203125 
Q 35.25 10.203125 38.171875 14.71875 
Q 41.109375 19.234375 41.109375 27.296875 
Q 41.109375 35.359375 38.171875 39.875 
Q 35.25 44.390625 30.078125 44.390625 
z
M 4.78125 27.296875 
Q 4.78125 40.53125 11.640625 48.265625 
Q 18.5 56 30.078125 56 
Q 41.703125 56 48.5625 48.265625 
Q 55.421875 40.53125 55.421875 27.296875 
Q 55.421875 14.0625 48.5625 6.3125 
Q 41.703125 -1.421875 30.078125 -1.421875 
Q 18.5 -1.421875 11.640625 6.3125 
Q 4.78125 14.0625 4.78125 27.296875 
z
" id="DejaVuSansMono-Bold-111"/>
       <path d="M 52.296875 35.5 
L 52.296875 0 
L 38.09375 0 
L 38.09375 33.296875 
Q 38.09375 39.265625 36.40625 41.828125 
Q 34.71875 44.390625 30.90625 44.390625 
Q 27.046875 44.390625 24.828125 40.921875 
Q 22.609375 37.453125 22.609375 31.296875 
L 22.609375 0 
L 8.40625 0 
L 8.40625 54.6875 
L 22.609375 54.6875 
L 22.609375 46.484375 
Q 24.125 51.03125 27.78125 53.515625 
Q 31.453125 56 36.625 56 
Q 44.390625 56 48.34375 50.84375 
Q 52.296875 45.703125 52.296875 35.5 
z
" id="DejaVuSansMono-Bold-110"/>
       <path d="M 53.8125 2.6875 
Q 48.828125 0.640625 43.65625 -0.390625 
Q 38.484375 -1.421875 32.71875 -1.421875 
Q 19 -1.421875 11.75 5.921875 
Q 4.5 13.28125 4.5 27.09375 
Q 4.5 40.484375 11.46875 48.234375 
Q 18.453125 56 30.515625 56 
Q 42.671875 56 49.390625 48.796875 
Q 56.109375 41.609375 56.109375 28.515625 
L 56.109375 22.703125 
L 19.046875 22.703125 
Q 19.09375 16.265625 22.84375 13.078125 
Q 26.609375 9.90625 34.078125 9.90625 
Q 39.015625 9.90625 43.796875 11.328125 
Q 48.578125 12.75 53.8125 15.828125 
z
M 41.703125 33.453125 
Q 41.609375 39.109375 38.796875 42.015625 
Q 35.984375 44.921875 30.515625 44.921875 
Q 25.59375 44.921875 22.65625 41.921875 
Q 19.734375 38.921875 19.1875 33.40625 
z
" id="DejaVuSansMono-Bold-101"/>
       <path d="M 33.6875 70.21875 
L 33.6875 54.6875 
L 52.390625 54.6875 
L 52.390625 43.703125 
L 33.6875 43.703125 
L 33.6875 17.828125 
Q 33.6875 14.15625 35.46875 12.5625 
Q 37.25 10.984375 41.40625 10.984375 
L 52.390625 10.984375 
L 52.390625 0 
L 40.375 0 
Q 28.078125 0 23.734375 3.921875 
Q 19.390625 7.859375 19.390625 18.5 
L 19.390625 43.703125 
L 5.421875 43.703125 
L 5.421875 54.6875 
L 19.390625 54.6875 
L 19.390625 70.21875 
z
" id="DejaVuSansMono-Bold-116"/>
       <path id="DejaVuSansMono-Bold-32"/>
       <path d="M 56.203125 39.59375 
Q 53.859375 41.75 50.703125 42.8125 
Q 47.5625 43.890625 43.796875 43.890625 
Q 39.265625 43.890625 35.859375 42.296875 
Q 32.46875 40.71875 30.609375 37.703125 
Q 29.4375 35.84375 28.96875 33.203125 
Q 28.515625 30.5625 28.515625 25.203125 
L 28.515625 0 
L 14.203125 0 
L 14.203125 54.6875 
L 28.515625 54.6875 
L 28.515625 46.1875 
Q 30.609375 50.875 34.953125 53.4375 
Q 39.3125 56 45.125 56 
Q 48.046875 56 50.84375 55.296875 
Q 53.65625 54.59375 56.203125 53.21875 
z
" id="DejaVuSansMono-Bold-114"/>
       <path d="M 34.1875 25.6875 
Q 26.171875 25.6875 23 23.625 
Q 19.828125 21.578125 19.828125 16.609375 
Q 19.828125 12.890625 22.015625 10.6875 
Q 24.21875 8.5 27.984375 8.5 
Q 33.640625 8.5 36.765625 12.765625 
Q 39.890625 17.046875 39.890625 24.703125 
L 39.890625 25.6875 
z
M 54.109375 31.203125 
L 54.109375 0 
L 39.890625 0 
L 39.890625 6.109375 
Q 37.3125 2.484375 33.25 0.53125 
Q 29.203125 -1.421875 24.3125 -1.421875 
Q 14.984375 -1.421875 9.78125 3.515625 
Q 4.59375 8.453125 4.59375 17.28125 
Q 4.59375 26.859375 10.796875 31.421875 
Q 17 35.984375 29.984375 35.984375 
L 39.890625 35.984375 
L 39.890625 38.375 
Q 39.890625 41.84375 37.375 43.625 
Q 34.859375 45.40625 29.984375 45.40625 
Q 24.859375 45.40625 20.046875 44.109375 
Q 15.234375 42.828125 10.015625 39.984375 
L 10.015625 52.203125 
Q 14.75 54.15625 19.625 55.078125 
Q 24.515625 56 29.984375 56 
Q 43.3125 56 48.703125 50.578125 
Q 54.109375 45.171875 54.109375 31.203125 
z
" id="DejaVuSansMono-Bold-97"/>
      </defs>
      <use xlink:href="#DejaVuSansMono-Bold-68"/>
      <use x="60.205078" xlink:href="#DejaVuSansMono-Bold-105"/>
      <use x="120.410156" xlink:href="#DejaVuSansMono-Bold-115"/>
      <use x="180.615234" xlink:href="#DejaVuSansMono-Bold-99"/>
      <use x="240.820312" xlink:href="#DejaVuSansMono-Bold-111"/>
      <use x="301.025391" xlink:href="#DejaVuSansMono-Bold-110"/>
      <use x="361.230469" xlink:href="#DejaVuSansMono-Bold-110"/>
      <use x="421.435547" xlink:href="#DejaVuSansMono-Bold-101"/>
      <use x="481.640625" xlink:href="#DejaVuSansMono-Bold-99"/>
      <use x="541.845703" xlink:href="#DejaVuSansMono-Bold-116"/>
      <use x="602.050781" xlink:href="#DejaVuSansMono-Bold-105"/>
      <use x="662.255859" xlink:href="#DejaVuSansMono-Bold-111"/>
      <use x="722.460938" xlink:href="#DejaVuSansMono-Bold-110"/>
      <use x="782.666016" xlink:href="#DejaVuSansMono-Bold-32"/>
      <use x="842.871094" xlink:href="#DejaVuSansMono-Bold-99"/>
      <use x="903.076172" xlink:href="#DejaVuSansMono-Bold-114"/>
      <use x="963.28125" xlink:href="#DejaVuSansMono-Bold-105"/>
      <use x="1023.486328" xlink:href="#DejaVuSansMono-Bold-116"/>
      <use x="1083.691406" xlink:href="#DejaVuSansMono-Bold-101"/>
      <use x="1143.896484" xlink:href="#DejaVuSansMono-Bold-114"/>
      <use x="1204.101562" xlink:href="#DejaVuSansMono-Bold-105"/>
      <use x="1264.306641" xlink:href="#DejaVuSansMono-Bold-97"/>
     </g>
    </g>
    <g id="line2d_24">
     <path d="M 312.625 70.843962 
L 340.625 70.843962 
" style="fill:none;stroke:#ff0000;stroke-linecap:round;stroke-width:1.5;"/>
    </g>
    <g id="line2d_25"/>
    <g id="text_16">
     <!-- Descending Botscore -->
     <g style="fill:#262626;" transform="translate(351.825 75.743962)scale(0.14 -0.14)">
      <defs>
       <path d="M 21.296875 8.109375 
Q 33.734375 8.109375 38.671875 14.234375 
Q 43.609375 20.359375 43.609375 36.375 
Q 43.609375 52.546875 38.703125 58.671875 
Q 33.796875 64.796875 21.296875 64.796875 
L 16.609375 64.796875 
L 16.609375 8.109375 
z
M 21.484375 72.90625 
Q 38.1875 72.90625 46.09375 64.015625 
Q 54 55.125 54 36.375 
Q 54 17.71875 46.09375 8.859375 
Q 38.1875 0 21.484375 0 
L 6.6875 0 
L 6.6875 72.90625 
z
" id="DejaVuSansMono-68"/>
       <path d="M 41.890625 27.78125 
Q 41.890625 37.890625 38.59375 43.140625 
Q 35.296875 48.390625 29 48.390625 
Q 22.40625 48.390625 18.9375 43.140625 
Q 15.484375 37.890625 15.484375 27.78125 
Q 15.484375 17.671875 18.96875 12.375 
Q 22.46875 7.078125 29.109375 7.078125 
Q 35.296875 7.078125 38.59375 12.390625 
Q 41.890625 17.71875 41.890625 27.78125 
z
M 50.875 3.515625 
Q 50.875 -8.796875 45.0625 -15.140625 
Q 39.265625 -21.484375 27.984375 -21.484375 
Q 24.265625 -21.484375 20.203125 -20.796875 
Q 16.15625 -20.125 12.109375 -18.796875 
L 12.109375 -9.90625 
Q 16.890625 -12.15625 20.796875 -13.234375 
Q 24.703125 -14.3125 27.984375 -14.3125 
Q 35.25 -14.3125 38.5625 -10.34375 
Q 41.890625 -6.390625 41.890625 2.203125 
L 41.890625 2.59375 
L 41.890625 8.6875 
Q 39.75 4.109375 36.03125 1.859375 
Q 32.328125 -0.390625 27 -0.390625 
Q 17.4375 -0.390625 11.71875 7.265625 
Q 6 14.9375 6 27.78125 
Q 6 40.671875 11.71875 48.328125 
Q 17.4375 56 27 56 
Q 32.28125 56 35.9375 53.90625 
Q 39.59375 51.8125 41.890625 47.40625 
L 41.890625 54.5 
L 50.875 54.5 
z
" id="DejaVuSansMono-103"/>
       <path d="M 18.015625 34.8125 
L 18.015625 8.109375 
L 29.6875 8.109375 
Q 38.28125 8.109375 41.9375 11.109375 
Q 45.609375 14.109375 45.609375 21 
Q 45.609375 28.125 41.75 31.46875 
Q 37.890625 34.8125 29.6875 34.8125 
z
M 18.015625 64.796875 
L 18.015625 42.828125 
L 29.5 42.828125 
Q 36.625 42.828125 39.8125 45.5625 
Q 43.015625 48.296875 43.015625 54.390625 
Q 43.015625 59.90625 39.859375 62.34375 
Q 36.71875 64.796875 29.5 64.796875 
z
M 8.109375 72.90625 
L 29.6875 72.90625 
Q 40.875 72.90625 46.921875 68.0625 
Q 52.984375 63.234375 52.984375 54.390625 
Q 52.984375 47.703125 49.78125 43.84375 
Q 46.578125 39.984375 40.1875 39.015625 
Q 47.359375 37.9375 51.4375 32.875 
Q 55.515625 27.828125 55.515625 20.015625 
Q 55.515625 10.109375 49.015625 5.046875 
Q 42.53125 0 29.6875 0 
L 8.109375 0 
z
" id="DejaVuSansMono-66"/>
      </defs>
      <use xlink:href="#DejaVuSansMono-68"/>
      <use x="60.205078" xlink:href="#DejaVuSansMono-101"/>
      <use x="120.410156" xlink:href="#DejaVuSansMono-115"/>
      <use x="180.615234" xlink:href="#DejaVuSansMono-99"/>
      <use x="240.820312" xlink:href="#DejaVuSansMono-101"/>
      <use x="301.025391" xlink:href="#DejaVuSansMono-110"/>
      <use x="361.230469" xlink:href="#DejaVuSansMono-100"/>
      <use x="421.435547" xlink:href="#DejaVuSansMono-105"/>
      <use x="481.640625" xlink:href="#DejaVuSansMono-110"/>
      <use x="541.845703" xlink:href="#DejaVuSansMono-103"/>
      <use x="602.050781" xlink:href="#DejaVuSansMono-32"/>
      <use x="662.255859" xlink:href="#DejaVuSansMono-66"/>
      <use x="722.460938" xlink:href="#DejaVuSansMono-111"/>
      <use x="782.666016" xlink:href="#DejaVuSansMono-116"/>
      <use x="842.871094" xlink:href="#DejaVuSansMono-115"/>
      <use x="903.076172" xlink:href="#DejaVuSansMono-99"/>
      <use x="963.28125" xlink:href="#DejaVuSansMono-111"/>
      <use x="1023.486328" xlink:href="#DejaVuSansMono-114"/>
      <use x="1083.691406" xlink:href="#DejaVuSansMono-101"/>
     </g>
    </g>
    <g id="line2d_26">
     <path d="M 312.625 91.563962 
L 340.625 91.563962 
" style="fill:none;stroke:#000000;stroke-linecap:round;stroke-width:1.5;"/>
    </g>
    <g id="line2d_27"/>
    <g id="text_17">
     <!-- Random -->
     <g style="fill:#262626;" transform="translate(351.825 96.463962)scale(0.14 -0.14)">
      <defs>
       <path d="M 37.109375 34.421875 
Q 40.921875 33.453125 43.609375 30.734375 
Q 46.296875 28.03125 50.296875 19.921875 
L 60.203125 0 
L 49.609375 0 
L 40.921875 18.40625 
Q 37.15625 26.265625 34.15625 28.53125 
Q 31.15625 30.8125 26.3125 30.8125 
L 16.890625 30.8125 
L 16.890625 0 
L 6.984375 0 
L 6.984375 72.90625 
L 27.296875 72.90625 
Q 39.3125 72.90625 45.703125 67.484375 
Q 52.09375 62.0625 52.09375 51.8125 
Q 52.09375 44.578125 48.15625 40.015625 
Q 44.234375 35.453125 37.109375 34.421875 
z
M 16.890625 64.796875 
L 16.890625 38.921875 
L 27.6875 38.921875 
Q 34.765625 38.921875 38.234375 42.09375 
Q 41.703125 45.265625 41.703125 51.8125 
Q 41.703125 58.109375 38.015625 61.453125 
Q 34.328125 64.796875 27.296875 64.796875 
z
" id="DejaVuSansMono-82"/>
       <path d="M 33.015625 49.125 
Q 34.671875 52.640625 37.234375 54.3125 
Q 39.796875 56 43.40625 56 
Q 50 56 52.703125 50.890625 
Q 55.421875 45.796875 55.421875 31.6875 
L 55.421875 0 
L 47.21875 0 
L 47.21875 31.296875 
Q 47.21875 42.875 45.921875 45.671875 
Q 44.625 48.484375 41.21875 48.484375 
Q 37.3125 48.484375 35.859375 45.484375 
Q 34.421875 42.484375 34.421875 31.296875 
L 34.421875 0 
L 26.21875 0 
L 26.21875 31.296875 
Q 26.21875 43.015625 24.828125 45.75 
Q 23.4375 48.484375 19.828125 48.484375 
Q 16.265625 48.484375 14.875 45.484375 
Q 13.484375 42.484375 13.484375 31.296875 
L 13.484375 0 
L 5.328125 0 
L 5.328125 54.6875 
L 13.484375 54.6875 
L 13.484375 50 
Q 15.09375 52.9375 17.5 54.46875 
Q 19.921875 56 23 56 
Q 26.703125 56 29.171875 54.296875 
Q 31.640625 52.59375 33.015625 49.125 
z
" id="DejaVuSansMono-109"/>
      </defs>
      <use xlink:href="#DejaVuSansMono-82"/>
      <use x="60.205078" xlink:href="#DejaVuSansMono-97"/>
      <use x="120.410156" xlink:href="#DejaVuSansMono-110"/>
      <use x="180.615234" xlink:href="#DejaVuSansMono-100"/>
      <use x="240.820312" xlink:href="#DejaVuSansMono-111"/>
      <use x="301.025391" xlink:href="#DejaVuSansMono-109"/>
     </g>
    </g>
    <g id="text_18">
     <!-- Metric -->
     <g style="fill:#262626;" transform="translate(351.825 117.013337)scale(0.14 -0.14)">
      <defs>
       <path d="M 4.203125 72.90625 
L 21.390625 72.90625 
L 30.078125 40.921875 
L 38.71875 72.90625 
L 56 72.90625 
L 56 0 
L 43.609375 0 
L 43.609375 58.40625 
L 35.890625 26.515625 
L 24.421875 26.515625 
L 16.609375 58.40625 
L 16.609375 0 
L 4.203125 0 
z
" id="DejaVuSansMono-Bold-77"/>
      </defs>
      <use xlink:href="#DejaVuSansMono-Bold-77"/>
      <use x="60.205078" xlink:href="#DejaVuSansMono-Bold-101"/>
      <use x="120.410156" xlink:href="#DejaVuSansMono-Bold-116"/>
      <use x="180.615234" xlink:href="#DejaVuSansMono-Bold-114"/>
      <use x="240.820312" xlink:href="#DejaVuSansMono-Bold-105"/>
      <use x="301.025391" xlink:href="#DejaVuSansMono-Bold-99"/>
     </g>
    </g>
    <g id="line2d_28">
     <path d="M 312.625 132.737087 
L 340.625 132.737087 
" style="fill:none;stroke:#333333;stroke-linecap:round;stroke-width:1.5;"/>
    </g>
    <g id="line2d_29"/>
    <g id="text_19">
     <!-- Nodes in giant component -->
     <g style="fill:#262626;" transform="translate(351.825 137.637087)scale(0.14 -0.14)">
      <defs>
       <path d="M 6.78125 72.90625 
L 19.28125 72.90625 
L 43.890625 12.890625 
L 43.890625 72.90625 
L 53.421875 72.90625 
L 53.421875 0 
L 40.921875 0 
L 16.3125 60.015625 
L 16.3125 0 
L 6.78125 0 
z
" id="DejaVuSansMono-78"/>
      </defs>
      <use xlink:href="#DejaVuSansMono-78"/>
      <use x="60.205078" xlink:href="#DejaVuSansMono-111"/>
      <use x="120.410156" xlink:href="#DejaVuSansMono-100"/>
      <use x="180.615234" xlink:href="#DejaVuSansMono-101"/>
      <use x="240.820312" xlink:href="#DejaVuSansMono-115"/>
      <use x="301.025391" xlink:href="#DejaVuSansMono-32"/>
      <use x="361.230469" xlink:href="#DejaVuSansMono-105"/>
      <use x="421.435547" xlink:href="#DejaVuSansMono-110"/>
      <use x="481.640625" xlink:href="#DejaVuSansMono-32"/>
      <use x="541.845703" xlink:href="#DejaVuSansMono-103"/>
      <use x="602.050781" xlink:href="#DejaVuSansMono-105"/>
      <use x="662.255859" xlink:href="#DejaVuSansMono-97"/>
      <use x="722.460938" xlink:href="#DejaVuSansMono-110"/>
      <use x="782.666016" xlink:href="#DejaVuSansMono-116"/>
      <use x="842.871094" xlink:href="#DejaVuSansMono-32"/>
      <use x="903.076172" xlink:href="#DejaVuSansMono-99"/>
      <use x="963.28125" xlink:href="#DejaVuSansMono-111"/>
      <use x="1023.486328" xlink:href="#DejaVuSansMono-109"/>
      <use x="1083.691406" xlink:href="#DejaVuSansMono-112"/>
      <use x="1143.896484" xlink:href="#DejaVuSansMono-111"/>
      <use x="1204.101562" xlink:href="#DejaVuSansMono-110"/>
      <use x="1264.306641" xlink:href="#DejaVuSansMono-101"/>
      <use x="1324.511719" xlink:href="#DejaVuSansMono-110"/>
      <use x="1384.716797" xlink:href="#DejaVuSansMono-116"/>
     </g>
    </g>
    <g id="line2d_30">
     <path d="M 312.625 153.457087 
L 340.625 153.457087 
" style="fill:none;stroke:#333333;stroke-dasharray:6,2.25;stroke-dashoffset:0;stroke-width:1.5;"/>
    </g>
    <g id="line2d_31"/>
    <g id="text_20">
     <!-- Weights -->
     <g style="fill:#262626;" transform="translate(351.825 158.357087)scale(0.14 -0.14)">
      <defs>
       <path d="M 0 72.90625 
L 9.625 72.90625 
L 16.609375 13.71875 
L 24.90625 52.875 
L 35.203125 52.875 
L 43.609375 13.625 
L 50.59375 72.90625 
L 60.203125 72.90625 
L 49.3125 0 
L 39.984375 0 
L 30.078125 43.3125 
L 20.21875 0 
L 10.890625 0 
z
" id="DejaVuSansMono-87"/>
       <path d="M 51.3125 33.890625 
L 51.3125 0 
L 42.28125 0 
L 42.28125 33.890625 
Q 42.28125 41.265625 39.6875 44.71875 
Q 37.109375 48.1875 31.59375 48.1875 
Q 25.296875 48.1875 21.890625 43.71875 
Q 18.5 39.265625 18.5 30.90625 
L 18.5 0 
L 9.515625 0 
L 9.515625 75.984375 
L 18.5 75.984375 
L 18.5 46.484375 
Q 20.90625 51.171875 25 53.578125 
Q 29.109375 56 34.71875 56 
Q 43.0625 56 47.1875 50.5 
Q 51.3125 45.015625 51.3125 33.890625 
z
" id="DejaVuSansMono-104"/>
      </defs>
      <use xlink:href="#DejaVuSansMono-87"/>
      <use x="60.205078" xlink:href="#DejaVuSansMono-101"/>
      <use x="120.410156" xlink:href="#DejaVuSansMono-105"/>
      <use x="180.615234" xlink:href="#DejaVuSansMono-103"/>
      <use x="240.820312" xlink:href="#DejaVuSansMono-104"/>
      <use x="301.025391" xlink:href="#DejaVuSansMono-116"/>
      <use x="361.230469" xlink:href="#DejaVuSansMono-115"/>
     </g>
    </g>
    <g id="line2d_32">
     <path d="M 312.625 174.177087 
L 340.625 174.177087 
" style="fill:none;stroke:#333333;stroke-dasharray:1.5,1.5;stroke-dashoffset:0;stroke-width:1.5;"/>
    </g>
    <g id="line2d_33"/>
    <g id="text_21">
     <!-- Number of nodes -->
     <g style="fill:#262626;" transform="translate(351.825 179.077087)scale(0.14 -0.14)">
      <defs>
       <path d="M 44.828125 27.296875 
Q 44.828125 37.75 41.5 43.0625 
Q 38.1875 48.390625 31.6875 48.390625 
Q 25.140625 48.390625 21.765625 43.046875 
Q 18.40625 37.703125 18.40625 27.296875 
Q 18.40625 16.9375 21.765625 11.5625 
Q 25.140625 6.203125 31.6875 6.203125 
Q 38.1875 6.203125 41.5 11.515625 
Q 44.828125 16.84375 44.828125 27.296875 
z
M 18.40625 47.703125 
Q 20.5625 51.703125 24.34375 53.84375 
Q 28.125 56 33.109375 56 
Q 42.96875 56 48.625 48.40625 
Q 54.296875 40.828125 54.296875 27.484375 
Q 54.296875 13.96875 48.609375 6.265625 
Q 42.921875 -1.421875 33.015625 -1.421875 
Q 28.125 -1.421875 24.390625 0.703125 
Q 20.65625 2.828125 18.40625 6.890625 
L 18.40625 0 
L 9.421875 0 
L 9.421875 75.984375 
L 18.40625 75.984375 
z
" id="DejaVuSansMono-98"/>
      </defs>
      <use xlink:href="#DejaVuSansMono-78"/>
      <use x="60.205078" xlink:href="#DejaVuSansMono-117"/>
      <use x="120.410156" xlink:href="#DejaVuSansMono-109"/>
      <use x="180.615234" xlink:href="#DejaVuSansMono-98"/>
      <use x="240.820312" xlink:href="#DejaVuSansMono-101"/>
      <use x="301.025391" xlink:href="#DejaVuSansMono-114"/>
      <use x="361.230469" xlink:href="#DejaVuSansMono-32"/>
      <use x="421.435547" xlink:href="#DejaVuSansMono-111"/>
      <use x="481.640625" xlink:href="#DejaVuSansMono-102"/>
      <use x="541.845703" xlink:href="#DejaVuSansMono-32"/>
      <use x="602.050781" xlink:href="#DejaVuSansMono-110"/>
      <use x="662.255859" xlink:href="#DejaVuSansMono-111"/>
      <use x="722.460938" xlink:href="#DejaVuSansMono-100"/>
      <use x="782.666016" xlink:href="#DejaVuSansMono-101"/>
      <use x="842.871094" xlink:href="#DejaVuSansMono-115"/>
     </g>
    </g>
   </g>
  </g>
 </g>
 <defs>
  <clipPath id="p8a91d68fec">
   <rect height="202.672" width="445.262" x="77.394" y="92.684"/>
  </clipPath>
 </defs>
</svg>
