<?xml version="1.0" encoding="utf-8" standalone="no"?>
<!DOCTYPE svg PUBLIC "-//W3C//DTD SVG 1.1//EN"
  "http://www.w3.org/Graphics/SVG/1.1/DTD/svg11.dtd">
<!-- Created with matplotlib (https://matplotlib.org/) -->
<svg height="360pt" version="1.1" viewBox="0 0 576 360" width="576pt" xmlns="http://www.w3.org/2000/svg" xmlns:xlink="http://www.w3.org/1999/xlink">
 <metadata>
  <rdf:RDF xmlns:cc="http://creativecommons.org/ns#" xmlns:dc="http://purl.org/dc/elements/1.1/" xmlns:rdf="http://www.w3.org/1999/02/22-rdf-syntax-ns#">
   <cc:Work>
    <dc:type rdf:resource="http://purl.org/dc/dcmitype/StillImage"/>
    <dc:date>2021-03-25T17:10:54.427504</dc:date>
    <dc:format>image/svg+xml</dc:format>
    <dc:creator>
     <cc:Agent>
      <dc:title>Matplotlib v3.3.3, https://matplotlib.org/</dc:title>
     </cc:Agent>
    </dc:creator>
   </cc:Work>
  </rdf:RDF>
 </metadata>
 <defs>
  <style type="text/css">*{stroke-linecap:butt;stroke-linejoin:round;}</style>
 </defs>
 <g id="figure_1">
  <g id="patch_1">
   <path d="M 0 360 
L 576 360 
L 576 0 
L 0 0 
z
" style="fill:#ffffff;"/>
  </g>
  <g id="axes_1">
   <g id="patch_2">
    <path d="M 36.894 145.462594 
L 260.611631 145.462594 
L 260.611631 38.144 
L 36.894 38.144 
z
" style="fill:#ffffff;"/>
   </g>
   <g id="matplotlib.axis_1">
    <g id="xtick_1"/>
    <g id="xtick_2"/>
    <g id="xtick_3"/>
    <g id="xtick_4"/>
    <g id="xtick_5"/>
    <g id="xtick_6"/>
    <g id="xtick_7"/>
    <g id="xtick_8"/>
    <g id="xtick_9"/>
    <g id="xtick_10"/>
   </g>
   <g id="matplotlib.axis_2">
    <g id="ytick_1">
     <g id="line2d_1">
      <path clip-path="url(#p01b0bd5b54)" d="M 36.894 139.602527 
L 260.611631 139.602527 
" style="fill:none;stroke:#cccccc;stroke-linecap:round;"/>
     </g>
     <g id="text_1">
      <!-- 0 -->
      <g style="fill:#262626;" transform="translate(18.122719 145.49423)scale(0.154 -0.154)">
       <defs>
        <path d="M 23.578125 36.625 
Q 23.578125 39.3125 25.453125 41.265625 
Q 27.34375 43.21875 29.984375 43.21875 
Q 32.71875 43.21875 34.671875 41.265625 
Q 36.625 39.3125 36.625 36.625 
Q 36.625 33.890625 34.6875 31.984375 
Q 32.765625 30.078125 29.984375 30.078125 
Q 27.25 30.078125 25.40625 31.9375 
Q 23.578125 33.796875 23.578125 36.625 
z
M 30.078125 66.40625 
Q 23.1875 66.40625 19.796875 58.984375 
Q 16.40625 51.5625 16.40625 36.375 
Q 16.40625 21.234375 19.796875 13.8125 
Q 23.1875 6.390625 30.078125 6.390625 
Q 37.015625 6.390625 40.40625 13.8125 
Q 43.796875 21.234375 43.796875 36.375 
Q 43.796875 51.5625 40.40625 58.984375 
Q 37.015625 66.40625 30.078125 66.40625 
z
M 30.078125 74.21875 
Q 41.75 74.21875 47.734375 64.640625 
Q 53.71875 55.078125 53.71875 36.375 
Q 53.71875 17.71875 47.734375 8.140625 
Q 41.75 -1.421875 30.078125 -1.421875 
Q 18.40625 -1.421875 12.453125 8.140625 
Q 6.5 17.71875 6.5 36.375 
Q 6.5 55.078125 12.453125 64.640625 
Q 18.40625 74.21875 30.078125 74.21875 
z
" id="DejaVuSansMono-48"/>
       </defs>
       <use xlink:href="#DejaVuSansMono-48"/>
      </g>
     </g>
    </g>
    <g id="ytick_2">
     <g id="line2d_2">
      <path clip-path="url(#p01b0bd5b54)" d="M 36.894 111.171037 
L 260.611631 111.171037 
" style="fill:none;stroke:#cccccc;stroke-linecap:round;"/>
     </g>
     <g id="text_2">
      <!-- 2 -->
      <g style="fill:#262626;" transform="translate(18.122719 117.06274)scale(0.154 -0.154)">
       <defs>
        <path d="M 18.21875 8.296875 
L 51.703125 8.296875 
L 51.703125 0 
L 7.421875 0 
L 7.421875 8.296875 
Q 16.546875 17.921875 23.375 25.296875 
Q 30.21875 32.671875 32.8125 35.6875 
Q 37.703125 41.65625 39.40625 45.34375 
Q 41.109375 49.03125 41.109375 52.875 
Q 41.109375 58.984375 37.515625 62.453125 
Q 33.9375 65.921875 27.6875 65.921875 
Q 23.25 65.921875 18.359375 64.3125 
Q 13.484375 62.703125 8.015625 59.421875 
L 8.015625 69.390625 
Q 13.03125 71.78125 17.890625 73 
Q 22.75 74.21875 27.484375 74.21875 
Q 38.1875 74.21875 44.703125 68.53125 
Q 51.21875 62.84375 51.21875 53.609375 
Q 51.21875 48.921875 49.046875 44.234375 
Q 46.875 39.546875 42 33.890625 
Q 39.265625 30.71875 34.0625 25.09375 
Q 28.859375 19.484375 18.21875 8.296875 
z
" id="DejaVuSansMono-50"/>
       </defs>
       <use xlink:href="#DejaVuSansMono-50"/>
      </g>
     </g>
    </g>
    <g id="ytick_3">
     <g id="line2d_3">
      <path clip-path="url(#p01b0bd5b54)" d="M 36.894 82.739547 
L 260.611631 82.739547 
" style="fill:none;stroke:#cccccc;stroke-linecap:round;"/>
     </g>
     <g id="text_3">
      <!-- 4 -->
      <g style="fill:#262626;" transform="translate(18.122719 88.63125)scale(0.154 -0.154)">
       <defs>
        <path d="M 35.890625 63.921875 
L 12.890625 25.390625 
L 35.890625 25.390625 
z
M 34.28125 72.90625 
L 45.703125 72.90625 
L 45.703125 25.390625 
L 55.421875 25.390625 
L 55.421875 17.390625 
L 45.703125 17.390625 
L 45.703125 0 
L 35.890625 0 
L 35.890625 17.390625 
L 4.984375 17.390625 
L 4.984375 26.703125 
z
" id="DejaVuSansMono-52"/>
       </defs>
       <use xlink:href="#DejaVuSansMono-52"/>
      </g>
     </g>
    </g>
    <g id="ytick_4">
     <g id="line2d_4">
      <path clip-path="url(#p01b0bd5b54)" d="M 36.894 54.308057 
L 260.611631 54.308057 
" style="fill:none;stroke:#cccccc;stroke-linecap:round;"/>
     </g>
     <g id="text_4">
      <!-- 6 -->
      <g style="fill:#262626;" transform="translate(18.122719 60.19976)scale(0.154 -0.154)">
       <defs>
        <path d="M 48.390625 71.296875 
L 48.390625 62.203125 
Q 45.3125 64.015625 41.84375 64.96875 
Q 38.375 65.921875 34.625 65.921875 
Q 25.25 65.921875 20.40625 58.859375 
Q 15.578125 51.8125 15.578125 38.09375 
Q 17.921875 42.96875 22.0625 45.578125 
Q 26.21875 48.1875 31.59375 48.1875 
Q 42.140625 48.1875 47.921875 41.71875 
Q 53.71875 35.25 53.71875 23.390625 
Q 53.71875 11.578125 47.75 5.078125 
Q 41.796875 -1.421875 31 -1.421875 
Q 18.3125 -1.421875 12.40625 7.6875 
Q 6.5 16.796875 6.5 36.375 
Q 6.5 54.828125 13.59375 64.515625 
Q 20.703125 74.21875 34.1875 74.21875 
Q 37.796875 74.21875 41.40625 73.453125 
Q 45.015625 72.703125 48.390625 71.296875 
z
M 30.8125 40.484375 
Q 24.515625 40.484375 20.890625 35.9375 
Q 17.28125 31.390625 17.28125 23.390625 
Q 17.28125 15.375 20.890625 10.828125 
Q 24.515625 6.296875 30.8125 6.296875 
Q 37.359375 6.296875 40.671875 10.609375 
Q 44 14.9375 44 23.390625 
Q 44 31.890625 40.671875 36.1875 
Q 37.359375 40.484375 30.8125 40.484375 
z
" id="DejaVuSansMono-54"/>
       </defs>
       <use xlink:href="#DejaVuSansMono-54"/>
      </g>
     </g>
    </g>
    <g id="text_5">
     <!-- 1e−5 -->
     <g style="fill:#262626;" transform="translate(36.894 35.144)scale(0.154 -0.154)">
      <defs>
       <path d="M 13.1875 8.296875 
L 28.515625 8.296875 
L 28.515625 64.015625 
L 12.015625 60.296875 
L 12.015625 69.28125 
L 28.421875 72.90625 
L 38.28125 72.90625 
L 38.28125 8.296875 
L 53.421875 8.296875 
L 53.421875 0 
L 13.1875 0 
z
" id="DejaVuSansMono-49"/>
       <path d="M 54.296875 29.59375 
L 54.296875 25.203125 
L 15.375 25.203125 
L 15.375 24.90625 
Q 15.375 15.96875 20.03125 11.078125 
Q 24.703125 6.203125 33.203125 6.203125 
Q 37.5 6.203125 42.1875 7.5625 
Q 46.875 8.9375 52.203125 11.71875 
L 52.203125 2.78125 
Q 47.078125 0.6875 42.3125 -0.359375 
Q 37.546875 -1.421875 33.109375 -1.421875 
Q 20.359375 -1.421875 13.171875 6.21875 
Q 6 13.875 6 27.296875 
Q 6 40.375 13.03125 48.1875 
Q 20.0625 56 31.78125 56 
Q 42.234375 56 48.265625 48.921875 
Q 54.296875 41.84375 54.296875 29.59375 
z
M 45.3125 32.234375 
Q 45.125 40.140625 41.578125 44.265625 
Q 38.03125 48.390625 31.390625 48.390625 
Q 24.90625 48.390625 20.703125 44.09375 
Q 16.5 39.796875 15.71875 32.171875 
z
" id="DejaVuSansMono-101"/>
       <path d="M 4.296875 35.5 
L 55.90625 35.5 
L 55.90625 27.203125 
L 4.296875 27.203125 
z
" id="DejaVuSansMono-8722"/>
       <path d="M 10.109375 72.90625 
L 47.015625 72.90625 
L 47.015625 64.59375 
L 19.09375 64.59375 
L 19.09375 46.6875 
Q 21.1875 47.46875 23.3125 47.828125 
Q 25.4375 48.1875 27.59375 48.1875 
Q 38.921875 48.1875 45.5625 41.5 
Q 52.203125 34.8125 52.203125 23.390625 
Q 52.203125 11.859375 45.234375 5.21875 
Q 38.28125 -1.421875 26.21875 -1.421875 
Q 20.40625 -1.421875 15.59375 -0.640625 
Q 10.796875 0.140625 6.984375 1.703125 
L 6.984375 11.71875 
Q 11.46875 9.28125 16.015625 8.078125 
Q 20.5625 6.890625 25.296875 6.890625 
Q 33.453125 6.890625 37.859375 11.1875 
Q 42.28125 15.484375 42.28125 23.390625 
Q 42.28125 31.203125 37.71875 35.546875 
Q 33.15625 39.890625 25 39.890625 
Q 21.046875 39.890625 17.28125 38.984375 
Q 13.53125 38.09375 10.109375 36.28125 
z
" id="DejaVuSansMono-53"/>
      </defs>
      <use xlink:href="#DejaVuSansMono-49"/>
      <use x="60.205078" xlink:href="#DejaVuSansMono-101"/>
      <use x="120.410156" xlink:href="#DejaVuSansMono-8722"/>
      <use x="180.615234" xlink:href="#DejaVuSansMono-53"/>
     </g>
    </g>
   </g>
   <g id="PathCollection_1">
    <defs>
     <path d="M 0 2.030369 
C 0.53846 2.030369 1.054939 1.816436 1.435688 1.435688 
C 1.816436 1.054939 2.030369 0.53846 2.030369 -0 
C 2.030369 -0.53846 1.816436 -1.054939 1.435688 -1.435688 
C 1.054939 -1.816436 0.53846 -2.030369 0 -2.030369 
C -0.53846 -2.030369 -1.054939 -1.816436 -1.435688 -1.435688 
C -1.816436 -1.054939 -2.030369 -0.53846 -2.030369 0 
C -2.030369 0.53846 -1.816436 1.054939 -1.435688 1.435688 
C -1.054939 1.816436 -0.53846 2.030369 0 2.030369 
z
" id="C0_0_685b8079e7"/>
    </defs>
    <g clip-path="url(#p01b0bd5b54)">
     <use style="fill:#00008b;stroke:#00008b;stroke-width:1.215;" x="47.062983" xlink:href="#C0_0_685b8079e7" y="86.384855"/>
    </g>
    <g clip-path="url(#p01b0bd5b54)">
     <use style="fill:#00008b;stroke:#00008b;stroke-width:1.215;" x="69.660724" xlink:href="#C0_0_685b8079e7" y="130.008473"/>
    </g>
    <g clip-path="url(#p01b0bd5b54)">
     <use style="fill:#00008b;stroke:#00008b;stroke-width:1.215;" x="92.258464" xlink:href="#C0_0_685b8079e7" y="134.999376"/>
    </g>
    <g clip-path="url(#p01b0bd5b54)">
     <use style="fill:#00008b;stroke:#00008b;stroke-width:1.215;" x="114.856205" xlink:href="#C0_0_685b8079e7" y="128.615311"/>
    </g>
    <g clip-path="url(#p01b0bd5b54)">
     <use style="fill:#00008b;stroke:#00008b;stroke-width:1.215;" x="137.453945" xlink:href="#C0_0_685b8079e7" y="131.828901"/>
    </g>
    <g clip-path="url(#p01b0bd5b54)">
     <use style="fill:#00008b;stroke:#00008b;stroke-width:1.215;" x="160.051686" xlink:href="#C0_0_685b8079e7" y="128.54756"/>
    </g>
    <g clip-path="url(#p01b0bd5b54)">
     <use style="fill:#00008b;stroke:#00008b;stroke-width:1.215;" x="182.649427" xlink:href="#C0_0_685b8079e7" y="120.771656"/>
    </g>
    <g clip-path="url(#p01b0bd5b54)">
     <use style="fill:#00008b;stroke:#00008b;stroke-width:1.215;" x="205.247167" xlink:href="#C0_0_685b8079e7" y="122.180489"/>
    </g>
    <g clip-path="url(#p01b0bd5b54)">
     <use style="fill:#00008b;stroke:#00008b;stroke-width:1.215;" x="227.844908" xlink:href="#C0_0_685b8079e7" y="130.03779"/>
    </g>
    <g clip-path="url(#p01b0bd5b54)">
     <use style="fill:#00008b;stroke:#00008b;stroke-width:1.215;" x="250.442648" xlink:href="#C0_0_685b8079e7" y="113.243499"/>
    </g>
   </g>
   <g id="LineCollection_1">
    <path clip-path="url(#p01b0bd5b54)" d="M 205.247167 140.584476 
L 205.247167 43.022118 
" style="fill:none;stroke:#008000;stroke-dasharray:2,3.3;stroke-dashoffset:0;stroke-width:2;"/>
   </g>
   <g id="LineCollection_2">
    <path clip-path="url(#p01b0bd5b54)" d="M 250.442648 140.584476 
L 250.442648 43.022118 
" style="fill:none;stroke:#ff4500;stroke-dasharray:2,3.3;stroke-dashoffset:0;stroke-width:2;"/>
   </g>
   <g id="line2d_5">
    <path clip-path="url(#p01b0bd5b54)" d="M 47.062983 86.384855 
L 69.660724 130.008473 
L 92.258464 134.999376 
L 114.856205 128.615311 
L 137.453945 131.828901 
L 160.051686 128.54756 
L 182.649427 120.771656 
L 205.247167 122.180489 
L 227.844908 130.03779 
L 250.442648 113.243499 
" style="fill:none;stroke:#00008b;stroke-linecap:round;stroke-width:1.62;"/>
   </g>
   <g id="line2d_6">
    <path clip-path="url(#p01b0bd5b54)" d="M 47.062983 116.369499 
L 47.062983 47.456771 
" style="fill:none;stroke:#00008b;stroke-linecap:round;"/>
   </g>
   <g id="line2d_7">
    <path clip-path="url(#p01b0bd5b54)" d="M 69.660724 134.246555 
L 69.660724 123.716718 
" style="fill:none;stroke:#00008b;stroke-linecap:round;"/>
   </g>
   <g id="line2d_8">
    <path clip-path="url(#p01b0bd5b54)" d="M 92.258464 136.149823 
L 92.258464 133.728654 
" style="fill:none;stroke:#00008b;stroke-linecap:round;"/>
   </g>
   <g id="line2d_9">
    <path clip-path="url(#p01b0bd5b54)" d="M 114.856205 133.726226 
L 114.856205 120.119157 
" style="fill:none;stroke:#00008b;stroke-linecap:round;"/>
   </g>
   <g id="line2d_10">
    <path clip-path="url(#p01b0bd5b54)" d="M 137.453945 133.921776 
L 137.453945 129.306978 
" style="fill:none;stroke:#00008b;stroke-linecap:round;"/>
   </g>
   <g id="line2d_11">
    <path clip-path="url(#p01b0bd5b54)" d="M 160.051686 132.283344 
L 160.051686 124.025339 
" style="fill:none;stroke:#00008b;stroke-linecap:round;"/>
   </g>
   <g id="line2d_12">
    <path clip-path="url(#p01b0bd5b54)" d="M 182.649427 130.086199 
L 182.649427 108.193919 
" style="fill:none;stroke:#00008b;stroke-linecap:round;"/>
   </g>
   <g id="line2d_13">
    <path clip-path="url(#p01b0bd5b54)" d="M 205.247167 130.793413 
L 205.247167 112.259109 
" style="fill:none;stroke:#00008b;stroke-linecap:round;"/>
   </g>
   <g id="line2d_14">
    <path clip-path="url(#p01b0bd5b54)" d="M 227.844908 133.737776 
L 227.844908 125.732192 
" style="fill:none;stroke:#00008b;stroke-linecap:round;"/>
   </g>
   <g id="line2d_15">
    <path clip-path="url(#p01b0bd5b54)" d="M 250.442648 124.258498 
L 250.442648 100.034111 
" style="fill:none;stroke:#00008b;stroke-linecap:round;"/>
   </g>
   <g id="patch_3">
    <path d="M 36.894 145.462594 
L 36.894 38.144 
" style="fill:none;stroke:#cccccc;stroke-linecap:square;stroke-linejoin:miter;stroke-width:1.25;"/>
   </g>
   <g id="patch_4">
    <path d="M 260.611631 145.462594 
L 260.611631 38.144 
" style="fill:none;stroke:#cccccc;stroke-linecap:square;stroke-linejoin:miter;stroke-width:1.25;"/>
   </g>
   <g id="patch_5">
    <path d="M 36.894 145.462594 
L 260.611631 145.462594 
" style="fill:none;stroke:#cccccc;stroke-linecap:square;stroke-linejoin:miter;stroke-width:1.25;"/>
   </g>
   <g id="patch_6">
    <path d="M 36.894 38.144 
L 260.611631 38.144 
" style="fill:none;stroke:#cccccc;stroke-linecap:square;stroke-linejoin:miter;stroke-width:1.25;"/>
   </g>
   <g id="text_6">
    <!-- Eigenvector -->
    <g style="fill:#262626;" transform="translate(93.125128 32.144)scale(0.168 -0.168)">
     <defs>
      <path d="M 9.625 72.90625 
L 52.875 72.90625 
L 52.875 64.59375 
L 19.484375 64.59375 
L 19.484375 43.015625 
L 51.421875 43.015625 
L 51.421875 34.71875 
L 19.484375 34.71875 
L 19.484375 8.296875 
L 53.8125 8.296875 
L 53.8125 0 
L 9.625 0 
z
" id="DejaVuSansMono-69"/>
      <path d="M 12.5 54.6875 
L 35.5 54.6875 
L 35.5 6.984375 
L 53.328125 6.984375 
L 53.328125 0 
L 8.6875 0 
L 8.6875 6.984375 
L 26.515625 6.984375 
L 26.515625 47.703125 
L 12.5 47.703125 
z
M 26.515625 75.984375 
L 35.5 75.984375 
L 35.5 64.59375 
L 26.515625 64.59375 
z
" id="DejaVuSansMono-105"/>
      <path d="M 41.890625 27.78125 
Q 41.890625 37.890625 38.59375 43.140625 
Q 35.296875 48.390625 29 48.390625 
Q 22.40625 48.390625 18.9375 43.140625 
Q 15.484375 37.890625 15.484375 27.78125 
Q 15.484375 17.671875 18.96875 12.375 
Q 22.46875 7.078125 29.109375 7.078125 
Q 35.296875 7.078125 38.59375 12.390625 
Q 41.890625 17.71875 41.890625 27.78125 
z
M 50.875 3.515625 
Q 50.875 -8.796875 45.0625 -15.140625 
Q 39.265625 -21.484375 27.984375 -21.484375 
Q 24.265625 -21.484375 20.203125 -20.796875 
Q 16.15625 -20.125 12.109375 -18.796875 
L 12.109375 -9.90625 
Q 16.890625 -12.15625 20.796875 -13.234375 
Q 24.703125 -14.3125 27.984375 -14.3125 
Q 35.25 -14.3125 38.5625 -10.34375 
Q 41.890625 -6.390625 41.890625 2.203125 
L 41.890625 2.59375 
L 41.890625 8.6875 
Q 39.75 4.109375 36.03125 1.859375 
Q 32.328125 -0.390625 27 -0.390625 
Q 17.4375 -0.390625 11.71875 7.265625 
Q 6 14.9375 6 27.78125 
Q 6 40.671875 11.71875 48.328125 
Q 17.4375 56 27 56 
Q 32.28125 56 35.9375 53.90625 
Q 39.59375 51.8125 41.890625 47.40625 
L 41.890625 54.5 
L 50.875 54.5 
z
" id="DejaVuSansMono-103"/>
      <path d="M 51.3125 33.890625 
L 51.3125 0 
L 42.28125 0 
L 42.28125 33.890625 
Q 42.28125 41.265625 39.6875 44.71875 
Q 37.109375 48.1875 31.59375 48.1875 
Q 25.296875 48.1875 21.890625 43.71875 
Q 18.5 39.265625 18.5 30.90625 
L 18.5 0 
L 9.515625 0 
L 9.515625 54.6875 
L 18.5 54.6875 
L 18.5 46.484375 
Q 20.90625 51.171875 25 53.578125 
Q 29.109375 56 34.71875 56 
Q 43.0625 56 47.1875 50.5 
Q 51.3125 45.015625 51.3125 33.890625 
z
" id="DejaVuSansMono-110"/>
      <path d="M 4.890625 54.6875 
L 14.203125 54.6875 
L 30.078125 8.796875 
L 46 54.6875 
L 55.328125 54.6875 
L 35.890625 0 
L 24.3125 0 
z
" id="DejaVuSansMono-118"/>
      <path d="M 51.8125 2.78125 
Q 48.1875 0.6875 44.359375 -0.359375 
Q 40.53125 -1.421875 36.53125 -1.421875 
Q 23.828125 -1.421875 16.671875 6.1875 
Q 9.515625 13.8125 9.515625 27.296875 
Q 9.515625 40.765625 16.671875 48.375 
Q 23.828125 56 36.53125 56 
Q 40.484375 56 44.234375 54.96875 
Q 48 53.953125 51.8125 51.8125 
L 51.8125 42.390625 
Q 48.25 45.5625 44.65625 46.96875 
Q 41.0625 48.390625 36.53125 48.390625 
Q 28.078125 48.390625 23.53125 42.921875 
Q 19 37.453125 19 27.296875 
Q 19 17.1875 23.5625 11.6875 
Q 28.125 6.203125 36.53125 6.203125 
Q 41.21875 6.203125 44.921875 7.640625 
Q 48.640625 9.078125 51.8125 12.109375 
z
" id="DejaVuSansMono-99"/>
      <path d="M 29.984375 70.21875 
L 29.984375 54.6875 
L 50.390625 54.6875 
L 50.390625 47.703125 
L 29.984375 47.703125 
L 29.984375 18.015625 
Q 29.984375 11.96875 32.28125 9.5625 
Q 34.578125 7.171875 40.28125 7.171875 
L 50.390625 7.171875 
L 50.390625 0 
L 39.40625 0 
Q 29.296875 0 25.140625 4.046875 
Q 21 8.109375 21 18.015625 
L 21 47.703125 
L 6.390625 47.703125 
L 6.390625 54.6875 
L 21 54.6875 
L 21 70.21875 
z
" id="DejaVuSansMono-116"/>
      <path d="M 30.078125 48.390625 
Q 23.25 48.390625 19.734375 43.0625 
Q 16.21875 37.75 16.21875 27.296875 
Q 16.21875 16.890625 19.734375 11.546875 
Q 23.25 6.203125 30.078125 6.203125 
Q 36.96875 6.203125 40.484375 11.546875 
Q 44 16.890625 44 27.296875 
Q 44 37.75 40.484375 43.0625 
Q 36.96875 48.390625 30.078125 48.390625 
z
M 30.078125 56 
Q 41.453125 56 47.484375 48.625 
Q 53.515625 41.265625 53.515625 27.296875 
Q 53.515625 13.28125 47.5 5.921875 
Q 41.5 -1.421875 30.078125 -1.421875 
Q 18.703125 -1.421875 12.6875 5.921875 
Q 6.6875 13.28125 6.6875 27.296875 
Q 6.6875 41.265625 12.6875 48.625 
Q 18.703125 56 30.078125 56 
z
" id="DejaVuSansMono-111"/>
      <path d="M 56.390625 43.40625 
Q 53.515625 45.65625 50.53125 46.671875 
Q 47.5625 47.703125 44 47.703125 
Q 35.59375 47.703125 31.140625 42.421875 
Q 26.703125 37.15625 26.703125 27.203125 
L 26.703125 0 
L 17.671875 0 
L 17.671875 54.6875 
L 26.703125 54.6875 
L 26.703125 44 
Q 28.953125 49.8125 33.609375 52.90625 
Q 38.28125 56 44.671875 56 
Q 48 56 50.875 55.171875 
Q 53.765625 54.34375 56.390625 52.59375 
z
" id="DejaVuSansMono-114"/>
     </defs>
     <use xlink:href="#DejaVuSansMono-69"/>
     <use x="60.205078" xlink:href="#DejaVuSansMono-105"/>
     <use x="120.410156" xlink:href="#DejaVuSansMono-103"/>
     <use x="180.615234" xlink:href="#DejaVuSansMono-101"/>
     <use x="240.820312" xlink:href="#DejaVuSansMono-110"/>
     <use x="301.025391" xlink:href="#DejaVuSansMono-118"/>
     <use x="361.230469" xlink:href="#DejaVuSansMono-101"/>
     <use x="421.435547" xlink:href="#DejaVuSansMono-99"/>
     <use x="481.640625" xlink:href="#DejaVuSansMono-116"/>
     <use x="541.845703" xlink:href="#DejaVuSansMono-111"/>
     <use x="602.050781" xlink:href="#DejaVuSansMono-114"/>
    </g>
   </g>
  </g>
  <g id="axes_2">
   <g id="patch_7">
    <path d="M 325.072 145.462594 
L 548.789631 145.462594 
L 548.789631 38.144 
L 325.072 38.144 
z
" style="fill:#ffffff;"/>
   </g>
   <g id="matplotlib.axis_3">
    <g id="xtick_11"/>
    <g id="xtick_12"/>
    <g id="xtick_13"/>
    <g id="xtick_14"/>
    <g id="xtick_15"/>
    <g id="xtick_16"/>
    <g id="xtick_17"/>
    <g id="xtick_18"/>
    <g id="xtick_19"/>
    <g id="xtick_20"/>
   </g>
   <g id="matplotlib.axis_4">
    <g id="ytick_5">
     <g id="line2d_16">
      <path clip-path="url(#p7031230181)" d="M 325.072 143.289584 
L 548.789631 143.289584 
" style="fill:none;stroke:#cccccc;stroke-linecap:round;"/>
     </g>
     <g id="text_7">
      <!-- 0.0 -->
      <g style="fill:#262626;" transform="translate(287.758156 149.181288)scale(0.154 -0.154)">
       <defs>
        <path d="M 23.875 14.890625 
L 36.1875 14.890625 
L 36.1875 0 
L 23.875 0 
z
" id="DejaVuSansMono-46"/>
       </defs>
       <use xlink:href="#DejaVuSansMono-48"/>
       <use x="60.205078" xlink:href="#DejaVuSansMono-46"/>
       <use x="120.410156" xlink:href="#DejaVuSansMono-48"/>
      </g>
     </g>
    </g>
    <g id="ytick_6">
     <g id="line2d_17">
      <path clip-path="url(#p7031230181)" d="M 325.072 117.50445 
L 548.789631 117.50445 
" style="fill:none;stroke:#cccccc;stroke-linecap:round;"/>
     </g>
     <g id="text_8">
      <!-- 1.5 -->
      <g style="fill:#262626;" transform="translate(287.758156 123.396153)scale(0.154 -0.154)">
       <use xlink:href="#DejaVuSansMono-49"/>
       <use x="60.205078" xlink:href="#DejaVuSansMono-46"/>
       <use x="120.410156" xlink:href="#DejaVuSansMono-53"/>
      </g>
     </g>
    </g>
    <g id="ytick_7">
     <g id="line2d_18">
      <path clip-path="url(#p7031230181)" d="M 325.072 91.719316 
L 548.789631 91.719316 
" style="fill:none;stroke:#cccccc;stroke-linecap:round;"/>
     </g>
     <g id="text_9">
      <!-- 3.0 -->
      <g style="fill:#262626;" transform="translate(287.758156 97.611019)scale(0.154 -0.154)">
       <defs>
        <path d="M 37.890625 39.015625 
Q 45.0625 37.109375 48.875 32.25 
Q 52.6875 27.390625 52.6875 20.125 
Q 52.6875 10.0625 45.921875 4.3125 
Q 39.15625 -1.421875 27.203125 -1.421875 
Q 22.171875 -1.421875 16.9375 -0.484375 
Q 11.71875 0.4375 6.6875 2.203125 
L 6.6875 12.015625 
Q 11.671875 9.421875 16.5 8.15625 
Q 21.34375 6.890625 26.125 6.890625 
Q 34.234375 6.890625 38.578125 10.546875 
Q 42.921875 14.203125 42.921875 21.09375 
Q 42.921875 27.4375 38.578125 31.171875 
Q 34.234375 34.90625 26.8125 34.90625 
L 19.28125 34.90625 
L 19.28125 43.015625 
L 26.8125 43.015625 
Q 33.59375 43.015625 37.40625 45.984375 
Q 41.21875 48.96875 41.21875 54.296875 
Q 41.21875 59.90625 37.671875 62.90625 
Q 34.125 65.921875 27.59375 65.921875 
Q 23.25 65.921875 18.609375 64.9375 
Q 13.96875 63.96875 8.890625 62.015625 
L 8.890625 71.09375 
Q 14.796875 72.65625 19.40625 73.4375 
Q 24.03125 74.21875 27.59375 74.21875 
Q 38.234375 74.21875 44.609375 68.875 
Q 50.984375 63.53125 50.984375 54.6875 
Q 50.984375 48.6875 47.625 44.671875 
Q 44.28125 40.671875 37.890625 39.015625 
z
" id="DejaVuSansMono-51"/>
       </defs>
       <use xlink:href="#DejaVuSansMono-51"/>
       <use x="60.205078" xlink:href="#DejaVuSansMono-46"/>
       <use x="120.410156" xlink:href="#DejaVuSansMono-48"/>
      </g>
     </g>
    </g>
    <g id="ytick_8">
     <g id="line2d_19">
      <path clip-path="url(#p7031230181)" d="M 325.072 65.934182 
L 548.789631 65.934182 
" style="fill:none;stroke:#cccccc;stroke-linecap:round;"/>
     </g>
     <g id="text_10">
      <!-- 4.5 -->
      <g style="fill:#262626;" transform="translate(287.758156 71.825885)scale(0.154 -0.154)">
       <use xlink:href="#DejaVuSansMono-52"/>
       <use x="60.205078" xlink:href="#DejaVuSansMono-46"/>
       <use x="120.410156" xlink:href="#DejaVuSansMono-53"/>
      </g>
     </g>
    </g>
    <g id="ytick_9">
     <g id="line2d_20">
      <path clip-path="url(#p7031230181)" d="M 325.072 40.149047 
L 548.789631 40.149047 
" style="fill:none;stroke:#cccccc;stroke-linecap:round;"/>
     </g>
     <g id="text_11">
      <!-- 6.0 -->
      <g style="fill:#262626;" transform="translate(287.758156 46.04075)scale(0.154 -0.154)">
       <use xlink:href="#DejaVuSansMono-54"/>
       <use x="60.205078" xlink:href="#DejaVuSansMono-46"/>
       <use x="120.410156" xlink:href="#DejaVuSansMono-48"/>
      </g>
     </g>
    </g>
    <g id="text_12">
     <!-- 1e−6 -->
     <g style="fill:#262626;" transform="translate(325.072 35.144)scale(0.154 -0.154)">
      <use xlink:href="#DejaVuSansMono-49"/>
      <use x="60.205078" xlink:href="#DejaVuSansMono-101"/>
      <use x="120.410156" xlink:href="#DejaVuSansMono-8722"/>
      <use x="180.615234" xlink:href="#DejaVuSansMono-54"/>
     </g>
    </g>
   </g>
   <g id="PathCollection_2">
    <defs>
     <path d="M 0 2.030369 
C 0.53846 2.030369 1.054939 1.816436 1.435688 1.435688 
C 1.816436 1.054939 2.030369 0.53846 2.030369 -0 
C 2.030369 -0.53846 1.816436 -1.054939 1.435688 -1.435688 
C 1.054939 -1.816436 0.53846 -2.030369 0 -2.030369 
C -0.53846 -2.030369 -1.054939 -1.816436 -1.435688 -1.435688 
C -1.816436 -1.054939 -2.030369 -0.53846 -2.030369 0 
C -2.030369 0.53846 -1.816436 1.054939 -1.435688 1.435688 
C -1.054939 1.816436 -0.53846 2.030369 0 2.030369 
z
" id="C1_0_4135a6c91b"/>
    </defs>
    <g clip-path="url(#p7031230181)">
     <use style="fill:#00008b;stroke:#00008b;stroke-width:1.215;" x="335.240983" xlink:href="#C1_0_4135a6c91b" y="63.283353"/>
    </g>
    <g clip-path="url(#p7031230181)">
     <use style="fill:#00008b;stroke:#00008b;stroke-width:1.215;" x="357.838724" xlink:href="#C1_0_4135a6c91b" y="119.113333"/>
    </g>
    <g clip-path="url(#p7031230181)">
     <use style="fill:#00008b;stroke:#00008b;stroke-width:1.215;" x="380.436464" xlink:href="#C1_0_4135a6c91b" y="126.592158"/>
    </g>
    <g clip-path="url(#p7031230181)">
     <use style="fill:#00008b;stroke:#00008b;stroke-width:1.215;" x="403.034205" xlink:href="#C1_0_4135a6c91b" y="128.735088"/>
    </g>
    <g clip-path="url(#p7031230181)">
     <use style="fill:#00008b;stroke:#00008b;stroke-width:1.215;" x="425.631945" xlink:href="#C1_0_4135a6c91b" y="128.621061"/>
    </g>
    <g clip-path="url(#p7031230181)">
     <use style="fill:#00008b;stroke:#00008b;stroke-width:1.215;" x="448.229686" xlink:href="#C1_0_4135a6c91b" y="131.013857"/>
    </g>
    <g clip-path="url(#p7031230181)">
     <use style="fill:#00008b;stroke:#00008b;stroke-width:1.215;" x="470.827427" xlink:href="#C1_0_4135a6c91b" y="130.715252"/>
    </g>
    <g clip-path="url(#p7031230181)">
     <use style="fill:#00008b;stroke:#00008b;stroke-width:1.215;" x="493.425167" xlink:href="#C1_0_4135a6c91b" y="132.12337"/>
    </g>
    <g clip-path="url(#p7031230181)">
     <use style="fill:#00008b;stroke:#00008b;stroke-width:1.215;" x="516.022908" xlink:href="#C1_0_4135a6c91b" y="134.169404"/>
    </g>
    <g clip-path="url(#p7031230181)">
     <use style="fill:#00008b;stroke:#00008b;stroke-width:1.215;" x="538.620648" xlink:href="#C1_0_4135a6c91b" y="135.300484"/>
    </g>
   </g>
   <g id="LineCollection_3">
    <path clip-path="url(#p7031230181)" d="M 493.425167 140.584476 
L 493.425167 43.022118 
" style="fill:none;stroke:#008000;stroke-dasharray:2,3.3;stroke-dashoffset:0;stroke-width:2;"/>
   </g>
   <g id="LineCollection_4">
    <path clip-path="url(#p7031230181)" d="M 538.620648 140.584476 
L 538.620648 43.022118 
" style="fill:none;stroke:#ff4500;stroke-dasharray:2,3.3;stroke-dashoffset:0;stroke-width:2;"/>
   </g>
   <g id="line2d_21">
    <path clip-path="url(#p7031230181)" d="M 335.240983 63.283353 
L 357.838724 119.113333 
L 380.436464 126.592158 
L 403.034205 128.735088 
L 425.631945 128.621061 
L 448.229686 131.013857 
L 470.827427 130.715252 
L 493.425167 132.12337 
L 516.022908 134.169404 
L 538.620648 135.300484 
" style="fill:none;stroke:#00008b;stroke-linecap:round;stroke-width:1.62;"/>
   </g>
   <g id="line2d_22">
    <path clip-path="url(#p7031230181)" d="M 335.240983 78.375793 
L 335.240983 47.456771 
" style="fill:none;stroke:#00008b;stroke-linecap:round;"/>
   </g>
   <g id="line2d_23">
    <path clip-path="url(#p7031230181)" d="M 357.838724 124.119474 
L 357.838724 112.541207 
" style="fill:none;stroke:#00008b;stroke-linecap:round;"/>
   </g>
   <g id="line2d_24">
    <path clip-path="url(#p7031230181)" d="M 380.436464 129.321248 
L 380.436464 123.891871 
" style="fill:none;stroke:#00008b;stroke-linecap:round;"/>
   </g>
   <g id="line2d_25">
    <path clip-path="url(#p7031230181)" d="M 403.034205 130.449571 
L 403.034205 126.834506 
" style="fill:none;stroke:#00008b;stroke-linecap:round;"/>
   </g>
   <g id="line2d_26">
    <path clip-path="url(#p7031230181)" d="M 425.631945 130.689298 
L 425.631945 126.004255 
" style="fill:none;stroke:#00008b;stroke-linecap:round;"/>
   </g>
   <g id="line2d_27">
    <path clip-path="url(#p7031230181)" d="M 448.229686 132.214336 
L 448.229686 129.576586 
" style="fill:none;stroke:#00008b;stroke-linecap:round;"/>
   </g>
   <g id="line2d_28">
    <path clip-path="url(#p7031230181)" d="M 470.827427 131.971313 
L 470.827427 129.363857 
" style="fill:none;stroke:#00008b;stroke-linecap:round;"/>
   </g>
   <g id="line2d_29">
    <path clip-path="url(#p7031230181)" d="M 493.425167 133.285805 
L 493.425167 130.705521 
" style="fill:none;stroke:#00008b;stroke-linecap:round;"/>
   </g>
   <g id="line2d_30">
    <path clip-path="url(#p7031230181)" d="M 516.022908 135.182926 
L 516.022908 132.859194 
" style="fill:none;stroke:#00008b;stroke-linecap:round;"/>
   </g>
   <g id="line2d_31">
    <path clip-path="url(#p7031230181)" d="M 538.620648 136.149823 
L 538.620648 134.308603 
" style="fill:none;stroke:#00008b;stroke-linecap:round;"/>
   </g>
   <g id="patch_8">
    <path d="M 325.072 145.462594 
L 325.072 38.144 
" style="fill:none;stroke:#cccccc;stroke-linecap:square;stroke-linejoin:miter;stroke-width:1.25;"/>
   </g>
   <g id="patch_9">
    <path d="M 548.789631 145.462594 
L 548.789631 38.144 
" style="fill:none;stroke:#cccccc;stroke-linecap:square;stroke-linejoin:miter;stroke-width:1.25;"/>
   </g>
   <g id="patch_10">
    <path d="M 325.072 145.462594 
L 548.789631 145.462594 
" style="fill:none;stroke:#cccccc;stroke-linecap:square;stroke-linejoin:miter;stroke-width:1.25;"/>
   </g>
   <g id="patch_11">
    <path d="M 325.072 38.144 
L 548.789631 38.144 
" style="fill:none;stroke:#cccccc;stroke-linecap:square;stroke-linejoin:miter;stroke-width:1.25;"/>
   </g>
   <g id="text_13">
    <!-- Page Rank -->
    <g style="fill:#262626;" transform="translate(391.417253 32.144)scale(0.168 -0.168)">
     <defs>
      <path d="M 19.484375 64.796875 
L 19.484375 37.40625 
L 30.90625 37.40625 
Q 37.75 37.40625 41.578125 41.015625 
Q 45.40625 44.625 45.40625 51.125 
Q 45.40625 57.625 41.59375 61.203125 
Q 37.796875 64.796875 30.90625 64.796875 
z
M 9.625 72.90625 
L 30.90625 72.90625 
Q 43.109375 72.90625 49.40625 67.359375 
Q 55.71875 61.8125 55.71875 51.125 
Q 55.71875 40.328125 49.4375 34.8125 
Q 43.171875 29.296875 30.90625 29.296875 
L 19.484375 29.296875 
L 19.484375 0 
L 9.625 0 
z
" id="DejaVuSansMono-80"/>
      <path d="M 34.28125 27.484375 
L 31.296875 27.484375 
Q 23.4375 27.484375 19.453125 24.71875 
Q 15.484375 21.96875 15.484375 16.5 
Q 15.484375 11.578125 18.453125 8.84375 
Q 21.4375 6.109375 26.703125 6.109375 
Q 34.125 6.109375 38.375 11.25 
Q 42.625 16.40625 42.671875 25.484375 
L 42.671875 27.484375 
z
M 51.703125 31.203125 
L 51.703125 0 
L 42.671875 0 
L 42.671875 8.109375 
Q 39.796875 3.21875 35.421875 0.890625 
Q 31.0625 -1.421875 24.8125 -1.421875 
Q 16.453125 -1.421875 11.46875 3.296875 
Q 6.5 8.015625 6.5 15.921875 
Q 6.5 25.046875 12.625 29.78125 
Q 18.75 34.515625 30.609375 34.515625 
L 42.671875 34.515625 
L 42.671875 35.9375 
Q 42.625 42.484375 39.34375 45.4375 
Q 36.078125 48.390625 28.90625 48.390625 
Q 24.3125 48.390625 19.625 47.0625 
Q 14.9375 45.75 10.5 43.21875 
L 10.5 52.203125 
Q 15.484375 54.109375 20.046875 55.046875 
Q 24.609375 56 28.90625 56 
Q 35.6875 56 40.5 54 
Q 45.3125 52 48.296875 48 
Q 50.140625 45.5625 50.921875 41.96875 
Q 51.703125 38.375 51.703125 31.203125 
z
" id="DejaVuSansMono-97"/>
      <path id="DejaVuSansMono-32"/>
      <path d="M 37.109375 34.421875 
Q 40.921875 33.453125 43.609375 30.734375 
Q 46.296875 28.03125 50.296875 19.921875 
L 60.203125 0 
L 49.609375 0 
L 40.921875 18.40625 
Q 37.15625 26.265625 34.15625 28.53125 
Q 31.15625 30.8125 26.3125 30.8125 
L 16.890625 30.8125 
L 16.890625 0 
L 6.984375 0 
L 6.984375 72.90625 
L 27.296875 72.90625 
Q 39.3125 72.90625 45.703125 67.484375 
Q 52.09375 62.0625 52.09375 51.8125 
Q 52.09375 44.578125 48.15625 40.015625 
Q 44.234375 35.453125 37.109375 34.421875 
z
M 16.890625 64.796875 
L 16.890625 38.921875 
L 27.6875 38.921875 
Q 34.765625 38.921875 38.234375 42.09375 
Q 41.703125 45.265625 41.703125 51.8125 
Q 41.703125 58.109375 38.015625 61.453125 
Q 34.328125 64.796875 27.296875 64.796875 
z
" id="DejaVuSansMono-82"/>
      <path d="M 11.53125 75.984375 
L 20.796875 75.984375 
L 20.796875 31.984375 
L 44.390625 54.6875 
L 55.328125 54.6875 
L 33.796875 34.078125 
L 58.6875 0 
L 47.703125 0 
L 27.484375 28.21875 
L 20.796875 21.921875 
L 20.796875 0 
L 11.53125 0 
z
" id="DejaVuSansMono-107"/>
     </defs>
     <use xlink:href="#DejaVuSansMono-80"/>
     <use x="60.205078" xlink:href="#DejaVuSansMono-97"/>
     <use x="120.410156" xlink:href="#DejaVuSansMono-103"/>
     <use x="180.615234" xlink:href="#DejaVuSansMono-101"/>
     <use x="240.820312" xlink:href="#DejaVuSansMono-32"/>
     <use x="301.025391" xlink:href="#DejaVuSansMono-82"/>
     <use x="361.230469" xlink:href="#DejaVuSansMono-97"/>
     <use x="421.435547" xlink:href="#DejaVuSansMono-110"/>
     <use x="481.640625" xlink:href="#DejaVuSansMono-107"/>
    </g>
   </g>
  </g>
  <g id="axes_3">
   <g id="patch_12">
    <path d="M 36.894 297.423613 
L 260.611631 297.423613 
L 260.611631 190.10502 
L 36.894 190.10502 
z
" style="fill:#ffffff;"/>
   </g>
   <g id="matplotlib.axis_5">
    <g id="xtick_21">
     <g id="text_14">
      <!-- $1^{st}$ -->
      <g style="fill:#262626;" transform="translate(42.034687 329.016813)rotate(-40)scale(0.154 -0.154)">
       <defs>
        <path d="M 12.40625 8.296875 
L 28.515625 8.296875 
L 28.515625 63.921875 
L 10.984375 60.40625 
L 10.984375 69.390625 
L 28.421875 72.90625 
L 38.28125 72.90625 
L 38.28125 8.296875 
L 54.390625 8.296875 
L 54.390625 0 
L 12.40625 0 
z
" id="DejaVuSans-49"/>
        <path d="M 50 53.078125 
L 48.296875 44.578125 
Q 44.734375 46.53125 40.765625 47.5 
Q 36.8125 48.484375 32.625 48.484375 
Q 25.53125 48.484375 21.453125 46.0625 
Q 17.390625 43.65625 17.390625 39.5 
Q 17.390625 34.671875 26.859375 32.078125 
Q 27.59375 31.890625 27.9375 31.78125 
L 30.8125 30.90625 
Q 39.796875 28.421875 42.796875 25.6875 
Q 45.796875 22.953125 45.796875 18.21875 
Q 45.796875 9.515625 38.890625 4.046875 
Q 31.984375 -1.421875 20.796875 -1.421875 
Q 16.453125 -1.421875 11.671875 -0.578125 
Q 6.890625 0.25 1.125 2 
L 2.875 11.28125 
Q 7.8125 8.734375 12.59375 7.421875 
Q 17.390625 6.109375 21.78125 6.109375 
Q 28.375 6.109375 32.5 8.9375 
Q 36.625 11.765625 36.625 16.109375 
Q 36.625 20.796875 25.78125 23.6875 
L 24.859375 23.921875 
L 21.78125 24.703125 
Q 14.9375 26.515625 11.765625 29.46875 
Q 8.59375 32.421875 8.59375 37.015625 
Q 8.59375 45.75 15.15625 50.875 
Q 21.734375 56 33.015625 56 
Q 37.453125 56 41.671875 55.265625 
Q 45.90625 54.546875 50 53.078125 
z
" id="DejaVuSans-Oblique-115"/>
        <path d="M 42.28125 54.6875 
L 40.921875 47.703125 
L 23 47.703125 
L 17.1875 18.015625 
Q 16.890625 16.359375 16.75 15.234375 
Q 16.609375 14.109375 16.609375 13.484375 
Q 16.609375 10.359375 18.484375 8.9375 
Q 20.359375 7.515625 24.515625 7.515625 
L 33.59375 7.515625 
L 32.078125 0 
L 23.484375 0 
Q 15.484375 0 11.546875 3.125 
Q 7.625 6.25 7.625 12.59375 
Q 7.625 13.71875 7.765625 15.0625 
Q 7.90625 16.40625 8.203125 18.015625 
L 14.015625 47.703125 
L 6.390625 47.703125 
L 7.8125 54.6875 
L 15.28125 54.6875 
L 18.3125 70.21875 
L 27.296875 70.21875 
L 24.3125 54.6875 
z
" id="DejaVuSans-Oblique-116"/>
       </defs>
       <use transform="translate(0 0.565625)" xlink:href="#DejaVuSans-49"/>
       <use transform="translate(64.580078 38.846875)scale(0.7)" xlink:href="#DejaVuSans-Oblique-115"/>
       <use transform="translate(101.049805 38.846875)scale(0.7)" xlink:href="#DejaVuSans-Oblique-116"/>
      </g>
     </g>
    </g>
    <g id="xtick_22">
     <g id="text_15">
      <!-- $2^{nd}$ -->
      <g style="fill:#262626;" transform="translate(63.157792 331.491545)rotate(-40)scale(0.154 -0.154)">
       <defs>
        <path d="M 19.1875 8.296875 
L 53.609375 8.296875 
L 53.609375 0 
L 7.328125 0 
L 7.328125 8.296875 
Q 12.9375 14.109375 22.625 23.890625 
Q 32.328125 33.6875 34.8125 36.53125 
Q 39.546875 41.84375 41.421875 45.53125 
Q 43.3125 49.21875 43.3125 52.78125 
Q 43.3125 58.59375 39.234375 62.25 
Q 35.15625 65.921875 28.609375 65.921875 
Q 23.96875 65.921875 18.8125 64.3125 
Q 13.671875 62.703125 7.8125 59.421875 
L 7.8125 69.390625 
Q 13.765625 71.78125 18.9375 73 
Q 24.125 74.21875 28.421875 74.21875 
Q 39.75 74.21875 46.484375 68.546875 
Q 53.21875 62.890625 53.21875 53.421875 
Q 53.21875 48.921875 51.53125 44.890625 
Q 49.859375 40.875 45.40625 35.40625 
Q 44.1875 33.984375 37.640625 27.21875 
Q 31.109375 20.453125 19.1875 8.296875 
z
" id="DejaVuSans-50"/>
        <path d="M 55.71875 33.015625 
L 49.3125 0 
L 40.28125 0 
L 46.6875 32.671875 
Q 47.125 34.96875 47.359375 36.71875 
Q 47.609375 38.484375 47.609375 39.5 
Q 47.609375 43.609375 45.015625 45.890625 
Q 42.4375 48.1875 37.796875 48.1875 
Q 30.5625 48.1875 25.34375 43.375 
Q 20.125 38.578125 18.5 30.328125 
L 12.5 0 
L 3.515625 0 
L 14.109375 54.6875 
L 23.09375 54.6875 
L 21.296875 46.09375 
Q 25.046875 50.828125 30.3125 53.40625 
Q 35.59375 56 41.40625 56 
Q 48.640625 56 52.609375 52.09375 
Q 56.59375 48.1875 56.59375 41.109375 
Q 56.59375 39.359375 56.375 37.359375 
Q 56.15625 35.359375 55.71875 33.015625 
z
" id="DejaVuSans-Oblique-110"/>
        <path d="M 41.796875 8.203125 
Q 38.1875 3.46875 33.25 1.015625 
Q 28.328125 -1.421875 22.3125 -1.421875 
Q 14.109375 -1.421875 9.34375 4.171875 
Q 4.59375 9.765625 4.59375 19.484375 
Q 4.59375 27.59375 7.46875 34.9375 
Q 10.359375 42.28125 15.828125 48.09375 
Q 19.4375 51.953125 23.96875 53.96875 
Q 28.515625 56 33.5 56 
Q 38.765625 56 42.796875 53.453125 
Q 46.828125 50.921875 49.03125 46.1875 
L 54.890625 75.984375 
L 63.921875 75.984375 
L 49.125 0 
L 40.09375 0 
z
M 13.921875 21.09375 
Q 13.921875 14.015625 17.109375 10.0625 
Q 20.3125 6.109375 25.984375 6.109375 
Q 30.171875 6.109375 33.765625 8.125 
Q 37.359375 10.15625 40.09375 14.109375 
Q 42.96875 18.21875 44.625 23.578125 
Q 46.296875 28.953125 46.296875 34.1875 
Q 46.296875 40.96875 43.09375 44.765625 
Q 39.890625 48.578125 34.28125 48.578125 
Q 30.03125 48.578125 26.359375 46.578125 
Q 22.703125 44.578125 20.125 40.828125 
Q 17.28125 36.765625 15.59375 31.390625 
Q 13.921875 26.03125 13.921875 21.09375 
z
" id="DejaVuSans-Oblique-100"/>
       </defs>
       <use transform="translate(0 0.529687)" xlink:href="#DejaVuSans-50"/>
       <use transform="translate(64.580078 38.810937)scale(0.7)" xlink:href="#DejaVuSans-Oblique-110"/>
       <use transform="translate(108.945312 38.810937)scale(0.7)" xlink:href="#DejaVuSans-Oblique-100"/>
      </g>
     </g>
    </g>
    <g id="xtick_23">
     <g id="text_16">
      <!-- $3^{th}$ -->
      <g style="fill:#262626;" transform="translate(86.758285 329.808727)rotate(-40)scale(0.154 -0.154)">
       <defs>
        <path d="M 40.578125 39.3125 
Q 47.65625 37.796875 51.625 33 
Q 55.609375 28.21875 55.609375 21.1875 
Q 55.609375 10.40625 48.1875 4.484375 
Q 40.765625 -1.421875 27.09375 -1.421875 
Q 22.515625 -1.421875 17.65625 -0.515625 
Q 12.796875 0.390625 7.625 2.203125 
L 7.625 11.71875 
Q 11.71875 9.328125 16.59375 8.109375 
Q 21.484375 6.890625 26.8125 6.890625 
Q 36.078125 6.890625 40.9375 10.546875 
Q 45.796875 14.203125 45.796875 21.1875 
Q 45.796875 27.640625 41.28125 31.265625 
Q 36.765625 34.90625 28.71875 34.90625 
L 20.21875 34.90625 
L 20.21875 43.015625 
L 29.109375 43.015625 
Q 36.375 43.015625 40.234375 45.921875 
Q 44.09375 48.828125 44.09375 54.296875 
Q 44.09375 59.90625 40.109375 62.90625 
Q 36.140625 65.921875 28.71875 65.921875 
Q 24.65625 65.921875 20.015625 65.03125 
Q 15.375 64.15625 9.8125 62.3125 
L 9.8125 71.09375 
Q 15.4375 72.65625 20.34375 73.4375 
Q 25.25 74.21875 29.59375 74.21875 
Q 40.828125 74.21875 47.359375 69.109375 
Q 53.90625 64.015625 53.90625 55.328125 
Q 53.90625 49.265625 50.4375 45.09375 
Q 46.96875 40.921875 40.578125 39.3125 
z
" id="DejaVuSans-51"/>
        <path d="M 55.71875 33.015625 
L 49.3125 0 
L 40.28125 0 
L 46.6875 32.671875 
Q 47.125 34.96875 47.359375 36.71875 
Q 47.609375 38.484375 47.609375 39.5 
Q 47.609375 43.609375 45.015625 45.890625 
Q 42.4375 48.1875 37.796875 48.1875 
Q 30.5625 48.1875 25.265625 43.296875 
Q 19.96875 38.421875 18.40625 30.328125 
L 12.5 0 
L 3.515625 0 
L 18.3125 75.984375 
L 27.296875 75.984375 
L 21.484375 46.09375 
Q 24.90625 50.6875 30.21875 53.34375 
Q 35.546875 56 41.40625 56 
Q 48.640625 56 52.609375 52.09375 
Q 56.59375 48.1875 56.59375 41.109375 
Q 56.59375 39.359375 56.375 37.359375 
Q 56.15625 35.359375 55.71875 33.015625 
z
" id="DejaVuSans-Oblique-104"/>
       </defs>
       <use transform="translate(0 0.529687)" xlink:href="#DejaVuSans-51"/>
       <use transform="translate(64.580078 38.810937)scale(0.7)" xlink:href="#DejaVuSans-Oblique-116"/>
       <use transform="translate(92.026367 38.810937)scale(0.7)" xlink:href="#DejaVuSans-Oblique-104"/>
      </g>
     </g>
    </g>
    <g id="xtick_24">
     <g id="text_17">
      <!-- $4^{th}$ -->
      <g style="fill:#262626;" transform="translate(109.356026 329.808727)rotate(-40)scale(0.154 -0.154)">
       <defs>
        <path d="M 37.796875 64.3125 
L 12.890625 25.390625 
L 37.796875 25.390625 
z
M 35.203125 72.90625 
L 47.609375 72.90625 
L 47.609375 25.390625 
L 58.015625 25.390625 
L 58.015625 17.1875 
L 47.609375 17.1875 
L 47.609375 0 
L 37.796875 0 
L 37.796875 17.1875 
L 4.890625 17.1875 
L 4.890625 26.703125 
z
" id="DejaVuSans-52"/>
       </defs>
       <use transform="translate(0 0.529687)" xlink:href="#DejaVuSans-52"/>
       <use transform="translate(64.580078 38.810937)scale(0.7)" xlink:href="#DejaVuSans-Oblique-116"/>
       <use transform="translate(92.026367 38.810937)scale(0.7)" xlink:href="#DejaVuSans-Oblique-104"/>
      </g>
     </g>
    </g>
    <g id="xtick_25">
     <g id="text_18">
      <!-- $5^{th}$ -->
      <g style="fill:#262626;" transform="translate(131.953766 329.808727)rotate(-40)scale(0.154 -0.154)">
       <defs>
        <path d="M 10.796875 72.90625 
L 49.515625 72.90625 
L 49.515625 64.59375 
L 19.828125 64.59375 
L 19.828125 46.734375 
Q 21.96875 47.46875 24.109375 47.828125 
Q 26.265625 48.1875 28.421875 48.1875 
Q 40.625 48.1875 47.75 41.5 
Q 54.890625 34.8125 54.890625 23.390625 
Q 54.890625 11.625 47.5625 5.09375 
Q 40.234375 -1.421875 26.90625 -1.421875 
Q 22.3125 -1.421875 17.546875 -0.640625 
Q 12.796875 0.140625 7.71875 1.703125 
L 7.71875 11.625 
Q 12.109375 9.234375 16.796875 8.0625 
Q 21.484375 6.890625 26.703125 6.890625 
Q 35.15625 6.890625 40.078125 11.328125 
Q 45.015625 15.765625 45.015625 23.390625 
Q 45.015625 31 40.078125 35.4375 
Q 35.15625 39.890625 26.703125 39.890625 
Q 22.75 39.890625 18.8125 39.015625 
Q 14.890625 38.140625 10.796875 36.28125 
z
" id="DejaVuSans-53"/>
       </defs>
       <use transform="translate(0 0.529687)" xlink:href="#DejaVuSans-53"/>
       <use transform="translate(64.580078 38.810937)scale(0.7)" xlink:href="#DejaVuSans-Oblique-116"/>
       <use transform="translate(92.026367 38.810937)scale(0.7)" xlink:href="#DejaVuSans-Oblique-104"/>
      </g>
     </g>
    </g>
    <g id="xtick_26">
     <g id="text_19">
      <!-- $6^{th}$ -->
      <g style="fill:#262626;" transform="translate(154.551507 329.808727)rotate(-40)scale(0.154 -0.154)">
       <defs>
        <path d="M 33.015625 40.375 
Q 26.375 40.375 22.484375 35.828125 
Q 18.609375 31.296875 18.609375 23.390625 
Q 18.609375 15.53125 22.484375 10.953125 
Q 26.375 6.390625 33.015625 6.390625 
Q 39.65625 6.390625 43.53125 10.953125 
Q 47.40625 15.53125 47.40625 23.390625 
Q 47.40625 31.296875 43.53125 35.828125 
Q 39.65625 40.375 33.015625 40.375 
z
M 52.59375 71.296875 
L 52.59375 62.3125 
Q 48.875 64.0625 45.09375 64.984375 
Q 41.3125 65.921875 37.59375 65.921875 
Q 27.828125 65.921875 22.671875 59.328125 
Q 17.53125 52.734375 16.796875 39.40625 
Q 19.671875 43.65625 24.015625 45.921875 
Q 28.375 48.1875 33.59375 48.1875 
Q 44.578125 48.1875 50.953125 41.515625 
Q 57.328125 34.859375 57.328125 23.390625 
Q 57.328125 12.15625 50.6875 5.359375 
Q 44.046875 -1.421875 33.015625 -1.421875 
Q 20.359375 -1.421875 13.671875 8.265625 
Q 6.984375 17.96875 6.984375 36.375 
Q 6.984375 53.65625 15.1875 63.9375 
Q 23.390625 74.21875 37.203125 74.21875 
Q 40.921875 74.21875 44.703125 73.484375 
Q 48.484375 72.75 52.59375 71.296875 
z
" id="DejaVuSans-54"/>
       </defs>
       <use transform="translate(0 0.529687)" xlink:href="#DejaVuSans-54"/>
       <use transform="translate(64.580078 38.810937)scale(0.7)" xlink:href="#DejaVuSans-Oblique-116"/>
       <use transform="translate(92.026367 38.810937)scale(0.7)" xlink:href="#DejaVuSans-Oblique-104"/>
      </g>
     </g>
    </g>
    <g id="xtick_27">
     <g id="text_20">
      <!-- $7^{th}$ -->
      <g style="fill:#262626;" transform="translate(177.149247 329.808727)rotate(-40)scale(0.154 -0.154)">
       <defs>
        <path d="M 8.203125 72.90625 
L 55.078125 72.90625 
L 55.078125 68.703125 
L 28.609375 0 
L 18.3125 0 
L 43.21875 64.59375 
L 8.203125 64.59375 
z
" id="DejaVuSans-55"/>
       </defs>
       <use transform="translate(0 0.529687)" xlink:href="#DejaVuSans-55"/>
       <use transform="translate(64.580078 38.810937)scale(0.7)" xlink:href="#DejaVuSans-Oblique-116"/>
       <use transform="translate(92.026367 38.810937)scale(0.7)" xlink:href="#DejaVuSans-Oblique-104"/>
      </g>
     </g>
    </g>
    <g id="xtick_28">
     <g id="text_21">
      <!-- $8^{th}$ -->
      <g style="fill:#262626;" transform="translate(199.746988 329.808727)rotate(-40)scale(0.154 -0.154)">
       <defs>
        <path d="M 31.78125 34.625 
Q 24.75 34.625 20.71875 30.859375 
Q 16.703125 27.09375 16.703125 20.515625 
Q 16.703125 13.921875 20.71875 10.15625 
Q 24.75 6.390625 31.78125 6.390625 
Q 38.8125 6.390625 42.859375 10.171875 
Q 46.921875 13.96875 46.921875 20.515625 
Q 46.921875 27.09375 42.890625 30.859375 
Q 38.875 34.625 31.78125 34.625 
z
M 21.921875 38.8125 
Q 15.578125 40.375 12.03125 44.71875 
Q 8.5 49.078125 8.5 55.328125 
Q 8.5 64.0625 14.71875 69.140625 
Q 20.953125 74.21875 31.78125 74.21875 
Q 42.671875 74.21875 48.875 69.140625 
Q 55.078125 64.0625 55.078125 55.328125 
Q 55.078125 49.078125 51.53125 44.71875 
Q 48 40.375 41.703125 38.8125 
Q 48.828125 37.15625 52.796875 32.3125 
Q 56.78125 27.484375 56.78125 20.515625 
Q 56.78125 9.90625 50.3125 4.234375 
Q 43.84375 -1.421875 31.78125 -1.421875 
Q 19.734375 -1.421875 13.25 4.234375 
Q 6.78125 9.90625 6.78125 20.515625 
Q 6.78125 27.484375 10.78125 32.3125 
Q 14.796875 37.15625 21.921875 38.8125 
z
M 18.3125 54.390625 
Q 18.3125 48.734375 21.84375 45.5625 
Q 25.390625 42.390625 31.78125 42.390625 
Q 38.140625 42.390625 41.71875 45.5625 
Q 45.3125 48.734375 45.3125 54.390625 
Q 45.3125 60.0625 41.71875 63.234375 
Q 38.140625 66.40625 31.78125 66.40625 
Q 25.390625 66.40625 21.84375 63.234375 
Q 18.3125 60.0625 18.3125 54.390625 
z
" id="DejaVuSans-56"/>
       </defs>
       <use transform="translate(0 0.529687)" xlink:href="#DejaVuSans-56"/>
       <use transform="translate(64.580078 38.810937)scale(0.7)" xlink:href="#DejaVuSans-Oblique-116"/>
       <use transform="translate(92.026367 38.810937)scale(0.7)" xlink:href="#DejaVuSans-Oblique-104"/>
      </g>
     </g>
    </g>
    <g id="xtick_29">
     <g id="text_22">
      <!-- $9^{th}$ -->
      <g style="fill:#262626;" transform="translate(222.344728 329.808727)rotate(-40)scale(0.154 -0.154)">
       <defs>
        <path d="M 10.984375 1.515625 
L 10.984375 10.5 
Q 14.703125 8.734375 18.5 7.8125 
Q 22.3125 6.890625 25.984375 6.890625 
Q 35.75 6.890625 40.890625 13.453125 
Q 46.046875 20.015625 46.78125 33.40625 
Q 43.953125 29.203125 39.59375 26.953125 
Q 35.25 24.703125 29.984375 24.703125 
Q 19.046875 24.703125 12.671875 31.3125 
Q 6.296875 37.9375 6.296875 49.421875 
Q 6.296875 60.640625 12.9375 67.421875 
Q 19.578125 74.21875 30.609375 74.21875 
Q 43.265625 74.21875 49.921875 64.515625 
Q 56.59375 54.828125 56.59375 36.375 
Q 56.59375 19.140625 48.40625 8.859375 
Q 40.234375 -1.421875 26.421875 -1.421875 
Q 22.703125 -1.421875 18.890625 -0.6875 
Q 15.09375 0.046875 10.984375 1.515625 
z
M 30.609375 32.421875 
Q 37.25 32.421875 41.125 36.953125 
Q 45.015625 41.5 45.015625 49.421875 
Q 45.015625 57.28125 41.125 61.84375 
Q 37.25 66.40625 30.609375 66.40625 
Q 23.96875 66.40625 20.09375 61.84375 
Q 16.21875 57.28125 16.21875 49.421875 
Q 16.21875 41.5 20.09375 36.953125 
Q 23.96875 32.421875 30.609375 32.421875 
z
" id="DejaVuSans-57"/>
       </defs>
       <use transform="translate(0 0.529687)" xlink:href="#DejaVuSans-57"/>
       <use transform="translate(64.580078 38.810937)scale(0.7)" xlink:href="#DejaVuSans-Oblique-116"/>
       <use transform="translate(92.026367 38.810937)scale(0.7)" xlink:href="#DejaVuSans-Oblique-104"/>
      </g>
     </g>
    </g>
    <g id="xtick_30">
     <g id="text_23">
      <!-- $10^{th}$ -->
      <g style="fill:#262626;" transform="translate(241.226387 336.045053)rotate(-40)scale(0.154 -0.154)">
       <defs>
        <path d="M 31.78125 66.40625 
Q 24.171875 66.40625 20.328125 58.90625 
Q 16.5 51.421875 16.5 36.375 
Q 16.5 21.390625 20.328125 13.890625 
Q 24.171875 6.390625 31.78125 6.390625 
Q 39.453125 6.390625 43.28125 13.890625 
Q 47.125 21.390625 47.125 36.375 
Q 47.125 51.421875 43.28125 58.90625 
Q 39.453125 66.40625 31.78125 66.40625 
z
M 31.78125 74.21875 
Q 44.046875 74.21875 50.515625 64.515625 
Q 56.984375 54.828125 56.984375 36.375 
Q 56.984375 17.96875 50.515625 8.265625 
Q 44.046875 -1.421875 31.78125 -1.421875 
Q 19.53125 -1.421875 13.0625 8.265625 
Q 6.59375 17.96875 6.59375 36.375 
Q 6.59375 54.828125 13.0625 64.515625 
Q 19.53125 74.21875 31.78125 74.21875 
z
" id="DejaVuSans-48"/>
       </defs>
       <use transform="translate(0 0.529687)" xlink:href="#DejaVuSans-49"/>
       <use transform="translate(63.623047 0.529687)" xlink:href="#DejaVuSans-48"/>
       <use transform="translate(128.203125 38.810937)scale(0.7)" xlink:href="#DejaVuSans-Oblique-116"/>
       <use transform="translate(155.649414 38.810937)scale(0.7)" xlink:href="#DejaVuSans-Oblique-104"/>
      </g>
     </g>
    </g>
   </g>
   <g id="matplotlib.axis_6">
    <g id="ytick_10">
     <g id="line2d_32">
      <path clip-path="url(#p7397e98fb1)" d="M 36.894 294.605437 
L 260.611631 294.605437 
" style="fill:none;stroke:#cccccc;stroke-linecap:round;"/>
     </g>
     <g id="text_24">
      <!-- 1 -->
      <g style="fill:#262626;" transform="translate(18.122719 300.49714)scale(0.154 -0.154)">
       <use xlink:href="#DejaVuSansMono-49"/>
      </g>
     </g>
    </g>
    <g id="ytick_11">
     <g id="line2d_33">
      <path clip-path="url(#p7397e98fb1)" d="M 36.894 269.719889 
L 260.611631 269.719889 
" style="fill:none;stroke:#cccccc;stroke-linecap:round;"/>
     </g>
     <g id="text_25">
      <!-- 2 -->
      <g style="fill:#262626;" transform="translate(18.122719 275.611592)scale(0.154 -0.154)">
       <use xlink:href="#DejaVuSansMono-50"/>
      </g>
     </g>
    </g>
    <g id="ytick_12">
     <g id="line2d_34">
      <path clip-path="url(#p7397e98fb1)" d="M 36.894 244.834341 
L 260.611631 244.834341 
" style="fill:none;stroke:#cccccc;stroke-linecap:round;"/>
     </g>
     <g id="text_26">
      <!-- 3 -->
      <g style="fill:#262626;" transform="translate(18.122719 250.726044)scale(0.154 -0.154)">
       <use xlink:href="#DejaVuSansMono-51"/>
      </g>
     </g>
    </g>
    <g id="ytick_13">
     <g id="line2d_35">
      <path clip-path="url(#p7397e98fb1)" d="M 36.894 219.948792 
L 260.611631 219.948792 
" style="fill:none;stroke:#cccccc;stroke-linecap:round;"/>
     </g>
     <g id="text_27">
      <!-- 4 -->
      <g style="fill:#262626;" transform="translate(18.122719 225.840496)scale(0.154 -0.154)">
       <use xlink:href="#DejaVuSansMono-52"/>
      </g>
     </g>
    </g>
    <g id="ytick_14">
     <g id="line2d_36">
      <path clip-path="url(#p7397e98fb1)" d="M 36.894 195.063244 
L 260.611631 195.063244 
" style="fill:none;stroke:#cccccc;stroke-linecap:round;"/>
     </g>
     <g id="text_28">
      <!-- 5 -->
      <g style="fill:#262626;" transform="translate(18.122719 200.954948)scale(0.154 -0.154)">
       <use xlink:href="#DejaVuSansMono-53"/>
      </g>
     </g>
    </g>
    <g id="text_29">
     <!-- 1e−5 -->
     <g style="fill:#262626;" transform="translate(36.894 187.10502)scale(0.154 -0.154)">
      <use xlink:href="#DejaVuSansMono-49"/>
      <use x="60.205078" xlink:href="#DejaVuSansMono-101"/>
      <use x="120.410156" xlink:href="#DejaVuSansMono-8722"/>
      <use x="180.615234" xlink:href="#DejaVuSansMono-53"/>
     </g>
    </g>
   </g>
   <g id="PathCollection_3">
    <defs>
     <path d="M 0 2.030369 
C 0.53846 2.030369 1.054939 1.816436 1.435688 1.435688 
C 1.816436 1.054939 2.030369 0.53846 2.030369 -0 
C 2.030369 -0.53846 1.816436 -1.054939 1.435688 -1.435688 
C 1.054939 -1.816436 0.53846 -2.030369 0 -2.030369 
C -0.53846 -2.030369 -1.054939 -1.816436 -1.435688 -1.435688 
C -1.816436 -1.054939 -2.030369 -0.53846 -2.030369 0 
C -2.030369 0.53846 -1.816436 1.054939 -1.435688 1.435688 
C -1.054939 1.816436 -0.53846 2.030369 0 2.030369 
z
" id="C2_0_fca42cde93"/>
    </defs>
    <g clip-path="url(#p7397e98fb1)">
     <use style="fill:#00008b;stroke:#00008b;stroke-width:1.215;" x="47.062983" xlink:href="#C2_0_fca42cde93" y="277.633671"/>
    </g>
    <g clip-path="url(#p7397e98fb1)">
     <use style="fill:#00008b;stroke:#00008b;stroke-width:1.215;" x="69.660724" xlink:href="#C2_0_fca42cde93" y="264.042741"/>
    </g>
    <g clip-path="url(#p7397e98fb1)">
     <use style="fill:#00008b;stroke:#00008b;stroke-width:1.215;" x="92.258464" xlink:href="#C2_0_fca42cde93" y="243.462159"/>
    </g>
    <g clip-path="url(#p7397e98fb1)">
     <use style="fill:#00008b;stroke:#00008b;stroke-width:1.215;" x="114.856205" xlink:href="#C2_0_fca42cde93" y="248.02199"/>
    </g>
    <g clip-path="url(#p7397e98fb1)">
     <use style="fill:#00008b;stroke:#00008b;stroke-width:1.215;" x="137.453945" xlink:href="#C2_0_fca42cde93" y="262.134123"/>
    </g>
    <g clip-path="url(#p7397e98fb1)">
     <use style="fill:#00008b;stroke:#00008b;stroke-width:1.215;" x="160.051686" xlink:href="#C2_0_fca42cde93" y="220.99837"/>
    </g>
    <g clip-path="url(#p7397e98fb1)">
     <use style="fill:#00008b;stroke:#00008b;stroke-width:1.215;" x="182.649427" xlink:href="#C2_0_fca42cde93" y="248.797119"/>
    </g>
    <g clip-path="url(#p7397e98fb1)">
     <use style="fill:#00008b;stroke:#00008b;stroke-width:1.215;" x="205.247167" xlink:href="#C2_0_fca42cde93" y="232.403789"/>
    </g>
    <g clip-path="url(#p7397e98fb1)">
     <use style="fill:#00008b;stroke:#00008b;stroke-width:1.215;" x="227.844908" xlink:href="#C2_0_fca42cde93" y="254.010579"/>
    </g>
    <g clip-path="url(#p7397e98fb1)">
     <use style="fill:#00008b;stroke:#00008b;stroke-width:1.215;" x="250.442648" xlink:href="#C2_0_fca42cde93" y="276.313814"/>
    </g>
   </g>
   <g id="LineCollection_5">
    <path clip-path="url(#p7397e98fb1)" d="M 205.247167 292.545496 
L 205.247167 194.983138 
" style="fill:none;stroke:#008000;stroke-dasharray:2,3.3;stroke-dashoffset:0;stroke-width:2;"/>
   </g>
   <g id="LineCollection_6">
    <path clip-path="url(#p7397e98fb1)" d="M 250.442648 292.545496 
L 250.442648 194.983138 
" style="fill:none;stroke:#ff4500;stroke-dasharray:2,3.3;stroke-dashoffset:0;stroke-width:2;"/>
   </g>
   <g id="line2d_37">
    <path clip-path="url(#p7397e98fb1)" d="M 47.062983 277.633671 
L 69.660724 264.042741 
L 92.258464 243.462159 
L 114.856205 248.02199 
L 137.453945 262.134123 
L 160.051686 220.99837 
L 182.649427 248.797119 
L 205.247167 232.403789 
L 227.844908 254.010579 
L 250.442648 276.313814 
" style="fill:none;stroke:#00008b;stroke-linecap:round;stroke-width:1.62;"/>
   </g>
   <g id="line2d_38">
    <path clip-path="url(#p7397e98fb1)" d="M 47.062983 288.110843 
L 47.062983 265.484099 
" style="fill:none;stroke:#00008b;stroke-linecap:round;"/>
   </g>
   <g id="line2d_39">
    <path clip-path="url(#p7397e98fb1)" d="M 69.660724 272.514064 
L 69.660724 254.392645 
" style="fill:none;stroke:#00008b;stroke-linecap:round;"/>
   </g>
   <g id="line2d_40">
    <path clip-path="url(#p7397e98fb1)" d="M 92.258464 256.777131 
L 92.258464 229.195575 
" style="fill:none;stroke:#00008b;stroke-linecap:round;"/>
   </g>
   <g id="line2d_41">
    <path clip-path="url(#p7397e98fb1)" d="M 114.856205 259.449641 
L 114.856205 235.536526 
" style="fill:none;stroke:#00008b;stroke-linecap:round;"/>
   </g>
   <g id="line2d_42">
    <path clip-path="url(#p7397e98fb1)" d="M 137.453945 270.008583 
L 137.453945 253.466274 
" style="fill:none;stroke:#00008b;stroke-linecap:round;"/>
   </g>
   <g id="line2d_43">
    <path clip-path="url(#p7397e98fb1)" d="M 160.051686 239.005336 
L 160.051686 199.41779 
" style="fill:none;stroke:#00008b;stroke-linecap:round;"/>
   </g>
   <g id="line2d_44">
    <path clip-path="url(#p7397e98fb1)" d="M 182.649427 262.029158 
L 182.649427 232.594464 
" style="fill:none;stroke:#00008b;stroke-linecap:round;"/>
   </g>
   <g id="line2d_45">
    <path clip-path="url(#p7397e98fb1)" d="M 205.247167 250.92461 
L 205.247167 211.716886 
" style="fill:none;stroke:#00008b;stroke-linecap:round;"/>
   </g>
   <g id="line2d_46">
    <path clip-path="url(#p7397e98fb1)" d="M 227.844908 271.575506 
L 227.844908 231.74994 
" style="fill:none;stroke:#00008b;stroke-linecap:round;"/>
   </g>
   <g id="line2d_47">
    <path clip-path="url(#p7397e98fb1)" d="M 250.442648 285.750104 
L 250.442648 265.491286 
" style="fill:none;stroke:#00008b;stroke-linecap:round;"/>
   </g>
   <g id="patch_13">
    <path d="M 36.894 297.423613 
L 36.894 190.10502 
" style="fill:none;stroke:#cccccc;stroke-linecap:square;stroke-linejoin:miter;stroke-width:1.25;"/>
   </g>
   <g id="patch_14">
    <path d="M 260.611631 297.423613 
L 260.611631 190.10502 
" style="fill:none;stroke:#cccccc;stroke-linecap:square;stroke-linejoin:miter;stroke-width:1.25;"/>
   </g>
   <g id="patch_15">
    <path d="M 36.894 297.423613 
L 260.611631 297.423613 
" style="fill:none;stroke:#cccccc;stroke-linecap:square;stroke-linejoin:miter;stroke-width:1.25;"/>
   </g>
   <g id="patch_16">
    <path d="M 36.894 190.10502 
L 260.611631 190.10502 
" style="fill:none;stroke:#cccccc;stroke-linecap:square;stroke-linejoin:miter;stroke-width:1.25;"/>
   </g>
   <g id="text_30">
    <!-- HITS Hub -->
    <g style="fill:#262626;" transform="translate(108.296316 184.10502)scale(0.168 -0.168)">
     <defs>
      <path d="M 6.6875 72.90625 
L 16.609375 72.90625 
L 16.609375 43.015625 
L 43.609375 43.015625 
L 43.609375 72.90625 
L 53.515625 72.90625 
L 53.515625 0 
L 43.609375 0 
L 43.609375 34.71875 
L 16.609375 34.71875 
L 16.609375 0 
L 6.6875 0 
z
" id="DejaVuSansMono-72"/>
      <path d="M 9.8125 72.90625 
L 50.296875 72.90625 
L 50.296875 64.59375 
L 35.015625 64.59375 
L 35.015625 8.296875 
L 50.296875 8.296875 
L 50.296875 0 
L 9.8125 0 
L 9.8125 8.296875 
L 25.09375 8.296875 
L 25.09375 64.59375 
L 9.8125 64.59375 
z
" id="DejaVuSansMono-73"/>
      <path d="M 2.296875 72.90625 
L 57.90625 72.90625 
L 57.90625 64.59375 
L 35.109375 64.59375 
L 35.109375 0 
L 25.203125 0 
L 25.203125 64.59375 
L 2.296875 64.59375 
z
" id="DejaVuSansMono-84"/>
      <path d="M 49.421875 70.40625 
L 49.421875 60.40625 
Q 44.921875 63.28125 40.40625 64.75 
Q 35.890625 66.21875 31.296875 66.21875 
Q 24.3125 66.21875 20.265625 62.96875 
Q 16.21875 59.71875 16.21875 54.203125 
Q 16.21875 49.359375 18.875 46.8125 
Q 21.53125 44.28125 28.8125 42.578125 
L 33.984375 41.40625 
Q 44.234375 39.015625 48.921875 33.890625 
Q 53.609375 28.765625 53.609375 19.921875 
Q 53.609375 9.515625 47.15625 4.046875 
Q 40.71875 -1.421875 28.421875 -1.421875 
Q 23.296875 -1.421875 18.109375 -0.3125 
Q 12.9375 0.78125 7.71875 2.984375 
L 7.71875 13.484375 
Q 13.328125 9.90625 18.328125 8.25 
Q 23.34375 6.59375 28.421875 6.59375 
Q 35.890625 6.59375 40.03125 9.9375 
Q 44.1875 13.28125 44.1875 19.28125 
Q 44.1875 24.75 41.328125 27.625 
Q 38.484375 30.515625 31.390625 32.078125 
L 26.125 33.296875 
Q 15.96875 35.59375 11.375 40.234375 
Q 6.78125 44.875 6.78125 52.6875 
Q 6.78125 62.453125 13.34375 68.328125 
Q 19.921875 74.21875 30.8125 74.21875 
Q 35.015625 74.21875 39.640625 73.265625 
Q 44.28125 72.3125 49.421875 70.40625 
z
" id="DejaVuSansMono-83"/>
      <path d="M 9.515625 20.703125 
L 9.515625 54.59375 
L 18.5 54.59375 
L 18.5 20.703125 
Q 18.5 13.328125 21.109375 9.859375 
Q 23.734375 6.390625 29.203125 6.390625 
Q 35.546875 6.390625 38.90625 10.859375 
Q 42.28125 15.328125 42.28125 23.6875 
L 42.28125 54.59375 
L 51.3125 54.59375 
L 51.3125 0 
L 42.28125 0 
L 42.28125 8.203125 
Q 39.890625 3.46875 35.765625 1.015625 
Q 31.640625 -1.421875 26.125 -1.421875 
Q 17.71875 -1.421875 13.609375 4.078125 
Q 9.515625 9.578125 9.515625 20.703125 
z
" id="DejaVuSansMono-117"/>
      <path d="M 44.828125 27.296875 
Q 44.828125 37.75 41.5 43.0625 
Q 38.1875 48.390625 31.6875 48.390625 
Q 25.140625 48.390625 21.765625 43.046875 
Q 18.40625 37.703125 18.40625 27.296875 
Q 18.40625 16.9375 21.765625 11.5625 
Q 25.140625 6.203125 31.6875 6.203125 
Q 38.1875 6.203125 41.5 11.515625 
Q 44.828125 16.84375 44.828125 27.296875 
z
M 18.40625 47.703125 
Q 20.5625 51.703125 24.34375 53.84375 
Q 28.125 56 33.109375 56 
Q 42.96875 56 48.625 48.40625 
Q 54.296875 40.828125 54.296875 27.484375 
Q 54.296875 13.96875 48.609375 6.265625 
Q 42.921875 -1.421875 33.015625 -1.421875 
Q 28.125 -1.421875 24.390625 0.703125 
Q 20.65625 2.828125 18.40625 6.890625 
L 18.40625 0 
L 9.421875 0 
L 9.421875 75.984375 
L 18.40625 75.984375 
z
" id="DejaVuSansMono-98"/>
     </defs>
     <use xlink:href="#DejaVuSansMono-72"/>
     <use x="60.205078" xlink:href="#DejaVuSansMono-73"/>
     <use x="120.410156" xlink:href="#DejaVuSansMono-84"/>
     <use x="180.615234" xlink:href="#DejaVuSansMono-83"/>
     <use x="240.820312" xlink:href="#DejaVuSansMono-32"/>
     <use x="301.025391" xlink:href="#DejaVuSansMono-72"/>
     <use x="361.230469" xlink:href="#DejaVuSansMono-117"/>
     <use x="421.435547" xlink:href="#DejaVuSansMono-98"/>
    </g>
   </g>
  </g>
  <g id="axes_4">
   <g id="patch_17">
    <path d="M 325.072 297.423613 
L 548.789631 297.423613 
L 548.789631 190.10502 
L 325.072 190.10502 
z
" style="fill:#ffffff;"/>
   </g>
   <g id="matplotlib.axis_7">
    <g id="xtick_31">
     <g id="text_31">
      <!-- $1^{st}$ -->
      <g style="fill:#262626;" transform="translate(330.212687 329.016813)rotate(-40)scale(0.154 -0.154)">
       <use transform="translate(0 0.565625)" xlink:href="#DejaVuSans-49"/>
       <use transform="translate(64.580078 38.846875)scale(0.7)" xlink:href="#DejaVuSans-Oblique-115"/>
       <use transform="translate(101.049805 38.846875)scale(0.7)" xlink:href="#DejaVuSans-Oblique-116"/>
      </g>
     </g>
    </g>
    <g id="xtick_32">
     <g id="text_32">
      <!-- $2^{nd}$ -->
      <g style="fill:#262626;" transform="translate(351.335792 331.491545)rotate(-40)scale(0.154 -0.154)">
       <use transform="translate(0 0.529687)" xlink:href="#DejaVuSans-50"/>
       <use transform="translate(64.580078 38.810937)scale(0.7)" xlink:href="#DejaVuSans-Oblique-110"/>
       <use transform="translate(108.945312 38.810937)scale(0.7)" xlink:href="#DejaVuSans-Oblique-100"/>
      </g>
     </g>
    </g>
    <g id="xtick_33">
     <g id="text_33">
      <!-- $3^{th}$ -->
      <g style="fill:#262626;" transform="translate(374.936285 329.808727)rotate(-40)scale(0.154 -0.154)">
       <use transform="translate(0 0.529687)" xlink:href="#DejaVuSans-51"/>
       <use transform="translate(64.580078 38.810937)scale(0.7)" xlink:href="#DejaVuSans-Oblique-116"/>
       <use transform="translate(92.026367 38.810937)scale(0.7)" xlink:href="#DejaVuSans-Oblique-104"/>
      </g>
     </g>
    </g>
    <g id="xtick_34">
     <g id="text_34">
      <!-- $4^{th}$ -->
      <g style="fill:#262626;" transform="translate(397.534026 329.808727)rotate(-40)scale(0.154 -0.154)">
       <use transform="translate(0 0.529687)" xlink:href="#DejaVuSans-52"/>
       <use transform="translate(64.580078 38.810937)scale(0.7)" xlink:href="#DejaVuSans-Oblique-116"/>
       <use transform="translate(92.026367 38.810937)scale(0.7)" xlink:href="#DejaVuSans-Oblique-104"/>
      </g>
     </g>
    </g>
    <g id="xtick_35">
     <g id="text_35">
      <!-- $5^{th}$ -->
      <g style="fill:#262626;" transform="translate(420.131766 329.808727)rotate(-40)scale(0.154 -0.154)">
       <use transform="translate(0 0.529687)" xlink:href="#DejaVuSans-53"/>
       <use transform="translate(64.580078 38.810937)scale(0.7)" xlink:href="#DejaVuSans-Oblique-116"/>
       <use transform="translate(92.026367 38.810937)scale(0.7)" xlink:href="#DejaVuSans-Oblique-104"/>
      </g>
     </g>
    </g>
    <g id="xtick_36">
     <g id="text_36">
      <!-- $6^{th}$ -->
      <g style="fill:#262626;" transform="translate(442.729507 329.808727)rotate(-40)scale(0.154 -0.154)">
       <use transform="translate(0 0.529687)" xlink:href="#DejaVuSans-54"/>
       <use transform="translate(64.580078 38.810937)scale(0.7)" xlink:href="#DejaVuSans-Oblique-116"/>
       <use transform="translate(92.026367 38.810937)scale(0.7)" xlink:href="#DejaVuSans-Oblique-104"/>
      </g>
     </g>
    </g>
    <g id="xtick_37">
     <g id="text_37">
      <!-- $7^{th}$ -->
      <g style="fill:#262626;" transform="translate(465.327247 329.808727)rotate(-40)scale(0.154 -0.154)">
       <use transform="translate(0 0.529687)" xlink:href="#DejaVuSans-55"/>
       <use transform="translate(64.580078 38.810937)scale(0.7)" xlink:href="#DejaVuSans-Oblique-116"/>
       <use transform="translate(92.026367 38.810937)scale(0.7)" xlink:href="#DejaVuSans-Oblique-104"/>
      </g>
     </g>
    </g>
    <g id="xtick_38">
     <g id="text_38">
      <!-- $8^{th}$ -->
      <g style="fill:#262626;" transform="translate(487.924988 329.808727)rotate(-40)scale(0.154 -0.154)">
       <use transform="translate(0 0.529687)" xlink:href="#DejaVuSans-56"/>
       <use transform="translate(64.580078 38.810937)scale(0.7)" xlink:href="#DejaVuSans-Oblique-116"/>
       <use transform="translate(92.026367 38.810937)scale(0.7)" xlink:href="#DejaVuSans-Oblique-104"/>
      </g>
     </g>
    </g>
    <g id="xtick_39">
     <g id="text_39">
      <!-- $9^{th}$ -->
      <g style="fill:#262626;" transform="translate(510.522728 329.808727)rotate(-40)scale(0.154 -0.154)">
       <use transform="translate(0 0.529687)" xlink:href="#DejaVuSans-57"/>
       <use transform="translate(64.580078 38.810937)scale(0.7)" xlink:href="#DejaVuSans-Oblique-116"/>
       <use transform="translate(92.026367 38.810937)scale(0.7)" xlink:href="#DejaVuSans-Oblique-104"/>
      </g>
     </g>
    </g>
    <g id="xtick_40">
     <g id="text_40">
      <!-- $10^{th}$ -->
      <g style="fill:#262626;" transform="translate(529.404387 336.045053)rotate(-40)scale(0.154 -0.154)">
       <use transform="translate(0 0.529687)" xlink:href="#DejaVuSans-49"/>
       <use transform="translate(63.623047 0.529687)" xlink:href="#DejaVuSans-48"/>
       <use transform="translate(128.203125 38.810937)scale(0.7)" xlink:href="#DejaVuSans-Oblique-116"/>
       <use transform="translate(155.649414 38.810937)scale(0.7)" xlink:href="#DejaVuSans-Oblique-104"/>
      </g>
     </g>
    </g>
   </g>
   <g id="matplotlib.axis_8">
    <g id="ytick_15">
     <g id="line2d_48">
      <path clip-path="url(#p920d71de5f)" d="M 325.072 289.309639 
L 548.789631 289.309639 
" style="fill:none;stroke:#cccccc;stroke-linecap:round;"/>
     </g>
     <g id="text_41">
      <!-- 0.0 -->
      <g style="fill:#262626;" transform="translate(287.758156 295.201343)scale(0.154 -0.154)">
       <use xlink:href="#DejaVuSansMono-48"/>
       <use x="60.205078" xlink:href="#DejaVuSansMono-46"/>
       <use x="120.410156" xlink:href="#DejaVuSansMono-48"/>
      </g>
     </g>
    </g>
    <g id="ytick_16">
     <g id="line2d_49">
      <path clip-path="url(#p920d71de5f)" d="M 325.072 262.207918 
L 548.789631 262.207918 
" style="fill:none;stroke:#cccccc;stroke-linecap:round;"/>
     </g>
     <g id="text_42">
      <!-- 0.8 -->
      <g style="fill:#262626;" transform="translate(287.758156 268.099621)scale(0.154 -0.154)">
       <defs>
        <path d="M 30.078125 34.625 
Q 23.484375 34.625 19.890625 30.9375 
Q 16.3125 27.25 16.3125 20.515625 
Q 16.3125 13.765625 19.9375 10.03125 
Q 23.578125 6.296875 30.078125 6.296875 
Q 36.71875 6.296875 40.296875 9.984375 
Q 43.890625 13.671875 43.890625 20.515625 
Q 43.890625 27.203125 40.25 30.90625 
Q 36.625 34.625 30.078125 34.625 
z
M 21.484375 38.71875 
Q 15.1875 40.328125 11.640625 44.71875 
Q 8.109375 49.125 8.109375 55.328125 
Q 8.109375 64.015625 14.015625 69.109375 
Q 19.921875 74.21875 30.078125 74.21875 
Q 40.28125 74.21875 46.1875 69.109375 
Q 52.09375 64.015625 52.09375 55.328125 
Q 52.09375 49.125 48.546875 44.71875 
Q 45.015625 40.328125 38.71875 38.71875 
Q 46.046875 37.109375 49.921875 32.21875 
Q 53.8125 27.34375 53.8125 19.578125 
Q 53.8125 9.71875 47.515625 4.140625 
Q 41.21875 -1.421875 30.078125 -1.421875 
Q 18.953125 -1.421875 12.671875 4.125 
Q 6.390625 9.671875 6.390625 19.484375 
Q 6.390625 27.296875 10.265625 32.203125 
Q 14.15625 37.109375 21.484375 38.71875 
z
M 17.921875 54.390625 
Q 17.921875 48.53125 21.046875 45.453125 
Q 24.171875 42.390625 30.078125 42.390625 
Q 36.03125 42.390625 39.15625 45.453125 
Q 42.28125 48.53125 42.28125 54.390625 
Q 42.28125 60.359375 39.171875 63.484375 
Q 36.078125 66.609375 30.078125 66.609375 
Q 24.171875 66.609375 21.046875 63.453125 
Q 17.921875 60.296875 17.921875 54.390625 
z
" id="DejaVuSansMono-56"/>
       </defs>
       <use xlink:href="#DejaVuSansMono-48"/>
       <use x="60.205078" xlink:href="#DejaVuSansMono-46"/>
       <use x="120.410156" xlink:href="#DejaVuSansMono-56"/>
      </g>
     </g>
    </g>
    <g id="ytick_17">
     <g id="line2d_50">
      <path clip-path="url(#p920d71de5f)" d="M 325.072 235.106197 
L 548.789631 235.106197 
" style="fill:none;stroke:#cccccc;stroke-linecap:round;"/>
     </g>
     <g id="text_43">
      <!-- 1.6 -->
      <g style="fill:#262626;" transform="translate(287.758156 240.9979)scale(0.154 -0.154)">
       <use xlink:href="#DejaVuSansMono-49"/>
       <use x="60.205078" xlink:href="#DejaVuSansMono-46"/>
       <use x="120.410156" xlink:href="#DejaVuSansMono-54"/>
      </g>
     </g>
    </g>
    <g id="ytick_18">
     <g id="line2d_51">
      <path clip-path="url(#p920d71de5f)" d="M 325.072 208.004476 
L 548.789631 208.004476 
" style="fill:none;stroke:#cccccc;stroke-linecap:round;"/>
     </g>
     <g id="text_44">
      <!-- 2.4 -->
      <g style="fill:#262626;" transform="translate(287.758156 213.896179)scale(0.154 -0.154)">
       <use xlink:href="#DejaVuSansMono-50"/>
       <use x="60.205078" xlink:href="#DejaVuSansMono-46"/>
       <use x="120.410156" xlink:href="#DejaVuSansMono-52"/>
      </g>
     </g>
    </g>
    <g id="text_45">
     <!-- 1e−5 -->
     <g style="fill:#262626;" transform="translate(325.072 187.10502)scale(0.154 -0.154)">
      <use xlink:href="#DejaVuSansMono-49"/>
      <use x="60.205078" xlink:href="#DejaVuSansMono-101"/>
      <use x="120.410156" xlink:href="#DejaVuSansMono-8722"/>
      <use x="180.615234" xlink:href="#DejaVuSansMono-53"/>
     </g>
    </g>
   </g>
   <g id="PathCollection_4">
    <defs>
     <path d="M 0 2.030369 
C 0.53846 2.030369 1.054939 1.816436 1.435688 1.435688 
C 1.816436 1.054939 2.030369 0.53846 2.030369 -0 
C 2.030369 -0.53846 1.816436 -1.054939 1.435688 -1.435688 
C 1.054939 -1.816436 0.53846 -2.030369 0 -2.030369 
C -0.53846 -2.030369 -1.054939 -1.816436 -1.435688 -1.435688 
C -1.816436 -1.054939 -2.030369 -0.53846 -2.030369 0 
C -2.030369 0.53846 -1.816436 1.054939 -1.435688 1.435688 
C -1.054939 1.816436 -0.53846 2.030369 0 2.030369 
z
" id="C3_0_e26192b9a0"/>
    </defs>
    <g clip-path="url(#p920d71de5f)">
     <use style="fill:#00008b;stroke:#00008b;stroke-width:1.215;" x="335.240983" xlink:href="#C3_0_e26192b9a0" y="247.96111"/>
    </g>
    <g clip-path="url(#p920d71de5f)">
     <use style="fill:#00008b;stroke:#00008b;stroke-width:1.215;" x="357.838724" xlink:href="#C3_0_e26192b9a0" y="254.785538"/>
    </g>
    <g clip-path="url(#p920d71de5f)">
     <use style="fill:#00008b;stroke:#00008b;stroke-width:1.215;" x="380.436464" xlink:href="#C3_0_e26192b9a0" y="281.948219"/>
    </g>
    <g clip-path="url(#p920d71de5f)">
     <use style="fill:#00008b;stroke:#00008b;stroke-width:1.215;" x="403.034205" xlink:href="#C3_0_e26192b9a0" y="281.359262"/>
    </g>
    <g clip-path="url(#p920d71de5f)">
     <use style="fill:#00008b;stroke:#00008b;stroke-width:1.215;" x="425.631945" xlink:href="#C3_0_e26192b9a0" y="279.564201"/>
    </g>
    <g clip-path="url(#p920d71de5f)">
     <use style="fill:#00008b;stroke:#00008b;stroke-width:1.215;" x="448.229686" xlink:href="#C3_0_e26192b9a0" y="276.505957"/>
    </g>
    <g clip-path="url(#p920d71de5f)">
     <use style="fill:#00008b;stroke:#00008b;stroke-width:1.215;" x="470.827427" xlink:href="#C3_0_e26192b9a0" y="282.506481"/>
    </g>
    <g clip-path="url(#p920d71de5f)">
     <use style="fill:#00008b;stroke:#00008b;stroke-width:1.215;" x="493.425167" xlink:href="#C3_0_e26192b9a0" y="276.270601"/>
    </g>
    <g clip-path="url(#p920d71de5f)">
     <use style="fill:#00008b;stroke:#00008b;stroke-width:1.215;" x="516.022908" xlink:href="#C3_0_e26192b9a0" y="283.512561"/>
    </g>
    <g clip-path="url(#p920d71de5f)">
     <use style="fill:#00008b;stroke:#00008b;stroke-width:1.215;" x="538.620648" xlink:href="#C3_0_e26192b9a0" y="287.279837"/>
    </g>
   </g>
   <g id="LineCollection_7">
    <path clip-path="url(#p920d71de5f)" d="M 493.425167 292.545496 
L 493.425167 194.983138 
" style="fill:none;stroke:#008000;stroke-dasharray:2,3.3;stroke-dashoffset:0;stroke-width:2;"/>
   </g>
   <g id="LineCollection_8">
    <path clip-path="url(#p920d71de5f)" d="M 538.620648 292.545496 
L 538.620648 194.983138 
" style="fill:none;stroke:#ff4500;stroke-dasharray:2,3.3;stroke-dashoffset:0;stroke-width:2;"/>
   </g>
   <g id="line2d_52">
    <path clip-path="url(#p920d71de5f)" d="M 335.240983 247.96111 
L 357.838724 254.785538 
L 380.436464 281.948219 
L 403.034205 281.359262 
L 425.631945 279.564201 
L 448.229686 276.505957 
L 470.827427 282.506481 
L 493.425167 276.270601 
L 516.022908 283.512561 
L 538.620648 287.279837 
" style="fill:none;stroke:#00008b;stroke-linecap:round;stroke-width:1.62;"/>
   </g>
   <g id="line2d_53">
    <path clip-path="url(#p920d71de5f)" d="M 335.240983 275.024604 
L 335.240983 200.382108 
" style="fill:none;stroke:#00008b;stroke-linecap:round;"/>
   </g>
   <g id="line2d_54">
    <path clip-path="url(#p920d71de5f)" d="M 357.838724 282.860181 
L 357.838724 199.41779 
" style="fill:none;stroke:#00008b;stroke-linecap:round;"/>
   </g>
   <g id="line2d_55">
    <path clip-path="url(#p920d71de5f)" d="M 380.436464 284.179477 
L 380.436464 279.303539 
" style="fill:none;stroke:#00008b;stroke-linecap:round;"/>
   </g>
   <g id="line2d_56">
    <path clip-path="url(#p920d71de5f)" d="M 403.034205 283.742244 
L 403.034205 278.505857 
" style="fill:none;stroke:#00008b;stroke-linecap:round;"/>
   </g>
   <g id="line2d_57">
    <path clip-path="url(#p920d71de5f)" d="M 425.631945 282.296793 
L 425.631945 276.465329 
" style="fill:none;stroke:#00008b;stroke-linecap:round;"/>
   </g>
   <g id="line2d_58">
    <path clip-path="url(#p920d71de5f)" d="M 448.229686 280.268389 
L 448.229686 272.320362 
" style="fill:none;stroke:#00008b;stroke-linecap:round;"/>
   </g>
   <g id="line2d_59">
    <path clip-path="url(#p920d71de5f)" d="M 470.827427 284.744987 
L 470.827427 280.235959 
" style="fill:none;stroke:#00008b;stroke-linecap:round;"/>
   </g>
   <g id="line2d_60">
    <path clip-path="url(#p920d71de5f)" d="M 493.425167 281.084246 
L 493.425167 270.877938 
" style="fill:none;stroke:#00008b;stroke-linecap:round;"/>
   </g>
   <g id="line2d_61">
    <path clip-path="url(#p920d71de5f)" d="M 516.022908 285.869652 
L 516.022908 280.713933 
" style="fill:none;stroke:#00008b;stroke-linecap:round;"/>
   </g>
   <g id="line2d_62">
    <path clip-path="url(#p920d71de5f)" d="M 538.620648 288.110843 
L 538.620648 286.220073 
" style="fill:none;stroke:#00008b;stroke-linecap:round;"/>
   </g>
   <g id="patch_18">
    <path d="M 325.072 297.423613 
L 325.072 190.10502 
" style="fill:none;stroke:#cccccc;stroke-linecap:square;stroke-linejoin:miter;stroke-width:1.25;"/>
   </g>
   <g id="patch_19">
    <path d="M 548.789631 297.423613 
L 548.789631 190.10502 
" style="fill:none;stroke:#cccccc;stroke-linecap:square;stroke-linejoin:miter;stroke-width:1.25;"/>
   </g>
   <g id="patch_20">
    <path d="M 325.072 297.423613 
L 548.789631 297.423613 
" style="fill:none;stroke:#cccccc;stroke-linecap:square;stroke-linejoin:miter;stroke-width:1.25;"/>
   </g>
   <g id="patch_21">
    <path d="M 325.072 190.10502 
L 548.789631 190.10502 
" style="fill:none;stroke:#cccccc;stroke-linecap:square;stroke-linejoin:miter;stroke-width:1.25;"/>
   </g>
   <g id="text_46">
    <!-- HITS Authority -->
    <g style="fill:#262626;" transform="translate(366.131941 184.10502)scale(0.168 -0.168)">
     <defs>
      <path d="M 30.078125 64.203125 
L 19.671875 26.90625 
L 40.484375 26.90625 
z
M 24.125 72.90625 
L 36.078125 72.90625 
L 58.40625 0 
L 48.1875 0 
L 42.828125 19 
L 17.28125 19 
L 12.015625 0 
L 1.8125 0 
z
" id="DejaVuSansMono-65"/>
      <path d="M 51.3125 33.890625 
L 51.3125 0 
L 42.28125 0 
L 42.28125 33.890625 
Q 42.28125 41.265625 39.6875 44.71875 
Q 37.109375 48.1875 31.59375 48.1875 
Q 25.296875 48.1875 21.890625 43.71875 
Q 18.5 39.265625 18.5 30.90625 
L 18.5 0 
L 9.515625 0 
L 9.515625 75.984375 
L 18.5 75.984375 
L 18.5 46.484375 
Q 20.90625 51.171875 25 53.578125 
Q 29.109375 56 34.71875 56 
Q 43.0625 56 47.1875 50.5 
Q 51.3125 45.015625 51.3125 33.890625 
z
" id="DejaVuSansMono-104"/>
      <path d="M 41.890625 17.578125 
Q 39.65625 11.859375 36.1875 2.546875 
Q 31.34375 -10.359375 29.6875 -13.1875 
Q 27.4375 -17 24.0625 -18.890625 
Q 20.703125 -20.796875 16.21875 -20.796875 
L 8.984375 -20.796875 
L 8.984375 -13.28125 
L 14.3125 -13.28125 
Q 18.265625 -13.28125 20.5 -10.984375 
Q 22.75 -8.6875 26.21875 0.875 
L 5.078125 54.6875 
L 14.59375 54.6875 
L 30.8125 11.921875 
L 46.78125 54.6875 
L 56.296875 54.6875 
z
" id="DejaVuSansMono-121"/>
     </defs>
     <use xlink:href="#DejaVuSansMono-72"/>
     <use x="60.205078" xlink:href="#DejaVuSansMono-73"/>
     <use x="120.410156" xlink:href="#DejaVuSansMono-84"/>
     <use x="180.615234" xlink:href="#DejaVuSansMono-83"/>
     <use x="240.820312" xlink:href="#DejaVuSansMono-32"/>
     <use x="301.025391" xlink:href="#DejaVuSansMono-65"/>
     <use x="361.230469" xlink:href="#DejaVuSansMono-117"/>
     <use x="421.435547" xlink:href="#DejaVuSansMono-116"/>
     <use x="481.640625" xlink:href="#DejaVuSansMono-104"/>
     <use x="541.845703" xlink:href="#DejaVuSansMono-111"/>
     <use x="602.050781" xlink:href="#DejaVuSansMono-114"/>
     <use x="662.255859" xlink:href="#DejaVuSansMono-105"/>
     <use x="722.460938" xlink:href="#DejaVuSansMono-116"/>
     <use x="782.666016" xlink:href="#DejaVuSansMono-121"/>
    </g>
   </g>
  </g>
  <g id="text_47">
   <!-- User's Botscore Bins (deciles) -->
   <g style="fill:#262626;" transform="translate(136.288125 360)scale(0.168 -0.168)">
    <defs>
     <path d="M 7.171875 27.984375 
L 7.171875 72.90625 
L 17.09375 72.90625 
L 17.09375 23.484375 
Q 17.09375 18.171875 17.375 15.890625 
Q 17.671875 13.625 18.40625 12.40625 
Q 19.96875 9.515625 22.921875 8.046875 
Q 25.875 6.59375 30.078125 6.59375 
Q 34.328125 6.59375 37.25 8.046875 
Q 40.1875 9.515625 41.796875 12.40625 
Q 42.53125 13.625 42.8125 15.859375 
Q 43.109375 18.109375 43.109375 23.390625 
L 43.109375 72.90625 
L 52.984375 72.90625 
L 52.984375 27.984375 
Q 52.984375 16.796875 51.59375 12.078125 
Q 50.203125 7.375 46.78125 4.296875 
Q 43.5625 1.421875 39.40625 0 
Q 35.25 -1.421875 30.078125 -1.421875 
Q 24.953125 -1.421875 20.796875 0 
Q 16.65625 1.421875 13.375 4.296875 
Q 10.015625 7.328125 8.59375 12.125 
Q 7.171875 16.9375 7.171875 27.984375 
z
" id="DejaVuSansMono-85"/>
     <path d="M 47.515625 52.78125 
L 47.515625 44 
Q 43.65625 46.234375 39.75 47.359375 
Q 35.84375 48.484375 31.78125 48.484375 
Q 25.6875 48.484375 22.671875 46.5 
Q 19.671875 44.53125 19.671875 40.484375 
Q 19.671875 36.8125 21.921875 35 
Q 24.171875 33.203125 33.109375 31.5 
L 36.71875 30.8125 
Q 43.40625 29.546875 46.84375 25.734375 
Q 50.296875 21.921875 50.296875 15.828125 
Q 50.296875 7.71875 44.53125 3.140625 
Q 38.765625 -1.421875 28.515625 -1.421875 
Q 24.46875 -1.421875 20.015625 -0.5625 
Q 15.578125 0.296875 10.40625 2 
L 10.40625 11.28125 
Q 15.4375 8.6875 20.015625 7.390625 
Q 24.609375 6.109375 28.71875 6.109375 
Q 34.671875 6.109375 37.9375 8.515625 
Q 41.21875 10.9375 41.21875 15.28125 
Q 41.21875 21.53125 29.25 23.921875 
L 28.859375 24.03125 
L 25.484375 24.703125 
Q 17.71875 26.21875 14.15625 29.8125 
Q 10.59375 33.40625 10.59375 39.59375 
Q 10.59375 47.46875 15.90625 51.734375 
Q 21.234375 56 31.109375 56 
Q 35.5 56 39.546875 55.1875 
Q 43.609375 54.390625 47.515625 52.78125 
z
" id="DejaVuSansMono-115"/>
     <path d="M 34.28125 72.90625 
L 34.28125 45.796875 
L 25.78125 45.796875 
L 25.78125 72.90625 
z
" id="DejaVuSansMono-39"/>
     <path d="M 18.015625 34.8125 
L 18.015625 8.109375 
L 29.6875 8.109375 
Q 38.28125 8.109375 41.9375 11.109375 
Q 45.609375 14.109375 45.609375 21 
Q 45.609375 28.125 41.75 31.46875 
Q 37.890625 34.8125 29.6875 34.8125 
z
M 18.015625 64.796875 
L 18.015625 42.828125 
L 29.5 42.828125 
Q 36.625 42.828125 39.8125 45.5625 
Q 43.015625 48.296875 43.015625 54.390625 
Q 43.015625 59.90625 39.859375 62.34375 
Q 36.71875 64.796875 29.5 64.796875 
z
M 8.109375 72.90625 
L 29.6875 72.90625 
Q 40.875 72.90625 46.921875 68.0625 
Q 52.984375 63.234375 52.984375 54.390625 
Q 52.984375 47.703125 49.78125 43.84375 
Q 46.578125 39.984375 40.1875 39.015625 
Q 47.359375 37.9375 51.4375 32.875 
Q 55.515625 27.828125 55.515625 20.015625 
Q 55.515625 10.109375 49.015625 5.046875 
Q 42.53125 0 29.6875 0 
L 8.109375 0 
z
" id="DejaVuSansMono-66"/>
     <path d="M 43.21875 75.875 
Q 36.71875 64.75 33.515625 53.6875 
Q 30.328125 42.625 30.328125 31.390625 
Q 30.328125 20.21875 33.515625 9.125 
Q 36.71875 -1.953125 43.21875 -13.1875 
L 35.40625 -13.1875 
Q 28.03125 -1.5625 24.40625 9.4375 
Q 20.796875 20.453125 20.796875 31.390625 
Q 20.796875 42.28125 24.40625 53.3125 
Q 28.03125 64.359375 35.40625 75.875 
z
" id="DejaVuSansMono-40"/>
     <path d="M 41.890625 47.703125 
L 41.890625 75.984375 
L 50.875 75.984375 
L 50.875 0 
L 41.890625 0 
L 41.890625 6.890625 
Q 39.65625 2.828125 35.90625 0.703125 
Q 32.171875 -1.421875 27.296875 -1.421875 
Q 17.390625 -1.421875 11.6875 6.265625 
Q 6 13.96875 6 27.484375 
Q 6 40.828125 11.71875 48.40625 
Q 17.4375 56 27.296875 56 
Q 32.234375 56 35.984375 53.875 
Q 39.75 51.765625 41.890625 47.703125 
z
M 15.484375 27.296875 
Q 15.484375 16.84375 18.796875 11.515625 
Q 22.125 6.203125 28.609375 6.203125 
Q 35.109375 6.203125 38.5 11.5625 
Q 41.890625 16.9375 41.890625 27.296875 
Q 41.890625 37.703125 38.5 43.046875 
Q 35.109375 48.390625 28.609375 48.390625 
Q 22.125 48.390625 18.796875 43.0625 
Q 15.484375 37.75 15.484375 27.296875 
z
" id="DejaVuSansMono-100"/>
     <path d="M 31.203125 19.828125 
Q 31.203125 13.765625 33.421875 10.6875 
Q 35.640625 7.625 39.984375 7.625 
L 50.484375 7.625 
L 50.484375 0 
L 39.109375 0 
Q 31.0625 0 26.640625 5.171875 
Q 22.21875 10.359375 22.21875 19.828125 
L 22.21875 69.484375 
L 7.8125 69.484375 
L 7.8125 76.515625 
L 31.203125 76.515625 
z
" id="DejaVuSansMono-108"/>
     <path d="M 17 75.875 
L 24.8125 75.875 
Q 32.171875 64.359375 35.78125 53.3125 
Q 39.40625 42.28125 39.40625 31.390625 
Q 39.40625 20.40625 35.78125 9.375 
Q 32.171875 -1.65625 24.8125 -13.1875 
L 17 -13.1875 
Q 23.484375 -1.859375 26.6875 9.21875 
Q 29.890625 20.3125 29.890625 31.390625 
Q 29.890625 42.53125 26.6875 53.609375 
Q 23.484375 64.703125 17 75.875 
z
" id="DejaVuSansMono-41"/>
    </defs>
    <use xlink:href="#DejaVuSansMono-85"/>
    <use x="60.205078" xlink:href="#DejaVuSansMono-115"/>
    <use x="120.410156" xlink:href="#DejaVuSansMono-101"/>
    <use x="180.615234" xlink:href="#DejaVuSansMono-114"/>
    <use x="240.820312" xlink:href="#DejaVuSansMono-39"/>
    <use x="301.025391" xlink:href="#DejaVuSansMono-115"/>
    <use x="361.230469" xlink:href="#DejaVuSansMono-32"/>
    <use x="421.435547" xlink:href="#DejaVuSansMono-66"/>
    <use x="481.640625" xlink:href="#DejaVuSansMono-111"/>
    <use x="541.845703" xlink:href="#DejaVuSansMono-116"/>
    <use x="602.050781" xlink:href="#DejaVuSansMono-115"/>
    <use x="662.255859" xlink:href="#DejaVuSansMono-99"/>
    <use x="722.460938" xlink:href="#DejaVuSansMono-111"/>
    <use x="782.666016" xlink:href="#DejaVuSansMono-114"/>
    <use x="842.871094" xlink:href="#DejaVuSansMono-101"/>
    <use x="903.076172" xlink:href="#DejaVuSansMono-32"/>
    <use x="963.28125" xlink:href="#DejaVuSansMono-66"/>
    <use x="1023.486328" xlink:href="#DejaVuSansMono-105"/>
    <use x="1083.691406" xlink:href="#DejaVuSansMono-110"/>
    <use x="1143.896484" xlink:href="#DejaVuSansMono-115"/>
    <use x="1204.101562" xlink:href="#DejaVuSansMono-32"/>
    <use x="1264.306641" xlink:href="#DejaVuSansMono-40"/>
    <use x="1324.511719" xlink:href="#DejaVuSansMono-100"/>
    <use x="1384.716797" xlink:href="#DejaVuSansMono-101"/>
    <use x="1444.921875" xlink:href="#DejaVuSansMono-99"/>
    <use x="1505.126953" xlink:href="#DejaVuSansMono-105"/>
    <use x="1565.332031" xlink:href="#DejaVuSansMono-108"/>
    <use x="1625.537109" xlink:href="#DejaVuSansMono-101"/>
    <use x="1685.742188" xlink:href="#DejaVuSansMono-115"/>
    <use x="1745.947266" xlink:href="#DejaVuSansMono-41"/>
   </g>
  </g>
 </g>
 <defs>
  <clipPath id="p01b0bd5b54">
   <rect height="107.318594" width="223.717631" x="36.894" y="38.144"/>
  </clipPath>
  <clipPath id="p7031230181">
   <rect height="107.318594" width="223.717631" x="325.072" y="38.144"/>
  </clipPath>
  <clipPath id="p7397e98fb1">
   <rect height="107.318594" width="223.717631" x="36.894" y="190.10502"/>
  </clipPath>
  <clipPath id="p920d71de5f">
   <rect height="107.318594" width="223.717631" x="325.072" y="190.10502"/>
  </clipPath>
 </defs>
</svg>
