<?xml version="1.0" encoding="utf-8" standalone="no"?>
<!DOCTYPE svg PUBLIC "-//W3C//DTD SVG 1.1//EN"
  "http://www.w3.org/Graphics/SVG/1.1/DTD/svg11.dtd">
<!-- Created with matplotlib (https://matplotlib.org/) -->
<svg height="360pt" version="1.1" viewBox="0 0 576 360" width="576pt" xmlns="http://www.w3.org/2000/svg" xmlns:xlink="http://www.w3.org/1999/xlink">
 <metadata>
  <rdf:RDF xmlns:cc="http://creativecommons.org/ns#" xmlns:dc="http://purl.org/dc/elements/1.1/" xmlns:rdf="http://www.w3.org/1999/02/22-rdf-syntax-ns#">
   <cc:Work>
    <dc:type rdf:resource="http://purl.org/dc/dcmitype/StillImage"/>
    <dc:date>2021-02-23T17:36:25.510868</dc:date>
    <dc:format>image/svg+xml</dc:format>
    <dc:creator>
     <cc:Agent>
      <dc:title>Matplotlib v3.3.3, https://matplotlib.org/</dc:title>
     </cc:Agent>
    </dc:creator>
   </cc:Work>
  </rdf:RDF>
 </metadata>
 <defs>
  <style type="text/css">*{stroke-linecap:butt;stroke-linejoin:round;}</style>
 </defs>
 <g id="figure_1">
  <g id="patch_1">
   <path d="M 0 360 
L 576 360 
L 576 0 
L 0 0 
z
" style="fill:#ffffff;"/>
  </g>
  <g id="axes_1">
   <g id="patch_2">
    <path d="M 114.394 291.656 
L 557.221244 291.656 
L 557.221244 65.504 
L 114.394 65.504 
z
" style="fill:#ffffff;"/>
   </g>
   <g id="matplotlib.axis_1">
    <g id="xtick_1">
     <g id="text_1">
      <!-- $10^{th}$ -->
      <g style="fill:#262626;" transform="translate(118.891511 312.939406)scale(0.154 -0.154)">
       <defs>
        <path d="M 12.40625 8.296875 
L 28.515625 8.296875 
L 28.515625 63.921875 
L 10.984375 60.40625 
L 10.984375 69.390625 
L 28.421875 72.90625 
L 38.28125 72.90625 
L 38.28125 8.296875 
L 54.390625 8.296875 
L 54.390625 0 
L 12.40625 0 
z
" id="DejaVuSans-49"/>
        <path d="M 31.78125 66.40625 
Q 24.171875 66.40625 20.328125 58.90625 
Q 16.5 51.421875 16.5 36.375 
Q 16.5 21.390625 20.328125 13.890625 
Q 24.171875 6.390625 31.78125 6.390625 
Q 39.453125 6.390625 43.28125 13.890625 
Q 47.125 21.390625 47.125 36.375 
Q 47.125 51.421875 43.28125 58.90625 
Q 39.453125 66.40625 31.78125 66.40625 
z
M 31.78125 74.21875 
Q 44.046875 74.21875 50.515625 64.515625 
Q 56.984375 54.828125 56.984375 36.375 
Q 56.984375 17.96875 50.515625 8.265625 
Q 44.046875 -1.421875 31.78125 -1.421875 
Q 19.53125 -1.421875 13.0625 8.265625 
Q 6.59375 17.96875 6.59375 36.375 
Q 6.59375 54.828125 13.0625 64.515625 
Q 19.53125 74.21875 31.78125 74.21875 
z
" id="DejaVuSans-48"/>
        <path d="M 42.28125 54.6875 
L 40.921875 47.703125 
L 23 47.703125 
L 17.1875 18.015625 
Q 16.890625 16.359375 16.75 15.234375 
Q 16.609375 14.109375 16.609375 13.484375 
Q 16.609375 10.359375 18.484375 8.9375 
Q 20.359375 7.515625 24.515625 7.515625 
L 33.59375 7.515625 
L 32.078125 0 
L 23.484375 0 
Q 15.484375 0 11.546875 3.125 
Q 7.625 6.25 7.625 12.59375 
Q 7.625 13.71875 7.765625 15.0625 
Q 7.90625 16.40625 8.203125 18.015625 
L 14.015625 47.703125 
L 6.390625 47.703125 
L 7.8125 54.6875 
L 15.28125 54.6875 
L 18.3125 70.21875 
L 27.296875 70.21875 
L 24.3125 54.6875 
z
" id="DejaVuSans-Oblique-116"/>
        <path d="M 55.71875 33.015625 
L 49.3125 0 
L 40.28125 0 
L 46.6875 32.671875 
Q 47.125 34.96875 47.359375 36.71875 
Q 47.609375 38.484375 47.609375 39.5 
Q 47.609375 43.609375 45.015625 45.890625 
Q 42.4375 48.1875 37.796875 48.1875 
Q 30.5625 48.1875 25.265625 43.296875 
Q 19.96875 38.421875 18.40625 30.328125 
L 12.5 0 
L 3.515625 0 
L 18.3125 75.984375 
L 27.296875 75.984375 
L 21.484375 46.09375 
Q 24.90625 50.6875 30.21875 53.34375 
Q 35.546875 56 41.40625 56 
Q 48.640625 56 52.609375 52.09375 
Q 56.59375 48.1875 56.59375 41.109375 
Q 56.59375 39.359375 56.375 37.359375 
Q 56.15625 35.359375 55.71875 33.015625 
z
" id="DejaVuSans-Oblique-104"/>
       </defs>
       <use transform="translate(0 0.529687)" xlink:href="#DejaVuSans-49"/>
       <use transform="translate(63.623047 0.529687)" xlink:href="#DejaVuSans-48"/>
       <use transform="translate(128.203125 38.810937)scale(0.7)" xlink:href="#DejaVuSans-Oblique-116"/>
       <use transform="translate(155.649414 38.810937)scale(0.7)" xlink:href="#DejaVuSans-Oblique-104"/>
      </g>
     </g>
    </g>
    <g id="xtick_2">
     <g id="text_2">
      <!-- $20^{th}$ -->
      <g style="fill:#262626;" transform="translate(163.621536 312.939406)scale(0.154 -0.154)">
       <defs>
        <path d="M 19.1875 8.296875 
L 53.609375 8.296875 
L 53.609375 0 
L 7.328125 0 
L 7.328125 8.296875 
Q 12.9375 14.109375 22.625 23.890625 
Q 32.328125 33.6875 34.8125 36.53125 
Q 39.546875 41.84375 41.421875 45.53125 
Q 43.3125 49.21875 43.3125 52.78125 
Q 43.3125 58.59375 39.234375 62.25 
Q 35.15625 65.921875 28.609375 65.921875 
Q 23.96875 65.921875 18.8125 64.3125 
Q 13.671875 62.703125 7.8125 59.421875 
L 7.8125 69.390625 
Q 13.765625 71.78125 18.9375 73 
Q 24.125 74.21875 28.421875 74.21875 
Q 39.75 74.21875 46.484375 68.546875 
Q 53.21875 62.890625 53.21875 53.421875 
Q 53.21875 48.921875 51.53125 44.890625 
Q 49.859375 40.875 45.40625 35.40625 
Q 44.1875 33.984375 37.640625 27.21875 
Q 31.109375 20.453125 19.1875 8.296875 
z
" id="DejaVuSans-50"/>
       </defs>
       <use transform="translate(0 0.529687)" xlink:href="#DejaVuSans-50"/>
       <use transform="translate(63.623047 0.529687)" xlink:href="#DejaVuSans-48"/>
       <use transform="translate(128.203125 38.810937)scale(0.7)" xlink:href="#DejaVuSans-Oblique-116"/>
       <use transform="translate(155.649414 38.810937)scale(0.7)" xlink:href="#DejaVuSans-Oblique-104"/>
      </g>
     </g>
    </g>
    <g id="xtick_3">
     <g id="text_3">
      <!-- $30^{th}$ -->
      <g style="fill:#262626;" transform="translate(208.35156 312.939406)scale(0.154 -0.154)">
       <defs>
        <path d="M 40.578125 39.3125 
Q 47.65625 37.796875 51.625 33 
Q 55.609375 28.21875 55.609375 21.1875 
Q 55.609375 10.40625 48.1875 4.484375 
Q 40.765625 -1.421875 27.09375 -1.421875 
Q 22.515625 -1.421875 17.65625 -0.515625 
Q 12.796875 0.390625 7.625 2.203125 
L 7.625 11.71875 
Q 11.71875 9.328125 16.59375 8.109375 
Q 21.484375 6.890625 26.8125 6.890625 
Q 36.078125 6.890625 40.9375 10.546875 
Q 45.796875 14.203125 45.796875 21.1875 
Q 45.796875 27.640625 41.28125 31.265625 
Q 36.765625 34.90625 28.71875 34.90625 
L 20.21875 34.90625 
L 20.21875 43.015625 
L 29.109375 43.015625 
Q 36.375 43.015625 40.234375 45.921875 
Q 44.09375 48.828125 44.09375 54.296875 
Q 44.09375 59.90625 40.109375 62.90625 
Q 36.140625 65.921875 28.71875 65.921875 
Q 24.65625 65.921875 20.015625 65.03125 
Q 15.375 64.15625 9.8125 62.3125 
L 9.8125 71.09375 
Q 15.4375 72.65625 20.34375 73.4375 
Q 25.25 74.21875 29.59375 74.21875 
Q 40.828125 74.21875 47.359375 69.109375 
Q 53.90625 64.015625 53.90625 55.328125 
Q 53.90625 49.265625 50.4375 45.09375 
Q 46.96875 40.921875 40.578125 39.3125 
z
" id="DejaVuSans-51"/>
       </defs>
       <use transform="translate(0 0.529687)" xlink:href="#DejaVuSans-51"/>
       <use transform="translate(63.623047 0.529687)" xlink:href="#DejaVuSans-48"/>
       <use transform="translate(128.203125 38.810937)scale(0.7)" xlink:href="#DejaVuSans-Oblique-116"/>
       <use transform="translate(155.649414 38.810937)scale(0.7)" xlink:href="#DejaVuSans-Oblique-104"/>
      </g>
     </g>
    </g>
    <g id="xtick_4">
     <g id="text_4">
      <!-- $40^{th}$ -->
      <g style="fill:#262626;" transform="translate(253.081585 312.939406)scale(0.154 -0.154)">
       <defs>
        <path d="M 37.796875 64.3125 
L 12.890625 25.390625 
L 37.796875 25.390625 
z
M 35.203125 72.90625 
L 47.609375 72.90625 
L 47.609375 25.390625 
L 58.015625 25.390625 
L 58.015625 17.1875 
L 47.609375 17.1875 
L 47.609375 0 
L 37.796875 0 
L 37.796875 17.1875 
L 4.890625 17.1875 
L 4.890625 26.703125 
z
" id="DejaVuSans-52"/>
       </defs>
       <use transform="translate(0 0.529687)" xlink:href="#DejaVuSans-52"/>
       <use transform="translate(63.623047 0.529687)" xlink:href="#DejaVuSans-48"/>
       <use transform="translate(128.203125 38.810937)scale(0.7)" xlink:href="#DejaVuSans-Oblique-116"/>
       <use transform="translate(155.649414 38.810937)scale(0.7)" xlink:href="#DejaVuSans-Oblique-104"/>
      </g>
     </g>
    </g>
    <g id="xtick_5">
     <g id="text_5">
      <!-- $50^{th}$ -->
      <g style="fill:#262626;" transform="translate(297.81161 312.939406)scale(0.154 -0.154)">
       <defs>
        <path d="M 10.796875 72.90625 
L 49.515625 72.90625 
L 49.515625 64.59375 
L 19.828125 64.59375 
L 19.828125 46.734375 
Q 21.96875 47.46875 24.109375 47.828125 
Q 26.265625 48.1875 28.421875 48.1875 
Q 40.625 48.1875 47.75 41.5 
Q 54.890625 34.8125 54.890625 23.390625 
Q 54.890625 11.625 47.5625 5.09375 
Q 40.234375 -1.421875 26.90625 -1.421875 
Q 22.3125 -1.421875 17.546875 -0.640625 
Q 12.796875 0.140625 7.71875 1.703125 
L 7.71875 11.625 
Q 12.109375 9.234375 16.796875 8.0625 
Q 21.484375 6.890625 26.703125 6.890625 
Q 35.15625 6.890625 40.078125 11.328125 
Q 45.015625 15.765625 45.015625 23.390625 
Q 45.015625 31 40.078125 35.4375 
Q 35.15625 39.890625 26.703125 39.890625 
Q 22.75 39.890625 18.8125 39.015625 
Q 14.890625 38.140625 10.796875 36.28125 
z
" id="DejaVuSans-53"/>
       </defs>
       <use transform="translate(0 0.529687)" xlink:href="#DejaVuSans-53"/>
       <use transform="translate(63.623047 0.529687)" xlink:href="#DejaVuSans-48"/>
       <use transform="translate(128.203125 38.810937)scale(0.7)" xlink:href="#DejaVuSans-Oblique-116"/>
       <use transform="translate(155.649414 38.810937)scale(0.7)" xlink:href="#DejaVuSans-Oblique-104"/>
      </g>
     </g>
    </g>
    <g id="xtick_6">
     <g id="text_6">
      <!-- $60^{th}$ -->
      <g style="fill:#262626;" transform="translate(342.541634 312.939406)scale(0.154 -0.154)">
       <defs>
        <path d="M 33.015625 40.375 
Q 26.375 40.375 22.484375 35.828125 
Q 18.609375 31.296875 18.609375 23.390625 
Q 18.609375 15.53125 22.484375 10.953125 
Q 26.375 6.390625 33.015625 6.390625 
Q 39.65625 6.390625 43.53125 10.953125 
Q 47.40625 15.53125 47.40625 23.390625 
Q 47.40625 31.296875 43.53125 35.828125 
Q 39.65625 40.375 33.015625 40.375 
z
M 52.59375 71.296875 
L 52.59375 62.3125 
Q 48.875 64.0625 45.09375 64.984375 
Q 41.3125 65.921875 37.59375 65.921875 
Q 27.828125 65.921875 22.671875 59.328125 
Q 17.53125 52.734375 16.796875 39.40625 
Q 19.671875 43.65625 24.015625 45.921875 
Q 28.375 48.1875 33.59375 48.1875 
Q 44.578125 48.1875 50.953125 41.515625 
Q 57.328125 34.859375 57.328125 23.390625 
Q 57.328125 12.15625 50.6875 5.359375 
Q 44.046875 -1.421875 33.015625 -1.421875 
Q 20.359375 -1.421875 13.671875 8.265625 
Q 6.984375 17.96875 6.984375 36.375 
Q 6.984375 53.65625 15.1875 63.9375 
Q 23.390625 74.21875 37.203125 74.21875 
Q 40.921875 74.21875 44.703125 73.484375 
Q 48.484375 72.75 52.59375 71.296875 
z
" id="DejaVuSans-54"/>
       </defs>
       <use transform="translate(0 0.529687)" xlink:href="#DejaVuSans-54"/>
       <use transform="translate(63.623047 0.529687)" xlink:href="#DejaVuSans-48"/>
       <use transform="translate(128.203125 38.810937)scale(0.7)" xlink:href="#DejaVuSans-Oblique-116"/>
       <use transform="translate(155.649414 38.810937)scale(0.7)" xlink:href="#DejaVuSans-Oblique-104"/>
      </g>
     </g>
    </g>
    <g id="xtick_7">
     <g id="text_7">
      <!-- $70^{th}$ -->
      <g style="fill:#262626;" transform="translate(387.271659 312.939406)scale(0.154 -0.154)">
       <defs>
        <path d="M 8.203125 72.90625 
L 55.078125 72.90625 
L 55.078125 68.703125 
L 28.609375 0 
L 18.3125 0 
L 43.21875 64.59375 
L 8.203125 64.59375 
z
" id="DejaVuSans-55"/>
       </defs>
       <use transform="translate(0 0.529687)" xlink:href="#DejaVuSans-55"/>
       <use transform="translate(63.623047 0.529687)" xlink:href="#DejaVuSans-48"/>
       <use transform="translate(128.203125 38.810937)scale(0.7)" xlink:href="#DejaVuSans-Oblique-116"/>
       <use transform="translate(155.649414 38.810937)scale(0.7)" xlink:href="#DejaVuSans-Oblique-104"/>
      </g>
     </g>
    </g>
    <g id="xtick_8">
     <g id="text_8">
      <!-- $80^{th}$ -->
      <g style="fill:#262626;" transform="translate(432.001683 312.939406)scale(0.154 -0.154)">
       <defs>
        <path d="M 31.78125 34.625 
Q 24.75 34.625 20.71875 30.859375 
Q 16.703125 27.09375 16.703125 20.515625 
Q 16.703125 13.921875 20.71875 10.15625 
Q 24.75 6.390625 31.78125 6.390625 
Q 38.8125 6.390625 42.859375 10.171875 
Q 46.921875 13.96875 46.921875 20.515625 
Q 46.921875 27.09375 42.890625 30.859375 
Q 38.875 34.625 31.78125 34.625 
z
M 21.921875 38.8125 
Q 15.578125 40.375 12.03125 44.71875 
Q 8.5 49.078125 8.5 55.328125 
Q 8.5 64.0625 14.71875 69.140625 
Q 20.953125 74.21875 31.78125 74.21875 
Q 42.671875 74.21875 48.875 69.140625 
Q 55.078125 64.0625 55.078125 55.328125 
Q 55.078125 49.078125 51.53125 44.71875 
Q 48 40.375 41.703125 38.8125 
Q 48.828125 37.15625 52.796875 32.3125 
Q 56.78125 27.484375 56.78125 20.515625 
Q 56.78125 9.90625 50.3125 4.234375 
Q 43.84375 -1.421875 31.78125 -1.421875 
Q 19.734375 -1.421875 13.25 4.234375 
Q 6.78125 9.90625 6.78125 20.515625 
Q 6.78125 27.484375 10.78125 32.3125 
Q 14.796875 37.15625 21.921875 38.8125 
z
M 18.3125 54.390625 
Q 18.3125 48.734375 21.84375 45.5625 
Q 25.390625 42.390625 31.78125 42.390625 
Q 38.140625 42.390625 41.71875 45.5625 
Q 45.3125 48.734375 45.3125 54.390625 
Q 45.3125 60.0625 41.71875 63.234375 
Q 38.140625 66.40625 31.78125 66.40625 
Q 25.390625 66.40625 21.84375 63.234375 
Q 18.3125 60.0625 18.3125 54.390625 
z
" id="DejaVuSans-56"/>
       </defs>
       <use transform="translate(0 0.529687)" xlink:href="#DejaVuSans-56"/>
       <use transform="translate(63.623047 0.529687)" xlink:href="#DejaVuSans-48"/>
       <use transform="translate(128.203125 38.810937)scale(0.7)" xlink:href="#DejaVuSans-Oblique-116"/>
       <use transform="translate(155.649414 38.810937)scale(0.7)" xlink:href="#DejaVuSans-Oblique-104"/>
      </g>
     </g>
    </g>
    <g id="xtick_9">
     <g id="text_9">
      <!-- $90^{th}$ -->
      <g style="fill:#262626;" transform="translate(476.731708 312.939406)scale(0.154 -0.154)">
       <defs>
        <path d="M 10.984375 1.515625 
L 10.984375 10.5 
Q 14.703125 8.734375 18.5 7.8125 
Q 22.3125 6.890625 25.984375 6.890625 
Q 35.75 6.890625 40.890625 13.453125 
Q 46.046875 20.015625 46.78125 33.40625 
Q 43.953125 29.203125 39.59375 26.953125 
Q 35.25 24.703125 29.984375 24.703125 
Q 19.046875 24.703125 12.671875 31.3125 
Q 6.296875 37.9375 6.296875 49.421875 
Q 6.296875 60.640625 12.9375 67.421875 
Q 19.578125 74.21875 30.609375 74.21875 
Q 43.265625 74.21875 49.921875 64.515625 
Q 56.59375 54.828125 56.59375 36.375 
Q 56.59375 19.140625 48.40625 8.859375 
Q 40.234375 -1.421875 26.421875 -1.421875 
Q 22.703125 -1.421875 18.890625 -0.6875 
Q 15.09375 0.046875 10.984375 1.515625 
z
M 30.609375 32.421875 
Q 37.25 32.421875 41.125 36.953125 
Q 45.015625 41.5 45.015625 49.421875 
Q 45.015625 57.28125 41.125 61.84375 
Q 37.25 66.40625 30.609375 66.40625 
Q 23.96875 66.40625 20.09375 61.84375 
Q 16.21875 57.28125 16.21875 49.421875 
Q 16.21875 41.5 20.09375 36.953125 
Q 23.96875 32.421875 30.609375 32.421875 
z
" id="DejaVuSans-57"/>
       </defs>
       <use transform="translate(0 0.529687)" xlink:href="#DejaVuSans-57"/>
       <use transform="translate(63.623047 0.529687)" xlink:href="#DejaVuSans-48"/>
       <use transform="translate(128.203125 38.810937)scale(0.7)" xlink:href="#DejaVuSans-Oblique-116"/>
       <use transform="translate(155.649414 38.810937)scale(0.7)" xlink:href="#DejaVuSans-Oblique-104"/>
      </g>
     </g>
    </g>
    <g id="xtick_10">
     <g id="text_10">
      <!-- $100^{th}$ -->
      <g style="fill:#262626;" transform="translate(516.533733 312.939406)scale(0.154 -0.154)">
       <use transform="translate(0 0.529687)" xlink:href="#DejaVuSans-49"/>
       <use transform="translate(63.623047 0.529687)" xlink:href="#DejaVuSans-48"/>
       <use transform="translate(127.246094 0.529687)" xlink:href="#DejaVuSans-48"/>
       <use transform="translate(191.826172 38.810937)scale(0.7)" xlink:href="#DejaVuSans-Oblique-116"/>
       <use transform="translate(219.272461 38.810937)scale(0.7)" xlink:href="#DejaVuSans-Oblique-104"/>
      </g>
     </g>
    </g>
    <g id="text_11">
     <!-- User's Botscore (percentile ranges) -->
     <g style="fill:#262626;" transform="translate(158.810434 332.99675)scale(0.168 -0.168)">
      <defs>
       <path d="M 7.171875 27.984375 
L 7.171875 72.90625 
L 17.09375 72.90625 
L 17.09375 23.484375 
Q 17.09375 18.171875 17.375 15.890625 
Q 17.671875 13.625 18.40625 12.40625 
Q 19.96875 9.515625 22.921875 8.046875 
Q 25.875 6.59375 30.078125 6.59375 
Q 34.328125 6.59375 37.25 8.046875 
Q 40.1875 9.515625 41.796875 12.40625 
Q 42.53125 13.625 42.8125 15.859375 
Q 43.109375 18.109375 43.109375 23.390625 
L 43.109375 72.90625 
L 52.984375 72.90625 
L 52.984375 27.984375 
Q 52.984375 16.796875 51.59375 12.078125 
Q 50.203125 7.375 46.78125 4.296875 
Q 43.5625 1.421875 39.40625 0 
Q 35.25 -1.421875 30.078125 -1.421875 
Q 24.953125 -1.421875 20.796875 0 
Q 16.65625 1.421875 13.375 4.296875 
Q 10.015625 7.328125 8.59375 12.125 
Q 7.171875 16.9375 7.171875 27.984375 
z
" id="DejaVuSansMono-85"/>
       <path d="M 47.515625 52.78125 
L 47.515625 44 
Q 43.65625 46.234375 39.75 47.359375 
Q 35.84375 48.484375 31.78125 48.484375 
Q 25.6875 48.484375 22.671875 46.5 
Q 19.671875 44.53125 19.671875 40.484375 
Q 19.671875 36.8125 21.921875 35 
Q 24.171875 33.203125 33.109375 31.5 
L 36.71875 30.8125 
Q 43.40625 29.546875 46.84375 25.734375 
Q 50.296875 21.921875 50.296875 15.828125 
Q 50.296875 7.71875 44.53125 3.140625 
Q 38.765625 -1.421875 28.515625 -1.421875 
Q 24.46875 -1.421875 20.015625 -0.5625 
Q 15.578125 0.296875 10.40625 2 
L 10.40625 11.28125 
Q 15.4375 8.6875 20.015625 7.390625 
Q 24.609375 6.109375 28.71875 6.109375 
Q 34.671875 6.109375 37.9375 8.515625 
Q 41.21875 10.9375 41.21875 15.28125 
Q 41.21875 21.53125 29.25 23.921875 
L 28.859375 24.03125 
L 25.484375 24.703125 
Q 17.71875 26.21875 14.15625 29.8125 
Q 10.59375 33.40625 10.59375 39.59375 
Q 10.59375 47.46875 15.90625 51.734375 
Q 21.234375 56 31.109375 56 
Q 35.5 56 39.546875 55.1875 
Q 43.609375 54.390625 47.515625 52.78125 
z
" id="DejaVuSansMono-115"/>
       <path d="M 54.296875 29.59375 
L 54.296875 25.203125 
L 15.375 25.203125 
L 15.375 24.90625 
Q 15.375 15.96875 20.03125 11.078125 
Q 24.703125 6.203125 33.203125 6.203125 
Q 37.5 6.203125 42.1875 7.5625 
Q 46.875 8.9375 52.203125 11.71875 
L 52.203125 2.78125 
Q 47.078125 0.6875 42.3125 -0.359375 
Q 37.546875 -1.421875 33.109375 -1.421875 
Q 20.359375 -1.421875 13.171875 6.21875 
Q 6 13.875 6 27.296875 
Q 6 40.375 13.03125 48.1875 
Q 20.0625 56 31.78125 56 
Q 42.234375 56 48.265625 48.921875 
Q 54.296875 41.84375 54.296875 29.59375 
z
M 45.3125 32.234375 
Q 45.125 40.140625 41.578125 44.265625 
Q 38.03125 48.390625 31.390625 48.390625 
Q 24.90625 48.390625 20.703125 44.09375 
Q 16.5 39.796875 15.71875 32.171875 
z
" id="DejaVuSansMono-101"/>
       <path d="M 56.390625 43.40625 
Q 53.515625 45.65625 50.53125 46.671875 
Q 47.5625 47.703125 44 47.703125 
Q 35.59375 47.703125 31.140625 42.421875 
Q 26.703125 37.15625 26.703125 27.203125 
L 26.703125 0 
L 17.671875 0 
L 17.671875 54.6875 
L 26.703125 54.6875 
L 26.703125 44 
Q 28.953125 49.8125 33.609375 52.90625 
Q 38.28125 56 44.671875 56 
Q 48 56 50.875 55.171875 
Q 53.765625 54.34375 56.390625 52.59375 
z
" id="DejaVuSansMono-114"/>
       <path d="M 34.28125 72.90625 
L 34.28125 45.796875 
L 25.78125 45.796875 
L 25.78125 72.90625 
z
" id="DejaVuSansMono-39"/>
       <path id="DejaVuSansMono-32"/>
       <path d="M 18.015625 34.8125 
L 18.015625 8.109375 
L 29.6875 8.109375 
Q 38.28125 8.109375 41.9375 11.109375 
Q 45.609375 14.109375 45.609375 21 
Q 45.609375 28.125 41.75 31.46875 
Q 37.890625 34.8125 29.6875 34.8125 
z
M 18.015625 64.796875 
L 18.015625 42.828125 
L 29.5 42.828125 
Q 36.625 42.828125 39.8125 45.5625 
Q 43.015625 48.296875 43.015625 54.390625 
Q 43.015625 59.90625 39.859375 62.34375 
Q 36.71875 64.796875 29.5 64.796875 
z
M 8.109375 72.90625 
L 29.6875 72.90625 
Q 40.875 72.90625 46.921875 68.0625 
Q 52.984375 63.234375 52.984375 54.390625 
Q 52.984375 47.703125 49.78125 43.84375 
Q 46.578125 39.984375 40.1875 39.015625 
Q 47.359375 37.9375 51.4375 32.875 
Q 55.515625 27.828125 55.515625 20.015625 
Q 55.515625 10.109375 49.015625 5.046875 
Q 42.53125 0 29.6875 0 
L 8.109375 0 
z
" id="DejaVuSansMono-66"/>
       <path d="M 30.078125 48.390625 
Q 23.25 48.390625 19.734375 43.0625 
Q 16.21875 37.75 16.21875 27.296875 
Q 16.21875 16.890625 19.734375 11.546875 
Q 23.25 6.203125 30.078125 6.203125 
Q 36.96875 6.203125 40.484375 11.546875 
Q 44 16.890625 44 27.296875 
Q 44 37.75 40.484375 43.0625 
Q 36.96875 48.390625 30.078125 48.390625 
z
M 30.078125 56 
Q 41.453125 56 47.484375 48.625 
Q 53.515625 41.265625 53.515625 27.296875 
Q 53.515625 13.28125 47.5 5.921875 
Q 41.5 -1.421875 30.078125 -1.421875 
Q 18.703125 -1.421875 12.6875 5.921875 
Q 6.6875 13.28125 6.6875 27.296875 
Q 6.6875 41.265625 12.6875 48.625 
Q 18.703125 56 30.078125 56 
z
" id="DejaVuSansMono-111"/>
       <path d="M 29.984375 70.21875 
L 29.984375 54.6875 
L 50.390625 54.6875 
L 50.390625 47.703125 
L 29.984375 47.703125 
L 29.984375 18.015625 
Q 29.984375 11.96875 32.28125 9.5625 
Q 34.578125 7.171875 40.28125 7.171875 
L 50.390625 7.171875 
L 50.390625 0 
L 39.40625 0 
Q 29.296875 0 25.140625 4.046875 
Q 21 8.109375 21 18.015625 
L 21 47.703125 
L 6.390625 47.703125 
L 6.390625 54.6875 
L 21 54.6875 
L 21 70.21875 
z
" id="DejaVuSansMono-116"/>
       <path d="M 51.8125 2.78125 
Q 48.1875 0.6875 44.359375 -0.359375 
Q 40.53125 -1.421875 36.53125 -1.421875 
Q 23.828125 -1.421875 16.671875 6.1875 
Q 9.515625 13.8125 9.515625 27.296875 
Q 9.515625 40.765625 16.671875 48.375 
Q 23.828125 56 36.53125 56 
Q 40.484375 56 44.234375 54.96875 
Q 48 53.953125 51.8125 51.8125 
L 51.8125 42.390625 
Q 48.25 45.5625 44.65625 46.96875 
Q 41.0625 48.390625 36.53125 48.390625 
Q 28.078125 48.390625 23.53125 42.921875 
Q 19 37.453125 19 27.296875 
Q 19 17.1875 23.5625 11.6875 
Q 28.125 6.203125 36.53125 6.203125 
Q 41.21875 6.203125 44.921875 7.640625 
Q 48.640625 9.078125 51.8125 12.109375 
z
" id="DejaVuSansMono-99"/>
       <path d="M 43.21875 75.875 
Q 36.71875 64.75 33.515625 53.6875 
Q 30.328125 42.625 30.328125 31.390625 
Q 30.328125 20.21875 33.515625 9.125 
Q 36.71875 -1.953125 43.21875 -13.1875 
L 35.40625 -13.1875 
Q 28.03125 -1.5625 24.40625 9.4375 
Q 20.796875 20.453125 20.796875 31.390625 
Q 20.796875 42.28125 24.40625 53.3125 
Q 28.03125 64.359375 35.40625 75.875 
z
" id="DejaVuSansMono-40"/>
       <path d="M 18.3125 6.890625 
L 18.3125 -20.796875 
L 9.28125 -20.796875 
L 9.28125 54.6875 
L 18.3125 54.6875 
L 18.3125 47.703125 
Q 20.5625 51.765625 24.296875 53.875 
Q 28.03125 56 32.90625 56 
Q 42.828125 56 48.46875 48.328125 
Q 54.109375 40.671875 54.109375 27.09375 
Q 54.109375 13.765625 48.4375 6.171875 
Q 42.78125 -1.421875 32.90625 -1.421875 
Q 27.9375 -1.421875 24.1875 0.703125 
Q 20.453125 2.828125 18.3125 6.890625 
z
M 44.671875 27.296875 
Q 44.671875 37.75 41.375 43.0625 
Q 38.09375 48.390625 31.59375 48.390625 
Q 25.046875 48.390625 21.671875 43.046875 
Q 18.3125 37.703125 18.3125 27.296875 
Q 18.3125 16.9375 21.671875 11.5625 
Q 25.046875 6.203125 31.59375 6.203125 
Q 38.09375 6.203125 41.375 11.515625 
Q 44.671875 16.84375 44.671875 27.296875 
z
" id="DejaVuSansMono-112"/>
       <path d="M 51.3125 33.890625 
L 51.3125 0 
L 42.28125 0 
L 42.28125 33.890625 
Q 42.28125 41.265625 39.6875 44.71875 
Q 37.109375 48.1875 31.59375 48.1875 
Q 25.296875 48.1875 21.890625 43.71875 
Q 18.5 39.265625 18.5 30.90625 
L 18.5 0 
L 9.515625 0 
L 9.515625 54.6875 
L 18.5 54.6875 
L 18.5 46.484375 
Q 20.90625 51.171875 25 53.578125 
Q 29.109375 56 34.71875 56 
Q 43.0625 56 47.1875 50.5 
Q 51.3125 45.015625 51.3125 33.890625 
z
" id="DejaVuSansMono-110"/>
       <path d="M 12.5 54.6875 
L 35.5 54.6875 
L 35.5 6.984375 
L 53.328125 6.984375 
L 53.328125 0 
L 8.6875 0 
L 8.6875 6.984375 
L 26.515625 6.984375 
L 26.515625 47.703125 
L 12.5 47.703125 
z
M 26.515625 75.984375 
L 35.5 75.984375 
L 35.5 64.59375 
L 26.515625 64.59375 
z
" id="DejaVuSansMono-105"/>
       <path d="M 31.203125 19.828125 
Q 31.203125 13.765625 33.421875 10.6875 
Q 35.640625 7.625 39.984375 7.625 
L 50.484375 7.625 
L 50.484375 0 
L 39.109375 0 
Q 31.0625 0 26.640625 5.171875 
Q 22.21875 10.359375 22.21875 19.828125 
L 22.21875 69.484375 
L 7.8125 69.484375 
L 7.8125 76.515625 
L 31.203125 76.515625 
z
" id="DejaVuSansMono-108"/>
       <path d="M 34.28125 27.484375 
L 31.296875 27.484375 
Q 23.4375 27.484375 19.453125 24.71875 
Q 15.484375 21.96875 15.484375 16.5 
Q 15.484375 11.578125 18.453125 8.84375 
Q 21.4375 6.109375 26.703125 6.109375 
Q 34.125 6.109375 38.375 11.25 
Q 42.625 16.40625 42.671875 25.484375 
L 42.671875 27.484375 
z
M 51.703125 31.203125 
L 51.703125 0 
L 42.671875 0 
L 42.671875 8.109375 
Q 39.796875 3.21875 35.421875 0.890625 
Q 31.0625 -1.421875 24.8125 -1.421875 
Q 16.453125 -1.421875 11.46875 3.296875 
Q 6.5 8.015625 6.5 15.921875 
Q 6.5 25.046875 12.625 29.78125 
Q 18.75 34.515625 30.609375 34.515625 
L 42.671875 34.515625 
L 42.671875 35.9375 
Q 42.625 42.484375 39.34375 45.4375 
Q 36.078125 48.390625 28.90625 48.390625 
Q 24.3125 48.390625 19.625 47.0625 
Q 14.9375 45.75 10.5 43.21875 
L 10.5 52.203125 
Q 15.484375 54.109375 20.046875 55.046875 
Q 24.609375 56 28.90625 56 
Q 35.6875 56 40.5 54 
Q 45.3125 52 48.296875 48 
Q 50.140625 45.5625 50.921875 41.96875 
Q 51.703125 38.375 51.703125 31.203125 
z
" id="DejaVuSansMono-97"/>
       <path d="M 41.890625 27.78125 
Q 41.890625 37.890625 38.59375 43.140625 
Q 35.296875 48.390625 29 48.390625 
Q 22.40625 48.390625 18.9375 43.140625 
Q 15.484375 37.890625 15.484375 27.78125 
Q 15.484375 17.671875 18.96875 12.375 
Q 22.46875 7.078125 29.109375 7.078125 
Q 35.296875 7.078125 38.59375 12.390625 
Q 41.890625 17.71875 41.890625 27.78125 
z
M 50.875 3.515625 
Q 50.875 -8.796875 45.0625 -15.140625 
Q 39.265625 -21.484375 27.984375 -21.484375 
Q 24.265625 -21.484375 20.203125 -20.796875 
Q 16.15625 -20.125 12.109375 -18.796875 
L 12.109375 -9.90625 
Q 16.890625 -12.15625 20.796875 -13.234375 
Q 24.703125 -14.3125 27.984375 -14.3125 
Q 35.25 -14.3125 38.5625 -10.34375 
Q 41.890625 -6.390625 41.890625 2.203125 
L 41.890625 2.59375 
L 41.890625 8.6875 
Q 39.75 4.109375 36.03125 1.859375 
Q 32.328125 -0.390625 27 -0.390625 
Q 17.4375 -0.390625 11.71875 7.265625 
Q 6 14.9375 6 27.78125 
Q 6 40.671875 11.71875 48.328125 
Q 17.4375 56 27 56 
Q 32.28125 56 35.9375 53.90625 
Q 39.59375 51.8125 41.890625 47.40625 
L 41.890625 54.5 
L 50.875 54.5 
z
" id="DejaVuSansMono-103"/>
       <path d="M 17 75.875 
L 24.8125 75.875 
Q 32.171875 64.359375 35.78125 53.3125 
Q 39.40625 42.28125 39.40625 31.390625 
Q 39.40625 20.40625 35.78125 9.375 
Q 32.171875 -1.65625 24.8125 -13.1875 
L 17 -13.1875 
Q 23.484375 -1.859375 26.6875 9.21875 
Q 29.890625 20.3125 29.890625 31.390625 
Q 29.890625 42.53125 26.6875 53.609375 
Q 23.484375 64.703125 17 75.875 
z
" id="DejaVuSansMono-41"/>
      </defs>
      <use xlink:href="#DejaVuSansMono-85"/>
      <use x="60.205078" xlink:href="#DejaVuSansMono-115"/>
      <use x="120.410156" xlink:href="#DejaVuSansMono-101"/>
      <use x="180.615234" xlink:href="#DejaVuSansMono-114"/>
      <use x="240.820312" xlink:href="#DejaVuSansMono-39"/>
      <use x="301.025391" xlink:href="#DejaVuSansMono-115"/>
      <use x="361.230469" xlink:href="#DejaVuSansMono-32"/>
      <use x="421.435547" xlink:href="#DejaVuSansMono-66"/>
      <use x="481.640625" xlink:href="#DejaVuSansMono-111"/>
      <use x="541.845703" xlink:href="#DejaVuSansMono-116"/>
      <use x="602.050781" xlink:href="#DejaVuSansMono-115"/>
      <use x="662.255859" xlink:href="#DejaVuSansMono-99"/>
      <use x="722.460938" xlink:href="#DejaVuSansMono-111"/>
      <use x="782.666016" xlink:href="#DejaVuSansMono-114"/>
      <use x="842.871094" xlink:href="#DejaVuSansMono-101"/>
      <use x="903.076172" xlink:href="#DejaVuSansMono-32"/>
      <use x="963.28125" xlink:href="#DejaVuSansMono-40"/>
      <use x="1023.486328" xlink:href="#DejaVuSansMono-112"/>
      <use x="1083.691406" xlink:href="#DejaVuSansMono-101"/>
      <use x="1143.896484" xlink:href="#DejaVuSansMono-114"/>
      <use x="1204.101562" xlink:href="#DejaVuSansMono-99"/>
      <use x="1264.306641" xlink:href="#DejaVuSansMono-101"/>
      <use x="1324.511719" xlink:href="#DejaVuSansMono-110"/>
      <use x="1384.716797" xlink:href="#DejaVuSansMono-116"/>
      <use x="1444.921875" xlink:href="#DejaVuSansMono-105"/>
      <use x="1505.126953" xlink:href="#DejaVuSansMono-108"/>
      <use x="1565.332031" xlink:href="#DejaVuSansMono-101"/>
      <use x="1625.537109" xlink:href="#DejaVuSansMono-32"/>
      <use x="1685.742188" xlink:href="#DejaVuSansMono-114"/>
      <use x="1745.947266" xlink:href="#DejaVuSansMono-97"/>
      <use x="1806.152344" xlink:href="#DejaVuSansMono-110"/>
      <use x="1866.357422" xlink:href="#DejaVuSansMono-103"/>
      <use x="1926.5625" xlink:href="#DejaVuSansMono-101"/>
      <use x="1986.767578" xlink:href="#DejaVuSansMono-115"/>
      <use x="2046.972656" xlink:href="#DejaVuSansMono-41"/>
     </g>
    </g>
   </g>
   <g id="matplotlib.axis_2">
    <g id="ytick_1">
     <g id="line2d_1">
      <path clip-path="url(#p664d974dab)" d="M 114.394 281.376364 
L 557.221244 281.376364 
" style="fill:none;stroke:#cccccc;stroke-linecap:round;"/>
     </g>
     <g id="text_12">
      <!-- 0.00000 -->
      <g style="fill:#262626;" transform="translate(39.995031 287.268067)scale(0.154 -0.154)">
       <defs>
        <path d="M 23.578125 36.625 
Q 23.578125 39.3125 25.453125 41.265625 
Q 27.34375 43.21875 29.984375 43.21875 
Q 32.71875 43.21875 34.671875 41.265625 
Q 36.625 39.3125 36.625 36.625 
Q 36.625 33.890625 34.6875 31.984375 
Q 32.765625 30.078125 29.984375 30.078125 
Q 27.25 30.078125 25.40625 31.9375 
Q 23.578125 33.796875 23.578125 36.625 
z
M 30.078125 66.40625 
Q 23.1875 66.40625 19.796875 58.984375 
Q 16.40625 51.5625 16.40625 36.375 
Q 16.40625 21.234375 19.796875 13.8125 
Q 23.1875 6.390625 30.078125 6.390625 
Q 37.015625 6.390625 40.40625 13.8125 
Q 43.796875 21.234375 43.796875 36.375 
Q 43.796875 51.5625 40.40625 58.984375 
Q 37.015625 66.40625 30.078125 66.40625 
z
M 30.078125 74.21875 
Q 41.75 74.21875 47.734375 64.640625 
Q 53.71875 55.078125 53.71875 36.375 
Q 53.71875 17.71875 47.734375 8.140625 
Q 41.75 -1.421875 30.078125 -1.421875 
Q 18.40625 -1.421875 12.453125 8.140625 
Q 6.5 17.71875 6.5 36.375 
Q 6.5 55.078125 12.453125 64.640625 
Q 18.40625 74.21875 30.078125 74.21875 
z
" id="DejaVuSansMono-48"/>
        <path d="M 23.875 14.890625 
L 36.1875 14.890625 
L 36.1875 0 
L 23.875 0 
z
" id="DejaVuSansMono-46"/>
       </defs>
       <use xlink:href="#DejaVuSansMono-48"/>
       <use x="60.205078" xlink:href="#DejaVuSansMono-46"/>
       <use x="120.410156" xlink:href="#DejaVuSansMono-48"/>
       <use x="180.615234" xlink:href="#DejaVuSansMono-48"/>
       <use x="240.820312" xlink:href="#DejaVuSansMono-48"/>
       <use x="301.025391" xlink:href="#DejaVuSansMono-48"/>
       <use x="361.230469" xlink:href="#DejaVuSansMono-48"/>
      </g>
     </g>
    </g>
    <g id="ytick_2">
     <g id="line2d_2">
      <path clip-path="url(#p664d974dab)" d="M 114.394 232.425714 
L 557.221244 232.425714 
" style="fill:none;stroke:#cccccc;stroke-linecap:round;"/>
     </g>
     <g id="text_13">
      <!-- 0.00005 -->
      <g style="fill:#262626;" transform="translate(39.995031 238.317417)scale(0.154 -0.154)">
       <defs>
        <path d="M 10.109375 72.90625 
L 47.015625 72.90625 
L 47.015625 64.59375 
L 19.09375 64.59375 
L 19.09375 46.6875 
Q 21.1875 47.46875 23.3125 47.828125 
Q 25.4375 48.1875 27.59375 48.1875 
Q 38.921875 48.1875 45.5625 41.5 
Q 52.203125 34.8125 52.203125 23.390625 
Q 52.203125 11.859375 45.234375 5.21875 
Q 38.28125 -1.421875 26.21875 -1.421875 
Q 20.40625 -1.421875 15.59375 -0.640625 
Q 10.796875 0.140625 6.984375 1.703125 
L 6.984375 11.71875 
Q 11.46875 9.28125 16.015625 8.078125 
Q 20.5625 6.890625 25.296875 6.890625 
Q 33.453125 6.890625 37.859375 11.1875 
Q 42.28125 15.484375 42.28125 23.390625 
Q 42.28125 31.203125 37.71875 35.546875 
Q 33.15625 39.890625 25 39.890625 
Q 21.046875 39.890625 17.28125 38.984375 
Q 13.53125 38.09375 10.109375 36.28125 
z
" id="DejaVuSansMono-53"/>
       </defs>
       <use xlink:href="#DejaVuSansMono-48"/>
       <use x="60.205078" xlink:href="#DejaVuSansMono-46"/>
       <use x="120.410156" xlink:href="#DejaVuSansMono-48"/>
       <use x="180.615234" xlink:href="#DejaVuSansMono-48"/>
       <use x="240.820312" xlink:href="#DejaVuSansMono-48"/>
       <use x="301.025391" xlink:href="#DejaVuSansMono-48"/>
       <use x="361.230469" xlink:href="#DejaVuSansMono-53"/>
      </g>
     </g>
    </g>
    <g id="ytick_3">
     <g id="line2d_3">
      <path clip-path="url(#p664d974dab)" d="M 114.394 183.475065 
L 557.221244 183.475065 
" style="fill:none;stroke:#cccccc;stroke-linecap:round;"/>
     </g>
     <g id="text_14">
      <!-- 0.00010 -->
      <g style="fill:#262626;" transform="translate(39.995031 189.366768)scale(0.154 -0.154)">
       <defs>
        <path d="M 13.1875 8.296875 
L 28.515625 8.296875 
L 28.515625 64.015625 
L 12.015625 60.296875 
L 12.015625 69.28125 
L 28.421875 72.90625 
L 38.28125 72.90625 
L 38.28125 8.296875 
L 53.421875 8.296875 
L 53.421875 0 
L 13.1875 0 
z
" id="DejaVuSansMono-49"/>
       </defs>
       <use xlink:href="#DejaVuSansMono-48"/>
       <use x="60.205078" xlink:href="#DejaVuSansMono-46"/>
       <use x="120.410156" xlink:href="#DejaVuSansMono-48"/>
       <use x="180.615234" xlink:href="#DejaVuSansMono-48"/>
       <use x="240.820312" xlink:href="#DejaVuSansMono-48"/>
       <use x="301.025391" xlink:href="#DejaVuSansMono-49"/>
       <use x="361.230469" xlink:href="#DejaVuSansMono-48"/>
      </g>
     </g>
    </g>
    <g id="ytick_4">
     <g id="line2d_4">
      <path clip-path="url(#p664d974dab)" d="M 114.394 134.524416 
L 557.221244 134.524416 
" style="fill:none;stroke:#cccccc;stroke-linecap:round;"/>
     </g>
     <g id="text_15">
      <!-- 0.00015 -->
      <g style="fill:#262626;" transform="translate(39.995031 140.416119)scale(0.154 -0.154)">
       <use xlink:href="#DejaVuSansMono-48"/>
       <use x="60.205078" xlink:href="#DejaVuSansMono-46"/>
       <use x="120.410156" xlink:href="#DejaVuSansMono-48"/>
       <use x="180.615234" xlink:href="#DejaVuSansMono-48"/>
       <use x="240.820312" xlink:href="#DejaVuSansMono-48"/>
       <use x="301.025391" xlink:href="#DejaVuSansMono-49"/>
       <use x="361.230469" xlink:href="#DejaVuSansMono-53"/>
      </g>
     </g>
    </g>
    <g id="ytick_5">
     <g id="line2d_5">
      <path clip-path="url(#p664d974dab)" d="M 114.394 85.573766 
L 557.221244 85.573766 
" style="fill:none;stroke:#cccccc;stroke-linecap:round;"/>
     </g>
     <g id="text_16">
      <!-- 0.00020 -->
      <g style="fill:#262626;" transform="translate(39.995031 91.465469)scale(0.154 -0.154)">
       <defs>
        <path d="M 18.21875 8.296875 
L 51.703125 8.296875 
L 51.703125 0 
L 7.421875 0 
L 7.421875 8.296875 
Q 16.546875 17.921875 23.375 25.296875 
Q 30.21875 32.671875 32.8125 35.6875 
Q 37.703125 41.65625 39.40625 45.34375 
Q 41.109375 49.03125 41.109375 52.875 
Q 41.109375 58.984375 37.515625 62.453125 
Q 33.9375 65.921875 27.6875 65.921875 
Q 23.25 65.921875 18.359375 64.3125 
Q 13.484375 62.703125 8.015625 59.421875 
L 8.015625 69.390625 
Q 13.03125 71.78125 17.890625 73 
Q 22.75 74.21875 27.484375 74.21875 
Q 38.1875 74.21875 44.703125 68.53125 
Q 51.21875 62.84375 51.21875 53.609375 
Q 51.21875 48.921875 49.046875 44.234375 
Q 46.875 39.546875 42 33.890625 
Q 39.265625 30.71875 34.0625 25.09375 
Q 28.859375 19.484375 18.21875 8.296875 
z
" id="DejaVuSansMono-50"/>
       </defs>
       <use xlink:href="#DejaVuSansMono-48"/>
       <use x="60.205078" xlink:href="#DejaVuSansMono-46"/>
       <use x="120.410156" xlink:href="#DejaVuSansMono-48"/>
       <use x="180.615234" xlink:href="#DejaVuSansMono-48"/>
       <use x="240.820312" xlink:href="#DejaVuSansMono-48"/>
       <use x="301.025391" xlink:href="#DejaVuSansMono-50"/>
       <use x="361.230469" xlink:href="#DejaVuSansMono-48"/>
      </g>
     </g>
    </g>
    <g id="text_17">
     <!-- Spreading (normalized) -->
     <g style="fill:#262626;" transform="translate(32.385656 289.835375)rotate(-90)scale(0.168 -0.168)">
      <defs>
       <path d="M 49.421875 70.40625 
L 49.421875 60.40625 
Q 44.921875 63.28125 40.40625 64.75 
Q 35.890625 66.21875 31.296875 66.21875 
Q 24.3125 66.21875 20.265625 62.96875 
Q 16.21875 59.71875 16.21875 54.203125 
Q 16.21875 49.359375 18.875 46.8125 
Q 21.53125 44.28125 28.8125 42.578125 
L 33.984375 41.40625 
Q 44.234375 39.015625 48.921875 33.890625 
Q 53.609375 28.765625 53.609375 19.921875 
Q 53.609375 9.515625 47.15625 4.046875 
Q 40.71875 -1.421875 28.421875 -1.421875 
Q 23.296875 -1.421875 18.109375 -0.3125 
Q 12.9375 0.78125 7.71875 2.984375 
L 7.71875 13.484375 
Q 13.328125 9.90625 18.328125 8.25 
Q 23.34375 6.59375 28.421875 6.59375 
Q 35.890625 6.59375 40.03125 9.9375 
Q 44.1875 13.28125 44.1875 19.28125 
Q 44.1875 24.75 41.328125 27.625 
Q 38.484375 30.515625 31.390625 32.078125 
L 26.125 33.296875 
Q 15.96875 35.59375 11.375 40.234375 
Q 6.78125 44.875 6.78125 52.6875 
Q 6.78125 62.453125 13.34375 68.328125 
Q 19.921875 74.21875 30.8125 74.21875 
Q 35.015625 74.21875 39.640625 73.265625 
Q 44.28125 72.3125 49.421875 70.40625 
z
" id="DejaVuSansMono-83"/>
       <path d="M 41.890625 47.703125 
L 41.890625 75.984375 
L 50.875 75.984375 
L 50.875 0 
L 41.890625 0 
L 41.890625 6.890625 
Q 39.65625 2.828125 35.90625 0.703125 
Q 32.171875 -1.421875 27.296875 -1.421875 
Q 17.390625 -1.421875 11.6875 6.265625 
Q 6 13.96875 6 27.484375 
Q 6 40.828125 11.71875 48.40625 
Q 17.4375 56 27.296875 56 
Q 32.234375 56 35.984375 53.875 
Q 39.75 51.765625 41.890625 47.703125 
z
M 15.484375 27.296875 
Q 15.484375 16.84375 18.796875 11.515625 
Q 22.125 6.203125 28.609375 6.203125 
Q 35.109375 6.203125 38.5 11.5625 
Q 41.890625 16.9375 41.890625 27.296875 
Q 41.890625 37.703125 38.5 43.046875 
Q 35.109375 48.390625 28.609375 48.390625 
Q 22.125 48.390625 18.796875 43.0625 
Q 15.484375 37.75 15.484375 27.296875 
z
" id="DejaVuSansMono-100"/>
       <path d="M 33.015625 49.125 
Q 34.671875 52.640625 37.234375 54.3125 
Q 39.796875 56 43.40625 56 
Q 50 56 52.703125 50.890625 
Q 55.421875 45.796875 55.421875 31.6875 
L 55.421875 0 
L 47.21875 0 
L 47.21875 31.296875 
Q 47.21875 42.875 45.921875 45.671875 
Q 44.625 48.484375 41.21875 48.484375 
Q 37.3125 48.484375 35.859375 45.484375 
Q 34.421875 42.484375 34.421875 31.296875 
L 34.421875 0 
L 26.21875 0 
L 26.21875 31.296875 
Q 26.21875 43.015625 24.828125 45.75 
Q 23.4375 48.484375 19.828125 48.484375 
Q 16.265625 48.484375 14.875 45.484375 
Q 13.484375 42.484375 13.484375 31.296875 
L 13.484375 0 
L 5.328125 0 
L 5.328125 54.6875 
L 13.484375 54.6875 
L 13.484375 50 
Q 15.09375 52.9375 17.5 54.46875 
Q 19.921875 56 23 56 
Q 26.703125 56 29.171875 54.296875 
Q 31.640625 52.59375 33.015625 49.125 
z
" id="DejaVuSansMono-109"/>
       <path d="M 11.078125 54.78125 
L 50.78125 54.78125 
L 50.78125 46.578125 
L 19.390625 7.328125 
L 50.78125 7.328125 
L 50.78125 0 
L 9.90625 0 
L 9.90625 8.296875 
L 41.3125 47.609375 
L 11.078125 47.609375 
z
" id="DejaVuSansMono-122"/>
      </defs>
      <use xlink:href="#DejaVuSansMono-83"/>
      <use x="60.205078" xlink:href="#DejaVuSansMono-112"/>
      <use x="120.410156" xlink:href="#DejaVuSansMono-114"/>
      <use x="180.615234" xlink:href="#DejaVuSansMono-101"/>
      <use x="240.820312" xlink:href="#DejaVuSansMono-97"/>
      <use x="301.025391" xlink:href="#DejaVuSansMono-100"/>
      <use x="361.230469" xlink:href="#DejaVuSansMono-105"/>
      <use x="421.435547" xlink:href="#DejaVuSansMono-110"/>
      <use x="481.640625" xlink:href="#DejaVuSansMono-103"/>
      <use x="541.845703" xlink:href="#DejaVuSansMono-32"/>
      <use x="602.050781" xlink:href="#DejaVuSansMono-40"/>
      <use x="662.255859" xlink:href="#DejaVuSansMono-110"/>
      <use x="722.460938" xlink:href="#DejaVuSansMono-111"/>
      <use x="782.666016" xlink:href="#DejaVuSansMono-114"/>
      <use x="842.871094" xlink:href="#DejaVuSansMono-109"/>
      <use x="903.076172" xlink:href="#DejaVuSansMono-97"/>
      <use x="963.28125" xlink:href="#DejaVuSansMono-108"/>
      <use x="1023.486328" xlink:href="#DejaVuSansMono-105"/>
      <use x="1083.691406" xlink:href="#DejaVuSansMono-122"/>
      <use x="1143.896484" xlink:href="#DejaVuSansMono-101"/>
      <use x="1204.101562" xlink:href="#DejaVuSansMono-100"/>
      <use x="1264.306641" xlink:href="#DejaVuSansMono-41"/>
     </g>
    </g>
   </g>
   <g id="PathCollection_1">
    <defs>
     <path d="M 0 -3.045553 
L -0.683769 -0.941128 
L -2.896493 -0.941128 
L -1.106362 0.359479 
L -1.790131 2.463904 
L -0 1.163298 
L 1.790131 2.463904 
L 1.106362 0.359479 
L 2.896493 -0.941128 
L 0.683769 -0.941128 
z
" id="mae533974c4" style="stroke:#4c72b0;stroke-width:1.8225;"/>
    </defs>
    <g clip-path="url(#p664d974dab)">
     <use style="fill:#4c72b0;stroke:#4c72b0;stroke-width:1.8225;" x="134.522511" xlink:href="#mae533974c4" y="113.03201"/>
     <use style="fill:#4c72b0;stroke:#4c72b0;stroke-width:1.8225;" x="179.252536" xlink:href="#mae533974c4" y="231.146059"/>
     <use style="fill:#4c72b0;stroke:#4c72b0;stroke-width:1.8225;" x="223.98256" xlink:href="#mae533974c4" y="240.941728"/>
     <use style="fill:#4c72b0;stroke:#4c72b0;stroke-width:1.8225;" x="268.712585" xlink:href="#mae533974c4" y="246.436698"/>
     <use style="fill:#4c72b0;stroke:#4c72b0;stroke-width:1.8225;" x="313.44261" xlink:href="#mae533974c4" y="246.951936"/>
     <use style="fill:#4c72b0;stroke:#4c72b0;stroke-width:1.8225;" x="358.172634" xlink:href="#mae533974c4" y="254.157585"/>
     <use style="fill:#4c72b0;stroke:#4c72b0;stroke-width:1.8225;" x="402.902659" xlink:href="#mae533974c4" y="251.643495"/>
     <use style="fill:#4c72b0;stroke:#4c72b0;stroke-width:1.8225;" x="447.632683" xlink:href="#mae533974c4" y="257.612038"/>
     <use style="fill:#4c72b0;stroke:#4c72b0;stroke-width:1.8225;" x="492.362708" xlink:href="#mae533974c4" y="265.483008"/>
     <use style="fill:#4c72b0;stroke:#4c72b0;stroke-width:1.8225;" x="537.092733" xlink:href="#mae533974c4" y="268.378452"/>
    </g>
   </g>
   <g id="line2d_6">
    <path clip-path="url(#p664d974dab)" d="M 134.522511 113.03201 
L 179.252536 231.146059 
L 223.98256 240.941728 
L 268.712585 246.436698 
L 313.44261 246.951936 
L 358.172634 254.157585 
L 402.902659 251.643495 
L 447.632683 257.612038 
L 492.362708 265.483008 
L 537.092733 268.378452 
" style="fill:none;stroke:#4c72b0;stroke-linecap:round;"/>
   </g>
   <g id="line2d_7">
    <path clip-path="url(#p664d974dab)" d="M 134.522511 141.894199 
L 134.522511 82.553485 
" style="fill:none;stroke:#4c72b0;stroke-linecap:round;"/>
   </g>
   <g id="line2d_8">
    <path clip-path="url(#p664d974dab)" d="M 179.252536 245.536822 
L 179.252536 213.077323 
" style="fill:none;stroke:#4c72b0;stroke-linecap:round;"/>
   </g>
   <g id="line2d_9">
    <path clip-path="url(#p664d974dab)" d="M 223.98256 248.387139 
L 223.98256 232.572652 
" style="fill:none;stroke:#4c72b0;stroke-linecap:round;"/>
   </g>
   <g id="line2d_10">
    <path clip-path="url(#p664d974dab)" d="M 268.712585 253.81122 
L 268.712585 235.102975 
" style="fill:none;stroke:#4c72b0;stroke-linecap:round;"/>
   </g>
   <g id="line2d_11">
    <path clip-path="url(#p664d974dab)" d="M 313.44261 253.038571 
L 313.44261 239.956892 
" style="fill:none;stroke:#4c72b0;stroke-linecap:round;"/>
   </g>
   <g id="line2d_12">
    <path clip-path="url(#p664d974dab)" d="M 358.172634 257.996841 
L 358.172634 249.442487 
" style="fill:none;stroke:#4c72b0;stroke-linecap:round;"/>
   </g>
   <g id="line2d_13">
    <path clip-path="url(#p664d974dab)" d="M 402.902659 256.045135 
L 402.902659 246.486974 
" style="fill:none;stroke:#4c72b0;stroke-linecap:round;"/>
   </g>
   <g id="line2d_14">
    <path clip-path="url(#p664d974dab)" d="M 447.632683 262.080941 
L 447.632683 252.258274 
" style="fill:none;stroke:#4c72b0;stroke-linecap:round;"/>
   </g>
   <g id="line2d_15">
    <path clip-path="url(#p664d974dab)" d="M 492.362708 268.918662 
L 492.362708 261.13117 
" style="fill:none;stroke:#4c72b0;stroke-linecap:round;"/>
   </g>
   <g id="line2d_16">
    <path clip-path="url(#p664d974dab)" d="M 537.092733 271.511134 
L 537.092733 264.361691 
" style="fill:none;stroke:#4c72b0;stroke-linecap:round;"/>
   </g>
   <g id="PathCollection_2">
    <defs>
     <path d="M -3.045553 3.045553 
L 3.045553 -3.045553 
M -3.045553 -3.045553 
L 3.045553 3.045553 
" id="mbff37b9972" style="stroke:#dd8452;stroke-width:1.8225;"/>
    </defs>
    <g clip-path="url(#p664d974dab)">
     <use style="fill:#dd8452;stroke:#dd8452;stroke-width:1.8225;" x="134.522511" xlink:href="#mbff37b9972" y="209.73918"/>
     <use style="fill:#dd8452;stroke:#dd8452;stroke-width:1.8225;" x="179.252536" xlink:href="#mbff37b9972" y="188.306302"/>
     <use style="fill:#dd8452;stroke:#dd8452;stroke-width:1.8225;" x="223.98256" xlink:href="#mbff37b9972" y="150.538113"/>
     <use style="fill:#dd8452;stroke:#dd8452;stroke-width:1.8225;" x="268.712585" xlink:href="#mbff37b9972" y="181.346876"/>
     <use style="fill:#dd8452;stroke:#dd8452;stroke-width:1.8225;" x="313.44261" xlink:href="#mbff37b9972" y="175.422905"/>
     <use style="fill:#dd8452;stroke:#dd8452;stroke-width:1.8225;" x="358.172634" xlink:href="#mbff37b9972" y="149.768819"/>
     <use style="fill:#dd8452;stroke:#dd8452;stroke-width:1.8225;" x="402.902659" xlink:href="#mbff37b9972" y="159.841178"/>
     <use style="fill:#dd8452;stroke:#dd8452;stroke-width:1.8225;" x="447.632683" xlink:href="#mbff37b9972" y="154.6355"/>
     <use style="fill:#dd8452;stroke:#dd8452;stroke-width:1.8225;" x="492.362708" xlink:href="#mbff37b9972" y="184.443293"/>
     <use style="fill:#dd8452;stroke:#dd8452;stroke-width:1.8225;" x="537.092733" xlink:href="#mbff37b9972" y="216.012929"/>
    </g>
   </g>
   <g id="LineCollection_1">
    <path clip-path="url(#p664d974dab)" d="M 402.902659 281.376364 
L 402.902659 75.783636 
" style="fill:none;stroke:#008000;stroke-dasharray:2,3.3;stroke-dashoffset:0;stroke-width:2;"/>
   </g>
   <g id="LineCollection_2">
    <path clip-path="url(#p664d974dab)" d="M 492.362708 281.376364 
L 492.362708 75.783636 
" style="fill:none;stroke:#ff4500;stroke-dasharray:2,3.3;stroke-dashoffset:0;stroke-width:2;"/>
   </g>
   <g id="line2d_17">
    <path clip-path="url(#p664d974dab)" d="M 134.522511 209.73918 
L 179.252536 188.306302 
L 223.98256 150.538113 
L 268.712585 181.346876 
L 313.44261 175.422905 
L 358.172634 149.768819 
L 402.902659 159.841178 
L 447.632683 154.6355 
L 492.362708 184.443293 
L 537.092733 216.012929 
" style="fill:none;stroke:#dd8452;stroke-dasharray:3.7,1.6;stroke-dashoffset:0;"/>
   </g>
   <g id="line2d_18">
    <path clip-path="url(#p664d974dab)" d="M 134.522511 222.966093 
L 134.522511 192.831715 
" style="fill:none;stroke:#dd8452;stroke-linecap:round;"/>
   </g>
   <g id="line2d_19">
    <path clip-path="url(#p664d974dab)" d="M 179.252536 200.247279 
L 179.252536 175.162168 
" style="fill:none;stroke:#dd8452;stroke-linecap:round;"/>
   </g>
   <g id="line2d_20">
    <path clip-path="url(#p664d974dab)" d="M 223.98256 175.654876 
L 223.98256 123.57254 
" style="fill:none;stroke:#dd8452;stroke-linecap:round;"/>
   </g>
   <g id="line2d_21">
    <path clip-path="url(#p664d974dab)" d="M 268.712585 197.164596 
L 268.712585 162.087718 
" style="fill:none;stroke:#dd8452;stroke-linecap:round;"/>
   </g>
   <g id="line2d_22">
    <path clip-path="url(#p664d974dab)" d="M 313.44261 191.194101 
L 313.44261 157.618367 
" style="fill:none;stroke:#dd8452;stroke-linecap:round;"/>
   </g>
   <g id="line2d_23">
    <path clip-path="url(#p664d974dab)" d="M 358.172634 174.939485 
L 358.172634 119.259736 
" style="fill:none;stroke:#dd8452;stroke-linecap:round;"/>
   </g>
   <g id="line2d_24">
    <path clip-path="url(#p664d974dab)" d="M 402.902659 186.076704 
L 402.902659 129.634057 
" style="fill:none;stroke:#dd8452;stroke-linecap:round;"/>
   </g>
   <g id="line2d_25">
    <path clip-path="url(#p664d974dab)" d="M 447.632683 181.604892 
L 447.632683 122.6785 
" style="fill:none;stroke:#dd8452;stroke-linecap:round;"/>
   </g>
   <g id="line2d_26">
    <path clip-path="url(#p664d974dab)" d="M 492.362708 211.695413 
L 492.362708 149.805938 
" style="fill:none;stroke:#dd8452;stroke-linecap:round;"/>
   </g>
   <g id="line2d_27">
    <path clip-path="url(#p664d974dab)" d="M 537.092733 230.762929 
L 537.092733 197.302512 
" style="fill:none;stroke:#dd8452;stroke-linecap:round;"/>
   </g>
   <g id="patch_3">
    <path d="M 114.394 291.656 
L 114.394 65.504 
" style="fill:none;stroke:#cccccc;stroke-linecap:square;stroke-linejoin:miter;stroke-width:1.25;"/>
   </g>
   <g id="patch_4">
    <path d="M 557.221244 291.656 
L 557.221244 65.504 
" style="fill:none;stroke:#cccccc;stroke-linecap:square;stroke-linejoin:miter;stroke-width:1.25;"/>
   </g>
   <g id="patch_5">
    <path d="M 114.394 291.656 
L 557.221244 291.656 
" style="fill:none;stroke:#cccccc;stroke-linecap:square;stroke-linejoin:miter;stroke-width:1.25;"/>
   </g>
   <g id="patch_6">
    <path d="M 114.394 65.504 
L 557.221244 65.504 
" style="fill:none;stroke:#cccccc;stroke-linecap:square;stroke-linejoin:miter;stroke-width:1.25;"/>
   </g>
   <g id="PathCollection_3">
    <defs>
     <path d="M 0 3.045553 
C 0.80769 3.045553 1.582408 2.724655 2.153531 2.153531 
C 2.724655 1.582408 3.045553 0.80769 3.045553 0 
C 3.045553 -0.80769 2.724655 -1.582408 2.153531 -2.153531 
C 1.582408 -2.724655 0.80769 -3.045553 0 -3.045553 
C -0.80769 -3.045553 -1.582408 -2.724655 -2.153531 -2.153531 
C -2.724655 -1.582408 -3.045553 -0.80769 -3.045553 0 
C -3.045553 0.80769 -2.724655 1.582408 -2.153531 2.153531 
C -1.582408 2.724655 -0.80769 3.045553 0 3.045553 
z
" id="meffe139d80" style="stroke:#55a868;stroke-width:1.8225;"/>
    </defs>
    <g clip-path="url(#p664d974dab)">
     <use style="fill:#55a868;stroke:#55a868;stroke-width:1.8225;" x="134.522511" xlink:href="#meffe139d80" y="264.967863"/>
     <use style="fill:#55a868;stroke:#55a868;stroke-width:1.8225;" x="179.252536" xlink:href="#meffe139d80" y="279.31379"/>
     <use style="fill:#55a868;stroke:#55a868;stroke-width:1.8225;" x="223.98256" xlink:href="#meffe139d80" y="278.586831"/>
     <use style="fill:#55a868;stroke:#55a868;stroke-width:1.8225;" x="268.712585" xlink:href="#meffe139d80" y="278.981535"/>
     <use style="fill:#55a868;stroke:#55a868;stroke-width:1.8225;" x="313.44261" xlink:href="#meffe139d80" y="277.817039"/>
     <use style="fill:#55a868;stroke:#55a868;stroke-width:1.8225;" x="358.172634" xlink:href="#meffe139d80" y="278.52275"/>
     <use style="fill:#55a868;stroke:#55a868;stroke-width:1.8225;" x="402.902659" xlink:href="#meffe139d80" y="278.721275"/>
     <use style="fill:#55a868;stroke:#55a868;stroke-width:1.8225;" x="447.632683" xlink:href="#meffe139d80" y="277.480456"/>
     <use style="fill:#55a868;stroke:#55a868;stroke-width:1.8225;" x="492.362708" xlink:href="#meffe139d80" y="279.853605"/>
     <use style="fill:#55a868;stroke:#55a868;stroke-width:1.8225;" x="537.092733" xlink:href="#meffe139d80" y="280.727264"/>
    </g>
   </g>
   <g id="line2d_28">
    <path clip-path="url(#p664d974dab)" d="M 134.522511 264.967863 
L 179.252536 279.31379 
L 223.98256 278.586831 
L 268.712585 278.981535 
L 313.44261 277.817039 
L 358.172634 278.52275 
L 402.902659 278.721275 
L 447.632683 277.480456 
L 492.362708 279.853605 
L 537.092733 280.727264 
" style="fill:none;stroke:#55a868;stroke-dasharray:6.4,1.6,1,1.6;stroke-dashoffset:0;"/>
   </g>
   <g id="line2d_29">
    <path clip-path="url(#p664d974dab)" d="M 134.522511 277.593512 
L 134.522511 243.565023 
" style="fill:none;stroke:#55a868;stroke-linecap:round;"/>
   </g>
   <g id="line2d_30">
    <path clip-path="url(#p664d974dab)" d="M 179.252536 279.836118 
L 179.252536 278.66428 
" style="fill:none;stroke:#55a868;stroke-linecap:round;"/>
   </g>
   <g id="line2d_31">
    <path clip-path="url(#p664d974dab)" d="M 223.98256 279.511041 
L 223.98256 277.632549 
" style="fill:none;stroke:#55a868;stroke-linecap:round;"/>
   </g>
   <g id="line2d_32">
    <path clip-path="url(#p664d974dab)" d="M 268.712585 279.753548 
L 268.712585 278.038429 
" style="fill:none;stroke:#55a868;stroke-linecap:round;"/>
   </g>
   <g id="line2d_33">
    <path clip-path="url(#p664d974dab)" d="M 313.44261 278.90716 
L 313.44261 276.663347 
" style="fill:none;stroke:#55a868;stroke-linecap:round;"/>
   </g>
   <g id="line2d_34">
    <path clip-path="url(#p664d974dab)" d="M 358.172634 279.499383 
L 358.172634 277.465274 
" style="fill:none;stroke:#55a868;stroke-linecap:round;"/>
   </g>
   <g id="line2d_35">
    <path clip-path="url(#p664d974dab)" d="M 402.902659 279.644695 
L 402.902659 277.678319 
" style="fill:none;stroke:#55a868;stroke-linecap:round;"/>
   </g>
   <g id="line2d_36">
    <path clip-path="url(#p664d974dab)" d="M 447.632683 278.884555 
L 447.632683 275.809877 
" style="fill:none;stroke:#55a868;stroke-linecap:round;"/>
   </g>
   <g id="line2d_37">
    <path clip-path="url(#p664d974dab)" d="M 492.362708 280.500244 
L 492.362708 279.041388 
" style="fill:none;stroke:#55a868;stroke-linecap:round;"/>
   </g>
   <g id="line2d_38">
    <path clip-path="url(#p664d974dab)" d="M 537.092733 280.985015 
L 537.092733 280.396596 
" style="fill:none;stroke:#55a868;stroke-linecap:round;"/>
   </g>
   <g id="PathCollection_4">
    <defs>
     <path d="M 0 -3.045553 
L -3.045553 3.045553 
L 3.045553 3.045553 
z
" id="mdcaf2d336d" style="stroke:#c44e52;stroke-width:1.8225;"/>
    </defs>
    <g clip-path="url(#p664d974dab)">
     <use style="fill:#c44e52;stroke:#c44e52;stroke-width:1.8225;" x="134.522511" xlink:href="#mdcaf2d336d" y="234.60127"/>
     <use style="fill:#c44e52;stroke:#c44e52;stroke-width:1.8225;" x="179.252536" xlink:href="#mdcaf2d336d" y="273.565937"/>
     <use style="fill:#c44e52;stroke:#c44e52;stroke-width:1.8225;" x="223.98256" xlink:href="#mdcaf2d336d" y="271.636999"/>
     <use style="fill:#c44e52;stroke:#c44e52;stroke-width:1.8225;" x="268.712585" xlink:href="#mdcaf2d336d" y="265.49821"/>
     <use style="fill:#c44e52;stroke:#c44e52;stroke-width:1.8225;" x="313.44261" xlink:href="#mdcaf2d336d" y="270.415105"/>
     <use style="fill:#c44e52;stroke:#c44e52;stroke-width:1.8225;" x="358.172634" xlink:href="#mdcaf2d336d" y="261.046674"/>
     <use style="fill:#c44e52;stroke:#c44e52;stroke-width:1.8225;" x="402.902659" xlink:href="#mdcaf2d336d" y="252.325559"/>
     <use style="fill:#c44e52;stroke:#c44e52;stroke-width:1.8225;" x="447.632683" xlink:href="#mdcaf2d336d" y="255.171441"/>
     <use style="fill:#c44e52;stroke:#c44e52;stroke-width:1.8225;" x="492.362708" xlink:href="#mdcaf2d336d" y="266.21237"/>
     <use style="fill:#c44e52;stroke:#c44e52;stroke-width:1.8225;" x="537.092733" xlink:href="#mdcaf2d336d" y="238.306446"/>
    </g>
   </g>
   <g id="line2d_39">
    <path clip-path="url(#p664d974dab)" d="M 134.522511 234.60127 
L 179.252536 273.565937 
L 223.98256 271.636999 
L 268.712585 265.49821 
L 313.44261 270.415105 
L 358.172634 261.046674 
L 402.902659 252.325559 
L 447.632683 255.171441 
L 492.362708 266.21237 
L 537.092733 238.306446 
" style="fill:none;stroke:#c44e52;stroke-dasharray:1,1.65;stroke-dashoffset:0;"/>
   </g>
   <g id="line2d_40">
    <path clip-path="url(#p664d974dab)" d="M 134.522511 254.823023 
L 134.522511 208.365674 
" style="fill:none;stroke:#c44e52;stroke-linecap:round;"/>
   </g>
   <g id="line2d_41">
    <path clip-path="url(#p664d974dab)" d="M 179.252536 276.222258 
L 179.252536 270.218737 
" style="fill:none;stroke:#c44e52;stroke-linecap:round;"/>
   </g>
   <g id="line2d_42">
    <path clip-path="url(#p664d974dab)" d="M 223.98256 274.425205 
L 223.98256 268.622814 
" style="fill:none;stroke:#c44e52;stroke-linecap:round;"/>
   </g>
   <g id="line2d_43">
    <path clip-path="url(#p664d974dab)" d="M 268.712585 273.808208 
L 268.712585 251.555428 
" style="fill:none;stroke:#c44e52;stroke-linecap:round;"/>
   </g>
   <g id="line2d_44">
    <path clip-path="url(#p664d974dab)" d="M 313.44261 273.916922 
L 313.44261 266.553311 
" style="fill:none;stroke:#c44e52;stroke-linecap:round;"/>
   </g>
   <g id="line2d_45">
    <path clip-path="url(#p664d974dab)" d="M 358.172634 267.738978 
L 358.172634 253.184491 
" style="fill:none;stroke:#c44e52;stroke-linecap:round;"/>
   </g>
   <g id="line2d_46">
    <path clip-path="url(#p664d974dab)" d="M 402.902659 266.663151 
L 402.902659 233.421019 
" style="fill:none;stroke:#c44e52;stroke-linecap:round;"/>
   </g>
   <g id="line2d_47">
    <path clip-path="url(#p664d974dab)" d="M 447.632683 269.082231 
L 447.632683 239.476879 
" style="fill:none;stroke:#c44e52;stroke-linecap:round;"/>
   </g>
   <g id="line2d_48">
    <path clip-path="url(#p664d974dab)" d="M 492.362708 271.880767 
L 492.362708 258.39641 
" style="fill:none;stroke:#c44e52;stroke-linecap:round;"/>
   </g>
   <g id="line2d_49">
    <path clip-path="url(#p664d974dab)" d="M 537.092733 255.983846 
L 537.092733 215.860159 
" style="fill:none;stroke:#c44e52;stroke-linecap:round;"/>
   </g>
   <g id="legend_1">
    <g id="patch_7">
     <path d="M 79.911276 52.1936 
L 569.562606 52.1936 
Q 572.362606 52.1936 572.362606 49.3936 
L 572.362606 30.0736 
Q 572.362606 27.2736 569.562606 27.2736 
L 79.911276 27.2736 
Q 77.111276 27.2736 77.111276 30.0736 
L 77.111276 49.3936 
Q 77.111276 52.1936 79.911276 52.1936 
z
" style="fill:#ffffff;opacity:0.8;stroke:#cccccc;stroke-linejoin:miter;"/>
    </g>
    <g id="PathCollection_5">
     <g>
      <use style="fill:#4c72b0;stroke:#4c72b0;stroke-width:1.8225;" x="96.711276" xlink:href="#mae533974c4" y="39.910788"/>
     </g>
    </g>
    <g id="text_18">
     <!-- Page Rank -->
     <g style="fill:#262626;" transform="translate(110.991276 43.585788)scale(0.14 -0.14)">
      <defs>
       <path d="M 19.484375 64.796875 
L 19.484375 37.40625 
L 30.90625 37.40625 
Q 37.75 37.40625 41.578125 41.015625 
Q 45.40625 44.625 45.40625 51.125 
Q 45.40625 57.625 41.59375 61.203125 
Q 37.796875 64.796875 30.90625 64.796875 
z
M 9.625 72.90625 
L 30.90625 72.90625 
Q 43.109375 72.90625 49.40625 67.359375 
Q 55.71875 61.8125 55.71875 51.125 
Q 55.71875 40.328125 49.4375 34.8125 
Q 43.171875 29.296875 30.90625 29.296875 
L 19.484375 29.296875 
L 19.484375 0 
L 9.625 0 
z
" id="DejaVuSansMono-80"/>
       <path d="M 37.109375 34.421875 
Q 40.921875 33.453125 43.609375 30.734375 
Q 46.296875 28.03125 50.296875 19.921875 
L 60.203125 0 
L 49.609375 0 
L 40.921875 18.40625 
Q 37.15625 26.265625 34.15625 28.53125 
Q 31.15625 30.8125 26.3125 30.8125 
L 16.890625 30.8125 
L 16.890625 0 
L 6.984375 0 
L 6.984375 72.90625 
L 27.296875 72.90625 
Q 39.3125 72.90625 45.703125 67.484375 
Q 52.09375 62.0625 52.09375 51.8125 
Q 52.09375 44.578125 48.15625 40.015625 
Q 44.234375 35.453125 37.109375 34.421875 
z
M 16.890625 64.796875 
L 16.890625 38.921875 
L 27.6875 38.921875 
Q 34.765625 38.921875 38.234375 42.09375 
Q 41.703125 45.265625 41.703125 51.8125 
Q 41.703125 58.109375 38.015625 61.453125 
Q 34.328125 64.796875 27.296875 64.796875 
z
" id="DejaVuSansMono-82"/>
       <path d="M 11.53125 75.984375 
L 20.796875 75.984375 
L 20.796875 31.984375 
L 44.390625 54.6875 
L 55.328125 54.6875 
L 33.796875 34.078125 
L 58.6875 0 
L 47.703125 0 
L 27.484375 28.21875 
L 20.796875 21.921875 
L 20.796875 0 
L 11.53125 0 
z
" id="DejaVuSansMono-107"/>
      </defs>
      <use xlink:href="#DejaVuSansMono-80"/>
      <use x="60.205078" xlink:href="#DejaVuSansMono-97"/>
      <use x="120.410156" xlink:href="#DejaVuSansMono-103"/>
      <use x="180.615234" xlink:href="#DejaVuSansMono-101"/>
      <use x="240.820312" xlink:href="#DejaVuSansMono-32"/>
      <use x="301.025391" xlink:href="#DejaVuSansMono-82"/>
      <use x="361.230469" xlink:href="#DejaVuSansMono-97"/>
      <use x="421.435547" xlink:href="#DejaVuSansMono-110"/>
      <use x="481.640625" xlink:href="#DejaVuSansMono-107"/>
     </g>
    </g>
    <g id="PathCollection_6">
     <g>
      <use style="fill:#dd8452;stroke:#dd8452;stroke-width:1.8225;" x="206.492865" xlink:href="#mbff37b9972" y="39.910788"/>
     </g>
    </g>
    <g id="text_19">
     <!-- HITS Hub -->
     <g style="fill:#262626;" transform="translate(220.772865 43.585788)scale(0.14 -0.14)">
      <defs>
       <path d="M 6.6875 72.90625 
L 16.609375 72.90625 
L 16.609375 43.015625 
L 43.609375 43.015625 
L 43.609375 72.90625 
L 53.515625 72.90625 
L 53.515625 0 
L 43.609375 0 
L 43.609375 34.71875 
L 16.609375 34.71875 
L 16.609375 0 
L 6.6875 0 
z
" id="DejaVuSansMono-72"/>
       <path d="M 9.8125 72.90625 
L 50.296875 72.90625 
L 50.296875 64.59375 
L 35.015625 64.59375 
L 35.015625 8.296875 
L 50.296875 8.296875 
L 50.296875 0 
L 9.8125 0 
L 9.8125 8.296875 
L 25.09375 8.296875 
L 25.09375 64.59375 
L 9.8125 64.59375 
z
" id="DejaVuSansMono-73"/>
       <path d="M 2.296875 72.90625 
L 57.90625 72.90625 
L 57.90625 64.59375 
L 35.109375 64.59375 
L 35.109375 0 
L 25.203125 0 
L 25.203125 64.59375 
L 2.296875 64.59375 
z
" id="DejaVuSansMono-84"/>
       <path d="M 9.515625 20.703125 
L 9.515625 54.59375 
L 18.5 54.59375 
L 18.5 20.703125 
Q 18.5 13.328125 21.109375 9.859375 
Q 23.734375 6.390625 29.203125 6.390625 
Q 35.546875 6.390625 38.90625 10.859375 
Q 42.28125 15.328125 42.28125 23.6875 
L 42.28125 54.59375 
L 51.3125 54.59375 
L 51.3125 0 
L 42.28125 0 
L 42.28125 8.203125 
Q 39.890625 3.46875 35.765625 1.015625 
Q 31.640625 -1.421875 26.125 -1.421875 
Q 17.71875 -1.421875 13.609375 4.078125 
Q 9.515625 9.578125 9.515625 20.703125 
z
" id="DejaVuSansMono-117"/>
       <path d="M 44.828125 27.296875 
Q 44.828125 37.75 41.5 43.0625 
Q 38.1875 48.390625 31.6875 48.390625 
Q 25.140625 48.390625 21.765625 43.046875 
Q 18.40625 37.703125 18.40625 27.296875 
Q 18.40625 16.9375 21.765625 11.5625 
Q 25.140625 6.203125 31.6875 6.203125 
Q 38.1875 6.203125 41.5 11.515625 
Q 44.828125 16.84375 44.828125 27.296875 
z
M 18.40625 47.703125 
Q 20.5625 51.703125 24.34375 53.84375 
Q 28.125 56 33.109375 56 
Q 42.96875 56 48.625 48.40625 
Q 54.296875 40.828125 54.296875 27.484375 
Q 54.296875 13.96875 48.609375 6.265625 
Q 42.921875 -1.421875 33.015625 -1.421875 
Q 28.125 -1.421875 24.390625 0.703125 
Q 20.65625 2.828125 18.40625 6.890625 
L 18.40625 0 
L 9.421875 0 
L 9.421875 75.984375 
L 18.40625 75.984375 
z
" id="DejaVuSansMono-98"/>
      </defs>
      <use xlink:href="#DejaVuSansMono-72"/>
      <use x="60.205078" xlink:href="#DejaVuSansMono-73"/>
      <use x="120.410156" xlink:href="#DejaVuSansMono-84"/>
      <use x="180.615234" xlink:href="#DejaVuSansMono-83"/>
      <use x="240.820312" xlink:href="#DejaVuSansMono-32"/>
      <use x="301.025391" xlink:href="#DejaVuSansMono-72"/>
      <use x="361.230469" xlink:href="#DejaVuSansMono-117"/>
      <use x="421.435547" xlink:href="#DejaVuSansMono-98"/>
     </g>
    </g>
    <g id="PathCollection_7">
     <g>
      <use style="fill:#55a868;stroke:#55a868;stroke-width:1.8225;" x="307.846017" xlink:href="#meffe139d80" y="39.910788"/>
     </g>
    </g>
    <g id="text_20">
     <!-- HITS Authority -->
     <g style="fill:#262626;" transform="translate(322.126017 43.585788)scale(0.14 -0.14)">
      <defs>
       <path d="M 30.078125 64.203125 
L 19.671875 26.90625 
L 40.484375 26.90625 
z
M 24.125 72.90625 
L 36.078125 72.90625 
L 58.40625 0 
L 48.1875 0 
L 42.828125 19 
L 17.28125 19 
L 12.015625 0 
L 1.8125 0 
z
" id="DejaVuSansMono-65"/>
       <path d="M 51.3125 33.890625 
L 51.3125 0 
L 42.28125 0 
L 42.28125 33.890625 
Q 42.28125 41.265625 39.6875 44.71875 
Q 37.109375 48.1875 31.59375 48.1875 
Q 25.296875 48.1875 21.890625 43.71875 
Q 18.5 39.265625 18.5 30.90625 
L 18.5 0 
L 9.515625 0 
L 9.515625 75.984375 
L 18.5 75.984375 
L 18.5 46.484375 
Q 20.90625 51.171875 25 53.578125 
Q 29.109375 56 34.71875 56 
Q 43.0625 56 47.1875 50.5 
Q 51.3125 45.015625 51.3125 33.890625 
z
" id="DejaVuSansMono-104"/>
       <path d="M 41.890625 17.578125 
Q 39.65625 11.859375 36.1875 2.546875 
Q 31.34375 -10.359375 29.6875 -13.1875 
Q 27.4375 -17 24.0625 -18.890625 
Q 20.703125 -20.796875 16.21875 -20.796875 
L 8.984375 -20.796875 
L 8.984375 -13.28125 
L 14.3125 -13.28125 
Q 18.265625 -13.28125 20.5 -10.984375 
Q 22.75 -8.6875 26.21875 0.875 
L 5.078125 54.6875 
L 14.59375 54.6875 
L 30.8125 11.921875 
L 46.78125 54.6875 
L 56.296875 54.6875 
z
" id="DejaVuSansMono-121"/>
      </defs>
      <use xlink:href="#DejaVuSansMono-72"/>
      <use x="60.205078" xlink:href="#DejaVuSansMono-73"/>
      <use x="120.410156" xlink:href="#DejaVuSansMono-84"/>
      <use x="180.615234" xlink:href="#DejaVuSansMono-83"/>
      <use x="240.820312" xlink:href="#DejaVuSansMono-32"/>
      <use x="301.025391" xlink:href="#DejaVuSansMono-65"/>
      <use x="361.230469" xlink:href="#DejaVuSansMono-117"/>
      <use x="421.435547" xlink:href="#DejaVuSansMono-116"/>
      <use x="481.640625" xlink:href="#DejaVuSansMono-104"/>
      <use x="541.845703" xlink:href="#DejaVuSansMono-111"/>
      <use x="602.050781" xlink:href="#DejaVuSansMono-114"/>
      <use x="662.255859" xlink:href="#DejaVuSansMono-105"/>
      <use x="722.460938" xlink:href="#DejaVuSansMono-116"/>
      <use x="782.666016" xlink:href="#DejaVuSansMono-121"/>
     </g>
    </g>
    <g id="PathCollection_8">
     <g>
      <use style="fill:#c44e52;stroke:#c44e52;stroke-width:1.8225;" x="459.769793" xlink:href="#mdcaf2d336d" y="39.910788"/>
     </g>
    </g>
    <g id="text_21">
     <!-- Eigenvector -->
     <g style="fill:#262626;" transform="translate(474.049793 43.585788)scale(0.14 -0.14)">
      <defs>
       <path d="M 9.625 72.90625 
L 52.875 72.90625 
L 52.875 64.59375 
L 19.484375 64.59375 
L 19.484375 43.015625 
L 51.421875 43.015625 
L 51.421875 34.71875 
L 19.484375 34.71875 
L 19.484375 8.296875 
L 53.8125 8.296875 
L 53.8125 0 
L 9.625 0 
z
" id="DejaVuSansMono-69"/>
       <path d="M 4.890625 54.6875 
L 14.203125 54.6875 
L 30.078125 8.796875 
L 46 54.6875 
L 55.328125 54.6875 
L 35.890625 0 
L 24.3125 0 
z
" id="DejaVuSansMono-118"/>
      </defs>
      <use xlink:href="#DejaVuSansMono-69"/>
      <use x="60.205078" xlink:href="#DejaVuSansMono-105"/>
      <use x="120.410156" xlink:href="#DejaVuSansMono-103"/>
      <use x="180.615234" xlink:href="#DejaVuSansMono-101"/>
      <use x="240.820312" xlink:href="#DejaVuSansMono-110"/>
      <use x="301.025391" xlink:href="#DejaVuSansMono-118"/>
      <use x="361.230469" xlink:href="#DejaVuSansMono-101"/>
      <use x="421.435547" xlink:href="#DejaVuSansMono-99"/>
      <use x="481.640625" xlink:href="#DejaVuSansMono-116"/>
      <use x="541.845703" xlink:href="#DejaVuSansMono-111"/>
      <use x="602.050781" xlink:href="#DejaVuSansMono-114"/>
     </g>
    </g>
   </g>
  </g>
 </g>
 <defs>
  <clipPath id="p664d974dab">
   <rect height="226.152" width="442.827244" x="114.394" y="65.504"/>
  </clipPath>
 </defs>
</svg>
