<?xml version="1.0" encoding="utf-8" standalone="no"?>
<!DOCTYPE svg PUBLIC "-//W3C//DTD SVG 1.1//EN"
  "http://www.w3.org/Graphics/SVG/1.1/DTD/svg11.dtd">
<!-- Created with matplotlib (https://matplotlib.org/) -->
<svg height="310.312494pt" version="1.1" viewBox="0 0 552.545625 310.312494" width="552.545625pt" xmlns="http://www.w3.org/2000/svg" xmlns:xlink="http://www.w3.org/1999/xlink">
 <metadata>
  <rdf:RDF xmlns:cc="http://creativecommons.org/ns#" xmlns:dc="http://purl.org/dc/elements/1.1/" xmlns:rdf="http://www.w3.org/1999/02/22-rdf-syntax-ns#">
   <cc:Work>
    <dc:type rdf:resource="http://purl.org/dc/dcmitype/StillImage"/>
    <dc:date>2021-03-01T11:50:14.592860</dc:date>
    <dc:format>image/svg+xml</dc:format>
    <dc:creator>
     <cc:Agent>
      <dc:title>Matplotlib v3.3.2, https://matplotlib.org/</dc:title>
     </cc:Agent>
    </dc:creator>
   </cc:Work>
  </rdf:RDF>
 </metadata>
 <defs>
  <style type="text/css">*{stroke-linecap:butt;stroke-linejoin:round;}</style>
 </defs>
 <g id="figure_1">
  <g id="patch_1">
   <path d="M 0 310.312494 
L 552.545625 310.312494 
L 552.545625 0 
L 0 0 
z
" style="fill:#ffffff;"/>
  </g>
  <g id="axes_1">
   <g id="patch_2">
    <path d="M 64.862344 240.935062 
L 536.074344 240.935062 
L 536.074344 36.432187 
L 64.862344 36.432187 
z
" style="fill:#ffffff;"/>
   </g>
   <g id="matplotlib.axis_1">
    <g id="xtick_1">
     <g id="line2d_1">
      <path clip-path="url(#p7b4b3300da)" d="M 64.862344 240.935062 
L 64.862344 36.432187 
" style="fill:none;stroke:#cccccc;stroke-linecap:round;"/>
     </g>
     <g id="text_1">
      <!-- 04 -->
      <g style="fill:#262626;" transform="translate(55.591063 262.218469)scale(0.154 -0.154)">
       <defs>
        <path d="M 23.578125 36.625 
Q 23.578125 39.3125 25.453125 41.265625 
Q 27.34375 43.21875 29.984375 43.21875 
Q 32.71875 43.21875 34.671875 41.265625 
Q 36.625 39.3125 36.625 36.625 
Q 36.625 33.890625 34.6875 31.984375 
Q 32.765625 30.078125 29.984375 30.078125 
Q 27.25 30.078125 25.40625 31.9375 
Q 23.578125 33.796875 23.578125 36.625 
z
M 30.078125 66.40625 
Q 23.1875 66.40625 19.796875 58.984375 
Q 16.40625 51.5625 16.40625 36.375 
Q 16.40625 21.234375 19.796875 13.8125 
Q 23.1875 6.390625 30.078125 6.390625 
Q 37.015625 6.390625 40.40625 13.8125 
Q 43.796875 21.234375 43.796875 36.375 
Q 43.796875 51.5625 40.40625 58.984375 
Q 37.015625 66.40625 30.078125 66.40625 
z
M 30.078125 74.21875 
Q 41.75 74.21875 47.734375 64.640625 
Q 53.71875 55.078125 53.71875 36.375 
Q 53.71875 17.71875 47.734375 8.140625 
Q 41.75 -1.421875 30.078125 -1.421875 
Q 18.40625 -1.421875 12.453125 8.140625 
Q 6.5 17.71875 6.5 36.375 
Q 6.5 55.078125 12.453125 64.640625 
Q 18.40625 74.21875 30.078125 74.21875 
z
" id="DejaVuSansMono-48"/>
        <path d="M 35.890625 63.921875 
L 12.890625 25.390625 
L 35.890625 25.390625 
z
M 34.28125 72.90625 
L 45.703125 72.90625 
L 45.703125 25.390625 
L 55.421875 25.390625 
L 55.421875 17.390625 
L 45.703125 17.390625 
L 45.703125 0 
L 35.890625 0 
L 35.890625 17.390625 
L 4.984375 17.390625 
L 4.984375 26.703125 
z
" id="DejaVuSansMono-52"/>
       </defs>
       <use xlink:href="#DejaVuSansMono-48"/>
       <use x="60.205078" xlink:href="#DejaVuSansMono-52"/>
      </g>
      <!-- 10 -->
      <g style="fill:#262626;" transform="translate(55.591063 279.561275)scale(0.154 -0.154)">
       <defs>
        <path d="M 13.1875 8.296875 
L 28.515625 8.296875 
L 28.515625 64.015625 
L 12.015625 60.296875 
L 12.015625 69.28125 
L 28.421875 72.90625 
L 38.28125 72.90625 
L 38.28125 8.296875 
L 53.421875 8.296875 
L 53.421875 0 
L 13.1875 0 
z
" id="DejaVuSansMono-49"/>
       </defs>
       <use xlink:href="#DejaVuSansMono-49"/>
       <use x="60.205078" xlink:href="#DejaVuSansMono-48"/>
      </g>
     </g>
    </g>
    <g id="xtick_2">
     <g id="line2d_2">
      <path clip-path="url(#p7b4b3300da)" d="M 89.662975 240.935062 
L 89.662975 36.432187 
" style="fill:none;stroke:#cccccc;stroke-linecap:round;"/>
     </g>
     <g id="text_2">
      <!-- 06 -->
      <g style="fill:#262626;" transform="translate(80.391694 262.218469)scale(0.154 -0.154)">
       <defs>
        <path d="M 48.390625 71.296875 
L 48.390625 62.203125 
Q 45.3125 64.015625 41.84375 64.96875 
Q 38.375 65.921875 34.625 65.921875 
Q 25.25 65.921875 20.40625 58.859375 
Q 15.578125 51.8125 15.578125 38.09375 
Q 17.921875 42.96875 22.0625 45.578125 
Q 26.21875 48.1875 31.59375 48.1875 
Q 42.140625 48.1875 47.921875 41.71875 
Q 53.71875 35.25 53.71875 23.390625 
Q 53.71875 11.578125 47.75 5.078125 
Q 41.796875 -1.421875 31 -1.421875 
Q 18.3125 -1.421875 12.40625 7.6875 
Q 6.5 16.796875 6.5 36.375 
Q 6.5 54.828125 13.59375 64.515625 
Q 20.703125 74.21875 34.1875 74.21875 
Q 37.796875 74.21875 41.40625 73.453125 
Q 45.015625 72.703125 48.390625 71.296875 
z
M 30.8125 40.484375 
Q 24.515625 40.484375 20.890625 35.9375 
Q 17.28125 31.390625 17.28125 23.390625 
Q 17.28125 15.375 20.890625 10.828125 
Q 24.515625 6.296875 30.8125 6.296875 
Q 37.359375 6.296875 40.671875 10.609375 
Q 44 14.9375 44 23.390625 
Q 44 31.890625 40.671875 36.1875 
Q 37.359375 40.484375 30.8125 40.484375 
z
" id="DejaVuSansMono-54"/>
       </defs>
       <use xlink:href="#DejaVuSansMono-48"/>
       <use x="60.205078" xlink:href="#DejaVuSansMono-54"/>
      </g>
      <!-- 10 -->
      <g style="fill:#262626;" transform="translate(80.391694 279.561275)scale(0.154 -0.154)">
       <use xlink:href="#DejaVuSansMono-49"/>
       <use x="60.205078" xlink:href="#DejaVuSansMono-48"/>
      </g>
     </g>
    </g>
    <g id="xtick_3">
     <g id="line2d_3">
      <path clip-path="url(#p7b4b3300da)" d="M 114.463607 240.935062 
L 114.463607 36.432187 
" style="fill:none;stroke:#cccccc;stroke-linecap:round;"/>
     </g>
     <g id="text_3">
      <!-- 08 -->
      <g style="fill:#262626;" transform="translate(105.192326 262.218469)scale(0.154 -0.154)">
       <defs>
        <path d="M 30.078125 34.625 
Q 23.484375 34.625 19.890625 30.9375 
Q 16.3125 27.25 16.3125 20.515625 
Q 16.3125 13.765625 19.9375 10.03125 
Q 23.578125 6.296875 30.078125 6.296875 
Q 36.71875 6.296875 40.296875 9.984375 
Q 43.890625 13.671875 43.890625 20.515625 
Q 43.890625 27.203125 40.25 30.90625 
Q 36.625 34.625 30.078125 34.625 
z
M 21.484375 38.71875 
Q 15.1875 40.328125 11.640625 44.71875 
Q 8.109375 49.125 8.109375 55.328125 
Q 8.109375 64.015625 14.015625 69.109375 
Q 19.921875 74.21875 30.078125 74.21875 
Q 40.28125 74.21875 46.1875 69.109375 
Q 52.09375 64.015625 52.09375 55.328125 
Q 52.09375 49.125 48.546875 44.71875 
Q 45.015625 40.328125 38.71875 38.71875 
Q 46.046875 37.109375 49.921875 32.21875 
Q 53.8125 27.34375 53.8125 19.578125 
Q 53.8125 9.71875 47.515625 4.140625 
Q 41.21875 -1.421875 30.078125 -1.421875 
Q 18.953125 -1.421875 12.671875 4.125 
Q 6.390625 9.671875 6.390625 19.484375 
Q 6.390625 27.296875 10.265625 32.203125 
Q 14.15625 37.109375 21.484375 38.71875 
z
M 17.921875 54.390625 
Q 17.921875 48.53125 21.046875 45.453125 
Q 24.171875 42.390625 30.078125 42.390625 
Q 36.03125 42.390625 39.15625 45.453125 
Q 42.28125 48.53125 42.28125 54.390625 
Q 42.28125 60.359375 39.171875 63.484375 
Q 36.078125 66.609375 30.078125 66.609375 
Q 24.171875 66.609375 21.046875 63.453125 
Q 17.921875 60.296875 17.921875 54.390625 
z
" id="DejaVuSansMono-56"/>
       </defs>
       <use xlink:href="#DejaVuSansMono-48"/>
       <use x="60.205078" xlink:href="#DejaVuSansMono-56"/>
      </g>
      <!-- 10 -->
      <g style="fill:#262626;" transform="translate(105.192326 279.561275)scale(0.154 -0.154)">
       <use xlink:href="#DejaVuSansMono-49"/>
       <use x="60.205078" xlink:href="#DejaVuSansMono-48"/>
      </g>
     </g>
    </g>
    <g id="xtick_4">
     <g id="line2d_4">
      <path clip-path="url(#p7b4b3300da)" d="M 139.264238 240.935062 
L 139.264238 36.432187 
" style="fill:none;stroke:#cccccc;stroke-linecap:round;"/>
     </g>
     <g id="text_4">
      <!-- 10 -->
      <g style="fill:#262626;" transform="translate(129.992957 262.218469)scale(0.154 -0.154)">
       <use xlink:href="#DejaVuSansMono-49"/>
       <use x="60.205078" xlink:href="#DejaVuSansMono-48"/>
      </g>
      <!-- 10 -->
      <g style="fill:#262626;" transform="translate(129.992957 279.561275)scale(0.154 -0.154)">
       <use xlink:href="#DejaVuSansMono-49"/>
       <use x="60.205078" xlink:href="#DejaVuSansMono-48"/>
      </g>
     </g>
    </g>
    <g id="xtick_5">
     <g id="line2d_5">
      <path clip-path="url(#p7b4b3300da)" d="M 164.06487 240.935062 
L 164.06487 36.432187 
" style="fill:none;stroke:#cccccc;stroke-linecap:round;"/>
     </g>
     <g id="text_5">
      <!-- 12 -->
      <g style="fill:#262626;" transform="translate(154.793589 262.218469)scale(0.154 -0.154)">
       <defs>
        <path d="M 18.21875 8.296875 
L 51.703125 8.296875 
L 51.703125 0 
L 7.421875 0 
L 7.421875 8.296875 
Q 16.546875 17.921875 23.375 25.296875 
Q 30.21875 32.671875 32.8125 35.6875 
Q 37.703125 41.65625 39.40625 45.34375 
Q 41.109375 49.03125 41.109375 52.875 
Q 41.109375 58.984375 37.515625 62.453125 
Q 33.9375 65.921875 27.6875 65.921875 
Q 23.25 65.921875 18.359375 64.3125 
Q 13.484375 62.703125 8.015625 59.421875 
L 8.015625 69.390625 
Q 13.03125 71.78125 17.890625 73 
Q 22.75 74.21875 27.484375 74.21875 
Q 38.1875 74.21875 44.703125 68.53125 
Q 51.21875 62.84375 51.21875 53.609375 
Q 51.21875 48.921875 49.046875 44.234375 
Q 46.875 39.546875 42 33.890625 
Q 39.265625 30.71875 34.0625 25.09375 
Q 28.859375 19.484375 18.21875 8.296875 
z
" id="DejaVuSansMono-50"/>
       </defs>
       <use xlink:href="#DejaVuSansMono-49"/>
       <use x="60.205078" xlink:href="#DejaVuSansMono-50"/>
      </g>
      <!-- 10 -->
      <g style="fill:#262626;" transform="translate(154.793589 279.561275)scale(0.154 -0.154)">
       <use xlink:href="#DejaVuSansMono-49"/>
       <use x="60.205078" xlink:href="#DejaVuSansMono-48"/>
      </g>
     </g>
    </g>
    <g id="xtick_6">
     <g id="line2d_6">
      <path clip-path="url(#p7b4b3300da)" d="M 188.865502 240.935062 
L 188.865502 36.432187 
" style="fill:none;stroke:#cccccc;stroke-linecap:round;"/>
     </g>
     <g id="text_6">
      <!-- 14 -->
      <g style="fill:#262626;" transform="translate(179.59422 262.218469)scale(0.154 -0.154)">
       <use xlink:href="#DejaVuSansMono-49"/>
       <use x="60.205078" xlink:href="#DejaVuSansMono-52"/>
      </g>
      <!-- 10 -->
      <g style="fill:#262626;" transform="translate(179.59422 279.561275)scale(0.154 -0.154)">
       <use xlink:href="#DejaVuSansMono-49"/>
       <use x="60.205078" xlink:href="#DejaVuSansMono-48"/>
      </g>
     </g>
    </g>
    <g id="xtick_7">
     <g id="line2d_7">
      <path clip-path="url(#p7b4b3300da)" d="M 213.666133 240.935062 
L 213.666133 36.432187 
" style="fill:none;stroke:#cccccc;stroke-linecap:round;"/>
     </g>
     <g id="text_7">
      <!-- 16 -->
      <g style="fill:#262626;" transform="translate(204.394852 262.218469)scale(0.154 -0.154)">
       <use xlink:href="#DejaVuSansMono-49"/>
       <use x="60.205078" xlink:href="#DejaVuSansMono-54"/>
      </g>
      <!-- 10 -->
      <g style="fill:#262626;" transform="translate(204.394852 279.561275)scale(0.154 -0.154)">
       <use xlink:href="#DejaVuSansMono-49"/>
       <use x="60.205078" xlink:href="#DejaVuSansMono-48"/>
      </g>
     </g>
    </g>
    <g id="xtick_8">
     <g id="line2d_8">
      <path clip-path="url(#p7b4b3300da)" d="M 238.466765 240.935062 
L 238.466765 36.432187 
" style="fill:none;stroke:#cccccc;stroke-linecap:round;"/>
     </g>
     <g id="text_8">
      <!-- 18 -->
      <g style="fill:#262626;" transform="translate(229.195484 262.218469)scale(0.154 -0.154)">
       <use xlink:href="#DejaVuSansMono-49"/>
       <use x="60.205078" xlink:href="#DejaVuSansMono-56"/>
      </g>
      <!-- 10 -->
      <g style="fill:#262626;" transform="translate(229.195484 279.561275)scale(0.154 -0.154)">
       <use xlink:href="#DejaVuSansMono-49"/>
       <use x="60.205078" xlink:href="#DejaVuSansMono-48"/>
      </g>
     </g>
    </g>
    <g id="xtick_9">
     <g id="line2d_9">
      <path clip-path="url(#p7b4b3300da)" d="M 263.267396 240.935062 
L 263.267396 36.432187 
" style="fill:none;stroke:#cccccc;stroke-linecap:round;"/>
     </g>
     <g id="text_9">
      <!-- 20 -->
      <g style="fill:#262626;" transform="translate(253.996115 262.218469)scale(0.154 -0.154)">
       <use xlink:href="#DejaVuSansMono-50"/>
       <use x="60.205078" xlink:href="#DejaVuSansMono-48"/>
      </g>
      <!-- 10 -->
      <g style="fill:#262626;" transform="translate(253.996115 279.561275)scale(0.154 -0.154)">
       <use xlink:href="#DejaVuSansMono-49"/>
       <use x="60.205078" xlink:href="#DejaVuSansMono-48"/>
      </g>
     </g>
    </g>
    <g id="xtick_10">
     <g id="line2d_10">
      <path clip-path="url(#p7b4b3300da)" d="M 288.068028 240.935062 
L 288.068028 36.432187 
" style="fill:none;stroke:#cccccc;stroke-linecap:round;"/>
     </g>
     <g id="text_10">
      <!-- 22 -->
      <g style="fill:#262626;" transform="translate(278.796747 262.218469)scale(0.154 -0.154)">
       <use xlink:href="#DejaVuSansMono-50"/>
       <use x="60.205078" xlink:href="#DejaVuSansMono-50"/>
      </g>
      <!-- 10 -->
      <g style="fill:#262626;" transform="translate(278.796747 279.561275)scale(0.154 -0.154)">
       <use xlink:href="#DejaVuSansMono-49"/>
       <use x="60.205078" xlink:href="#DejaVuSansMono-48"/>
      </g>
     </g>
    </g>
    <g id="xtick_11">
     <g id="line2d_11">
      <path clip-path="url(#p7b4b3300da)" d="M 312.86866 240.935062 
L 312.86866 36.432187 
" style="fill:none;stroke:#cccccc;stroke-linecap:round;"/>
     </g>
     <g id="text_11">
      <!-- 24 -->
      <g style="fill:#262626;" transform="translate(303.597378 262.218469)scale(0.154 -0.154)">
       <use xlink:href="#DejaVuSansMono-50"/>
       <use x="60.205078" xlink:href="#DejaVuSansMono-52"/>
      </g>
      <!-- 10 -->
      <g style="fill:#262626;" transform="translate(303.597378 279.561275)scale(0.154 -0.154)">
       <use xlink:href="#DejaVuSansMono-49"/>
       <use x="60.205078" xlink:href="#DejaVuSansMono-48"/>
      </g>
     </g>
    </g>
    <g id="xtick_12">
     <g id="line2d_12">
      <path clip-path="url(#p7b4b3300da)" d="M 337.669291 240.935062 
L 337.669291 36.432187 
" style="fill:none;stroke:#cccccc;stroke-linecap:round;"/>
     </g>
     <g id="text_12">
      <!-- 26 -->
      <g style="fill:#262626;" transform="translate(328.39801 262.218469)scale(0.154 -0.154)">
       <use xlink:href="#DejaVuSansMono-50"/>
       <use x="60.205078" xlink:href="#DejaVuSansMono-54"/>
      </g>
      <!-- 10 -->
      <g style="fill:#262626;" transform="translate(328.39801 279.561275)scale(0.154 -0.154)">
       <use xlink:href="#DejaVuSansMono-49"/>
       <use x="60.205078" xlink:href="#DejaVuSansMono-48"/>
      </g>
     </g>
    </g>
    <g id="xtick_13">
     <g id="line2d_13">
      <path clip-path="url(#p7b4b3300da)" d="M 362.469923 240.935062 
L 362.469923 36.432187 
" style="fill:none;stroke:#cccccc;stroke-linecap:round;"/>
     </g>
     <g id="text_13">
      <!-- 28 -->
      <g style="fill:#262626;" transform="translate(353.198641 262.218469)scale(0.154 -0.154)">
       <use xlink:href="#DejaVuSansMono-50"/>
       <use x="60.205078" xlink:href="#DejaVuSansMono-56"/>
      </g>
      <!-- 10 -->
      <g style="fill:#262626;" transform="translate(353.198641 279.561275)scale(0.154 -0.154)">
       <use xlink:href="#DejaVuSansMono-49"/>
       <use x="60.205078" xlink:href="#DejaVuSansMono-48"/>
      </g>
     </g>
    </g>
    <g id="xtick_14">
     <g id="line2d_14">
      <path clip-path="url(#p7b4b3300da)" d="M 387.270554 240.935062 
L 387.270554 36.432187 
" style="fill:none;stroke:#cccccc;stroke-linecap:round;"/>
     </g>
     <g id="text_14">
      <!-- 30 -->
      <g style="fill:#262626;" transform="translate(377.999273 262.218469)scale(0.154 -0.154)">
       <defs>
        <path d="M 37.890625 39.015625 
Q 45.0625 37.109375 48.875 32.25 
Q 52.6875 27.390625 52.6875 20.125 
Q 52.6875 10.0625 45.921875 4.3125 
Q 39.15625 -1.421875 27.203125 -1.421875 
Q 22.171875 -1.421875 16.9375 -0.484375 
Q 11.71875 0.4375 6.6875 2.203125 
L 6.6875 12.015625 
Q 11.671875 9.421875 16.5 8.15625 
Q 21.34375 6.890625 26.125 6.890625 
Q 34.234375 6.890625 38.578125 10.546875 
Q 42.921875 14.203125 42.921875 21.09375 
Q 42.921875 27.4375 38.578125 31.171875 
Q 34.234375 34.90625 26.8125 34.90625 
L 19.28125 34.90625 
L 19.28125 43.015625 
L 26.8125 43.015625 
Q 33.59375 43.015625 37.40625 45.984375 
Q 41.21875 48.96875 41.21875 54.296875 
Q 41.21875 59.90625 37.671875 62.90625 
Q 34.125 65.921875 27.59375 65.921875 
Q 23.25 65.921875 18.609375 64.9375 
Q 13.96875 63.96875 8.890625 62.015625 
L 8.890625 71.09375 
Q 14.796875 72.65625 19.40625 73.4375 
Q 24.03125 74.21875 27.59375 74.21875 
Q 38.234375 74.21875 44.609375 68.875 
Q 50.984375 63.53125 50.984375 54.6875 
Q 50.984375 48.6875 47.625 44.671875 
Q 44.28125 40.671875 37.890625 39.015625 
z
" id="DejaVuSansMono-51"/>
       </defs>
       <use xlink:href="#DejaVuSansMono-51"/>
       <use x="60.205078" xlink:href="#DejaVuSansMono-48"/>
      </g>
      <!-- 10 -->
      <g style="fill:#262626;" transform="translate(377.999273 279.561275)scale(0.154 -0.154)">
       <use xlink:href="#DejaVuSansMono-49"/>
       <use x="60.205078" xlink:href="#DejaVuSansMono-48"/>
      </g>
     </g>
    </g>
    <g id="xtick_15">
     <g id="line2d_15">
      <path clip-path="url(#p7b4b3300da)" d="M 412.071186 240.935062 
L 412.071186 36.432187 
" style="fill:none;stroke:#cccccc;stroke-linecap:round;"/>
     </g>
     <g id="text_15">
      <!-- 01 -->
      <g style="fill:#262626;" transform="translate(402.799905 262.218469)scale(0.154 -0.154)">
       <use xlink:href="#DejaVuSansMono-48"/>
       <use x="60.205078" xlink:href="#DejaVuSansMono-49"/>
      </g>
      <!-- 11 -->
      <g style="fill:#262626;" transform="translate(402.799905 279.561275)scale(0.154 -0.154)">
       <use xlink:href="#DejaVuSansMono-49"/>
       <use x="60.205078" xlink:href="#DejaVuSansMono-49"/>
      </g>
     </g>
    </g>
    <g id="xtick_16">
     <g id="line2d_16">
      <path clip-path="url(#p7b4b3300da)" d="M 436.871817 240.935062 
L 436.871817 36.432187 
" style="fill:none;stroke:#cccccc;stroke-linecap:round;"/>
     </g>
     <g id="text_16">
      <!-- 03 -->
      <g style="fill:#262626;" transform="translate(427.600536 262.218469)scale(0.154 -0.154)">
       <use xlink:href="#DejaVuSansMono-48"/>
       <use x="60.205078" xlink:href="#DejaVuSansMono-51"/>
      </g>
      <!-- 11 -->
      <g style="fill:#262626;" transform="translate(427.600536 279.561275)scale(0.154 -0.154)">
       <use xlink:href="#DejaVuSansMono-49"/>
       <use x="60.205078" xlink:href="#DejaVuSansMono-49"/>
      </g>
     </g>
    </g>
    <g id="xtick_17">
     <g id="line2d_17">
      <path clip-path="url(#p7b4b3300da)" d="M 461.672449 240.935062 
L 461.672449 36.432187 
" style="fill:none;stroke:#cccccc;stroke-linecap:round;"/>
     </g>
     <g id="text_17">
      <!-- 05 -->
      <g style="fill:#262626;" transform="translate(452.401168 262.218469)scale(0.154 -0.154)">
       <defs>
        <path d="M 10.109375 72.90625 
L 47.015625 72.90625 
L 47.015625 64.59375 
L 19.09375 64.59375 
L 19.09375 46.6875 
Q 21.1875 47.46875 23.3125 47.828125 
Q 25.4375 48.1875 27.59375 48.1875 
Q 38.921875 48.1875 45.5625 41.5 
Q 52.203125 34.8125 52.203125 23.390625 
Q 52.203125 11.859375 45.234375 5.21875 
Q 38.28125 -1.421875 26.21875 -1.421875 
Q 20.40625 -1.421875 15.59375 -0.640625 
Q 10.796875 0.140625 6.984375 1.703125 
L 6.984375 11.71875 
Q 11.46875 9.28125 16.015625 8.078125 
Q 20.5625 6.890625 25.296875 6.890625 
Q 33.453125 6.890625 37.859375 11.1875 
Q 42.28125 15.484375 42.28125 23.390625 
Q 42.28125 31.203125 37.71875 35.546875 
Q 33.15625 39.890625 25 39.890625 
Q 21.046875 39.890625 17.28125 38.984375 
Q 13.53125 38.09375 10.109375 36.28125 
z
" id="DejaVuSansMono-53"/>
       </defs>
       <use xlink:href="#DejaVuSansMono-48"/>
       <use x="60.205078" xlink:href="#DejaVuSansMono-53"/>
      </g>
      <!-- 11 -->
      <g style="fill:#262626;" transform="translate(452.401168 279.561275)scale(0.154 -0.154)">
       <use xlink:href="#DejaVuSansMono-49"/>
       <use x="60.205078" xlink:href="#DejaVuSansMono-49"/>
      </g>
     </g>
    </g>
    <g id="xtick_18">
     <g id="line2d_18">
      <path clip-path="url(#p7b4b3300da)" d="M 486.473081 240.935062 
L 486.473081 36.432187 
" style="fill:none;stroke:#cccccc;stroke-linecap:round;"/>
     </g>
     <g id="text_18">
      <!-- 07 -->
      <g style="fill:#262626;" transform="translate(477.201799 262.218469)scale(0.154 -0.154)">
       <defs>
        <path d="M 6.78125 72.90625 
L 52.6875 72.90625 
L 52.6875 68.703125 
L 26.609375 0 
L 16.3125 0 
L 41.703125 64.59375 
L 6.78125 64.59375 
z
" id="DejaVuSansMono-55"/>
       </defs>
       <use xlink:href="#DejaVuSansMono-48"/>
       <use x="60.205078" xlink:href="#DejaVuSansMono-55"/>
      </g>
      <!-- 11 -->
      <g style="fill:#262626;" transform="translate(477.201799 279.561275)scale(0.154 -0.154)">
       <use xlink:href="#DejaVuSansMono-49"/>
       <use x="60.205078" xlink:href="#DejaVuSansMono-49"/>
      </g>
     </g>
    </g>
    <g id="xtick_19">
     <g id="line2d_19">
      <path clip-path="url(#p7b4b3300da)" d="M 511.273712 240.935062 
L 511.273712 36.432187 
" style="fill:none;stroke:#cccccc;stroke-linecap:round;"/>
     </g>
     <g id="text_19">
      <!-- 09 -->
      <g style="fill:#262626;" transform="translate(502.002431 262.218469)scale(0.154 -0.154)">
       <defs>
        <path d="M 29.109375 32.328125 
Q 35.40625 32.328125 38.984375 36.859375 
Q 42.578125 41.40625 42.578125 49.421875 
Q 42.578125 57.421875 38.984375 61.953125 
Q 35.40625 66.5 29.109375 66.5 
Q 22.5625 66.5 19.234375 62.171875 
Q 15.921875 57.859375 15.921875 49.421875 
Q 15.921875 40.921875 19.21875 36.625 
Q 22.515625 32.328125 29.109375 32.328125 
z
M 11.53125 1.515625 
L 11.53125 10.59375 
Q 14.59375 8.796875 18.0625 7.84375 
Q 21.53125 6.890625 25.296875 6.890625 
Q 34.671875 6.890625 39.46875 13.9375 
Q 44.28125 21 44.28125 34.71875 
Q 42 29.828125 37.84375 27.21875 
Q 33.6875 24.609375 28.328125 24.609375 
Q 17.78125 24.609375 11.984375 31.09375 
Q 6.203125 37.59375 6.203125 49.515625 
Q 6.203125 61.28125 12.125 67.75 
Q 18.0625 74.21875 28.90625 74.21875 
Q 41.609375 74.21875 47.515625 65.078125 
Q 53.421875 55.953125 53.421875 36.375 
Q 53.421875 17.96875 46.3125 8.265625 
Q 39.203125 -1.421875 25.6875 -1.421875 
Q 22.125 -1.421875 18.5 -0.65625 
Q 14.890625 0.09375 11.53125 1.515625 
z
" id="DejaVuSansMono-57"/>
       </defs>
       <use xlink:href="#DejaVuSansMono-48"/>
       <use x="60.205078" xlink:href="#DejaVuSansMono-57"/>
      </g>
      <!-- 11 -->
      <g style="fill:#262626;" transform="translate(502.002431 279.561275)scale(0.154 -0.154)">
       <use xlink:href="#DejaVuSansMono-49"/>
       <use x="60.205078" xlink:href="#DejaVuSansMono-49"/>
      </g>
     </g>
    </g>
    <g id="xtick_20">
     <g id="line2d_20">
      <path clip-path="url(#p7b4b3300da)" d="M 536.074344 240.935062 
L 536.074344 36.432187 
" style="fill:none;stroke:#cccccc;stroke-linecap:round;"/>
     </g>
     <g id="text_20">
      <!-- 11 -->
      <g style="fill:#262626;" transform="translate(526.803063 262.218469)scale(0.154 -0.154)">
       <use xlink:href="#DejaVuSansMono-49"/>
       <use x="60.205078" xlink:href="#DejaVuSansMono-49"/>
      </g>
      <!-- 11 -->
      <g style="fill:#262626;" transform="translate(526.803063 279.561275)scale(0.154 -0.154)">
       <use xlink:href="#DejaVuSansMono-49"/>
       <use x="60.205078" xlink:href="#DejaVuSansMono-49"/>
      </g>
     </g>
    </g>
    <g id="text_21">
     <!-- Date -->
     <g style="fill:#262626;" transform="translate(280.240094 299.618619)scale(0.168 -0.168)">
      <defs>
       <path d="M 21.296875 8.109375 
Q 33.734375 8.109375 38.671875 14.234375 
Q 43.609375 20.359375 43.609375 36.375 
Q 43.609375 52.546875 38.703125 58.671875 
Q 33.796875 64.796875 21.296875 64.796875 
L 16.609375 64.796875 
L 16.609375 8.109375 
z
M 21.484375 72.90625 
Q 38.1875 72.90625 46.09375 64.015625 
Q 54 55.125 54 36.375 
Q 54 17.71875 46.09375 8.859375 
Q 38.1875 0 21.484375 0 
L 6.6875 0 
L 6.6875 72.90625 
z
" id="DejaVuSansMono-68"/>
       <path d="M 34.28125 27.484375 
L 31.296875 27.484375 
Q 23.4375 27.484375 19.453125 24.71875 
Q 15.484375 21.96875 15.484375 16.5 
Q 15.484375 11.578125 18.453125 8.84375 
Q 21.4375 6.109375 26.703125 6.109375 
Q 34.125 6.109375 38.375 11.25 
Q 42.625 16.40625 42.671875 25.484375 
L 42.671875 27.484375 
z
M 51.703125 31.203125 
L 51.703125 0 
L 42.671875 0 
L 42.671875 8.109375 
Q 39.796875 3.21875 35.421875 0.890625 
Q 31.0625 -1.421875 24.8125 -1.421875 
Q 16.453125 -1.421875 11.46875 3.296875 
Q 6.5 8.015625 6.5 15.921875 
Q 6.5 25.046875 12.625 29.78125 
Q 18.75 34.515625 30.609375 34.515625 
L 42.671875 34.515625 
L 42.671875 35.9375 
Q 42.625 42.484375 39.34375 45.4375 
Q 36.078125 48.390625 28.90625 48.390625 
Q 24.3125 48.390625 19.625 47.0625 
Q 14.9375 45.75 10.5 43.21875 
L 10.5 52.203125 
Q 15.484375 54.109375 20.046875 55.046875 
Q 24.609375 56 28.90625 56 
Q 35.6875 56 40.5 54 
Q 45.3125 52 48.296875 48 
Q 50.140625 45.5625 50.921875 41.96875 
Q 51.703125 38.375 51.703125 31.203125 
z
" id="DejaVuSansMono-97"/>
       <path d="M 29.984375 70.21875 
L 29.984375 54.6875 
L 50.390625 54.6875 
L 50.390625 47.703125 
L 29.984375 47.703125 
L 29.984375 18.015625 
Q 29.984375 11.96875 32.28125 9.5625 
Q 34.578125 7.171875 40.28125 7.171875 
L 50.390625 7.171875 
L 50.390625 0 
L 39.40625 0 
Q 29.296875 0 25.140625 4.046875 
Q 21 8.109375 21 18.015625 
L 21 47.703125 
L 6.390625 47.703125 
L 6.390625 54.6875 
L 21 54.6875 
L 21 70.21875 
z
" id="DejaVuSansMono-116"/>
       <path d="M 54.296875 29.59375 
L 54.296875 25.203125 
L 15.375 25.203125 
L 15.375 24.90625 
Q 15.375 15.96875 20.03125 11.078125 
Q 24.703125 6.203125 33.203125 6.203125 
Q 37.5 6.203125 42.1875 7.5625 
Q 46.875 8.9375 52.203125 11.71875 
L 52.203125 2.78125 
Q 47.078125 0.6875 42.3125 -0.359375 
Q 37.546875 -1.421875 33.109375 -1.421875 
Q 20.359375 -1.421875 13.171875 6.21875 
Q 6 13.875 6 27.296875 
Q 6 40.375 13.03125 48.1875 
Q 20.0625 56 31.78125 56 
Q 42.234375 56 48.265625 48.921875 
Q 54.296875 41.84375 54.296875 29.59375 
z
M 45.3125 32.234375 
Q 45.125 40.140625 41.578125 44.265625 
Q 38.03125 48.390625 31.390625 48.390625 
Q 24.90625 48.390625 20.703125 44.09375 
Q 16.5 39.796875 15.71875 32.171875 
z
" id="DejaVuSansMono-101"/>
      </defs>
      <use xlink:href="#DejaVuSansMono-68"/>
      <use x="60.205078" xlink:href="#DejaVuSansMono-97"/>
      <use x="120.410156" xlink:href="#DejaVuSansMono-116"/>
      <use x="180.615234" xlink:href="#DejaVuSansMono-101"/>
     </g>
    </g>
   </g>
   <g id="matplotlib.axis_2">
    <g id="ytick_1">
     <g id="line2d_21">
      <path clip-path="url(#p7b4b3300da)" d="M 64.862344 240.935062 
L 536.074344 240.935062 
" style="fill:none;stroke:#cccccc;stroke-linecap:round;"/>
     </g>
     <g id="text_22">
      <!-- 0.0 -->
      <g style="fill:#262626;" transform="translate(27.5485 246.826766)scale(0.154 -0.154)">
       <defs>
        <path d="M 23.875 14.890625 
L 36.1875 14.890625 
L 36.1875 0 
L 23.875 0 
z
" id="DejaVuSansMono-46"/>
       </defs>
       <use xlink:href="#DejaVuSansMono-48"/>
       <use x="60.205078" xlink:href="#DejaVuSansMono-46"/>
       <use x="120.410156" xlink:href="#DejaVuSansMono-48"/>
      </g>
     </g>
    </g>
    <g id="ytick_2">
     <g id="line2d_22">
      <path clip-path="url(#p7b4b3300da)" d="M 64.862344 200.034487 
L 536.074344 200.034487 
" style="fill:none;stroke:#cccccc;stroke-linecap:round;"/>
     </g>
     <g id="text_23">
      <!-- 0.2 -->
      <g style="fill:#262626;" transform="translate(27.5485 205.926191)scale(0.154 -0.154)">
       <use xlink:href="#DejaVuSansMono-48"/>
       <use x="60.205078" xlink:href="#DejaVuSansMono-46"/>
       <use x="120.410156" xlink:href="#DejaVuSansMono-50"/>
      </g>
     </g>
    </g>
    <g id="ytick_3">
     <g id="line2d_23">
      <path clip-path="url(#p7b4b3300da)" d="M 64.862344 159.133912 
L 536.074344 159.133912 
" style="fill:none;stroke:#cccccc;stroke-linecap:round;"/>
     </g>
     <g id="text_24">
      <!-- 0.4 -->
      <g style="fill:#262626;" transform="translate(27.5485 165.025616)scale(0.154 -0.154)">
       <use xlink:href="#DejaVuSansMono-48"/>
       <use x="60.205078" xlink:href="#DejaVuSansMono-46"/>
       <use x="120.410156" xlink:href="#DejaVuSansMono-52"/>
      </g>
     </g>
    </g>
    <g id="ytick_4">
     <g id="line2d_24">
      <path clip-path="url(#p7b4b3300da)" d="M 64.862344 118.233337 
L 536.074344 118.233337 
" style="fill:none;stroke:#cccccc;stroke-linecap:round;"/>
     </g>
     <g id="text_25">
      <!-- 0.6 -->
      <g style="fill:#262626;" transform="translate(27.5485 124.125041)scale(0.154 -0.154)">
       <use xlink:href="#DejaVuSansMono-48"/>
       <use x="60.205078" xlink:href="#DejaVuSansMono-46"/>
       <use x="120.410156" xlink:href="#DejaVuSansMono-54"/>
      </g>
     </g>
    </g>
    <g id="ytick_5">
     <g id="line2d_25">
      <path clip-path="url(#p7b4b3300da)" d="M 64.862344 77.332762 
L 536.074344 77.332762 
" style="fill:none;stroke:#cccccc;stroke-linecap:round;"/>
     </g>
     <g id="text_26">
      <!-- 0.8 -->
      <g style="fill:#262626;" transform="translate(27.5485 83.224466)scale(0.154 -0.154)">
       <use xlink:href="#DejaVuSansMono-48"/>
       <use x="60.205078" xlink:href="#DejaVuSansMono-46"/>
       <use x="120.410156" xlink:href="#DejaVuSansMono-56"/>
      </g>
     </g>
    </g>
    <g id="ytick_6">
     <g id="line2d_26">
      <path clip-path="url(#p7b4b3300da)" d="M 64.862344 36.432187 
L 536.074344 36.432187 
" style="fill:none;stroke:#cccccc;stroke-linecap:round;"/>
     </g>
     <g id="text_27">
      <!-- 1.0 -->
      <g style="fill:#262626;" transform="translate(27.5485 42.323891)scale(0.154 -0.154)">
       <use xlink:href="#DejaVuSansMono-49"/>
       <use x="60.205078" xlink:href="#DejaVuSansMono-46"/>
       <use x="120.410156" xlink:href="#DejaVuSansMono-48"/>
      </g>
     </g>
    </g>
    <g id="text_28">
     <!-- Proportion of interactions -->
     <g style="fill:#262626;" transform="translate(20.054625 270.16725)rotate(-90)scale(0.168 -0.168)">
      <defs>
       <path d="M 19.484375 64.796875 
L 19.484375 37.40625 
L 30.90625 37.40625 
Q 37.75 37.40625 41.578125 41.015625 
Q 45.40625 44.625 45.40625 51.125 
Q 45.40625 57.625 41.59375 61.203125 
Q 37.796875 64.796875 30.90625 64.796875 
z
M 9.625 72.90625 
L 30.90625 72.90625 
Q 43.109375 72.90625 49.40625 67.359375 
Q 55.71875 61.8125 55.71875 51.125 
Q 55.71875 40.328125 49.4375 34.8125 
Q 43.171875 29.296875 30.90625 29.296875 
L 19.484375 29.296875 
L 19.484375 0 
L 9.625 0 
z
" id="DejaVuSansMono-80"/>
       <path d="M 56.390625 43.40625 
Q 53.515625 45.65625 50.53125 46.671875 
Q 47.5625 47.703125 44 47.703125 
Q 35.59375 47.703125 31.140625 42.421875 
Q 26.703125 37.15625 26.703125 27.203125 
L 26.703125 0 
L 17.671875 0 
L 17.671875 54.6875 
L 26.703125 54.6875 
L 26.703125 44 
Q 28.953125 49.8125 33.609375 52.90625 
Q 38.28125 56 44.671875 56 
Q 48 56 50.875 55.171875 
Q 53.765625 54.34375 56.390625 52.59375 
z
" id="DejaVuSansMono-114"/>
       <path d="M 30.078125 48.390625 
Q 23.25 48.390625 19.734375 43.0625 
Q 16.21875 37.75 16.21875 27.296875 
Q 16.21875 16.890625 19.734375 11.546875 
Q 23.25 6.203125 30.078125 6.203125 
Q 36.96875 6.203125 40.484375 11.546875 
Q 44 16.890625 44 27.296875 
Q 44 37.75 40.484375 43.0625 
Q 36.96875 48.390625 30.078125 48.390625 
z
M 30.078125 56 
Q 41.453125 56 47.484375 48.625 
Q 53.515625 41.265625 53.515625 27.296875 
Q 53.515625 13.28125 47.5 5.921875 
Q 41.5 -1.421875 30.078125 -1.421875 
Q 18.703125 -1.421875 12.6875 5.921875 
Q 6.6875 13.28125 6.6875 27.296875 
Q 6.6875 41.265625 12.6875 48.625 
Q 18.703125 56 30.078125 56 
z
" id="DejaVuSansMono-111"/>
       <path d="M 18.3125 6.890625 
L 18.3125 -20.796875 
L 9.28125 -20.796875 
L 9.28125 54.6875 
L 18.3125 54.6875 
L 18.3125 47.703125 
Q 20.5625 51.765625 24.296875 53.875 
Q 28.03125 56 32.90625 56 
Q 42.828125 56 48.46875 48.328125 
Q 54.109375 40.671875 54.109375 27.09375 
Q 54.109375 13.765625 48.4375 6.171875 
Q 42.78125 -1.421875 32.90625 -1.421875 
Q 27.9375 -1.421875 24.1875 0.703125 
Q 20.453125 2.828125 18.3125 6.890625 
z
M 44.671875 27.296875 
Q 44.671875 37.75 41.375 43.0625 
Q 38.09375 48.390625 31.59375 48.390625 
Q 25.046875 48.390625 21.671875 43.046875 
Q 18.3125 37.703125 18.3125 27.296875 
Q 18.3125 16.9375 21.671875 11.5625 
Q 25.046875 6.203125 31.59375 6.203125 
Q 38.09375 6.203125 41.375 11.515625 
Q 44.671875 16.84375 44.671875 27.296875 
z
" id="DejaVuSansMono-112"/>
       <path d="M 12.5 54.6875 
L 35.5 54.6875 
L 35.5 6.984375 
L 53.328125 6.984375 
L 53.328125 0 
L 8.6875 0 
L 8.6875 6.984375 
L 26.515625 6.984375 
L 26.515625 47.703125 
L 12.5 47.703125 
z
M 26.515625 75.984375 
L 35.5 75.984375 
L 35.5 64.59375 
L 26.515625 64.59375 
z
" id="DejaVuSansMono-105"/>
       <path d="M 51.3125 33.890625 
L 51.3125 0 
L 42.28125 0 
L 42.28125 33.890625 
Q 42.28125 41.265625 39.6875 44.71875 
Q 37.109375 48.1875 31.59375 48.1875 
Q 25.296875 48.1875 21.890625 43.71875 
Q 18.5 39.265625 18.5 30.90625 
L 18.5 0 
L 9.515625 0 
L 9.515625 54.6875 
L 18.5 54.6875 
L 18.5 46.484375 
Q 20.90625 51.171875 25 53.578125 
Q 29.109375 56 34.71875 56 
Q 43.0625 56 47.1875 50.5 
Q 51.3125 45.015625 51.3125 33.890625 
z
" id="DejaVuSansMono-110"/>
       <path id="DejaVuSansMono-32"/>
       <path d="M 51.90625 75.984375 
L 51.90625 68.5 
L 41.703125 68.5 
Q 36.859375 68.5 34.984375 66.515625 
Q 33.109375 64.546875 33.109375 59.515625 
L 33.109375 54.6875 
L 51.90625 54.6875 
L 51.90625 47.703125 
L 33.109375 47.703125 
L 33.109375 0 
L 24.125 0 
L 24.125 47.703125 
L 9.515625 47.703125 
L 9.515625 54.6875 
L 24.125 54.6875 
L 24.125 58.5 
Q 24.125 67.484375 28.25 71.734375 
Q 32.375 75.984375 41.109375 75.984375 
z
" id="DejaVuSansMono-102"/>
       <path d="M 51.8125 2.78125 
Q 48.1875 0.6875 44.359375 -0.359375 
Q 40.53125 -1.421875 36.53125 -1.421875 
Q 23.828125 -1.421875 16.671875 6.1875 
Q 9.515625 13.8125 9.515625 27.296875 
Q 9.515625 40.765625 16.671875 48.375 
Q 23.828125 56 36.53125 56 
Q 40.484375 56 44.234375 54.96875 
Q 48 53.953125 51.8125 51.8125 
L 51.8125 42.390625 
Q 48.25 45.5625 44.65625 46.96875 
Q 41.0625 48.390625 36.53125 48.390625 
Q 28.078125 48.390625 23.53125 42.921875 
Q 19 37.453125 19 27.296875 
Q 19 17.1875 23.5625 11.6875 
Q 28.125 6.203125 36.53125 6.203125 
Q 41.21875 6.203125 44.921875 7.640625 
Q 48.640625 9.078125 51.8125 12.109375 
z
" id="DejaVuSansMono-99"/>
       <path d="M 47.515625 52.78125 
L 47.515625 44 
Q 43.65625 46.234375 39.75 47.359375 
Q 35.84375 48.484375 31.78125 48.484375 
Q 25.6875 48.484375 22.671875 46.5 
Q 19.671875 44.53125 19.671875 40.484375 
Q 19.671875 36.8125 21.921875 35 
Q 24.171875 33.203125 33.109375 31.5 
L 36.71875 30.8125 
Q 43.40625 29.546875 46.84375 25.734375 
Q 50.296875 21.921875 50.296875 15.828125 
Q 50.296875 7.71875 44.53125 3.140625 
Q 38.765625 -1.421875 28.515625 -1.421875 
Q 24.46875 -1.421875 20.015625 -0.5625 
Q 15.578125 0.296875 10.40625 2 
L 10.40625 11.28125 
Q 15.4375 8.6875 20.015625 7.390625 
Q 24.609375 6.109375 28.71875 6.109375 
Q 34.671875 6.109375 37.9375 8.515625 
Q 41.21875 10.9375 41.21875 15.28125 
Q 41.21875 21.53125 29.25 23.921875 
L 28.859375 24.03125 
L 25.484375 24.703125 
Q 17.71875 26.21875 14.15625 29.8125 
Q 10.59375 33.40625 10.59375 39.59375 
Q 10.59375 47.46875 15.90625 51.734375 
Q 21.234375 56 31.109375 56 
Q 35.5 56 39.546875 55.1875 
Q 43.609375 54.390625 47.515625 52.78125 
z
" id="DejaVuSansMono-115"/>
      </defs>
      <use xlink:href="#DejaVuSansMono-80"/>
      <use x="60.205078" xlink:href="#DejaVuSansMono-114"/>
      <use x="120.410156" xlink:href="#DejaVuSansMono-111"/>
      <use x="180.615234" xlink:href="#DejaVuSansMono-112"/>
      <use x="240.820312" xlink:href="#DejaVuSansMono-111"/>
      <use x="301.025391" xlink:href="#DejaVuSansMono-114"/>
      <use x="361.230469" xlink:href="#DejaVuSansMono-116"/>
      <use x="421.435547" xlink:href="#DejaVuSansMono-105"/>
      <use x="481.640625" xlink:href="#DejaVuSansMono-111"/>
      <use x="541.845703" xlink:href="#DejaVuSansMono-110"/>
      <use x="602.050781" xlink:href="#DejaVuSansMono-32"/>
      <use x="662.255859" xlink:href="#DejaVuSansMono-111"/>
      <use x="722.460938" xlink:href="#DejaVuSansMono-102"/>
      <use x="782.666016" xlink:href="#DejaVuSansMono-32"/>
      <use x="842.871094" xlink:href="#DejaVuSansMono-105"/>
      <use x="903.076172" xlink:href="#DejaVuSansMono-110"/>
      <use x="963.28125" xlink:href="#DejaVuSansMono-116"/>
      <use x="1023.486328" xlink:href="#DejaVuSansMono-101"/>
      <use x="1083.691406" xlink:href="#DejaVuSansMono-114"/>
      <use x="1143.896484" xlink:href="#DejaVuSansMono-97"/>
      <use x="1204.101562" xlink:href="#DejaVuSansMono-99"/>
      <use x="1264.306641" xlink:href="#DejaVuSansMono-116"/>
      <use x="1324.511719" xlink:href="#DejaVuSansMono-105"/>
      <use x="1384.716797" xlink:href="#DejaVuSansMono-111"/>
      <use x="1444.921875" xlink:href="#DejaVuSansMono-110"/>
      <use x="1505.126953" xlink:href="#DejaVuSansMono-115"/>
     </g>
    </g>
   </g>
   <g id="PolyCollection_1">
    <defs>
     <path d="M 47.98112 -137.546078 
L 47.98112 -69.377431 
L 50.51868 -69.377431 
L 53.05624 -69.377431 
L 55.5938 -69.377431 
L 58.13136 -69.377431 
L 60.66892 -69.377431 
L 63.20648 -69.377431 
L 65.74404 -69.377431 
L 68.2816 -69.377431 
L 70.81916 -69.377431 
L 73.35672 -69.377431 
L 75.89428 -69.377431 
L 78.43184 -69.377431 
L 80.9694 -69.377431 
L 83.50696 -69.377431 
L 86.04452 -69.377431 
L 88.58208 -69.377431 
L 91.119641 -69.377431 
L 93.657201 -69.377431 
L 96.194761 -69.377431 
L 98.732321 -69.377431 
L 101.269881 -69.377431 
L 103.807441 -69.377431 
L 106.345001 -69.377431 
L 108.882561 -69.377431 
L 111.420121 -69.377431 
L 113.957681 -69.377431 
L 116.495241 -69.377431 
L 119.032801 -69.377431 
L 121.570361 -69.377431 
L 124.107921 -69.377431 
L 126.645481 -69.377431 
L 129.183041 -69.377431 
L 131.720601 -69.377431 
L 134.258161 -69.377431 
L 136.795721 -69.377431 
L 139.333281 -69.377431 
L 141.870841 -69.377431 
L 144.408401 -69.377431 
L 146.945961 -69.377431 
L 149.483521 -69.377431 
L 152.021081 -69.377431 
L 154.558641 -69.377431 
L 157.096202 -69.377431 
L 159.633762 -69.377431 
L 162.171322 -69.377431 
L 164.708882 -69.377431 
L 167.246442 -69.377431 
L 169.784002 -69.377431 
L 172.321562 -69.377431 
L 174.859122 -69.377431 
L 177.396682 -69.377431 
L 179.934242 -69.377431 
L 182.471802 -69.377431 
L 185.009362 -69.377431 
L 187.546922 -69.377431 
L 190.084482 -69.377431 
L 192.622042 -69.377431 
L 195.159602 -69.377431 
L 197.697162 -69.377431 
L 200.234722 -69.377431 
L 202.772282 -69.377431 
L 205.309842 -69.377431 
L 207.847402 -69.377431 
L 210.384962 -69.377431 
L 212.922522 -69.377431 
L 215.460082 -69.377431 
L 217.997642 -69.377431 
L 220.535203 -69.377431 
L 223.072763 -69.377431 
L 225.610323 -69.377431 
L 228.147883 -69.377431 
L 230.685443 -69.377431 
L 233.223003 -69.377431 
L 235.760563 -69.377431 
L 238.298123 -69.377431 
L 240.835683 -69.377431 
L 243.373243 -69.377431 
L 245.910803 -69.377431 
L 248.448363 -69.377431 
L 250.985923 -69.377431 
L 253.523483 -69.377431 
L 256.061043 -69.377431 
L 258.598603 -69.377431 
L 261.136163 -69.377431 
L 263.673723 -69.377431 
L 266.211283 -69.377431 
L 268.748843 -69.377431 
L 271.286403 -69.377431 
L 273.823963 -69.377431 
L 276.361523 -69.377431 
L 278.899083 -69.377431 
L 281.436643 -69.377431 
L 283.974203 -69.377431 
L 286.511764 -69.377431 
L 289.049324 -69.377431 
L 291.586884 -69.377431 
L 294.124444 -69.377431 
L 296.662004 -69.377431 
L 299.199564 -69.377431 
L 301.737124 -69.377431 
L 304.274684 -69.377431 
L 306.812244 -69.377431 
L 309.349804 -69.377431 
L 311.887364 -69.377431 
L 314.424924 -69.377431 
L 316.962484 -69.377431 
L 319.500044 -69.377431 
L 322.037604 -69.377431 
L 324.575164 -69.377431 
L 327.112724 -69.377431 
L 329.650284 -69.377431 
L 332.187844 -69.377431 
L 334.725404 -69.377431 
L 337.262964 -69.377431 
L 339.800524 -69.377431 
L 342.338084 -69.377431 
L 344.875644 -69.377431 
L 347.413204 -69.377431 
L 349.950765 -69.377431 
L 352.488325 -69.377431 
L 355.025885 -69.377431 
L 357.563445 -69.377431 
L 360.101005 -69.377431 
L 362.638565 -69.377431 
L 365.176125 -69.377431 
L 367.713685 -69.377431 
L 370.251245 -69.377431 
L 372.788805 -69.377431 
L 375.326365 -69.377431 
L 377.863925 -69.377431 
L 380.401485 -69.377431 
L 382.939045 -69.377431 
L 385.476605 -69.377431 
L 388.014165 -69.377431 
L 390.551725 -69.377431 
L 393.089285 -69.377431 
L 395.626845 -69.377431 
L 398.164405 -69.377431 
L 400.701965 -69.377431 
L 403.239525 -69.377431 
L 405.777085 -69.377431 
L 408.314645 -69.377431 
L 410.852205 -69.377431 
L 413.389765 -69.377431 
L 415.927326 -69.377431 
L 418.464886 -69.377431 
L 421.002446 -69.377431 
L 423.540006 -69.377431 
L 426.077566 -69.377431 
L 428.615126 -69.377431 
L 431.152686 -69.377431 
L 433.690246 -69.377431 
L 436.227806 -69.377431 
L 438.765366 -69.377431 
L 441.302926 -69.377431 
L 443.840486 -69.377431 
L 446.378046 -69.377431 
L 448.915606 -69.377431 
L 451.453166 -69.377431 
L 453.990726 -69.377431 
L 456.528286 -69.377431 
L 459.065846 -69.377431 
L 461.603406 -69.377431 
L 464.140966 -69.377431 
L 466.678526 -69.377431 
L 469.216086 -69.377431 
L 471.753646 -69.377431 
L 474.291206 -69.377431 
L 476.828766 -69.377431 
L 479.366327 -69.377431 
L 481.903887 -69.377431 
L 484.441447 -69.377431 
L 486.979007 -69.377431 
L 489.516567 -69.377431 
L 492.054127 -69.377431 
L 494.591687 -69.377431 
L 497.129247 -69.377431 
L 499.666807 -69.377431 
L 502.204367 -69.377431 
L 504.741927 -69.377431 
L 507.279487 -69.377431 
L 509.817047 -69.377431 
L 512.354607 -69.377431 
L 514.892167 -69.377431 
L 517.429727 -69.377431 
L 519.967287 -69.377431 
L 522.504847 -69.377431 
L 525.042407 -69.377431 
L 527.579967 -69.377431 
L 530.117527 -69.377431 
L 532.655087 -69.377431 
L 535.192647 -69.377431 
L 537.730207 -69.377431 
L 540.267767 -69.377431 
L 542.805327 -69.377431 
L 545.342888 -69.377431 
L 547.880448 -69.377431 
L 550.418008 -69.377431 
L 552.955568 -69.377431 
L 552.955568 -149.62309 
L 552.955568 -149.62309 
L 550.418008 -165.335799 
L 547.880448 -177.850897 
L 545.342888 -187.163296 
L 542.805327 -193.545047 
L 540.267767 -197.329723 
L 537.730207 -198.903983 
L 535.192647 -198.87705 
L 532.655087 -198.279294 
L 530.117527 -198.294529 
L 527.579967 -199.285516 
L 525.042407 -200.353328 
L 522.504847 -200.275604 
L 519.967287 -198.510483 
L 517.429727 -195.489405 
L 514.892167 -192.351212 
L 512.354607 -190.041089 
L 509.817047 -188.664676 
L 507.279487 -188.13876 
L 504.741927 -188.639207 
L 502.204367 -189.846365 
L 499.666807 -190.792729 
L 497.129247 -190.883281 
L 494.591687 -190.545271 
L 492.054127 -190.697693 
L 489.516567 -191.520884 
L 486.979007 -192.187093 
L 484.441447 -192.009188 
L 481.903887 -191.315852 
L 479.366327 -191.019702 
L 476.828766 -191.414709 
L 474.291206 -191.948618 
L 471.753646 -192.338345 
L 469.216086 -193.10744 
L 466.678526 -194.664825 
L 464.140966 -196.448657 
L 461.603406 -197.603612 
L 459.065846 -198.069233 
L 456.528286 -198.646632 
L 453.990726 -199.953875 
L 451.453166 -201.455974 
L 448.915606 -201.950825 
L 446.378046 -200.668471 
L 443.840486 -197.767856 
L 441.302926 -194.270574 
L 438.765366 -191.331895 
L 436.227806 -189.261939 
L 433.690246 -187.784229 
L 431.152686 -187.013571 
L 428.615126 -187.199033 
L 426.077566 -187.830323 
L 423.540006 -188.049005 
L 421.002446 -187.76721 
L 418.464886 -187.750157 
L 415.927326 -188.46707 
L 413.389765 -189.296691 
L 410.852205 -189.324241 
L 408.314645 -188.474116 
L 405.777085 -187.590633 
L 403.239525 -187.395402 
L 400.701965 -187.558392 
L 398.164405 -187.329917 
L 395.626845 -186.732506 
L 393.089285 -186.524676 
L 390.551725 -186.996382 
L 388.014165 -187.440032 
L 385.476605 -187.158201 
L 382.939045 -186.420193 
L 380.401485 -186.117411 
L 377.863925 -186.535475 
L 375.326365 -187.020675 
L 372.788805 -187.088509 
L 370.251245 -187.159985 
L 367.713685 -187.827118 
L 365.176125 -188.751141 
L 362.638565 -189.015724 
L 360.101005 -188.396847 
L 357.563445 -187.718844 
L 355.025885 -187.815159 
L 352.488325 -188.397097 
L 349.950765 -188.466089 
L 347.413204 -187.511024 
L 344.875644 -186.027616 
L 342.338084 -185.02147 
L 339.800524 -184.843492 
L 337.262964 -184.864637 
L 334.725404 -184.614405 
L 332.187844 -184.531056 
L 329.650284 -185.160366 
L 327.112724 -186.180197 
L 324.575164 -186.961242 
L 322.037604 -187.646154 
L 319.500044 -188.946136 
L 316.962484 -190.891299 
L 314.424924 -192.461311 
L 311.887364 -192.611348 
L 309.349804 -191.16835 
L 306.812244 -188.950754 
L 304.274684 -187.125316 
L 301.737124 -186.08797 
L 299.199564 -185.355689 
L 296.662004 -184.71812 
L 294.124444 -184.64081 
L 291.586884 -185.262717 
L 289.049324 -185.857369 
L 286.511764 -185.805581 
L 283.974203 -185.468972 
L 281.436643 -185.653495 
L 278.899083 -186.380534 
L 276.361523 -186.879991 
L 273.823963 -186.813808 
L 271.286403 -186.818889 
L 268.748843 -187.598852 
L 266.211283 -188.81707 
L 263.673723 -189.508836 
L 261.136163 -189.319784 
L 258.598603 -188.937738 
L 256.061043 -189.295002 
L 253.523483 -190.339902 
L 250.985923 -191.076561 
L 248.448363 -190.776331 
L 245.910803 -189.729855 
L 243.373243 -188.94024 
L 240.835683 -188.969351 
L 238.298123 -189.240274 
L 235.760563 -188.9291 
L 233.223003 -188.106238 
L 230.685443 -187.576092 
L 228.147883 -187.685237 
L 225.610323 -187.898167 
L 223.072763 -187.846657 
L 220.535203 -188.011581 
L 217.997642 -188.88065 
L 215.460082 -189.94627 
L 212.922522 -190.223186 
L 210.384962 -189.406959 
L 207.847402 -188.198087 
L 205.309842 -187.520191 
L 202.772282 -187.433973 
L 200.234722 -187.370659 
L 197.697162 -187.321676 
L 195.159602 -187.903043 
L 192.622042 -189.155932 
L 190.084482 -190.118246 
L 187.546922 -189.791411 
L 185.009362 -188.023157 
L 182.471802 -185.643085 
L 179.934242 -183.810245 
L 177.396682 -182.861696 
L 174.859122 -182.186341 
L 172.321562 -181.430394 
L 169.784002 -181.083257 
L 167.246442 -181.55545 
L 164.708882 -182.295466 
L 162.171322 -182.510505 
L 159.633762 -182.29203 
L 157.096202 -182.423692 
L 154.558641 -183.13601 
L 152.021081 -183.719969 
L 149.483521 -183.633753 
L 146.945961 -183.325307 
L 144.408401 -183.596527 
L 141.870841 -184.362105 
L 139.333281 -184.694916 
L 136.795721 -184.055553 
L 134.258161 -182.96596 
L 131.720601 -182.405481 
L 129.183041 -182.564136 
L 126.645481 -182.703521 
L 124.107921 -182.366184 
L 121.570361 -182.066783 
L 119.032801 -182.51489 
L 116.495241 -183.439886 
L 113.957681 -183.839205 
L 111.420121 -183.235424 
L 108.882561 -182.222233 
L 106.345001 -181.750757 
L 103.807441 -181.908694 
L 101.269881 -181.927368 
L 98.732321 -181.43669 
L 96.194761 -181.023816 
L 93.657201 -181.320415 
L 91.119641 -181.981374 
L 88.58208 -182.225095 
L 86.04452 -182.030162 
L 83.50696 -182.177781 
L 80.9694 -183.063439 
L 78.43184 -184.011633 
L 75.89428 -184.191981 
L 73.35672 -183.722815 
L 70.81916 -183.597228 
L 68.2816 -184.469775 
L 65.74404 -185.733494 
L 63.20648 -186.114913 
L 60.66892 -184.624358 
L 58.13136 -180.739556 
L 55.5938 -174.184725 
L 53.05624 -164.779612 
L 50.51868 -152.471979 
L 47.98112 -137.546078 
z
" id="mebb0b577a7" style="stroke:#ffffff;"/>
    </defs>
    <g clip-path="url(#p7b4b3300da)">
     <use style="fill:#008000;fill-opacity:0.7;stroke:#ffffff;" x="0" xlink:href="#mebb0b577a7" y="310.312494"/>
    </g>
   </g>
   <g id="PolyCollection_2">
    <defs>
     <path d="M 47.98112 -218.497283 
L 47.98112 -137.546078 
L 50.51868 -152.471979 
L 53.05624 -164.779612 
L 55.5938 -174.184725 
L 58.13136 -180.739556 
L 60.66892 -184.624358 
L 63.20648 -186.114913 
L 65.74404 -185.733494 
L 68.2816 -184.469775 
L 70.81916 -183.597228 
L 73.35672 -183.722815 
L 75.89428 -184.191981 
L 78.43184 -184.011633 
L 80.9694 -183.063439 
L 83.50696 -182.177781 
L 86.04452 -182.030162 
L 88.58208 -182.225095 
L 91.119641 -181.981374 
L 93.657201 -181.320415 
L 96.194761 -181.023816 
L 98.732321 -181.43669 
L 101.269881 -181.927368 
L 103.807441 -181.908694 
L 106.345001 -181.750757 
L 108.882561 -182.222233 
L 111.420121 -183.235424 
L 113.957681 -183.839205 
L 116.495241 -183.439886 
L 119.032801 -182.51489 
L 121.570361 -182.066783 
L 124.107921 -182.366184 
L 126.645481 -182.703521 
L 129.183041 -182.564136 
L 131.720601 -182.405481 
L 134.258161 -182.96596 
L 136.795721 -184.055553 
L 139.333281 -184.694916 
L 141.870841 -184.362105 
L 144.408401 -183.596527 
L 146.945961 -183.325307 
L 149.483521 -183.633753 
L 152.021081 -183.719969 
L 154.558641 -183.13601 
L 157.096202 -182.423692 
L 159.633762 -182.29203 
L 162.171322 -182.510505 
L 164.708882 -182.295466 
L 167.246442 -181.55545 
L 169.784002 -181.083257 
L 172.321562 -181.430394 
L 174.859122 -182.186341 
L 177.396682 -182.861696 
L 179.934242 -183.810245 
L 182.471802 -185.643085 
L 185.009362 -188.023157 
L 187.546922 -189.791411 
L 190.084482 -190.118246 
L 192.622042 -189.155932 
L 195.159602 -187.903043 
L 197.697162 -187.321676 
L 200.234722 -187.370659 
L 202.772282 -187.433973 
L 205.309842 -187.520191 
L 207.847402 -188.198087 
L 210.384962 -189.406959 
L 212.922522 -190.223186 
L 215.460082 -189.94627 
L 217.997642 -188.88065 
L 220.535203 -188.011581 
L 223.072763 -187.846657 
L 225.610323 -187.898167 
L 228.147883 -187.685237 
L 230.685443 -187.576092 
L 233.223003 -188.106238 
L 235.760563 -188.9291 
L 238.298123 -189.240274 
L 240.835683 -188.969351 
L 243.373243 -188.94024 
L 245.910803 -189.729855 
L 248.448363 -190.776331 
L 250.985923 -191.076561 
L 253.523483 -190.339902 
L 256.061043 -189.295002 
L 258.598603 -188.937738 
L 261.136163 -189.319784 
L 263.673723 -189.508836 
L 266.211283 -188.81707 
L 268.748843 -187.598852 
L 271.286403 -186.818889 
L 273.823963 -186.813808 
L 276.361523 -186.879991 
L 278.899083 -186.380534 
L 281.436643 -185.653495 
L 283.974203 -185.468972 
L 286.511764 -185.805581 
L 289.049324 -185.857369 
L 291.586884 -185.262717 
L 294.124444 -184.64081 
L 296.662004 -184.71812 
L 299.199564 -185.355689 
L 301.737124 -186.08797 
L 304.274684 -187.125316 
L 306.812244 -188.950754 
L 309.349804 -191.16835 
L 311.887364 -192.611348 
L 314.424924 -192.461311 
L 316.962484 -190.891299 
L 319.500044 -188.946136 
L 322.037604 -187.646154 
L 324.575164 -186.961242 
L 327.112724 -186.180197 
L 329.650284 -185.160366 
L 332.187844 -184.531056 
L 334.725404 -184.614405 
L 337.262964 -184.864637 
L 339.800524 -184.843492 
L 342.338084 -185.02147 
L 344.875644 -186.027616 
L 347.413204 -187.511024 
L 349.950765 -188.466089 
L 352.488325 -188.397097 
L 355.025885 -187.815159 
L 357.563445 -187.718844 
L 360.101005 -188.396847 
L 362.638565 -189.015724 
L 365.176125 -188.751141 
L 367.713685 -187.827118 
L 370.251245 -187.159985 
L 372.788805 -187.088509 
L 375.326365 -187.020675 
L 377.863925 -186.535475 
L 380.401485 -186.117411 
L 382.939045 -186.420193 
L 385.476605 -187.158201 
L 388.014165 -187.440032 
L 390.551725 -186.996382 
L 393.089285 -186.524676 
L 395.626845 -186.732506 
L 398.164405 -187.329917 
L 400.701965 -187.558392 
L 403.239525 -187.395402 
L 405.777085 -187.590633 
L 408.314645 -188.474116 
L 410.852205 -189.324241 
L 413.389765 -189.296691 
L 415.927326 -188.46707 
L 418.464886 -187.750157 
L 421.002446 -187.76721 
L 423.540006 -188.049005 
L 426.077566 -187.830323 
L 428.615126 -187.199033 
L 431.152686 -187.013571 
L 433.690246 -187.784229 
L 436.227806 -189.261939 
L 438.765366 -191.331895 
L 441.302926 -194.270574 
L 443.840486 -197.767856 
L 446.378046 -200.668471 
L 448.915606 -201.950825 
L 451.453166 -201.455974 
L 453.990726 -199.953875 
L 456.528286 -198.646632 
L 459.065846 -198.069233 
L 461.603406 -197.603612 
L 464.140966 -196.448657 
L 466.678526 -194.664825 
L 469.216086 -193.10744 
L 471.753646 -192.338345 
L 474.291206 -191.948618 
L 476.828766 -191.414709 
L 479.366327 -191.019702 
L 481.903887 -191.315852 
L 484.441447 -192.009188 
L 486.979007 -192.187093 
L 489.516567 -191.520884 
L 492.054127 -190.697693 
L 494.591687 -190.545271 
L 497.129247 -190.883281 
L 499.666807 -190.792729 
L 502.204367 -189.846365 
L 504.741927 -188.639207 
L 507.279487 -188.13876 
L 509.817047 -188.664676 
L 512.354607 -190.041089 
L 514.892167 -192.351212 
L 517.429727 -195.489405 
L 519.967287 -198.510483 
L 522.504847 -200.275604 
L 525.042407 -200.353328 
L 527.579967 -199.285516 
L 530.117527 -198.294529 
L 532.655087 -198.279294 
L 535.192647 -198.87705 
L 537.730207 -198.903983 
L 540.267767 -197.329723 
L 542.805327 -193.545047 
L 545.342888 -187.163296 
L 547.880448 -177.850897 
L 550.418008 -165.335799 
L 552.955568 -149.62309 
L 552.955568 -223.31434 
L 552.955568 -223.31434 
L 550.418008 -237.033097 
L 547.880448 -246.163087 
L 545.342888 -251.981754 
L 542.805327 -255.504661 
L 540.267767 -257.425835 
L 537.730207 -258.212603 
L 535.192647 -258.251486 
L 532.655087 -257.980608 
L 530.117527 -257.851609 
L 527.579967 -258.034466 
L 525.042407 -258.263592 
L 522.504847 -258.132021 
L 519.967287 -257.430037 
L 517.429727 -256.269975 
L 514.892167 -255.043454 
L 512.354607 -254.148439 
L 509.817047 -253.718329 
L 507.279487 -253.743791 
L 504.741927 -254.196438 
L 502.204367 -254.84918 
L 499.666807 -255.316327 
L 497.129247 -255.400461 
L 494.591687 -255.266141 
L 492.054127 -255.246852 
L 489.516567 -255.4385 
L 486.979007 -255.596708 
L 484.441447 -255.501244 
L 481.903887 -255.249191 
L 479.366327 -255.130343 
L 476.828766 -255.247653 
L 474.291206 -255.438402 
L 471.753646 -255.618666 
L 469.216086 -255.943886 
L 466.678526 -256.516345 
L 464.140966 -257.133858 
L 461.603406 -257.519911 
L 459.065846 -257.660519 
L 456.528286 -257.815646 
L 453.990726 -258.190084 
L 451.453166 -258.625943 
L 448.915606 -258.746584 
L 446.378046 -258.299187 
L 443.840486 -257.319742 
L 441.302926 -256.131164 
L 438.765366 -255.128526 
L 436.227806 -254.453961 
L 433.690246 -254.043745 
L 431.152686 -253.923598 
L 428.615126 -254.13546 
L 426.077566 -254.480576 
L 423.540006 -254.675384 
L 421.002446 -254.701679 
L 418.464886 -254.808854 
L 415.927326 -255.13516 
L 413.389765 -255.465019 
L 410.852205 -255.496756 
L 408.314645 -255.204708 
L 405.777085 -254.866748 
L 403.239525 -254.736827 
L 400.701965 -254.739057 
L 398.164405 -254.650874 
L 395.626845 -254.47738 
L 393.089285 -254.442385 
L 390.551725 -254.611833 
L 388.014165 -254.739457 
L 385.476605 -254.595314 
L 382.939045 -254.268794 
L 380.401485 -254.057537 
L 377.863925 -254.069624 
L 375.326365 -254.104617 
L 372.788805 -254.006814 
L 370.251245 -253.913775 
L 367.713685 -254.031132 
L 365.176125 -254.276865 
L 362.638565 -254.387959 
L 360.101005 -254.319051 
L 357.563445 -254.327489 
L 355.025885 -254.611684 
L 352.488325 -254.982867 
L 349.950765 -255.060856 
L 347.413204 -254.669879 
L 344.875644 -253.994023 
L 342.338084 -253.422978 
L 339.800524 -253.160065 
L 337.262964 -253.061573 
L 334.725404 -252.979573 
L 332.187844 -253.024469 
L 329.650284 -253.327896 
L 327.112724 -253.750762 
L 324.575164 -254.082463 
L 322.037604 -254.379444 
L 319.500044 -254.873688 
L 316.962484 -255.558035 
L 314.424924 -256.080329 
L 311.887364 -256.087324 
L 309.349804 -255.514417 
L 306.812244 -254.631546 
L 304.274684 -253.84988 
L 301.737124 -253.34817 
L 299.199564 -252.99982 
L 296.662004 -252.732907 
L 294.124444 -252.674882 
L 291.586884 -252.840489 
L 289.049324 -252.970163 
L 286.511764 -252.857227 
L 283.974203 -252.631853 
L 281.436643 -252.575408 
L 278.899083 -252.706465 
L 276.361523 -252.781193 
L 273.823963 -252.707536 
L 271.286403 -252.717337 
L 268.748843 -253.038281 
L 266.211283 -253.523363 
L 263.673723 -253.825183 
L 261.136163 -253.832767 
L 258.598603 -253.801264 
L 256.061043 -254.052262 
L 253.523483 -254.54584 
L 250.985923 -254.913898 
L 248.448363 -254.890562 
L 245.910803 -254.570403 
L 243.373243 -254.308856 
L 240.835683 -254.331329 
L 238.298123 -254.471799 
L 235.760563 -254.448554 
L 233.223003 -254.256344 
L 230.685443 -254.143148 
L 228.147883 -254.237428 
L 225.610323 -254.396183 
L 223.072763 -254.516525 
L 220.535203 -254.738404 
L 217.997642 -255.176208 
L 215.460082 -255.624446 
L 212.922522 -255.745537 
L 210.384962 -255.435055 
L 207.847402 -254.924119 
L 205.309842 -254.547067 
L 202.772282 -254.391038 
L 200.234722 -254.330099 
L 197.697162 -254.37195 
L 195.159602 -254.668138 
L 192.622042 -255.149319 
L 190.084482 -255.435131 
L 187.546922 -255.165955 
L 185.009362 -254.280014 
L 182.471802 -253.072291 
L 179.934242 -252.008201 
L 177.396682 -251.30998 
L 174.859122 -250.837123 
L 172.321562 -250.480261 
L 169.784002 -250.400404 
L 167.246442 -250.723834 
L 164.708882 -251.230362 
L 162.171322 -251.613835 
L 159.633762 -251.877275 
L 157.096202 -252.254509 
L 154.558641 -252.788466 
L 152.021081 -253.22584 
L 149.483521 -253.393336 
L 146.945961 -253.447723 
L 144.408401 -253.648288 
L 141.870841 -253.957338 
L 139.333281 -254.071273 
L 136.795721 -253.823904 
L 134.258161 -253.402195 
L 131.720601 -253.147906 
L 129.183041 -253.142895 
L 126.645481 -253.154174 
L 124.107921 -253.032883 
L 121.570361 -252.947835 
L 119.032801 -253.127364 
L 116.495241 -253.467754 
L 113.957681 -253.620134 
L 111.420121 -253.414373 
L 108.882561 -253.047341 
L 106.345001 -252.852585 
L 103.807441 -252.887248 
L 101.269881 -252.913722 
L 98.732321 -252.808249 
L 96.194761 -252.752795 
L 93.657201 -252.941593 
L 91.119641 -253.253119 
L 88.58208 -253.431879 
L 86.04452 -253.474039 
L 83.50696 -253.630706 
L 80.9694 -254.020926 
L 78.43184 -254.423072 
L 75.89428 -254.580785 
L 73.35672 -254.551356 
L 70.81916 -254.660365 
L 68.2816 -255.08923 
L 65.74404 -255.578059 
L 63.20648 -255.627457 
L 60.66892 -254.787379 
L 58.13136 -252.667206 
L 55.5938 -248.794582 
L 53.05624 -242.481115 
L 50.51868 -232.759895 
L 47.98112 -218.497283 
z
" id="mdeed928c6a" style="stroke:#ffffff;"/>
    </defs>
    <g clip-path="url(#p7b4b3300da)">
     <use style="fill:#ff4500;fill-opacity:0.7;stroke:#ffffff;" x="0" xlink:href="#mdeed928c6a" y="310.312494"/>
    </g>
   </g>
   <g id="PolyCollection_3">
    <defs>
     <path d="M 47.98112 -273.880306 
L 47.98112 -218.497283 
L 50.51868 -232.759895 
L 53.05624 -242.481115 
L 55.5938 -248.794582 
L 58.13136 -252.667206 
L 60.66892 -254.787379 
L 63.20648 -255.627457 
L 65.74404 -255.578059 
L 68.2816 -255.08923 
L 70.81916 -254.660365 
L 73.35672 -254.551356 
L 75.89428 -254.580785 
L 78.43184 -254.423072 
L 80.9694 -254.020926 
L 83.50696 -253.630706 
L 86.04452 -253.474039 
L 88.58208 -253.431879 
L 91.119641 -253.253119 
L 93.657201 -252.941593 
L 96.194761 -252.752795 
L 98.732321 -252.808249 
L 101.269881 -252.913722 
L 103.807441 -252.887248 
L 106.345001 -252.852585 
L 108.882561 -253.047341 
L 111.420121 -253.414373 
L 113.957681 -253.620134 
L 116.495241 -253.467754 
L 119.032801 -253.127364 
L 121.570361 -252.947835 
L 124.107921 -253.032883 
L 126.645481 -253.154174 
L 129.183041 -253.142895 
L 131.720601 -253.147906 
L 134.258161 -253.402195 
L 136.795721 -253.823904 
L 139.333281 -254.071273 
L 141.870841 -253.957338 
L 144.408401 -253.648288 
L 146.945961 -253.447723 
L 149.483521 -253.393336 
L 152.021081 -253.22584 
L 154.558641 -252.788466 
L 157.096202 -252.254509 
L 159.633762 -251.877275 
L 162.171322 -251.613835 
L 164.708882 -251.230362 
L 167.246442 -250.723834 
L 169.784002 -250.400404 
L 172.321562 -250.480261 
L 174.859122 -250.837123 
L 177.396682 -251.30998 
L 179.934242 -252.008201 
L 182.471802 -253.072291 
L 185.009362 -254.280014 
L 187.546922 -255.165955 
L 190.084482 -255.435131 
L 192.622042 -255.149319 
L 195.159602 -254.668138 
L 197.697162 -254.37195 
L 200.234722 -254.330099 
L 202.772282 -254.391038 
L 205.309842 -254.547067 
L 207.847402 -254.924119 
L 210.384962 -255.435055 
L 212.922522 -255.745537 
L 215.460082 -255.624446 
L 217.997642 -255.176208 
L 220.535203 -254.738404 
L 223.072763 -254.516525 
L 225.610323 -254.396183 
L 228.147883 -254.237428 
L 230.685443 -254.143148 
L 233.223003 -254.256344 
L 235.760563 -254.448554 
L 238.298123 -254.471799 
L 240.835683 -254.331329 
L 243.373243 -254.308856 
L 245.910803 -254.570403 
L 248.448363 -254.890562 
L 250.985923 -254.913898 
L 253.523483 -254.54584 
L 256.061043 -254.052262 
L 258.598603 -253.801264 
L 261.136163 -253.832767 
L 263.673723 -253.825183 
L 266.211283 -253.523363 
L 268.748843 -253.038281 
L 271.286403 -252.717337 
L 273.823963 -252.707536 
L 276.361523 -252.781193 
L 278.899083 -252.706465 
L 281.436643 -252.575408 
L 283.974203 -252.631853 
L 286.511764 -252.857227 
L 289.049324 -252.970163 
L 291.586884 -252.840489 
L 294.124444 -252.674882 
L 296.662004 -252.732907 
L 299.199564 -252.99982 
L 301.737124 -253.34817 
L 304.274684 -253.84988 
L 306.812244 -254.631546 
L 309.349804 -255.514417 
L 311.887364 -256.087324 
L 314.424924 -256.080329 
L 316.962484 -255.558035 
L 319.500044 -254.873688 
L 322.037604 -254.379444 
L 324.575164 -254.082463 
L 327.112724 -253.750762 
L 329.650284 -253.327896 
L 332.187844 -253.024469 
L 334.725404 -252.979573 
L 337.262964 -253.061573 
L 339.800524 -253.160065 
L 342.338084 -253.422978 
L 344.875644 -253.994023 
L 347.413204 -254.669879 
L 349.950765 -255.060856 
L 352.488325 -254.982867 
L 355.025885 -254.611684 
L 357.563445 -254.327489 
L 360.101005 -254.319051 
L 362.638565 -254.387959 
L 365.176125 -254.276865 
L 367.713685 -254.031132 
L 370.251245 -253.913775 
L 372.788805 -254.006814 
L 375.326365 -254.104617 
L 377.863925 -254.069624 
L 380.401485 -254.057537 
L 382.939045 -254.268794 
L 385.476605 -254.595314 
L 388.014165 -254.739457 
L 390.551725 -254.611833 
L 393.089285 -254.442385 
L 395.626845 -254.47738 
L 398.164405 -254.650874 
L 400.701965 -254.739057 
L 403.239525 -254.736827 
L 405.777085 -254.866748 
L 408.314645 -255.204708 
L 410.852205 -255.496756 
L 413.389765 -255.465019 
L 415.927326 -255.13516 
L 418.464886 -254.808854 
L 421.002446 -254.701679 
L 423.540006 -254.675384 
L 426.077566 -254.480576 
L 428.615126 -254.13546 
L 431.152686 -253.923598 
L 433.690246 -254.043745 
L 436.227806 -254.453961 
L 438.765366 -255.128526 
L 441.302926 -256.131164 
L 443.840486 -257.319742 
L 446.378046 -258.299187 
L 448.915606 -258.746584 
L 451.453166 -258.625943 
L 453.990726 -258.190084 
L 456.528286 -257.815646 
L 459.065846 -257.660519 
L 461.603406 -257.519911 
L 464.140966 -257.133858 
L 466.678526 -256.516345 
L 469.216086 -255.943886 
L 471.753646 -255.618666 
L 474.291206 -255.438402 
L 476.828766 -255.247653 
L 479.366327 -255.130343 
L 481.903887 -255.249191 
L 484.441447 -255.501244 
L 486.979007 -255.596708 
L 489.516567 -255.4385 
L 492.054127 -255.246852 
L 494.591687 -255.266141 
L 497.129247 -255.400461 
L 499.666807 -255.316327 
L 502.204367 -254.84918 
L 504.741927 -254.196438 
L 507.279487 -253.743791 
L 509.817047 -253.718329 
L 512.354607 -254.148439 
L 514.892167 -255.043454 
L 517.429727 -256.269975 
L 519.967287 -257.430037 
L 522.504847 -258.132021 
L 525.042407 -258.263592 
L 527.579967 -258.034466 
L 530.117527 -257.851609 
L 532.655087 -257.980608 
L 535.192647 -258.251486 
L 537.730207 -258.212603 
L 540.267767 -257.425835 
L 542.805327 -255.504661 
L 545.342888 -251.981754 
L 547.880448 -246.163087 
L 550.418008 -237.033097 
L 552.955568 -223.31434 
L 552.955568 -273.880306 
L 552.955568 -273.880306 
L 550.418008 -273.880306 
L 547.880448 -273.880306 
L 545.342888 -273.880306 
L 542.805327 -273.880306 
L 540.267767 -273.880306 
L 537.730207 -273.880306 
L 535.192647 -273.880306 
L 532.655087 -273.880306 
L 530.117527 -273.880306 
L 527.579967 -273.880306 
L 525.042407 -273.880306 
L 522.504847 -273.880306 
L 519.967287 -273.880306 
L 517.429727 -273.880306 
L 514.892167 -273.880306 
L 512.354607 -273.880306 
L 509.817047 -273.880306 
L 507.279487 -273.880306 
L 504.741927 -273.880306 
L 502.204367 -273.880306 
L 499.666807 -273.880306 
L 497.129247 -273.880306 
L 494.591687 -273.880306 
L 492.054127 -273.880306 
L 489.516567 -273.880306 
L 486.979007 -273.880306 
L 484.441447 -273.880306 
L 481.903887 -273.880306 
L 479.366327 -273.880306 
L 476.828766 -273.880306 
L 474.291206 -273.880306 
L 471.753646 -273.880306 
L 469.216086 -273.880306 
L 466.678526 -273.880306 
L 464.140966 -273.880306 
L 461.603406 -273.880306 
L 459.065846 -273.880306 
L 456.528286 -273.880306 
L 453.990726 -273.880306 
L 451.453166 -273.880306 
L 448.915606 -273.880306 
L 446.378046 -273.880306 
L 443.840486 -273.880306 
L 441.302926 -273.880306 
L 438.765366 -273.880306 
L 436.227806 -273.880306 
L 433.690246 -273.880306 
L 431.152686 -273.880306 
L 428.615126 -273.880306 
L 426.077566 -273.880306 
L 423.540006 -273.880306 
L 421.002446 -273.880306 
L 418.464886 -273.880306 
L 415.927326 -273.880306 
L 413.389765 -273.880306 
L 410.852205 -273.880306 
L 408.314645 -273.880306 
L 405.777085 -273.880306 
L 403.239525 -273.880306 
L 400.701965 -273.880306 
L 398.164405 -273.880306 
L 395.626845 -273.880306 
L 393.089285 -273.880306 
L 390.551725 -273.880306 
L 388.014165 -273.880306 
L 385.476605 -273.880306 
L 382.939045 -273.880306 
L 380.401485 -273.880306 
L 377.863925 -273.880306 
L 375.326365 -273.880306 
L 372.788805 -273.880306 
L 370.251245 -273.880306 
L 367.713685 -273.880306 
L 365.176125 -273.880306 
L 362.638565 -273.880306 
L 360.101005 -273.880306 
L 357.563445 -273.880306 
L 355.025885 -273.880306 
L 352.488325 -273.880306 
L 349.950765 -273.880306 
L 347.413204 -273.880306 
L 344.875644 -273.880306 
L 342.338084 -273.880306 
L 339.800524 -273.880306 
L 337.262964 -273.880306 
L 334.725404 -273.880306 
L 332.187844 -273.880306 
L 329.650284 -273.880306 
L 327.112724 -273.880306 
L 324.575164 -273.880306 
L 322.037604 -273.880306 
L 319.500044 -273.880306 
L 316.962484 -273.880306 
L 314.424924 -273.880306 
L 311.887364 -273.880306 
L 309.349804 -273.880306 
L 306.812244 -273.880306 
L 304.274684 -273.880306 
L 301.737124 -273.880306 
L 299.199564 -273.880306 
L 296.662004 -273.880306 
L 294.124444 -273.880306 
L 291.586884 -273.880306 
L 289.049324 -273.880306 
L 286.511764 -273.880306 
L 283.974203 -273.880306 
L 281.436643 -273.880306 
L 278.899083 -273.880306 
L 276.361523 -273.880306 
L 273.823963 -273.880306 
L 271.286403 -273.880306 
L 268.748843 -273.880306 
L 266.211283 -273.880306 
L 263.673723 -273.880306 
L 261.136163 -273.880306 
L 258.598603 -273.880306 
L 256.061043 -273.880306 
L 253.523483 -273.880306 
L 250.985923 -273.880306 
L 248.448363 -273.880306 
L 245.910803 -273.880306 
L 243.373243 -273.880306 
L 240.835683 -273.880306 
L 238.298123 -273.880306 
L 235.760563 -273.880306 
L 233.223003 -273.880306 
L 230.685443 -273.880306 
L 228.147883 -273.880306 
L 225.610323 -273.880306 
L 223.072763 -273.880306 
L 220.535203 -273.880306 
L 217.997642 -273.880306 
L 215.460082 -273.880306 
L 212.922522 -273.880306 
L 210.384962 -273.880306 
L 207.847402 -273.880306 
L 205.309842 -273.880306 
L 202.772282 -273.880306 
L 200.234722 -273.880306 
L 197.697162 -273.880306 
L 195.159602 -273.880306 
L 192.622042 -273.880306 
L 190.084482 -273.880306 
L 187.546922 -273.880306 
L 185.009362 -273.880306 
L 182.471802 -273.880306 
L 179.934242 -273.880306 
L 177.396682 -273.880306 
L 174.859122 -273.880306 
L 172.321562 -273.880306 
L 169.784002 -273.880306 
L 167.246442 -273.880306 
L 164.708882 -273.880306 
L 162.171322 -273.880306 
L 159.633762 -273.880306 
L 157.096202 -273.880306 
L 154.558641 -273.880306 
L 152.021081 -273.880306 
L 149.483521 -273.880306 
L 146.945961 -273.880306 
L 144.408401 -273.880306 
L 141.870841 -273.880306 
L 139.333281 -273.880306 
L 136.795721 -273.880306 
L 134.258161 -273.880306 
L 131.720601 -273.880306 
L 129.183041 -273.880306 
L 126.645481 -273.880306 
L 124.107921 -273.880306 
L 121.570361 -273.880306 
L 119.032801 -273.880306 
L 116.495241 -273.880306 
L 113.957681 -273.880306 
L 111.420121 -273.880306 
L 108.882561 -273.880306 
L 106.345001 -273.880306 
L 103.807441 -273.880306 
L 101.269881 -273.880306 
L 98.732321 -273.880306 
L 96.194761 -273.880306 
L 93.657201 -273.880306 
L 91.119641 -273.880306 
L 88.58208 -273.880306 
L 86.04452 -273.880306 
L 83.50696 -273.880306 
L 80.9694 -273.880306 
L 78.43184 -273.880306 
L 75.89428 -273.880306 
L 73.35672 -273.880306 
L 70.81916 -273.880306 
L 68.2816 -273.880306 
L 65.74404 -273.880306 
L 63.20648 -273.880306 
L 60.66892 -273.880306 
L 58.13136 -273.880306 
L 55.5938 -273.880306 
L 53.05624 -273.880306 
L 50.51868 -273.880306 
L 47.98112 -273.880306 
z
" id="m710916989d" style="stroke:#ffffff;"/>
    </defs>
    <g clip-path="url(#p7b4b3300da)">
     <use style="fill:#ff0000;fill-opacity:0.7;stroke:#ffffff;" x="0" xlink:href="#m710916989d" y="310.312494"/>
    </g>
   </g>
   <g id="LineCollection_1">
    <path clip-path="url(#p7b4b3300da)" d="M 47.98112 97.78305 
L 552.955568 97.78305 
" style="fill:none;stroke:#000000;stroke-dasharray:7.4,3.2;stroke-dashoffset:0;stroke-width:2;"/>
   </g>
   <g id="LineCollection_2">
    <path clip-path="url(#p7b4b3300da)" d="M 47.98112 56.882475 
L 552.955568 56.882475 
" style="fill:none;stroke:#000000;stroke-dasharray:7.4,3.2;stroke-dashoffset:0;stroke-width:2;"/>
   </g>
   <g id="patch_3">
    <path d="M 64.862344 240.935062 
L 64.862344 36.432187 
" style="fill:none;stroke:#cccccc;stroke-linecap:square;stroke-linejoin:miter;stroke-width:1.25;"/>
   </g>
   <g id="patch_4">
    <path d="M 536.074344 240.935062 
L 536.074344 36.432187 
" style="fill:none;stroke:#cccccc;stroke-linecap:square;stroke-linejoin:miter;stroke-width:1.25;"/>
   </g>
   <g id="patch_5">
    <path d="M 64.862344 240.935062 
L 536.074344 240.935062 
" style="fill:none;stroke:#cccccc;stroke-linecap:square;stroke-linejoin:miter;stroke-width:1.25;"/>
   </g>
   <g id="patch_6">
    <path d="M 64.862344 36.432187 
L 536.074344 36.432187 
" style="fill:none;stroke:#cccccc;stroke-linecap:square;stroke-linejoin:miter;stroke-width:1.25;"/>
   </g>
   <g id="text_29">
    <!-- Likely Humans -->
    <g style="fill:#262626;" transform="translate(397.95162 173.585802)scale(0.139944 -0.139944)">
     <defs>
      <path d="M 10.984375 0 
L 10.984375 72.90625 
L 25.390625 72.90625 
L 25.390625 12.703125 
L 56.203125 12.703125 
L 56.203125 0 
z
" id="DejaVuSansMono-Bold-76"/>
      <path d="M 10.796875 54.6875 
L 39.109375 54.6875 
L 39.109375 10.984375 
L 56.890625 10.984375 
L 56.890625 0 
L 6.984375 0 
L 6.984375 10.984375 
L 24.8125 10.984375 
L 24.8125 43.703125 
L 10.796875 43.703125 
z
M 24.8125 81.296875 
L 39.109375 81.296875 
L 39.109375 64.59375 
L 24.8125 64.59375 
z
" id="DejaVuSansMono-Bold-105"/>
      <path d="M 8.5 75.984375 
L 22.796875 75.984375 
L 22.796875 36.078125 
L 39.984375 54.6875 
L 57.328125 54.6875 
L 36.625 34.28125 
L 58.5 0 
L 42.671875 0 
L 27.6875 25.59375 
L 22.796875 20.90625 
L 22.796875 0 
L 8.5 0 
z
" id="DejaVuSansMono-Bold-107"/>
      <path d="M 53.8125 2.6875 
Q 48.828125 0.640625 43.65625 -0.390625 
Q 38.484375 -1.421875 32.71875 -1.421875 
Q 19 -1.421875 11.75 5.921875 
Q 4.5 13.28125 4.5 27.09375 
Q 4.5 40.484375 11.46875 48.234375 
Q 18.453125 56 30.515625 56 
Q 42.671875 56 49.390625 48.796875 
Q 56.109375 41.609375 56.109375 28.515625 
L 56.109375 22.703125 
L 19.046875 22.703125 
Q 19.09375 16.265625 22.84375 13.078125 
Q 26.609375 9.90625 34.078125 9.90625 
Q 39.015625 9.90625 43.796875 11.328125 
Q 48.578125 12.75 53.8125 15.828125 
z
M 41.703125 33.453125 
Q 41.609375 39.109375 38.796875 42.015625 
Q 35.984375 44.921875 30.515625 44.921875 
Q 25.59375 44.921875 22.65625 41.921875 
Q 19.734375 38.921875 19.1875 33.40625 
z
" id="DejaVuSansMono-Bold-101"/>
      <path d="M 18.890625 22.796875 
L 18.890625 64.984375 
L 4.390625 64.984375 
L 4.390625 75.984375 
L 33.203125 75.984375 
L 33.203125 22.796875 
Q 33.203125 16.359375 35.203125 13.671875 
Q 37.203125 10.984375 42 10.984375 
L 53.421875 10.984375 
L 53.421875 0 
L 37.984375 0 
Q 27.78125 0 23.328125 5.265625 
Q 18.890625 10.546875 18.890625 22.796875 
z
" id="DejaVuSansMono-Bold-108"/>
      <path d="M 34.71875 -5.90625 
Q 31.84375 -13.625 27.8125 -17.15625 
Q 23.78125 -20.703125 18.015625 -20.703125 
L 6.203125 -20.703125 
L 6.203125 -9.8125 
L 12.015625 -9.8125 
Q 16.40625 -9.8125 18.453125 -8.328125 
Q 20.515625 -6.84375 22.609375 -1.421875 
L 23.6875 1.515625 
L 2.875 54.6875 
L 17.921875 54.6875 
L 30.421875 19.1875 
L 42.390625 54.6875 
L 57.421875 54.6875 
z
" id="DejaVuSansMono-Bold-121"/>
      <path id="DejaVuSansMono-Bold-32"/>
      <path d="M 6.6875 72.90625 
L 21.09375 72.90625 
L 21.09375 45.125 
L 39.109375 45.125 
L 39.109375 72.90625 
L 53.515625 72.90625 
L 53.515625 0 
L 39.109375 0 
L 39.109375 32.421875 
L 21.09375 32.421875 
L 21.09375 0 
L 6.6875 0 
z
" id="DejaVuSansMono-Bold-72"/>
      <path d="M 7.8125 19.09375 
L 7.8125 54.6875 
L 22.125 54.6875 
L 22.125 21.296875 
Q 22.125 15.375 23.78125 12.828125 
Q 25.4375 10.296875 29.296875 10.296875 
Q 33.15625 10.296875 35.328125 13.71875 
Q 37.5 17.140625 37.5 23.296875 
L 37.5 54.6875 
L 51.8125 54.6875 
L 51.8125 0 
L 37.5 0 
L 37.5 8.109375 
Q 35.984375 3.5625 32.34375 1.0625 
Q 28.71875 -1.421875 23.578125 -1.421875 
Q 15.765625 -1.421875 11.78125 3.75 
Q 7.8125 8.9375 7.8125 19.09375 
z
" id="DejaVuSansMono-Bold-117"/>
      <path d="M 33.6875 49.21875 
Q 35.296875 52.6875 37.78125 54.34375 
Q 40.28125 56 43.890625 56 
Q 50.984375 56 53.6875 51.109375 
Q 56.390625 46.234375 56.390625 30.8125 
L 56.390625 0 
L 44.671875 0 
L 44.671875 35.109375 
Q 44.671875 41.21875 43.75 43.265625 
Q 42.828125 45.3125 40.375 45.3125 
Q 37.9375 45.3125 36.953125 43.203125 
Q 35.984375 41.109375 35.984375 35.109375 
L 35.984375 0 
L 24.421875 0 
L 24.421875 35.109375 
Q 24.421875 41.109375 23.4375 43.203125 
Q 22.46875 45.3125 20.015625 45.3125 
Q 17.578125 45.3125 16.640625 43.265625 
Q 15.71875 41.21875 15.71875 35.109375 
L 15.71875 0 
L 4 0 
L 4 54.6875 
L 14.40625 54.6875 
L 14.40625 49.03125 
Q 15.625 52.25 18.3125 54.125 
Q 21 56 24.3125 56 
Q 27.640625 56 30.375 54.015625 
Q 33.109375 52.046875 33.6875 49.21875 
z
" id="DejaVuSansMono-Bold-109"/>
      <path d="M 34.1875 25.6875 
Q 26.171875 25.6875 23 23.625 
Q 19.828125 21.578125 19.828125 16.609375 
Q 19.828125 12.890625 22.015625 10.6875 
Q 24.21875 8.5 27.984375 8.5 
Q 33.640625 8.5 36.765625 12.765625 
Q 39.890625 17.046875 39.890625 24.703125 
L 39.890625 25.6875 
z
M 54.109375 31.203125 
L 54.109375 0 
L 39.890625 0 
L 39.890625 6.109375 
Q 37.3125 2.484375 33.25 0.53125 
Q 29.203125 -1.421875 24.3125 -1.421875 
Q 14.984375 -1.421875 9.78125 3.515625 
Q 4.59375 8.453125 4.59375 17.28125 
Q 4.59375 26.859375 10.796875 31.421875 
Q 17 35.984375 29.984375 35.984375 
L 39.890625 35.984375 
L 39.890625 38.375 
Q 39.890625 41.84375 37.375 43.625 
Q 34.859375 45.40625 29.984375 45.40625 
Q 24.859375 45.40625 20.046875 44.109375 
Q 15.234375 42.828125 10.015625 39.984375 
L 10.015625 52.203125 
Q 14.75 54.15625 19.625 55.078125 
Q 24.515625 56 29.984375 56 
Q 43.3125 56 48.703125 50.578125 
Q 54.109375 45.171875 54.109375 31.203125 
z
" id="DejaVuSansMono-Bold-97"/>
      <path d="M 52.296875 35.5 
L 52.296875 0 
L 38.09375 0 
L 38.09375 33.296875 
Q 38.09375 39.265625 36.40625 41.828125 
Q 34.71875 44.390625 30.90625 44.390625 
Q 27.046875 44.390625 24.828125 40.921875 
Q 22.609375 37.453125 22.609375 31.296875 
L 22.609375 0 
L 8.40625 0 
L 8.40625 54.6875 
L 22.609375 54.6875 
L 22.609375 46.484375 
Q 24.125 51.03125 27.78125 53.515625 
Q 31.453125 56 36.625 56 
Q 44.390625 56 48.34375 50.84375 
Q 52.296875 45.703125 52.296875 35.5 
z
" id="DejaVuSansMono-Bold-110"/>
      <path d="M 48.390625 52.984375 
L 48.390625 40.484375 
Q 44.4375 43.015625 40.15625 44.3125 
Q 35.890625 45.609375 31.59375 45.609375 
Q 26.8125 45.609375 24.359375 44.21875 
Q 21.921875 42.828125 21.921875 40.09375 
Q 21.921875 36.1875 32.375 33.734375 
L 32.90625 33.59375 
L 37.015625 32.625 
Q 44.828125 30.765625 48.453125 26.640625 
Q 52.09375 22.515625 52.09375 15.484375 
Q 52.09375 7.03125 46.546875 2.796875 
Q 41.015625 -1.421875 29.890625 -1.421875 
Q 24.953125 -1.421875 19.765625 -0.5625 
Q 14.59375 0.296875 9.28125 2 
L 9.28125 14.5 
Q 14.015625 11.8125 18.921875 10.390625 
Q 23.828125 8.984375 28.421875 8.984375 
Q 33.453125 8.984375 36.03125 10.453125 
Q 38.625 11.921875 38.625 14.703125 
Q 38.625 17.4375 36.796875 18.890625 
Q 34.96875 20.359375 28.078125 22.015625 
L 24.125 22.90625 
Q 15.921875 24.75 12.15625 28.703125 
Q 8.40625 32.671875 8.40625 39.3125 
Q 8.40625 47.21875 14.109375 51.609375 
Q 19.828125 56 30.171875 56 
Q 34.8125 56 39.421875 55.25 
Q 44.046875 54.5 48.390625 52.984375 
z
" id="DejaVuSansMono-Bold-115"/>
     </defs>
     <use xlink:href="#DejaVuSansMono-Bold-76"/>
     <use x="60.205078" xlink:href="#DejaVuSansMono-Bold-105"/>
     <use x="120.410156" xlink:href="#DejaVuSansMono-Bold-107"/>
     <use x="180.615234" xlink:href="#DejaVuSansMono-Bold-101"/>
     <use x="240.820312" xlink:href="#DejaVuSansMono-Bold-108"/>
     <use x="301.025391" xlink:href="#DejaVuSansMono-Bold-121"/>
     <use x="361.230469" xlink:href="#DejaVuSansMono-Bold-32"/>
     <use x="421.435547" xlink:href="#DejaVuSansMono-Bold-72"/>
     <use x="481.640625" xlink:href="#DejaVuSansMono-Bold-117"/>
     <use x="541.845703" xlink:href="#DejaVuSansMono-Bold-109"/>
     <use x="602.050781" xlink:href="#DejaVuSansMono-Bold-97"/>
     <use x="662.255859" xlink:href="#DejaVuSansMono-Bold-110"/>
     <use x="722.460938" xlink:href="#DejaVuSansMono-Bold-115"/>
    </g>
   </g>
   <g id="text_30">
    <!-- Likely Semi-Bots -->
    <g style="fill:#262626;" transform="translate(397.95162 81.559509)scale(0.139944 -0.139944)">
     <defs>
      <path d="M 24.90625 31.984375 
Q 14.015625 36.140625 10.15625 40.703125 
Q 6.296875 45.265625 6.296875 52.984375 
Q 6.296875 62.890625 12.640625 68.546875 
Q 19 74.21875 30.078125 74.21875 
Q 35.109375 74.21875 40.140625 73.0625 
Q 45.171875 71.921875 50.09375 69.671875 
L 50.09375 55.609375 
Q 45.453125 58.890625 40.671875 60.59375 
Q 35.890625 62.3125 31.203125 62.3125 
Q 25.984375 62.3125 23.1875 60.203125 
Q 20.40625 58.109375 20.40625 54.203125 
Q 20.40625 51.171875 22.4375 49.1875 
Q 24.46875 47.21875 30.90625 44.828125 
L 37.109375 42.484375 
Q 45.90625 39.265625 50.046875 33.9375 
Q 54.203125 28.609375 54.203125 20.515625 
Q 54.203125 9.46875 47.671875 4.015625 
Q 41.15625 -1.421875 27.984375 -1.421875 
Q 22.5625 -1.421875 17.109375 -0.125 
Q 11.671875 1.171875 6.59375 3.71875 
L 6.59375 18.609375 
Q 12.359375 14.5 17.75 12.5 
Q 23.140625 10.5 28.421875 10.5 
Q 33.734375 10.5 36.65625 12.90625 
Q 39.59375 15.328125 39.59375 19.671875 
Q 39.59375 22.953125 37.640625 25.40625 
Q 35.6875 27.875 31.984375 29.296875 
z
" id="DejaVuSansMono-Bold-83"/>
      <path d="M 14.703125 35.890625 
L 45.515625 35.890625 
L 45.515625 21.6875 
L 14.703125 21.6875 
z
" id="DejaVuSansMono-Bold-45"/>
      <path d="M 20.015625 33.109375 
L 20.015625 11.53125 
L 29.59375 11.53125 
Q 36.46875 11.53125 39.234375 13.875 
Q 42 16.21875 42 22.015625 
Q 42 27.9375 39.109375 30.515625 
Q 36.234375 33.109375 29.59375 33.109375 
z
M 20.015625 61.53125 
L 20.015625 44.578125 
L 29.59375 44.578125 
Q 35.0625 44.578125 37.375 46.53125 
Q 39.703125 48.484375 39.703125 52.984375 
Q 39.703125 57.46875 37.328125 59.5 
Q 34.96875 61.53125 29.59375 61.53125 
z
M 6.109375 73 
L 29.59375 73 
Q 41.75 73 47.875 68.375 
Q 54 63.765625 54 54.59375 
Q 54 47.5625 50.390625 43.609375 
Q 46.78125 39.65625 39.796875 39.015625 
Q 48.140625 38.1875 52.359375 33.390625 
Q 56.59375 28.609375 56.59375 20.015625 
Q 56.59375 9.46875 50.234375 4.734375 
Q 43.890625 0 29.59375 0 
L 6.109375 0 
z
" id="DejaVuSansMono-Bold-66"/>
      <path d="M 30.078125 44.390625 
Q 24.953125 44.390625 22.015625 39.875 
Q 19.09375 35.359375 19.09375 27.296875 
Q 19.09375 19.234375 22.015625 14.71875 
Q 24.953125 10.203125 30.078125 10.203125 
Q 35.25 10.203125 38.171875 14.71875 
Q 41.109375 19.234375 41.109375 27.296875 
Q 41.109375 35.359375 38.171875 39.875 
Q 35.25 44.390625 30.078125 44.390625 
z
M 4.78125 27.296875 
Q 4.78125 40.53125 11.640625 48.265625 
Q 18.5 56 30.078125 56 
Q 41.703125 56 48.5625 48.265625 
Q 55.421875 40.53125 55.421875 27.296875 
Q 55.421875 14.0625 48.5625 6.3125 
Q 41.703125 -1.421875 30.078125 -1.421875 
Q 18.5 -1.421875 11.640625 6.3125 
Q 4.78125 14.0625 4.78125 27.296875 
z
" id="DejaVuSansMono-Bold-111"/>
      <path d="M 33.6875 70.21875 
L 33.6875 54.6875 
L 52.390625 54.6875 
L 52.390625 43.703125 
L 33.6875 43.703125 
L 33.6875 17.828125 
Q 33.6875 14.15625 35.46875 12.5625 
Q 37.25 10.984375 41.40625 10.984375 
L 52.390625 10.984375 
L 52.390625 0 
L 40.375 0 
Q 28.078125 0 23.734375 3.921875 
Q 19.390625 7.859375 19.390625 18.5 
L 19.390625 43.703125 
L 5.421875 43.703125 
L 5.421875 54.6875 
L 19.390625 54.6875 
L 19.390625 70.21875 
z
" id="DejaVuSansMono-Bold-116"/>
     </defs>
     <use xlink:href="#DejaVuSansMono-Bold-76"/>
     <use x="60.205078" xlink:href="#DejaVuSansMono-Bold-105"/>
     <use x="120.410156" xlink:href="#DejaVuSansMono-Bold-107"/>
     <use x="180.615234" xlink:href="#DejaVuSansMono-Bold-101"/>
     <use x="240.820312" xlink:href="#DejaVuSansMono-Bold-108"/>
     <use x="301.025391" xlink:href="#DejaVuSansMono-Bold-121"/>
     <use x="361.230469" xlink:href="#DejaVuSansMono-Bold-32"/>
     <use x="421.435547" xlink:href="#DejaVuSansMono-Bold-83"/>
     <use x="481.640625" xlink:href="#DejaVuSansMono-Bold-101"/>
     <use x="541.845703" xlink:href="#DejaVuSansMono-Bold-109"/>
     <use x="602.050781" xlink:href="#DejaVuSansMono-Bold-105"/>
     <use x="662.255859" xlink:href="#DejaVuSansMono-Bold-45"/>
     <use x="722.460938" xlink:href="#DejaVuSansMono-Bold-66"/>
     <use x="782.666016" xlink:href="#DejaVuSansMono-Bold-111"/>
     <use x="842.871094" xlink:href="#DejaVuSansMono-Bold-116"/>
     <use x="903.076172" xlink:href="#DejaVuSansMono-Bold-115"/>
    </g>
   </g>
   <g id="text_31">
    <!-- Likely Bots -->
    <g style="fill:#262626;" transform="translate(397.95162 30.43379)scale(0.139944 -0.139944)">
     <use xlink:href="#DejaVuSansMono-Bold-76"/>
     <use x="60.205078" xlink:href="#DejaVuSansMono-Bold-105"/>
     <use x="120.410156" xlink:href="#DejaVuSansMono-Bold-107"/>
     <use x="180.615234" xlink:href="#DejaVuSansMono-Bold-101"/>
     <use x="240.820312" xlink:href="#DejaVuSansMono-Bold-108"/>
     <use x="301.025391" xlink:href="#DejaVuSansMono-Bold-121"/>
     <use x="361.230469" xlink:href="#DejaVuSansMono-Bold-32"/>
     <use x="421.435547" xlink:href="#DejaVuSansMono-Bold-66"/>
     <use x="481.640625" xlink:href="#DejaVuSansMono-Bold-111"/>
     <use x="541.845703" xlink:href="#DejaVuSansMono-Bold-116"/>
     <use x="602.050781" xlink:href="#DejaVuSansMono-Bold-115"/>
    </g>
   </g>
  </g>
 </g>
 <defs>
  <clipPath id="p7b4b3300da">
   <rect height="204.502875" width="471.212" x="64.862344" y="36.432187"/>
  </clipPath>
 </defs>
</svg>
